<?xml version="1.0" encoding="utf-8"?>
<!-- Generator: Adobe Illustrator 16.0.0, SVG Export Plug-In . SVG Version: 6.00 Build 0)  -->
<!DOCTYPE svg PUBLIC "-//W3C//DTD SVG 1.1//EN" "http://www.w3.org/Graphics/SVG/1.1/DTD/svg11.dtd">
<svg version="1.1" id="podzol_rooting_soil" xmlns="http://www.w3.org/2000/svg" xmlns:xlink="http://www.w3.org/1999/xlink"
	 x="0px" y="0px" width="511.473px" height="511.473px" viewBox="0 0 511.473 511.473" enable-background="new 0 0 511.473 511.473"
	 xml:space="preserve">
<rect fill="#FFFFFF" width="511.473" height="511.473"/>
<g id="Icon">
	<g id="Sapling">
		<rect x="172.269" y="261.088" fill="#4AA0C7" width="146.062" height="41.718"/>
		<rect x="172.269" y="261.088" fill="#3D83A3" width="20.875" height="20.878"/>
		<rect x="193.144" y="156.762" fill="#3D83A3" width="20.858" height="41.732"/>
		<rect x="193.632" y="302.806" fill="#4AA0C7" width="145.575" height="20.879"/>
		<rect x="214.002" y="177.619" fill="#4AA0C7" width="20.878" height="166.94"/>
		<rect x="255.736" y="302.806" fill="#4AA0C7" width="20.877" height="41.755"/>
		<rect x="297.452" y="177.619" fill="#4AA0C7" width="20.878" height="166.94"/>
		<rect x="276.613" y="135.889" fill="#4AA0C7" width="20.839" height="187.795"/>
		<rect x="339.207" y="281.968" fill="#4AA0C7" width="20.862" height="20.838"/>
		<rect x="276.613" y="240.212" fill="#4AA0C7" width="62.594" height="41.754"/>
		<rect x="214.002" y="240.212" fill="#4AA0C7" width="41.735" height="20.876"/>
		<rect x="211.02" y="116.015" fill="#4AA0C7" width="41.735" height="207.669"/>
		<rect x="151.408" y="281.968" fill="#4AA0C7" width="83.472" height="20.838"/>
		<rect x="172.269" y="198.494" fill="#4AA0C7" width="146.062" height="41.718"/>
		<rect x="234.877" y="156.762" fill="#4AA0C7" width="62.575" height="83.451"/>
		<rect x="276.613" y="135.889" fill="#4AA0C7" width="41.717" height="41.73"/>
		<rect x="255.736" y="115.025" fill="#4AA0C7" width="41.716" height="20.864"/>
		<rect x="276.613" y="115.025" fill="#4AA0C7" width="20.839" height="41.735"/>
		<rect x="193.144" y="115.025" fill="#4AA0C7" width="83.472" height="231.008"/>
		<rect x="234.877" y="52.425" fill="#4AA0C7" width="20.859" height="20.867"/>
		<rect x="214.002" y="73.292" fill="#4AA0C7" width="41.735" height="83.47"/>
		<rect x="193.144" y="115.025" fill="#4AA0C7" width="41.736" height="41.735"/>
		<rect x="172.269" y="135.889" fill="#4AA0C7" width="20.875" height="20.872"/>
		<rect x="193.144" y="177.619" fill="#4AA0C7" width="125.187" height="62.593"/>
		<rect x="276.613" y="177.619" fill="#4AA0C7" width="41.717" height="146.064"/>
		<rect x="255.736" y="219.354" fill="#3D83A3" width="62.594" height="20.858"/>
		<rect x="255.736" y="177.619" fill="#3D83A3" width="20.877" height="62.593"/>
		<rect x="255.736" y="219.354" fill="#3D83A3" width="41.716" height="41.734"/>
		<rect x="234.877" y="198.494" fill="#3D83A3" width="41.736" height="20.86"/>
		<rect x="234.877" y="156.762" fill="#3D83A3" width="20.859" height="20.857"/>
		<rect x="214.002" y="135.889" fill="#3D83A3" width="41.735" height="41.73"/>
		<rect x="193.144" y="281.968" fill="#3D83A3" width="83.472" height="20.838"/>
		<rect x="234.877" y="302.806" fill="#3D83A3" width="62.575" height="20.879"/>
		<rect x="255.736" y="302.806" fill="#3D83A3" width="20.877" height="41.755"/>
		<rect x="151.408" y="281.968" fill="#3D83A3" width="20.86" height="20.838"/>
		<rect x="297.452" y="323.684" fill="#3D83A3" width="41.755" height="20.876"/>
		<rect x="172.269" y="135.889" fill="#3D83A3" width="20.875" height="20.872"/>
		<rect x="276.613" y="135.889" fill="#3D83A3" width="20.839" height="20.872"/>
		<rect x="318.33" y="177.619" fill="#3D83A3" width="20.877" height="20.875"/>
		<rect x="234.877" y="73.292" fill="#3D83A3" width="20.859" height="20.863"/>
		<rect x="234.877" y="292.387" fill="#3D83A3" width="41.736" height="41.717"/>
		<rect x="234.877" y="323.684" fill="#387895" width="20.859" height="41.722"/>
		<rect x="234.877" y="261.088" fill="#387895" width="41.736" height="41.718"/>
		<rect x="255.736" y="240.212" fill="#387895" width="20.877" height="62.594"/>
		<rect x="234.877" y="135.889" fill="#387895" width="41.736" height="20.872"/>
		<rect x="234.877" y="344.56" fill="#387895" width="41.736" height="41.716"/>
		<rect x="234.877" y="73.292" fill="#387895" width="20.859" height="83.47"/>
		<rect x="193.144" y="156.762" fill="#3D83A3" width="41.736" height="20.857"/>
		<rect x="297.452" y="156.762" fill="#3D83A3" width="20.878" height="20.857"/>
		<rect x="193.144" y="240.212" fill="#3D83A3" width="20.858" height="20.876"/>
	</g>
	<g id="Podzol">
		<rect x="88.81" y="365.405" fill="#7FBCD7" width="333.858" height="146.067"/>
		<rect x="88.81" y="365.405" fill="#3D83A3" width="104.333" height="83.464"/>
		<rect x="297.452" y="365.405" fill="#3D83A3" width="64.104" height="83.464"/>
		<rect x="88.81" y="365.405" fill="#3D83A3" width="333.858" height="62.612"/>
		<rect x="151.408" y="365.405" fill="#3D83A3" width="41.735" height="104.342"/>
		<rect x="361.556" y="365.405" fill="#A1CEE2" width="20.878" height="41.748"/>
		<rect x="382.433" y="407.153" fill="#A1CEE2" width="20.851" height="20.864"/>
		<rect x="297.452" y="365.405" fill="#4AA0C7" width="20.878" height="41.748"/>
		<rect x="276.613" y="365.405" fill="#4AA0C7" width="62.594" height="20.87"/>
		<rect x="255.736" y="407.153" fill="#4AA0C7" width="41.716" height="41.716"/>
		<rect x="130.537" y="407.153" fill="#A1CEE2" width="20.871" height="41.716"/>
		<rect x="151.408" y="386.275" fill="#4AA0C7" width="20.86" height="62.594"/>
		<rect x="172.269" y="365.405" fill="#4AA0C7" width="38.751" height="20.87"/>
		<rect x="318.33" y="365.405" fill="#7FBCD7" width="20.877" height="20.87"/>
		<rect x="193.144" y="407.153" fill="#4AA0C7" width="20.858" height="20.864"/>
		<rect x="255.736" y="407.153" fill="#7FBCD7" width="20.877" height="20.864"/>
		<rect x="255.736" y="428.017" fill="#A1CEE2" width="20.877" height="20.852"/>
		<rect x="88.81" y="386.275" fill="#A1CEE2" width="20.863" height="20.878"/>
		<rect x="109.673" y="407.153" fill="#7FBCD7" width="41.735" height="20.864"/>
	</g>
	<g id="Particles">
		<g id="Particle">
			<rect x="276.613" y="70.314" fill="#A1CEE2" width="41.717" height="5.958"/>
			<rect x="294.47" y="52.425" fill="#A1CEE2" width="5.965" height="41.731"/>
			<rect x="288.54" y="64.35" fill="#A1CEE2" width="17.859" height="17.887"/>
		</g>
		<g id="Particle_1_">
			<rect x="363.052" y="247.668" fill="#A1CEE2" width="41.729" height="5.964"/>
			<rect x="380.922" y="229.792" fill="#A1CEE2" width="5.966" height="41.715"/>
			<rect x="374.957" y="241.703" fill="#A1CEE2" width="17.896" height="17.875"/>
		</g>
		<g id="Particle_2_">
			<rect x="115.638" y="162.718" fill="#A1CEE2" width="41.736" height="5.96"/>
			<rect x="133.52" y="144.832" fill="#A1CEE2" width="5.958" height="41.734"/>
			<rect x="127.555" y="156.762" fill="#A1CEE2" width="17.888" height="17.875"/>
		</g>
		<g id="Particle_3_">
			<rect x="97.75" y="278.985" fill="#A1CEE2" width="41.729" height="5.965"/>
			<rect x="115.638" y="261.088" fill="#A1CEE2" width="5.965" height="41.718"/>
			<rect x="109.673" y="273.02" fill="#A1CEE2" width="17.882" height="17.856"/>
		</g>
	</g>
</g>
</svg>
