<?xml version="1.0" encoding="utf-8"?>
<!-- Generator: Adobe Illustrator 16.0.0, SVG Export Plug-In . SVG Version: 6.00 Build 0)  -->
<!DOCTYPE svg PUBLIC "-//W3C//DTD SVG 1.1//EN" "http://www.w3.org/Graphics/SVG/1.1/DTD/svg11.dtd">
<svg version="1.1" id="desire_lines" xmlns="http://www.w3.org/2000/svg" xmlns:xlink="http://www.w3.org/1999/xlink" x="0px"
	 y="0px" width="511.471px" height="511.475px" viewBox="0 0 511.471 511.475" enable-background="new 0 0 511.471 511.475"
	 xml:space="preserve">
<rect x="-0.001" y="0.001" fill="#FFFFFF" width="511.473" height="511.473"/>
<g>
	<g>
		<path fill="none" d="M50.473,511.218h410.534c27.526,0,49.85-22.331,49.85-49.846V50.837c0-27.532-22.326-49.855-49.85-49.855
			H50.473c-27.533,0-49.855,22.324-49.855,49.855v410.531C0.618,488.887,22.942,511.218,50.473,511.218z"/>
	</g>
</g>
<g id="Icon">
	<g id="block_3_">
		<path id="rect4153-4-4" fill="#DBECF4" d="M102.843,164.95L255.45,79.846l152.594,85.104v180.923L255.451,430.97l-152.606-85.096
			L102.843,164.95L102.843,164.95z"/>
	</g>
	<g id="block_2_">
		<path id="rect4153-4" fill="#A1CEE2" d="M126.83,179.394l128.57-71.469l128.626,71.469v152.003L255.4,402.886l-128.57-71.49
			V179.394L126.83,179.394z"/>
	</g>
	<g id="block_1_">
		<path id="rect4153-4-2" fill="#7FBCD7" d="M151.483,193.97l103.966-57.808l103.964,57.808v122.885l-103.964,57.847
			l-103.966-57.847V193.97z"/>
	</g>
</g>
<g>
	<polygon fill="#DBECF4" points="78.226,231.171 54.241,207.205 54.241,241.254 78.226,241.254 	"/>
	<polygon fill="#DBECF4" points="54.241,269.568 54.241,303.601 78.226,280.017 78.226,269.568 	"/>
	<polygon fill="#A1CEE2" points="78.226,269.568 78.226,280.017 78.226,303.601 102.856,279.363 102.856,269.568 	"/>
	<polygon fill="#A1CEE2" points="102.856,241.254 102.856,231.833 78.226,207.205 78.226,231.171 78.226,241.254 	"/>
	<line fill="none" x1="26.077" y1="269.568" x2="26.077" y2="241.254"/>
	<polygon fill="#4AA0C7" points="151.459,255.808 102.856,207.205 102.856,231.833 102.856,241.254 78.226,241.254 54.241,241.254 
		26.077,241.254 26.077,269.568 54.241,269.568 78.226,269.568 102.856,269.568 102.856,279.363 102.856,303.601 	"/>
</g>
<g>
	<polygon fill="#DBECF4" points="432.643,279.635 456.632,303.601 456.632,269.568 432.643,269.568 	"/>
	<polygon fill="#DBECF4" points="456.632,241.255 456.632,207.205 432.643,230.789 432.643,241.255 	"/>
	<polygon fill="#A1CEE2" points="408.001,269.568 408.001,278.975 432.643,303.601 432.643,279.635 422.562,269.568 	"/>
	<polygon fill="#A1CEE2" points="422.007,241.255 432.643,230.789 432.643,207.205 408.001,231.422 408.001,241.255 	"/>
	<polygon fill="#A1CEE2" points="432.643,241.255 432.643,230.789 422.007,241.255 	"/>
	<line fill="none" x1="484.789" y1="241.255" x2="484.789" y2="269.568"/>
	<polygon fill="#A1CEE2" points="422.562,269.568 432.643,279.635 432.643,269.568 	"/>
	<polygon fill="#4AA0C7" points="408.001,231.422 408.001,207.205 359.416,255.017 408.001,303.601 408.001,278.975 
		384.042,255.017 	"/>
	<polygon fill="#4AA0C7" points="422.562,269.568 408.01,255.017 422.007,241.255 408.001,241.255 408.001,231.422 384.042,255.017 
		408.001,278.975 408.001,269.568 	"/>
	<polygon fill="#4AA0C7" points="456.632,241.255 432.643,241.255 422.007,241.255 408.01,255.017 422.562,269.568 432.643,269.568 
		456.632,269.568 484.789,269.568 484.789,241.255 	"/>
</g>
<g id="block_8_">
	<path id="rect4153_2_" fill="#4AA0C7" d="M179.451,210.281l76.016-42.268l75.996,42.268v89.863l-75.996,42.258l-76.016-42.258
		V210.281z"/>
</g>
<polygon id="Band" fill="#2E627A" points="255.466,333.268 175.51,291.047 175.51,223.31 179.661,223.31 179.609,225.31 
	255.466,263.109 331.463,224.1 334.639,224.1 334.639,291.81 "/>
</svg>
