<?xml version="1.0" encoding="utf-8"?>
<!-- Generator: Adobe Illustrator 16.0.0, SVG Export Plug-In . SVG Version: 6.00 Build 0)  -->
<!DOCTYPE svg PUBLIC "-//W3C//DTD SVG 1.1//EN" "http://www.w3.org/Graphics/SVG/1.1/DTD/svg11.dtd">
<svg version="1.1" id="particles_pack" xmlns="http://www.w3.org/2000/svg" xmlns:xlink="http://www.w3.org/1999/xlink" x="0px"
	 y="0px" width="511.473px" height="511.473px" viewBox="0 0 511.473 511.473" enable-background="new 0 0 511.473 511.473"
	 xml:space="preserve">
<rect fill="#FFFFFF" width="511.473" height="511.473"/>
<g id="Icon">
	<g id="Particles">
		<g id="Particle_2_">
			<polygon fill="#4AA0C7" points="277.721,275.728 274.98,277.209 273.538,274.47 276.241,273.025 			"/>
			<polygon fill="#4AA0C7" points="281.846,276.953 279.142,278.434 277.698,275.692 280.402,274.25 			"/>
			<polygon fill="#4AA0C7" points="276.464,279.831 273.729,281.275 272.286,278.535 274.989,277.092 			"/>
			<polygon fill="#4AA0C7" points="273.563,274.458 270.822,275.902 269.378,273.197 272.118,271.717 			"/>
			<polygon fill="#4AA0C7" points="278.987,271.549 276.246,273.028 274.802,270.287 277.543,268.845 			"/>
		</g>
		<g id="Particle_4_">
			
				<rect x="327.525" y="359.688" transform="matrix(0.701 -0.7132 0.7132 0.701 -159.1998 342.636)" fill="#4AA0C7" width="2.963" height="2.965"/>
			<polygon fill="#4AA0C7" points="331.155,365.262 329.104,367.386 326.974,365.316 329.027,363.201 			"/>
			<polygon fill="#4AA0C7" points="326.994,361.162 324.916,363.276 322.803,361.198 324.846,359.084 			"/>
			
				<rect x="327.493" y="355.52" transform="matrix(0.701 -0.7132 0.7132 0.701 -156.2366 341.3666)" fill="#4AA0C7" width="2.963" height="2.964"/>
			<polygon fill="#4AA0C7" points="335.273,361.078 333.197,363.207 331.083,361.131 333.158,359.016 			"/>
		</g>
		<g id="Particle_5_">
			<rect x="308.578" y="286.742" fill="#4AA0C7" width="2.403" height="2.404"/>
			<rect x="310.952" y="289.116" fill="#4AA0C7" width="2.394" height="2.403"/>
			<rect x="306.22" y="289.104" fill="#4AA0C7" width="2.366" height="2.365"/>
			<rect x="306.233" y="284.397" fill="#4AA0C7" width="2.396" height="2.403"/>
			<rect x="310.97" y="284.384" fill="#4AA0C7" width="2.403" height="2.367"/>
		</g>
		<g id="Particle_6_">
			<polygon fill="#4AA0C7" points="356.834,249.619 356.102,250.831 354.889,250.081 355.643,248.868 			"/>
			
				<rect x="355.611" y="251.033" transform="matrix(0.5167 -0.8562 0.8562 0.5167 -43.328 426.7222)" fill="#4AA0C7" width="1.416" height="1.414"/>
			<polygon fill="#4AA0C7" points="354.945,250.068 354.188,251.28 352.979,250.53 353.747,249.335 			"/>
			<polygon fill="#4AA0C7" points="356.388,247.677 355.646,248.87 354.447,248.142 355.176,246.929 			"/>
			<polygon fill="#4AA0C7" points="358.791,249.137 358.038,250.349 356.824,249.619 357.593,248.407 			"/>
		</g>
		<g id="Particle_9_">
			<polygon fill="#4AA0C7" points="421.061,337.23 420.324,338.641 418.905,337.918 419.64,336.508 			"/>
			<polygon fill="#4AA0C7" points="421.724,339.351 420.98,340.76 419.568,340.037 420.315,338.627 			"/>
			<polygon fill="#4AA0C7" points="418.953,337.921 418.22,339.332 416.794,338.608 417.529,337.198 			"/>
			<polygon fill="#4AA0C7" points="420.378,335.114 419.654,336.524 418.232,335.802 418.968,334.393 			"/>
			
				<rect x="421.322" y="336.089" transform="matrix(0.4563 -0.8898 0.8898 0.4563 -70.2684 558.7621)" fill="#4AA0C7" width="1.584" height="1.589"/>
		</g>
		<g id="Particle_10_">
			<polygon fill="#4AA0C7" points="402.877,299.961 402.225,301.031 401.153,300.379 401.793,299.308 			"/>
			
				<rect x="401.773" y="301.302" transform="matrix(0.5201 -0.8541 0.8541 0.5201 -64.7661 488.5902)" fill="#4AA0C7" width="1.254" height="1.254"/>
			<polygon fill="#4AA0C7" points="401.165,300.378 400.513,301.484 399.441,300.832 400.094,299.762 			"/>
			<polygon fill="#4AA0C7" points="402.398,298.271 401.746,299.346 400.675,298.727 401.327,297.656 			"/>
			<polygon fill="#4AA0C7" points="404.511,299.475 403.874,300.548 402.786,299.933 403.439,298.853 			"/>
		</g>
		<g id="Particle_12_">
			<polygon fill="#4AA0C7" points="270.463,422.873 268.104,424.635 266.344,422.263 268.702,420.5 			"/>
			<polygon fill="#4AA0C7" points="269.86,426.976 267.465,428.736 265.705,426.354 268.101,424.594 			"/>
			<polygon fill="#4AA0C7" points="266.372,422.198 263.978,423.959 262.217,421.601 264.611,419.833 			"/>
			<polygon fill="#4AA0C7" points="271.082,418.779 268.686,420.551 266.924,418.154 269.321,416.393 			"/>
			
				<rect x="271.029" y="421.706" transform="matrix(0.8058 -0.5922 0.5922 0.8058 -197.6879 243.5654)" fill="#4AA0C7" width="2.972" height="2.974"/>
		</g>
		<g id="Particle_13_">
			<polygon fill="#4AA0C7" points="346.776,464.061 345.258,464.203 345.109,462.699 346.628,462.551 			"/>
			<polygon fill="#4AA0C7" points="348.391,465.387 346.884,465.533 346.761,464.038 348.242,463.903 			"/>
			<polygon fill="#4AA0C7" points="345.41,465.668 343.895,465.809 343.781,464.297 345.262,464.149 			"/>
			<polygon fill="#4AA0C7" points="345.143,462.711 343.646,462.859 343.498,461.342 345.016,461.2 			"/>
			<polygon fill="#4AA0C7" points="348.121,462.41 346.62,462.559 346.471,461.064 347.988,460.93 			"/>
		</g>
		<g id="Particle_14_">
			<polygon fill="#4AA0C7" points="358.616,439.563 357.18,440.17 356.585,438.754 358.001,438.139 			"/>
			<polygon fill="#4AA0C7" points="357.821,441.555 356.404,442.165 355.775,440.729 357.216,440.138 			"/>
			<polygon fill="#4AA0C7" points="356.611,438.782 355.196,439.399 354.582,437.984 356.018,437.368 			"/>
			<polygon fill="#4AA0C7" points="359.409,437.549 357.995,438.165 357.387,436.74 358.816,436.132 			"/>
			<polygon fill="#4AA0C7" points="360.621,440.354 359.206,440.97 358.576,439.555 360.015,438.938 			"/>
		</g>
		<g id="Particle_15_">
			<polygon fill="#4AA0C7" points="370.773,446.96 369.895,448.277 368.578,447.387 369.457,446.081 			"/>
			<polygon fill="#4AA0C7" points="371.186,449.041 370.289,450.344 368.983,449.463 369.864,448.152 			"/>
			
				<rect x="366.715" y="446.79" transform="matrix(0.5508 -0.8347 0.8347 0.5508 -208.4843 507.8297)" fill="#4AA0C7" width="1.603" height="1.602"/>
			<polygon fill="#4AA0C7" points="370.293,444.719 369.406,446.044 368.104,445.163 368.985,443.837 			"/>
			<polygon fill="#4AA0C7" points="372.981,446.442 372.098,447.768 370.761,446.879 371.642,445.562 			"/>
		</g>
		<g id="Particle_16_">
			
				<rect x="362.169" y="377.401" transform="matrix(0.5332 -0.846 0.846 0.5332 -150.4215 483.2398)" fill="#4AA0C7" width="1.059" height="1.06"/>
			<polygon fill="#4AA0C7" points="363.764,379.274 363.198,380.174 362.294,379.586 362.871,378.679 			"/>
			<polygon fill="#4AA0C7" points="361.998,378.097 361.426,378.991 360.506,378.424 361.104,377.524 			"/>
			<polygon fill="#4AA0C7" points="363.084,376.326 362.519,377.22 361.624,376.646 362.189,375.725 			"/>
			
				<rect x="363.584" y="377.067" transform="matrix(0.533 -0.8461 0.8461 0.533 -149.4464 484.4276)" fill="#4AA0C7" width="1.057" height="1.057"/>
		</g>
		<g id="Particle_17_">
			<rect x="470.611" y="303.246" fill="#4AA0C7" width="16.714" height="10.225"/>
			<rect x="473.982" y="299.86" fill="#4AA0C7" width="9.976" height="16.782"/>
		</g>
		<g id="Particle_18_">
			<polygon fill="#4AA0C7" points="390.849,349.914 374.231,351.486 373.249,341.26 389.869,339.688 			"/>
			<polygon fill="#4AA0C7" points="387.815,353.373 377.885,354.316 376.307,337.593 386.236,336.667 			"/>
		</g>
		<g id="Particle_19_">
			<rect x="375.109" y="292.822" fill="#4AA0C7" width="8.255" height="5.072"/>
			<rect x="376.752" y="291.179" fill="#4AA0C7" width="4.971" height="8.289"/>
		</g>
		<g id="Particle_20_">
			<polygon fill="#4AA0C7" points="473.71,277.037 465.674,281.914 462.688,276.951 470.724,272.109 			"/>
			<polygon fill="#4AA0C7" points="473.024,279.485 468.222,282.376 463.322,274.306 468.125,271.414 			"/>
		</g>
		<g id="Particle_21_">
			<polygon fill="#4AA0C7" points="394.378,417.822 391.385,420.59 386.879,415.7 389.889,412.934 			"/>
			<polygon fill="#4AA0C7" points="394.477,415.964 389.555,420.473 386.855,417.572 391.767,413.045 			"/>
		</g>
		<g id="Particle_22_">
			<polygon fill="#4AA0C7" points="322.07,429.507 313.252,433.486 310.813,428.073 319.652,424.095 			"/>
			<polygon fill="#4AA0C7" points="321.09,431.976 315.823,434.364 311.827,425.488 317.093,423.122 			"/>
		</g>
		<g id="Particle_23_">
			<polygon fill="#4AA0C7" points="241.379,477.76 233.792,484.714 229.527,480.046 237.114,473.116 			"/>
			<polygon fill="#4AA0C7" points="241.157,480.623 236.621,484.762 229.658,477.146 234.176,473.001 			"/>
		</g>
		<g id="Particle_24_">
			<polygon fill="#4AA0C7" points="411.761,429.471 404.473,434.761 401.202,430.291 408.505,424.978 			"/>
			<polygon fill="#4AA0C7" points="411.256,431.935 406.896,435.102 401.544,427.768 405.909,424.601 			"/>
		</g>
		<g id="Particle_3_">
			<polygon fill="#4AA0C7" points="461.463,360.478 455.284,361.597 454.165,355.408 460.354,354.312 			"/>
			<polygon fill="#4AA0C7" points="463.855,362.086 461.81,362.472 461.446,360.426 463.492,360.063 			"/>
			<polygon fill="#4AA0C7" points="462.381,353.936 460.345,354.3 459.959,352.241 462.016,351.877 			"/>
			<polygon fill="#4AA0C7" points="454.251,355.4 452.203,355.764 451.84,353.729 453.884,353.342 			"/>
			<polygon fill="#4AA0C7" points="455.664,363.58 453.609,363.944 453.245,361.886 455.291,361.521 			"/>
		</g>
		<g id="Particle_7_">
			<polygon fill="#4AA0C7" points="428.786,298.271 420.42,299.267 419.447,290.9 427.791,289.941 			"/>
			<polygon fill="#4AA0C7" points="431.86,300.671 429.096,301.002 428.766,298.225 431.541,297.893 			"/>
			<polygon fill="#4AA0C7" points="430.559,289.63 427.782,289.96 427.469,287.184 430.229,286.854 			"/>
			<polygon fill="#4AA0C7" points="419.458,290.911 416.694,291.241 416.364,288.464 419.141,288.134 			"/>
			<polygon fill="#4AA0C7" points="420.802,301.925 418.047,302.257 417.724,299.48 420.492,299.148 			"/>
		</g>
		<g id="Particle_8_">
			<polygon fill="#4AA0C7" points="347.296,317.12 342.665,321.981 337.842,317.379 342.436,312.528 			"/>
			<polygon fill="#4AA0C7" points="344.293,323.438 342.763,325.063 341.162,323.54 342.663,321.931 			"/>
			<polygon fill="#4AA0C7" points="350.354,317.077 348.856,318.68 347.219,317.144 348.751,315.542 			"/>
			<polygon fill="#4AA0C7" points="343.971,310.954 342.435,312.555 340.833,311.019 342.356,309.417 			"/>
			<polygon fill="#4AA0C7" points="337.871,317.342 336.337,318.98 334.734,317.444 336.27,315.843 			"/>
		</g>
		<g id="Particle_25_">
			<polygon fill="#4AA0C7" points="389.96,253.544 384.202,254.53 383.197,248.771 388.956,247.785 			"/>
			<polygon fill="#4AA0C7" points="392.18,255.125 390.283,255.457 389.951,253.547 391.86,253.215 			"/>
			<polygon fill="#4AA0C7" points="390.842,247.501 388.933,247.815 388.601,245.907 390.51,245.593 			"/>
			<polygon fill="#4AA0C7" points="383.197,248.817 381.289,249.133 380.971,247.242 382.863,246.908 			"/>
			<polygon fill="#4AA0C7" points="384.545,256.412 382.634,256.745 382.301,254.817 384.212,254.502 			"/>
		</g>
		<g id="Particle_26_">
			<polygon fill="#4AA0C7" points="324.479,275.007 319.742,275.668 319.088,270.931 323.855,270.269 			"/>
			<polygon fill="#4AA0C7" points="326.274,276.368 324.704,276.574 324.474,275.003 326.045,274.797 			"/>
			<polygon fill="#4AA0C7" points="325.422,270.083 323.854,270.29 323.609,268.718 325.18,268.511 			"/>
			<polygon fill="#4AA0C7" points="319.137,270.914 317.566,271.123 317.32,269.552 318.892,269.343 			"/>
			
				<rect x="318.249" y="275.747" transform="matrix(0.9914 -0.1307 0.1307 0.9914 -33.4092 44.0743)" fill="#4AA0C7" width="1.584" height="1.584"/>
		</g>
		<g id="Particle_27_">
			<polygon fill="#4AA0C7" points="316.622,399.109 306.421,404.139 301.394,393.906 311.631,388.91 			"/>
			<polygon fill="#4AA0C7" points="321.579,400.831 318.172,402.495 316.528,399.102 319.898,397.449 			"/>
			<polygon fill="#4AA0C7" points="314.947,387.317 311.539,388.967 309.896,385.595 313.266,383.915 			"/>
			<polygon fill="#4AA0C7" points="301.407,393.948 298.037,395.604 296.357,392.233 299.765,390.553 			"/>
			<polygon fill="#4AA0C7" points="308.033,407.438 304.663,409.081 302.982,405.711 306.39,404.031 			"/>
		</g>
		<g id="Particle_28_">
			<polygon fill="#4AA0C7" points="282.809,479.597 277.18,483.315 273.438,477.674 279.104,473.945 			"/>
			<polygon fill="#4AA0C7" points="285.932,480.205 284.052,481.435 282.821,479.572 284.702,478.333 			"/>
			<polygon fill="#4AA0C7" points="280.95,472.739 279.106,473.984 277.875,472.115 279.718,470.875 			"/>
			<polygon fill="#4AA0C7" points="273.543,477.673 271.662,478.903 270.432,477.035 272.311,475.806 			"/>
			<polygon fill="#4AA0C7" points="278.456,485.109 276.574,486.34 275.343,484.48 277.225,483.245 			"/>
		</g>
		<g id="Particle_29_">
			<polygon fill="#4AA0C7" points="440.328,393.201 437.48,401.792 428.899,398.93 431.755,390.356 			"/>
			<polygon fill="#4AA0C7" points="440.287,402.72 439.32,405.554 436.486,404.608 437.433,401.752 			"/>
			<polygon fill="#4AA0C7" points="444.089,391.402 443.133,394.236 440.301,393.304 441.233,390.464 			"/>
			<polygon fill="#4AA0C7" points="432.691,387.609 431.758,390.477 428.926,389.508 429.857,386.676 			"/>
			<polygon fill="#4AA0C7" points="428.976,398.896 428.039,401.729 425.176,400.799 426.143,397.946 			"/>
		</g>
		<g id="Particle_56_">
			<polygon fill="#4AA0C7" points="177.696,477.587 175.087,479.252 173.427,476.652 176.036,474.979 			"/>
			<polygon fill="#4AA0C7" points="173.533,476.63 170.935,478.283 169.277,475.674 171.875,474.028 			"/>
			<polygon fill="#4AA0C7" points="178.709,473.36 176.102,475.006 174.442,472.416 177.052,470.752 			"/>
			<polygon fill="#4AA0C7" points="181.923,478.488 179.324,480.165 177.667,477.556 180.266,475.893 			"/>
			<polygon fill="#4AA0C7" points="176.754,481.806 174.156,483.483 172.502,480.875 175.1,479.201 			"/>
		</g>
		<g id="Particle_55_">
			<polygon fill="#4AA0C7" points="195.932,310.47 194.275,312.928 191.817,311.289 193.463,308.832 			"/>
			<polygon fill="#4AA0C7" points="199.994,309.645 198.337,312.107 195.88,310.466 197.536,308.008 			"/>
			<polygon fill="#4AA0C7" points="196.673,314.506 195.017,316.962 192.56,315.322 194.216,312.868 			"/>
			<polygon fill="#4AA0C7" points="191.854,311.241 190.198,313.721 187.741,312.046 189.397,309.59 			"/>
			<polygon fill="#4AA0C7" points="195.127,306.354 193.479,308.828 191.013,307.153 192.668,304.697 			"/>
		</g>
		<g id="Particle_54_">
			<polygon fill="#4AA0C7" points="139.181,329.256 136.828,329.686 136.394,327.333 138.748,326.896 			"/>
			<polygon fill="#4AA0C7" points="141.098,326.511 138.742,326.926 138.309,324.591 140.665,324.139 			"/>
			<polygon fill="#4AA0C7" points="141.931,331.212 139.575,331.628 139.142,329.292 141.498,328.84 			"/>
			<polygon fill="#4AA0C7" points="137.287,331.993 134.933,332.445 134.5,330.073 136.854,329.658 			"/>
			<polygon fill="#4AA0C7" points="136.447,327.329 134.091,327.762 133.66,325.414 136.014,324.976 			"/>
		</g>
		<g id="Particle_53_">
			<polygon fill="#4AA0C7" points="243.558,357.823 242.809,359.034 241.598,358.304 242.347,357.092 			"/>
			<polygon fill="#4AA0C7" points="241.649,358.28 240.902,359.473 239.69,358.74 240.437,357.528 			"/>
			<polygon fill="#4AA0C7" points="243.099,355.897 242.367,357.107 241.156,356.377 241.905,355.167 			"/>
			<polygon fill="#4AA0C7" points="245.494,357.338 244.747,358.551 243.533,357.821 244.28,356.608 			"/>
			<polygon fill="#4AA0C7" points="244.014,359.729 243.264,360.941 242.071,360.196 242.803,358.988 			"/>
		</g>
		<g id="Particle_52_">
			
				<rect x="152.768" y="449.359" transform="matrix(0.4556 -0.8902 0.8902 0.4556 -317.1224 381.7711)" fill="#4AA0C7" width="1.584" height="1.588"/>
			<polygon fill="#4AA0C7" points="152.504,450.496 151.771,451.906 150.352,451.184 151.087,449.773 			"/>
			<polygon fill="#4AA0C7" points="153.92,447.725 153.197,449.152 151.774,448.415 152.509,447.003 			"/>
			<polygon fill="#4AA0C7" points="156.72,449.183 155.998,450.603 154.579,449.873 155.309,448.453 			"/>
			<polygon fill="#4AA0C7" points="155.291,451.996 154.551,453.418 153.14,452.683 153.87,451.27 			"/>
		</g>
		<g id="Particle_51_">
			<polygon fill="#4AA0C7" points="193.113,403.859 192.473,404.954 191.402,404.314 192.036,403.243 			"/>
			<polygon fill="#4AA0C7" points="191.417,404.342 190.783,405.415 189.697,404.786 190.344,403.695 			"/>
			<polygon fill="#4AA0C7" points="192.695,402.2 192.043,403.271 190.972,402.619 191.606,401.548 			"/>
			<polygon fill="#4AA0C7" points="194.824,403.512 194.189,404.604 193.103,403.966 193.752,402.895 			"/>
			<polygon fill="#4AA0C7" points="193.517,405.604 192.882,406.698 191.799,406.06 192.445,404.988 			"/>
		</g>
		<g id="Particle_50_">
			<polygon fill="#4AA0C7" points="36.793,245.066 34.406,246.827 32.644,244.45 35.026,242.671 			"/>
			<polygon fill="#4AA0C7" points="32.724,244.504 30.348,246.283 28.58,243.888 30.963,242.127 			"/>
			
				<rect x="33.918" y="239.211" transform="matrix(0.804 -0.5947 0.5947 0.804 -136.1892 68.2294)" fill="#4AA0C7" width="2.96" height="2.958"/>
			<polygon fill="#4AA0C7" points="40.884,245.682 38.5,247.443 36.739,245.066 39.117,243.304 			"/>
			<polygon fill="#4AA0C7" points="36.218,249.212 33.839,250.972 32.074,248.594 34.458,246.834 			"/>
		</g>
		<g id="Particle_49_">
			<polygon fill="#4AA0C7" points="75.308,360.211 74.538,361.5 73.242,360.728 74.019,359.424 			"/>
			<polygon fill="#4AA0C7" points="75.834,362.235 75.066,363.552 73.769,362.756 74.545,361.477 			"/>
			<polygon fill="#4AA0C7" points="73.266,360.686 72.489,362 71.19,361.205 71.968,359.925 			"/>
			<polygon fill="#4AA0C7" points="74.786,358.163 74.018,359.441 72.72,358.684 73.497,357.369 			"/>
			<polygon fill="#4AA0C7" points="77.368,359.639 76.595,360.955 75.296,360.16 76.073,358.88 			"/>
		</g>
		<g id="Particle_48_">
			<polygon fill="#4AA0C7" points="223.663,265.218 223.59,266.77 222.056,266.715 222.111,265.163 			"/>
			<polygon fill="#4AA0C7" points="225.246,263.764 225.174,265.314 223.64,265.224 223.698,263.673 			"/>
			<polygon fill="#4AA0C7" points="225.092,266.819 225.037,268.371 223.484,268.316 223.558,266.765 			"/>
			<polygon fill="#4AA0C7" points="222.068,266.705 221.995,268.22 220.442,268.165 220.515,266.613 			"/>
			<polygon fill="#4AA0C7" points="222.187,263.624 222.113,265.175 220.581,265.119 220.637,263.569 			"/>
		</g>
		<g id="Particle_47_">
			<polygon fill="#4AA0C7" points="46.383,371.561 45.501,372.876 44.179,371.996 45.059,370.667 			"/>
			<polygon fill="#4AA0C7" points="44.228,372.023 43.347,373.363 42.02,372.482 42.905,371.143 			"/>
			<polygon fill="#4AA0C7" points="45.985,369.403 45.102,370.744 43.78,369.862 44.661,368.522 			"/>
			<polygon fill="#4AA0C7" points="48.634,371.183 47.752,372.518 46.432,371.637 47.314,370.297 			"/>
			<polygon fill="#4AA0C7" points="46.857,373.775 45.975,375.114 44.652,374.234 45.534,372.895 			"/>
		</g>
		<g id="Particle_46_">
			<polygon fill="#4AA0C7" points="197.416,322.692 196.496,323.244 195.944,322.342 196.846,321.791 			"/>
			
				<rect x="196.477" y="320.569" transform="matrix(0.8538 -0.5206 0.5206 0.8538 -138.3711 149.5253)" fill="#4AA0C7" width="1.06" height="1.057"/>
			<polygon fill="#4AA0C7" points="198.853,323.061 197.95,323.612 197.381,322.709 198.301,322.158 			"/>
			<polygon fill="#4AA0C7" points="197.077,324.132 196.155,324.684 195.604,323.781 196.509,323.23 			"/>
			<polygon fill="#4AA0C7" points="195.956,322.358 195.051,322.909 194.483,322.007 195.404,321.456 			"/>
		</g>
		<g id="Particle_45_">
			<polygon fill="#4AA0C7" points="127.216,457.231 110.571,458.509 109.787,448.292 126.434,447.006 			"/>
			<polygon fill="#4AA0C7" points="124.1,460.835 114.144,461.613 112.86,444.879 122.812,444.115 			"/>
		</g>
		<g id="Particle_44_">
			<polygon fill="#4AA0C7" points="135.893,404.635 125.685,405.582 124.112,388.965 134.32,388.008 			"/>
			<polygon fill="#4AA0C7" points="138.88,400.985 122.175,402.564 121.231,392.62 137.936,391.041 			"/>
		</g>
		<g id="Particle_43_">
			<rect x="194.53" y="377.255" fill="#4AA0C7" width="5.073" height="8.255"/>
			<rect x="192.957" y="378.935" fill="#4AA0C7" width="8.308" height="4.935"/>
		</g>
		<g id="Particle_42_">
			<polygon fill="#4AA0C7" points="204.616,465.568 196.983,471.057 193.614,466.366 201.265,460.892 			"/>
			<polygon fill="#4AA0C7" points="204.153,468.281 199.57,471.553 194.072,463.869 198.651,460.598 			"/>
		</g>
		<g id="Particle_41_">
			
				<rect x="88.831" y="364.965" transform="matrix(0.7349 -0.6782 0.6782 0.7349 -224.4742 159.8081)" fill="#4AA0C7" width="6.647" height="4.075"/>
			<polygon fill="#4AA0C7" points="95.878,368.172 92.952,370.87 88.435,365.938 91.353,363.26 			"/>
		</g>
		<g id="Particle_40_">
			<polygon fill="#4AA0C7" points="282.174,331.828 282.005,337.761 272.35,337.508 272.52,331.574 			"/>
			<polygon fill="#4AA0C7" points="280.257,329.896 280.005,339.625 274.228,339.46 274.48,329.73 			"/>
		</g>
		<g id="Particle_39_">
			<polygon fill="#4AA0C7" points="36.919,345.167 26.699,346.278 26.015,340.002 36.233,338.903 			"/>
			<polygon fill="#4AA0C7" points="35.072,347.34 28.962,348.011 27.84,337.728 33.95,337.056 			"/>
		</g>
		<g id="Particle_38_">
			<polygon fill="#4AA0C7" points="91.805,311.445 91.779,316.96 82.764,316.928 82.787,311.382 			"/>
			<polygon fill="#4AA0C7" points="90.015,309.625 89.974,318.697 84.579,318.68 84.614,309.607 			"/>
		</g>
		<g id="Particle_37_">
			<polygon fill="#4AA0C7" points="165.53,406.514 159.45,408.092 157.871,402.02 163.954,400.444 			"/>
			<polygon fill="#4AA0C7" points="157.973,402.021 155.957,402.546 155.434,400.512 157.449,399.988 			"/>
			<polygon fill="#4AA0C7" points="160.025,410.058 158.012,410.58 157.489,408.547 159.502,408.024 			"/>
			
				<rect x="165.762" y="406.147" transform="matrix(0.9678 -0.2519 0.2519 0.9678 -97.1955 55.1499)" fill="#4AA0C7" width="2.082" height="2.093"/>
			<polygon fill="#4AA0C7" points="165.974,399.951 163.96,400.474 163.438,398.445 165.452,397.929 			"/>
		</g>
		<g id="Particle_36_">
			<polygon fill="#4AA0C7" points="229.324,428.112 221.052,429.72 219.445,421.468 227.699,419.86 			"/>
			<polygon fill="#4AA0C7" points="219.503,421.493 216.768,422.026 216.234,419.305 218.966,418.766 			"/>
			<polygon fill="#4AA0C7" points="221.636,432.405 218.886,432.949 218.353,430.201 221.104,429.669 			"/>
			<polygon fill="#4AA0C7" points="232.563,430.31 229.817,430.852 229.281,428.104 232.03,427.572 			"/>
			<polygon fill="#4AA0C7" points="230.464,419.373 227.717,419.906 227.181,417.179 229.931,416.629 			"/>
		</g>
		<g id="Particle_35_">
			
				<rect x="157.336" y="287.417" transform="matrix(0.546 -0.8378 0.8378 0.546 -170.6488 266.6248)" fill="#4AA0C7" width="6.688" height="6.694"/>
			<polygon fill="#4AA0C7" points="168.349,289.085 167.138,290.92 165.282,289.709 166.494,287.872 			"/>
			<polygon fill="#4AA0C7" points="160.918,284.272 159.705,286.144 157.852,284.931 159.065,283.059 			"/>
			<polygon fill="#4AA0C7" points="156.115,291.717 154.908,293.553 153.048,292.34 154.262,290.504 			"/>
			<polygon fill="#4AA0C7" points="163.516,296.498 162.303,298.369 160.45,297.156 161.651,295.286 			"/>
		</g>
		<g id="Particle_34_">
			<polygon fill="#4AA0C7" points="244.618,391.105 238.859,392.107 237.872,386.348 243.613,385.364 			"/>
			<polygon fill="#4AA0C7" points="239.235,393.994 237.325,394.327 237.011,392.418 238.905,392.084 			"/>
			<polygon fill="#4AA0C7" points="246.833,392.649 244.923,392.982 244.609,391.072 246.5,390.739 			"/>
			<polygon fill="#4AA0C7" points="245.526,385.063 243.618,385.387 243.304,383.485 245.195,383.153 			"/>
			<polygon fill="#4AA0C7" points="237.944,386.35 236.051,386.682 235.72,384.772 237.629,384.44 			"/>
		</g>
		<g id="Particle_33_">
			<polygon fill="#4AA0C7" points="123.981,320.75 119.432,322.226 117.938,317.677 122.486,316.201 			"/>
			<polygon fill="#4AA0C7" points="123.974,315.701 122.465,316.202 121.971,314.683 123.484,314.182 			"/>
			<polygon fill="#4AA0C7" points="117.917,317.672 116.415,318.173 115.922,316.68 117.424,316.19 			"/>
			<polygon fill="#4AA0C7" points="119.938,323.718 118.433,324.219 117.938,322.698 119.441,322.197 			"/>
			<polygon fill="#4AA0C7" points="125.928,321.769 124.415,322.234 123.925,320.751 125.427,320.248 			"/>
		</g>
		<g id="Particle_32_">
			<polygon fill="#4AA0C7" points="251.619,322.229 240.241,322.314 240.175,310.937 251.553,310.852 			"/>
			<polygon fill="#4AA0C7" points="240.236,310.979 236.449,310.994 236.434,307.207 240.202,307.19 			"/>
			<polygon fill="#4AA0C7" points="240.29,326.032 236.522,326.048 236.506,322.298 240.274,322.27 			"/>
			
				<rect x="251.603" y="322.184" transform="matrix(1 -0.0039 0.0039 1 -1.2578 0.9877)" fill="#4AA0C7" width="3.769" height="3.788"/>
			
				<rect x="251.516" y="307.158" transform="matrix(1 -0.0044 0.0044 1 -1.3586 1.119)" fill="#4AA0C7" width="3.77" height="3.788"/>
		</g>
		<g id="Particle_31_">
			<polygon fill="#4AA0C7" points="36.579,291.693 30.947,295.398 27.228,289.766 32.867,286.028 			"/>
			<polygon fill="#4AA0C7" points="32.201,297.217 30.333,298.447 29.101,296.604 30.971,295.373 			"/>
			
				<rect x="36.917" y="290.842" transform="matrix(0.8362 -0.5484 0.5484 0.8362 -153.8721 68.6698)" fill="#4AA0C7" width="2.244" height="2.246"/>
			<polygon fill="#4AA0C7" points="34.727,284.826 32.858,286.056 31.626,284.212 33.496,282.981 			"/>
			<polygon fill="#4AA0C7" points="27.263,289.725 25.39,290.988 24.159,289.111 26.029,287.88 			"/>
		</g>
		<g id="Particle_30_">
			<polygon fill="#4AA0C7" points="73.604,405.192 70.75,413.767 62.175,410.924 65.029,402.337 			"/>
			<polygon fill="#4AA0C7" points="62.242,410.839 61.297,413.695 58.452,412.741 59.394,409.907 			"/>
			<polygon fill="#4AA0C7" points="73.576,414.64 72.629,417.473 69.784,416.542 70.733,413.695 			"/>
			<polygon fill="#4AA0C7" points="77.413,403.34 76.47,406.21 73.625,405.243 74.568,402.408 			"/>
			<polygon fill="#4AA0C7" points="66.038,399.537 65.099,402.384 62.255,401.42 63.197,398.583 			"/>
		</g>
		<g id="Particle_83_">
			<polygon fill="#4AA0C7" points="84.803,284.183 81.797,284.884 81.094,281.846 84.098,281.145 			"/>
			<polygon fill="#4AA0C7" points="81.179,281.918 78.169,282.619 77.467,279.581 80.475,278.88 			"/>
			<polygon fill="#4AA0C7" points="87.121,280.552 84.11,281.256 83.407,278.254 86.411,277.551 			"/>
			<polygon fill="#4AA0C7" points="88.457,286.479 85.448,287.181 84.743,284.181 87.754,283.473 			"/>
			<polygon fill="#4AA0C7" points="82.512,287.872 79.5,288.573 78.797,285.565 81.811,284.834 			"/>
		</g>
		<g id="Particle_82_">
			
				<rect x="246.715" y="225.66" transform="matrix(0.4712 -0.882 0.882 0.4712 -69.0937 339.0437)" fill="#4AA0C7" width="2.965" height="2.965"/>
			
				<rect x="250.693" y="224.462" transform="matrix(0.4712 -0.882 0.882 0.4712 -65.9335 341.9191)" fill="#4AA0C7" width="2.965" height="2.965"/>
			
				<rect x="247.883" y="229.61" transform="matrix(0.471 -0.8821 0.8821 0.471 -71.9439 342.2138)" fill="#4AA0C7" width="2.966" height="2.967"/>
			<polygon fill="#4AA0C7" points="246.24,227.753 244.842,230.356 242.244,228.97 243.641,226.356 			"/>
			
				<rect x="245.516" y="221.649" transform="matrix(0.4712 -0.882 0.882 0.4712 -66.19 335.8648)" fill="#4AA0C7" width="2.965" height="2.965"/>
		</g>
		<g id="Particle_81_">
			<polygon fill="#4AA0C7" points="221.31,214.173 219.271,215.426 218.028,213.371 220.073,212.135 			"/>
			<polygon fill="#4AA0C7" points="222.151,210.895 220.095,212.131 218.859,210.082 220.898,208.838 			"/>
			<polygon fill="#4AA0C7" points="224.597,214.972 222.541,216.22 221.305,214.164 223.344,212.928 			"/>
			<polygon fill="#4AA0C7" points="220.542,217.436 218.505,218.673 217.269,216.616 219.305,215.38 			"/>
			<polygon fill="#4AA0C7" points="218.015,213.428 215.975,214.663 214.739,212.613 216.777,211.371 			"/>
		</g>
		<g id="Particle_80_">
			<polygon fill="#4AA0C7" points="186.243,364.39 185.401,365.533 184.257,364.691 185.098,363.565 			"/>
			<polygon fill="#4AA0C7" points="186.578,366.33 185.738,367.466 184.593,366.626 185.422,365.501 			"/>
			<polygon fill="#4AA0C7" points="184.309,364.658 183.467,365.822 182.323,364.98 183.153,363.817 			"/>
			<polygon fill="#4AA0C7" points="185.977,362.403 185.136,363.565 183.992,362.724 184.833,361.564 			"/>
			<polygon fill="#4AA0C7" points="188.239,364.07 187.399,365.197 186.254,364.359 187.082,363.231 			"/>
		</g>
		<g id="Particle_79_">
			<polygon fill="#4AA0C7" points="129.835,152.601 128.77,153.77 127.595,152.707 128.658,151.525 			"/>
			<polygon fill="#4AA0C7" points="129.735,150.338 128.665,151.513 127.492,150.443 128.561,149.274 			"/>
			<polygon fill="#4AA0C7" points="132.074,152.451 131.009,153.637 129.828,152.563 130.902,151.386 			"/>
			<polygon fill="#4AA0C7" points="129.957,154.78 128.885,155.949 127.706,154.884 128.777,153.704 			"/>
			<polygon fill="#4AA0C7" points="127.633,152.685 126.563,153.854 125.385,152.789 126.459,151.609 			"/>
		</g>
		<g id="Particle_78_">
			<polygon fill="#4AA0C7" points="133.757,207.177 132.86,208.051 131.983,207.159 132.881,206.284 			"/>
			
				<rect x="132.262" y="204.775" transform="matrix(0.7152 -0.6989 0.6989 0.7152 -105.7074 151.3604)" fill="#4AA0C7" width="1.253" height="1.248"/>
			
				<rect x="133.992" y="206.582" transform="matrix(0.7166 -0.6975 0.6975 0.7166 -106.3763 152.6236)" fill="#4AA0C7" width="1.254" height="1.256"/>
			
				<rect x="132.223" y="208.289" transform="matrix(0.7135 -0.7006 0.7006 0.7135 -108.3137 152.9257)" fill="#4AA0C7" width="1.25" height="1.251"/>
			
				<rect x="130.475" y="206.544" transform="matrix(0.7131 -0.701 0.701 0.7131 -107.6227 151.3321)" fill="#4AA0C7" width="1.249" height="1.25"/>
		</g>
		<g id="Particle_77_">
			
				<rect x="215.328" y="128.127" transform="matrix(0.9889 -0.1484 0.1484 0.9889 -16.8347 33.6132)" fill="#4AA0C7" width="2.971" height="2.966"/>
			
				<rect x="217.803" y="124.81" transform="matrix(0.9888 -0.1493 0.1493 0.9888 -16.3964 34.1507)" fill="#4AA0C7" width="2.954" height="2.964"/>
			
				<rect x="218.632" y="130.621" transform="matrix(0.9887 -0.1498 0.1498 0.9887 -17.3014 34.4552)" fill="#4AA0C7" width="2.973" height="2.964"/>
			
				<rect x="212.863" y="131.474" transform="matrix(0.9886 -0.1503 0.1503 0.9886 -17.545 33.7194)" fill="#4AA0C7" width="2.973" height="2.962"/>
			<polygon fill="#4AA0C7" points="215.135,128.399 212.209,128.84 211.767,125.908 214.688,125.466 			"/>
		</g>
		<g id="Particle_76_">
			<polygon fill="#4AA0C7" points="183.193,45.754 181.693,45.896 181.545,44.392 183.047,44.254 			"/>
			<polygon fill="#4AA0C7" points="181.57,44.426 180.065,44.565 179.935,43.061 181.433,42.924 			"/>
			<polygon fill="#4AA0C7" points="184.544,44.175 183.039,44.315 182.909,42.807 184.407,42.67 			"/>
			<polygon fill="#4AA0C7" points="184.824,47.114 183.313,47.251 183.179,45.752 184.678,45.606 			"/>
			<polygon fill="#4AA0C7" points="181.823,47.394 180.324,47.531 180.188,46.03 181.692,45.892 			"/>
		</g>
		<g id="Particle_75_">
			<polygon fill="#4AA0C7" points="161.351,88.359 161.235,89.897 159.685,89.774 159.808,88.232 			"/>
			<polygon fill="#4AA0C7" points="162.993,86.951 162.864,88.493 161.327,88.369 161.444,86.826 			"/>
			<polygon fill="#4AA0C7" points="162.745,90.041 162.621,91.587 161.078,91.461 161.199,89.914 			"/>
			<polygon fill="#4AA0C7" points="159.694,89.766 159.577,91.303 158.028,91.179 158.152,89.637 			"/>
			<polygon fill="#4AA0C7" points="159.945,86.708 159.816,88.244 158.278,88.12 158.396,86.578 			"/>
		</g>
		<g id="Particle_74_">
			<polygon fill="#4AA0C7" points="154.686,76.697 153.286,77.452 152.524,76.053 153.924,75.297 			"/>
			<polygon fill="#4AA0C7" points="155.265,74.576 153.863,75.334 153.113,73.933 154.514,73.175 			"/>
			<polygon fill="#4AA0C7" points="156.796,77.361 155.396,78.113 154.633,76.712 156.035,75.961 			"/>
			
				<rect x="152.143" y="77.712" transform="matrix(0.8803 -0.4744 0.4744 0.8803 -18.9389 81.9527)" fill="#4AA0C7" width="1.589" height="1.591"/>
			<polygon fill="#4AA0C7" points="152.504,76.055 151.105,76.81 150.343,75.409 151.742,74.655 			"/>
		</g>
		<g id="Particle_73_">
			
				<rect x="196.076" y="144.3" transform="matrix(0.7385 -0.6743 0.6743 0.7385 -46.2406 170.4504)" fill="#4AA0C7" width="1.065" height="1.068"/>
			<polygon fill="#4AA0C7" points="197.433,143.45 196.644,144.174 195.928,143.386 196.716,142.663 			"/>
			<polygon fill="#4AA0C7" points="198.847,144.942 198.059,145.664 197.343,144.876 198.13,144.154 			"/>
			
				<rect x="196.017" y="145.783" transform="matrix(0.7384 -0.6744 0.6744 0.7384 -47.2543 170.8214)" fill="#4AA0C7" width="1.067" height="1.072"/>
			<polygon fill="#4AA0C7" points="195.875,144.807 195.087,145.527 194.371,144.739 195.16,144.014 			"/>
		</g>
		<g id="Particle_72_">
			<polygon fill="#4AA0C7" points="56.605,194.493 53.961,204.388 37.835,200.079 40.485,190.186 			"/>
			<polygon fill="#4AA0C7" points="54.168,190.572 49.834,206.795 40.191,204.208 44.524,188.003 			"/>
		</g>
		<g id="Particle_71_">
			<polygon fill="#4AA0C7" points="97.367,92.036 95.661,102.138 79.201,99.367 80.902,89.257 			"/>
			
				<rect x="79.864" y="90.779" transform="matrix(0.1662 -0.9861 0.9861 0.1662 -20.8513 166.8798)" fill="#4AA0C7" width="16.785" height="9.983"/>
		</g>
		<g id="Particle_70_">
			<polygon fill="#4AA0C7" points="158.191,216.312 156.882,221.21 148.892,219.065 150.201,214.167 			"/>
			<polygon fill="#4AA0C7" points="156.99,214.348 154.852,222.378 150.073,221.112 152.226,213.083 			"/>
		</g>
		<g id="Particle_69_">
			
				<rect x="77.67" y="231.885" transform="matrix(0.9601 -0.2798 0.2798 0.9601 -62.4047 32.428)" fill="#4AA0C7" width="9.402" height="5.782"/>
			<polygon fill="#4AA0C7" points="86.429,238.557 81.027,240.131 78.387,231.076 83.778,229.502 			"/>
		</g>
		<g id="Particle_68_">
			<polygon fill="#4AA0C7" points="134.206,76.797 131.206,79.56 126.719,74.676 129.712,71.911 			"/>
			
				<rect x="127.106" y="73.78" transform="matrix(0.7352 -0.6778 0.6778 0.7352 -16.8184 108.4755)" fill="#4AA0C7" width="6.68" height="3.972"/>
		</g>
		<g id="Particle_67_">
			
				<rect x="236.158" y="90.796" transform="matrix(0.9119 -0.4103 0.4103 0.9119 -17.2518 107.1391)" fill="#4AA0C7" width="9.673" height="5.937"/>
			<polygon fill="#4AA0C7" points="245.635,97.052 240.367,99.424 236.371,90.561 241.654,88.19 			"/>
		</g>
		<g id="Particle_66_">
			<polygon fill="#4AA0C7" points="223.92,63.324 213.965,65.907 212.383,59.797 222.338,57.214 			"/>
			<polygon fill="#4AA0C7" points="222.474,65.826 216.523,67.364 213.94,57.367 219.888,55.819 			"/>
		</g>
		<g id="Particle_65_">
			<polygon fill="#4AA0C7" points="246.933,35.279 239.648,40.588 236.397,36.108 243.682,30.806 			"/>
			<polygon fill="#4AA0C7" points="246.544,37.8 242.181,40.968 236.849,33.637 241.212,30.466 			"/>
		</g>
		<g id="Particle_64_">
			
				<rect x="64.561" y="144.533" transform="matrix(0.0837 -0.9965 0.9965 0.0837 -85.1279 202.7645)" fill="#4AA0C7" width="6.269" height="6.279"/>
			
				<rect x="62.867" y="142.147" transform="matrix(0.0829 -0.9966 0.9966 0.0829 -84.0829 195.009)" fill="#4AA0C7" width="2.085" height="2.081"/>
			
				<rect x="62.169" y="150.436" transform="matrix(0.0833 -0.9965 0.9965 0.0833 -93.0051 201.8486)" fill="#4AA0C7" width="2.086" height="2.081"/>
			
				<rect x="70.458" y="151.123" transform="matrix(0.0831 -0.9965 0.9965 0.0831 -86.0799 210.773)" fill="#4AA0C7" width="2.086" height="2.083"/>
			
				<rect x="71.148" y="142.862" transform="matrix(0.0834 -0.9965 0.9965 0.0834 -77.2328 203.8457)" fill="#4AA0C7" width="2.08" height="2.085"/>
		</g>
		<g id="Particle_63_">
			<polygon fill="#4AA0C7" points="112.146,180.319 110.938,188.645 102.607,187.436 103.821,179.105 			"/>
			<polygon fill="#4AA0C7" points="104.268,176.396 103.867,179.165 101.108,178.757 101.505,175.996 			"/>
			<polygon fill="#4AA0C7" points="102.658,187.462 102.26,190.213 99.498,189.822 99.9,187.053 			"/>
			<polygon fill="#4AA0C7" points="113.687,189.06 113.28,191.816 110.518,191.418 110.92,188.65 			"/>
			<polygon fill="#4AA0C7" points="115.278,178.033 114.876,180.783 112.119,180.393 112.516,177.624 			"/>
		</g>
		<g id="Particle_62_">
			
				<rect x="188.279" y="196.686" transform="matrix(0.4579 -0.889 0.889 0.4579 -73.9457 278.8011)" fill="#4AA0C7" width="6.69" height="6.69"/>
			<polygon fill="#4AA0C7" points="199.052,197.645 198.042,199.625 196.063,198.602 197.084,196.641 			"/>
			<polygon fill="#4AA0C7" points="191.204,193.591 190.184,195.552 188.208,194.548 189.226,192.569 			"/>
			<polygon fill="#4AA0C7" points="187.151,201.448 186.147,203.41 184.167,202.404 185.189,200.426 			"/>
			<polygon fill="#4AA0C7" points="195,205.496 193.984,207.475 192.017,206.453 193.026,204.473 			"/>
		</g>
		<g id="Particle_61_">
			
				<rect x="132.13" y="255.552" transform="matrix(0.0904 -0.9959 0.9959 0.0904 -134.568 369.6041)" fill="#4AA0C7" width="5.849" height="5.838"/>
			
				<rect x="130.61" y="253.32" transform="matrix(0.0904 -0.9959 0.9959 0.0904 -133.5657 362.3307)" fill="#4AA0C7" width="1.933" height="1.933"/>
			
				<rect x="129.906" y="261.017" transform="matrix(0.0909 -0.9959 0.9959 0.0909 -141.9279 368.4878)" fill="#4AA0C7" width="1.933" height="1.934"/>
			
				<rect x="137.603" y="261.72" transform="matrix(0.0899 -0.996 0.996 0.0899 -135.5058 377.0938)" fill="#4AA0C7" width="1.935" height="1.935"/>
			
				<rect x="138.33" y="254.019" transform="matrix(0.0909 -0.9959 0.9959 0.0909 -127.2959 370.5283)" fill="#4AA0C7" width="1.934" height="1.934"/>
		</g>
		<g id="Particle_60_">
			
				<rect x="200.912" y="251.741" transform="matrix(0.1254 -0.9921 0.9921 0.1254 -74.3196 423.9739)" fill="#4AA0C7" width="4.782" height="4.795"/>
			<polygon fill="#4AA0C7" points="201.456,249.955 201.264,251.528 199.689,251.318 199.881,249.744 			"/>
			<polygon fill="#4AA0C7" points="200.649,256.216 200.438,257.808 198.866,257.616 199.076,256.024 			"/>
			<polygon fill="#4AA0C7" points="206.949,256.99 206.743,258.563 205.172,258.37 205.377,256.798 			"/>
			<polygon fill="#4AA0C7" points="207.732,250.708 207.521,252.281 205.949,252.088 206.16,250.515 			"/>
		</g>
		<g id="Particle_59_">
			<polygon fill="#4AA0C7" points="176.039,172.303 165.823,177.331 160.813,167.112 171.03,162.091 			"/>
			
				<rect x="156.478" y="164.37" transform="matrix(0.8978 -0.4403 0.4403 0.8978 -57.0279 86.716)" fill="#4AA0C7" width="3.775" height="3.775"/>
			
				<rect x="163.105" y="177.874" transform="matrix(0.8971 -0.4418 0.4418 0.8971 -62.4364 91.377)" fill="#4AA0C7" width="3.768" height="3.761"/>
			
				<rect x="176.618" y="171.24" transform="matrix(0.8976 -0.4409 0.4409 0.8976 -58.0416 96.4318)" fill="#4AA0C7" width="3.769" height="3.764"/>
			
				<rect x="169.998" y="157.776" transform="matrix(0.8971 -0.4419 0.4419 0.8971 -52.8613 92.39)" fill="#4AA0C7" width="3.761" height="3.764"/>
		</g>
		<g id="Particle_58_">
			<polygon fill="#4AA0C7" points="291.42,42.104 284.716,42.75 284.063,36.031 290.788,35.386 			"/>
			<polygon fill="#4AA0C7" points="284.093,36.07 281.893,36.287 281.651,34.055 283.889,33.847 			"/>
			<polygon fill="#4AA0C7" points="284.949,44.969 282.71,45.181 282.506,42.953 284.745,42.74 			"/>
			<polygon fill="#4AA0C7" points="293.838,44.089 291.602,44.295 291.396,42.074 293.633,41.857 			"/>
			<polygon fill="#4AA0C7" points="292.994,35.22 290.756,35.435 290.552,33.199 292.791,32.992 			"/>
		</g>
		<g id="Particle_57_">
			<polygon fill="#4AA0C7" points="168.573,116.945 163.599,124.487 156.045,119.519 161.014,111.97 			"/>
			<polygon fill="#4AA0C7" points="162.656,109.527 161.007,112.025 158.504,110.385 160.153,107.877 			"/>
			<polygon fill="#4AA0C7" points="156.107,119.506 154.457,122.017 151.961,120.367 153.604,117.864 			"/>
			<polygon fill="#4AA0C7" points="166.075,126.116 164.426,128.615 161.932,126.965 163.57,124.466 			"/>
			<polygon fill="#4AA0C7" points="172.659,116.141 171.016,118.645 168.509,116.993 170.162,114.494 			"/>
		</g>
		<g id="Particle_110_">
			<polygon fill="#4AA0C7" points="268.189,107.599 265.486,109.05 264.005,106.328 266.745,104.875 			"/>
			<polygon fill="#4AA0C7" points="269.433,103.525 266.729,104.979 265.287,102.257 267.99,100.796 			"/>
			<polygon fill="#4AA0C7" points="272.3,108.914 269.56,110.368 268.116,107.643 270.818,106.192 			"/>
			<polygon fill="#4AA0C7" points="266.933,111.697 264.191,113.147 262.749,110.423 265.49,108.965 			"/>
			<polygon fill="#4AA0C7" points="264.07,106.375 261.33,107.825 259.888,105.103 262.591,103.65 			"/>
		</g>
		<g id="Particle_109_">
			<polygon fill="#4AA0C7" points="358.656,217.096 356.579,219.21 354.465,217.133 356.534,215.019 			"/>
			<polygon fill="#4AA0C7" points="362.759,217.039 360.703,219.153 358.566,217.094 360.645,214.961 			"/>
			<polygon fill="#4AA0C7" points="358.661,221.227 356.582,223.34 354.47,221.276 356.548,219.149 			"/>
			<polygon fill="#4AA0C7" points="354.498,217.127 352.421,219.242 350.306,217.184 352.383,215.051 			"/>
			<polygon fill="#4AA0C7" points="358.573,212.928 356.518,215.042 354.383,212.983 356.46,210.851 			"/>
		</g>
		<g id="Particle_108_">
			<rect x="297.123" y="222.899" fill="#4AA0C7" width="2.37" height="2.402"/>
			<rect x="299.46" y="220.543" fill="#4AA0C7" width="2.403" height="2.404"/>
			<rect x="299.446" y="225.282" fill="#4AA0C7" width="2.404" height="2.4"/>
			<rect x="294.737" y="225.262" fill="#4AA0C7" width="2.403" height="2.404"/>
			<rect x="294.728" y="220.526" fill="#4AA0C7" width="2.403" height="2.386"/>
		</g>
		<g id="Particle_107_">
			<polygon fill="#4AA0C7" points="261.151,177.762 260.42,178.964 259.208,178.227 259.94,177.014 			"/>
			<polygon fill="#4AA0C7" points="263.088,177.306 262.357,178.512 261.146,177.781 261.875,176.569 			"/>
			<polygon fill="#4AA0C7" points="261.625,179.693 260.859,180.904 259.646,180.159 260.414,178.945 			"/>
			<polygon fill="#4AA0C7" points="259.236,178.236 258.508,179.449 257.296,178.711 258.024,177.507 			"/>
			<polygon fill="#4AA0C7" points="260.679,175.842 259.949,177.043 258.737,176.306 259.466,175.094 			"/>
		</g>
		<g id="Particle_106_">
			<polygon fill="#4AA0C7" points="348.497,131.825 347.742,133.245 346.329,132.516 347.075,131.104 			"/>
			<polygon fill="#4AA0C7" points="350.633,131.178 349.912,132.591 348.501,131.857 349.224,130.446 			"/>
			<polygon fill="#4AA0C7" points="349.221,133.954 348.488,135.374 347.072,134.64 347.811,133.225 			"/>
			<polygon fill="#4AA0C7" points="346.416,132.512 345.68,133.924 344.246,133.202 345.005,131.781 			"/>
			
				<rect x="345.979" y="129.269" transform="matrix(0.4556 -0.8902 0.8902 0.4556 73.0093 379.5026)" fill="#4AA0C7" width="1.584" height="1.586"/>
		</g>
		<g id="Particle_105_">
			<polygon fill="#4AA0C7" points="311.44,131.685 310.788,132.768 309.718,132.123 310.331,131.045 			"/>
			
				<rect x="311.596" y="130.832" transform="matrix(0.5148 -0.8573 0.8573 0.5148 38.7839 331.4481)" fill="#4AA0C7" width="1.263" height="1.252"/>
			<polygon fill="#4AA0C7" points="311.826,133.388 311.174,134.465 310.103,133.826 310.755,132.751 			"/>
			<polygon fill="#4AA0C7" points="309.708,132.146 309.055,133.219 307.983,132.584 308.622,131.501 			"/>
			<polygon fill="#4AA0C7" points="310.968,129.966 310.315,131.038 309.244,130.404 309.897,129.321 			"/>
		</g>
		<g id="Particle_104_">
			<polygon fill="#4AA0C7" points="442.073,245.325 439.679,247.084 437.917,244.707 440.313,242.929 			"/>
			<polygon fill="#4AA0C7" points="446.114,245.948 443.742,247.709 441.973,245.333 444.355,243.572 			"/>
			
				<rect x="437.868" y="247.584" transform="matrix(0.803 -0.596 0.596 0.803 -61.886 310.9033)" fill="#4AA0C7" width="2.955" height="2.959"/>
			<polygon fill="#4AA0C7" points="437.985,244.679 435.604,246.458 433.844,244.062 436.227,242.302 			"/>
			<polygon fill="#4AA0C7" points="442.637,241.182 440.269,242.961 438.504,240.565 440.875,238.805 			"/>
		</g>
		<g id="Particle_103_">
			<polygon fill="#4AA0C7" points="473.314,203.892 471.804,204.022 471.655,202.522 473.173,202.375 			"/>
			<polygon fill="#4AA0C7" points="474.611,202.299 473.116,202.441 472.981,200.942 474.472,200.793 			"/>
			<polygon fill="#4AA0C7" points="474.922,205.22 473.403,205.355 473.279,203.851 474.773,203.721 			"/>
			<polygon fill="#4AA0C7" points="471.937,205.487 470.42,205.624 470.282,204.118 471.788,203.988 			"/>
			<polygon fill="#4AA0C7" points="471.652,202.513 470.159,202.649 470.023,201.144 471.525,201.014 			"/>
		</g>
		<g id="Particle_102_">
			<polygon fill="#4AA0C7" points="450.561,176.688 449.125,177.302 448.525,175.879 449.943,175.266 			"/>
			<polygon fill="#4AA0C7" points="452.537,177.475 451.117,178.087 450.49,176.665 451.906,176.053 			"/>
			<polygon fill="#4AA0C7" points="449.744,178.673 448.328,179.285 447.698,177.868 449.116,177.257 			"/>
			<polygon fill="#4AA0C7" points="448.524,175.878 447.11,176.49 446.479,175.074 447.898,174.462 			"/>
			<polygon fill="#4AA0C7" points="451.362,174.692 449.946,175.302 449.34,173.876 450.762,173.265 			"/>
		</g>
		<g id="Particle_101_">
			
				<rect x="456.704" y="163.406" transform="matrix(0.5547 -0.8321 0.8321 0.5547 67.0995 453.7805)" fill="#4AA0C7" width="1.588" height="1.592"/>
			<polygon fill="#4AA0C7" points="460.8,163.604 459.919,164.926 458.602,164.044 459.482,162.711 			"/>
			<polygon fill="#4AA0C7" points="459.029,166.198 458.148,167.519 456.811,166.636 457.708,165.31 			"/>
			<polygon fill="#4AA0C7" points="456.42,164.433 455.538,165.759 454.218,164.873 455.105,163.552 			"/>
			<polygon fill="#4AA0C7" points="458.15,161.803 457.271,163.124 455.932,162.244 456.813,160.923 			"/>
		</g>
		<g id="Particle_100_">
			<polygon fill="#4AA0C7" points="387.926,177.254 387.361,178.147 386.467,177.569 387.031,176.67 			"/>
			<polygon fill="#4AA0C7" points="389.371,176.984 388.784,177.878 387.889,177.302 388.454,176.4 			"/>
			<polygon fill="#4AA0C7" points="388.236,178.746 387.672,179.64 386.764,179.074 387.342,178.162 			"/>
			<polygon fill="#4AA0C7" points="386.504,177.591 385.939,178.486 385.043,177.907 385.607,177.008 			"/>
			<polygon fill="#4AA0C7" points="387.633,175.779 387.046,176.673 386.151,176.108 386.715,175.203 			"/>
		</g>
		<g id="Particle_99_">
			<rect x="318.352" y="49.443" fill="#4AA0C7" width="10.262" height="16.694"/>
			<rect x="315.003" y="52.803" fill="#4AA0C7" width="16.779" height="9.982"/>
		</g>
		<g id="Particle_98_">
			
				<rect x="379.94" y="138.294" transform="matrix(0.9956 -0.0939 0.0939 0.9956 -12.0667 36.8005)" fill="#4AA0C7" width="10.261" height="16.694"/>
			<polygon fill="#4AA0C7" points="393.799,150.855 377.073,152.435 376.147,142.491 392.837,140.911 			"/>
		</g>
		<g id="Particle_97_">
			<rect x="326.673" y="157.253" fill="#4AA0C7" width="5.072" height="8.272"/>
			<rect x="324.992" y="158.914" fill="#4AA0C7" width="8.326" height="4.946"/>
		</g>
		<g id="Particle_96_">
			<polygon fill="#4AA0C7" points="322.354,97.295 317.431,100.291 312.552,92.254 317.475,89.259 			"/>
			<polygon fill="#4AA0C7" points="322.891,94.745 314.82,99.644 311.892,94.836 319.988,89.938 			"/>
		</g>
		<g id="Particle_95_">
			<polygon fill="#4AA0C7" points="428.535,153.067 423.646,157.568 420.894,154.564 425.78,150.074 			"/>
			<polygon fill="#4AA0C7" points="428.429,154.853 425.494,157.542 420.97,152.624 423.904,149.936 			"/>
		</g>
		<g id="Particle_94_">
			<polygon fill="#4AA0C7" points="449.645,117.295 444.244,119.731 440.283,110.912 445.685,108.475 			"/>
			<polygon fill="#4AA0C7" points="450.541,114.78 441.686,118.777 439.297,113.499 448.173,109.514 			"/>
		</g>
		<g id="Particle_93_">
			<polygon fill="#4AA0C7" points="459.356,212.932 454.69,217.197 447.76,209.611 452.403,205.345 			"/>
			<polygon fill="#4AA0C7" points="459.434,210.062 451.83,217.043 447.671,212.508 455.295,205.534 			"/>
		</g>
		<g id="Particle_92_">
			<polygon fill="#4AA0C7" points="482.616,225.594 478.127,228.844 472.835,221.559 477.313,218.296 			"/>
			<polygon fill="#4AA0C7" points="482.938,223.119 475.608,228.451 472.427,224.087 479.762,218.755 			"/>
		</g>
		<g id="Particle_91_">
			<polygon fill="#4AA0C7" points="370.418,84.295 364.251,85.404 363.118,79.227 369.319,78.112 			"/>
			<polygon fill="#4AA0C7" points="371.333,77.801 369.311,78.17 368.935,76.123 370.97,75.75 			"/>
			
				<rect x="360.95" y="77.36" transform="matrix(0.9846 -0.1749 0.1749 0.9846 -8.1325 64.5334)" fill="#4AA0C7" width="2.088" height="2.076"/>
			
				<rect x="362.377" y="85.552" transform="matrix(0.9844 -0.1759 0.1759 0.9844 -9.5652 65.2776)" fill="#4AA0C7" width="2.09" height="2.08"/>
			<polygon fill="#4AA0C7" points="372.824,85.972 370.765,86.345 370.4,84.296 372.459,83.925 			"/>
		</g>
		<g id="Particle_90_">
			<polygon fill="#4AA0C7" points="295.897,132.503 287.531,133.481 286.536,125.12 294.902,124.136 			"/>
			
				<rect x="294.713" y="121.239" transform="matrix(0.9932 -0.1166 0.1166 0.9932 -12.2828 35.3751)" fill="#4AA0C7" width="2.796" height="2.791"/>
			<polygon fill="#4AA0C7" points="286.604,125.155 283.833,125.474 283.503,122.71 286.281,122.379 			"/>
			<polygon fill="#4AA0C7" points="287.889,136.202 285.111,136.532 284.78,133.757 287.559,133.432 			"/>
			<polygon fill="#4AA0C7" points="298.924,134.907 296.147,135.231 295.817,132.462 298.594,132.142 			"/>
		</g>
		<g id="Particle_89_">
			<polygon fill="#4AA0C7" points="308.4,185.743 303.809,190.592 298.946,185.993 303.576,181.131 			"/>
			<polygon fill="#4AA0C7" points="311.507,185.658 309.972,187.265 308.371,185.741 309.906,184.137 			"/>
			<polygon fill="#4AA0C7" points="305.074,179.557 303.574,181.176 301.938,179.639 303.473,178.038 			"/>
			<polygon fill="#4AA0C7" points="298.974,185.989 297.475,187.59 295.863,186.073 297.373,184.453 			"/>
			<polygon fill="#4AA0C7" points="305.393,192.061 303.855,193.681 302.256,192.144 303.791,190.543 			"/>
		</g>
		<g id="Particle_88_">
			<polygon fill="#4AA0C7" points="264.871,149.688 259.112,150.686 258.146,144.927 263.904,143.94 			"/>
			<polygon fill="#4AA0C7" points="265.807,143.627 263.896,143.961 263.563,142.051 265.474,141.725 			"/>
			<polygon fill="#4AA0C7" points="258.181,144.959 256.271,145.286 255.938,143.381 257.848,143.051 			"/>
			<polygon fill="#4AA0C7" points="259.522,152.596 257.614,152.917 257.282,151.019 259.19,150.688 			"/>
			<polygon fill="#4AA0C7" points="267.095,151.282 265.188,151.604 264.853,149.705 266.762,149.374 			"/>
		</g>
		<g id="Particle_87_">
			<polygon fill="#4AA0C7" points="286.012,214.159 281.271,214.821 280.61,210.063 285.387,209.419 			"/>
			<polygon fill="#4AA0C7" points="286.972,209.233 285.398,209.439 285.155,207.869 286.729,207.662 			"/>
			
				<rect x="278.934" y="208.622" transform="matrix(0.9913 -0.1319 0.1319 0.9913 -25.1815 38.7321)" fill="#4AA0C7" width="1.584" height="1.585"/>
			<polygon fill="#4AA0C7" points="281.551,216.35 279.979,216.575 279.736,215.004 281.308,214.779 			"/>
			<polygon fill="#4AA0C7" points="287.769,215.483 286.197,215.708 285.99,214.138 287.561,213.912 			"/>
		</g>
		<g id="Particle_86_">
			<polygon fill="#4AA0C7" points="413.038,207.483 402.805,212.493 397.809,202.274 408.01,197.264 			"/>
			<polygon fill="#4AA0C7" points="411.387,195.692 408,197.354 406.343,193.964 409.728,192.302 			"/>
			<polygon fill="#4AA0C7" points="397.85,202.254 394.477,203.916 392.798,200.527 396.191,198.865 			"/>
			<polygon fill="#4AA0C7" points="404.503,215.837 401.13,217.5 399.45,214.127 402.846,212.465 			"/>
			<polygon fill="#4AA0C7" points="417.982,209.226 414.609,210.888 412.93,207.497 416.34,205.835 			"/>
		</g>
		<g id="Particle_85_">
			<polygon fill="#4AA0C7" points="491.131,259.616 485.484,263.321 481.774,257.692 487.418,253.988 			"/>
			<polygon fill="#4AA0C7" points="489.279,252.795 487.401,254.026 486.166,252.164 488.049,250.933 			"/>
			<polygon fill="#4AA0C7" points="481.858,257.702 479.99,258.931 478.762,257.088 480.63,255.839 			"/>
			<polygon fill="#4AA0C7" points="486.751,265.14 484.884,266.369 483.654,264.487 485.521,263.259 			"/>
			<polygon fill="#4AA0C7" points="494.186,260.237 492.324,261.466 491.096,259.585 492.956,258.356 			"/>
		</g>
		<g id="Particle_84_">
			<polygon fill="#4AA0C7" points="405.378,91.918 402.537,100.502 393.962,97.646 396.803,89.071 			"/>
			<polygon fill="#4AA0C7" points="409.129,90.065 408.174,92.909 405.341,91.959 406.272,89.115 			"/>
			<polygon fill="#4AA0C7" points="397.816,86.273 396.85,89.115 394.015,88.167 394.967,85.325 			"/>
			<polygon fill="#4AA0C7" points="394.01,97.628 393.074,100.469 390.208,99.52 391.176,96.679 			"/>
			<polygon fill="#4AA0C7" points="405.347,101.381 404.398,104.223 401.546,103.275 402.503,100.434 			"/>
		</g>
	</g>
	<g id="g4163" transform="matrix(1.185274,0,0,1.185274,-72.009407,-188.13069)">
		<g id="g4255">
			<g id="g4159" transform="matrix(1.1260453,0,0,1.1260453,-48.017414,-76.478829)">
				<path id="rect4156" fill="#4AA0C7" d="M236.891,477.355H326.3l19.294,53.158v12.295H217.598v-13.003L236.891,477.355z"/>
				<path id="rect4153" fill="#96CCEB" d="M243.968,480.503h75.766l12.858,45.302H231.096L243.968,480.503z"/>
			</g>
			<path id="rect4147" fill="#4AA0C7" d="M277.881,380.293l-17.37,0.044l-0.728,111.815l-19.787-0.083l-0.391-111.715l-11.384,0.008
				l-0.003-22.969l2.52-1.013l7.296,0.072v-65.18h-26.01l-5.545-2.073v-32.525h52.854v-62.091h20.664v62.091h51.79v32.525
				l-5.643,2.073h-25.77v66.242h-22.871v-66.242h-18.562v64.948l48.673,0.068l2.46,1.093L310,380.274l-11.344,0.007l0.983,111.943
				l-20.745-0.142L277.881,380.293z"/>
			<path id="rect4150" fill="#4AA0C7" fill-opacity="0" d="M218.12,461.442h101.167l21.722,58.767v14.039H197.422v-14.994
				L218.12,461.442z"/>
		</g>
	</g>
</g>
<g id="Particle_1_">
	<polygon fill="#4AA0C7" points="358.922,409.092 356.867,411.221 354.73,409.151 356.808,407.029 	"/>
	<polygon fill="#4AA0C7" points="358.999,413.219 356.922,415.332 354.809,413.255 356.872,411.141 	"/>
	<polygon fill="#4AA0C7" points="354.813,409.094 352.736,411.221 350.621,409.151 352.698,407.034 	"/>
	<polygon fill="#4AA0C7" points="358.891,404.955 356.813,407.08 354.699,405.005 356.776,402.891 	"/>
	
		<rect x="359.518" y="407.577" transform="matrix(0.7007 -0.7135 0.7135 0.7007 -183.801 380.0243)" fill="#4AA0C7" width="2.965" height="2.967"/>
</g>
</svg>
