<?xml version="1.0" encoding="UTF-8" standalone="no"?>
<!-- Created with Inkscape (http://www.inkscape.org/) -->

<svg
   xmlns:dc="http://purl.org/dc/elements/1.1/"
   xmlns:cc="http://creativecommons.org/ns#"
   xmlns:rdf="http://www.w3.org/1999/02/22-rdf-syntax-ns#"
   xmlns:svg="http://www.w3.org/2000/svg"
   xmlns="http://www.w3.org/2000/svg"
   xmlns:sodipodi="http://sodipodi.sourceforge.net/DTD/sodipodi-0.dtd"
   xmlns:inkscape="http://www.inkscape.org/namespaces/inkscape"
   width="210mm"
   height="297mm"
   viewBox="0 0 744.09448819 1052.3622047"
   id="svg2"
   version="1.1"
   inkscape:version="0.91 r13725"
   sodipodi:docname="enchantment_extractors_3.svg">
  <defs
     id="defs4" />
  <sodipodi:namedview
     id="base"
     pagecolor="#ffffff"
     bordercolor="#666666"
     borderopacity="1.0"
     inkscape:pageopacity="0.0"
     inkscape:pageshadow="2"
     inkscape:zoom="0.70710678"
     inkscape:cx="461.17052"
     inkscape:cy="518.54695"
     inkscape:document-units="px"
     inkscape:current-layer="layer1"
     showgrid="false"
     inkscape:window-width="1920"
     inkscape:window-height="1017"
     inkscape:window-x="-8"
     inkscape:window-y="-8"
     inkscape:window-maximized="1" />
  <metadata
     id="metadata7">
    <rdf:RDF>
      <cc:Work
         rdf:about="">
        <dc:format>image/svg+xml</dc:format>
        <dc:type
           rdf:resource="http://purl.org/dc/dcmitype/StillImage" />
        <dc:title></dc:title>
      </cc:Work>
    </rdf:RDF>
  </metadata>
  <g
     inkscape:label="Layer 1"
     inkscape:groupmode="layer"
     id="layer1">
    <g
       style="fill:#84bfd9;fill-opacity:1"
       id="g4517"
       transform="matrix(0.77016892,0,0,0.77016892,104.28632,-174.7619)">
      <path
         sodipodi:nodetypes="ssscssssssssssssssssssssssssssssssssssssssssssssssssscssscsssssssssss"
         inkscape:connector-curvature="0"
         id="path4407"
         d="m 476.1023,777.81057 c -1.61654,-4.71295 0.80962,-21.18547 3.12031,-21.18547 1.50139,0 2.28795,4.106 2.26496,11.82352 -0.0223,7.5337 -0.85246,11.82389 -2.28776,11.82446 -1.23893,0 -2.63284,-1.10762 -3.09751,-2.46251 z m 8.30622,-9.36101 c 0,-9.19681 0.6569,-11.82446 2.9561,-11.82446 2.29918,0 2.95615,2.62765 2.95615,11.82446 0,9.19681 -0.65697,11.82443 -2.95615,11.82443 -1.57172,0 -2.37599,-1.22788 -2.72759,-4.94275 -0.16275,-1.71947 -0.22851,-3.97174 -0.22851,-6.88168 z M 147.29025,500.70896 c 0,-2.26935 2.51815,-2.95613 10.83907,-2.95613 8.32089,0 10.83904,0.68678 10.83904,2.95613 0,2.26933 -2.51815,2.95609 -10.83904,2.95609 -8.32092,0 -10.83907,-0.68676 -10.83907,-2.95609 z m 294.4593,374.57001 c 0,-1.64227 1.75174,-2.9561 3.94148,-2.9561 2.18967,0 3.94148,1.31383 3.94148,2.9561 0,1.64228 -1.75181,2.9561 -3.94148,2.9561 -2.18974,0 -3.94148,-1.31382 -3.94148,-2.9561 z m 11.82444,0 c 0,-1.64227 1.75181,-2.9561 3.94149,-2.9561 2.18974,0 3.94147,1.31383 3.94147,2.9561 0,1.64228 -1.75173,2.9561 -3.94147,2.9561 -2.18968,0 -3.94149,-1.31382 -3.94149,-2.9561 z M 149.26095,490.85524 c 0,-1.64227 1.75181,-2.95613 3.94149,-2.95613 2.18974,0 3.94147,1.31386 3.94147,2.95613 0,1.64228 -1.75173,2.95611 -3.94147,2.95611 -2.18968,0 -3.94149,-1.31383 -3.94149,-2.95611 z m 11.82445,0 c 0,-1.62586 1.33027,-2.95613 2.95615,-2.95613 1.62584,0 2.9561,1.33027 2.9561,2.95613 0,1.62586 -1.33026,2.95611 -2.9561,2.95611 -1.62588,0 -2.95615,-1.33025 -2.95615,-2.95611 z m 286.57634,374.57002 c 0,-1.64228 1.7518,-2.95611 3.94148,-2.95611 2.18974,0 3.94155,1.31383 3.94155,2.95611 0,1.64228 -1.75181,2.95613 -3.94155,2.95613 -2.18968,0 -3.94148,-1.31385 -3.94148,-2.95613 z m 45.43833,67.48292 c 0,-2.18972 -1.31382,-3.94148 -2.95611,-3.94148 -1.62588,0 -2.9561,-1.23413 -2.9561,-2.74249 0,-3.08344 6.84125,-5.33275 12.80984,-4.21164 2.16779,0.40718 5.04999,0.80817 6.40489,0.89111 4.15538,0.25433 2.73932,6.06302 -1.47808,6.06302 -2.62763,0 -3.94148,1.31382 -3.94148,3.94148 0,2.62765 -1.31381,3.94148 -3.94148,3.94148 -2.62763,0 -3.94148,-1.31383 -3.94148,-3.94148 z m -238.4751,26.9537 c 0,-2.13497 6.22925,-8.40392 7.88299,-2.95612 l 7.88296,0 0,-9.85372 c 0,-7.44502 0.72259,-9.85371 2.9561,-9.85371 2.32449,0 2.95611,2.73714 2.95611,12.80984 l 0,12.80982 -10.83907,0 c -8.3209,0 -10.83909,-0.68678 -10.83909,-2.95611 z m 0,-16.75132 c 0,-2.18972 1.31385,-3.94148 2.95613,-3.94148 1.64228,0 2.9561,1.75176 2.9561,3.94148 0,2.18972 -1.31382,3.94148 -2.9561,3.94148 -1.64228,0 -2.95613,-1.75176 -2.95613,-3.94148 z m 232.56289,-28.09571 c 0,-3.71238 0.97147,-4.03621 10.32099,-3.4404 7.93043,0.50536 10.47454,1.45459 10.98364,4.0981 0.56639,2.94112 -0.93148,3.44044 -10.32106,3.44044 -9.80971,0 -10.98357,-0.43801 -10.98357,-4.09814 z"
         style="fill:#3381a5;fill-opacity:1" />
      <g
         style="fill:#84bfd9;fill-opacity:1"
         transform="translate(-7.7904987,-12.984165)"
         id="g4505">
        <g
           style="fill:#84bfd9;fill-opacity:1"
           id="g4508">
          <path
             sodipodi:nodetypes="ssssssssssssscccsssssssssssssssssssssssssssssscssssscccssssssssssssss"
             inkscape:connector-curvature="0"
             id="path4407-2"
             d="m 540.96315,654.98786 c 6.78256,-7.72492 6.83509,-11.00187 0.17628,-11.00187 -2.80782,0 -5.10511,-0.76575 -5.10511,-1.70169 0,-0.93594 3.01145,-1.70172 6.69215,-1.70172 5.21439,0 6.93246,0.75725 7.78053,3.42921 1.23287,3.88443 -4.46076,14.34852 -8.69032,15.97155 -5.68798,2.18267 -5.92712,0.78304 -0.85353,-4.99548 z m 27.6698,225.92276 c 0,-1.84352 1.89081,-2.55255 6.80688,-2.55255 3.74373,0 6.80682,-0.76575 6.80682,-1.70172 0,-0.93593 -3.06309,-1.7017 -6.80682,-1.7017 -4.91607,0 -6.80688,-0.70905 -6.80688,-2.55253 0,-1.95956 2.17444,-2.55259 9.35941,-2.55259 l 9.35938,0 0,6.80682 0,6.80682 -9.35938,0 c -7.18497,0 -9.35941,-0.59298 -9.35941,-2.55255 z M 386.30758,818.09237 c 0,-3.06588 9.64987,-19.60733 11.43843,-19.60733 2.27684,0 1.5981,2.27651 -4.69303,15.7408 -1.81071,3.87527 -6.7454,6.70391 -6.7454,3.86653 z m 189.13225,47.50287 c 0,-1.40386 1.14863,-2.55253 2.55253,-2.55253 1.40393,0 2.55256,1.14867 2.55256,2.55253 0,1.40394 -1.14863,2.55259 -2.55256,2.55259 -1.4039,0 -2.55253,-1.14865 -2.55253,-2.55259 z M 381.20246,801.03757 c 0,-1.40386 1.14865,-2.55253 2.55254,-2.55253 1.40394,0 2.55258,1.14867 2.55258,2.55253 0,1.40393 -1.14864,2.55259 -2.55258,2.55259 -1.40389,0 -2.55254,-1.14866 -2.55254,-2.55259 z M 249.6037,719.00765 c 0,-3.40344 -0.85084,-4.25427 -4.25427,-4.25427 -2.64709,0 -4.25424,-0.96431 -4.25424,-2.55257 0,-2.46192 1.90321,-3.2611 6.38138,-2.67957 1.21665,0.15799 2.12713,-1.57672 2.12713,-4.05266 0,-2.71339 0.95256,-4.32886 2.55258,-4.32886 2.00713,0 2.55255,2.36348 2.55255,11.06109 0,8.6976 -0.54542,11.06111 -2.55255,11.06111 -1.58827,0 -2.55258,-1.60718 -2.55258,-4.25427 z m -46.73314,-46.55733 c 0,-1.41809 1.51263,-2.55256 3.40341,-2.55256 1.89079,0 3.40342,1.13447 3.40342,2.55256 0,1.41807 -1.51263,2.55257 -3.40342,2.55257 -1.89078,0 -3.40341,-1.1345 -3.40341,-2.55257 z m 23.20802,-109.20911 c 0,-2.54614 1.35519,-2.89346 9.35938,-2.39505 6.63736,0.41326 9.36169,1.2799 9.36169,2.97796 0,2.96484 -4.5058,3.17742 -5.67981,0.26794 -0.68665,-1.70169 -0.88518,-1.70169 -0.99264,0 -0.0739,1.16994 -1.21922,2.12713 -2.54511,2.12713 -1.32589,0 -2.79699,-0.95719 -3.26904,-2.12713 -0.68668,-1.70169 -0.88519,-1.70169 -0.99265,0 -0.20942,3.31525 -5.2392,2.4988 -5.24182,-0.85085 z m -23.20802,101.55143 c 0,-2.26894 1.13446,-3.4034 3.40341,-3.4034 2.26893,0 3.40342,1.13446 3.40342,3.4034 0,2.26894 -1.13449,3.40341 -3.40342,3.40341 -2.26895,0 -3.40341,-1.13447 -3.40341,-3.40341 z m 23.21032,-110.75759 c 0,-2.66093 1.40573,-3.13121 9.35942,-3.13121 7.82566,0 9.35935,0.49444 9.35935,3.01731 0,2.50907 -1.5765,3.03649 -9.35935,3.1312 -7.99498,0.0973 -9.35942,-0.34259 -9.35942,-3.0173 z m -22.7857,101.82364 c 1.07213,-3.21996 6.38221,-3.67774 6.38221,-0.55021 0,1.57856 -1.45498,2.67735 -3.54523,2.67735 -2.07944,0 -3.25241,-0.87948 -2.83698,-2.12714 z"
             style="fill:#3381a5;fill-opacity:1" />
          <path
             sodipodi:nodetypes="sssssssssssssssssssssssssssssssssssssssssssssss"
             inkscape:connector-curvature="0"
             id="path4551-9"
             d="m 237.29323,545.89911 c 0,-0.80241 2.24749,-5.13164 2.66405,-5.13164 0.53028,0 0.3722,0.5958 -1.09302,4.11968 -0.42172,1.01425 -1.57103,1.75456 -1.57103,1.01196 z m 2.46858,-28.12894 c 0,-0.51287 0.50644,-0.66805 2.17984,-0.66805 1.67342,0 2.17984,0.15518 2.17984,0.66805 0,0.51286 -0.50642,0.66806 -2.17984,0.66806 -1.6734,0 -2.17984,-0.1552 -2.17984,-0.66806 z m 0.39634,-2.22686 c 0,-0.37114 0.35229,-0.66805 0.79266,-0.66805 0.44037,0 0.79268,0.29691 0.79268,0.66805 0,0.37114 -0.35231,0.66806 -0.79268,0.66806 -0.44037,0 -0.79266,-0.29692 -0.79266,-0.66806 z m 2.37801,0 c 0,-0.36743 0.26753,-0.66805 0.5945,-0.66805 0.32698,0 0.5945,0.30062 0.5945,0.66805 0,0.36743 -0.26752,0.66806 -0.5945,0.66806 -0.32697,0 -0.5945,-0.30063 -0.5945,-0.66806 z m -6.43194,25.89221 c 0,-0.36741 0.26753,-0.66805 0.5945,-0.66805 0.32698,0 0.59451,0.30064 0.59451,0.66805 0,0.36743 -0.26753,0.66806 -0.59451,0.66806 -0.32697,0 -0.5945,-0.30063 -0.5945,-0.66806 z m -3.2289,-36.26366 c 0,-0.89075 -0.19816,-1.11342 -0.99084,-1.11342 -0.61652,0 -0.99084,-0.25239 -0.99084,-0.66806 0,-0.64434 0.44327,-0.85349 1.48626,-0.7013 0.28336,0.0413 0.49542,-0.41267 0.49542,-1.06066 0,-0.71015 0.22185,-1.13296 0.59451,-1.13296 0.46746,0 0.59449,0.61857 0.59449,2.89492 0,2.27633 -0.12703,2.8949 -0.59449,2.8949 -0.36992,0 -0.59451,-0.42062 -0.59451,-1.11342 z m -0.10151,22.80455 c 0,-0.49485 -0.26422,-0.89075 -0.5945,-0.89075 -0.32698,0 -0.5945,-0.27889 -0.5945,-0.61977 0,-0.69684 1.37584,-1.20515 2.57618,-0.9518 0.43596,0.0921 1.01559,0.18265 1.28808,0.20139 0.83568,0.0576 0.5509,1.37018 -0.29724,1.37018 -0.52845,0 -0.79269,0.29691 -0.79269,0.89075 0,0.59383 -0.26422,0.89074 -0.79266,0.89074 -0.52845,0 -0.79267,-0.29691 -0.79267,-0.89074 z m -1.189,-4.04373 c 0,-0.83897 0.19536,-0.91216 2.07564,-0.77751 1.59489,0.11427 2.10654,0.32874 2.20892,0.92615 0.11384,0.66465 -0.18733,0.77749 -2.07566,0.77749 -1.97282,0 -2.2089,-0.0991 -2.2089,-0.92613 z"
             style="fill:#84bfd9;fill-opacity:1" />
          <path
             sodipodi:nodetypes="sssssssssssssssssssssssssssssssssssssssssssssssssscssssssssssssssssssssssssscssssssssssscssssssssssssssssssssssssscssssssscsscssscsscssssscccsssssssssssssssssssssssssssssssss"
             inkscape:connector-curvature="0"
             id="path4551-7"
             d="m 243.52858,595.45165 c 0,0.49597 0.36112,0.90175 0.80246,0.90175 0.44136,0 0.80248,-0.40578 0.80248,-0.90175 0,-0.49597 -0.36112,-0.90175 -0.80248,-0.90175 -0.44134,0 -0.80246,0.40578 -0.80246,0.90175 z m 3.20987,0 c 0,0.49597 0.36112,0.90175 0.80248,0.90175 0.44134,0 0.80246,-0.40578 0.80246,-0.90175 0,-0.49597 -0.36112,-0.90175 -0.80246,-0.90175 -0.44136,0 -0.80248,0.40578 -0.80248,0.90175 z m 2.85204,79.48169 c 0,0.49598 0.36112,0.90175 0.80247,0.90175 0.44136,0 0.80247,-0.40577 0.80247,-0.90175 0,-0.49597 -0.36111,-0.90175 -0.80247,-0.90175 -0.44135,0 -0.80247,0.40578 -0.80247,0.90175 z m 3.3029,-155.74271 c 0,1.08309 3.0337,6.92676 3.59599,6.92676 0.71578,0 0.5024,-0.80423 -1.47539,-5.56081 -0.56924,-1.36904 -2.1206,-2.36832 -2.1206,-1.36595 z m -1.06608,145.39775 c 0,1.4879 0.24074,2.70526 0.535,2.70526 0.29424,0 0.53497,0.40579 0.53497,0.90177 0,0.50095 0.47554,0.90174 1.06996,0.90174 0.59442,0 1.06993,-0.40079 1.06993,-0.90174 0,-0.49598 0.36113,-0.90177 0.80249,-0.90177 0.59442,0 0.80247,-0.70136 0.80247,-2.70526 0,-2.00388 -0.20805,-2.70525 -0.80247,-2.70525 -0.59441,0 -0.80249,0.70137 -0.80249,2.70525 0,2.0039 -0.20802,2.70526 -0.80246,2.70526 -0.59442,0 -0.80247,-0.70136 -0.80247,-2.70526 0,-2.00388 -0.20804,-2.70525 -0.80246,-2.70525 -0.59442,0 -0.80247,0.70137 -0.80247,2.70525 z m 4.39822,-107.42887 c 0,0.69227 0.68359,0.90175 2.94238,0.90175 2.2588,0 2.94239,-0.20948 2.94239,-0.90175 0,-0.69226 -0.68359,-0.90175 -2.94239,-0.90175 -2.25879,0 -2.94238,0.20949 -2.94238,0.90175 z m -4.79985,71.78186 c 0,0.50098 0.47555,0.90176 1.06996,0.90176 0.59442,0 1.06996,-0.40078 1.06996,-0.90176 0,-0.50096 -0.47554,-0.90175 -1.06996,-0.90175 -0.59441,0 -1.06996,0.40079 -1.06996,0.90175 z m 3.20988,0 c 0,0.50098 0.47553,0.90176 1.06995,0.90176 0.59443,0 1.06996,-0.40078 1.06996,-0.90176 0,-0.50096 -0.47553,-0.90175 -1.06996,-0.90175 -0.59442,0 -1.06995,0.40079 -1.06995,0.90175 z m -5.04507,48.96153 c 0,1.25463 -0.284,1.49358 -1.96482,1.65319 -3.32912,0.31615 -2.85538,1.68952 0.58279,1.68952 l 2.98697,0 0,-2.40467 c 0,-1.73672 -0.22291,-2.40468 -0.80247,-2.40468 -0.49402,0 -0.80247,0.56374 -0.80247,1.46664 z m 7.17002,-117.73753 c 0,0.50096 0.47553,0.90174 1.06996,0.90174 0.59442,0 1.06995,-0.40078 1.06995,-0.90174 0,-0.50098 -0.47553,-0.90176 -1.06995,-0.90176 -0.59443,0 -1.06996,0.40078 -1.06996,0.90176 z m 3.20987,0 c 0,0.49595 0.36111,0.90174 0.80247,0.90174 0.44136,0 0.80247,-0.40579 0.80247,-0.90174 0,-0.49597 -0.36111,-0.90176 -0.80247,-0.90176 -0.44136,0 -0.80247,0.40579 -0.80247,0.90176 z m -6.93976,71.78185 c 0,0.50097 0.47554,0.90175 1.06995,0.90175 0.59443,0 1.06996,-0.40078 1.06996,-0.90175 0,-0.50097 -0.47553,-0.90175 -1.06996,-0.90175 -0.59441,0 -1.06995,0.40078 -1.06995,0.90175 z m -9.23455,-31.38564 c -0.39011,0.70931 0.11591,1.8035 0.83403,1.8035 0.27689,0 0.50342,-0.54105 0.50342,-1.20234 0,-1.26791 -0.77833,-1.61776 -1.33745,-0.60116 z m 3.30398,0.24181 c 0.93347,0 0.11488,1.67328 0.78298,1.20929 0.60769,-0.42205 0.59389,-2.05227 -0.0174,-2.05227 -0.26276,0 -0.60728,0.37934 -0.7656,0.84298 z m 4.1884,-75.58774 c 0,0.49594 0.36111,0.90174 0.80246,0.90174 0.44137,0 0.80248,-0.4058 0.80248,-0.90174 0,-0.49597 -0.36111,-0.90176 -0.80248,-0.90176 -0.44135,0 -0.80246,0.40579 -0.80246,0.90176 z m -0.9046,87.57846 c -0.44516,3.33589 -0.18308,4.87993 0.82833,4.87993 0.56906,0 0.84151,-0.81194 0.95821,-2.85555 0.16094,-2.8186 0.18691,-2.85555 2.00617,-2.85555 1.28166,0 1.84311,-0.27468 1.84311,-0.90175 0,-0.67984 -0.65021,-0.90176 -2.64211,-0.90176 l -2.64212,0 z m -3.45382,-38.6292 c 0,1.20235 -0.26749,1.50292 -1.33745,1.50292 -0.83219,0 -1.33744,0.34067 -1.33744,0.90176 0,0.86973 0.59833,1.15206 2.00616,0.94662 0.38249,-0.0558 0.66873,0.55702 0.66873,1.4317 0,0.95857 0.29946,1.52927 0.80247,1.52927 0.631,0 0.80247,-0.83495 0.80247,-3.90759 0,-3.07264 -0.17147,-3.9076 -0.80247,-3.9076 -0.49932,0 -0.80247,0.56777 -0.80247,1.50292 z m -0.13692,-30.78195 c 0,0.66797 -0.35666,1.20235 -0.80246,1.20235 -0.44136,0 -0.80247,0.37645 -0.80247,0.83658 0,0.9406 1.85713,1.62674 3.47736,1.28475 0.58848,-0.12426 1.37088,-0.24655 1.73868,-0.27184 1.12802,-0.0777 0.74361,-1.84949 -0.40123,-1.84949 -0.71331,0 -1.06997,-0.40078 -1.06997,-1.20235 0,-0.80155 -0.35665,-1.20233 -1.06995,-1.20233 -0.71331,0 -1.06996,0.40078 -1.06996,1.20233 z m 8.33154,35.45975 c 0,0.50097 0.47553,0.90175 1.06995,0.90175 0.59443,0 1.06996,-0.40078 1.06996,-0.90175 0,-0.50097 -0.47553,-0.90176 -1.06996,-0.90176 -0.59442,0 -1.06995,0.40079 -1.06995,0.90176 z m 2.56016,-41.31657 c 0,0.93516 -0.30313,1.50293 -0.80246,1.50293 -0.44134,0 -0.80246,0.4058 -0.80246,0.90175 0,0.49597 0.34437,0.90175 0.76524,0.90175 0.4209,0 0.84221,0.60592 0.93622,1.3465 0.094,0.74057 0.59227,1.43671 1.10718,1.547 0.81478,0.17451 0.93621,-0.31205 0.93621,-3.75116 0,-3.5509 -0.10854,-3.95168 -1.06996,-3.95168 -0.78463,0 -1.06997,0.40078 -1.06997,1.50291 z m -9.34571,106.91891 c 0,0.65126 0.6023,0.90175 2.13992,0.90175 l 2.1399,0 0,3.00584 c 0,2.27108 0.19618,3.00585 0.80249,3.00585 0.63098,0 0.80247,-0.83496 0.80247,-3.9076 l 0,-3.9076 -2.94239,0 c -2.2588,0 -2.94239,0.2095 -2.94239,0.90176 z m 4.65453,50.64983 c 0,0.89948 0.42605,1.02218 2.94239,0.8461 2.08663,-0.14599 2.9431,-0.45215 2.9431,-1.05203 0,-1.0474 -1.41652,-1.1225 -1.7856,-0.0947 -0.21587,0.60117 -0.27828,0.60117 -0.31207,0 -0.0232,-0.41331 -0.38329,-0.75146 -0.80012,-0.75146 -0.41683,0 -0.87931,0.33815 -1.02772,0.75146 -0.21587,0.60117 -0.27828,0.60117 -0.31206,0 -0.0658,-1.17119 -1.64709,-0.88276 -1.64792,0.30059 z m 2.13102,-113.54692 c 0,0.80156 0.35665,1.20234 1.06995,1.20234 0.71331,0 1.06996,-0.40078 1.06996,-1.20234 0,-0.80155 -0.35665,-1.20233 -1.06996,-1.20233 -0.7133,0 -1.06995,0.40078 -1.06995,1.20233 z m 5.23506,-41.61714 c 0,0.49597 0.24075,0.90175 0.53499,0.90175 0.29424,0 0.53497,-0.40578 0.53497,-0.90175 0,-0.49595 -0.24073,-0.90175 -0.53497,-0.90175 -0.29424,0 -0.53499,0.4058 -0.53499,0.90175 z M 248.3391,649.55498 c 0,0.66796 0.35664,1.20234 0.80246,1.20234 0.44582,0 0.80247,-0.53438 0.80247,-1.20234 0,-0.66796 -0.35665,-1.20234 -0.80247,-1.20234 -0.44582,0 -0.80246,0.53438 -0.80246,1.20234 z m 6.34313,-33.38386 c -0.39011,0.7093 0.11591,1.80351 0.83403,1.80351 0.27687,0 0.50341,-0.54105 0.50341,-1.20234 0,-1.26791 -0.77832,-1.61776 -1.33744,-0.60117 z m -1.68787,82.17605 c 0,0.94004 0.44193,1.10618 2.94239,1.10618 2.46021,0 2.94237,-0.17467 2.94237,-1.06594 0,-0.88639 -0.49561,-1.07271 -2.94237,-1.10617 -2.51344,-0.0344 -2.94239,0.12103 -2.94239,1.06593 z m -7.80618,-149.50591 c 0,1.13245 0.26371,1.23124 2.80174,1.04948 2.1528,-0.15414 2.84342,-0.44372 2.98162,-1.25011 0.15375,-0.89717 -0.25286,-1.04947 -2.80176,-1.04947 -2.66294,0 -2.9816,0.13359 -2.9816,1.2501 z m 10.06996,35.86284 c 0.33705,1.13753 2.00642,1.29925 2.00642,0.19437 0,-0.55766 -0.45741,-0.94584 -1.11454,-0.94584 -0.65373,0 -1.02248,0.3107 -0.89188,0.75147 z"
             style="fill:#84bfd9;fill-opacity:1" />
          <path
             sodipodi:nodetypes="sssssssssssssssssssssssssssssssssssssssssssssssssscssssssssssssssssssssssssscssssssssssscssssssssssssssssssssssssscssssssscsscssscsscssssscccsssssssssssssssssssssssssssssssss"
             inkscape:connector-curvature="0"
             id="path4551-4"
             d="m 467.26011,808.50196 c 0,-0.4033 -0.36112,-0.73325 -0.80246,-0.73325 -0.44136,0 -0.80248,0.32995 -0.80248,0.73325 0,0.4033 0.36112,0.73325 0.80248,0.73325 0.44134,0 0.80246,-0.32995 0.80246,-0.73325 z m -3.20987,0 c 0,-0.4033 -0.36112,-0.73325 -0.80248,-0.73325 -0.44134,0 -0.80246,0.32995 -0.80246,0.73325 0,0.4033 0.36112,0.73325 0.80246,0.73325 0.44136,0 0.80248,-0.32995 0.80248,-0.73325 z m -2.85204,-64.63024 c 0,-0.4033 -0.36112,-0.73325 -0.80247,-0.73325 -0.44136,0 -0.80247,0.32995 -0.80247,0.73325 0,0.4033 0.36111,0.73326 0.80247,0.73326 0.44135,0 0.80247,-0.32996 0.80247,-0.73326 z m -3.3029,126.6416 c 0,-0.88071 -3.0337,-5.63247 -3.59599,-5.63247 -0.71578,0 -0.5024,0.65396 1.47539,4.52176 0.56924,1.11322 2.1206,1.92579 2.1206,1.11071 z m 1.06608,-118.22963 c 0,-1.20988 -0.24074,-2.19977 -0.535,-2.19977 -0.29424,0 -0.53497,-0.32997 -0.53497,-0.73328 0,-0.40734 -0.47554,-0.73324 -1.06996,-0.73324 -0.59442,0 -1.06993,0.3259 -1.06993,0.73324 0,0.40331 -0.36113,0.73328 -0.80249,0.73328 -0.59442,0 -0.80247,0.5703 -0.80247,2.19977 0,1.62944 0.20805,2.19976 0.80247,2.19976 0.59441,0 0.80249,-0.57032 0.80249,-2.19976 0,-1.62947 0.20802,-2.19977 0.80246,-2.19977 0.59442,0 0.80247,0.5703 0.80247,2.19977 0,1.62944 0.20804,2.19976 0.80246,2.19976 0.59442,0 0.80247,-0.57032 0.80247,-2.19976 z m -4.39822,87.35538 c 0,-0.56292 -0.68359,-0.73325 -2.94238,-0.73325 -2.2588,0 -2.94239,0.17033 -2.94239,0.73325 0,0.56291 0.68359,0.73325 2.94239,0.73325 2.25879,0 2.94238,-0.17034 2.94238,-0.73325 z m 4.79985,-58.36915 c 0,-0.40737 -0.47555,-0.73326 -1.06996,-0.73326 -0.59442,0 -1.06996,0.32589 -1.06996,0.73326 0,0.40735 0.47554,0.73325 1.06996,0.73325 0.59441,0 1.06996,-0.3259 1.06996,-0.73325 z m -3.20988,0 c 0,-0.40737 -0.47553,-0.73326 -1.06995,-0.73326 -0.59443,0 -1.06996,0.32589 -1.06996,0.73326 0,0.40735 0.47553,0.73325 1.06996,0.73325 0.59442,0 1.06995,-0.3259 1.06995,-0.73325 z m 5.04507,-39.81288 c 0,-1.0202 0.284,-1.2145 1.96482,-1.34429 3.32912,-0.25708 2.85538,-1.37383 -0.58279,-1.37383 l -2.98697,0 0,1.95535 c 0,1.41221 0.22291,1.95536 0.80247,1.95536 0.49402,0 0.80247,-0.4584 0.80247,-1.19259 z m -7.17002,95.73783 c 0,-0.40736 -0.47553,-0.73325 -1.06996,-0.73325 -0.59442,0 -1.06995,0.32589 -1.06995,0.73325 0,0.40737 0.47553,0.73326 1.06995,0.73326 0.59443,0 1.06996,-0.32589 1.06996,-0.73326 z m -3.20987,0 c 0,-0.40328 -0.36111,-0.73325 -0.80247,-0.73325 -0.44136,0 -0.80247,0.32997 -0.80247,0.73325 0,0.40329 0.36111,0.73326 0.80247,0.73326 0.44136,0 0.80247,-0.32997 0.80247,-0.73326 z m 6.93976,-58.36915 c 0,-0.40736 -0.47554,-0.73325 -1.06995,-0.73325 -0.59443,0 -1.06996,0.32589 -1.06996,0.73325 0,0.40737 0.47553,0.73326 1.06996,0.73326 0.59441,0 1.06995,-0.32589 1.06995,-0.73326 z m 9.23455,25.52112 c 0.39011,-0.57677 -0.11591,-1.46651 -0.83403,-1.46651 -0.27689,0 -0.50342,0.43995 -0.50342,0.97768 0,1.03099 0.77833,1.31547 1.33745,0.48883 z m -3.30398,-0.19663 c -0.93347,0 -0.11488,-1.36062 -0.78298,-0.98333 -0.60769,0.34319 -0.59389,1.6688 0.0174,1.6688 0.26276,0 0.60728,-0.30846 0.7656,-0.68547 z m -4.1884,61.46389 c 0,-0.40327 -0.36111,-0.73325 -0.80246,-0.73325 -0.44137,0 -0.80248,0.32998 -0.80248,0.73325 0,0.4033 0.36111,0.73326 0.80248,0.73326 0.44135,0 0.80246,-0.32996 0.80246,-0.73326 z m 0.9046,-71.2141 c 0.44516,-2.71256 0.18308,-3.96809 -0.82833,-3.96809 -0.56906,0 -0.84151,0.66022 -0.95821,2.32198 -0.16094,2.29193 -0.18691,2.32198 -2.00617,2.32198 -1.28166,0 -1.84311,0.22335 -1.84311,0.73325 0,0.55281 0.65021,0.73326 2.64211,0.73326 l 2.64212,0 z m 3.45382,31.41119 c 0,-0.97768 0.26749,-1.22209 1.33745,-1.22209 0.83219,0 1.33744,-0.27702 1.33744,-0.73326 0,-0.70722 -0.59833,-0.9368 -2.00616,-0.76974 -0.38249,0.0454 -0.66873,-0.45294 -0.66873,-1.16419 0,-0.77945 -0.29946,-1.24352 -0.80247,-1.24352 -0.631,0 -0.80247,0.67894 -0.80247,3.17745 0,2.4985 0.17147,3.17745 0.80247,3.17745 0.49932,0 0.80247,-0.46168 0.80247,-1.2221 z m 0.13692,25.03023 c 0,-0.54316 0.35666,-0.97769 0.80246,-0.97769 0.44136,0 0.80247,-0.30611 0.80247,-0.68026 0,-0.76484 -1.85713,-1.32278 -3.47736,-1.04469 -0.58848,0.10104 -1.37088,0.20048 -1.73868,0.22105 -1.12802,0.0632 -0.74361,1.5039 0.40123,1.5039 0.71331,0 1.06997,0.3259 1.06997,0.97769 0,0.65178 0.35665,0.97767 1.06995,0.97767 0.71331,0 1.06996,-0.32589 1.06996,-0.97767 z m -8.33154,-28.83396 c 0,-0.40736 -0.47553,-0.73326 -1.06995,-0.73326 -0.59443,0 -1.06996,0.3259 -1.06996,0.73326 0,0.40736 0.47553,0.73326 1.06996,0.73326 0.59442,0 1.06995,-0.3259 1.06995,-0.73326 z m -2.56016,33.59641 c 0,-0.76042 0.30313,-1.2221 0.80246,-1.2221 0.44134,0 0.80246,-0.32998 0.80246,-0.73326 0,-0.40329 -0.34437,-0.73325 -0.76524,-0.73325 -0.4209,0 -0.84221,-0.4927 -0.93622,-1.0949 -0.094,-0.60219 -0.59227,-1.16826 -1.10718,-1.25794 -0.81478,-0.1419 -0.93621,0.25374 -0.93621,3.05024 0,2.8874 0.10854,3.2133 1.06996,3.2133 0.78463,0 1.06997,-0.3259 1.06997,-1.22209 z m 9.34571,-86.94071 c 0,-0.52957 -0.6023,-0.73325 -2.13992,-0.73325 l -2.1399,0 0,-2.44419 c 0,-1.84672 -0.19618,-2.4442 -0.80249,-2.4442 -0.63098,0 -0.80247,0.67895 -0.80247,3.17745 l 0,3.17745 2.94239,0 c 2.2588,0 2.94239,-0.17035 2.94239,-0.73326 z m -4.65453,-41.18572 c 0,-0.73141 -0.42605,-0.83118 -2.94239,-0.688 -2.08663,0.11871 -2.9431,0.36766 -2.9431,0.85545 0,0.85169 1.41652,0.91276 1.7856,0.077 0.21587,-0.48884 0.27828,-0.48884 0.31207,0 0.0232,0.33608 0.38329,0.61104 0.80012,0.61104 0.41683,0 0.87931,-0.27496 1.02772,-0.61104 0.21587,-0.48884 0.27828,-0.48884 0.31206,0 0.0658,0.95235 1.64709,0.71781 1.64792,-0.24443 z m -2.13102,92.33025 c 0,-0.65178 -0.35665,-0.97767 -1.06995,-0.97767 -0.71331,0 -1.06996,0.32589 -1.06996,0.97767 0,0.65178 0.35665,0.97767 1.06996,0.97767 0.7133,0 1.06995,-0.32589 1.06995,-0.97767 z m -5.23506,33.84082 c 0,-0.40329 -0.24075,-0.73325 -0.53499,-0.73325 -0.29424,0 -0.53497,0.32996 -0.53497,0.73325 0,0.40328 0.24073,0.73326 0.53497,0.73326 0.29424,0 0.53499,-0.32998 0.53499,-0.73326 z m 12.02061,-89.14047 c 0,-0.54315 -0.35664,-0.97768 -0.80246,-0.97768 -0.44582,0 -0.80247,0.43453 -0.80247,0.97768 0,0.54315 0.35665,0.97768 0.80247,0.97768 0.44582,0 0.80246,-0.43453 0.80246,-0.97768 z m -6.34313,27.14596 c 0.39011,-0.57676 -0.11591,-1.46652 -0.83403,-1.46652 -0.27687,0 -0.50341,0.43996 -0.50341,0.97768 0,1.031 0.77832,1.31548 1.33744,0.48884 z m 1.68787,-66.82115 c 0,-0.76439 -0.44193,-0.89948 -2.94239,-0.89948 -2.46021,0 -2.94237,0.14203 -2.94237,0.86676 0,0.72077 0.49561,0.87227 2.94237,0.89948 2.51344,0.028 2.94239,-0.0984 2.94239,-0.86676 z m 7.80618,121.57017 c 0,-0.92084 -0.26371,-1.00117 -2.80174,-0.85338 -2.1528,0.12534 -2.84342,0.36081 -2.98162,1.01653 -0.15375,0.72953 0.25286,0.85337 2.80176,0.85337 2.66294,0 2.9816,-0.10863 2.9816,-1.01652 z m -10.06996,-29.16173 c -0.33705,-0.92498 -2.00642,-1.05648 -2.00642,-0.15805 0,0.45346 0.45741,0.7691 1.11454,0.7691 0.65373,0 1.02248,-0.25264 0.89188,-0.61105 z"
             style="fill:#84bfd9;fill-opacity:1" />
        </g>
      </g>
      <path
         sodipodi:nodetypes="ssssssssssssssssssssssssssssssssssssssssssssssssssssssssss"
         inkscape:connector-curvature="0"
         id="path4407-4"
         d="m 170.61637,903.57041 c 0,-2.26935 2.51815,-2.95613 10.83907,-2.95613 8.32089,0 10.83904,0.68678 10.83904,2.95613 0,2.26933 -2.51815,2.95609 -10.83904,2.95609 -8.32092,0 -10.83907,-0.68676 -10.83907,-2.95609 z m 185.39231,0.62607 c 0,-1.64227 1.75174,-2.9561 3.94148,-2.9561 2.18967,0 3.94148,1.31383 3.94148,2.9561 0,1.64228 -1.75181,2.9561 -3.94148,2.9561 -2.18974,0 -3.94148,-1.31382 -3.94148,-2.9561 z m 11.82444,0 c 0,-1.64227 1.75181,-2.9561 3.94149,-2.9561 2.18974,0 3.94147,1.31383 3.94147,2.9561 0,1.64228 -1.75173,2.9561 -3.94147,2.9561 -2.18968,0 -3.94149,-1.31382 -3.94149,-2.9561 z M 172.58707,893.71669 c 0,-1.64227 1.75181,-2.95613 3.94149,-2.95613 2.18974,0 3.94147,1.31386 3.94147,2.95613 0,1.64228 -1.75173,2.95611 -3.94147,2.95611 -2.18968,0 -3.94149,-1.31383 -3.94149,-2.95611 z m 11.82445,0 c 0,-1.62586 1.33027,-2.95613 2.95615,-2.95613 1.62584,0 2.9561,1.33027 2.9561,2.95613 0,1.62586 -1.33026,2.95611 -2.9561,2.95611 -1.62588,0 -2.95615,-1.33025 -2.95615,-2.95611 z m 177.50935,0.62608 c 0,-1.64228 1.7518,-2.95611 3.94148,-2.95611 2.18974,0 3.94155,1.31383 3.94155,2.95611 0,1.64228 -1.75181,2.95613 -3.94155,2.95613 -2.18968,0 -3.94148,-1.31385 -3.94148,-2.95613 z M 319.0669,645.01207 c 0,-2.18972 -1.31382,-3.94148 -2.95611,-3.94148 -1.62588,0 -2.9561,-1.23413 -2.9561,-2.74249 0,-3.08344 6.84125,-5.33275 12.80984,-4.21164 2.16779,0.40718 5.04999,0.80817 6.40489,0.89111 4.15538,0.25433 2.73932,6.06302 -1.47808,6.06302 -2.62763,0 -3.94148,1.31382 -3.94148,3.94148 0,2.62765 -1.31381,3.94148 -3.94148,3.94148 -2.62763,0 -3.94148,-1.31383 -3.94148,-3.94148 z m -27.08561,118.46894 c 0,-3.06559 -1.1168,-4.92685 -2.95611,-4.92685 -1.62589,0 -2.95615,-1.33025 -2.95615,-2.95611 0,-1.62586 1.26858,-2.95613 2.81908,-2.95613 1.55045,0 3.10244,-1.9863 3.4488,-4.41403 0.34634,-2.42773 2.18169,-4.70984 4.07856,-5.07136 3.00142,-0.57207 3.44878,1.02298 3.44878,12.297 0,11.64051 -0.39976,12.95434 -3.94149,12.95434 -2.89046,0 -3.94147,-1.31383 -3.94147,-4.92686 z m 9.85368,-7.88296 c 0,-1.62586 0.88684,-2.95613 1.97076,-2.95613 1.08389,0 1.97078,1.33027 1.97078,2.95613 0,1.62586 -0.88689,2.95611 -1.97078,2.95611 -1.08392,0 -1.97076,-1.33025 -1.97076,-2.95611 z m 11.31972,-128.47931 c 0,-3.71238 0.97147,-4.03621 10.32099,-3.4404 7.93043,0.50536 10.47454,1.45459 10.98364,4.0981 0.56639,2.94112 -0.93148,3.44044 -10.32106,3.44044 -9.80971,0 -10.98357,-0.43801 -10.98357,-4.09814 z"
         style="fill:#3381a5;fill-opacity:1" />
    </g>
    <g
       style="fill:#84bfd9;fill-opacity:1"
       id="g4524"
       transform="matrix(0.3737203,0,0,0.35380078,747.44877,102.16302)">
      <g
         style="fill:#84bfd9;fill-opacity:1"
         id="g4528"
         transform="translate(247.6396,-202.85131)">
        <g
           style="fill:#84bfd9;fill-opacity:1"
           id="g4530" />
      </g>
      <g
         transform="matrix(0.64787483,0,0,0.76902222,-1510.1324,5.2304765)"
         id="g4547"
         style="fill:#84bfd9;fill-opacity:1">
        <g
           id="g4549"
           style="fill:#84bfd9;fill-opacity:1">
          <path
             sodipodi:nodetypes="sssssssssssssssssssssssssssssssssssssssssssssssssscssssssssssssssssssssssssscssssssssssscssssssssssssssssssssssssscssssssscsscssscsscssssscccsssssssssssssssssssssssssssssssss"
             inkscape:connector-curvature="0"
             id="path4551"
             d="m 131.75218,749.19843 c 0,-1.40393 1.14866,-2.55255 2.55253,-2.55255 1.40392,0 2.55259,1.14862 2.55259,2.55255 0,1.40392 -1.14867,2.55255 -2.55259,2.55255 -1.40387,0 -2.55253,-1.14863 -2.55253,-2.55255 z m 10.21022,0 c 0,-1.40393 1.14867,-2.55255 2.5526,-2.55255 1.40386,0 2.55253,1.14862 2.55253,2.55255 0,1.40392 -1.14867,2.55255 -2.55253,2.55255 -1.40393,0 -2.5526,-1.14863 -2.5526,-2.55255 z m 9.07202,-224.98597 c 0,-1.40394 1.14866,-2.55255 2.55256,-2.55255 1.40391,0 2.55256,1.14861 2.55256,2.55255 0,1.40392 -1.14865,2.55255 -2.55256,2.55255 -1.4039,0 -2.55256,-1.14863 -2.55256,-2.55255 z m 10.50614,440.85528 c 0,-3.06588 9.64987,-19.60733 11.43843,-19.60733 2.27684,0 1.5981,2.27651 -4.69303,15.7408 -1.81071,3.87527 -6.7454,6.70391 -6.7454,3.86653 z M 158.1495,553.49558 c 0,-4.21176 0.76574,-7.6577 1.70176,-7.6577 0.93593,0 1.70167,-1.14866 1.70167,-2.55259 0,-1.41804 1.51265,-2.55253 3.40343,-2.55253 1.89077,0 3.40334,1.13449 3.40334,2.55253 0,1.40393 1.14869,2.55259 2.55263,2.55259 1.89078,0 2.55255,1.98533 2.55255,7.6577 0,5.67231 -0.66177,7.65763 -2.55255,7.65763 -1.89077,0 -2.55263,-1.98532 -2.55263,-7.65763 0,-5.67237 -0.66169,-7.6577 -2.55255,-7.6577 -1.89077,0 -2.55255,1.98533 -2.55255,7.6577 0,5.67231 -0.66177,7.65763 -2.55255,7.65763 -1.89077,0 -2.55255,-1.98532 -2.55255,-7.65763 z m 13.99022,304.09501 c 0,-1.95955 2.17442,-2.55256 9.35939,-2.55256 7.18499,0 9.35939,0.59301 9.35939,2.55256 0,1.95956 -2.1744,2.55255 -9.35939,2.55255 -7.18497,0 -9.35939,-0.59299 -9.35939,-2.55255 z M 156.87195,654.40028 c 0,-1.4181 1.51265,-2.55259 3.40341,-2.55259 1.89079,0 3.40342,1.13449 3.40342,2.55259 0,1.41804 -1.51263,2.55254 -3.40342,2.55254 -1.89076,0 -3.40341,-1.1345 -3.40341,-2.55254 z m 10.21026,0 c 0,-1.4181 1.51262,-2.55259 3.4034,-2.55259 1.89079,0 3.40342,1.13449 3.40342,2.55259 0,1.41804 -1.51263,2.55254 -3.40342,2.55254 -1.89078,0 -3.4034,-1.1345 -3.4034,-2.55254 z M 151.03442,515.80664 c 0,-3.55145 -0.90338,-4.22784 -6.24987,-4.67964 -10.58955,-0.89491 -9.08264,-4.78245 1.85379,-4.78245 l 9.5012,0 0,6.80682 c 0,4.91605 -0.70905,6.80682 -2.55256,6.80682 -1.57143,0 -2.55256,-1.59576 -2.55256,-4.15155 z m 22.80701,333.27539 c 0,-1.41804 1.51262,-2.55253 3.40342,-2.55253 1.89079,0 3.40341,1.13449 3.40341,2.55253 0,1.4181 -1.51262,2.55259 -3.40341,2.55259 -1.8908,0 -3.40342,-1.13449 -3.40342,-2.55259 z m 10.21025,0 c 0,-1.40386 1.14865,-2.55253 2.55256,-2.55253 1.4039,0 2.55257,1.14867 2.55257,2.55253 0,1.40392 -1.14867,2.55259 -2.55257,2.55259 -1.40391,0 -2.55256,-1.14867 -2.55256,-2.55259 z m -22.0746,-203.1903 c 0,-1.41808 1.51264,-2.55255 3.4034,-2.55255 1.8908,0 3.40342,1.13447 3.40342,2.55255 0,1.41808 -1.51262,2.55255 -3.40342,2.55255 -1.89076,0 -3.4034,-1.13447 -3.4034,-2.55255 z m -29.37405,88.8422 c -1.24092,-2.00781 0.3687,-5.10512 2.65296,-5.10512 0.88073,0 1.60131,1.53153 1.60131,3.40343 0,3.58904 -2.47578,4.57933 -4.25427,1.70169 z m 10.50958,-0.68448 c 2.96926,0 0.36541,-4.7365 2.49056,-3.4231 1.93301,1.19468 1.88911,5.80929 -0.0554,5.80929 -0.83581,0 -1.9317,-1.07379 -2.4353,-2.38619 z m 13.32283,213.96349 c 0,-1.40386 1.14865,-2.55253 2.55254,-2.55253 1.40394,0 2.55258,1.14867 2.55258,2.55253 0,1.40393 -1.14864,2.55259 -2.55258,2.55259 -1.40389,0 -2.55254,-1.14866 -2.55254,-2.55259 z m -2.87743,-247.9052 c -1.41601,-9.44277 -0.58236,-13.81344 2.63481,-13.81344 1.81011,0 2.67676,2.29832 3.04797,8.08309 0.51193,7.97851 0.59452,8.08311 6.38138,8.08311 4.07684,0 5.86272,0.77754 5.86272,2.55256 0,1.92439 -2.06824,2.55257 -8.40424,2.55257 l -8.40427,0 z m -10.98623,109.34629 c 0,-3.40344 -0.85084,-4.25427 -4.25427,-4.25427 -2.64709,0 -4.25424,-0.96431 -4.25424,-2.55257 0,-2.46192 1.90321,-3.2611 6.38138,-2.67957 1.21665,0.15799 2.12713,-1.57672 2.12713,-4.05266 0,-2.71339 0.95256,-4.32886 2.55258,-4.32886 2.00713,0 2.55255,2.36348 2.55255,11.06109 0,8.6976 -0.54542,11.06111 -2.55255,11.06111 -1.58827,0 -2.55258,-1.60718 -2.55258,-4.25427 z m -0.43551,87.13334 c 0,-1.89079 -1.13449,-3.40342 -2.55255,-3.40342 -1.40391,0 -2.55257,-1.06563 -2.55257,-2.36808 0,-2.66252 5.90733,-4.60475 11.06109,-3.6367 1.87189,0.35159 4.36062,0.69787 5.53055,0.76947 3.5881,0.21962 2.36536,5.23531 -1.27627,5.23531 -2.26894,0 -3.40343,1.13447 -3.40343,3.40342 0,2.26892 -1.13447,3.40342 -3.40341,3.40342 -2.26894,0 -3.40341,-1.1345 -3.40341,-3.40342 z m 26.50167,-100.37461 c 0,-1.41809 1.51263,-2.55256 3.40341,-2.55256 1.89079,0 3.40342,1.13447 3.40342,2.55256 0,1.41807 -1.51263,2.55257 -3.40342,2.55257 -1.89078,0 -3.40341,-1.1345 -3.40341,-2.55257 z m 8.1436,116.95329 c 0,-2.64711 -0.96425,-4.25427 -2.55254,-4.25427 -1.40386,0 -2.55255,-1.14867 -2.55255,-2.55257 0,-1.40391 1.09541,-2.55255 2.43416,-2.55255 1.33884,0 2.67896,-1.71516 2.97799,-3.81146 0.29911,-2.0963 1.88395,-4.06686 3.52181,-4.37904 2.59175,-0.49396 2.97799,0.88331 2.97799,10.61828 0,10.05138 -0.34522,11.18588 -3.40343,11.18588 -2.49582,0 -3.40343,-1.1345 -3.40343,-4.25427 z M 147.05388,610.51457 c 0,-1.8435 1.91585,-2.55255 6.80685,-2.55255 l 6.80677,0 0,-8.50853 c 0,-6.42867 0.62404,-8.50854 2.55264,-8.50854 2.00708,0 2.55255,2.36348 2.55255,11.06109 l 0,11.06111 -9.35941,0 c -7.18497,0 -9.3594,-0.59304 -9.3594,-2.55258 z m 14.80555,-143.37264 c 0,-2.54614 1.35519,-2.89346 9.35938,-2.39505 6.63736,0.41326 9.36169,1.2799 9.36169,2.97796 0,2.96484 -4.5058,3.17742 -5.67981,0.26794 -0.68665,-1.70169 -0.88518,-1.70169 -0.99264,0 -0.0739,1.16994 -1.21922,2.12713 -2.54511,2.12713 -1.32589,0 -2.79699,-0.95719 -3.26904,-2.12713 -0.68668,-1.70169 -0.88519,-1.70169 -0.99265,0 -0.20942,3.31525 -5.2392,2.4988 -5.24182,-0.85085 z m 6.77851,321.41315 c 0,-2.26894 1.13446,-3.4034 3.40341,-3.4034 2.26893,0 3.40342,1.13446 3.40342,3.4034 0,2.26894 -1.13449,3.40341 -3.40342,3.40341 -2.26895,0 -3.40341,-1.13447 -3.40341,-3.40341 z m 16.65213,117.80413 c 0,-1.40391 0.76582,-2.55255 1.70175,-2.55255 0.93594,0 1.70167,1.14864 1.70167,2.55255 0,1.4039 -0.76573,2.55257 -1.70167,2.55257 -0.93593,0 -1.70175,-1.14867 -1.70175,-2.55257 z M 147.05388,596.05008 c 0,-1.89079 1.13445,-3.40343 2.55255,-3.40343 1.4181,0 2.55255,1.51264 2.55255,3.40343 0,1.89077 -1.13445,3.40341 -2.55255,3.40341 -1.4181,0 -2.55255,-1.51264 -2.55255,-3.40341 z m 20.17678,94.49849 c -1.24091,-2.00781 0.3687,-5.10513 2.65297,-5.10513 0.88068,0 1.60126,1.53153 1.60126,3.40341 0,3.58904 -2.47573,4.57935 -4.25423,1.70172 z m -5.36893,-232.6128 c 0,-2.66093 1.40573,-3.13121 9.35942,-3.13121 7.82566,0 9.35935,0.49444 9.35935,3.01731 0,2.50907 -1.5765,3.03649 -9.35935,3.1312 -7.99498,0.0973 -9.35942,-0.34259 -9.35942,-3.0173 z m -24.83058,423.201 c 0,-3.20559 0.83886,-3.48521 8.91204,-2.97075 6.84779,0.43636 9.04459,1.25603 9.48418,3.53866 0.48908,2.5396 -0.80431,2.97073 -8.91206,2.97073 -8.47052,0 -9.48416,-0.37819 -9.48416,-3.53864 z m 32.03141,-101.51564 c 1.07213,-3.21996 6.38221,-3.67774 6.38221,-0.55021 0,1.57856 -1.45498,2.67735 -3.54523,2.67735 -2.07944,0 -3.25241,-0.87948 -2.83698,-2.12714 z"
             style="fill:#84bfd9;fill-opacity:1" />
        </g>
      </g>
    </g>
    <path
       sodipodi:nodetypes="sssssssssssssssssssssssssssssssssssssssssscssssssscssssssssss"
       inkscape:connector-curvature="0"
       id="path4551-5"
       d="m 230.31233,194.33149 c 0,-0.83416 -2.33647,-5.33477 -2.76952,-5.33477 -0.55128,0 -0.38694,0.61939 1.1363,4.28276 0.43841,1.05439 1.63322,1.82401 1.63322,1.05201 z m -2.56631,-29.24245 c 0,-0.53316 -0.52648,-0.6945 -2.26613,-0.6945 -1.73967,0 -2.26614,0.16134 -2.26614,0.6945 0,0.53316 0.52647,0.6945 2.26614,0.6945 1.73965,0 2.26613,-0.16134 2.26613,-0.6945 z m -0.41203,-2.31502 c 0,-0.38582 -0.36624,-0.69449 -0.82405,-0.69449 -0.4578,0 -0.82405,0.30867 -0.82405,0.69449 0,0.38584 0.36625,0.69451 0.82405,0.69451 0.45781,0 0.82405,-0.30867 0.82405,-0.69451 z m -2.47215,0 c 0,-0.38196 -0.27812,-0.69449 -0.61803,-0.69449 -0.33992,0 -0.61804,0.31253 -0.61804,0.69449 0,0.38198 0.27812,0.69451 0.61804,0.69451 0.33991,0 0.61803,-0.31253 0.61803,-0.69451 z m 6.68656,26.91719 c 0,-0.38196 -0.27811,-0.69449 -0.61804,-0.69449 -0.33992,0 -0.61803,0.31253 -0.61803,0.69449 0,0.38198 0.27811,0.69451 0.61803,0.69451 0.33993,0 0.61804,-0.31253 0.61804,-0.69451 z m 3.35672,-37.6992 c 0,-0.92601 0.20601,-1.15751 1.03006,-1.15751 0.64093,0 1.03006,-0.26236 1.03006,-0.6945 0,-0.66984 -0.46082,-0.88728 -1.54509,-0.72906 -0.29458,0.043 -0.51503,-0.42899 -0.51503,-1.10265 0,-0.73826 -0.23063,-1.1778 -0.61804,-1.1778 -0.48597,0 -0.61803,0.64306 -0.61803,3.00951 0,2.36645 0.13206,3.00952 0.61803,3.00952 0.38456,0 0.61804,-0.43729 0.61804,-1.15751 z m 0.10545,23.7073 c 0,-0.51445 0.27469,-0.92601 0.61803,-0.92601 0.33992,0 0.61804,-0.28993 0.61804,-0.64431 0,-0.72442 -1.4303,-1.25286 -2.67816,-0.98947 -0.45322,0.0957 -1.0558,0.18988 -1.33907,0.20936 -0.86877,0.0598 -0.57272,1.42442 0.30901,1.42442 0.54937,0 0.82405,0.30867 0.82405,0.92601 0,0.61733 0.27469,0.926 0.82405,0.926 0.54936,0 0.82405,-0.30867 0.82405,-0.926 z m -8.38845,4.51074 c 0,-0.72023 0.23346,-1.15751 0.61803,-1.15751 0.33991,0 0.61803,-0.31253 0.61803,-0.6945 0,-0.38198 -0.26522,-0.6945 -0.58936,-0.6945 -0.32417,0 -0.64865,-0.46666 -0.72105,-1.03703 -0.0724,-0.57036 -0.45615,-1.10651 -0.85271,-1.19145 -0.62753,-0.1344 -0.72104,0.24033 -0.72104,2.88903 0,2.73479 0.0836,3.04346 0.82405,3.04346 0.60429,0 0.82405,-0.30867 0.82405,-1.1575 z m -2.06012,-1.85201 c 0,-0.38198 -0.18542,-0.6945 -0.41203,-0.6945 -0.22662,0 -0.41202,0.31252 -0.41202,0.6945 0,0.38197 0.1854,0.6945 0.41202,0.6945 0.22661,0 0.41203,-0.31253 0.41203,-0.6945 z m 11.68464,-6.86254 c 0,-0.87218 -0.20311,-0.94826 -2.15781,-0.80828 -1.65802,0.11872 -2.18992,0.34174 -2.29635,0.9628 -0.11842,0.69097 0.19474,0.80827 2.15782,0.80827 2.05092,0 2.29634,-0.10289 2.29634,-0.96279 z"
       style="fill:#84bfd9;fill-opacity:1" />
    <path
       sodipodi:nodetypes="sssssssssssssssssssssssssssssssssssssssssssssssssscssssssssssssssssssssssssscssssssssssscssssssssssssssssssssssssscssssssscsscssscsscssssscccsssssssssssssssssssssssssssssssss"
       inkscape:connector-curvature="0"
       id="path4551-0"
       d="m 498.65553,444.83646 c 0,0.38198 -0.27812,0.6945 -0.61802,0.6945 -0.33993,0 -0.61805,-0.31252 -0.61805,-0.6945 0,-0.38198 0.27812,-0.6945 0.61805,-0.6945 0.3399,0 0.61802,0.31252 0.61802,0.6945 z m -2.47214,0 c 0,0.38198 -0.27812,0.6945 -0.61804,0.6945 -0.33991,0 -0.61803,-0.31252 -0.61803,-0.6945 0,-0.38198 0.27812,-0.6945 0.61803,-0.6945 0.33992,0 0.61804,0.31252 0.61804,0.6945 z m -2.19655,61.21434 c 0,0.38198 -0.27812,0.6945 -0.61804,0.6945 -0.33992,0 -0.61803,-0.31252 -0.61803,-0.6945 0,-0.38198 0.27811,-0.6945 0.61803,-0.6945 0.33992,0 0.61804,0.31252 0.61804,0.6945 z m -2.54379,-119.9482 c 0,0.83416 -2.33646,5.33477 -2.76952,5.33477 -0.55128,0 -0.38694,-0.61939 1.1363,-4.28276 0.43841,-1.05439 1.63322,-1.82401 1.63322,-1.05201 z m 0.82105,111.98082 c 0,1.14594 -0.1854,2.08352 -0.41203,2.08352 -0.22661,0 -0.41202,0.31252 -0.41202,0.69451 0,0.38582 -0.36624,0.69449 -0.82405,0.69449 -0.4578,0 -0.82403,-0.30867 -0.82403,-0.69449 0,-0.38199 -0.27812,-0.69451 -0.61805,-0.69451 -0.45781,0 -0.61803,-0.54018 -0.61803,-2.08352 0,-1.54332 0.16022,-2.08349 0.61803,-2.08349 0.4578,0 0.61805,0.54017 0.61805,2.08349 0,1.54334 0.16021,2.08352 0.61804,2.08352 0.45779,0 0.61803,-0.54018 0.61803,-2.08352 0,-1.54332 0.16023,-2.08349 0.61803,-2.08349 0.4578,0 0.61803,0.54017 0.61803,2.08349 z m -3.38736,-82.73837 c 0,0.53316 -0.52648,0.6945 -2.26613,0.6945 -1.73967,0 -2.26614,-0.16134 -2.26614,-0.6945 0,-0.53316 0.52647,-0.6945 2.26614,-0.6945 1.73965,0 2.26613,0.16134 2.26613,0.6945 z m 3.6967,55.28415 c 0,0.38584 -0.36626,0.69452 -0.82405,0.69452 -0.45781,0 -0.82405,-0.30868 -0.82405,-0.69452 0,-0.38581 0.36624,-0.69449 0.82405,-0.69449 0.45779,0 0.82405,0.30868 0.82405,0.69449 z m -2.47215,0 c 0,0.38584 -0.36625,0.69452 -0.82405,0.69452 -0.45781,0 -0.82405,-0.30868 -0.82405,-0.69452 0,-0.38581 0.36624,-0.69449 0.82405,-0.69449 0.4578,0 0.82405,0.30868 0.82405,0.69449 z m 3.88555,37.70865 c 0,0.96629 0.21873,1.15032 1.51324,1.27325 2.56399,0.24348 2.19913,1.3012 -0.44884,1.3012 l -2.30047,0 0,-1.852 c 0,-1.33756 0.17167,-1.852 0.61803,-1.852 0.38048,0 0.61804,0.43417 0.61804,1.12955 z m -5.52213,-90.67778 c 0,0.38582 -0.36623,0.69449 -0.82405,0.69449 -0.4578,0 -0.82405,-0.30867 -0.82405,-0.69449 0,-0.38584 0.36625,-0.69451 0.82405,-0.69451 0.45782,0 0.82405,0.30867 0.82405,0.69451 z m -2.47215,0 c 0,0.38196 -0.27811,0.69449 -0.61802,0.69449 -0.33993,0 -0.61804,-0.31253 -0.61804,-0.69449 0,-0.38198 0.27811,-0.69451 0.61804,-0.69451 0.33991,0 0.61802,0.31253 0.61802,0.69451 z m 5.3448,55.28415 c 0,0.38583 -0.36625,0.6945 -0.82405,0.6945 -0.4578,0 -0.82405,-0.30867 -0.82405,-0.6945 0,-0.38584 0.36625,-0.6945 0.82405,-0.6945 0.4578,0 0.82405,0.30866 0.82405,0.6945 z m 7.11216,-24.17225 c 0.30045,0.54629 -0.0893,1.38901 -0.64235,1.38901 -0.21324,0 -0.38771,-0.4167 -0.38771,-0.92601 0,-0.97651 0.59945,-1.24594 1.03006,-0.463 z m -2.54462,0.18624 c -0.71893,0 -0.0885,1.2887 -0.60303,0.93135 -0.46802,-0.32505 -0.45739,-1.58059 0.0134,-1.58059 0.20237,0 0.46771,0.29215 0.58965,0.64924 z m -3.22577,-58.21533 c 0,0.38196 -0.27812,0.69449 -0.61804,0.69449 -0.33992,0 -0.61804,-0.31253 -0.61804,-0.69449 0,-0.38197 0.27812,-0.69451 0.61804,-0.69451 0.33992,0 0.61804,0.31254 0.61804,0.69451 z m 0.69669,67.45021 c 0.34285,2.56919 0.141,3.75837 -0.63795,3.75837 -0.43828,0 -0.64811,-0.62533 -0.73799,-2.19925 -0.12395,-2.1708 -0.14395,-2.19926 -1.54509,-2.19926 -0.9871,0 -1.4195,-0.21156 -1.4195,-0.69451 0,-0.52358 0.50077,-0.69449 2.03487,-0.69449 l 2.03488,0 z m 2.66002,-29.75101 c 0,0.92601 0.20602,1.15751 1.03007,1.15751 0.64092,0 1.03005,0.26236 1.03005,0.6945 0,0.66984 -0.46081,0.88729 -1.54509,0.72906 -0.29457,-0.043 -0.51503,0.42899 -0.51503,1.10265 0,0.73826 -0.23063,1.1778 -0.61803,1.1778 -0.48598,0 -0.61804,-0.64306 -0.61804,-3.00951 0,-2.36645 0.13206,-3.00952 0.61804,-3.00952 0.38455,0 0.61803,0.43729 0.61803,1.15751 z m 0.10546,-23.7073 c 0,0.51445 0.27468,0.92601 0.61803,0.92601 0.33992,0 0.61803,0.28993 0.61803,0.64431 0,0.72442 -1.4303,1.25286 -2.67815,0.98947 -0.45323,-0.0957 -1.05581,-0.18988 -1.33908,-0.20936 -0.86876,-0.0598 -0.57271,-1.42442 0.30902,-1.42442 0.54937,0 0.82405,-0.30867 0.82405,-0.92601 0,-0.61733 0.27469,-0.926 0.82405,-0.926 0.54936,0 0.82405,0.30867 0.82405,0.926 z m -6.4167,27.30999 c 0,0.38583 -0.36624,0.6945 -0.82404,0.6945 -0.45781,0 -0.82405,-0.30867 -0.82405,-0.6945 0,-0.38583 0.36624,-0.6945 0.82405,-0.6945 0.4578,0 0.82404,0.30867 0.82404,0.6945 z m -1.97176,-31.82073 c 0,0.72023 0.23347,1.15751 0.61804,1.15751 0.3399,0 0.61803,0.31253 0.61803,0.6945 0,0.38198 -0.26523,0.6945 -0.58937,0.6945 -0.32417,0 -0.64864,0.46666 -0.72104,1.03703 -0.0724,0.57036 -0.45615,1.10651 -0.85272,1.19145 -0.62753,0.1344 -0.72104,-0.24033 -0.72104,-2.88903 0,-2.73479 0.0836,-3.04346 0.82405,-3.04346 0.6043,0 0.82405,0.30867 0.82405,1.1575 z m 7.19778,82.34562 c 0,0.50158 -0.46387,0.6945 -1.6481,0.6945 l -1.64808,0 0,2.31501 c 0,1.74911 -0.15109,2.315 -0.61805,2.315 -0.48597,0 -0.61804,-0.64305 -0.61804,-3.0095 l 0,-3.00952 2.26614,0 c 1.73965,0 2.26613,0.16136 2.26613,0.69451 z m -3.58478,39.00892 c 0,0.69276 -0.32812,0.78726 -2.26613,0.65165 -1.60706,-0.11244 -2.26668,-0.34824 -2.26668,-0.81025 0,-0.80667 1.09096,-0.86451 1.37521,-0.0729 0.16626,0.46299 0.21432,0.46299 0.24035,0 0.0179,-0.31832 0.2952,-0.57876 0.61622,-0.57876 0.32103,0 0.67722,0.26044 0.79152,0.57876 0.16626,0.46299 0.21433,0.46299 0.24034,0 0.0507,-0.90202 1.26854,-0.67988 1.26917,0.23149 z m -1.64124,-87.4503 c 0,0.61734 -0.27468,0.926 -0.82404,0.926 -0.54937,0 -0.82405,-0.30866 -0.82405,-0.926 0,-0.61734 0.27468,-0.926 0.82405,-0.926 0.54936,0 0.82404,0.30866 0.82404,0.926 z m -4.03188,-32.05223 c 0,0.38198 -0.18542,0.6945 -0.41203,0.6945 -0.22661,0 -0.41202,-0.31252 -0.41202,-0.6945 0,-0.38197 0.18541,-0.6945 0.41202,-0.6945 0.22661,0 0.41203,0.31253 0.41203,0.6945 z m 9.2579,84.42912 c 0,0.51445 -0.27468,0.92601 -0.61803,0.92601 -0.34335,0 -0.61803,-0.41156 -0.61803,-0.92601 0,-0.51445 0.27468,-0.926 0.61803,-0.926 0.34335,0 0.61803,0.41155 0.61803,0.926 z m -4.88528,-25.71122 c 0.30045,0.54629 -0.0893,1.38901 -0.64235,1.38901 -0.21323,0 -0.3877,-0.4167 -0.3877,-0.926 0,-0.97651 0.59943,-1.24595 1.03005,-0.46301 z m 1.29995,63.28945 c 0,0.72399 -0.34036,0.85194 -2.26614,0.85194 -1.89479,0 -2.26612,-0.13453 -2.26612,-0.82095 0,-0.68267 0.3817,-0.82617 2.26612,-0.85194 1.93577,-0.0265 2.26614,0.0932 2.26614,0.82095 z m 6.01207,-115.14481 c 0,0.87218 -0.20311,0.94826 -2.15781,0.80828 -1.65802,-0.11872 -2.18991,-0.34174 -2.29635,-0.9628 -0.11841,-0.69097 0.19474,-0.80827 2.15782,-0.80827 2.05092,0 2.29634,0.10289 2.29634,0.96279 z m -7.75557,27.62044 c -0.25958,0.87609 -1.54528,1.00065 -1.54528,0.14971 0,-0.4295 0.35228,-0.72846 0.85839,-0.72846 0.50348,0 0.78748,0.23929 0.68689,0.57875 z"
       style="fill:#84bfd9;fill-opacity:1" />
    <path
       sodipodi:nodetypes="sssssssssssssssssssssssssssssssssssssssssssssssssscssssssssssssssssssssssssscssssssssssscssssssssssssssssssssssssscssssssscsscssscssssssssssssssssssssssssssssss"
       inkscape:connector-curvature="0"
       id="path4551-2"
       d="m 377.84447,449.38796 c 0,-0.38198 0.27811,-0.6945 0.61802,-0.6945 0.33993,0 0.61804,0.31252 0.61804,0.6945 0,0.38198 -0.27811,0.6945 -0.61804,0.6945 -0.33991,0 -0.61802,-0.31252 -0.61802,-0.6945 z m 2.47213,0 c 0,-0.38198 0.27812,-0.6945 0.61805,-0.6945 0.3399,0 0.61803,0.31252 0.61803,0.6945 0,0.38198 -0.27813,0.6945 -0.61803,0.6945 -0.33993,0 -0.61805,-0.31252 -0.61805,-0.6945 z m 2.19655,-57.21433 c 0,-0.38198 0.27813,-0.6945 0.61804,-0.6945 0.33992,0 0.61804,0.31252 0.61804,0.6945 0,0.38198 -0.27812,0.6945 -0.61804,0.6945 -0.33991,0 -0.61804,-0.31252 -0.61804,-0.6945 z m 2.5438,115.94819 c 0,-0.83416 2.33646,-5.33477 2.76951,-5.33477 0.55128,0 0.38695,0.61939 -1.13629,4.28276 -0.43842,1.05439 -1.63322,1.82401 -1.63322,1.05201 z M 384.23589,396.141 c 0,-1.14594 0.1854,-2.08352 0.41203,-2.08352 0.22662,0 0.41202,-0.31252 0.41202,-0.6945 0,-0.38583 0.36625,-0.69449 0.82405,-0.69449 0.4578,0 0.82404,0.30866 0.82404,0.69449 0,0.38198 0.27812,0.6945 0.61805,0.6945 0.4578,0 0.61803,0.54018 0.61803,2.08352 0,1.54333 -0.16023,2.08349 -0.61803,2.08349 -0.45781,0 -0.61805,-0.54016 -0.61805,-2.08349 0,-1.54334 -0.16022,-2.08352 -0.61804,-2.08352 -0.4578,0 -0.61803,0.54018 -0.61803,2.08352 0,1.54333 -0.16024,2.08349 -0.61804,2.08349 -0.4578,0 -0.61803,-0.54016 -0.61803,-2.08349 z m 3.38737,82.73837 c 0,-0.53316 0.52648,-0.6945 2.26613,-0.6945 1.73966,0 2.26613,0.16134 2.26613,0.6945 0,0.53316 -0.52647,0.6945 -2.26613,0.6945 -1.73965,0 -2.26613,-0.16134 -2.26613,-0.6945 z m -3.6967,-55.28415 c 0,-0.38584 0.36625,-0.69452 0.82405,-0.69452 0.4578,0 0.82405,0.30868 0.82405,0.69452 0,0.38581 -0.36625,0.69449 -0.82405,0.69449 -0.4578,0 -0.82405,-0.30868 -0.82405,-0.69449 z m 2.47215,0 c 0,-0.38584 0.36625,-0.69452 0.82404,-0.69452 0.45781,0 0.82405,0.30868 0.82405,0.69452 0,0.38581 -0.36624,0.69449 -0.82405,0.69449 -0.45779,0 -0.82404,-0.30868 -0.82404,-0.69449 z m -3.88556,-33.70865 c 0,-0.96628 -0.21872,-1.15031 -1.51324,-1.27324 -2.56398,-0.24349 -1.5495,0.43613 0.44885,-1.30121 l 2.30047,0 0,1.852 c 0,1.33756 -0.17168,1.85201 -0.61804,1.85201 -0.38048,0 -0.61804,-0.43418 -0.61804,-1.12956 z m 5.52213,86.67778 c 0,-0.38582 0.36624,-0.69449 0.82405,-0.69449 0.4578,0 0.82405,0.30867 0.82405,0.69449 0,0.38584 -0.36625,0.69451 -0.82405,0.69451 -0.45781,0 -0.82405,-0.30867 -0.82405,-0.69451 z m 2.47215,0 c 0,-0.38196 0.27812,-0.69449 0.61803,-0.69449 0.33992,0 0.61804,0.31253 0.61804,0.69449 0,0.38198 -0.27812,0.69451 -0.61804,0.69451 -0.33991,0 -0.61803,-0.31253 -0.61803,-0.69451 z m -5.34479,-55.28414 c 0,-0.38583 0.36624,-0.6945 0.82405,-0.6945 0.4578,0 0.82405,0.30867 0.82405,0.6945 0,0.38583 -0.36625,0.6945 -0.82405,0.6945 -0.45781,0 -0.82405,-0.30867 -0.82405,-0.6945 z m -7.11217,24.17224 c -0.30045,-0.54629 0.0893,-1.38901 0.64235,-1.38901 0.21325,0 0.38771,0.4167 0.38771,0.92601 0,0.97651 -0.59944,1.24595 -1.03006,0.463 z m 2.54462,-0.18623 c 0.71893,0 0.0885,-1.28871 0.60303,-0.93136 0.46803,0.32505 0.4574,1.58059 -0.0134,1.58059 -0.20237,0 -0.46771,-0.29215 -0.58964,-0.64923 z m 3.22578,58.21532 c 0,-0.38196 0.27812,-0.69449 0.61804,-0.69449 0.33992,0 0.61804,0.31253 0.61804,0.69449 0,0.38198 -0.27812,0.69451 -0.61804,0.69451 -0.33992,0 -0.61804,-0.31253 -0.61804,-0.69451 z m -0.69669,-67.45021 c -0.34285,-2.56919 -0.14101,-3.75837 0.63795,-3.75837 0.43827,0 0.6481,0.62533 0.73798,2.19925 0.12395,2.1708 0.14396,2.19926 1.54509,2.19926 0.98711,0 1.41951,0.21156 1.41951,0.69451 0,0.52358 -0.50077,0.6945 -2.03487,0.6945 l -2.03488,0 z m -2.66003,29.75102 c 0,-0.92602 -0.20601,-1.15751 -1.03006,-1.15751 -0.64093,0 -1.03006,-0.26237 -1.03006,-0.6945 0,-0.66985 0.46082,-0.88729 1.54509,-0.72907 0.29458,0.043 0.51503,-0.42899 0.51503,-1.10265 0,-0.73826 0.23064,-1.1778 0.61804,-1.1778 0.48597,0 0.61804,0.64306 0.61804,3.00952 0,2.36644 -0.13207,3.00951 -0.61804,3.00951 -0.38456,0 -0.61804,-0.43729 -0.61804,-1.1575 z m -0.10545,23.70729 c 0,-0.51445 -0.27469,-0.92601 -0.61803,-0.92601 -0.33992,0 -0.61804,-0.28993 -0.61804,-0.64431 0,-0.72442 1.43031,-1.25286 2.67816,-0.98947 0.45323,0.0957 1.05581,0.18988 1.33907,0.20936 0.86877,0.0598 0.57272,1.42442 -0.30901,1.42442 -0.54937,0 -0.82405,0.30867 -0.82405,0.92601 0,0.61733 -0.27469,0.926 -0.82405,0.926 -0.54936,0 -0.82405,-0.30867 -0.82405,-0.926 z m 6.41669,-27.30999 c 0,-0.38583 0.36625,-0.6945 0.82404,-0.6945 0.45782,0 0.82405,0.30867 0.82405,0.6945 0,0.38583 -0.36623,0.69451 -0.82405,0.69451 -0.45779,0 -0.82404,-0.30868 -0.82404,-0.69451 z m 1.97177,31.82073 c 0,-0.72023 -0.23347,-1.15751 -0.61804,-1.15751 -0.33991,0 -0.61803,-0.31253 -0.61803,-0.6945 0,-0.38198 0.26522,-0.6945 0.58936,-0.6945 0.32417,0 0.64865,-0.46666 0.72105,-1.03703 0.0724,-0.57036 0.45615,-1.10651 0.85272,-1.19145 0.62752,-0.1344 0.72104,0.24033 0.72104,2.88903 0,2.73479 -0.0836,3.04346 -0.82405,3.04346 -0.6043,0 -0.82405,-0.30867 -0.82405,-1.1575 z m -7.19779,-82.34561 c 0,-0.50158 0.46388,-0.6945 1.6481,-0.6945 l 1.64809,0 0,-2.31502 c 0,-1.74911 0.15109,-2.315 0.61805,-2.315 0.48596,0 0.61804,0.64305 0.61804,3.0095 l 0,3.00952 -2.26614,0 c -1.73966,0 -2.26614,-0.16135 -2.26614,-0.6945 z m 5.22602,48.44137 c 0,-0.61733 0.27468,-0.92599 0.82404,-0.92599 0.54937,0 0.82405,0.30866 0.82405,0.92599 0,0.61734 -0.27468,0.92601 -0.82405,0.92601 -0.54936,0 -0.82404,-0.30867 -0.82404,-0.92601 z m 4.03188,32.05223 c 0,-0.38198 0.18542,-0.6945 0.41204,-0.6945 0.22661,0 0.41201,0.31252 0.41201,0.6945 0,0.38197 -0.1854,0.6945 -0.41201,0.6945 -0.22662,0 -0.41204,-0.31253 -0.41204,-0.6945 z m -9.2579,-84.42911 c 0,-0.51445 0.27468,-0.92602 0.61804,-0.92602 0.34335,0 0.61803,0.41157 0.61803,0.92602 0,0.51444 -0.27468,0.92599 -0.61803,0.92599 -0.34336,0 -0.61804,-0.41155 -0.61804,-0.92599 z m 4.88528,25.71121 c -0.30045,-0.54629 0.0893,-1.38901 0.64236,-1.38901 0.21322,0 0.3877,0.4167 0.3877,0.926 0,0.97651 -0.59944,1.24595 -1.03006,0.46301 z m -7.31202,51.85536 c 0,-0.87218 0.20311,-0.94826 2.15781,-0.80828 1.65802,0.11872 2.18992,0.34174 2.29636,0.9628 0.11841,0.69097 -0.19475,0.80827 -2.15782,0.80827 -2.05093,0 -2.29635,-0.10289 -2.29635,-0.96279 z m 7.75557,-27.62044 c 0.25959,-0.87609 1.54528,-1.00064 1.54528,-0.14971 0,0.4295 -0.35228,0.72846 -0.85838,0.72846 -0.50348,0 -0.78748,-0.23929 -0.6869,-0.57875 z"
       style="fill:#84bfd9;fill-opacity:1" />
    <path
       sodipodi:nodetypes="sssssssssssssssssssssssssssssssssssssssssssssssssscssssssssssssssssssssssssscssssssssssscssssssssssssssssssssssssscssssssscsscssscsscssssscccsssssssssssssssssssssssssssssssss"
       inkscape:connector-curvature="0"
       id="path4551-74"
       d="m 302.34447,456.36782 c 0,0.40806 0.27811,0.74192 0.61802,0.74192 0.33993,0 0.61805,-0.33386 0.61805,-0.74192 0,-0.40805 -0.27812,-0.74191 -0.61805,-0.74191 -0.33991,0 -0.61802,0.33386 -0.61802,0.74191 z m 2.47213,0 c 0,0.40806 0.27813,0.74192 0.61805,0.74192 0.3399,0 0.61803,-0.33386 0.61803,-0.74192 0,-0.40805 -0.27813,-0.74191 -0.61803,-0.74191 -0.33992,0 -0.61805,0.33386 -0.61805,0.74191 z m 2.19656,65.39365 c 0,0.40807 0.27812,0.74192 0.61803,0.74192 0.33993,0 0.61804,-0.33385 0.61804,-0.74192 0,-0.40806 -0.27811,-0.74191 -0.61804,-0.74191 -0.33991,0 -0.61803,0.33385 -0.61803,0.74191 z M 309.55695,393.624 c 0,0.89111 2.33646,5.69899 2.76952,5.69899 0.55128,0 0.38694,-0.66167 -1.1363,-4.57516 -0.43841,-1.12637 -1.63322,-1.94854 -1.63322,-1.12383 z m -0.82106,119.62614 c 0,1.22418 0.18541,2.22577 0.41204,2.22577 0.22661,0 0.41201,0.33386 0.41201,0.74192 0,0.41216 0.36625,0.74191 0.82405,0.74191 0.45781,0 0.82404,-0.32975 0.82404,-0.74191 0,-0.40806 0.27812,-0.74192 0.61805,-0.74192 0.4578,0 0.61803,-0.57706 0.61803,-2.22577 0,-1.64869 -0.16023,-2.22574 -0.61803,-2.22574 -0.4578,0 -0.61805,0.57705 -0.61805,2.22574 0,1.64871 -0.16021,2.22577 -0.61804,2.22577 -0.4578,0 -0.61803,-0.57706 -0.61803,-2.22577 0,-1.64869 -0.16023,-2.22574 -0.61804,-2.22574 -0.45779,0 -0.61803,0.57705 -0.61803,2.22574 z m 3.38737,-88.38721 c 0,0.56957 0.52648,0.74192 2.26613,0.74192 1.73966,0 2.26613,-0.17235 2.26613,-0.74192 0,-0.56956 -0.52647,-0.74191 -2.26613,-0.74191 -1.73965,0 -2.26613,0.17235 -2.26613,0.74191 z m -3.6967,59.0586 c 0,0.41218 0.36626,0.74193 0.82405,0.74193 0.45781,0 0.82405,-0.32975 0.82405,-0.74193 0,-0.41216 -0.36624,-0.74191 -0.82405,-0.74191 -0.45779,0 -0.82405,0.32975 -0.82405,0.74191 z m 2.47215,0 c 0,0.41218 0.36625,0.74193 0.82404,0.74193 0.45782,0 0.82405,-0.32975 0.82405,-0.74193 0,-0.41216 -0.36623,-0.74191 -0.82405,-0.74191 -0.45779,0 -0.82404,0.32975 -0.82404,0.74191 z m -3.88555,40.28315 c 0,1.03225 -0.21873,1.22885 -1.51325,1.36017 -2.56398,0.26011 -2.19912,1.39004 0.44885,1.39004 l 2.30047,0 0,-1.97844 c 0,-1.42888 -0.17168,-1.97845 -0.61804,-1.97845 -0.38048,0 -0.61803,0.46382 -0.61803,1.20668 z m 5.52212,-96.86867 c 0,0.41216 0.36624,0.7419 0.82405,0.7419 0.45781,0 0.82405,-0.32974 0.82405,-0.7419 0,-0.41218 -0.36624,-0.74193 -0.82405,-0.74193 -0.45781,0 -0.82405,0.32975 -0.82405,0.74193 z m 2.47215,0 c 0,0.40803 0.27812,0.7419 0.61803,0.7419 0.33992,0 0.61804,-0.33387 0.61804,-0.7419 0,-0.40806 -0.27812,-0.74193 -0.61804,-0.74193 -0.33991,0 -0.61803,0.33387 -0.61803,0.74193 z m -5.34479,59.05858 c 0,0.41217 0.36624,0.74192 0.82405,0.74192 0.4578,0 0.82405,-0.32975 0.82405,-0.74192 0,-0.41217 -0.36625,-0.74191 -0.82405,-0.74191 -0.45781,0 -0.82405,0.32974 -0.82405,0.74191 z m -7.11217,-25.82257 c -0.30045,0.58359 0.0893,1.48385 0.64236,1.48385 0.21324,0 0.38771,-0.44515 0.38771,-0.98923 0,-1.04319 -0.59945,-1.33101 -1.03007,-0.49462 z m 2.54463,0.19895 c 0.71893,0 0.0885,1.37669 0.60302,0.99495 0.46803,-0.34724 0.4574,-1.68851 -0.0134,-1.68851 -0.20237,0 -0.46771,0.31211 -0.58964,0.69356 z m 3.22577,-62.18989 c 0,0.40804 0.27812,0.74191 0.61804,0.74191 0.33992,0 0.61804,-0.33387 0.61804,-0.74191 0,-0.40805 -0.27812,-0.74192 -0.61804,-0.74192 -0.33992,0 -0.61804,0.33387 -0.61804,0.74192 z m -0.69669,72.05528 c -0.34285,2.7446 -0.14101,4.01497 0.63795,4.01497 0.43827,0 0.64811,-0.66803 0.73798,-2.34941 0.12396,-2.319 0.14396,-2.3494 1.54509,-2.3494 0.98711,0 1.41951,-0.22601 1.41951,-0.74193 0,-0.55933 -0.50077,-0.74192 -2.03487,-0.74192 l -2.03488,0 z m -2.66003,-31.78222 c 0,0.98923 -0.20601,1.23653 -1.03006,1.23653 -0.64093,0 -1.03005,0.28028 -1.03005,0.74192 0,0.71558 0.46081,0.94787 1.54509,0.77884 0.29457,-0.0459 0.51502,0.45829 0.51502,1.17793 0,0.78867 0.23064,1.25821 0.61804,1.25821 0.48598,0 0.61804,-0.68696 0.61804,-3.21498 0,-2.52801 -0.13206,-3.21498 -0.61804,-3.21498 -0.38455,0 -0.61804,0.46714 -0.61804,1.23653 z m -0.10545,-25.32588 c 0,0.54958 -0.27469,0.98923 -0.61803,0.98923 -0.33992,0 -0.61804,0.30973 -0.61804,0.68831 0,0.77387 1.43031,1.33839 2.67816,1.05702 0.45323,-0.10223 1.05581,-0.20284 1.33908,-0.22366 0.86876,-0.0639 0.57271,-1.52167 -0.30902,-1.52167 -0.54937,0 -0.82405,-0.32974 -0.82405,-0.98923 0,-0.65947 -0.27469,-0.98922 -0.82405,-0.98922 -0.54936,0 -0.82405,0.32975 -0.82405,0.98922 z m 6.41669,29.17454 c 0,0.41217 0.36625,0.74192 0.82405,0.74192 0.45781,0 0.82405,-0.32975 0.82405,-0.74192 0,-0.41217 -0.36624,-0.74193 -0.82405,-0.74193 -0.4578,0 -0.82405,0.32976 -0.82405,0.74193 z m 1.97177,-33.99324 c 0,0.7694 -0.23347,1.23654 -0.61804,1.23654 -0.33991,0 -0.61803,0.33386 -0.61803,0.74191 0,0.40806 0.26522,0.74192 0.58936,0.74192 0.32418,0 0.64865,0.49852 0.72105,1.10784 0.0724,0.60929 0.45615,1.18205 0.85272,1.27278 0.62752,0.14358 0.72104,-0.25673 0.72104,-3.08627 0,-2.92151 -0.0836,-3.25125 -0.82405,-3.25125 -0.6043,0 -0.82405,0.32974 -0.82405,1.23653 z m -7.19779,87.96763 c 0,0.53583 0.46388,0.74192 1.6481,0.74192 l 1.64809,0 0,2.47307 c 0,1.86853 0.15109,2.47306 0.61805,2.47306 0.48596,0 0.61804,-0.68696 0.61804,-3.21498 l 0,-3.21498 -2.26614,0 c -1.73966,0 -2.26614,0.17237 -2.26614,0.74191 z m 3.58479,41.6722 c 0,0.74006 0.32812,0.84101 2.26613,0.69614 1.60706,-0.12011 2.26668,-0.37201 2.26668,-0.86557 0,-0.86174 -1.09096,-0.92353 -1.37521,-0.0779 -0.16626,0.49461 -0.21433,0.49461 -0.24035,0 -0.0179,-0.34005 -0.2952,-0.61826 -0.61623,-0.61826 -0.32103,0 -0.67721,0.27821 -0.79152,0.61826 -0.16625,0.49461 -0.21432,0.49461 -0.24033,0 -0.0507,-0.96359 -1.26854,-0.72629 -1.26917,0.24731 z m 1.64123,-93.42083 c 0,0.65948 0.27468,0.98922 0.82405,0.98922 0.54937,0 0.82405,-0.32974 0.82405,-0.98922 0,-0.65949 -0.27468,-0.98923 -0.82405,-0.98923 -0.54937,0 -0.82405,0.32974 -0.82405,0.98923 z m 4.03188,-34.24055 c 0,0.40806 0.18542,0.74192 0.41204,0.74192 0.22661,0 0.41201,-0.33386 0.41201,-0.74192 0,-0.40805 -0.1854,-0.74191 -0.41201,-0.74191 -0.22662,0 -0.41204,0.33386 -0.41204,0.74191 z m -9.2579,90.19338 c 0,0.54958 0.27469,0.98924 0.61804,0.98924 0.34335,0 0.61803,-0.43966 0.61803,-0.98924 0,-0.54956 -0.27468,-0.98921 -0.61803,-0.98921 -0.34335,0 -0.61804,0.43965 -0.61804,0.98921 z m 4.88529,-27.4666 c -0.30045,0.58359 0.0893,1.48384 0.64235,1.48384 0.21323,0 0.3877,-0.44515 0.3877,-0.98922 0,-1.04318 -0.59944,-1.33102 -1.03005,-0.49462 z m -1.29995,67.61044 c 0,0.77342 0.34036,0.9101 2.26614,0.9101 1.89478,0 2.26612,-0.14371 2.26612,-0.87699 0,-0.72928 -0.3817,-0.88258 -2.26612,-0.91012 -1.93578,-0.0283 -2.26614,0.0996 -2.26614,0.87701 z m -6.01208,-123.00615 c 0,0.93173 0.20311,1.013 2.15782,0.86347 1.65802,-0.12683 2.18991,-0.36507 2.29635,-1.02854 0.11841,-0.73814 -0.19475,-0.86345 -2.15782,-0.86345 -2.05092,0 -2.29635,0.10992 -2.29635,1.02852 z m 7.75557,29.50619 c 0.25959,0.9359 1.54529,1.06895 1.54529,0.15992 0,-0.45882 -0.35229,-0.77819 -0.85839,-0.77819 -0.50348,0 -0.78748,0.25563 -0.6869,0.61827 z"
       style="fill:#84bfd9;fill-opacity:1" />
    <path
       sodipodi:nodetypes="sssssssssssssssssssssssssssssssssssssssssssssssssscssssssssssssssssssssssssscssssssssssscssssssssssssssssssssssssscssssssscsscssscsscssssscccsssssssssssssssssssssssssssssssss"
       inkscape:connector-curvature="0"
       id="path4551-53"
       d="m 318.65553,326.50065 c 0,0.32159 -0.27812,0.5847 -0.61802,0.5847 -0.33993,0 -0.61805,-0.26311 -0.61805,-0.5847 0,-0.32158 0.27812,-0.58469 0.61805,-0.58469 0.3399,0 0.61802,0.26311 0.61802,0.58469 z m -2.47213,0 c 0,0.32159 -0.27813,0.5847 -0.61805,0.5847 -0.33991,0 -0.61803,-0.26311 -0.61803,-0.5847 0,-0.32158 0.27812,-0.58469 0.61803,-0.58469 0.33992,0 0.61805,0.26311 0.61805,0.58469 z m -2.19656,51.53593 c 0,0.32158 -0.27812,0.58469 -0.61803,0.58469 -0.33993,0 -0.61804,-0.26311 -0.61804,-0.58469 0,-0.32159 0.27811,-0.5847 0.61804,-0.5847 0.33991,0 0.61803,0.26311 0.61803,0.5847 z m -2.54379,-100.98355 c 0,0.70228 -2.33646,4.4913 -2.76952,4.4913 -0.55128,0 -0.38694,-0.52145 1.1363,-3.60562 0.43841,-0.88768 1.63322,-1.53563 1.63322,-0.88568 z m 0.82106,94.27586 c 0,0.96477 -0.18541,1.75411 -0.41204,1.75411 -0.22661,0 -0.41201,0.26311 -0.41201,0.58469 0,0.32482 -0.36625,0.58469 -0.82405,0.58469 -0.45781,0 -0.82404,-0.25987 -0.82404,-0.58469 0,-0.32158 -0.27812,-0.58469 -0.61805,-0.58469 -0.45781,0 -0.61803,-0.45478 -0.61803,-1.75411 0,-1.29931 0.16022,-1.75407 0.61803,-1.75407 0.4578,0 0.61805,0.45476 0.61805,1.75407 0,1.29933 0.16021,1.75411 0.61804,1.75411 0.4578,0 0.61803,-0.45478 0.61803,-1.75411 0,-1.29931 0.16023,-1.75407 0.61804,-1.75407 0.45779,0 0.61803,0.45476 0.61803,1.75407 z m -3.38737,-69.65684 c 0,0.44885 -0.52648,0.58469 -2.26613,0.58469 -1.73966,0 -2.26614,-0.13584 -2.26614,-0.58469 0,-0.44887 0.52648,-0.58471 2.26614,-0.58471 1.73965,0 2.26613,0.13584 2.26613,0.58471 z m 3.6967,46.54333 c 0,0.32484 -0.36626,0.58471 -0.82405,0.58471 -0.45781,0 -0.82405,-0.25987 -0.82405,-0.58471 0,-0.32482 0.36624,-0.58469 0.82405,-0.58469 0.45779,0 0.82405,0.25987 0.82405,0.58469 z m -2.47215,0 c 0,0.32484 -0.36625,0.58471 -0.82405,0.58471 -0.45781,0 -0.82405,-0.25987 -0.82405,-0.58471 0,-0.32482 0.36624,-0.58469 0.82405,-0.58469 0.4578,0 0.82405,0.25987 0.82405,0.58469 z m 3.88555,31.74665 c 0,0.81351 0.21873,0.96844 1.51325,1.07194 2.56398,0.20499 2.19912,1.09547 -0.44885,1.09547 l -2.30047,0 0,-1.55918 c 0,-1.12608 0.17168,-1.5592 0.61804,-1.5592 0.38047,0 0.61803,0.36553 0.61803,0.95097 z m -5.52212,-76.34099 c 0,0.32482 -0.36624,0.58469 -0.82405,0.58469 -0.45781,0 -0.82405,-0.25987 -0.82405,-0.58469 0,-0.32483 0.36624,-0.5847 0.82405,-0.5847 0.45781,0 0.82405,0.25987 0.82405,0.5847 z m -2.47215,0 c 0,0.32157 -0.27812,0.58469 -0.61803,0.58469 -0.33992,0 -0.61804,-0.26312 -0.61804,-0.58469 0,-0.32159 0.27812,-0.5847 0.61804,-0.5847 0.33991,0 0.61803,0.26311 0.61803,0.5847 z m 5.34479,46.54333 c 0,0.32483 -0.36624,0.58471 -0.82405,0.58471 -0.4578,0 -0.82405,-0.25988 -0.82405,-0.58471 0,-0.32482 0.36625,-0.58469 0.82405,-0.58469 0.45781,0 0.82405,0.25987 0.82405,0.58469 z m 7.11217,-20.35044 c 0.30045,0.45991 -0.0893,1.16939 -0.64236,1.16939 -0.21324,0 -0.38771,-0.35081 -0.38771,-0.77959 0,-0.82212 0.59945,-1.04896 1.03007,-0.3898 z m -2.54463,0.1568 c -0.71893,0 -0.0885,1.08495 -0.60302,0.7841 -0.46803,-0.27367 -0.4574,-1.3307 0.0134,-1.3307 0.20237,0 0.4677,0.24596 0.58964,0.5466 z m -3.22577,-49.01109 c 0,0.32158 -0.27812,0.58469 -0.61804,0.58469 -0.33992,0 -0.61804,-0.26311 -0.61804,-0.58469 0,-0.32158 0.27812,-0.58469 0.61804,-0.58469 0.33992,0 0.61804,0.26311 0.61804,0.58469 z m 0.69669,56.78587 c 0.34285,2.16298 0.141,3.16414 -0.63795,3.16414 -0.43827,0 -0.64811,-0.52646 -0.73799,-1.85153 -0.12395,-1.82758 -0.14395,-1.85154 -1.54509,-1.85154 -0.9871,0 -1.4195,-0.17811 -1.4195,-0.5847 0,-0.4408 0.50077,-0.58469 2.03487,-0.58469 l 2.03488,0 z m 2.66003,-25.04718 c 0,0.77961 0.20601,0.97451 1.03006,0.97451 0.64093,0 1.03005,0.22088 1.03005,0.58469 0,0.56394 -0.46081,0.74701 -1.54509,0.61379 -0.29457,-0.0362 -0.51502,0.36117 -0.51502,0.92832 0,0.62154 -0.23064,0.99157 -0.61804,0.99157 -0.48598,0 -0.61804,-0.54137 -0.61804,-2.53368 0,-1.99229 0.13206,-2.53369 0.61804,-2.53369 0.38455,0 0.61804,0.36816 0.61804,0.97449 z m 0.10545,-19.959 c 0,0.43311 0.27469,0.7796 0.61803,0.7796 0.33992,0 0.61804,0.24409 0.61804,0.54245 0,0.60987 -1.43031,1.05477 -2.67816,0.83302 -0.45323,-0.0806 -1.05581,-0.15986 -1.33908,-0.17626 -0.86876,-0.0503 -0.57271,-1.19921 0.30902,-1.19921 0.54937,0 0.82405,-0.25987 0.82405,-0.7796 0,-0.51973 0.27469,-0.7796 0.82405,-0.7796 0.54936,0 0.82405,0.25987 0.82405,0.7796 z m -6.4167,22.99209 c 0,0.32483 -0.36624,0.5847 -0.82404,0.5847 -0.45781,0 -0.82405,-0.25987 -0.82405,-0.5847 0,-0.32483 0.36624,-0.5847 0.82405,-0.5847 0.4578,0 0.82404,0.25987 0.82404,0.5847 z m -1.97176,-26.78965 c 0,0.60636 0.23347,0.9745 0.61804,0.9745 0.33991,0 0.61803,0.26311 0.61803,0.58469 0,0.32159 -0.26522,0.5847 -0.58937,0.5847 -0.32417,0 -0.64864,0.39288 -0.72104,0.87307 -0.0724,0.48018 -0.45615,0.93157 -0.85272,1.00306 -0.62752,0.11316 -0.72104,-0.20232 -0.72104,-2.43224 0,-2.3024 0.0836,-2.56227 0.82405,-2.56227 0.6043,0 0.82405,0.25987 0.82405,0.97449 z m 7.19778,69.3262 c 0,0.42227 -0.46387,0.58469 -1.6481,0.58469 l -1.64808,0 0,1.949 c 0,1.47256 -0.15109,1.94897 -0.61805,1.94897 -0.48596,0 -0.61804,-0.54137 -0.61804,-2.53367 l 0,-2.5337 2.26614,0 c 1.73965,0 2.26613,0.13585 2.26613,0.58471 z m -3.58478,32.84134 c 0,0.58322 -0.32812,0.66278 -2.26613,0.54861 -1.60706,-0.0947 -2.26668,-0.29318 -2.26668,-0.68214 0,-0.67914 1.09096,-0.72783 1.37521,-0.0614 0.16626,0.3898 0.21433,0.3898 0.24035,0 0.0179,-0.26798 0.2952,-0.48725 0.61623,-0.48725 0.32103,0 0.67721,0.21927 0.79151,0.48725 0.16626,0.3898 0.21433,0.3898 0.24034,0 0.0507,-0.75939 1.26854,-0.57238 1.26917,0.1949 z m -1.64124,-73.6238 c 0,0.51973 -0.27468,0.77959 -0.82404,0.77959 -0.54937,0 -0.82405,-0.25986 -0.82405,-0.77959 0,-0.51973 0.27468,-0.77959 0.82405,-0.77959 0.54936,0 0.82404,0.25986 0.82404,0.77959 z m -4.03188,-26.98455 c 0,0.32159 -0.18541,0.5847 -0.41203,0.5847 -0.22661,0 -0.41202,-0.26311 -0.41202,-0.5847 0,-0.32158 0.18541,-0.58469 0.41202,-0.58469 0.22662,0 0.41203,0.26311 0.41203,0.58469 z m 9.2579,71.08028 c 0,0.43311 -0.27468,0.7796 -0.61803,0.7796 -0.34335,0 -0.61803,-0.34649 -0.61803,-0.7796 0,-0.4331 0.27468,-0.77958 0.61803,-0.77958 0.34335,0 0.61803,0.34648 0.61803,0.77958 z m -4.88528,-21.64608 c 0.30045,0.45991 -0.0893,1.16939 -0.64235,1.16939 -0.21323,0 -0.3877,-0.35082 -0.3877,-0.77959 0,-0.82211 0.59944,-1.04896 1.03005,-0.3898 z m 1.29995,53.28293 c 0,0.60953 -0.34036,0.71725 -2.26614,0.71725 -1.89478,0 -2.26612,-0.11326 -2.26612,-0.69115 0,-0.57473 0.3817,-0.69555 2.26612,-0.71725 1.93577,-0.0223 2.26614,0.0785 2.26614,0.69115 z m 6.01208,-96.9396 c 0,0.73428 -0.20311,0.79833 -2.15782,0.68049 -1.65802,-0.1 -2.18991,-0.28771 -2.29635,-0.81057 -0.11841,-0.58173 0.19475,-0.68049 2.15782,-0.68049 2.05092,0 2.29635,0.0866 2.29635,0.81057 z m -7.75557,23.25345 c -0.25959,0.73758 -1.54529,0.84244 -1.54529,0.12604 0,-0.36159 0.35229,-0.61328 0.85839,-0.61328 0.50348,0 0.78748,0.20145 0.6869,0.48724 z"
       style="fill:#84bfd9;fill-opacity:1" />
    <path
       sodipodi:nodetypes="sssssssssssssssssssssssssssssssssssssssssssssssssscssssssssssssssssssssssssscssssssssssscssssssssssssssssssssssssscssssssscsscssscsscssssscccsssssssssssssssssssssssssssssssss"
       inkscape:connector-curvature="0"
       id="path4551-03"
       d="m 325.34447,340.38796 c 0,-0.38198 0.27812,-0.6945 0.61802,-0.6945 0.33993,0 0.61805,0.31252 0.61805,0.6945 0,0.38198 -0.27812,0.6945 -0.61805,0.6945 -0.3399,0 -0.61802,-0.31252 -0.61802,-0.6945 z m 2.47213,0 c 0,-0.38198 0.27813,-0.6945 0.61805,-0.6945 0.33991,0 0.61803,0.31252 0.61803,0.6945 0,0.38198 -0.27812,0.6945 -0.61803,0.6945 -0.33992,0 -0.61805,-0.31252 -0.61805,-0.6945 z m 2.19656,-61.21433 c 0,-0.38198 0.27812,-0.6945 0.61803,-0.6945 0.33993,0 0.61804,0.31252 0.61804,0.6945 0,0.38198 -0.27811,0.6945 -0.61804,0.6945 -0.33991,0 -0.61803,-0.31252 -0.61803,-0.6945 z m 2.54379,119.94819 c 0,-0.83416 2.33646,-5.33476 2.76952,-5.33476 0.55128,0 0.38694,0.61938 -1.1363,4.28275 -0.43841,1.05439 -1.63322,1.82401 -1.63322,1.05201 z M 331.73589,287.141 c 0,-1.14594 0.18541,-2.08351 0.41204,-2.08351 0.22661,0 0.41201,-0.31253 0.41201,-0.69451 0,-0.38582 0.36625,-0.69449 0.82405,-0.69449 0.45781,0 0.82404,0.30867 0.82404,0.69449 0,0.38198 0.27812,0.69451 0.61805,0.69451 0.45781,0 0.61803,0.54017 0.61803,2.08351 0,1.54333 -0.16022,2.08349 -0.61803,2.08349 -0.4578,0 -0.61805,-0.54016 -0.61805,-2.08349 0,-1.54334 -0.16021,-2.08351 -0.61804,-2.08351 -0.4578,0 -0.61803,0.54017 -0.61803,2.08351 0,1.54333 -0.16023,2.08349 -0.61804,2.08349 -0.45779,0 -0.61803,-0.54016 -0.61803,-2.08349 z m 3.38737,82.73837 c 0,-0.53316 0.52648,-0.6945 2.26613,-0.6945 1.73966,0 2.26614,0.16134 2.26614,0.6945 0,0.53317 -0.52648,0.6945 -2.26614,0.6945 -1.73965,0 -2.26613,-0.16133 -2.26613,-0.6945 z m -3.6967,-55.28415 c 0,-0.38584 0.36626,-0.69451 0.82405,-0.69451 0.45781,0 0.82405,0.30867 0.82405,0.69451 0,0.38582 -0.36624,0.69449 -0.82405,0.69449 -0.45779,0 -0.82405,-0.30867 -0.82405,-0.69449 z m 2.47215,0 c 0,-0.38584 0.36625,-0.69451 0.82405,-0.69451 0.45781,0 0.82405,0.30867 0.82405,0.69451 0,0.38582 -0.36624,0.69449 -0.82405,0.69449 -0.4578,0 -0.82405,-0.30867 -0.82405,-0.69449 z m -3.88555,-37.70865 c 0,-0.96628 -0.21873,-1.15031 -1.51325,-1.27324 -2.56398,-0.24349 -2.19912,-1.30121 0.44885,-1.30121 l 2.30047,0 0,1.852 c 0,1.33756 -0.17168,1.85201 -0.61804,1.85201 -0.38047,0 -0.61803,-0.43418 -0.61803,-1.12956 z m 5.52212,90.67778 c 0,-0.38581 0.36624,-0.69448 0.82405,-0.69448 0.45781,0 0.82405,0.30867 0.82405,0.69448 0,0.38584 -0.36624,0.69452 -0.82405,0.69452 -0.45781,0 -0.82405,-0.30868 -0.82405,-0.69452 z m 2.47215,0 c 0,-0.38196 0.27812,-0.69448 0.61803,-0.69448 0.33993,0 0.61804,0.31252 0.61804,0.69448 0,0.38198 -0.27811,0.69452 -0.61804,0.69452 -0.33991,0 -0.61803,-0.31254 -0.61803,-0.69452 z m -5.34479,-55.28414 c 0,-0.38583 0.36624,-0.6945 0.82405,-0.6945 0.4578,0 0.82405,0.30867 0.82405,0.6945 0,0.38583 -0.36625,0.6945 -0.82405,0.6945 -0.45781,0 -0.82405,-0.30867 -0.82405,-0.6945 z m -7.11217,24.17224 c -0.30045,-0.54628 0.0893,-1.389 0.64236,-1.389 0.21324,0 0.38771,0.4167 0.38771,0.926 0,0.97651 -0.59945,1.24595 -1.03007,0.463 z m 2.54463,-0.18623 c 0.71893,0 0.0885,-1.28871 0.60302,-0.93136 0.46803,0.32505 0.4574,1.5806 -0.0134,1.5806 -0.20237,0 -0.4677,-0.29216 -0.58964,-0.64924 z m 3.22577,58.21533 c 0,-0.38197 0.27812,-0.69449 0.61804,-0.69449 0.33992,0 0.61804,0.31252 0.61804,0.69449 0,0.38197 -0.27812,0.69451 -0.61804,0.69451 -0.33992,0 -0.61804,-0.31254 -0.61804,-0.69451 z m -0.69669,-67.45022 c -0.34285,-2.56919 -0.141,-3.75837 0.63795,-3.75837 0.43827,0 0.64811,0.62533 0.73799,2.19926 0.12395,2.1708 0.14395,2.19925 1.54509,2.19925 0.9871,0 1.4195,0.21156 1.4195,0.69451 0,0.52358 -0.50077,0.6945 -2.03487,0.6945 l -2.03488,0 z m -2.66003,29.75102 c 0,-0.92601 -0.20601,-1.15751 -1.03006,-1.15751 -0.64093,0 -1.03005,-0.26237 -1.03005,-0.6945 0,-0.66985 0.46081,-0.88729 1.54509,-0.72907 0.29457,0.043 0.51502,-0.42899 0.51502,-1.10265 0,-0.73826 0.23064,-1.17779 0.61804,-1.17779 0.48598,0 0.61804,0.64306 0.61804,3.00951 0,2.36644 -0.13206,3.00951 -0.61804,3.00951 -0.38455,0 -0.61804,-0.43729 -0.61804,-1.1575 z m -0.10545,23.70729 c 0,-0.51445 -0.27469,-0.926 -0.61803,-0.926 -0.33992,0 -0.61804,-0.28993 -0.61804,-0.64432 0,-0.72442 1.43031,-1.25286 2.67816,-0.98947 0.45323,0.0957 1.05581,0.18988 1.33908,0.20937 0.86876,0.0598 0.57271,1.42442 -0.30902,1.42442 -0.54937,0 -0.82405,0.30867 -0.82405,0.926 0,0.61733 -0.27469,0.92601 -0.82405,0.92601 -0.54936,0 -0.82405,-0.30868 -0.82405,-0.92601 z m 6.4167,-27.30999 c 0,-0.38583 0.36624,-0.6945 0.82404,-0.6945 0.45781,0 0.82405,0.30867 0.82405,0.6945 0,0.38583 -0.36624,0.69451 -0.82405,0.69451 -0.4578,0 -0.82404,-0.30868 -0.82404,-0.69451 z m 1.97176,31.82073 c 0,-0.72023 -0.23347,-1.15751 -0.61804,-1.15751 -0.33991,0 -0.61803,-0.31252 -0.61803,-0.6945 0,-0.38198 0.26522,-0.6945 0.58937,-0.6945 0.32417,0 0.64864,-0.46666 0.72104,-1.03703 0.0724,-0.57036 0.45615,-1.10651 0.85272,-1.19144 0.62752,-0.1344 0.72104,0.24032 0.72104,2.88902 0,2.7348 -0.0836,3.04347 -0.82405,3.04347 -0.6043,0 -0.82405,-0.30867 -0.82405,-1.15751 z m -7.19778,-82.34561 c 0,-0.50158 0.46387,-0.6945 1.6481,-0.6945 l 1.64808,0 0,-2.31501 c 0,-1.74912 0.15109,-2.31501 0.61805,-2.31501 0.48596,0 0.61804,0.64306 0.61804,3.00951 l 0,3.00952 -2.26614,0 c -1.73965,0 -2.26613,-0.16136 -2.26613,-0.69451 z m 3.58478,-39.00893 c 0,-0.69275 0.32812,-0.78725 2.26613,-0.65164 1.60706,0.11243 2.26668,0.34824 2.26668,0.81025 0,0.80667 -1.09096,0.86451 -1.37521,0.0729 -0.16626,-0.46299 -0.21432,-0.46299 -0.24035,0 -0.0179,0.31832 -0.2952,0.57875 -0.61623,0.57875 -0.32103,0 -0.67721,-0.26043 -0.79151,-0.57875 -0.16626,-0.46299 -0.21433,-0.46299 -0.24034,0 -0.0507,0.90201 -1.26854,0.67987 -1.26917,-0.2315 z m 1.64124,87.45031 c 0,-0.61734 0.27468,-0.926 0.82404,-0.926 0.54937,0 0.82405,0.30866 0.82405,0.926 0,0.61733 -0.27468,0.926 -0.82405,0.926 -0.54936,0 -0.82404,-0.30867 -0.82404,-0.926 z m 4.03188,32.05222 c 0,-0.38198 0.18541,-0.6945 0.41203,-0.6945 0.22661,0 0.41202,0.31252 0.41202,0.6945 0,0.38198 -0.18541,0.6945 -0.41202,0.6945 -0.22662,0 -0.41203,-0.31252 -0.41203,-0.6945 z m -9.2579,-84.42911 c 0,-0.51445 0.27468,-0.92601 0.61803,-0.92601 0.34335,0 0.61803,0.41156 0.61803,0.92601 0,0.51444 -0.27468,0.926 -0.61803,0.926 -0.34335,0 -0.61803,-0.41156 -0.61803,-0.926 z m 4.88528,25.71121 c -0.30045,-0.54629 0.0893,-1.38901 0.64235,-1.38901 0.21323,0 0.3877,0.4167 0.3877,0.926 0,0.97651 -0.59944,1.24596 -1.03005,0.46301 z m -1.29995,-63.28945 c 0,-0.72399 0.34036,-0.85193 2.26614,-0.85193 1.89478,0 2.26612,0.13452 2.26612,0.82094 0,0.68267 -0.3817,0.82618 -2.26612,0.85195 -1.93577,0.0265 -2.26614,-0.0932 -2.26614,-0.82096 z m -6.01208,115.14482 c 0,-0.87219 0.20311,-0.94827 2.15782,-0.80829 1.65802,0.11872 2.18991,0.34174 2.29635,0.96281 0.11841,0.69096 -0.19475,0.80827 -2.15782,0.80827 -2.05092,0 -2.29635,-0.1029 -2.29635,-0.96279 z m 7.75558,-27.62045 c 0.25958,-0.87609 1.54528,-1.00064 1.54528,-0.1497 0,0.4295 -0.35229,0.72845 -0.85839,0.72845 -0.50348,0 -0.78748,-0.23929 -0.68689,-0.57875 z"
       style="fill:#84bfd9;fill-opacity:1" />
    <path
       sodipodi:nodetypes="sssssssssssssssssssssssssssssssssssssssssssssssssscssssssssssssssssssssssssscssssssssssscssssssssssssssssssssssssscssssssscsscssscsscssssscccsssssssssssssssssssssssssssssssss"
       inkscape:connector-curvature="0"
       id="path4551-6"
       d="m 238.84447,433.88426 c 0,-0.47258 0.27812,-0.85921 0.61802,-0.85921 0.33993,0 0.61805,0.38663 0.61805,0.85921 0,0.47257 -0.27812,0.85921 -0.61805,0.85921 -0.3399,0 -0.61802,-0.38664 -0.61802,-0.85921 z m 2.47214,0 c 0,-0.47258 0.27812,-0.85921 0.61804,-0.85921 0.33991,0 0.61803,0.38663 0.61803,0.85921 0,0.47257 -0.27812,0.85921 -0.61803,0.85921 -0.33992,0 -0.61804,-0.38664 -0.61804,-0.85921 z m 2.19655,-75.73197 c 0,-0.47256 0.27812,-0.8592 0.61804,-0.8592 0.33992,0 0.61803,0.38664 0.61803,0.8592 0,0.47258 -0.27811,0.85921 -0.61803,0.85921 -0.33992,0 -0.61804,-0.38663 -0.61804,-0.85921 z m 2.54379,148.39518 c 0,-1.03199 2.33646,-6.59996 2.76952,-6.59996 0.55128,0 0.38694,0.76628 -1.1363,5.29845 -0.43841,1.30445 -1.63322,2.2566 -1.63322,1.30151 z M 245.2359,368.00922 c 0,-1.41771 0.1854,-2.57764 0.41203,-2.57764 0.22661,0 0.41202,-0.38665 0.41202,-0.85922 0,-0.47733 0.36624,-0.8592 0.82405,-0.8592 0.4578,0 0.82403,0.38187 0.82403,0.8592 0,0.47257 0.27812,0.85922 0.61805,0.85922 0.45781,0 0.61803,0.66828 0.61803,2.57764 0,1.90934 -0.16022,2.57761 -0.61803,2.57761 -0.4578,0 -0.61805,-0.66827 -0.61805,-2.57761 0,-1.90936 -0.16021,-2.57764 -0.61804,-2.57764 -0.45779,0 -0.61803,0.66828 -0.61803,2.57764 0,1.90934 -0.16023,2.57761 -0.61803,2.57761 -0.4578,0 -0.61803,-0.66827 -0.61803,-2.57761 z m 3.38736,102.36064 c 0,-0.6596 0.52648,-0.8592 2.26613,-0.8592 1.73967,0 2.26614,0.1996 2.26614,0.8592 0,0.65962 -0.52647,0.85921 -2.26614,0.85921 -1.73965,0 -2.26613,-0.19959 -2.26613,-0.85921 z m -3.69669,-68.39536 c 0,-0.47735 0.36625,-0.85923 0.82405,-0.85923 0.4578,0 0.82405,0.38188 0.82405,0.85923 0,0.47731 -0.36625,0.85919 -0.82405,0.85919 -0.4578,0 -0.82405,-0.38188 -0.82405,-0.85919 z m 2.47215,0 c 0,-0.47735 0.36624,-0.85923 0.82404,-0.85923 0.45781,0 0.82405,0.38188 0.82405,0.85923 0,0.47731 -0.36624,0.85919 -0.82405,0.85919 -0.4578,0 -0.82404,-0.38188 -0.82404,-0.85919 z m -3.88556,-46.65166 c 0,-1.19545 -0.21873,-1.42313 -1.51324,-1.5752 -2.56399,-0.30124 -2.19913,-1.60981 0.44884,-1.60981 l 2.30047,0 0,2.29123 c 0,1.65478 -0.17167,2.29122 -0.61803,2.29122 -0.38048,0 -0.61804,-0.53715 -0.61804,-1.39744 z m 5.52213,112.18297 c 0,-0.47732 0.36623,-0.85919 0.82405,-0.85919 0.4578,0 0.82405,0.38187 0.82405,0.85919 0,0.47735 -0.36625,0.85923 -0.82405,0.85923 -0.45782,0 -0.82405,-0.38188 -0.82405,-0.85923 z m 2.47215,0 c 0,-0.47254 0.27811,-0.85919 0.61803,-0.85919 0.33992,0 0.61803,0.38665 0.61803,0.85919 0,0.47257 -0.27811,0.85923 -0.61803,0.85923 -0.33992,0 -0.61803,-0.38666 -0.61803,-0.85923 z m -5.3448,-68.39535 c 0,-0.47734 0.36625,-0.85921 0.82405,-0.85921 0.4578,0 0.82405,0.38187 0.82405,0.85921 0,0.47733 -0.36625,0.8592 -0.82405,0.8592 -0.4578,0 -0.82405,-0.38187 -0.82405,-0.8592 z m -7.11216,29.90494 c -0.30045,-0.67585 0.0893,-1.71843 0.64235,-1.71843 0.21324,0 0.38771,0.51553 0.38771,1.14562 0,1.20811 -0.59945,1.54144 -1.03006,0.57281 z m 2.54462,-0.23041 c 0.71893,0 0.0885,-1.59433 0.60303,-1.15223 0.46802,0.40214 0.45739,1.95545 -0.0134,1.95545 -0.20237,0 -0.46771,-0.36145 -0.58965,-0.80322 z m 3.22578,72.02171 c 0,-0.47255 0.27811,-0.85919 0.61803,-0.85919 0.33993,0 0.61804,0.38664 0.61804,0.85919 0,0.47257 -0.27811,0.85923 -0.61804,0.85923 -0.33992,0 -0.61803,-0.38666 -0.61803,-0.85923 z m -0.6967,-83.44674 c -0.34285,-3.1785 -0.141,-4.64971 0.63796,-4.64971 0.43827,0 0.6481,0.77364 0.73798,2.72083 0.12395,2.68563 0.14395,2.72084 1.54509,2.72084 0.9871,0 1.4195,0.26173 1.4195,0.85921 0,0.64776 -0.50077,0.85921 -2.03487,0.85921 l -2.03488,0 z m -2.66002,36.80678 c 0,-1.14562 -0.20602,-1.43202 -1.03007,-1.43202 -0.64092,0 -1.03005,-0.32459 -1.03005,-0.85921 0,-0.82871 0.46081,-1.09772 1.54509,-0.90197 0.29457,0.0531 0.51503,-0.53073 0.51503,-1.36416 0,-0.91335 0.23063,-1.45712 0.61803,-1.45712 0.48598,0 0.61804,0.79557 0.61804,3.72325 0,2.92767 -0.13206,3.72325 -0.61804,3.72325 -0.38455,0 -0.61803,-0.54099 -0.61803,-1.43202 z m -0.10546,29.32973 c 0,-0.63645 -0.27468,-1.14562 -0.61803,-1.14562 -0.33992,0 -0.61803,-0.35868 -0.61803,-0.79712 0,-0.89622 1.4303,-1.54998 2.67815,-1.22413 0.45323,0.1184 1.05581,0.23491 1.33908,0.25902 0.86877,0.0739 0.57271,1.76223 -0.30902,1.76223 -0.54936,0 -0.82405,0.38187 -0.82405,1.14562 0,0.76374 -0.27468,1.14562 -0.82405,1.14562 -0.54936,0 -0.82405,-0.38188 -0.82405,-1.14562 z m 6.4167,-33.78684 c 0,-0.47734 0.36624,-0.85921 0.82404,-0.85921 0.45781,0 0.82405,0.38187 0.82405,0.85921 0,0.47733 -0.36624,0.85921 -0.82405,0.85921 -0.4578,0 -0.82404,-0.38188 -0.82404,-0.85921 z m 1.97176,39.36735 c 0,-0.89104 -0.23347,-1.43203 -0.61804,-1.43203 -0.3399,0 -0.61803,-0.38664 -0.61803,-0.8592 0,-0.47257 0.26523,-0.85921 0.58937,-0.85921 0.32417,0 0.64864,-0.57734 0.72105,-1.28297 0.0724,-0.70562 0.45614,-1.36893 0.85271,-1.47401 0.62753,-0.16628 0.72104,0.29732 0.72104,3.57419 0,3.38337 -0.0836,3.76525 -0.82405,3.76525 -0.6043,0 -0.82405,-0.38188 -0.82405,-1.43202 z m -7.19778,-101.87474 c 0,-0.62054 0.46387,-0.85921 1.6481,-0.85921 l 1.64808,0 0,-2.86404 c 0,-2.16393 0.15109,-2.86403 0.61806,-2.86403 0.48596,0 0.61803,0.79556 0.61803,3.72324 l 0,3.72326 -2.26613,0 c -1.73966,0 -2.26614,-0.19963 -2.26614,-0.85922 z m 3.58478,-48.26031 c 0,-0.85705 0.32812,-0.97396 2.26613,-0.80619 1.60707,0.1391 2.26668,0.43083 2.26668,1.00241 0,0.99798 -1.09096,1.06955 -1.37521,0.0902 -0.16626,-0.5728 -0.21432,-0.5728 -0.24035,0 -0.0179,0.39381 -0.29519,0.71601 -0.61622,0.71601 -0.32103,0 -0.67722,-0.3222 -0.79152,-0.71601 -0.16626,-0.5728 -0.21432,-0.5728 -0.24034,0 -0.0507,1.11594 -1.26854,0.84112 -1.26917,-0.28639 z M 247.7754,447.132 c 0,-0.76375 0.27468,-1.14561 0.82404,-1.14561 0.54937,0 0.82405,0.38186 0.82405,1.14561 0,0.76374 -0.27468,1.14562 -0.82405,1.14562 -0.54936,0 -0.82404,-0.38188 -0.82404,-1.14562 z m 4.03188,39.65375 c 0,-0.47257 0.18542,-0.85921 0.41203,-0.85921 0.22662,0 0.41202,0.38664 0.41202,0.85921 0,0.47256 -0.1854,0.8592 -0.41202,0.8592 -0.22661,0 -0.41203,-0.38664 -0.41203,-0.8592 z m -9.2579,-104.45237 c 0,-0.63645 0.27468,-1.14563 0.61804,-1.14563 0.34334,0 0.61803,0.50918 0.61803,1.14563 0,0.63645 -0.27469,1.14561 -0.61803,1.14561 -0.34336,0 -0.61804,-0.50916 -0.61804,-1.14561 z m 4.88528,31.8089 c -0.30045,-0.67585 0.0893,-1.71843 0.64235,-1.71843 0.21323,0 0.3877,0.51553 0.3877,1.14561 0,1.2081 -0.59943,1.54145 -1.03005,0.57282 z m -1.29995,-78.29921 c 0,-0.89569 0.34037,-1.05398 2.26614,-1.05398 1.89479,0 2.26612,0.16643 2.26612,1.01564 0,0.84457 -0.3817,1.02211 -2.26612,1.054 -1.93577,0.0328 -2.26614,-0.11533 -2.26614,-1.01566 z m -6.01207,142.45262 c 0,-1.07903 0.20311,-1.17315 2.15781,-0.99998 1.65802,0.14688 2.18991,0.42279 2.29635,1.19114 0.11842,0.85484 -0.19474,0.99997 -2.15782,0.99997 -2.05092,0 -2.29634,-0.1273 -2.29634,-1.19113 z m 7.75557,-34.17093 c 0.25958,-1.08386 1.54528,-1.23795 1.54528,-0.18521 0,0.53137 -0.35228,0.90123 -0.85838,0.90123 -0.50349,0 -0.78749,-0.29605 -0.6869,-0.71602 z"
       style="fill:#84bfd9;fill-opacity:1" />
    <path
       sodipodi:nodetypes="sssssssssssssssssssssssssssssssssssssssssssssssssscssssssssssssssssssssssssscssssssssssscssssssssssssssssssssssssscssssssscsscssscsscssssscccsssssssssssssssssssssssssssssssss"
       inkscape:connector-curvature="0"
       id="path4551-43"
       d="m 249.84446,269.81987 c 0,0.34629 0.27812,0.62962 0.61803,0.62962 0.33993,0 0.61804,-0.28333 0.61804,-0.62962 0,-0.3463 -0.27811,-0.62962 -0.61804,-0.62962 -0.33991,0 -0.61803,0.28332 -0.61803,0.62962 z m 2.47214,0 c 0,0.34629 0.27812,0.62962 0.61804,0.62962 0.33991,0 0.61803,-0.28333 0.61803,-0.62962 0,-0.3463 -0.27812,-0.62962 -0.61803,-0.62962 -0.33992,0 -0.61804,0.28332 -0.61804,0.62962 z m 2.19655,55.49527 c 0,0.34629 0.27812,0.62961 0.61804,0.62961 0.33992,0 0.61804,-0.28332 0.61804,-0.62961 0,-0.3463 -0.27812,-0.62962 -0.61804,-0.62962 -0.33992,0 -0.61804,0.28332 -0.61804,0.62962 z m 2.54379,-108.7418 c 0,0.75622 2.33646,4.83635 2.76952,4.83635 0.55128,0 0.38694,-0.56152 -1.1363,-3.88263 -0.43841,-0.95588 -1.63322,-1.6536 -1.63322,-0.95372 z m -0.82105,101.5188 c 0,1.03887 0.1854,1.88885 0.41203,1.88885 0.22662,0 0.41202,0.28333 0.41202,0.62962 0,0.34978 0.36624,0.62961 0.82405,0.62961 0.4578,0 0.82403,-0.27983 0.82403,-0.62961 0,-0.34629 0.27813,-0.62962 0.61806,-0.62962 0.4578,0 0.61803,-0.48971 0.61803,-1.88885 0,-1.39915 -0.16023,-1.88884 -0.61803,-1.88884 -0.45781,0 -0.61806,0.48969 -0.61806,1.88884 0,1.39914 -0.16021,1.88885 -0.61803,1.88885 -0.4578,0 -0.61803,-0.48971 -0.61803,-1.88885 0,-1.39915 -0.16024,-1.88884 -0.61804,-1.88884 -0.4578,0 -0.61803,0.48969 -0.61803,1.88884 z m 3.38736,-75.00839 c 0,0.48334 0.52648,0.62961 2.26613,0.62961 1.73967,0 2.26614,-0.14627 2.26614,-0.62961 0,-0.48336 -0.52647,-0.62961 -2.26614,-0.62961 -1.73965,0 -2.26613,0.14625 -2.26613,0.62961 z m -3.69669,50.11912 c 0,0.3498 0.36625,0.62963 0.82405,0.62963 0.4578,0 0.82405,-0.27983 0.82405,-0.62963 0,-0.34976 -0.36625,-0.6296 -0.82405,-0.6296 -0.4578,0 -0.82405,0.27984 -0.82405,0.6296 z m 2.47215,0 c 0,0.3498 0.36624,0.62963 0.82404,0.62963 0.45781,0 0.82405,-0.27983 0.82405,-0.62963 0,-0.34976 -0.36624,-0.6296 -0.82405,-0.6296 -0.4578,0 -0.82404,0.27984 -0.82404,0.6296 z m -3.88556,34.18565 c 0,0.87601 -0.21873,1.04285 -1.51324,1.15429 -2.56399,0.22074 -2.19913,1.17964 0.44884,1.17964 l 2.30048,0 0,-1.67898 c 0,-1.21259 -0.17168,-1.67897 -0.61804,-1.67897 -0.38048,0 -0.61804,0.39361 -0.61804,1.02402 z m 5.52213,-82.20604 c 0,0.34978 0.36624,0.6296 0.82405,0.6296 0.4578,0 0.82405,-0.27982 0.82405,-0.6296 0,-0.34978 -0.36625,-0.62962 -0.82405,-0.62962 -0.45781,0 -0.82405,0.27984 -0.82405,0.62962 z m 2.47215,0 c 0,0.34628 0.27811,0.6296 0.61803,0.6296 0.33992,0 0.61803,-0.28332 0.61803,-0.6296 0,-0.34629 -0.27811,-0.62962 -0.61803,-0.62962 -0.33992,0 -0.61803,0.28333 -0.61803,0.62962 z m -5.3448,50.11912 c 0,0.34979 0.36625,0.62962 0.82405,0.62962 0.45781,0 0.82405,-0.27983 0.82405,-0.62962 0,-0.34978 -0.36624,-0.62961 -0.82405,-0.62961 -0.4578,0 -0.82405,0.27983 -0.82405,0.62961 z m -7.11216,-21.9139 c -0.30045,0.49525 0.0893,1.25923 0.64235,1.25923 0.21325,0 0.38771,-0.37777 0.38771,-0.83949 0,-0.88528 -0.59944,-1.12955 -1.03006,-0.41974 z m 2.54462,0.16883 c 0.71893,0 0.0885,1.16831 0.60303,0.84435 0.46802,-0.29469 0.45739,-1.43293 -0.0134,-1.43293 -0.20237,0 -0.46771,0.26486 -0.58964,0.58858 z m 3.22578,-52.77645 c 0,0.34628 0.27811,0.62961 0.61803,0.62961 0.33993,0 0.61804,-0.28333 0.61804,-0.62961 0,-0.34629 -0.27811,-0.62963 -0.61804,-0.62963 -0.33992,0 -0.61803,0.28334 -0.61803,0.62963 z m -0.6967,61.14855 c -0.34285,2.32916 -0.141,3.40724 0.63796,3.40724 0.43827,0 0.6481,-0.56691 0.73798,-1.99379 0.12395,-1.96799 0.14395,-1.99378 1.54509,-1.99378 0.9871,0 1.41951,-0.19179 1.41951,-0.62962 0,-0.47467 -0.50078,-0.62962 -2.03488,-0.62962 l -2.03487,0 z m -2.66002,-26.97147 c 0,0.8395 -0.20601,1.04936 -1.03006,1.04936 -0.64093,0 -1.03006,0.23786 -1.03006,0.62962 0,0.60727 0.46082,0.80439 1.54509,0.66096 0.29457,-0.039 0.51503,0.38891 0.51503,0.99963 0,0.66928 0.23063,1.06776 0.61804,1.06776 0.48597,0 0.61803,-0.58299 0.61803,-2.72835 0,-2.14536 -0.13206,-2.72834 -0.61803,-2.72834 -0.38456,0 -0.61804,0.39643 -0.61804,1.04936 z m -0.10545,-21.49239 c 0,0.46638 -0.27469,0.83949 -0.61803,0.83949 -0.33993,0 -0.61804,0.26283 -0.61804,0.58412 0,0.65673 1.4303,1.1358 2.67815,0.89702 0.45323,-0.0868 1.05581,-0.17214 1.33908,-0.18981 0.86877,-0.0542 0.57271,-1.29133 -0.30901,-1.29133 -0.54937,0 -0.82405,-0.27984 -0.82405,-0.83949 0,-0.55966 -0.27469,-0.8395 -0.82405,-0.8395 -0.54937,0 -0.82405,0.27984 -0.82405,0.8395 z m 6.41669,24.7585 c 0,0.34978 0.36625,0.62961 0.82404,0.62961 0.45781,0 0.82405,-0.27983 0.82405,-0.62961 0,-0.34979 -0.36624,-0.62963 -0.82405,-0.62963 -0.45779,0 -0.82404,0.27984 -0.82404,0.62963 z m 1.97176,-28.84782 c 0,0.65294 -0.23347,1.04937 -0.61803,1.04937 -0.33991,0 -0.61803,0.28332 -0.61803,0.62961 0,0.3463 0.26522,0.62962 0.58936,0.62962 0.32417,0 0.64864,0.42306 0.72105,0.94015 0.0724,0.51706 0.45615,1.00312 0.85271,1.08013 0.62753,0.12184 0.72104,-0.21788 0.72104,-2.61912 0,-2.47929 -0.0836,-2.75912 -0.82405,-2.75912 -0.60429,0 -0.82405,0.27983 -0.82405,1.04936 z m -7.19778,74.65231 c 0,0.45473 0.46387,0.62963 1.6481,0.62963 l 1.64808,0 0,2.09872 c 0,1.5857 0.1511,2.09872 0.61806,2.09872 0.48596,0 0.61803,-0.58297 0.61803,-2.72833 l 0,-2.72836 -2.26613,0 c -1.73966,0 -2.26614,0.14629 -2.26614,0.62962 z m 3.58478,35.36445 c 0,0.62804 0.32812,0.71371 2.26613,0.59077 1.60707,-0.10193 2.26669,-0.31571 2.26669,-0.73455 0,-0.73131 -1.09096,-0.78375 -1.37522,-0.0662 -0.16625,0.41974 -0.21432,0.41974 -0.24034,0 -0.0179,-0.28857 -0.2952,-0.52468 -0.61623,-0.52468 -0.32103,0 -0.67722,0.23611 -0.79152,0.52468 -0.16626,0.41974 -0.21432,0.41974 -0.24034,0 -0.0507,-0.81773 -1.26854,-0.61635 -1.26917,0.20988 z m 1.64124,-79.28009 c 0,0.55966 0.27468,0.83948 0.82404,0.83948 0.54937,0 0.82405,-0.27982 0.82405,-0.83948 0,-0.55966 -0.27468,-0.83949 -0.82405,-0.83949 -0.54936,0 -0.82404,0.27983 -0.82404,0.83949 z m 4.03188,-29.05769 c 0,0.3463 0.18542,0.62962 0.41203,0.62962 0.22662,0 0.41202,-0.28332 0.41202,-0.62962 0,-0.34629 -0.1854,-0.62961 -0.41202,-0.62961 -0.22661,0 -0.41203,0.28332 -0.41203,0.62961 z m -9.2579,76.54117 c 0,0.46639 0.27468,0.83949 0.61804,0.83949 0.34335,0 0.61803,-0.3731 0.61803,-0.83949 0,-0.46638 -0.27468,-0.83949 -0.61803,-0.83949 -0.34336,0 -0.61804,0.37311 -0.61804,0.83949 z m 4.88528,-23.3091 c -0.30045,0.49525 0.0893,1.25924 0.64235,1.25924 0.21323,0 0.38771,-0.37777 0.38771,-0.83949 0,-0.88528 -0.59944,-1.12954 -1.03006,-0.41975 z m -1.29994,57.37651 c 0,0.65635 0.34036,0.77235 2.26613,0.77235 1.89479,0 2.26613,-0.12196 2.26613,-0.74426 0,-0.61888 -0.38171,-0.74898 -2.26613,-0.77234 -1.93577,-0.024 -2.26613,0.0845 -2.26613,0.74425 z m -6.01208,-104.38719 c 0,0.7907 0.20311,0.85967 2.15781,0.73277 1.65802,-0.10763 2.18992,-0.30981 2.29635,-0.87285 0.11842,-0.62641 -0.19474,-0.73276 -2.15782,-0.73276 -2.05092,0 -2.29634,0.0933 -2.29634,0.87284 z m 7.75557,25.03996 c 0.25958,0.79423 1.54528,0.90715 1.54528,0.13571 0,-0.38937 -0.35228,-0.6604 -0.85838,-0.6604 -0.50349,0 -0.78748,0.21694 -0.6869,0.52469 z"
       style="fill:#84bfd9;fill-opacity:1" />
    <path
       sodipodi:nodetypes="sssssssssssssssssssssssssssssssssssssssssscssssssscssssssssss"
       inkscape:connector-curvature="0"
       id="path4551-5-8"
       d="m 401.22283,423.72016 c 0,-1.06238 -2.33646,-6.79436 -2.76952,-6.79436 -0.55128,0 -0.38694,0.78886 1.1363,5.45452 0.43841,1.34288 1.63322,2.32307 1.63322,1.33984 z m -2.56631,-37.24319 c 0,-0.67904 -0.52648,-0.88452 -2.26613,-0.88452 -1.73967,0 -2.26614,0.20548 -2.26614,0.88452 0,0.67903 0.52647,0.8845 2.26614,0.8845 1.73965,0 2.26613,-0.20547 2.26613,-0.8845 z m -0.41203,-2.94842 c 0,-0.49137 -0.36623,-0.88449 -0.82405,-0.88449 -0.4578,0 -0.82405,0.39312 -0.82405,0.88449 0,0.49141 0.36625,0.88453 0.82405,0.88453 0.45782,0 0.82405,-0.39312 0.82405,-0.88453 z m -2.47215,0 c 0,-0.48646 -0.27811,-0.88449 -0.61803,-0.88449 -0.33992,0 -0.61803,0.39803 -0.61803,0.88449 0,0.48649 0.27811,0.88453 0.61803,0.88453 0.33992,0 0.61803,-0.39804 0.61803,-0.88453 z m 6.68656,34.28176 c 0,-0.48647 -0.27811,-0.88451 -0.61803,-0.88451 -0.33993,0 -0.61804,0.39804 -0.61804,0.88451 0,0.48648 0.27811,0.88452 0.61804,0.88452 0.33992,0 0.61803,-0.39804 0.61803,-0.88452 z m 3.35672,-48.01372 c 0,-1.17937 0.20602,-1.47421 1.03007,-1.47421 0.64092,0 1.03005,-0.33415 1.03005,-0.88451 0,-0.85312 -0.46081,-1.13006 -1.54509,-0.92854 -0.29457,0.0548 -0.51503,-0.54637 -0.51503,-1.40434 0,-0.94025 -0.23063,-1.50004 -0.61803,-1.50004 -0.48598,0 -0.61804,0.819 -0.61804,3.83292 0,3.0139 0.13206,3.83291 0.61804,3.83291 0.38455,0 0.61803,-0.55693 0.61803,-1.47419 z m 0.10546,30.19362 c 0,-0.6552 0.27468,-1.17936 0.61802,-1.17936 0.33993,0 0.61804,-0.36926 0.61804,-0.8206 0,-0.92262 -1.4303,-1.59564 -2.67815,-1.26019 -0.45323,0.12189 -1.05581,0.24183 -1.33908,0.26665 -0.86877,0.0761 -0.57271,1.81414 0.30902,1.81414 0.54936,0 0.82405,0.39312 0.82405,1.17936 0,0.78623 0.27468,1.17936 0.82405,1.17936 0.54936,0 0.82405,-0.39313 0.82405,-1.17936 z m -8.38846,5.74488 c 0,-0.91728 0.23347,-1.47421 0.61804,-1.47421 0.3399,0 0.61803,-0.39803 0.61803,-0.88451 0,-0.48649 -0.26523,-0.88451 -0.58937,-0.88451 -0.32417,0 -0.64864,-0.59434 -0.72105,-1.32077 -0.0724,-0.7264 -0.45614,-1.40925 -0.85271,-1.51742 -0.62753,-0.17118 -0.72104,0.30607 -0.72104,3.67947 0,3.48302 0.0836,3.87615 0.82405,3.87615 0.6043,0 0.82405,-0.39313 0.82405,-1.4742 z m -2.06012,-2.35872 c 0,-0.48649 -0.18542,-0.88451 -0.41203,-0.88451 -0.22662,0 -0.41202,0.39802 -0.41202,0.88451 0,0.48648 0.1854,0.88451 0.41202,0.88451 0.22661,0 0.41203,-0.39803 0.41203,-0.88451 z m 11.68464,-8.74013 c 0,-1.11082 -0.20311,-1.20771 -2.15781,-1.02943 -1.65802,0.1512 -2.18991,0.43524 -2.29635,1.22623 -0.11842,0.88001 0.19474,1.0294 2.15782,1.0294 2.05092,0 2.29634,-0.13104 2.29634,-1.2262 z"
       style="fill:#84bfd9;fill-opacity:1" />
    <path
       sodipodi:nodetypes="sssssssssssssssssssssssssssssssssssssssssscssssssscssssssssss"
       inkscape:connector-curvature="0"
       id="path4551-5-84"
       d="m 544.72283,473.80594 c 0,-0.83416 -2.33646,-5.33476 -2.76952,-5.33476 -0.55128,0 -0.38694,0.61938 1.1363,4.28275 0.43841,1.05439 1.63322,1.82401 1.63322,1.05201 z m -2.56631,-29.24245 c 0,-0.53316 -0.52648,-0.6945 -2.26613,-0.6945 -1.73967,0 -2.26614,0.16134 -2.26614,0.6945 0,0.53317 0.52647,0.6945 2.26614,0.6945 1.73965,0 2.26613,-0.16133 2.26613,-0.6945 z m -0.41203,-2.31502 c 0,-0.38581 -0.36624,-0.69448 -0.82405,-0.69448 -0.4578,0 -0.82405,0.30867 -0.82405,0.69448 0,0.38584 0.36625,0.69452 0.82405,0.69452 0.45781,0 0.82405,-0.30868 0.82405,-0.69452 z m -2.47215,0 c 0,-0.38196 -0.27811,-0.69448 -0.61803,-0.69448 -0.33992,0 -0.61803,0.31252 -0.61803,0.69448 0,0.38198 0.27811,0.69452 0.61803,0.69452 0.33992,0 0.61803,-0.31254 0.61803,-0.69452 z m 6.68656,26.9172 c 0,-0.38197 -0.27811,-0.69449 -0.61803,-0.69449 -0.33993,0 -0.61804,0.31252 -0.61804,0.69449 0,0.38197 0.27811,0.6945 0.61804,0.6945 0.33992,0 0.61803,-0.31253 0.61803,-0.6945 z m 3.35672,-37.6992 c 0,-0.92601 0.20601,-1.15751 1.03006,-1.15751 0.64093,0 1.03006,-0.26237 1.03006,-0.6945 0,-0.66985 -0.46082,-0.88729 -1.54509,-0.72907 -0.29457,0.043 -0.51503,-0.42899 -0.51503,-1.10265 0,-0.73826 -0.23063,-1.17779 -0.61803,-1.17779 -0.48598,0 -0.61804,0.64306 -0.61804,3.00951 0,2.36644 0.13206,3.00951 0.61804,3.00951 0.38455,0 0.61803,-0.43729 0.61803,-1.1575 z m 0.10545,23.70729 c 0,-0.51445 0.27469,-0.926 0.61803,-0.926 0.33993,0 0.61804,-0.28993 0.61804,-0.64432 0,-0.72442 -1.4303,-1.25286 -2.67815,-0.98947 -0.45323,0.0957 -1.05581,0.18988 -1.33908,0.20937 -0.86877,0.0598 -0.57271,1.42442 0.30901,1.42442 0.54937,0 0.82405,0.30867 0.82405,0.926 0,0.61733 0.27469,0.92601 0.82405,0.92601 0.54937,0 0.82405,-0.30868 0.82405,-0.92601 z m -8.38845,4.51074 c 0,-0.72023 0.23347,-1.15751 0.61803,-1.15751 0.33991,0 0.61803,-0.31252 0.61803,-0.6945 0,-0.38198 -0.26522,-0.6945 -0.58936,-0.6945 -0.32417,0 -0.64864,-0.46666 -0.72105,-1.03703 -0.0724,-0.57036 -0.45614,-1.10651 -0.85271,-1.19144 -0.62753,-0.13441 -0.72104,0.24032 -0.72104,2.88902 0,2.7348 0.0836,3.04346 0.82405,3.04346 0.6043,0 0.82405,-0.30866 0.82405,-1.1575 z m -2.06012,-1.85201 c 0,-0.38198 -0.18542,-0.6945 -0.41203,-0.6945 -0.22662,0 -0.41202,0.31252 -0.41202,0.6945 0,0.38198 0.1854,0.6945 0.41202,0.6945 0.22661,0 0.41203,-0.31252 0.41203,-0.6945 z m 11.68464,-6.86253 c 0,-0.87219 -0.20311,-0.94827 -2.15781,-0.80829 -1.65802,0.11872 -2.18992,0.34174 -2.29635,0.96281 -0.11842,0.69096 0.19474,0.80826 2.15782,0.80826 2.05092,0 2.29634,-0.10289 2.29634,-0.96278 z"
       style="fill:#84bfd9;fill-opacity:1" />
    <path
       sodipodi:nodetypes="sssssssssssssssssssssssssssssssssssssssssscssssssscssssssssss"
       inkscape:connector-curvature="0"
       id="path4551-5-3"
       d="m 516.72284,302.80595 c 0,-0.83417 -2.33647,-5.33477 -2.76952,-5.33477 -0.55128,0 -0.38694,0.61938 1.1363,4.28275 0.43841,1.0544 1.63322,1.82402 1.63322,1.05202 z m -2.56631,-29.24246 c 0,-0.53315 -0.52648,-0.6945 -2.26613,-0.6945 -1.73967,0 -2.26614,0.16135 -2.26614,0.6945 0,0.53317 0.52647,0.6945 2.26614,0.6945 1.73965,0 2.26613,-0.16133 2.26613,-0.6945 z m -0.41203,-2.31502 c 0,-0.38581 -0.36624,-0.69448 -0.82405,-0.69448 -0.4578,0 -0.82405,0.30867 -0.82405,0.69448 0,0.38584 0.36625,0.69452 0.82405,0.69452 0.45781,0 0.82405,-0.30868 0.82405,-0.69452 z m -2.47215,0 c 0,-0.38195 -0.27811,-0.69448 -0.61803,-0.69448 -0.33992,0 -0.61804,0.31253 -0.61804,0.69448 0,0.38199 0.27812,0.69452 0.61804,0.69452 0.33992,0 0.61803,-0.31253 0.61803,-0.69452 z m 6.68656,26.9172 c 0,-0.38196 -0.27811,-0.69449 -0.61804,-0.69449 -0.33992,0 -0.61803,0.31253 -0.61803,0.69449 0,0.38197 0.27811,0.69451 0.61803,0.69451 0.33993,0 0.61804,-0.31254 0.61804,-0.69451 z m 3.35672,-37.6992 c 0,-0.92601 0.20601,-1.15751 1.03006,-1.15751 0.64093,0 1.03006,-0.26236 1.03006,-0.6945 0,-0.66984 -0.46082,-0.88729 -1.54509,-0.72906 -0.29458,0.043 -0.51503,-0.429 -0.51503,-1.10265 0,-0.73826 -0.23063,-1.1778 -0.61804,-1.1778 -0.48597,0 -0.61803,0.64306 -0.61803,3.00951 0,2.36645 0.13206,3.00951 0.61803,3.00951 0.38456,0 0.61804,-0.43728 0.61804,-1.1575 z m 0.10545,23.7073 c 0,-0.51445 0.27469,-0.92601 0.61803,-0.92601 0.33992,0 0.61804,-0.28993 0.61804,-0.64432 0,-0.72442 -1.4303,-1.25285 -2.67816,-0.98946 -0.45322,0.0957 -1.0558,0.18988 -1.33907,0.20936 -0.86877,0.0598 -0.57272,1.42442 0.30901,1.42442 0.54937,0 0.82405,0.30867 0.82405,0.92601 0,0.61732 0.27469,0.926 0.82405,0.926 0.54936,0 0.82405,-0.30868 0.82405,-0.926 z m -8.38845,4.51074 c 0,-0.72024 0.23346,-1.15751 0.61803,-1.15751 0.33991,0 0.61803,-0.31253 0.61803,-0.6945 0,-0.38198 -0.26522,-0.6945 -0.58936,-0.6945 -0.32417,0 -0.64865,-0.46666 -0.72105,-1.03704 -0.0724,-0.57035 -0.45615,-1.10651 -0.85271,-1.19144 -0.62753,-0.1344 -0.72104,0.24032 -0.72104,2.88903 0,2.73479 0.0836,3.04346 0.82405,3.04346 0.60429,0 0.82405,-0.30867 0.82405,-1.1575 z m -2.06012,-1.85201 c 0,-0.38198 -0.18542,-0.6945 -0.41203,-0.6945 -0.22662,0 -0.41202,0.31252 -0.41202,0.6945 0,0.38197 0.1854,0.6945 0.41202,0.6945 0.22661,0 0.41203,-0.31253 0.41203,-0.6945 z m 11.68464,-6.86254 c 0,-0.87219 -0.20311,-0.94826 -2.15781,-0.80828 -1.65802,0.11872 -2.18992,0.34173 -2.29635,0.9628 -0.11842,0.69096 0.19474,0.80827 2.15782,0.80827 2.05092,0 2.29634,-0.1029 2.29634,-0.96279 z"
       style="fill:#84bfd9;fill-opacity:1" />
    <path
       sodipodi:nodetypes="ssssssssssssss"
       inkscape:connector-curvature="0"
       id="path4407-4-0"
       d="m 219.15561,391.4542 c 0,-1.68646 -1.01186,-3.03561 -2.2767,-3.03561 -1.2522,0 -2.2767,-0.95049 -2.2767,-2.11218 0,-2.37477 5.26892,-4.10712 9.86574,-3.24367 1.66957,0.3136 3.88935,0.62243 4.93286,0.6863 3.20033,0.19588 2.10974,4.66955 -1.13838,4.66955 -2.02372,0 -3.03561,1.01187 -3.03561,3.03561 0,2.02373 -1.01185,3.0356 -3.0356,3.0356 -2.02372,0 -3.03561,-1.01187 -3.03561,-3.0356 z m -4.5534,-13.78089 c 0,-2.85916 0.7482,-3.10856 7.94891,-2.64969 6.10777,0.38922 8.06716,1.12028 8.45926,3.15623 0.43621,2.26516 -0.71739,2.64972 -7.94896,2.64972 -7.55514,0 -8.45921,-0.33734 -8.45921,-3.15626 z"
       style="fill:#3381a5;fill-opacity:1" />
    <path
       sodipodi:nodetypes="sssssssssssssssssscssssssscssssssssss"
       inkscape:connector-curvature="0"
       id="path4551-5-3-6"
       d="m 353.77622,301.52402 c 0,-0.83416 -2.33646,-5.33476 -2.76952,-5.33476 -0.55128,0 -0.38694,0.61938 1.1363,4.28275 0.43841,1.05439 1.63322,1.82401 1.63322,1.05201 z m 1.23607,-4.64027 c 0,-0.38197 -0.27811,-0.69449 -0.61803,-0.69449 -0.33993,0 -0.61804,0.31252 -0.61804,0.69449 0,0.38197 0.27811,0.6945 0.61804,0.6945 0.33992,0 0.61803,-0.31253 0.61803,-0.6945 z m 3.46217,-13.99191 c 0,-0.51445 0.27469,-0.926 0.61803,-0.926 0.33993,0 0.61804,-0.28993 0.61804,-0.64432 0,-0.72442 -1.4303,-1.25286 -2.67815,-0.98947 -0.45323,0.0957 -1.05581,0.18988 -1.33908,0.20937 -0.86877,0.0598 -0.57271,1.42442 0.30901,1.42442 0.54937,0 0.82405,0.30867 0.82405,0.926 0,0.61733 0.27469,0.92601 0.82405,0.92601 0.54937,0 0.82405,-0.30868 0.82405,-0.92601 z m -8.38845,4.51074 c 0,-0.72023 0.23347,-1.15751 0.61804,-1.15751 0.3399,0 0.61803,-0.31252 0.61803,-0.6945 0,-0.38198 -0.26523,-0.6945 -0.58937,-0.6945 -0.32417,0 -0.64864,-0.46666 -0.72105,-1.03703 -0.0724,-0.57036 -0.45614,-1.10651 -0.85271,-1.19144 -0.62753,-0.13441 -0.72104,0.24032 -0.72104,2.88902 0,2.7348 0.0836,3.04347 0.82405,3.04347 0.6043,0 0.82405,-0.30867 0.82405,-1.15751 z m -2.06012,-1.85201 c 0,-0.38198 -0.18542,-0.6945 -0.41203,-0.6945 -0.22662,0 -0.41202,0.31252 -0.41202,0.6945 0,0.38198 0.1854,0.6945 0.41202,0.6945 0.22661,0 0.41203,-0.31252 0.41203,-0.6945 z m 11.68464,-6.86253 c 0,-0.87219 -0.20311,-0.94827 -2.15781,-0.80829 -1.65802,0.11872 -2.18991,0.34174 -2.29635,0.96281 -0.11842,0.69096 0.19474,0.80826 2.15782,0.80826 2.05092,0 2.29634,-0.10289 2.29634,-0.96278 z"
       style="fill:#84bfd9;fill-opacity:1" />
    <g
       id="g4177"
       transform="matrix(0.62522271,0.44972962,-0.44972962,0.62522271,-543.79963,-883.91821)" />
    <a
       id="a4378"
       transform="matrix(0.62522271,0.44972962,-0.44972962,0.62522271,310.46408,-221.42303)">
      <g
         id="g4323">
        <g
           id="g4384" />
      </g>
    </a>
    <a
       id="a4357"
       transform="matrix(0.62522271,0.44972962,-0.44972962,0.62522271,656.83747,27.727177)" />
  </g>
</svg>
