<?xml version="1.0" encoding="utf-8"?>
<!-- Generator: Adobe Illustrator 16.0.0, SVG Export Plug-In . SVG Version: 6.00 Build 0)  -->
<!DOCTYPE svg PUBLIC "-//W3C//DTD SVG 1.1//EN" "http://www.w3.org/Graphics/SVG/1.1/DTD/svg11.dtd">
<svg version="1.1"
	 id="enchantment_extractors" xmlns:cc="http://creativecommons.org/ns#" xmlns:dc="http://purl.org/dc/elements/1.1/" xmlns:inkscape="http://www.inkscape.org/namespaces/inkscape" xmlns:rdf="http://www.w3.org/1999/02/22-rdf-syntax-ns#" xmlns:sodipodi="http://sodipodi.sourceforge.net/DTD/sodipodi-0.dtd" xmlns:svg="http://www.w3.org/2000/svg"
	 xmlns="http://www.w3.org/2000/svg" xmlns:xlink="http://www.w3.org/1999/xlink" x="0px" y="0px" width="511.473px"
	 height="511.476px" viewBox="0 0 511.473 511.476" enable-background="new 0 0 511.473 511.476" xml:space="preserve">
<rect fill="#FFFFFF" width="511.473" height="511.476"/>
<g id="Icon">
	<g id="layer1" inkscape:label="Layer 1" inkscape:groupmode="layer">
		<g id="g4326" transform="matrix(1.3256076,0,0,1.3256076,-125.82858,-249.16776)">
			<rect id="rect4275" x="197.266" y="430.222" fill="#4AA0C7" width="180.558" height="112.587"/>
			<rect id="rect4305" x="191.345" y="426.258" fill="#3991BA" width="38.743" height="36.798"/>
			<rect id="rect4307" x="345.596" y="426.112" fill="#3991BA" width="38.746" height="36.797"/>
		</g>
		<g id="g4322" transform="matrix(1.3256076,0,0,1.3256076,-125.82858,-249.16776)">
			
				<path id="rect4286" inkscape:transform-center-x="91.746555" inkscape:transform-center-y="-32.314978" sodipodi:nodetypes="cccccccc" inkscape:connector-curvature="0" fill="#4AA0C7" d="
				M206.117,398.522l87.441,19.904l-3.987,12.708l-87.413-19.899l-2.261-0.536l0.431-1.694l2.269,0.551L206.117,398.522z"/>
			
				<path id="path4320" inkscape:transform-center-x="-91.746555" inkscape:transform-center-y="-32.314978" sodipodi:nodetypes="cccccccc" inkscape:connector-curvature="0" fill="#4AA0C7" d="
				M369.827,398.522l-87.462,19.904l3.987,12.708l87.431-19.899l2.258-0.536l-0.43-1.694l-2.284,0.551L369.827,398.522z"/>
		</g>
		<g id="layer1-0" transform="matrix(0.77016892,0,0,0.77016892,104.28632,-174.7619)" inkscape:label="Layer 1">
			<g id="g4331">
				<g id="g4706">
				</g>
			</g>
			<g id="g4177" transform="matrix(0.81179945,0.58393634,-0.58393634,0.81179945,-841.48546,-920.78022)">
			</g>
			<a id="a4378" transform="matrix(0.81179945,0.58393634,-0.58393634,0.81179945,267.7046,-60.585579)">
				<g id="g4323">
					<g id="g4384">
					</g>
				</g>
			</a>
			<a id="a4357" transform="matrix(0.81179945,0.58393634,-0.58393634,0.81179945,717.4415,262.91515)">
			</a>
		</g>
		<path id="path4148" inkscape:connector-curvature="0" fill="#3381A5" d="M139.142,295.254l0.569-2.251l115.841,26.147
			l116.555-26.142l0.56,2.245l-113.743,25.874h-6.242L139.142,295.254z"/>
	</g>
	<g id="layer1_2_" inkscape:label="Layer 1" inkscape:groupmode="layer">
		<g id="g4273" transform="matrix(0.77016892,0,0,0.77016892,98.28632,-176.7619)">
			<rect id="rect4150" x="94.896" y="283.81" fill="#4AA0C7" width="38.84" height="39.391"/>
			<rect id="rect4152" x="111.127" y="298.406" fill="#4AA0C7" width="38.481" height="37.932"/>
			<rect id="rect4154" x="124.436" y="314.088" fill="#4AA0C7" width="38.123" height="38.846"/>
			<rect id="rect4156" x="137.199" y="326.492" fill="#4AA0C7" width="39.572" height="39.217"/>
			<rect id="rect4158" x="154.353" y="340.535" fill="#4AA0C7" width="38.097" height="38.311"/>
			<rect id="rect4160" x="167.358" y="356.579" fill="#4AA0C7" width="38.673" height="37.946"/>
			<rect id="rect4160-9" x="180.799" y="370.082" fill="#4AA0C7" width="40.857" height="37.946"/>
			<rect id="rect4160-4" x="196.181" y="384.016" fill="#4AA0C7" width="38.673" height="39.936"/>
			<rect id="rect4160-5" x="210.532" y="399.084" fill="#4AA0C7" width="53.802" height="52.725"/>
			<rect id="rect4160-4-9" x="180.059" y="454.618" fill="#4AA0C7" width="26.255" height="26.446"/>
			<rect id="rect4160-4-9-7" x="195.738" y="441.499" fill="#4AA0C7" width="39.585" height="26.446"/>
			<rect id="rect4160-4-9-2" x="267.14" y="368.539" fill="#4AA0C7" width="26.28" height="26.446"/>
			<rect id="rect4160-4-9-7-3" x="252.371" y="383.664" fill="#4AA0C7" width="26.469" height="41.407"/>
			<rect id="rect4160-4-9-25" x="251.724" y="440.208" fill="#4AA0C7" width="26.279" height="26.448"/>
			<rect id="rect4160-4-9-25-6" x="266.351" y="454.251" fill="#4AA0C7" width="26.232" height="26.446"/>
			<rect id="rect4160-4-9-25-2" x="281.679" y="470.484" fill="#4AA0C7" width="39.346" height="39.582"/>
		</g>
		<g id="g4177_2_" transform="matrix(0.62522271,0.44972962,-0.44972962,0.62522271,-543.79963,-883.91821)">
		</g>
		<a id="a4378_2_" transform="matrix(0.62522271,0.44972962,-0.44972962,0.62522271,310.46408,-221.42303)">
			<g id="g4323_2_">
				<g id="g4384_2_">
				</g>
			</g>
		</a>
		<a id="a4357_2_" transform="matrix(0.62522271,0.44972962,-0.44972962,0.62522271,656.83747,27.727177)">
		</a>
	</g>
	<g id="layer1_1_" inkscape:label="Layer 1" inkscape:groupmode="layer">
		<g id="g4517" transform="matrix(0.77016892,0,0,0.77016892,104.28632,-174.7619)">
			
				<path id="path4407" sodipodi:nodetypes="ssscssssssssssssssssssssssssssssssssssssssssssssssssscssscsssssssssss" inkscape:connector-curvature="0" fill="#3381A5" d="
				M252.695,506.384c-0.842-2.409,0.421-10.822,1.591-10.822c0.746,0,1.159,2.109,1.151,6.031c-0.008,3.853-0.436,6.058-1.159,6.058
				C253.634,507.651,252.929,507.087,252.695,506.384z M256.952,501.594c0-4.686,0.314-6.031,1.48-6.031
				c1.164,0,1.524,1.347,1.524,6.031c0,4.711-0.36,6.057-1.524,6.057c-0.779,0-1.201-0.636-1.386-2.54
				C256.977,504.249,256.952,503.09,256.952,501.594L256.952,501.594z M84.766,364.864c0-1.154,1.285-1.51,5.54-1.51
				c4.236,0,5.539,0.348,5.539,1.51c0,1.17-1.302,1.518-5.539,1.518C86.051,366.382,84.766,366.031,84.766,364.864z
				 M235.165,556.161c0-0.831,0.898-1.503,1.974-1.503c1.121,0,2.019,0.673,2.019,1.503c0,0.853-0.898,1.503-2.019,1.503
				C236.063,557.659,235.165,556.987,235.165,556.161z M241.173,556.161c0-0.831,0.898-1.503,2.019-1.503
				c1.127,0,2.025,0.673,2.025,1.503c0,0.853-0.898,1.503-2.025,1.503C242.071,557.664,241.173,556.987,241.173,556.161z
				 M85.774,359.833c0-0.837,0.898-1.503,2.021-1.503c1.116,0,2.004,0.666,2.004,1.503c0,0.839-0.888,1.51-2.004,1.51
				C86.671,361.344,85.774,360.672,85.774,359.833z M91.807,359.833c0-0.824,0.68-1.503,1.51-1.503c0.838,0,1.518,0.68,1.518,1.503
				c0,0.831-0.681,1.51-1.518,1.51C92.487,361.343,91.807,360.664,91.807,359.833z M238.167,551.133
				c0-0.855,0.898-1.525,2.022-1.525c1.121,0,2.019,0.67,2.019,1.525c0,0.834-0.898,1.503-2.019,1.503
				C239.065,552.636,238.167,551.967,238.167,551.133z M261.362,585.583c0-1.122-0.673-2.02-1.497-2.02
				c-0.827,0-1.506-0.593-1.506-1.392c0-1.579,3.473-2.722,6.553-2.134c1.116,0.216,2.559,0.422,3.255,0.456
				c2.106,0.099,1.392,3.065-0.742,3.065c-1.344,0-2.019,0.675-2.019,2.02c0,1.349-0.669,2.024-2.02,2.024
				C262.034,587.599,261.362,586.927,261.362,585.583L261.362,585.583z M139.577,599.363c0-1.102,3.183-4.296,4.039-1.527h4.018
				v-5.021c0-3.819,0.364-5.024,1.503-5.024c1.201,0,1.527,1.391,1.527,6.549v6.552h-5.546
				C140.867,600.889,139.577,600.52,139.577,599.363z M139.577,590.793c0-1.121,0.672-2.02,1.503-2.02
				c0.855,0,1.527,0.899,1.527,2.02c0,1.125-0.672,2.02-1.527,2.02C140.25,592.813,139.577,591.918,139.577,590.793z
				 M258.361,576.457c0-1.878,0.487-2.058,5.258-1.769c4.059,0.251,5.371,0.78,5.625,2.083c0.276,1.519-0.469,1.77-5.26,1.77
				C258.929,578.536,258.361,578.316,258.361,576.457L258.361,576.457z"/>
			<g id="g4505" transform="translate(-7.7904987,-12.984165)">
				<g id="g4508">
					
						<path id="path4407-2" sodipodi:nodetypes="ssssssssssssscccsssssssssssssssssssssssssssssscssssscccssssssssssssss" inkscape:connector-curvature="0" fill="#3381A5" d="
						M289.612,450.006c3.502-3.938,3.522-5.609,0.12-5.609c-1.467,0-2.634-0.396-2.634-0.874c0-0.472,1.549-0.867,3.417-0.867
						c2.674,0,3.559,0.391,3.998,1.754c0.642,1.981-2.276,7.326-4.457,8.162C287.139,453.679,287.04,452.955,289.612,450.006z
						 M303.776,565.389c0-0.936,0.951-1.291,3.46-1.291c1.892,0,3.463-0.403,3.463-0.874c0-0.472-1.571-0.876-3.463-0.876
						c-2.509,0-3.46-0.361-3.46-1.293c0-1.005,1.071-1.314,4.774-1.314h4.776v3.488v3.484h-4.776
						C304.878,566.678,303.776,566.394,303.776,565.389L303.776,565.389z M210.629,533.299c0-1.543,4.941-10.005,5.852-10.005
						c1.158,0,0.836,1.156-2.366,8.043C213.142,533.304,210.629,534.756,210.629,533.299L210.629,533.299z M307.237,557.566
						c0-0.709,0.593-1.29,1.314-1.29c0.71,0,1.268,0.585,1.268,1.29c0,0.711-0.561,1.315-1.268,1.315
						C307.83,558.881,307.237,558.277,307.237,557.566z M208.043,524.607c0-0.734,0.56-1.316,1.316-1.316
						c0.711,0,1.267,0.585,1.267,1.316c0,0.711-0.56,1.291-1.267,1.291C208.599,525.902,208.043,525.318,208.043,524.607z
						 M140.825,482.699c0-1.733-0.421-2.174-2.178-2.174c-1.353,0-2.173-0.484-2.173-1.29c0-1.257,0.98-1.676,3.266-1.364
						c0.61,0.07,1.072-0.803,1.072-2.078c0-1.392,0.506-2.21,1.316-2.21c1.023,0,1.293,1.214,1.293,5.653
						c0,4.439-0.265,5.639-1.293,5.639C141.326,484.891,140.825,484.052,140.825,482.699z M116.959,458.934
						c0-0.727,0.775-1.307,1.737-1.307c0.969,0,1.745,0.576,1.745,1.307c0,0.715-0.775,1.294-1.745,1.294
						C117.736,460.227,116.959,459.646,116.959,458.934z M128.823,403.152c0-1.298,0.688-1.478,4.775-1.221
						c3.393,0.21,4.775,0.655,4.775,1.522c0,1.515-2.312,1.624-2.907,0.136c-0.346-0.862-0.451-0.862-0.498,0
						c-0.048,0.6-0.633,1.096-1.314,1.096c-0.679,0-1.416-0.496-1.656-1.096c-0.36-0.862-0.45-0.862-0.521,0
						C131.378,405.282,128.826,404.864,128.823,403.152L128.823,403.152z M116.959,455.018c0-1.163,0.576-1.738,1.737-1.738
						c1.166,0,1.745,0.575,1.745,1.738c0,1.167-0.576,1.745-1.745,1.745C117.537,456.763,116.959,456.185,116.959,455.018z
						 M128.826,398.458c0-1.363,0.711-1.601,4.777-1.601c3.99,0,4.775,0.246,4.775,1.537s-0.803,1.549-4.775,1.605
						C129.52,400.045,128.826,399.82,128.826,398.458L128.826,398.458z M117.176,450.452c0.552-1.634,3.265-1.867,3.265-0.266
						c0,0.8-0.756,1.364-1.814,1.364C117.564,451.547,116.964,451.098,117.176,450.452z"/>
					
						<path id="path4551-9" sodipodi:nodetypes="sssssssssssssssssssssssssssssssssssssssssssssss" inkscape:connector-curvature="0" fill="#84BFD9" d="
						M134.538,394.299c0-0.403,1.144-2.622,1.361-2.622c0.271,0,0.194,0.308-0.56,2.112
						C135.123,394.299,134.538,394.686,134.538,394.299z M135.799,379.937c0-0.273,0.258-0.345,1.118-0.345
						c0.852,0,1.118,0.072,1.118,0.345c0,0.256-0.266,0.343-1.118,0.343C136.057,380.28,135.799,380.193,135.799,379.937z
						 M136.007,378.801c0-0.195,0.194-0.344,0.42-0.344c0.219,0,0.392,0.145,0.392,0.344c0,0.181-0.166,0.343-0.392,0.343
						C136.189,379.144,136.007,378.985,136.007,378.801z M137.226,378.801c0-0.195,0.133-0.344,0.29-0.344
						c0.177,0,0.313,0.148,0.313,0.344c0,0.181-0.136,0.343-0.313,0.343C137.359,379.144,137.226,378.982,137.226,378.801z
						 M133.94,392.023c0-0.185,0.134-0.346,0.29-0.346c0.179,0,0.312,0.162,0.312,0.346c0,0.186-0.132,0.341-0.312,0.341
						C134.076,392.361,133.94,392.21,133.94,392.023z M132.28,373.495c0-0.455-0.104-0.567-0.493-0.567
						c-0.322,0-0.517-0.126-0.517-0.341c0-0.327,0.224-0.436,0.768-0.356c0.138,0.018,0.247-0.214,0.247-0.547
						c0-0.357,0.113-0.575,0.313-0.575c0.238,0,0.313,0.321,0.313,1.478c0,1.164-0.075,1.478-0.313,1.478
						C132.397,374.068,132.28,373.846,132.28,373.495L132.28,373.495z M132.242,385.147c0-0.259-0.131-0.458-0.313-0.458
						c-0.155,0-0.312-0.148-0.312-0.315c0-0.351,0.716-0.621,1.326-0.496c0.224,0.053,0.518,0.096,0.664,0.104
						c0.429,0.037,0.271,0.708-0.159,0.708c-0.267,0-0.402,0.149-0.402,0.46c0,0.297-0.128,0.457-0.417,0.457
						C132.367,385.606,132.242,385.447,132.242,385.147L132.242,385.147z M131.617,383.077c0-0.417,0.104-0.462,1.075-0.392
						c0.811,0.055,1.064,0.161,1.131,0.467c0.046,0.337-0.1,0.397-1.078,0.397C131.745,383.56,131.617,383.508,131.617,383.077
						L131.617,383.077z"/>
					
						<path id="path4551-7" sodipodi:nodetypes="sssssssssssssssssssssssssssssssssssssssssssssssssscssssssssssssssssssssssssscssssssssssscssssssssssssssssssssssssscssssssscsscssscsscssssscccsssssssssssssssssssssssssssssssss" inkscape:connector-curvature="0" fill="#84BFD9" d="
						M137.723,419.603c0,0.252,0.19,0.462,0.422,0.462c0.224,0,0.397-0.209,0.397-0.462c0-0.254-0.166-0.463-0.397-0.463
						C137.914,419.14,137.723,419.349,137.723,419.603z M139.379,419.603c0,0.252,0.166,0.462,0.397,0.462
						c0.225,0,0.422-0.209,0.422-0.462c0-0.254-0.19-0.463-0.422-0.463C139.546,419.14,139.379,419.349,139.379,419.603z
						 M140.812,460.193c0,0.249,0.195,0.462,0.423,0.462c0.224,0,0.424-0.214,0.424-0.462c0-0.246-0.194-0.46-0.424-0.46
						C141.006,459.733,140.812,459.947,140.812,460.193z M142.503,380.655c0,0.557,1.559,3.54,1.842,3.54
						c0.377,0,0.269-0.407-0.748-2.84C143.299,380.655,142.503,380.144,142.503,380.655z M141.962,454.911
						c0,0.758,0.139,1.393,0.28,1.393c0.143,0,0.266,0.198,0.266,0.46c0,0.252,0.243,0.46,0.551,0.46
						c0.313,0,0.552-0.208,0.552-0.46c0-0.262,0.181-0.46,0.421-0.46c0.289,0,0.4-0.372,0.4-1.393c0-1.024-0.111-1.389-0.4-1.389
						c-0.313,0-0.421,0.364-0.421,1.389c0,1.021-0.109,1.393-0.422,1.393c-0.29,0-0.399-0.372-0.399-1.393
						c0-1.024-0.11-1.389-0.422-1.389C142.051,453.523,141.962,453.887,141.962,454.911z M144.202,400.051
						c0,0.351,0.347,0.46,1.512,0.46c1.159,0,1.513-0.108,1.513-0.46s-0.347-0.459-1.513-0.459
						C144.553,399.592,144.202,399.699,144.202,400.051z M141.768,436.708c0,0.258,0.238,0.459,0.536,0.459
						c0.305,0,0.543-0.201,0.543-0.459c0-0.252-0.238-0.46-0.543-0.46C142.006,436.248,141.768,436.456,141.768,436.708z
						 M143.399,436.708c0,0.258,0.238,0.459,0.549,0.459c0.313,0,0.552-0.201,0.552-0.459c0-0.252-0.239-0.46-0.552-0.46
						C143.635,436.248,143.399,436.456,143.399,436.708z M140.812,461.713c0,0.643-0.138,0.761-0.982,0.853
						c-1.698,0.148-1.459,0.854,0.285,0.854h1.54v-1.215c0-0.893-0.114-1.229-0.422-1.229
						C140.985,460.97,140.812,461.243,140.812,461.713z M144.489,401.578c0,0.266,0.238,0.47,0.534,0.47
						c0.306,0,0.543-0.203,0.543-0.47c0-0.25-0.238-0.457-0.543-0.457C144.728,401.121,144.489,401.329,144.489,401.578z
						 M146.119,401.578c0,0.263,0.193,0.47,0.423,0.47c0.228,0,0.398-0.207,0.398-0.47c0-0.247-0.17-0.457-0.398-0.457
						C146.312,401.121,146.119,401.331,146.119,401.578z M142.584,438.246c0,0.258,0.238,0.466,0.55,0.466
						c0.289,0,0.545-0.208,0.545-0.466c0-0.265-0.255-0.468-0.545-0.468C142.821,437.779,142.584,437.99,142.584,438.246z
						 M137.852,422.212c-0.184,0.365,0.072,0.919,0.433,0.919c0.138,0,0.252-0.275,0.252-0.613
						C138.537,421.876,138.153,421.699,137.852,422.212L137.852,422.212z M139.546,422.335c0.471,0,0.072,0.86,0.413,0.621
						c0.302-0.218,0.289-1.059-0.01-1.059C139.8,421.916,139.636,422.101,139.546,422.335z M141.691,383.736
						c0,0.247,0.19,0.46,0.421,0.46c0.224,0,0.398-0.212,0.398-0.46c0-0.254-0.166-0.465-0.398-0.465
						C141.883,383.271,141.691,383.482,141.691,383.736z M141.226,428.459c-0.224,1.703-0.095,2.492,0.429,2.492
						c0.276,0,0.409-0.408,0.481-1.459c0.085-1.434,0.1-1.448,1.021-1.448c0.659,0,0.936-0.148,0.936-0.47
						c0-0.353-0.333-0.462-1.352-0.462h-1.347L141.226,428.459z M139.456,408.734c0,0.617-0.134,0.768-0.687,0.768
						c-0.404,0-0.685,0.174-0.685,0.46c0,0.445,0.313,0.589,1.022,0.491c0.2-0.034,0.344,0.274,0.344,0.72
						c0,0.487,0.171,0.783,0.422,0.783c0.323,0,0.422-0.432,0.422-1.998c0-1.571-0.09-1.991-0.422-1.991
						C139.624,407.974,139.456,408.258,139.456,408.734z M139.397,393.011c0,0.344-0.19,0.615-0.422,0.615
						c-0.226,0-0.401,0.193-0.401,0.428c0,0.481,0.943,0.831,1.766,0.658c0.308-0.067,0.698-0.125,0.893-0.133
						c0.574-0.046,0.372-0.953-0.208-0.953c-0.362,0-0.552-0.194-0.552-0.615c0-0.408-0.167-0.614-0.529-0.614
						C139.567,392.393,139.397,392.604,139.397,393.011z M143.64,411.128c0,0.257,0.238,0.465,0.55,0.465
						c0.314,0,0.552-0.208,0.552-0.465c0-0.261-0.238-0.465-0.552-0.465C143.878,410.663,143.64,410.867,143.64,411.128z
						 M144.962,390.025c0,0.476-0.162,0.761-0.422,0.761c-0.226,0-0.397,0.213-0.397,0.464c0,0.26,0.161,0.46,0.38,0.46
						c0.218,0,0.436,0.314,0.474,0.688c0.06,0.383,0.308,0.732,0.564,0.784c0.427,0.093,0.472-0.16,0.472-1.908
						c0-1.82-0.041-2.021-0.526-2.021C145.1,389.26,144.962,389.469,144.962,390.025z M140.189,444.633
						c0,0.332,0.299,0.46,1.082,0.46h1.1v1.531c0,1.173,0.104,1.54,0.422,1.54c0.327,0,0.398-0.433,0.398-1.998v-1.99h-1.498
						C140.538,444.171,140.189,444.279,140.189,444.633z M142.565,470.501c0,0.46,0.221,0.509,1.503,0.437
						c1.054-0.082,1.498-0.23,1.498-0.542c0-0.541-0.713-0.571-0.912-0.054c-0.114,0.305-0.138,0.305-0.152,0
						c-0.009-0.198-0.205-0.384-0.418-0.384c-0.218,0-0.451,0.185-0.509,0.384c-0.113,0.305-0.162,0.305-0.176,0
						C143.372,469.74,142.565,469.888,142.565,470.501L142.565,470.501z M143.64,412.512c0,0.399,0.19,0.604,0.55,0.604
						c0.362,0,0.552-0.2,0.552-0.604c0-0.42-0.19-0.624-0.552-0.624C143.83,411.888,143.64,412.091,143.64,412.512z M146.327,391.25
						c0,0.26,0.123,0.46,0.266,0.46c0.165,0,0.285-0.2,0.285-0.46c0-0.25-0.12-0.464-0.285-0.464
						C146.445,390.786,146.327,390.999,146.327,391.25z M140.189,447.24c0,0.344,0.17,0.605,0.401,0.605
						c0.237,0,0.421-0.261,0.421-0.605c0-0.341-0.188-0.621-0.421-0.621C140.359,446.618,140.189,446.899,140.189,447.24z
						 M143.415,430.181c-0.184,0.372,0.07,0.931,0.432,0.931c0.133,0,0.252-0.29,0.252-0.632
						C144.099,429.849,143.717,429.671,143.415,430.181z M142.565,472.156c0,0.491,0.228,0.561,1.503,0.561
						c1.255,0,1.498-0.079,1.498-0.535s-0.247-0.548-1.498-0.563C142.787,471.593,142.565,471.666,142.565,472.156L142.565,472.156z
						 M138.583,395.801c0,0.59,0.128,0.628,1.416,0.537c1.108-0.082,1.459-0.223,1.535-0.632c0.063-0.465-0.139-0.54-1.44-0.54
						C138.737,395.16,138.583,395.228,138.583,395.801z M143.717,414.118c0.161,0.576,1.023,0.67,1.023,0.105
						c0-0.288-0.233-0.479-0.567-0.479C143.84,413.737,143.643,413.895,143.717,414.118z"/>
					
						<path id="path4551-4" sodipodi:nodetypes="sssssssssssssssssssssssssssssssssssssssssssssssssscssssssssssssssssssssssssscssssssssssscssssssssssssssssssssssssscssssssscsscssscsscssssscccsssssssssssssssssssssssssssssssss" inkscape:connector-curvature="0" fill="#84BFD9" d="
						M252.001,528.406c0-0.208-0.18-0.366-0.411-0.366c-0.233,0-0.425,0.157-0.425,0.366c0,0.211,0.191,0.374,0.425,0.374
						C251.82,528.78,252.001,528.617,252.001,528.406z M250.333,528.406c0-0.208-0.191-0.366-0.42-0.366
						c-0.232,0-0.374,0.157-0.374,0.366c0,0.211,0.142,0.374,0.374,0.374C250.142,528.78,250.333,528.617,250.333,528.406z
						 M248.898,495.398c0-0.198-0.193-0.367-0.423-0.367c-0.223,0-0.421,0.165-0.421,0.367c0,0.21,0.193,0.393,0.421,0.393
						C248.705,495.791,248.898,495.608,248.898,495.398z M247.182,560.075c0-0.451-1.509-2.869-1.833-2.869
						c-0.335,0-0.251,0.333,0.789,2.301C246.411,560.075,247.182,560.502,247.182,560.075L247.182,560.075z M247.755,499.698
						c0-0.605-0.145-1.127-0.264-1.127c-0.165,0-0.309-0.153-0.309-0.366s-0.238-0.37-0.527-0.37s-0.527,0.157-0.527,0.37
						c0,0.208-0.19,0.366-0.421,0.366c-0.337,0-0.421,0.3-0.421,1.127c0,0.849,0.084,1.129,0.421,1.129
						c0.289,0,0.421-0.28,0.421-1.129c0-0.826,0.086-1.127,0.375-1.127c0.337,0,0.421,0.3,0.421,1.127
						c0,0.849,0.132,1.129,0.421,1.129C247.623,500.822,247.755,500.529,247.755,499.698z M245.506,544.305
						c0-0.276-0.37-0.369-1.52-0.369c-1.151,0-1.473,0.092-1.473,0.369c0,0.299,0.322,0.391,1.473,0.391
						C245.133,544.695,245.506,544.603,245.506,544.305z M247.963,514.514c0-0.213-0.236-0.394-0.573-0.394
						c-0.289,0-0.527,0.182-0.527,0.394c0,0.196,0.236,0.366,0.527,0.366C247.727,514.881,247.963,514.71,247.963,514.514z
						 M246.29,514.514c0-0.213-0.238-0.394-0.527-0.394c-0.289,0-0.528,0.182-0.528,0.394c0,0.196,0.238,0.366,0.528,0.366
						C246.051,514.88,246.29,514.71,246.29,514.514z M248.898,494.162c0-0.508,0.118-0.614,0.979-0.689
						c1.726-0.129,1.487-0.698-0.284-0.698h-1.539v1.004c0,0.713,0.137,1.001,0.421,1.001
						C248.725,494.784,248.898,494.552,248.898,494.162L248.898,494.162z M245.245,543.055c0-0.213-0.236-0.366-0.576-0.366
						c-0.289,0-0.526,0.156-0.526,0.366c0,0.213,0.237,0.394,0.526,0.394C245.001,543.449,245.245,543.268,245.245,543.055z
						 M243.603,543.055c0-0.205-0.18-0.366-0.408-0.366c-0.226,0-0.424,0.156-0.424,0.366c0,0.209,0.19,0.394,0.424,0.394
						C243.418,543.449,243.603,543.268,243.603,543.055z M247.126,513.264c0-0.213-0.238-0.391-0.527-0.391
						c-0.332,0-0.573,0.177-0.573,0.391c0,0.193,0.238,0.369,0.573,0.369C246.888,513.633,247.126,513.457,247.126,513.264z
						 M251.859,526.283c0.203-0.285-0.048-0.74-0.434-0.74c-0.161,0-0.252,0.225-0.252,0.488
						C251.17,526.57,251.58,526.708,251.859,526.283L251.859,526.283z M250.142,526.197c-0.47,0-0.047-0.715-0.364-0.516
						c-0.342,0.188-0.337,0.86,0.01,0.86C249.892,526.549,250.077,526.374,250.142,526.197z M248.02,557.574
						c0-0.208-0.191-0.366-0.422-0.366c-0.228,0-0.421,0.156-0.421,0.366c0,0.214,0.193,0.393,0.421,0.393
						C247.829,557.967,248.02,557.785,248.02,557.574z M248.484,521.218c0.226-1.399,0.075-2.03-0.429-2.03
						c-0.278,0-0.435,0.339-0.481,1.175c-0.063,1.184-0.076,1.197-0.999,1.197c-0.659,0-0.984,0.113-0.984,0.369
						c0,0.295,0.358,0.366,1.354,0.366h1.353L248.484,521.218z M250.257,537.25c0-0.49,0.11-0.621,0.685-0.621
						c0.43,0,0.686-0.152,0.686-0.385c0-0.356-0.29-0.474-1.049-0.381c-0.15,0.018-0.317-0.228-0.317-0.591
						c0-0.404-0.172-0.643-0.421-0.643c-0.302,0-0.421,0.346-0.421,1.615c0,1.267,0.114,1.632,0.421,1.632
						C250.087,537.886,250.257,537.633,250.257,537.25L250.257,537.25z M250.313,550.039c0-0.289,0.19-0.512,0.421-0.512
						c0.223,0,0.421-0.146,0.421-0.347c0-0.38-0.938-0.675-1.785-0.539c-0.284,0.061-0.697,0.1-0.893,0.113
						c-0.559,0.046-0.396,0.77,0.208,0.77c0.385,0,0.528,0.177,0.528,0.512c0,0.333,0.19,0.488,0.576,0.488
						C250.12,550.532,250.313,550.378,250.313,550.039L250.313,550.039z M246.046,535.31c0-0.21-0.238-0.366-0.527-0.366
						c-0.287,0-0.525,0.157-0.525,0.366c0,0.214,0.238,0.37,0.525,0.37C245.803,535.675,246.046,535.521,246.046,535.31z
						 M244.776,552.462c0-0.375,0.124-0.613,0.379-0.613c0.222,0,0.417-0.18,0.417-0.394c0-0.213-0.188-0.366-0.355-0.366
						c-0.218,0-0.434-0.247-0.477-0.56c-0.079-0.313-0.327-0.589-0.585-0.651c-0.426-0.058-0.469,0.149-0.469,1.565
						c0,1.475,0.043,1.653,0.527,1.653C244.611,553.1,244.776,552.92,244.776,552.462L244.776,552.462z M249.547,508.07
						c0-0.277-0.337-0.37-1.101-0.37h-1.104v-1.246c0-0.96-0.079-1.249-0.421-1.249c-0.299,0-0.421,0.346-0.421,1.616v1.615h1.525
						C249.172,508.435,249.547,508.343,249.547,508.07L249.547,508.07z M247.144,487.032c0-0.378-0.223-0.417-1.476-0.359
						c-1.08,0.066-1.523,0.191-1.523,0.439c0,0.438,0.714,0.464,0.912,0.053c0.089-0.27,0.162-0.27,0.175,0
						c0.008,0.159,0.2,0.295,0.368,0.295c0.216,0,0.451-0.137,0.558-0.295c0.089-0.27,0.114-0.27,0.127,0
						C246.361,487.647,247.144,487.524,247.144,487.032L247.144,487.032z M246.046,534.184c0-0.333-0.142-0.487-0.527-0.487
						c-0.38,0-0.525,0.153-0.525,0.487s0.142,0.489,0.525,0.489S246.046,534.517,246.046,534.184z M243.41,551.459
						c0-0.184-0.145-0.37-0.312-0.37c-0.119,0-0.266,0.16-0.266,0.37c0,0.208,0.147,0.391,0.266,0.391
						C243.265,551.85,243.41,551.669,243.41,551.459z M249.547,505.94c0-0.266-0.19-0.49-0.421-0.49
						c-0.228,0-0.421,0.224-0.421,0.49c0,0.29,0.193,0.513,0.421,0.513C249.357,506.453,249.547,506.23,249.547,505.94z
						 M246.272,519.799c0.203-0.279-0.046-0.736-0.399-0.736c-0.143,0-0.285,0.225-0.285,0.49
						C245.587,520.091,245.995,520.229,246.272,519.799z M247.144,485.692c0-0.406-0.226-0.46-1.476-0.46
						c-1.281,0-1.523,0.056-1.523,0.431c0,0.38,0.247,0.442,1.523,0.471C246.921,486.147,247.144,486.074,247.144,485.692z
						 M251.15,547.772c0-0.467-0.152-0.522-1.462-0.436c-1.059,0.053-1.432,0.169-1.487,0.504c-0.112,0.394,0.101,0.438,1.415,0.438
						C250.975,548.279,251.15,548.236,251.15,547.772z M245.99,532.867c-0.18-0.471-0.997-0.527-0.997-0.068
						c0,0.228,0.233,0.382,0.543,0.382C245.894,533.181,246.041,533.053,245.99,532.867L245.99,532.867z"/>
				</g>
			</g>
			
				<path id="path4407-4" sodipodi:nodetypes="ssssssssssssssssssssssssssssssssssssssssssssssssssssssssss" inkscape:connector-curvature="0" fill="#3381A5" d="
				M96.677,570.599c0-1.149,1.282-1.476,5.541-1.476c4.237,0,5.539,0.322,5.539,1.476c0,1.16-1.302,1.528-5.539,1.528
				C97.963,572.127,96.677,571.754,96.677,570.599z M191.35,570.946c0-0.855,0.898-1.527,2.019-1.527
				c1.125,0,2.022,0.672,2.022,1.527c0,0.808-0.898,1.48-2.022,1.48C192.249,572.426,191.35,571.754,191.35,570.946z
				 M197.392,570.946c0-0.855,0.889-1.527,2.011-1.527c1.121,0,2.019,0.672,2.019,1.527c0,0.808-0.898,1.48-2.019,1.48
				C198.279,572.426,197.392,571.754,197.392,570.946z M97.684,565.574c0-0.855,0.898-1.528,2.02-1.528
				c1.107,0,2.003,0.673,2.003,1.528s-0.896,1.524-2.003,1.524C98.583,567.101,97.684,566.429,97.684,565.574z M103.722,565.574
				c0-0.847,0.68-1.528,1.508-1.528c0.84,0,1.52,0.681,1.52,1.528c0,0.847-0.68,1.524-1.52,1.524
				C104.403,567.101,103.722,566.421,103.722,565.574z M194.376,565.876c0-0.806,0.898-1.48,2.023-1.48
				c1.12,0,2.019,0.673,2.019,1.48c0,0.855-0.899,1.527-2.019,1.527C195.273,567.402,194.376,566.73,194.376,565.876z
				 M172.489,438.566c0-1.121-0.672-2.019-1.502-2.019c-0.824,0-1.503-0.632-1.503-1.39c0-1.578,3.474-2.723,6.524-2.156
				c1.117,0.212,2.584,0.405,3.279,0.455c2.127,0.126,1.39,3.091-0.765,3.091c-1.328,0-1.996,0.672-1.996,2.019
				c0,1.347-0.675,2.009-2.024,2.009C173.156,440.574,172.489,439.912,172.489,438.566L172.489,438.566z M158.655,499.064
				c0-1.57-0.567-2.514-1.503-2.514c-0.822,0-1.501-0.679-1.501-1.519c0-0.831,0.633-1.508,1.425-1.508
				c0.793,0,1.586-1.017,1.773-2.261c0.162-1.239,1.116-2.399,2.075-2.584c1.544-0.287,1.773,0.526,1.773,6.289
				c0,5.934-0.21,6.609-2.019,6.609C159.196,501.578,158.655,500.906,158.655,499.064z M163.703,495.038
				c0-0.834,0.455-1.513,0.985-1.513c0.557,0,1.007,0.68,1.007,1.513c0,0.836-0.45,1.517-1.007,1.517
				C164.155,496.555,163.703,495.875,163.703,495.038z M169.469,429.423c0-1.882,0.502-2.061,5.273-1.748
				c4.057,0.251,5.346,0.739,5.598,2.083c0.299,1.504-0.471,1.771-5.259,1.771C170.077,431.523,169.469,431.297,169.469,429.423
				L169.469,429.423z"/>
		</g>
		<g id="g4524" transform="matrix(0.3737203,0,0,0.35380078,747.44877,102.16302)">
			<g id="g4528" transform="translate(247.6396,-202.85131)">
				<g id="g4530">
				</g>
			</g>
			<g id="g4547" transform="matrix(0.64787483,0,0,0.76902222,-1510.1324,5.2304765)">
				<g id="g4549">
					
						<path id="path4551" sodipodi:nodetypes="sssssssssssssssssssssssssssssssssssssssssssssssssscssssssssssssssssssssssssscssssssssssscssssssssssssssssssssssssscssssssscsscssscsscssssscccsssssssssssssssssssssssssssssssss" inkscape:connector-curvature="0" fill="#84BFD9" d="
						M-61.61,190.246c0-0.704,0.619-1.299,1.337-1.299c0.71,0,1.252,0.603,1.252,1.299c0,0.725-0.561,1.299-1.252,1.299
						C-60.987,191.545-61.61,190.97-61.61,190.246z M-56.399,190.246c0-0.704,0.599-1.299,1.319-1.299
						c0.714,0,1.321,0.603,1.321,1.299c0,0.725-0.617,1.299-1.321,1.299C-55.801,191.545-56.399,190.97-56.399,190.246z
						 M-51.787,75.35c0-0.71,0.617-1.296,1.353-1.296c0.714,0,1.264,0.58,1.264,1.296c0,0.732-0.567,1.299-1.264,1.299
						C-51.17,76.65-51.787,76.094-51.787,75.35z M-46.409,300.478c0-1.547,4.955-10,5.826-10c1.216,0,0.859,1.194-2.343,8.04
						C-43.876,300.485-46.409,301.962-46.409,300.478z M-48.117,90.31c0-2.154,0.387-3.9,0.889-3.9c0.452,0,0.835-0.596,0.835-1.299
						c0-0.755,0.764-1.294,1.753-1.294c0.992,0,1.75,0.547,1.75,1.294c0,0.704,0.567,1.299,1.275,1.299
						c0.964,0,1.311,1.001,1.311,3.9c0,2.897-0.343,3.9-1.311,3.9c-0.936,0-1.275-1.003-1.275-3.9c0-2.9-0.343-3.9-1.329-3.9
						c-0.94,0-1.254,1.001-1.254,3.9c0,2.897-0.347,3.9-1.331,3.9C-47.813,94.21-48.117,93.207-48.117,90.31z M-40.998,245.601
						c0-1.01,1.107-1.298,4.775-1.298c3.697,0,4.82,0.3,4.82,1.298c0,1.005-1.123,1.306-4.82,1.306
						C-39.891,246.912-40.998,246.643-40.998,245.601z M-48.742,141.834c0-0.725,0.768-1.292,1.708-1.292
						c0.952,0,1.716,0.567,1.716,1.292c0,0.757-0.764,1.31-1.716,1.31C-47.974,143.131-48.742,142.591-48.742,141.834z
						 M-43.567,141.834c0-0.725,0.762-1.292,1.75-1.292c0.942,0,1.746,0.567,1.746,1.292c0,0.757-0.805,1.31-1.746,1.31
						C-42.793,143.131-43.567,142.591-43.567,141.834z M-51.787,71.056c0-1.818-0.439-2.157-3.178-2.378
						c-5.409-0.474-4.616-2.451,0.952-2.451h4.848v3.487c0,2.514-0.337,3.485-1.277,3.485
						C-51.235,73.202-51.787,72.357-51.787,71.056z M-40.089,241.276c0-0.709,0.774-1.301,1.7-1.301
						c0.974,0,1.732,0.589,1.732,1.301c0,0.705-0.758,1.294-1.732,1.294C-39.314,242.569-40.089,241.981-40.089,241.276z
						 M-34.89,241.276c0-0.702,0.619-1.301,1.317-1.301c0.722,0,1.266,0.596,1.266,1.301c0,0.698-0.544,1.294-1.266,1.294
						C-34.271,242.571-34.89,241.972-34.89,241.276z M-46.143,137.507c0-0.705,0.764-1.301,1.752-1.301
						c0.899,0,1.684,0.592,1.684,1.301c0,0.703-0.784,1.299-1.684,1.299C-45.382,138.806-46.143,138.21-46.143,137.507z
						 M-61.187,182.868c-0.615-1.018,0.222-2.608,1.384-2.608c0.432,0,0.786,0.773,0.786,1.734
						C-59.017,183.826-60.231,184.357-61.187,182.868z M-55.801,182.518c1.5,0,0.206-2.428,1.291-1.73
						c0.932,0.587,0.916,2.967-0.063,2.967C-55.014,183.754-55.522,183.18-55.801,182.518L-55.801,182.518z M-48.998,291.778
						c0-0.702,0.603-1.299,1.301-1.299c0.704,0,1.285,0.605,1.285,1.299c0,0.725-0.591,1.301-1.285,1.301
						C-48.395,293.079-48.998,292.503-48.998,291.778z M-50.446,165.177c-0.728-4.815-0.314-7.051,1.363-7.051
						c0.883,0,1.331,1.192,1.537,4.138c0.282,4.097,0.319,4.14,3.257,4.14c2.093,0,2.967,0.377,2.967,1.292
						c0,0.982-1.051,1.301-4.298,1.301h-4.277L-50.446,165.177z M-56.101,221.038c0-1.751-0.422-2.195-2.174-2.195
						c-1.323,0-2.166-0.458-2.166-1.301c0-1.265,0.984-1.647,3.243-1.344c0.647,0.057,1.087-0.831,1.087-2.087
						c0-1.384,0.539-2.216,1.347-2.216c1.031,0,1.272,1.195,1.272,5.648c0,4.451-0.252,5.682-1.272,5.682
						C-55.563,223.225-56.101,222.375-56.101,221.038z M-56.268,265.526c0-0.971-0.611-1.735-1.333-1.735s-1.303-0.556-1.303-1.229
						c0-1.346,3.035-2.331,5.645-1.836c0.98,0.181,2.227,0.386,2.837,0.407c1.823,0.093,1.184,2.658-0.667,2.658
						c-1.145,0-1.742,0.587-1.742,1.727c0,1.165-0.545,1.753-1.696,1.753C-55.744,267.271-56.268,266.689-56.268,265.526
						L-56.268,265.526z M-42.773,214.277c0-0.705,0.774-1.299,1.742-1.299c0.988,0,1.749,0.594,1.749,1.299
						c0,0.711-0.764,1.299-1.749,1.299C-41.999,215.577-42.773,214.988-42.773,214.277z M-38.576,274.009
						c0-1.335-0.516-2.193-1.339-2.193c-0.716,0-1.284-0.598-1.284-1.294c0-0.704,0.544-1.301,1.24-1.301
						c0.686,0,1.383-0.899,1.504-1.938c0.202-1.088,0.98-2.093,1.799-2.238c1.355-0.269,1.531,0.42,1.531,5.425
						c0,5.136-0.159,5.719-1.702,5.719C-38.133,276.19-38.576,275.607-38.576,274.009z M-53.768,119.45
						c0-0.942,0.94-1.33,3.452-1.33h3.485v-4.339c0-3.268,0.327-4.356,1.313-4.356c1.006,0,1.279,1.222,1.279,5.657v5.671H-49
						C-52.667,120.754-53.768,120.449-53.768,119.45z M-46.213,46.236c0-1.303,0.696-1.513,4.767-1.235
						c3.362,0.188,4.761,0.646,4.761,1.531c0,1.495-2.271,1.626-2.892,0.117c-0.351-0.872-0.434-0.872-0.482,0
						c-0.03,0.603-0.641,1.082-1.319,1.082c-0.686,0-1.428-0.479-1.672-1.082c-0.351-0.872-0.458-0.872-0.506,0
						C-43.628,48.34-46.209,47.918-46.213,46.236z M-42.773,210.378c0-1.186,0.609-1.78,1.742-1.78c1.147,0,1.749,0.594,1.749,1.78
						c0,1.12-0.609,1.705-1.749,1.705C-42.176,212.083-42.773,211.497-42.773,210.378z M-34.242,270.522
						c0-0.704,0.391-1.301,0.843-1.301c0.482,0,0.904,0.596,0.904,1.301c0,0.696-0.422,1.294-0.904,1.294
						C-33.851,271.816-34.242,271.219-34.242,270.522z M-53.768,112.065c0-0.967,0.544-1.76,1.26-1.76
						c0.722,0,1.337,0.793,1.337,1.76c0,0.966-0.615,1.716-1.337,1.716C-53.223,113.773-53.768,113.03-53.768,112.065z
						 M-43.503,160.308c-0.615-1.009,0.222-2.597,1.384-2.597c0.432,0,0.786,0.754,0.786,1.707
						C-41.333,161.277-42.547,161.763-43.503,160.308z M-46.209,41.508c0-1.35,0.74-1.604,4.771-1.604
						c3.991,0,4.757,0.262,4.757,1.554c0,1.285-0.787,1.561-4.757,1.604C-45.491,43.098-46.209,42.87-46.209,41.508z
						 M-58.914,257.648c0-1.635,0.466-1.791,4.553-1.534c3.523,0.24,4.636,0.641,4.858,1.832c0.234,1.292-0.423,1.495-4.552,1.495
						C-58.388,259.441-58.914,259.256-58.914,257.648L-58.914,257.648z M-42.539,205.789c0.528-1.644,3.257-1.854,3.257-0.25
						c0,0.77-0.744,1.351-1.813,1.351C-42.152,206.891-42.773,206.428-42.539,205.789z"/>
				</g>
			</g>
		</g>
		
			<path id="path4551-5" sodipodi:nodetypes="sssssssssssssssssssssssssssssssssssssssssscssssssscssssssssss" inkscape:connector-curvature="0" fill="#84BFD9" d="
			M176.007,97.804c0-0.429-1.198-2.732-1.421-2.732c-0.287,0-0.2,0.319,0.579,2.188C175.396,97.804,176.007,98.197,176.007,97.804
			L176.007,97.804z M174.696,82.868c0-0.272-0.271-0.354-1.163-0.354c-0.894,0-1.16,0.082-1.16,0.354
			c0,0.271,0.267,0.351,1.16,0.351C174.428,83.226,174.696,83.139,174.696,82.868z M174.475,81.686c0-0.196-0.183-0.354-0.419-0.354
			c-0.23,0-0.414,0.157-0.414,0.354c0,0.202,0.185,0.352,0.414,0.352C174.29,82.038,174.475,81.888,174.475,81.686z M173.22,81.686
			c0-0.189-0.15-0.354-0.322-0.354c-0.174,0-0.306,0.165-0.306,0.354c0,0.192,0.132,0.352,0.306,0.352
			C173.07,82.038,173.22,81.878,173.22,81.686z M176.631,95.436c0-0.198-0.15-0.353-0.323-0.353c-0.173,0-0.305,0.155-0.305,0.353
			c0,0.192,0.132,0.352,0.305,0.352C176.48,95.789,176.631,95.629,176.631,95.436z M178.341,76.179c0-0.47,0.116-0.591,0.525-0.591
			c0.326,0,0.524-0.132,0.524-0.352c0-0.34-0.23-0.455-0.788-0.372c-0.142,0.017-0.263-0.218-0.263-0.561
			c0-0.379-0.117-0.603-0.31-0.603c-0.249,0-0.322,0.331-0.322,1.536c0,1.21,0.073,1.542,0.322,1.542
			C178.222,76.772,178.341,76.542,178.341,76.179L178.341,76.179z M178.397,88.288c0-0.261,0.144-0.476,0.321-0.476
			c0.174,0,0.305-0.143,0.305-0.318c0-0.376-0.721-0.645-1.353-0.507c-0.24,0.044-0.551,0.093-0.69,0.108
			c-0.445,0.029-0.299,0.725,0.16,0.725c0.275,0,0.414,0.156,0.414,0.475c0,0.312,0.14,0.47,0.42,0.47
			C178.255,88.759,178.397,88.6,178.397,88.288z M174.115,90.592c0-0.371,0.119-0.594,0.322-0.594c0.174,0,0.309-0.152,0.309-0.352
			c0-0.188-0.126-0.352-0.295-0.352c-0.168,0-0.336-0.232-0.365-0.53c-0.047-0.291-0.237-0.558-0.435-0.61
			c-0.327-0.07-0.378,0.129-0.378,1.476c0,1.399,0.045,1.551,0.422,1.551C174.008,91.179,174.115,91.027,174.115,90.592
			L174.115,90.592z M173.06,89.639c0-0.187-0.095-0.352-0.202-0.352c-0.123,0-0.219,0.165-0.219,0.352
			c0,0.193,0.096,0.354,0.219,0.354C172.966,89.993,173.06,89.846,173.06,89.639z M179.023,86.138c0-0.443-0.098-0.478-1.092-0.413
			c-0.852,0.062-1.123,0.183-1.185,0.497c-0.051,0.351,0.104,0.411,1.11,0.411C178.907,86.632,179.023,86.576,179.023,86.138
			L179.023,86.138z"/>
		
			<path id="path4551-0" sodipodi:nodetypes="sssssssssssssssssssssssssssssssssssssssssssssssssscssssssssssssssssssssssssscssssssssssscssssssssssssssssssssssssscssssssscsscssscsscssssscccsssssssssssssssssssssssssssssssss" inkscape:connector-curvature="0" fill="#84BFD9" d="
			M313.05,225.745c0,0.187-0.146,0.352-0.324,0.352c-0.172,0-0.322-0.165-0.322-0.352c0-0.208,0.15-0.353,0.322-0.353
			C312.899,225.392,313.05,225.534,313.05,225.745z M311.794,225.745c0,0.187-0.145,0.352-0.316,0.352
			c-0.18,0-0.324-0.165-0.324-0.352c0-0.208,0.145-0.353,0.324-0.353C311.649,225.392,311.794,225.534,311.794,225.745z
			 M310.653,256.995c0,0.188-0.146,0.352-0.324,0.352c-0.172,0-0.285-0.164-0.285-0.352c0-0.189,0.113-0.354,0.285-0.354
			C310.5,256.638,310.653,256.802,310.653,256.995z M309.367,195.733c0,0.429-1.199,2.733-1.41,2.733
			c-0.3,0-0.203-0.315,0.566-2.189C308.738,195.733,309.367,195.349,309.367,195.733L309.367,195.733z M309.77,252.934
			c0,0.572-0.076,1.063-0.201,1.063c-0.129,0-0.201,0.165-0.201,0.352c0,0.193-0.184,0.354-0.445,0.354
			c-0.223,0-0.406-0.16-0.406-0.354c0-0.187-0.15-0.352-0.324-0.352c-0.223,0-0.323-0.271-0.323-1.063
			c0-0.791,0.101-1.062,0.323-1.062c0.225,0,0.324,0.271,0.324,1.062c0,0.792,0.063,1.063,0.322,1.063
			c0.222,0,0.314-0.271,0.314-1.063c0-0.791,0.072-1.062,0.295-1.062C309.707,251.872,309.77,252.147,309.77,252.934L309.77,252.934
			z M308.037,210.669c0,0.271-0.249,0.351-1.134,0.351c-0.888,0-1.172-0.082-1.172-0.351s0.284-0.351,1.172-0.351
			C307.788,210.317,308.037,210.398,308.037,210.669z M309.934,238.904c0,0.212-0.184,0.351-0.408,0.351
			c-0.26,0-0.443-0.139-0.443-0.351c0-0.193,0.184-0.353,0.443-0.353C309.75,238.551,309.934,238.711,309.934,238.904z
			 M308.678,238.904c0,0.212-0.184,0.351-0.443,0.351c-0.223,0-0.409-0.139-0.409-0.351c0-0.193,0.187-0.353,0.409-0.353
			C308.494,238.551,308.678,238.711,308.678,238.904z M310.653,258.174c0,0.5,0.126,0.576,0.794,0.66
			c1.287,0.096,1.107,0.633-0.258,0.633h-1.147v-0.932c0-0.688,0.063-0.968,0.287-0.968
			C310.531,257.608,310.653,257.819,310.653,258.174L310.653,258.174z M307.835,211.862c0,0.191-0.186,0.351-0.408,0.351
			c-0.26,0-0.443-0.16-0.443-0.351c0-0.204,0.184-0.354,0.443-0.354C307.65,211.509,307.835,211.658,307.835,211.862z
			 M306.579,211.862c0,0.187-0.15,0.351-0.322,0.351c-0.174,0-0.324-0.164-0.324-0.351c0-0.189,0.15-0.354,0.324-0.354
			C306.433,211.509,306.579,211.673,306.579,211.862z M309.287,240.093c0,0.193-0.184,0.353-0.406,0.353s-0.408-0.16-0.408-0.353
			c0-0.194,0.186-0.352,0.408-0.352S309.287,239.903,309.287,240.093z M312.927,227.755c0.16,0.275-0.037,0.706-0.33,0.706
			c-0.084,0-0.193-0.226-0.193-0.482C312.404,227.492,312.718,227.344,312.927,227.755z M311.644,227.847
			c-0.365,0-0.048,0.65-0.314,0.47c-0.227-0.17-0.223-0.806,0.004-0.806C311.454,227.512,311.561,227.668,311.644,227.847
			L311.644,227.847z M309.977,198.108c0,0.201-0.113,0.351-0.289,0.351c-0.17,0-0.32-0.15-0.32-0.351c0-0.193,0.15-0.352,0.32-0.352
			C309.863,197.756,309.977,197.909,309.977,198.108z M310.328,232.564c0.182,1.312,0.098,1.919-0.309,1.919
			c-0.238,0-0.322-0.329-0.393-1.129c-0.051-1.115-0.061-1.127-0.768-1.127c-0.507,0-0.713-0.104-0.713-0.353
			c0-0.265,0.234-0.351,1.035-0.351h1.041L310.328,232.564z M311.698,217.367c0,0.464,0.121,0.592,0.525,0.592
			c0.33,0,0.523,0.126,0.523,0.354c0,0.334-0.223,0.453-0.768,0.37c-0.156-0.016-0.281,0.211-0.281,0.554
			c0,0.388-0.118,0.603-0.322,0.603c-0.232,0-0.287-0.332-0.287-1.527c0-1.21,0.055-1.545,0.287-1.545
			C311.58,216.774,311.698,217.001,311.698,217.367L311.698,217.367z M311.746,205.252c0,0.263,0.14,0.482,0.317,0.482
			c0.172,0,0.324,0.138,0.324,0.314c0,0.384-0.723,0.65-1.373,0.507c-0.219-0.037-0.538-0.092-0.688-0.103
			c-0.426-0.025-0.266-0.721,0.158-0.721c0.294,0,0.446-0.16,0.446-0.482c0-0.306,0.108-0.466,0.406-0.466
			C311.63,204.784,311.746,204.949,311.746,205.252L311.746,205.252z M308.49,219.205c0,0.194-0.183,0.352-0.443,0.352
			c-0.226,0-0.409-0.158-0.409-0.352c0-0.193,0.184-0.351,0.409-0.351C308.305,218.853,308.49,219.017,308.49,219.205z
			 M307.474,202.955c0,0.366,0.131,0.596,0.324,0.596c0.173,0,0.323,0.152,0.323,0.351c0,0.189-0.141,0.353-0.312,0.353
			c-0.168,0-0.336,0.227-0.365,0.528c-0.023,0.285-0.256,0.554-0.453,0.61c-0.326,0.076-0.365-0.135-0.365-1.476
			c0-1.397,0.033-1.558,0.445-1.558C307.349,202.358,307.474,202.52,307.474,202.955L307.474,202.955z M311.148,245.007
			c0,0.256-0.226,0.351-0.849,0.351h-0.848v1.192c0,0.891-0.059,1.175-0.285,1.175c-0.268,0-0.324-0.333-0.324-1.527v-1.546h1.135
			C310.863,244.653,311.152,244.733,311.148,245.007L311.148,245.007z M309.329,264.909c0,0.39-0.159,0.427-1.161,0.337
			c-0.832-0.047-1.173-0.178-1.173-0.4c0-0.398,0.552-0.421,0.707-0.029c0.1,0.226,0.121,0.226,0.135,0
			c0.016-0.164,0.155-0.303,0.325-0.303c0.172,0,0.346,0.141,0.388,0.303c0.103,0.226,0.122,0.226,0.138,0
			C308.699,264.342,309.329,264.469,309.329,264.909L309.329,264.909z M308.49,220.267c0,0.322-0.141,0.464-0.443,0.464
			c-0.259,0-0.409-0.142-0.409-0.464c0-0.322,0.146-0.464,0.409-0.464C308.344,219.804,308.49,219.945,308.49,220.267z
			 M306.423,203.904c0,0.187-0.111,0.351-0.201,0.351c-0.129,0-0.201-0.164-0.201-0.351c0-0.189,0.076-0.351,0.201-0.351
			C306.312,203.552,306.423,203.702,306.423,203.904z M311.148,247.014c0,0.262-0.146,0.464-0.322,0.464
			c-0.179,0-0.325-0.202-0.325-0.464c0-0.261,0.146-0.464,0.325-0.464C311.001,246.55,311.148,246.753,311.148,247.014z
			 M308.666,233.888c0.16,0.277-0.066,0.706-0.332,0.706c-0.121,0-0.188-0.223-0.188-0.467
			C308.141,233.627,308.421,233.479,308.666,233.888z M309.329,266.216c0,0.365-0.163,0.416-1.161,0.416
			c-0.989,0-1.173-0.057-1.173-0.404s0.189-0.406,1.173-0.453C309.166,265.763,309.329,265.847,309.329,266.216z M312.388,207.409
			c0,0.443-0.095,0.472-1.092,0.417c-0.853-0.065-1.144-0.176-1.185-0.5c-0.047-0.352,0.117-0.417,1.093-0.417
			C312.247,206.909,312.388,206.97,312.388,207.409L312.388,207.409z M308.412,221.507c-0.104,0.448-0.771,0.512-0.771,0.077
			c0-0.209,0.184-0.365,0.43-0.365C308.338,221.219,308.49,221.33,308.412,221.507z"/>
		
			<path id="path4551-2" sodipodi:nodetypes="sssssssssssssssssssssssssssssssssssssssssssssssssscssssssssssssssssssssssssscssssssssssscssssssssssssssssssssssssscssssssscsscssscssssssssssssssssssssssssssssss" inkscape:connector-curvature="0" fill="#84BFD9" d="
			M251.347,228.058c0-0.189,0.134-0.351,0.306-0.351c0.173,0,0.322,0.162,0.322,0.351c0,0.187-0.149,0.351-0.322,0.351
			C251.481,228.409,251.347,228.246,251.347,228.058z M252.603,228.058c0-0.189,0.15-0.351,0.322-0.351
			c0.175,0,0.306,0.162,0.306,0.351c0,0.187-0.13,0.351-0.306,0.351C252.755,228.41,252.603,228.246,252.603,228.058z
			 M253.726,198.843c0-0.189,0.152-0.354,0.324-0.354c0.173,0,0.304,0.165,0.304,0.354c0,0.187-0.13,0.351-0.304,0.351
			C253.878,199.194,253.726,199.036,253.726,198.843z M255.031,258.049c0-0.412,1.199-2.723,1.408-2.723
			c0.299,0,0.193,0.323-0.585,2.185C255.641,258.049,255.031,258.436,255.031,258.049L255.031,258.049z M254.609,200.864
			c0-0.589,0.094-1.061,0.202-1.061c0.13,0,0.221-0.164,0.221-0.353c0-0.205,0.184-0.352,0.425-0.352
			c0.224,0,0.427,0.147,0.427,0.352c0,0.189,0.131,0.353,0.303,0.353c0.244,0,0.306,0.271,0.306,1.061
			c0,0.788-0.063,1.063-0.306,1.063c-0.241,0-0.303-0.271-0.303-1.063c0-0.786-0.082-1.061-0.324-1.061
			c-0.242,0-0.322,0.271-0.322,1.061c0,0.788-0.082,1.063-0.304,1.063C254.69,201.928,254.609,201.656,254.609,200.864
			L254.609,200.864z M256.328,243.112c0-0.271,0.281-0.352,1.168-0.352c0.886,0,1.17,0.082,1.17,0.352
			c0,0.288-0.285,0.372-1.17,0.372C256.611,243.484,256.328,243.401,256.328,243.112z M254.445,214.884
			c0-0.196,0.183-0.356,0.427-0.356c0.243,0,0.427,0.16,0.427,0.356c0,0.208-0.184,0.355-0.427,0.355
			C254.629,215.239,254.445,215.093,254.445,214.884z M255.719,214.884c0-0.196,0.184-0.356,0.427-0.356
			c0.244,0,0.425,0.16,0.425,0.356c0,0.208-0.183,0.355-0.425,0.355C255.904,215.239,255.719,215.093,255.719,214.884z
			 M253.726,197.668c0-0.488-0.107-0.583-0.773-0.646c-1.305-0.116-0.791,0.234,0.241-0.667h1.166v0.945
			c0,0.69-0.087,0.953-0.306,0.953C253.842,198.248,253.726,198.039,253.726,197.668z M256.561,241.942
			c0-0.193,0.186-0.352,0.408-0.352c0.226,0,0.41,0.158,0.41,0.352s-0.185,0.354-0.41,0.354
			C256.746,242.295,256.561,242.131,256.561,241.942z M257.818,241.942c0-0.188,0.15-0.352,0.324-0.352
			c0.172,0,0.286,0.164,0.286,0.352c0,0.189-0.114,0.354-0.286,0.354C257.964,242.295,257.818,242.131,257.818,241.942z
			 M255.072,213.706c0-0.191,0.202-0.352,0.427-0.352c0.243,0,0.424,0.16,0.424,0.352c0,0.193-0.183,0.354-0.424,0.354
			C255.277,214.06,255.072,213.899,255.072,213.706z M251.451,226.049c-0.159-0.275,0.038-0.706,0.332-0.706
			c0.103,0,0.192,0.224,0.192,0.467C251.975,226.308,251.661,226.455,251.451,226.049z M252.755,225.954
			c0.365,0,0.033-0.648,0.294-0.468c0.247,0.168,0.244,0.804-0.004,0.804C252.944,226.291,252.819,226.135,252.755,225.954z
			 M254.404,255.684c0-0.189,0.131-0.354,0.304-0.354c0.172,0,0.324,0.165,0.324,0.354c0,0.203-0.152,0.351-0.324,0.351
			C254.535,256.035,254.404,255.89,254.404,255.684z M254.05,221.236c-0.176-1.312-0.073-1.919,0.315-1.919
			c0.233,0,0.336,0.327,0.388,1.126c0.051,1.115,0.079,1.129,0.787,1.129c0.489,0,0.717,0.103,0.717,0.351
			c0,0.267-0.258,0.352-1.039,0.352h-1.042L254.05,221.236z M252.681,236.435c0-0.464-0.103-0.593-0.524-0.593
			c-0.332,0-0.525-0.124-0.525-0.353c0-0.345,0.244-0.45,0.789-0.37c0.154,0.018,0.261-0.228,0.261-0.553
			c0-0.389,0.112-0.603,0.324-0.603c0.229,0,0.304,0.312,0.304,1.525c0,1.213-0.075,1.545-0.304,1.545
			C252.792,237.03,252.681,236.796,252.681,236.435L252.681,236.435z M252.621,248.551c0-0.271-0.126-0.482-0.306-0.482
			c-0.172,0-0.322-0.156-0.322-0.332c0-0.366,0.742-0.632,1.374-0.489c0.219,0.039,0.538,0.095,0.688,0.103
			c0.442,0.025,0.287,0.723-0.16,0.723c-0.276,0-0.425,0.158-0.425,0.482c0,0.304-0.146,0.464-0.427,0.464
			C252.763,249.019,252.621,248.855,252.621,248.551L252.621,248.551z M255.907,234.594c0-0.191,0.184-0.349,0.413-0.349
			c0.254,0,0.439,0.158,0.439,0.349c0,0.193-0.186,0.353-0.439,0.353C256.092,234.947,255.907,234.787,255.907,234.594z
			 M256.922,250.847c0-0.365-0.129-0.593-0.322-0.593c-0.172,0-0.322-0.165-0.322-0.354c0-0.188,0.141-0.352,0.309-0.352
			c0.167,0,0.336-0.244,0.365-0.529c0.023-0.285,0.22-0.555,0.417-0.61c0.328-0.073,0.402,0.117,0.402,1.476
			c0,1.399-0.07,1.56-0.443,1.56C257.012,251.443,256.922,251.283,256.922,250.847L256.922,250.847z M253.231,208.794
			c0-0.257,0.243-0.352,0.848-0.352h0.847v-1.194c0-0.889,0.076-1.185,0.304-1.185c0.249,0,0.324,0.325,0.324,1.538v1.543h-1.153
			C253.498,209.152,253.231,209.064,253.231,208.794z M255.907,233.536c0-0.324,0.128-0.482,0.413-0.482
			c0.293,0,0.439,0.158,0.439,0.482c0,0.304-0.146,0.464-0.439,0.464C256.051,234,255.907,233.836,255.907,233.536z
			 M257.974,249.897c0-0.189,0.074-0.351,0.201-0.351c0.125,0,0.201,0.162,0.201,0.351c0,0.189-0.076,0.352-0.201,0.352
			C258.048,250.249,257.974,250.09,257.974,249.897z M253.231,206.784c0-0.261,0.146-0.482,0.322-0.482
			c0.179,0,0.325,0.222,0.325,0.482c0,0.263-0.146,0.464-0.325,0.464C253.38,207.248,253.231,207.047,253.231,206.784z
			 M255.731,219.91c-0.16-0.275,0.037-0.706,0.333-0.706c0.103,0,0.191,0.206,0.191,0.464
			C256.256,220.173,255.943,220.307,255.731,219.91z M251.993,246.396c0-0.445,0.099-0.493,1.111-0.419
			c0.836,0.066,1.123,0.179,1.166,0.501c0.065,0.351-0.099,0.417-1.092,0.417C252.131,246.894,251.993,246.835,251.993,246.396
			L251.993,246.396z M255.968,232.297c0.123-0.466,0.787-0.511,0.787-0.08c0,0.211-0.184,0.365-0.454,0.365
			C256.059,232.584,255.907,232.468,255.968,232.297L255.968,232.297z"/>
		
			<path id="path4551-74" sodipodi:nodetypes="sssssssssssssssssssssssssssssssssssssssssssssssssscssssssssssssssssssssssssscssssssssssscssssssssssssssssssssssssscssssssscsscssscsscssssscccsssssssssssssssssssssssssssssssss" inkscape:connector-curvature="0" fill="#84BFD9" d="
			M212.797,231.626c0,0.201,0.132,0.373,0.304,0.373c0.173,0,0.324-0.172,0.324-0.373s-0.151-0.374-0.324-0.374
			C212.929,231.252,212.797,231.425,212.797,231.626z M214.048,231.626c0,0.201,0.149,0.373,0.322,0.373
			c0.174,0,0.306-0.172,0.306-0.373s-0.132-0.374-0.306-0.374C214.197,231.252,214.048,231.425,214.048,231.626z M215.175,265.018
			c0,0.203,0.138,0.375,0.309,0.375c0.167,0,0.319-0.172,0.319-0.375c0-0.201-0.152-0.373-0.319-0.373
			C215.309,264.649,215.175,264.817,215.175,265.018z M216.474,199.577c0,0.462,1.183,2.923,1.411,2.923
			c0.282,0,0.193-0.342-0.585-2.342C217.086,199.574,216.474,199.16,216.474,199.577L216.474,199.577z M216.053,260.669
			c0,0.637,0.093,1.155,0.202,1.155c0.129,0,0.218,0.172,0.218,0.373s0.183,0.374,0.424,0.374c0.227,0,0.409-0.169,0.409-0.374
			c0-0.201,0.152-0.373,0.325-0.373c0.243,0,0.322-0.306,0.322-1.155c0-0.849-0.081-1.12-0.322-1.12
			c-0.244,0-0.325,0.268-0.325,1.12c0,0.85-0.082,1.155-0.304,1.155c-0.244,0-0.321-0.306-0.321-1.155
			c0-0.849-0.083-1.12-0.309-1.12C216.133,259.55,216.053,259.821,216.053,260.669L216.053,260.669z M217.786,215.54
			c0,0.285,0.267,0.375,1.154,0.375c0.884,0,1.151-0.084,1.151-0.375c0-0.283-0.267-0.375-1.151-0.375
			C218.052,215.165,217.786,215.239,217.786,215.54z M215.889,245.698c0,0.201,0.183,0.374,0.424,0.374
			c0.244,0,0.428-0.168,0.428-0.374c0-0.201-0.184-0.374-0.428-0.374C216.071,245.325,215.889,245.497,215.889,245.698z
			 M217.159,245.698c0,0.201,0.187,0.374,0.41,0.374c0.244,0,0.427-0.168,0.427-0.374c0-0.201-0.183-0.374-0.427-0.374
			C217.347,245.325,217.159,245.497,217.159,245.698z M215.175,266.263c0,0.523-0.11,0.641-0.774,0.695
			c-1.307,0.143-1.128,0.711,0.239,0.711h1.166v-1.021c0-0.721-0.083-0.982-0.318-0.982
			C215.286,265.665,215.175,265.888,215.175,266.263L215.175,266.263z M217.989,216.792c0,0.219,0.183,0.392,0.425,0.392
			c0.243,0,0.427-0.168,0.427-0.392c0-0.208-0.184-0.376-0.427-0.376C218.173,216.42,217.989,216.589,217.989,216.792z
			 M219.257,216.792c0,0.219,0.136,0.392,0.31,0.392c0.172,0,0.322-0.172,0.322-0.392c0-0.204-0.15-0.376-0.322-0.376
			C219.394,216.416,219.257,216.593,219.257,216.792z M216.517,246.954c0,0.219,0.183,0.392,0.425,0.392
			c0.244,0,0.427-0.168,0.427-0.392c0-0.201-0.183-0.375-0.427-0.375C216.7,246.579,216.517,246.747,216.517,246.954z
			 M212.896,233.781c-0.16,0.292,0.037,0.746,0.319,0.746c0.115,0,0.204-0.215,0.204-0.507
			C213.419,233.487,213.106,233.35,212.896,233.781z M214.197,233.88c0.365,0,0.035,0.702,0.296,0.509
			c0.245-0.191,0.243-0.864-0.004-0.864C214.393,233.529,214.245,233.673,214.197,233.88L214.197,233.88z M215.826,202.107
			c0,0.22,0.152,0.394,0.324,0.394c0.174,0,0.323-0.174,0.323-0.394c0-0.201-0.149-0.374-0.323-0.374
			C215.979,201.734,215.826,201.907,215.826,202.107z M215.476,238.904c-0.176,1.401-0.055,2.062,0.332,2.062
			c0.235,0,0.337-0.345,0.373-1.206c0.067-1.19,0.076-1.203,0.789-1.203c0.503,0,0.731-0.112,0.731-0.375
			c0-0.279-0.259-0.374-1.042-0.374h-1.04L215.476,238.904z M214.126,222.687c0,0.489-0.104,0.628-0.525,0.628
			c-0.333,0-0.526,0.135-0.526,0.374c0,0.361,0.239,0.49,0.789,0.406c0.149-0.035,0.263,0.224,0.263,0.604
			c0,0.39,0.11,0.636,0.309,0.636c0.244,0,0.319-0.347,0.319-1.642c0-1.296-0.076-1.643-0.319-1.643
			C214.24,222.044,214.126,222.285,214.126,222.687L214.126,222.687z M214.065,209.754c0,0.275-0.128,0.488-0.304,0.488
			c-0.174,0-0.325,0.164-0.325,0.353c0,0.406,0.723,0.688,1.373,0.556c0.22-0.062,0.538-0.114,0.674-0.125
			c0.458-0.025,0.301-0.773-0.145-0.773c-0.289,0-0.427-0.155-0.427-0.495c0-0.342-0.146-0.507-0.427-0.507
			C214.208,209.25,214.065,209.412,214.065,209.754L214.065,209.754z M217.352,224.642c0,0.203,0.184,0.374,0.425,0.374
			c0.226,0,0.408-0.152,0.408-0.374c0-0.205-0.183-0.373-0.408-0.373C217.536,224.269,217.352,224.441,217.352,224.642z
			 M218.35,207.284c0,0.396-0.113,0.64-0.306,0.64c-0.172,0-0.322,0.172-0.322,0.373c0,0.208,0.14,0.379,0.29,0.379
			c0.167,0,0.338,0.253,0.384,0.574c0.029,0.306,0.221,0.607,0.437,0.64c0.308,0.078,0.366-0.121,0.366-1.575
			c0-1.492-0.053-1.662-0.427-1.662C218.475,206.65,218.35,206.818,218.35,207.284z M214.675,252.218
			c0,0.273,0.243,0.376,0.848,0.376h0.831v1.256c0,0.955,0.078,1.275,0.32,1.275c0.25,0,0.324-0.349,0.324-1.644v-1.644h-1.172
			C214.943,251.829,214.675,251.918,214.675,252.218L214.675,252.218z M216.507,273.483c0,0.404,0.168,0.441,1.154,0.382
			c0.832-0.089,1.169-0.222,1.169-0.467c0-0.463-0.568-0.481-0.701-0.028c-0.084,0.234-0.121,0.234-0.135,0
			c-0.008-0.175-0.15-0.324-0.304-0.324c-0.168,0-0.35,0.149-0.409,0.324c-0.084,0.234-0.103,0.234-0.118,0
			C217.127,272.874,216.507,273.009,216.507,273.483L216.507,273.483z M217.352,225.782c0,0.341,0.126,0.508,0.425,0.508
			c0.277,0,0.408-0.168,0.408-0.508c0-0.339-0.127-0.507-0.408-0.507C217.479,225.271,217.352,225.443,217.352,225.782z
			 M219.4,208.294c0,0.201,0.093,0.374,0.22,0.374c0.114,0,0.201-0.172,0.201-0.374s-0.093-0.373-0.201-0.373
			C219.493,207.925,219.4,208.093,219.4,208.294z M214.675,254.358c0,0.275,0.145,0.507,0.323,0.507s0.311-0.233,0.311-0.507
			c0-0.277-0.133-0.508-0.311-0.508C214.821,253.85,214.675,254.078,214.675,254.358z M217.179,240.337
			c-0.16,0.292,0.039,0.745,0.322,0.745c0.113,0,0.204-0.215,0.204-0.508C217.705,240.045,217.389,239.912,217.179,240.337
			L217.179,240.337z M216.507,274.848c0,0.424,0.172,0.473,1.154,0.473c0.981,0,1.169-0.09,1.169-0.465
			c0-0.371-0.208-0.429-1.169-0.438C216.675,274.41,216.507,274.463,216.507,274.848z M213.436,212.042
			c0,0.468,0.099,0.519,1.11,0.438c0.833-0.069,1.104-0.183,1.166-0.525c0.065-0.369-0.099-0.438-1.111-0.438
			C213.562,211.517,213.436,211.578,213.436,212.042z M217.393,227.104c0.143,0.487,0.789,0.561,0.789,0.082
			c0-0.236-0.182-0.387-0.44-0.387C217.485,226.798,217.352,226.923,217.393,227.104L217.393,227.104z"/>
		
			<path id="path4551-53" sodipodi:nodetypes="sssssssssssssssssssssssssssssssssssssssssssssssssscssssssssssssssssssssssssscssssssssssscssssssssssssssssssssssssscssssssscsscssscsscssssscccsssssssssssssssssssssssssssssssss" inkscape:connector-curvature="0" fill="#84BFD9" d="
			M221.121,165.297c0,0.168-0.151,0.298-0.324,0.298c-0.172,0-0.304-0.128-0.304-0.298c0-0.168,0.132-0.292,0.304-0.292
			C220.969,165.01,221.121,165.135,221.121,165.297z M219.846,165.297c0,0.168-0.13,0.298-0.304,0.298
			c-0.174,0-0.324-0.128-0.324-0.298c0-0.168,0.15-0.292,0.324-0.292C219.715,165.01,219.846,165.135,219.846,165.297z
			 M218.742,191.619c0,0.168-0.151,0.311-0.324,0.311c-0.172,0-0.322-0.143-0.322-0.311c0-0.167,0.15-0.292,0.322-0.292
			S218.742,191.451,218.742,191.619z M217.438,140.045c0,0.356-1.198,2.294-1.412,2.294c-0.298,0-0.209-0.267,0.568-1.844
			C216.827,140.045,217.438,139.712,217.438,140.045L217.438,140.045z M217.846,188.195c0,0.501-0.1,0.889-0.207,0.889
			c-0.112,0-0.202,0.142-0.202,0.311c0,0.167-0.183,0.292-0.427,0.292c-0.243,0-0.425-0.124-0.425-0.292
			c0-0.168-0.15-0.311-0.324-0.311c-0.225,0-0.304-0.217-0.304-0.889c0-0.662,0.082-0.89,0.304-0.89c0.244,0,0.324,0.225,0.324,0.89
			c0,0.672,0.082,0.889,0.322,0.889c0.222,0,0.304-0.217,0.304-0.889c0-0.662,0.082-0.89,0.324-0.89
			C217.779,187.305,217.846,187.529,217.846,188.195L217.846,188.195z M216.126,152.618c0,0.239-0.267,0.297-1.164,0.297
			c-0.892,0-1.158-0.063-1.158-0.297c0-0.23,0.267-0.3,1.158-0.3C215.86,152.318,216.126,152.393,216.126,152.618z M218.005,176.392
			c0,0.171-0.183,0.298-0.421,0.298c-0.23,0-0.413-0.128-0.413-0.298c0-0.168,0.183-0.291,0.413-0.291
			C217.82,176.099,218.005,176.224,218.005,176.392z M216.749,176.392c0,0.171-0.183,0.298-0.425,0.298
			c-0.242,0-0.427-0.128-0.427-0.298c0-0.168,0.184-0.291,0.427-0.291C216.567,176.102,216.749,176.224,216.749,176.392z
			 M218.742,192.601c0,0.417,0.106,0.494,0.756,0.556c1.306,0.103,1.127,0.549-0.221,0.549h-1.184v-0.796
			c0-0.579,0.085-0.797,0.324-0.797C218.608,192.118,218.742,192.303,218.742,192.601L218.742,192.601z M215.906,153.614
			c0,0.164-0.184,0.305-0.421,0.305c-0.229,0-0.412-0.141-0.412-0.305c0-0.165,0.183-0.296,0.412-0.296
			C215.721,153.318,215.906,153.449,215.906,153.614z M214.649,153.614c0,0.164-0.15,0.305-0.322,0.305
			c-0.174,0-0.306-0.141-0.306-0.305c0-0.165,0.132-0.296,0.306-0.296C214.503,153.316,214.649,153.455,214.649,153.614z
			 M217.377,177.378c0,0.168-0.183,0.31-0.425,0.31c-0.223,0-0.427-0.142-0.427-0.31c0-0.162,0.203-0.29,0.427-0.29
			C217.193,177.09,217.377,177.216,217.377,177.378z M221.016,166.99c0.142,0.236-0.056,0.592-0.33,0.592
			c-0.105,0-0.193-0.176-0.193-0.385C220.493,166.773,220.789,166.653,221.016,166.99z M219.715,167.07
			c-0.366,0-0.054,0.562-0.314,0.405c-0.225-0.141-0.224-0.686,0.004-0.686C219.516,166.791,219.649,166.928,219.715,167.07z
			 M218.067,142.045c0,0.168-0.152,0.298-0.324,0.298c-0.174,0-0.304-0.129-0.304-0.298c0-0.168,0.13-0.301,0.304-0.301
			C217.914,141.744,218.067,141.877,218.067,142.045z M218.418,171.046c0.177,1.098,0.075,1.608-0.332,1.608
			c-0.215,0-0.336-0.267-0.37-0.944c-0.069-0.926-0.079-0.938-0.786-0.938c-0.507,0-0.719-0.1-0.719-0.31
			c0-0.218,0.259-0.292,1.042-0.292h1.025L218.418,171.046z M219.787,158.253c0,0.397,0.103,0.496,0.525,0.496
			c0.313,0,0.523,0.115,0.523,0.305c0,0.29-0.241,0.381-0.787,0.311c-0.155-0.014-0.262,0.182-0.262,0.486
			c0,0.304-0.131,0.499-0.322,0.499c-0.25,0-0.324-0.283-0.324-1.287c0-1.023,0.074-1.299,0.324-1.299
			C219.657,157.76,219.787,157.945,219.787,158.253z M219.83,148.064c0,0.217,0.145,0.395,0.322,0.395
			c0.173,0,0.306,0.127,0.306,0.278c0,0.309-0.723,0.546-1.354,0.421c-0.238-0.039-0.538-0.081-0.69-0.088
			c-0.443-0.027-0.285-0.61,0.16-0.61c0.274,0,0.427-0.13,0.427-0.394c0-0.267,0.125-0.403,0.406-0.403
			C219.707,147.663,219.83,147.797,219.83,148.064L219.83,148.064z M216.56,159.801c0,0.168-0.183,0.309-0.425,0.309
			c-0.244,0-0.427-0.141-0.427-0.309c0-0.168,0.183-0.292,0.427-0.292C216.377,159.509,216.56,159.632,216.56,159.801z
			 M215.544,146.127c0,0.3,0.119,0.492,0.324,0.492c0.172,0,0.304,0.136,0.304,0.305s-0.124,0.292-0.292,0.292
			s-0.336,0.2-0.365,0.446c-0.046,0.247-0.238,0.483-0.435,0.512c-0.327,0.065-0.375-0.099-0.375-1.239
			c0-1.176,0.042-1.308,0.417-1.308C215.439,145.625,215.544,145.754,215.544,146.127L215.544,146.127z M219.218,181.53
			c0,0.208-0.237,0.292-0.829,0.292h-0.848v1.004c0,0.742-0.079,0.991-0.322,0.991c-0.229,0-0.306-0.275-0.306-1.3v-1.299h1.154
			C218.951,181.221,219.218,181.295,219.218,181.53L219.218,181.53z M217.389,198.306c0,0.292-0.168,0.33-1.151,0.275
			c-0.813-0.056-1.154-0.154-1.154-0.347c0-0.348,0.549-0.366,0.701-0.031c0.087,0.199,0.104,0.199,0.118,0
			c0.012-0.141,0.154-0.243,0.322-0.243c0.17,0,0.349,0.107,0.39,0.243c0.088,0.199,0.121,0.199,0.136,0
			C216.766,197.809,217.389,197.905,217.389,198.306L217.389,198.306z M216.56,160.695c0,0.268-0.146,0.4-0.425,0.4
			c-0.277,0-0.427-0.135-0.427-0.4c0-0.26,0.146-0.394,0.427-0.394C216.414,160.303,216.56,160.427,216.56,160.695z M214.495,146.92
			c0,0.167-0.095,0.292-0.201,0.292c-0.131,0-0.222-0.126-0.222-0.292c0-0.168,0.095-0.309,0.222-0.309
			C214.401,146.61,214.495,146.756,214.495,146.92z M219.218,183.216c0,0.23-0.126,0.407-0.303,0.407
			c-0.185,0-0.324-0.178-0.324-0.407c0-0.21,0.14-0.389,0.324-0.389C219.091,182.827,219.218,182.992,219.218,183.216z
			 M216.737,172.163c0.147,0.231-0.058,0.592-0.332,0.592c-0.103,0-0.194-0.177-0.194-0.394
			C216.207,171.941,216.507,171.83,216.737,172.163z M217.389,199.376c0,0.306-0.172,0.361-1.151,0.361
			c-0.971,0-1.154-0.06-1.154-0.353c0-0.287,0.189-0.352,1.154-0.362C217.218,199.014,217.389,199.054,217.389,199.376z
			 M220.458,149.865c0,0.381-0.101,0.406-1.092,0.347c-0.852-0.047-1.125-0.138-1.185-0.404c-0.047-0.301,0.103-0.348,1.109-0.348
			C220.337,149.457,220.458,149.49,220.458,149.865z M216.501,161.74c-0.123,0.385-0.789,0.426-0.789,0.064
			c0-0.181,0.183-0.309,0.438-0.309C216.41,161.495,216.56,161.602,216.501,161.74z"/>
		
			<path id="path4551-03" sodipodi:nodetypes="sssssssssssssssssssssssssssssssssssssssssssssssssscssssssssssssssssssssssssscssssssssssscssssssssssssssssssssssssscssssssscsscssscsscssssscccsssssssssssssssssssssssssssssssss" inkscape:connector-curvature="0" fill="#84BFD9" d="
			M224.532,172.387c0-0.187,0.15-0.351,0.324-0.351c0.163,0,0.304,0.164,0.304,0.351c0,0.195-0.141,0.354-0.304,0.354
			C224.682,172.744,224.532,172.586,224.532,172.387z M225.788,172.387c0-0.187,0.149-0.351,0.322-0.351
			c0.174,0,0.324,0.164,0.324,0.351c0,0.195-0.15,0.354-0.324,0.354C225.934,172.744,225.788,172.586,225.788,172.387z
			 M226.91,141.135c0-0.194,0.151-0.356,0.323-0.356c0.175,0,0.306,0.163,0.306,0.356c0,0.195-0.13,0.353-0.306,0.353
			C227.061,141.488,226.91,141.331,226.91,141.135z M228.214,202.389c0-0.418,1.199-2.728,1.411-2.728
			c0.294,0,0.211,0.322-0.567,2.186C228.826,202.389,228.214,202.783,228.214,202.389L228.214,202.389z M227.792,145.199
			c0-0.585,0.093-1.063,0.222-1.063c0.11,0,0.2-0.164,0.2-0.351c0-0.198,0.184-0.351,0.425-0.351c0.244,0,0.427,0.153,0.427,0.351
			c0,0.187,0.132,0.351,0.306,0.351c0.243,0,0.323,0.271,0.323,1.063c0,0.792-0.082,1.067-0.323,1.067
			c-0.225,0-0.306-0.274-0.306-1.067c0-0.792-0.082-1.063-0.322-1.063s-0.309,0.271-0.309,1.063c0,0.792-0.079,1.067-0.318,1.067
			S227.792,145.985,227.792,145.199L227.792,145.199z M229.526,187.464c0-0.283,0.267-0.356,1.152-0.356
			c0.891,0,1.172,0.075,1.172,0.356c0,0.27-0.281,0.352-1.172,0.352C229.793,187.816,229.526,187.734,229.526,187.464z
			 M227.634,159.217c0-0.201,0.197-0.353,0.419-0.353c0.244,0,0.429,0.152,0.429,0.353c0,0.205-0.184,0.355-0.429,0.355
			C227.831,159.572,227.634,159.421,227.634,159.217z M228.902,159.217c0-0.201,0.185-0.353,0.427-0.353
			c0.229,0,0.427,0.152,0.427,0.353c0,0.205-0.198,0.355-0.427,0.355C229.087,159.572,228.902,159.421,228.902,159.217z
			 M226.91,139.962c0-0.492-0.106-0.586-0.771-0.64c-1.307-0.129-1.121-0.672,0.238-0.672h1.165v0.951
			c0,0.689-0.076,0.951-0.305,0.951C227.045,140.544,226.91,140.317,226.91,139.962z M229.745,186.272
			c0-0.193,0.187-0.354,0.41-0.354c0.243,0,0.427,0.16,0.427,0.354c0,0.193-0.184,0.351-0.427,0.351
			C229.931,186.623,229.745,186.465,229.745,186.272z M231.002,186.272c0-0.189,0.15-0.354,0.324-0.354
			c0.172,0,0.304,0.165,0.304,0.354c0,0.187-0.131,0.351-0.304,0.351C231.15,186.623,231.002,186.465,231.002,186.272z
			 M228.274,158.04c0-0.193,0.186-0.352,0.427-0.352c0.225,0,0.408,0.159,0.408,0.352s-0.183,0.351-0.408,0.351
			C228.459,158.392,228.274,158.234,228.274,158.04z M224.634,170.38c-0.158-0.277,0.058-0.706,0.334-0.706
			c0.103,0,0.191,0.223,0.191,0.469C225.16,170.642,224.863,170.787,224.634,170.38z M225.938,170.285
			c0.365,0,0.049-0.653,0.311-0.468c0.23,0.167,0.228,0.804-0.018,0.804C226.127,170.619,226.004,170.465,225.938,170.285z
			 M227.585,200.012c0-0.189,0.137-0.351,0.304-0.351c0.175,0,0.324,0.162,0.324,0.351c0,0.198-0.149,0.352-0.324,0.352
			C227.732,200.372,227.585,200.224,227.585,200.012z M227.233,165.57c-0.177-1.314-0.075-1.921,0.334-1.921
			c0.214,0,0.319,0.328,0.371,1.129c0.069,1.115,0.078,1.126,0.785,1.126c0.507,0,0.717,0.104,0.717,0.354
			c0,0.267-0.257,0.351-1.039,0.351h-1.04L227.233,165.57z M225.865,180.765c0-0.464-0.103-0.595-0.524-0.595
			c-0.324,0-0.525-0.124-0.525-0.352c0-0.345,0.243-0.45,0.788-0.369c0.154,0.018,0.261-0.224,0.261-0.565
			c0-0.377,0.131-0.592,0.324-0.592c0.249,0,0.306,0.319,0.306,1.527c0,1.213-0.058,1.543-0.306,1.543
			C225.994,181.362,225.865,181.131,225.865,180.765L225.865,180.765z M225.824,192.873c0-0.266-0.146-0.476-0.325-0.476
			c-0.172,0-0.322-0.148-0.322-0.325c0-0.371,0.739-0.638,1.371-0.497c0.24,0.039,0.54,0.095,0.69,0.104
			c0.443,0.025,0.286,0.721-0.158,0.721c-0.277,0-0.427,0.161-0.427,0.485c0,0.304-0.127,0.463-0.427,0.463
			C225.945,193.349,225.824,193.185,225.824,192.873L225.824,192.873z M229.093,178.928c0-0.193,0.184-0.351,0.425-0.351
			c0.245,0,0.427,0.158,0.427,0.351c0,0.194-0.183,0.352-0.427,0.352C229.277,179.28,229.093,179.121,229.093,178.928z
			 M230.107,195.178c0-0.365-0.131-0.595-0.322-0.595c-0.173,0-0.323-0.164-0.323-0.351c0-0.189,0.141-0.354,0.309-0.354
			c0.167,0,0.336-0.242,0.365-0.528c0.043-0.285,0.238-0.554,0.435-0.612c0.328-0.073,0.365,0.125,0.365,1.476
			c0,1.399-0.033,1.56-0.425,1.56C230.216,195.776,230.107,195.612,230.107,195.178L230.107,195.178z M226.428,153.128
			c0-0.259,0.225-0.353,0.829-0.353h0.85v-1.192c0-0.891,0.079-1.182,0.304-1.182c0.249,0,0.322,0.327,0.322,1.533v1.545h-1.152
			C226.701,153.48,226.428,153.399,226.428,153.128L226.428,153.128z M228.264,133.203c0-0.351,0.148-0.407,1.151-0.336
			c0.814,0.064,1.152,0.178,1.152,0.418c0,0.405-0.549,0.439-0.701,0.029c-0.085-0.238-0.103-0.238-0.118,0
			c-0.026,0.164-0.153,0.293-0.321,0.293s-0.347-0.13-0.409-0.293c-0.084-0.238-0.103-0.238-0.117,0
			C228.883,133.778,228.264,133.663,228.264,133.203L228.264,133.203z M229.093,177.865c0-0.323,0.145-0.477,0.425-0.477
			c0.275,0,0.427,0.154,0.427,0.477c0,0.312-0.146,0.464-0.427,0.464C229.237,178.329,229.093,178.177,229.093,177.865z
			 M231.159,194.231c0-0.189,0.093-0.354,0.201-0.354c0.106,0,0.204,0.164,0.204,0.354c0,0.187-0.097,0.351-0.204,0.351
			C231.252,194.583,231.159,194.419,231.159,194.231z M226.428,151.118c0-0.263,0.129-0.477,0.306-0.477
			c0.178,0,0.321,0.214,0.321,0.477c0,0.263-0.144,0.464-0.321,0.464C226.558,151.582,226.428,151.381,226.428,151.118z
			 M228.916,164.244c-0.16-0.274,0.056-0.705,0.332-0.705c0.103,0,0.191,0.208,0.191,0.463
			C229.44,164.507,229.144,164.654,228.916,164.244z M228.264,131.918c0-0.365,0.169-0.435,1.151-0.435
			c0.969,0,1.152,0.073,1.152,0.42s-0.187,0.427-1.152,0.436C228.418,132.351,228.264,132.294,228.264,131.918L228.264,131.918z
			 M225.177,190.728c0-0.442,0.117-0.482,1.11-0.417c0.852,0.065,1.123,0.178,1.166,0.5c0.065,0.352-0.099,0.417-1.092,0.417
			C225.314,191.224,225.177,191.168,225.177,190.728L225.177,190.728z M229.153,176.623c0.124-0.458,0.789-0.509,0.789-0.075
			c0,0.209-0.182,0.365-0.441,0.365C229.242,176.918,229.093,176.804,229.153,176.623L229.153,176.623z"/>
		
			<path id="path4551-6" sodipodi:nodetypes="sssssssssssssssssssssssssssssssssssssssssssssssssscssssssssssssssssssssssssscssssssssssscssssssssssssssssssssssssscssssssscsscssscsscssssscccsssssssssssssssssssssssssssssssss" inkscape:connector-curvature="0" fill="#84BFD9" d="
			M180.356,220.152c0-0.244,0.142-0.439,0.315-0.439c0.172,0,0.323,0.194,0.323,0.439c0,0.228-0.151,0.438-0.323,0.438
			C180.493,220.59,180.356,220.378,180.356,220.152z M181.622,220.152c0-0.244,0.15-0.439,0.318-0.439
			c0.175,0,0.31,0.194,0.31,0.439c0,0.228-0.135,0.438-0.31,0.438C181.762,220.59,181.622,220.378,181.622,220.152z
			 M182.746,181.465c0-0.244,0.138-0.438,0.309-0.438c0.167,0,0.319,0.193,0.319,0.438c0,0.247-0.152,0.441-0.319,0.441
			C182.884,181.906,182.746,181.711,182.746,181.465z M184.048,257.267c0-0.525,1.181-3.377,1.411-3.377
			c0.28,0,0.193,0.384-0.585,2.704C184.657,257.267,184.048,257.727,184.048,257.267L184.048,257.267z M183.621,186.508
			c0-0.732,0.095-1.316,0.202-1.316c0.125,0,0.221-0.209,0.221-0.439c0-0.248,0.184-0.447,0.414-0.447
			c0.236,0,0.419,0.198,0.419,0.447c0,0.227,0.15,0.439,0.323,0.439c0.243,0,0.316,0.335,0.316,1.316
			c0,0.973-0.074,1.318-0.316,1.318c-0.244,0-0.323-0.345-0.323-1.318c0-0.981-0.082-1.316-0.305-1.316
			c-0.243,0-0.323,0.335-0.323,1.316c0,0.973-0.082,1.318-0.317,1.318C183.705,187.826,183.621,187.482,183.621,186.508
			L183.621,186.508z M185.356,238.781c0-0.34,0.269-0.438,1.154-0.438s1.152,0.098,1.152,0.438s-0.267,0.439-1.152,0.439
			C185.623,239.219,185.356,239.12,185.356,238.781z M183.462,203.846c0-0.249,0.184-0.438,0.426-0.438
			c0.244,0,0.427,0.187,0.427,0.438c0,0.249-0.184,0.439-0.427,0.439C183.647,204.284,183.462,204.091,183.462,203.846z
			 M184.719,203.846c0-0.249,0.191-0.438,0.421-0.438c0.241,0,0.426,0.187,0.426,0.438c0,0.249-0.185,0.439-0.426,0.439
			C184.916,204.285,184.719,204.091,184.719,203.846z M182.746,180.019c0-0.612-0.121-0.73-0.774-0.808
			c-1.307-0.153-1.129-0.813,0.238-0.813h1.167v1.162c0,0.852-0.085,1.181-0.318,1.181
			C182.861,180.74,182.746,180.456,182.746,180.019L182.746,180.019z M185.558,237.312c0-0.249,0.183-0.439,0.427-0.439
			c0.24,0,0.425,0.189,0.425,0.439s-0.185,0.441-0.425,0.441C185.741,237.753,185.558,237.559,185.558,237.312z M186.821,237.312
			c0-0.245,0.144-0.439,0.316-0.439c0.172,0,0.324,0.193,0.324,0.439s-0.152,0.441-0.324,0.441
			C186.965,237.753,186.821,237.559,186.821,237.312z M184.09,202.383c0-0.236,0.19-0.444,0.426-0.444
			c0.244,0,0.426,0.208,0.426,0.444c0,0.245-0.183,0.441-0.426,0.441C184.281,202.824,184.09,202.625,184.09,202.383z
			 M180.47,217.656c-0.16-0.344,0.037-0.876,0.32-0.876c0.115,0,0.203,0.263,0.203,0.589
			C180.994,217.982,180.679,218.156,180.47,217.656z M181.762,217.545c0.371,0,0.039-0.82,0.301-0.595
			c0.244,0.197,0.242,0.992-0.004,0.992C181.962,217.942,181.819,217.758,181.762,217.545L181.762,217.545z M183.407,254.329
			c0-0.245,0.145-0.439,0.318-0.439c0.173,0,0.323,0.191,0.323,0.439c0,0.226-0.15,0.438-0.323,0.438
			C183.551,254.768,183.407,254.555,183.407,254.329z M183.046,211.702c-0.178-1.627-0.062-2.371,0.333-2.371
			c0.233,0,0.336,0.387,0.37,1.392c0.069,1.357,0.078,1.389,0.789,1.389c0.504,0,0.733,0.124,0.733,0.441
			c0,0.324-0.258,0.439-1.04,0.439h-1.04L183.046,211.702z M181.699,230.499c0-0.591-0.104-0.727-0.524-0.727
			c-0.332,0-0.525-0.168-0.525-0.439c0-0.427,0.237-0.573,0.786-0.474c0.151,0.04,0.263-0.271,0.263-0.698
			c0-0.459,0.113-0.734,0.312-0.734c0.241,0,0.316,0.413,0.316,1.907c0,1.492-0.075,1.886-0.316,1.886
			C181.81,231.224,181.699,230.95,181.699,230.499L181.699,230.499z M181.64,245.471c0-0.314-0.127-0.573-0.309-0.573
			c-0.169,0-0.32-0.181-0.32-0.413c0-0.45,0.723-0.79,1.37-0.624c0.222,0.067,0.541,0.115,0.679,0.124
			c0.453,0.05,0.298,0.914-0.148,0.914c-0.29,0-0.425,0.189-0.425,0.572c0,0.4-0.146,0.589-0.427,0.589
			C181.786,246.063,181.64,245.87,181.64,245.471L181.64,245.471z M184.922,228.222c0-0.25,0.183-0.438,0.417-0.438
			c0.233,0,0.417,0.187,0.417,0.438c0,0.249-0.183,0.439-0.417,0.439C185.105,228.661,184.922,228.472,184.922,228.222z
			 M185.92,248.326c0-0.45-0.113-0.725-0.305-0.725c-0.174,0-0.323-0.212-0.323-0.441c0-0.245,0.129-0.439,0.291-0.439
			c0.169,0,0.337-0.304,0.383-0.663c0.03-0.357,0.221-0.701,0.435-0.763c0.312-0.066,0.368,0.154,0.368,1.828
			c0,1.733-0.052,1.923-0.427,1.923C186.034,249.053,185.92,248.866,185.92,248.326L185.92,248.326z M182.245,196.304
			c0-0.322,0.243-0.439,0.848-0.439h0.829v-1.466c0-1.11,0.081-1.468,0.324-1.468c0.249,0,0.323,0.413,0.323,1.907v1.905h-1.171
			C182.512,196.745,182.245,196.644,182.245,196.304L182.245,196.304z M184.078,171.656c0-0.438,0.169-0.504,1.153-0.417
			c0.832,0.073,1.168,0.224,1.168,0.517c0,0.509-0.565,0.542-0.706,0.043c-0.08-0.294-0.115-0.294-0.128,0
			c-0.01,0.209-0.149,0.374-0.317,0.374c-0.158,0-0.348-0.168-0.396-0.374c-0.084-0.294-0.103-0.294-0.129,0
			C184.698,172.371,184.078,172.23,184.078,171.656L184.078,171.656z M184.922,226.911c0-0.383,0.126-0.591,0.417-0.591
			c0.29,0,0.417,0.208,0.417,0.591s-0.126,0.589-0.417,0.589C185.049,227.5,184.922,227.288,184.922,226.911z M186.975,247.166
			c0-0.247,0.092-0.441,0.22-0.441c0.11,0,0.201,0.193,0.201,0.441c0,0.225-0.095,0.439-0.201,0.439
			C187.063,247.605,186.975,247.391,186.975,247.166z M182.245,193.807c0-0.312,0.145-0.57,0.323-0.57s0.304,0.263,0.304,0.57
			c0,0.329-0.126,0.591-0.304,0.591S182.245,194.14,182.245,193.807z M184.75,210.058c-0.16-0.345,0.037-0.877,0.32-0.877
			c0.115,0,0.204,0.263,0.204,0.589C185.275,210.386,184.961,210.558,184.75,210.058L184.75,210.058z M184.078,170.078
			c0-0.463,0.173-0.537,1.153-0.537c0.975,0,1.168,0.079,1.168,0.514c0,0.434-0.204,0.52-1.168,0.544
			C184.246,170.611,184.078,170.534,184.078,170.078L184.078,170.078z M181.011,242.825c0-0.547,0.099-0.605,1.111-0.513
			c0.833,0.08,1.11,0.226,1.166,0.612c0.065,0.435-0.098,0.51-1.104,0.51C181.125,243.43,181.011,243.362,181.011,242.825z
			 M184.965,225.366c0.141-0.547,0.787-0.628,0.787-0.095c0,0.271-0.182,0.474-0.44,0.474
			C185.065,225.745,184.926,225.589,184.965,225.366L184.965,225.366z"/>
		
			<path id="path4551-43" sodipodi:nodetypes="sssssssssssssssssssssssssssssssssssssssssssssssssscssssssssssssssssssssssssscssssssssssscssssssssssssssssssssssssscssssssscsscssscsscssssscccsssssssssssssssssssssssssssssssss" inkscape:connector-curvature="0" fill="#84BFD9" d="
			M185.981,136.359c0,0.176,0.136,0.317,0.309,0.317c0.169,0,0.319-0.142,0.319-0.317c0-0.179-0.15-0.329-0.319-0.329
			C186.113,136.03,185.981,136.18,185.981,136.359z M187.234,136.359c0,0.176,0.148,0.317,0.322,0.317
			c0.172,0,0.31-0.142,0.31-0.317c0-0.179-0.138-0.329-0.31-0.329C187.382,136.03,187.234,136.18,187.234,136.359z M188.36,164.691
			c0,0.178,0.149,0.328,0.322,0.328s0.304-0.15,0.304-0.328c0-0.176-0.13-0.323-0.304-0.323
			C188.506,164.368,188.36,164.515,188.36,164.691z M189.658,109.168c0,0.382,1.194,2.463,1.411,2.463
			c0.28,0,0.193-0.284-0.579-1.982C190.269,109.163,189.658,108.807,189.658,109.168L189.658,109.168z M189.237,161.01
			c0,0.527,0.094,0.963,0.208,0.963c0.125,0,0.214,0.152,0.214,0.328c0,0.176,0.183,0.313,0.426,0.313
			c0.23,0,0.424-0.137,0.424-0.313c0-0.176,0.134-0.328,0.307-0.328c0.243,0,0.323-0.253,0.323-0.963
			c0-0.712-0.082-0.964-0.323-0.964c-0.236,0-0.307,0.252-0.307,0.964c0,0.709-0.08,0.963-0.321,0.963s-0.323-0.253-0.323-0.963
			c0-0.712-0.076-0.964-0.305-0.964C189.317,160.045,189.237,160.295,189.237,161.01L189.237,161.01z M190.97,122.705
			c0,0.239,0.267,0.318,1.151,0.318c0.887,0,1.153-0.079,1.153-0.318c0-0.247-0.267-0.327-1.153-0.327
			C191.237,122.378,190.97,122.456,190.97,122.705z M189.072,148.293c0,0.177,0.188,0.322,0.427,0.322
			c0.242,0,0.425-0.145,0.425-0.322c0-0.176-0.183-0.317-0.425-0.317C189.264,147.977,189.072,148.118,189.072,148.293
			L189.072,148.293z M190.346,148.293c0,0.177,0.184,0.322,0.424,0.322c0.228,0,0.416-0.145,0.416-0.322
			c0-0.176-0.189-0.317-0.416-0.317C190.531,147.977,190.346,148.118,190.346,148.293z M188.36,165.75
			c0,0.453-0.108,0.528-0.774,0.593c-1.306,0.11-1.125,0.603,0.24,0.603h1.164v-0.86c0-0.62-0.083-0.862-0.304-0.862
			C188.475,165.225,188.36,165.438,188.36,165.75L188.36,165.75z M191.172,123.774c0,0.178,0.189,0.32,0.426,0.32
			c0.242,0,0.426-0.142,0.426-0.32c0-0.176-0.184-0.325-0.426-0.325C191.363,123.449,191.172,123.597,191.172,123.774z
			 M192.446,123.774c0,0.178,0.138,0.32,0.311,0.32c0.167,0,0.317-0.142,0.317-0.32c0-0.176-0.15-0.325-0.317-0.325
			C192.579,123.449,192.446,123.597,192.446,123.774z M189.706,149.371c0,0.176,0.196,0.315,0.419,0.315
			c0.244,0,0.427-0.139,0.427-0.315c0-0.178-0.183-0.328-0.427-0.328C189.904,149.043,189.706,149.194,189.706,149.371z
			 M186.08,138.18c-0.158,0.253,0.051,0.638,0.332,0.638c0.103,0,0.193-0.189,0.193-0.431
			C186.605,137.941,186.295,137.813,186.08,138.18z M187.382,138.267c0.365,0,0.034,0.587,0.297,0.428
			c0.243-0.152,0.242-0.742-0.005-0.742C187.575,137.961,187.437,138.099,187.382,138.267L187.382,138.267z M189.029,111.311
			c0,0.176,0.133,0.32,0.305,0.32c0.176,0,0.324-0.144,0.324-0.32c0-0.178-0.148-0.317-0.324-0.317
			C189.162,110.994,189.029,111.134,189.029,111.311L189.029,111.311z M188.678,142.543c-0.18,1.18-0.076,1.731,0.314,1.731
			c0.232,0,0.336-0.29,0.387-1.013c0.057-1.01,0.073-1.024,0.787-1.024c0.494,0,0.717-0.095,0.717-0.319
			c0-0.235-0.257-0.319-1.039-0.319h-1.041L188.678,142.543z M187.309,128.763c0,0.431-0.103,0.534-0.523,0.534
			c-0.333,0-0.524,0.128-0.524,0.329c0,0.306,0.243,0.407,0.788,0.34c0.154-0.028,0.26,0.193,0.26,0.5
			c0,0.343,0.12,0.555,0.324,0.555c0.237,0,0.304-0.305,0.304-1.396c0-1.098-0.067-1.396-0.304-1.396
			C187.431,128.229,187.309,128.431,187.309,128.763L187.309,128.763z M187.254,117.787c0,0.239-0.133,0.43-0.31,0.43
			c-0.173,0-0.323,0.135-0.323,0.304c0,0.333,0.737,0.573,1.372,0.455c0.225-0.043,0.538-0.085,0.688-0.095
			c0.444-0.026,0.286-0.663-0.16-0.663c-0.274,0-0.425-0.138-0.425-0.427c0-0.285-0.14-0.429-0.427-0.429
			C187.389,117.366,187.254,117.5,187.254,117.787z M190.535,130.429c0,0.176,0.185,0.328,0.427,0.328
			c0.236,0,0.427-0.152,0.427-0.328c0-0.176-0.19-0.321-0.427-0.321C190.72,130.108,190.535,130.252,190.535,130.429z
			 M191.539,115.694c0,0.335-0.117,0.546-0.31,0.546c-0.172,0-0.322,0.137-0.322,0.315c0,0.176,0.141,0.322,0.31,0.322
			c0.165,0,0.322,0.212,0.365,0.48c0.027,0.264,0.235,0.514,0.433,0.556c0.327,0.067,0.366-0.115,0.366-1.342
			c0-1.264-0.032-1.408-0.425-1.408C191.658,115.16,191.539,115.307,191.539,115.694z M187.865,153.83
			c0,0.223,0.235,0.313,0.842,0.313h0.848v1.08c0,0.806,0.079,1.069,0.304,1.069c0.249,0,0.324-0.297,0.324-1.396v-1.396h-1.154
			C188.133,153.501,187.865,153.578,187.865,153.83L187.865,153.83z M189.693,171.881c0,0.322,0.167,0.368,1.168,0.304
			c0.813-0.062,1.154-0.164,1.154-0.38c0-0.377-0.562-0.398-0.702-0.033c-0.086,0.224-0.104,0.224-0.136,0
			c-0.008-0.15-0.137-0.267-0.305-0.267c-0.167,0-0.346,0.125-0.407,0.267c-0.085,0.224-0.103,0.224-0.118,0
			C190.318,171.355,189.693,171.473,189.693,171.881L189.693,171.881z M190.535,131.393c0,0.287,0.142,0.431,0.427,0.431
			c0.276,0,0.427-0.144,0.427-0.431c0-0.281-0.146-0.429-0.427-0.429C190.677,130.964,190.535,131.112,190.535,131.393z
			 M192.591,116.555c0,0.176,0.106,0.322,0.213,0.322c0.11,0,0.201-0.146,0.201-0.322c0-0.178-0.095-0.315-0.201-0.315
			C192.697,116.24,192.591,116.378,192.591,116.555z M187.865,155.653c0,0.227,0.14,0.421,0.317,0.421s0.323-0.194,0.323-0.421
			c0-0.24-0.146-0.43-0.323-0.43S187.865,155.412,187.865,155.653z M190.365,143.74c-0.16,0.253,0.053,0.651,0.332,0.651
			c0.103,0,0.192-0.194,0.192-0.431C190.889,143.513,190.583,143.375,190.365,143.74L190.365,143.74z M189.693,173.052
			c0,0.335,0.171,0.387,1.168,0.387c0.97,0,1.154-0.062,1.154-0.375c0-0.322-0.188-0.384-1.154-0.405
			C189.859,172.65,189.693,172.711,189.693,173.052z M186.62,119.739c0,0.394,0.099,0.439,1.108,0.369
			c0.842-0.056,1.125-0.164,1.167-0.443c0.065-0.326-0.099-0.379-1.091-0.379C186.759,119.289,186.62,119.334,186.62,119.739z
			 M190.595,132.519c0.125,0.412,0.787,0.46,0.787,0.074c0-0.2-0.191-0.341-0.442-0.341
			C190.688,132.252,190.535,132.36,190.595,132.519L190.595,132.519z"/>
		
			<path id="path4551-5-8" sodipodi:nodetypes="sssssssssssssssssssssssssssssssssssssssssscssssssscssssssssss" inkscape:connector-curvature="0" fill="#84BFD9" d="
			M263.277,214.951c0-0.538-1.198-3.47-1.411-3.47c-0.297,0-0.188,0.402,0.568,2.781
			C262.685,214.951,263.277,215.453,263.277,214.951L263.277,214.951z M261.983,195.93c0-0.339-0.285-0.457-1.172-0.457
			c-0.879,0-1.165,0.121-1.165,0.457c0,0.345,0.286,0.456,1.165,0.456C261.697,196.387,261.983,196.276,261.983,195.93z
			 M261.744,194.419c0-0.247-0.183-0.447-0.408-0.447c-0.223,0-0.406,0.198-0.406,0.447c0,0.255,0.184,0.454,0.406,0.454
			C261.56,194.872,261.744,194.674,261.744,194.419z M260.488,194.419c0-0.24-0.145-0.447-0.322-0.447
			c-0.174,0-0.287,0.205-0.287,0.447c0,0.25,0.113,0.454,0.287,0.454C260.342,194.872,260.488,194.669,260.488,194.419z
			 M263.923,211.94c0-0.251-0.15-0.458-0.322-0.458c-0.174,0-0.324,0.207-0.324,0.458c0,0.233,0.15,0.448,0.324,0.448
			C263.773,212.389,263.923,212.18,263.923,211.94z M265.645,187.412c0-0.604,0.084-0.758,0.523-0.758
			c0.295,0,0.525-0.172,0.525-0.453c0-0.435-0.262-0.568-0.805-0.47c-0.15,0.021-0.244-0.274-0.244-0.712
			c0-0.49-0.131-0.771-0.324-0.771c-0.262,0-0.323,0.423-0.323,1.948c0,1.545,0.062,1.968,0.323,1.968
			C265.516,188.173,265.645,187.876,265.645,187.412L265.645,187.412z M265.686,202.829c0-0.325,0.148-0.591,0.324-0.591
			c0.178,0,0.285-0.197,0.285-0.421c0-0.481-0.715-0.819-1.329-0.65c-0.262,0.063-0.545,0.129-0.689,0.136
			c-0.465,0.032-0.303,0.935,0.16,0.935c0.256,0,0.4,0.191,0.4,0.588c0,0.405,0.148,0.598,0.452,0.598
			C265.539,203.427,265.686,203.231,265.686,202.829L265.686,202.829z M261.383,205.765c0-0.46,0.135-0.76,0.322-0.76
			c0.178,0,0.324-0.2,0.324-0.45c0-0.244-0.141-0.447-0.305-0.447s-0.342-0.296-0.365-0.682c-0.025-0.366-0.225-0.713-0.416-0.762
			c-0.334-0.083-0.365,0.144-0.365,1.873c0,1.772,0.027,1.991,0.406,1.991C261.295,206.527,261.383,206.312,261.383,205.765
			L261.383,205.765z M260.334,204.555c0-0.243-0.076-0.447-0.203-0.447c-0.129,0-0.201,0.203-0.201,0.447
			c0,0.25,0.113,0.45,0.201,0.45C260.258,205.014,260.334,204.811,260.334,204.555z M266.295,200.094
			c0-0.556-0.08-0.614-1.086-0.525c-0.853,0.082-1.11,0.23-1.19,0.625c-0.045,0.466,0.119,0.525,1.13,0.525
			C266.195,200.718,266.295,200.663,266.295,200.094L266.295,200.094z"/>
		
			<path id="path4551-5-84" sodipodi:nodetypes="sssssssssssssssssssssssssssssssssssssssssscssssssscssssssssss" inkscape:connector-curvature="0" fill="#84BFD9" d="
			M336.551,240.535c0-0.431-1.162-2.722-1.41-2.722c-0.262,0-0.193,0.304,0.604,2.186
			C335.963,240.535,336.551,240.918,336.551,240.535z M335.262,225.597c0-0.271-0.285-0.351-1.171-0.351
			c-0.879,0-1.135,0.082-1.135,0.351s0.256,0.354,1.135,0.354C334.977,225.951,335.262,225.867,335.262,225.597z M335.061,224.405
			c0-0.191-0.183-0.351-0.446-0.351c-0.223,0-0.406,0.16-0.406,0.351c0,0.212,0.184,0.36,0.406,0.36
			C334.876,224.765,335.061,224.617,335.061,224.405z M333.79,224.405c0-0.187-0.131-0.351-0.309-0.351
			c-0.172,0-0.324,0.164-0.324,0.351c0,0.208,0.152,0.36,0.324,0.36C333.654,224.765,333.79,224.617,333.79,224.405z
			 M337.197,238.166c0-0.19-0.15-0.354-0.324-0.354c-0.172,0-0.322,0.164-0.322,0.354c0,0.187,0.15,0.351,0.322,0.351
			C337.047,238.518,337.197,238.358,337.197,238.166z M338.919,218.898c0-0.464,0.085-0.574,0.525-0.574
			c0.332,0,0.523-0.142,0.523-0.354c0-0.346-0.238-0.469-0.805-0.388c-0.149,0.037-0.244-0.209-0.244-0.554
			c0-0.369-0.131-0.601-0.322-0.601c-0.227,0-0.324,0.331-0.324,1.543c0,1.2,0.098,1.527,0.324,1.527
			C338.79,219.497,338.919,219.282,338.919,218.898L338.919,218.898z M338.962,231.014c0-0.263,0.146-0.464,0.322-0.464
			c0.172,0,0.324-0.156,0.324-0.333c0-0.365-0.723-0.633-1.373-0.507c-0.219,0.058-0.537,0.094-0.688,0.103
			c-0.452,0.043-0.304,0.741,0.158,0.741c0.288,0,0.408,0.142,0.408,0.464s0.146,0.464,0.443,0.464
			C338.814,231.483,338.962,231.337,338.962,231.014z M334.698,233.311c0-0.365,0.099-0.574,0.289-0.574
			c0.179,0,0.321-0.165,0.321-0.354c0-0.205-0.117-0.35-0.268-0.35c-0.174,0-0.343-0.243-0.393-0.547
			c-0.04-0.285-0.235-0.555-0.433-0.608c-0.328-0.057-0.365,0.131-0.365,1.472c0,1.399,0.033,1.559,0.406,1.559
			C334.573,233.909,334.698,233.745,334.698,233.311L334.698,233.311z M333.644,232.382c0-0.205-0.105-0.365-0.238-0.365
			c-0.092,0-0.201,0.16-0.201,0.365c0,0.19,0.113,0.354,0.201,0.354C333.536,232.737,333.644,232.572,333.644,232.382z
			 M339.609,228.864c0-0.444-0.117-0.473-1.127-0.399c-0.816,0.047-1.106,0.178-1.149,0.482c-0.084,0.351,0.08,0.417,1.093,0.417
			C339.474,229.357,339.609,229.302,339.609,228.864z"/>
		
			<path id="path4551-5-3" sodipodi:nodetypes="sssssssssssssssssssssssssssssssssssssssssscssssssscssssssssss" inkscape:connector-curvature="0" fill="#84BFD9" d="
			M322.282,153.209c0-0.431-1.2-2.734-1.425-2.734c-0.283,0-0.215,0.316,0.583,2.187
			C321.654,153.209,322.282,153.592,322.282,153.209z M320.953,138.273c0-0.274-0.25-0.354-1.168-0.354
			c-0.889,0-1.137,0.083-1.137,0.354c0,0.271,0.248,0.351,1.137,0.351C320.703,138.624,320.953,138.542,320.953,138.273z
			 M320.75,137.079c0-0.194-0.184-0.352-0.428-0.352c-0.24,0-0.424,0.158-0.424,0.352c0,0.199,0.184,0.352,0.424,0.352
			C320.567,137.432,320.75,137.28,320.75,137.079z M319.5,137.079c0-0.188-0.152-0.352-0.324-0.352s-0.322,0.164-0.322,0.352
			c0,0.194,0.15,0.352,0.322,0.352S319.5,137.275,319.5,137.079z M322.892,150.827c0-0.19-0.15-0.352-0.322-0.352
			c-0.171,0-0.287,0.162-0.287,0.352c0,0.201,0.116,0.355,0.287,0.355C322.741,151.182,322.892,151.032,322.892,150.827z
			 M324.615,131.573c0-0.464,0.121-0.59,0.523-0.59c0.332,0,0.523-0.128,0.523-0.352c0-0.343-0.223-0.454-0.775-0.375
			c-0.146,0.024-0.271-0.21-0.271-0.554c0-0.382-0.131-0.602-0.324-0.602c-0.23,0-0.323,0.321-0.323,1.531
			c0,1.213,0.093,1.54,0.323,1.54C324.485,132.167,324.615,131.943,324.615,131.573L324.615,131.573z M324.656,143.687
			c0-0.261,0.146-0.477,0.324-0.477c0.172,0,0.322-0.142,0.322-0.322c0-0.374-0.723-0.641-1.374-0.503
			c-0.219,0.045-0.537,0.095-0.688,0.103c-0.424,0.031-0.267,0.729,0.158,0.729c0.295,0,0.433,0.152,0.433,0.477
			c0,0.309,0.122,0.463,0.422,0.463C324.537,144.157,324.656,143.999,324.656,143.687L324.656,143.687z M320.389,145.985
			c0-0.365,0.117-0.587,0.324-0.587c0.172,0,0.285-0.163,0.285-0.353c0-0.193-0.105-0.356-0.273-0.356
			c-0.166,0-0.336-0.229-0.365-0.531c-0.061-0.284-0.254-0.552-0.453-0.61c-0.326-0.067-0.365,0.135-0.365,1.476
			c0,1.399,0.035,1.56,0.408,1.56C320.264,146.584,320.389,146.42,320.389,145.985L320.389,145.985z M319.34,145.044
			c0-0.193-0.113-0.356-0.201-0.356c-0.131,0-0.24,0.164-0.24,0.356c0,0.19,0.113,0.353,0.24,0.353
			C319.227,145.397,319.34,145.234,319.34,145.044z M325.303,141.533c0-0.445-0.117-0.475-1.092-0.412
			c-0.853,0.059-1.142,0.178-1.185,0.494c-0.047,0.354,0.104,0.419,1.093,0.419C325.164,142.034,325.303,141.972,325.303,141.533
			L325.303,141.533z"/>
		<path id="path4407-4-0" sodipodi:nodetypes="ssssssssssssss" inkscape:connector-curvature="0" fill="#3381A5" d="
			M170.302,198.481c0-0.866-0.51-1.554-1.164-1.554c-0.632,0-1.158-0.497-1.158-1.071c0-1.213,2.69-2.101,5.035-1.658
			c0.852,0.153,1.985,0.306,2.514,0.347c1.638,0.099,1.09,2.379-0.572,2.379c-1.036,0-1.554,0.516-1.554,1.556
			c0,1.024-0.516,1.535-1.554,1.535C170.81,200.016,170.302,199.508,170.302,198.481L170.302,198.481z M167.98,191.435
			c0-1.464,0.375-1.585,4.052-1.347c3.123,0.193,4.122,0.563,4.327,1.605c0.214,1.151-0.373,1.363-4.07,1.363
			C168.435,193.058,167.98,192.886,167.98,191.435z"/>
		
			<path id="path4551-5-3-6" sodipodi:nodetypes="sssssssssssssssssscssssssscssssssssss" inkscape:connector-curvature="0" fill="#84BFD9" d="
			M239.052,152.543c0-0.431-1.2-2.724-1.413-2.724c-0.279,0-0.192,0.315,0.587,2.188
			C238.44,152.547,239.052,152.947,239.052,152.543L239.052,152.543z M239.68,150.176c0-0.189-0.134-0.352-0.306-0.352
			c-0.172,0-0.322,0.162-0.322,0.352s0.15,0.353,0.322,0.353C239.547,150.529,239.68,150.366,239.68,150.176z M241.462,143.027
			c0-0.261,0.126-0.466,0.304-0.466c0.174,0,0.324-0.154,0.324-0.33c0-0.367-0.742-0.632-1.374-0.502
			c-0.224,0.05-0.539,0.094-0.688,0.113c-0.446,0.027-0.287,0.723,0.158,0.723c0.277,0,0.427,0.16,0.427,0.47
			c0,0.319,0.135,0.479,0.427,0.479C241.315,143.507,241.462,143.349,241.462,143.027L241.462,143.027z M237.174,145.338
			c0-0.375,0.115-0.593,0.308-0.593c0.172,0,0.323-0.164,0.323-0.351c0-0.19-0.142-0.354-0.309-0.354
			c-0.17,0-0.322-0.242-0.365-0.527c-0.028-0.297-0.239-0.569-0.437-0.61c-0.326-0.076-0.365,0.117-0.365,1.475
			c0,1.394,0.035,1.546,0.427,1.546C237.05,145.923,237.174,145.77,237.174,145.338L237.174,145.338z M236.124,144.39
			c0-0.199-0.11-0.354-0.217-0.354c-0.112,0-0.201,0.155-0.201,0.354c0,0.187,0.095,0.351,0.201,0.351
			C236.015,144.746,236.124,144.582,236.124,144.39z M242.09,140.887c0-0.446-0.099-0.49-1.111-0.416
			c-0.85,0.065-1.123,0.176-1.167,0.499c-0.065,0.353,0.099,0.406,1.092,0.406C241.953,141.374,242.09,141.326,242.09,140.887
			L242.09,140.887z"/>
		<g id="g4177_1_" transform="matrix(0.62522271,0.44972962,-0.44972962,0.62522271,-543.79963,-883.91821)">
		</g>
		<a id="a4378_1_" transform="matrix(0.62522271,0.44972962,-0.44972962,0.62522271,310.46408,-221.42303)">
			<g id="g4323_1_">
				<g id="g4384_1_">
				</g>
			</g>
		</a>
		<a id="a4357_1_" transform="matrix(0.62522271,0.44972962,-0.44972962,0.62522271,656.83747,27.727177)">
		</a>
	</g>
</g>
</svg>
