<?xml version="1.0" encoding="utf-8"?>
<!-- Generator: Adobe Illustrator 16.0.0, SVG Export Plug-In . SVG Version: 6.00 Build 0)  -->
<!DOCTYPE svg PUBLIC "-//W3C//DTD SVG 1.1//EN" "http://www.w3.org/Graphics/SVG/1.1/DTD/svg11.dtd">
<svg version="1.1" id="liquid_minecarts" xmlns="http://www.w3.org/2000/svg" xmlns:xlink="http://www.w3.org/1999/xlink" x="0px"
	 y="0px" width="511.473px" height="511.473px" viewBox="0 0 511.473 511.473" enable-background="new 0 0 511.473 511.473"
	 xml:space="preserve">
<rect fill="#FFFFFF" width="511.473" height="511.473"/>
<path fill="#4AA0C7" d="M364.23,355.102c0,13.859-16.022,25.093-29.882,25.093c-13.836,0-20.267-11.233-20.267-25.093"/>
<path fill="#4AA0C7" d="M356.59,354.386c0,13.865-16.038,25.1-29.882,25.1c-0.883,0-1.743-0.037-2.58-0.146
	c-12.092-1.288-17.723-11.973-17.723-24.943"/>
<polygon fill="#4AA0C7" points="332.873,380.158 336.614,377.719 327.666,376.344 323.848,379.307 "/>
<path fill="#4AA0C7" d="M202.396,355.46c0,13.858-6.426,25.092-20.282,25.092c-13.841,0-29.876-11.233-29.876-25.092"/>
<path fill="#4AA0C7" d="M210.056,354.743c0,12.976-5.631,23.654-17.703,24.949c-0.836,0.107-1.676,0.142-2.563,0.142
	c-13.858,0-29.888-11.232-29.888-25.093"/>
<polygon fill="#4AA0C7" points="183.61,380.517 179.867,378.077 188.798,376.703 192.631,379.666 "/>
<g>
	<polygon fill="none" points="291.547,158.616 291.914,149.887 258.312,149.83 258.312,158.616 	"/>
	<polygon fill="none" points="294.285,153.484 293.921,152.732 293.664,158.616 296.141,158.616 	"/>
	<polygon fill="#7FBCD7" points="362.042,172.426 363.071,168.159 368.994,168.159 422.557,229.122 434.835,229.497 449.11,244.214 
		372.31,165.064 339.088,165.064 343.972,172.426 	"/>
	<polygon fill="#387895" points="369.229,228.932 408.709,228.932 362.042,172.426 343.972,172.426 371.043,213.304 	"/>
	<polygon fill="#4AA0C7" points="317.27,163.026 317.123,165.064 318.608,165.064 318.617,164.909 318.686,165.064 339.088,165.064 
		334.825,158.616 298.86,158.616 300.44,163.026 	"/>
	<polygon fill="#4AA0C7" points="258.312,163.026 291.36,163.026 291.547,158.616 258.312,158.616 	"/>
	<polygon fill="#4AA0C7" points="297.72,163.026 296.141,158.616 293.664,158.616 293.455,163.026 	"/>
	<polygon fill="#4AA0C7" points="322.698,172.426 343.972,172.426 339.088,165.064 318.686,165.064 	"/>
	<polygon fill="#4AA0C7" points="318.001,172.426 318.608,165.064 317.123,165.064 316.65,172.426 	"/>
	<polygon fill="#387895" points="317.123,165.064 317.27,163.026 300.44,163.026 301.204,165.064 	"/>
	<polygon fill="#387895" points="291.251,165.064 291.36,163.026 258.312,163.026 258.312,165.064 	"/>
	<polygon fill="#387895" points="293.35,165.064 298.444,165.064 297.72,163.026 293.455,163.026 	"/>
	<polygon fill="#387895" points="299.116,166.922 298.444,165.064 293.35,165.064 293.243,166.919 	"/>
	<polygon fill="#387895" points="301.839,166.922 302.192,166.926 302.192,168.625 302.192,172.426 316.65,172.426 317.123,165.064 
		301.204,165.064 	"/>
	<polygon fill="#387895" points="291.19,166.918 291.251,165.064 258.312,165.064 258.312,166.91 	"/>
	<line fill="none" stroke="#7FBCD7" stroke-miterlimit="10" x1="362.042" y1="172.426" x2="358.439" y2="196.142"/>
	<polygon fill="#387895" points="299.043,172.426 299.007,169.172 294,169.192 295.331,172.426 	"/>
	<polygon fill="#387895" points="314.657,202.121 316.65,172.426 302.192,172.426 302.192,202.121 	"/>
	<polygon fill="#387895" points="299.177,181.579 299.043,172.426 295.331,172.426 	"/>
	<polygon fill="#387895" points="318.617,164.909 318.608,165.064 318.686,165.064 	"/>
	<polygon fill="#387895" points="322.698,172.426 318.686,165.064 318.608,165.064 318.001,172.426 	"/>
	<polygon fill="#4AA0C7" points="315.68,201.869 318.001,172.426 316.65,172.426 314.657,202.121 302.192,202.121 302.192,202.788 
		258.312,202.794 258.312,228.932 369.229,228.932 371.043,213.304 343.972,172.426 322.698,172.426 338.715,201.869 	"/>
	<polygon fill="#387895" points="315.68,201.869 338.715,201.869 322.698,172.426 318.001,172.426 	"/>
	<polygon fill="#FFFFFF" points="292.595,172.426 291.393,169.438 258.312,169.511 258.312,172.426 	"/>
	<polygon fill="#FFFFFF" points="258.312,172.426 258.312,199.601 299.448,199.493 299.297,189.201 292.595,172.426 	"/>
	<polygon fill="#4AA0C7" points="291.914,149.887 291.547,158.616 293.664,158.616 293.921,152.732 294.285,153.484 
		296.141,158.616 298.86,158.616 295.136,148.178 295.106,147.553 258.312,147.491 258.312,149.83 	"/>
	<polygon fill="#4AA0C7" points="293.455,163.026 293.664,158.616 291.547,158.616 291.36,163.026 	"/>
	<polygon fill="#4AA0C7" points="297.72,163.026 300.44,163.026 298.86,158.616 296.141,158.616 	"/>
	<polygon fill="#4AA0C7" points="258.312,202.794 302.192,202.788 302.192,202.121 258.312,202.121 	"/>
	<polygon fill="#4AA0C7" points="293.35,165.064 293.455,163.026 291.36,163.026 291.251,165.064 	"/>
	<polygon fill="#4AA0C7" points="301.204,165.064 300.44,163.026 297.72,163.026 298.444,165.064 	"/>
	<polygon fill="#4AA0C7" points="299.699,168.588 299.116,166.922 293.243,166.919 293.21,167.767 293.393,167.807 294,169.192 
		299.007,169.172 299.043,172.426 302.192,172.426 302.192,168.625 302.192,166.926 301.839,166.922 301.961,167.228 	"/>
	<polygon fill="#4AA0C7" points="291.19,166.918 293.243,166.919 293.35,165.064 291.251,165.064 	"/>
	<polygon fill="#4AA0C7" points="291.257,168.367 291.729,169.2 291.998,169.199 291.122,167.888 291.178,167.307 290.773,167.222 
		258.312,167.194 258.312,168.367 	"/>
	<polygon fill="#4AA0C7" points="293.061,170.801 291.998,169.199 291.729,169.2 293.416,172.426 295.331,172.426 294,169.192 
		293.158,169.196 	"/>
	<polygon fill="#4AA0C7" points="293.158,169.196 291.998,169.199 293.061,170.801 	"/>
	<polygon fill="#4AA0C7" points="294,169.192 293.393,167.807 293.21,167.767 293.158,169.196 	"/>
	<polygon fill="#4AA0C7" points="291.122,167.888 291.998,169.199 293.158,169.196 293.21,167.767 291.178,167.307 	"/>
	<polygon fill="#4AA0C7" points="258.312,167.194 290.773,167.222 291.178,167.307 291.19,166.918 258.312,166.91 	"/>
	<polygon fill="#4AA0C7" points="301.839,166.922 301.204,165.064 298.444,165.064 299.116,166.922 	"/>
	<polygon fill="#4AA0C7" points="293.21,167.767 293.243,166.919 291.19,166.918 291.178,167.307 	"/>
	<polygon fill="#4AA0C7" points="299.699,168.588 301.961,167.228 301.839,166.922 299.116,166.922 	"/>
	<polygon fill="#4AA0C7" points="300.229,185.154 300.213,184.035 299.177,181.579 299.194,183.23 	"/>
	<polygon fill="#4AA0C7" points="299.177,181.579 300.213,184.035 300.229,185.154 300.745,186.117 300.745,201.248 
		258.312,201.248 258.312,202.121 302.192,202.121 302.192,172.426 299.043,172.426 	"/>
	<polygon fill="#4AA0C7" points="293.416,172.426 299.194,183.23 299.177,181.579 295.331,172.426 	"/>
	<polygon fill="#4AA0C7" points="258.312,168.367 258.312,169.374 291.729,169.2 291.257,168.367 	"/>
	<polygon fill="#4AA0C7" points="258.312,169.511 291.393,169.438 292.595,172.426 293.416,172.426 291.729,169.2 258.312,169.374 	
		"/>
	<polygon fill="#4AA0C7" points="299.297,189.201 299.194,183.23 293.416,172.426 292.595,172.426 	"/>
	<polygon fill="#4AA0C7" points="299.297,189.201 299.448,199.493 258.312,199.601 258.312,201.248 300.745,201.248 
		300.745,186.117 300.229,185.154 300.36,191.856 	"/>
	<polygon fill="#4AA0C7" points="299.297,189.201 300.36,191.856 300.229,185.154 299.194,183.23 	"/>
	<polygon fill="#7FBCD7" points="449.11,244.214 367.43,244.214 362.421,287.219 258.312,286.047 258.312,368.764 422.72,368.764 	
		"/>
	<polygon fill="#7FBCD7" points="258.312,286.047 362.421,287.219 367.43,244.214 258.312,244.214 	"/>
	<polygon fill="#7FBCD7" points="415.84,233.805 416.485,234.591 415.84,233.805 414.953,233.876 409.498,229.542 369.142,229.542 
		367.43,244.214 449.11,244.214 423.578,233.243 	"/>
	<polygon fill="#7FBCD7" points="422.557,229.122 426.022,233.063 423.578,233.243 449.11,244.214 434.835,229.497 	"/>
	<polygon fill="#7FBCD7" points="369.229,228.932 369.142,229.542 409.498,229.542 408.709,228.932 	"/>
	<polygon fill="#7FBCD7" points="258.312,229.542 258.312,244.214 367.43,244.214 369.142,229.542 	"/>
	<polygon fill="#7FBCD7" points="258.312,228.932 258.312,229.542 369.142,229.542 369.229,228.932 	"/>
	<polygon fill="#7FBCD7" points="364.301,171.446 365.1,172.426 367.921,172.426 414.374,228.932 416.346,228.932 422.557,229.122 
		368.994,168.159 363.071,168.159 362.042,172.426 365.1,172.426 	"/>
	<polygon fill="#7FBCD7" points="367.921,172.426 365.1,172.426 411.802,228.932 413.936,228.932 	"/>
	<polygon fill="#7FBCD7" points="411.802,228.932 365.1,172.426 362.042,172.426 408.709,228.932 	"/>
	<polygon fill="#7FBCD7" points="414.374,228.932 367.921,172.426 413.936,228.932 	"/>
	<polygon fill="#7FBCD7" points="414.859,229.542 412.311,229.542 415.84,233.805 423.578,233.243 414.823,229.482 	"/>
	<polygon fill="#7FBCD7" points="409.498,229.542 414.953,233.876 415.84,233.805 412.311,229.542 	"/>
	<polygon fill="#7FBCD7" points="414.374,228.932 414.823,229.482 423.578,233.243 426.022,233.063 422.557,229.122 
		416.346,228.932 	"/>
	<polygon fill="#7FBCD7" points="414.859,229.542 414.823,229.482 414.144,229.197 413.936,228.932 411.802,228.932 
		412.311,229.542 	"/>
	<polygon fill="#7FBCD7" points="411.802,228.932 408.709,228.932 409.498,229.542 412.311,229.542 	"/>
	<polygon fill="#7FBCD7" points="414.144,229.197 414.823,229.482 414.374,228.932 413.936,228.932 	"/>
</g>
<g>
	<polygon fill="none" points="225.057,158.616 224.689,149.887 258.312,149.83 258.312,158.616 	"/>
	<polygon fill="none" points="222.279,153.484 222.661,152.732 222.938,158.616 220.455,158.616 	"/>
	<polygon fill="#7FBCD7" points="154.56,172.426 153.523,168.159 147.576,168.159 94.028,229.122 81.755,229.497 67.475,244.214 
		144.273,165.064 177.496,165.064 172.613,172.426 	"/>
	<polygon fill="#387895" points="147.369,228.932 107.864,228.932 154.56,172.426 172.613,172.426 145.541,213.304 	"/>
	<polygon fill="#4AA0C7" points="199.316,163.026 199.459,165.064 197.994,165.064 197.985,164.909 197.898,165.064 
		177.496,165.064 181.759,158.616 217.703,158.616 216.124,163.026 	"/>
	<line fill="none" stroke="#7FBCD7" stroke-miterlimit="10" x1="154.56" y1="172.426" x2="158.132" y2="196.142"/>
	<polygon fill="#4AA0C7" points="258.312,163.026 225.242,163.026 225.057,158.616 258.312,158.616 	"/>
	<polygon fill="#4AA0C7" points="218.882,163.026 220.455,158.616 222.938,158.616 223.139,163.026 	"/>
	<polygon fill="#4AA0C7" points="193.885,172.426 172.613,172.426 177.496,165.064 197.898,165.064 	"/>
	<polygon fill="#4AA0C7" points="198.583,172.426 197.994,165.064 199.459,165.064 199.938,172.426 	"/>
	<polygon fill="#4AA0C7" points="200.904,201.869 198.583,172.426 199.938,172.426 201.926,202.121 214.38,202.121 214.38,202.788 
		258.312,202.794 258.312,228.932 147.369,228.932 145.541,213.304 172.613,172.426 193.885,172.426 177.869,201.869 	"/>
	<polygon fill="#387895" points="199.459,165.064 199.316,163.026 216.124,163.026 215.398,165.064 	"/>
	<polygon fill="#387895" points="225.332,165.064 225.242,163.026 258.312,163.026 258.312,165.064 	"/>
	<polygon fill="#387895" points="223.234,165.064 218.139,165.064 218.882,163.026 223.139,163.026 	"/>
	<polygon fill="#387895" points="217.485,166.922 218.139,165.064 223.234,165.064 223.322,166.919 	"/>
	<polygon fill="#387895" points="214.729,166.922 214.38,166.926 214.38,168.625 214.38,172.426 199.938,172.426 199.459,165.064 
		215.398,165.064 	"/>
	<polygon fill="#387895" points="225.412,166.918 225.332,165.064 258.312,165.064 258.312,166.91 	"/>
	<polygon fill="#387895" points="217.522,172.426 217.576,169.172 222.602,169.192 221.254,172.426 	"/>
	<polygon fill="#387895" points="201.926,202.121 199.938,172.426 214.38,172.426 214.38,202.121 	"/>
	<polygon fill="#387895" points="217.406,181.579 217.522,172.426 221.254,172.426 	"/>
	<polygon fill="#387895" points="197.985,164.909 197.994,165.064 197.898,165.064 	"/>
	<polygon fill="#387895" points="193.885,172.426 197.898,165.064 197.994,165.064 198.583,172.426 	"/>
	<polygon fill="#387895" points="200.904,201.869 177.869,201.869 193.885,172.426 198.583,172.426 	"/>
	<polygon fill="#FFFFFF" points="224.009,172.426 225.21,169.438 258.312,169.511 258.312,172.426 	"/>
	<polygon fill="#FFFFFF" points="258.312,172.426 258.312,199.601 217.156,199.493 217.305,189.201 224.009,172.426 	"/>
	<polygon fill="#4AA0C7" points="224.689,149.887 225.057,158.616 222.938,158.616 222.661,152.732 222.279,153.484 
		220.455,158.616 217.703,158.616 221.447,148.178 221.477,147.553 258.312,147.491 258.312,149.83 	"/>
	<polygon fill="#4AA0C7" points="223.139,163.026 222.938,158.616 225.057,158.616 225.242,163.026 	"/>
	<polygon fill="#4AA0C7" points="218.882,163.026 216.124,163.026 217.703,158.616 220.455,158.616 	"/>
	<polygon fill="#4AA0C7" points="258.312,202.794 214.38,202.788 214.38,202.121 258.312,202.121 	"/>
	<polygon fill="#4AA0C7" points="223.234,165.064 223.139,163.026 225.242,163.026 225.332,165.064 	"/>
	<polygon fill="#4AA0C7" points="215.398,165.064 216.124,163.026 218.882,163.026 218.139,165.064 	"/>
	<polygon fill="#4AA0C7" points="216.885,168.588 217.485,166.922 223.322,166.919 223.373,167.767 223.192,167.807 
		222.602,169.192 217.576,169.172 217.522,172.426 214.38,172.426 214.38,168.625 214.38,166.926 214.729,166.922 214.623,167.228 	
		"/>
	<polygon fill="#4AA0C7" points="225.412,166.918 223.322,166.919 223.234,165.064 225.332,165.064 	"/>
	<polygon fill="#4AA0C7" points="225.325,168.367 224.875,169.2 224.567,169.199 225.444,167.888 225.424,167.307 225.791,167.222 
		258.312,167.194 258.312,168.367 	"/>
	<polygon fill="#4AA0C7" points="223.504,170.801 224.567,169.199 224.875,169.2 223.148,172.426 221.254,172.426 222.602,169.192 
		223.426,169.196 	"/>
	<polygon fill="#4AA0C7" points="223.426,169.196 224.567,169.199 223.504,170.801 	"/>
	<polygon fill="#4AA0C7" points="222.602,169.192 223.192,167.807 223.373,167.767 223.426,169.196 	"/>
	<polygon fill="#4AA0C7" points="225.444,167.888 224.567,169.199 223.426,169.196 223.373,167.767 225.424,167.307 	"/>
	<polygon fill="#4AA0C7" points="258.312,167.194 225.791,167.222 225.424,167.307 225.412,166.918 258.312,166.91 	"/>
	<polygon fill="#4AA0C7" points="214.729,166.922 215.398,165.064 218.139,165.064 217.485,166.922 	"/>
	<polygon fill="#4AA0C7" points="223.373,167.767 223.322,166.919 225.412,166.918 225.424,167.307 	"/>
	<polygon fill="#4AA0C7" points="216.885,168.588 214.623,167.228 214.729,166.922 217.485,166.922 	"/>
	<polygon fill="#4AA0C7" points="216.354,185.154 216.371,184.035 217.406,181.579 217.388,183.23 	"/>
	<polygon fill="#4AA0C7" points="217.406,181.579 216.371,184.035 216.354,185.154 215.839,186.117 215.839,201.248 
		258.312,201.248 258.312,202.121 214.38,202.121 214.38,172.426 217.522,172.426 	"/>
	<polygon fill="#4AA0C7" points="223.148,172.426 217.388,183.23 217.406,181.579 221.254,172.426 	"/>
	<polygon fill="#4AA0C7" points="258.312,168.367 258.312,169.374 224.875,169.2 225.325,168.367 	"/>
	<polygon fill="#4AA0C7" points="258.312,169.511 225.21,169.438 224.009,172.426 223.148,172.426 224.875,169.2 258.312,169.374 	
		"/>
	<polygon fill="#4AA0C7" points="217.305,189.201 217.388,183.23 223.148,172.426 224.009,172.426 	"/>
	<polygon fill="#4AA0C7" points="217.305,189.201 217.156,199.493 258.312,199.601 258.312,201.248 215.839,201.248 
		215.839,186.117 216.354,185.154 216.243,191.856 	"/>
	<polygon fill="#4AA0C7" points="217.305,189.201 216.243,191.856 216.354,185.154 217.388,183.23 	"/>
	<polygon fill="#7FBCD7" points="67.475,244.214 149.146,244.214 154.17,287.219 258.312,286.047 258.312,368.764 93.87,368.764 	
		"/>
	<polygon fill="#7FBCD7" points="258.312,286.047 154.17,287.219 149.146,244.214 258.312,244.214 	"/>
	<polygon fill="#7FBCD7" points="100.754,233.805 100.108,234.591 100.754,233.805 101.649,233.876 107.104,229.542 
		147.442,229.542 149.146,244.214 67.475,244.214 93.012,233.243 	"/>
	<polygon fill="#7FBCD7" points="94.028,229.122 90.576,233.063 93.012,233.243 67.475,244.214 81.755,229.497 	"/>
	<polygon fill="#7FBCD7" points="147.369,228.932 147.442,229.542 107.104,229.542 107.864,228.932 	"/>
	<polygon fill="#7FBCD7" points="258.312,229.542 258.312,244.214 149.146,244.214 147.442,229.542 	"/>
	<polygon fill="#7FBCD7" points="258.312,228.932 258.312,229.542 147.442,229.542 147.369,228.932 	"/>
	<polygon fill="#7FBCD7" points="152.292,171.446 151.483,172.426 148.659,172.426 102.22,228.932 100.252,228.932 94.028,229.122 
		147.576,168.159 153.523,168.159 154.56,172.426 151.483,172.426 	"/>
	<polygon fill="#7FBCD7" points="148.659,172.426 151.483,172.426 104.787,228.932 102.65,228.932 	"/>
	<polygon fill="#7FBCD7" points="104.787,228.932 151.483,172.426 154.56,172.426 107.864,228.932 	"/>
	<polygon fill="#7FBCD7" points="102.22,228.932 148.659,172.426 102.65,228.932 	"/>
	<polygon fill="#7FBCD7" points="101.712,229.542 104.292,229.542 100.754,233.805 93.012,233.243 101.76,229.482 	"/>
	<polygon fill="#7FBCD7" points="107.104,229.542 101.649,233.876 100.754,233.805 104.292,229.542 	"/>
	<polygon fill="#7FBCD7" points="102.22,228.932 101.76,229.482 93.012,233.243 90.576,233.063 94.028,229.122 100.252,228.932 	"/>
	<polygon fill="#7FBCD7" points="101.712,229.542 101.76,229.482 102.439,229.197 102.65,228.932 104.787,228.932 104.292,229.542 	
		"/>
	<polygon fill="#7FBCD7" points="104.787,228.932 107.864,228.932 107.104,229.542 104.292,229.542 	"/>
	<polygon fill="#7FBCD7" points="102.439,229.197 101.76,229.482 102.22,228.932 102.65,228.932 	"/>
</g>
<polyline fill="#FFFFFF" points="217.254,192.202 217.167,202.121 299.46,202.121 299.297,192.017 295.592,187.145 "/>
</svg>
