<?xml version="1.0" encoding="utf-8"?>
<!-- Generator: Adobe Illustrator 16.0.0, SVG Export Plug-In . SVG Version: 6.00 Build 0)  -->
<!DOCTYPE svg PUBLIC "-//W3C//DTD SVG 1.1//EN" "http://www.w3.org/Graphics/SVG/1.1/DTD/svg11.dtd">
<svg version="1.1" id="desire_lines" xmlns="http://www.w3.org/2000/svg" xmlns:xlink="http://www.w3.org/1999/xlink" x="0px"
	 y="0px" width="511.475px" height="511.475px" viewBox="0 0 511.475 511.475" enable-background="new 0 0 511.475 511.475"
	 xml:space="preserve">
<rect x="0.001" fill="#FFFFFF" width="511.473" height="511.476"/>
<g id="Icon">
	<g id="g4310" transform="matrix(1.1876553,0,0,1.1876553,579.25835,-183.2473)">
		<g id="g4206" transform="translate(-547.85714,2.6913062e-7)">
		</g>
		<g id="g4297" transform="translate(-545.75914,0.937554)">
			<g id="g4268" transform="matrix(3.3795668,0,0,3.3795668,-949.02735,-1124.8862)">
				<g id="g4284">
					<path id="rect4250-4" fill="#397B98" d="M412.503,420.677l-50.338-29.01l-0.128,72.488l46.897-0.004L412.503,420.677z"/>
					<path id="rect4250" fill="#438FB0" d="M311.86,420.677l50.326-29.01l0.153,72.488h-46.667L311.86,420.677z"/>
					<g id="g4237" transform="matrix(0.71110153,0.44802194,-0.71110153,0.44802194,534.84844,109.08585)">
						<polygon id="rect4215" fill="#4AA0C7" stroke="#4AA0C7" stroke-width="2.7248" points="242.727,485.368 307.151,485.368 
							307.151,549.797 242.724,549.799 						"/>
						<polygon id="rect4215-0" fill="#4AA0C7" stroke="#FFFFFF" stroke-width="2.2607" points="248.291,490.913 301.751,490.918 
							301.746,544.367 248.297,544.371 						"/>
						<polygon id="rect4232" fill="#FFFFFF" stroke="#AED4E6" stroke-width="3" points="253.633,496.273 264.448,496.281 
							264.446,507.27 253.635,507.279 						"/>
						<polygon id="rect4232-1" fill="#FFFFFF" stroke="#AED4E6" stroke-width="3" points="269.531,496.278 280.342,496.268 
							280.345,507.274 269.523,507.273 						"/>
						<polygon id="rect4232-0" fill="#FFFFFF" stroke="#AED4E6" stroke-width="3" points="285.684,496.354 296.499,496.348 
							296.499,507.346 285.681,507.339 						"/>
						<polygon id="rect4232-09" fill="#FFFFFF" stroke="#AED4E6" stroke-width="3" points="253.634,512.132 264.452,512.135 
							264.458,523.138 253.639,523.133 						"/>
						<polygon id="rect4232-1-9" fill="#FFFFFF" stroke="#AED4E6" stroke-width="3" points="269.529,512.139 280.352,512.14 
							280.35,523.129 269.538,523.138 						"/>
						<polygon id="rect4232-0-6" fill="#FFFFFF" stroke="#AED4E6" stroke-width="3" points="285.689,512.208 296.504,512.215 
							296.504,523.2 285.689,523.207 						"/>
						<polygon id="rect4232-09-3" fill="#FFFFFF" stroke="#AED4E6" stroke-width="3" points="253.599,528.211 264.412,528.206 
							264.418,539.205 253.597,539.203 						"/>
						<polygon id="rect4232-1-9-6" fill="#FFFFFF" stroke="#AED4E6" stroke-width="3" points="269.492,528.207 280.312,528.211 
							280.307,539.199 269.496,539.203 						"/>
						<polygon id="rect4232-0-6-5" fill="#FFFFFF" stroke="#AED4E6" stroke-width="3" points="285.646,528.28 296.468,528.28 
							296.46,539.275 285.648,539.277 						"/>
					</g>
				</g>
			</g>
		</g>
	</g>
</g>
</svg>
