<?xml version="1.0" encoding="UTF-8" standalone="no"?>
<!-- Created with Inkscape (http://www.inkscape.org/) -->

<svg
   xmlns:dc="http://purl.org/dc/elements/1.1/"
   xmlns:cc="http://creativecommons.org/ns#"
   xmlns:rdf="http://www.w3.org/1999/02/22-rdf-syntax-ns#"
   xmlns:svg="http://www.w3.org/2000/svg"
   xmlns="http://www.w3.org/2000/svg"
   xmlns:sodipodi="http://sodipodi.sourceforge.net/DTD/sodipodi-0.dtd"
   xmlns:inkscape="http://www.inkscape.org/namespaces/inkscape"
   width="210mm"
   height="297mm"
   viewBox="0 0 744.09448819 1052.3622047"
   id="svg2"
   version="1.1"
   inkscape:version="0.91 r13725"
   sodipodi:docname="zauber_cauldrons_1.svg"
   enable-background="new">
  <defs
     id="defs4" />
  <sodipodi:namedview
     id="base"
     pagecolor="#ffffff"
     bordercolor="#666666"
     borderopacity="1.0"
     inkscape:pageopacity="0.0"
     inkscape:pageshadow="2"
     inkscape:zoom="0.7"
     inkscape:cx="76.981933"
     inkscape:cy="382.07376"
     inkscape:document-units="px"
     inkscape:current-layer="g4517"
     showgrid="false"
     inkscape:window-width="1920"
     inkscape:window-height="1017"
     inkscape:window-x="-8"
     inkscape:window-y="-8"
     inkscape:window-maximized="1"
     inkscape:snap-global="false" />
  <metadata
     id="metadata7">
    <rdf:RDF>
      <cc:Work
         rdf:about="">
        <dc:format>image/svg+xml</dc:format>
        <dc:type
           rdf:resource="http://purl.org/dc/dcmitype/StillImage" />
        <dc:title />
      </cc:Work>
    </rdf:RDF>
  </metadata>
  <g
     inkscape:label="Layer 1"
     inkscape:groupmode="layer"
     id="layer1"
     style="opacity:1;">
    <g
       transform="translate(-1402.7388,-50.60915)"
       id="g4177" />
    <a
       id="a4378">
      <g
         id="g4323">
        <g
           id="g4384" />
      </g>
    </a>
    <a
       transform="translate(554,0)"
       id="a4357" />
    <g
       id="g5273"
       transform="translate(-2.8571388,2.8571431)">
      <g
         transform="translate(-553.50268,2.0406102)"
         id="g4629">
        <g
           id="g4622">
          <g
             id="g4597">
            <path
               sodipodi:nodetypes="cccccccccccccccccc"
               inkscape:connector-curvature="0"
               id="rect3335"
               d="m 664.64732,781.07198 68.15373,32.60643 30.88088,-15.62056 -0.20848,-28.465 110.85024,52.59372 -0.12555,63.76079 66.62201,36.044 65.89715,-36.23704 0.1721,-63.95532 86.8615,-41.51106 c 20.1176,-9.71212 23.8532,-11.58529 23.8532,-11.58529 l 0.4247,30.2414 30.8032,15.07643 67.0208,-33.13299 0.1556,-340.20418 L 940.60719,301.82646 664.95982,440.5717 Z"
               style="opacity:1;fill:#4aa0c7;fill-opacity:1;fill-rule:evenodd;stroke:none;stroke-width:1px;stroke-linecap:butt;stroke-linejoin:miter;stroke-opacity:1" />
            <path
               sodipodi:nodetypes="ccccc"
               inkscape:connector-curvature="0"
               id="rect4159"
               d="m 733.33858,440.73831 205.62499,-106.07143 0.17857,38.62499 -168.39285,86.375 z"
               style="fill:#428eb1;fill-opacity:1;stroke:none" />
            <path
               sodipodi:nodetypes="ccccc"
               inkscape:connector-curvature="0"
               id="rect4159-4"
               d="m 1147.2232,440.45531 -205.62498,-106.07143 -0.17857,38.62499 168.39285,86.375 z"
               style="opacity:1;fill:#428eb1;fill-opacity:1;stroke:none" />
          </g>
          <path
             sodipodi:nodetypes="ccccc"
             inkscape:connector-curvature="0"
             id="path4182"
             d="m 770.57447,459.4846 169.70373,-87.80712 170.168,87.47295 -170.67724,86.85758 z"
             style="fill:#3882a5;fill-opacity:1;fill-rule:evenodd;stroke:none;stroke-width:1px;stroke-linecap:butt;stroke-linejoin:miter;stroke-opacity:1" />
        </g>
        <g
           id="g4517"
           style="fill:#499fc6;fill-opacity:1">
          <g
             id="g4511"
             style="fill:#4aa0c7;fill-opacity:1">
            <path
               sodipodi:nodetypes="ccccccccccccccccc"
               inkscape:connector-curvature="0"
               id="path4198-2"
               d="m 817.65121,406.17461 17.67857,-8.21429 2.31152,4.64372 6.03668,-2.8135 5.35715,12.14287 -5.25571,2.71051 5.47892,11.53055 -5.80356,2.94643 -5.44644,-12.14286 -6.25,2.94643 5.71429,12.14286 -6.07143,2.85714 -6.07143,-12.41071 -5.80357,2.67857 -5.26786,-11.60715 5.625,-2.41071 z"
               style="opacity:1;fill:#4aa0c7;fill-opacity:1;fill-rule:evenodd;stroke:none;stroke-width:1px;stroke-linecap:butt;stroke-linejoin:miter;stroke-opacity:1" />
            <path
               inkscape:connector-curvature="0"
               id="path4200-7"
               d="m 849.23603,426.12998 6.33929,-3.14733 3.37053,6.1384 4.8051,-2.36152 3.34613,6.18718 5.87152,-3.03046 12.6269,25.69576 -37.05997,21.71828 -24.24366,-12.81631 -4.60882,-9.02824 5.93465,-2.96732 -3.0936,-5.80838 5.93465,-2.77792 -3.21986,-6.12405 6.13983,-2.90419 3.17251,6.01357 17.74081,-8.85462 -3.12516,-6.02935 z"
               style="opacity:1;fill:#4aa0c7;fill-opacity:1;fill-rule:evenodd;stroke:none;stroke-width:1px;stroke-linecap:butt;stroke-linejoin:miter;stroke-opacity:1" />
            <path
               sodipodi:nodetypes="ccccccccccccccccc"
               inkscape:connector-curvature="0"
               id="path4198-6-7"
               d="m 1045.7316,400.41984 -18.977,-4.45863 -1.3218,5.01598 -6.4818,-1.53088 -2.7834,12.97694 5.6961,1.5884 -3.0268,12.40203 6.2805,1.70833 2.8708,-12.99504 6.7177,1.61779 -3.1332,13.04935 6.5247,1.56657 3.4286,-13.38406 6.2261,1.44603 2.8047,-12.43424 -5.997,-1.21995 z"
               style="opacity:1;fill:#4aa0c7;fill-opacity:1;fill-rule:evenodd;stroke:none;stroke-width:1px;stroke-linecap:butt;stroke-linejoin:miter;stroke-opacity:1" />
            <path
               inkscape:connector-curvature="0"
               id="path4200-5-1"
               d="m 1018.8497,426.36559 -6.8458,-1.79641 -2.0557,6.69436 -5.1842,-1.33804 -2.0219,6.73718 -6.36404,-1.77682 -6.6487,22.79796 29.45624,14.76189 31.3687,-13.42572 3.1874,-9.90154 -6.4131,-1.70219 1.8514,-6.31504 -6.3746,-1.51673 1.911,-6.64976 -6.6012,-1.59877 -1.8871,6.53197 -19.1678,-5.07304 1.8376,-6.53782 z"
               style="opacity:1;fill:#4aa0c7;fill-opacity:1;fill-rule:evenodd;stroke:none;stroke-width:1px;stroke-linecap:butt;stroke-linejoin:miter;stroke-opacity:1"
               sodipodi:nodetypes="ccccccccccccccccccc" />
          </g>
          <g
             id="g4352"
             transform="matrix(-0.9735789,0.22835087,0.22835087,0.9735789,1214.8002,20.820206)"
             style="fill:#4aa0c7;fill-opacity:1">
            <g
               id="g4392"
               style="fill:#4aa0c7;fill-opacity:1">
              <path
                 sodipodi:nodetypes="ccccccccccccccccccccccccccccc"
                 inkscape:connector-curvature="0"
                 id="path4269"
                 d="m 395.9798,355.35695 -10.44409,2.18383 0.89286,5.66964 -6.65179,1.20536 1.02679,5.40178 -5.56504,1.21619 1.09323,5.90571 12.20491,-2.17551 0.92377,5.49796 -6.16389,1.25766 2.51903,12.17567 -17.48214,3.59681 -1.04954,-6.1817 -6.52497,1.25186 1.20535,6.29464 -4.82142,0.75893 1.07142,5.71428 -6.69642,1.42858 1.42857,6.5625 28.70535,16.20535 26.25,-13.97321 -0.13392,-2.76786 -3.25893,-16.65178 -5.66965,1.42857 -1.20535,-5.80357 -5.98215,1.11607 -1.20535,-6.33929 11.51785,-2.1875 z"
                 style="opacity:1;fill:#4aa0c7;fill-opacity:1;fill-rule:evenodd;stroke:none;stroke-width:1px;stroke-linecap:butt;stroke-linejoin:miter;stroke-opacity:1"
                 transform="matrix(-0.97357891,0.22835087,0.22835087,0.97357891,638.21711,-169.61258)" />
              <path
                 sodipodi:nodetypes="ccccc"
                 inkscape:connector-curvature="0"
                 id="path4288"
                 d="m 366.19048,384.95825 1.06837,6.16908 5.63164,-1.14299 -1.16324,-5.969 z"
                 style="opacity:1;fill:#4aa0c7;fill-opacity:1;fill-rule:evenodd;stroke:none;stroke-width:1.01979995px;stroke-linecap:butt;stroke-linejoin:miter;stroke-opacity:1"
                 transform="matrix(-0.97357891,0.22835087,0.22835087,0.97357891,638.21711,-169.61258)" />
              <path
                 sodipodi:nodetypes="ccccc"
                 inkscape:connector-curvature="0"
                 id="path4288-8"
                 d="m 370.80738,377.92006 0.9032,6.14407 5.66813,-1.00769 -1.0355,-6.15029 z"
                 style="opacity:1;fill:#4aa0c7;fill-opacity:1;fill-rule:evenodd;stroke:none;stroke-width:1.00269747px;stroke-linecap:butt;stroke-linejoin:miter;stroke-opacity:1"
                 transform="matrix(-0.97357891,0.22835087,0.22835087,0.97357891,638.21711,-169.61258)" />
              <path
                 sodipodi:nodetypes="ccccccccccccccccccccccccccccc"
                 inkscape:connector-curvature="0"
                 id="path4269-4"
                 d="m 395.55333,355.19758 -10.44409,2.18383 0.89286,5.66964 -6.65179,1.20536 1.02679,5.40178 -5.56504,1.21619 1.09323,5.90571 12.20491,-2.17551 0.92377,5.49796 -6.16389,1.25766 2.51903,12.17567 -17.48214,3.59681 -1.04954,-6.1817 -6.52497,1.25186 1.20535,6.29464 -4.82142,0.75893 1.07142,5.71428 -6.69642,1.42858 3.80813,15.60187 31.20511,8.61546 21.37068,-15.42269 -0.13392,-2.76786 -3.25893,-16.65178 -5.66965,1.42857 -1.20535,-5.80357 -5.98215,1.11607 -1.20535,-6.33929 11.51785,-2.1875 z"
                 style="fill:#4aa0c7;fill-opacity:1;fill-rule:evenodd;stroke:none;stroke-width:1px;stroke-linecap:butt;stroke-linejoin:miter;stroke-opacity:1" />
              <path
                 inkscape:connector-curvature="0"
                 id="path4288-1"
                 d="m 365.38029,385.18936 1.40222,5.83105 5.87903,-1.12597 -1.3355,-5.8853 z"
                 style="fill:#4aa0c7;fill-opacity:1;fill-rule:evenodd;stroke:none;stroke-width:1.01979995px;stroke-linecap:butt;stroke-linejoin:miter;stroke-opacity:1"
                 sodipodi:nodetypes="ccccc" />
              <path
                 inkscape:connector-curvature="0"
                 id="path4288-8-8"
                 d="m 369.90321,377.99783 1.33399,6.11333 5.9281,-0.97107 -1.22034,-6.4669 z"
                 style="opacity:1;fill:#4aa0c7;fill-opacity:1;fill-rule:evenodd;stroke:none;stroke-width:1.00269747px;stroke-linecap:butt;stroke-linejoin:miter;stroke-opacity:1"
                 sodipodi:nodetypes="ccccc" />
            </g>
          </g>
        </g>
      </g>
    </g>
  </g>
</svg>
