<?xml version="1.0" encoding="utf-8"?>
<!-- Generator: Adobe Illustrator 16.0.0, SVG Export Plug-In . SVG Version: 6.00 Build 0)  -->
<!DOCTYPE svg PUBLIC "-//W3C//DTD SVG 1.1//EN" "http://www.w3.org/Graphics/SVG/1.1/DTD/svg11.dtd">
<svg version="1.1"
	 id="svg8" xmlns:inkscape="http://www.inkscape.org/namespaces/inkscape" xmlns:cc="http://creativecommons.org/ns#" xmlns:rdf="http://www.w3.org/1999/02/22-rdf-syntax-ns#" xmlns:sodipodi="http://sodipodi.sourceforge.net/DTD/sodipodi-0.dtd" xmlns:dc="http://purl.org/dc/elements/1.1/" xmlns:svg="http://www.w3.org/2000/svg"
	 xmlns="http://www.w3.org/2000/svg" xmlns:xlink="http://www.w3.org/1999/xlink" x="0px" y="0px" width="511.473px"
	 height="511.473px" viewBox="0 0 511.473 511.473" enable-background="new 0 0 511.473 511.473" xml:space="preserve">
<rect y="-0.002" fill="#FFFFFF" width="511.473" height="511.477"/>
<g id="Icon">
	<g id="Crossbow">
		<rect x="135.125" y="136.307" fill="#A1CEE2" width="25.767" height="24.698"/>
		<rect x="110.509" y="158.725" fill="#4AA0C7" width="52.871" height="25.975"/>
		<rect x="135.304" y="163.18" fill="#4AA0C7" width="28.548" height="46.322"/>
		<rect x="159.868" y="136.741" fill="#4AA0C7" width="51.232" height="27.139"/>
		<rect x="159.635" y="112.178" fill="#4AA0C7" width="23.394" height="56.149"/>
		<rect x="351.753" y="353.819" fill="#3D83A3" width="73.08" height="71.323"/>
		<rect x="327.469" y="329.741" fill="#3D83A3" width="73.094" height="71.33"/>
		<rect x="303.976" y="305.064" fill="#3D83A3" width="73.072" height="71.323"/>
		<rect x="256.161" y="256.132" fill="#3D83A3" width="96.044" height="96.813"/>
		<rect x="232.42" y="232.564" fill="#3D83A3" width="96.043" height="96.796"/>
		<rect x="207.043" y="208.927" fill="#3D83A3" width="96.045" height="96.813"/>
		<rect x="184.287" y="184.43" fill="#3D83A3" width="96.056" height="96.813"/>
		<rect x="159.783" y="158.611" fill="#3D83A3" width="96.042" height="96.803"/>
		<rect x="129.527" y="352.562" fill="#4AA0C7" width="247.205" height="23.826"/>
		<rect x="351.828" y="128.406" fill="#4AA0C7" width="25.412" height="248.04"/>
		<rect x="207.484" y="111.792" fill="#3D83A3" width="47.483" height="58.229"/>
		<rect x="249.266" y="111.986" fill="#3D83A3" width="79.902" height="46.667"/>
		<rect x="255.807" y="87.415" fill="#3D83A3" width="144.894" height="49.131"/>
		<rect x="351.856" y="63.549" fill="#3D83A3" width="24.847" height="30.947"/>
		<rect x="110.409" y="208.199" fill="#3D83A3" width="58.233" height="47.486"/>
		<rect x="110.193" y="208.429" fill="#3D83A3" width="49.59" height="96.734"/>
		<rect x="87.062" y="256.845" fill="#3D83A3" width="49.028" height="144.505"/>
		<rect x="63.755" y="353.897" fill="#3D83A3" width="29.105" height="21.981"/>
		<rect x="140.729" y="208.294" fill="#3D83A3" width="41.31" height="47.838"/>
		<rect x="377.014" y="406.866" fill="#3D83A3" width="48.383" height="44.176"/>
		<rect x="406.86" y="377.037" fill="#3D83A3" width="44.176" height="49.324"/>
	</g>
	<g id="Fish">
		<rect x="345.072" y="347.304" fill="#4AA0C7" width="9.79" height="8.636"/>
		<rect x="225.29" y="239.062" fill="#A1CEE2" width="65.449" height="53.984"/>
		<rect x="236.353" y="227.684" fill="#A1CEE2" width="33.131" height="14.99"/>
		<rect x="246.021" y="249.745" fill="#A1CEE2" width="76.719" height="55.172"/>
		<rect x="247.404" y="293.027" fill="#A1CEE2" width="86.39" height="22.447"/>
		<rect x="317.884" y="260.991" fill="#A1CEE2" width="15.664" height="21.343"/>
		<rect x="279.016" y="312.188" fill="#A1CEE2" width="54.702" height="13.162"/>
		<rect x="279.352" y="315.016" fill="#A1CEE2" width="65.541" height="21.51"/>
		<rect x="312.714" y="324.846" fill="#A1CEE2" width="54.537" height="22.686"/>
		<rect x="322.718" y="342.688" fill="#A1CEE2" width="22.681" height="27.2"/>
		<rect x="225.221" y="227.801" fill="#4AA0C7" width="11.131" height="11.198"/>
		<rect x="215.434" y="238.916" fill="#4AA0C7" width="9.813" height="33.292"/>
		<rect x="225.243" y="272.164" fill="#4AA0C7" width="11.21" height="21.019"/>
		<rect x="236.39" y="292.979" fill="#4AA0C7" width="11.008" height="12.016"/>
		<rect x="247.377" y="304.313" fill="#4AA0C7" width="11.184" height="11.175"/>
		<rect x="258.555" y="315.488" fill="#4AA0C7" width="20.991" height="9.819"/>
		<rect x="278.964" y="325.313" fill="#4AA0C7" width="33.74" height="11.25"/>
		<rect x="247.442" y="238.896" fill="#3D83A3" width="11.058" height="10.891"/>
		<rect x="312.714" y="347.19" fill="#4AA0C7" width="10.34" height="24.544"/>
	</g>
</g>
</svg>
