<?xml version="1.0" encoding="utf-8"?>
<!-- Generator: Adobe Illustrator 16.0.0, SVG Export Plug-In . SVG Version: 6.00 Build 0)  -->
<!DOCTYPE svg PUBLIC "-//W3C//DTD SVG 1.1//EN" "http://www.w3.org/Graphics/SVG/1.1/DTD/svg11.dtd">
<svg version="1.1" id="desire_lines" xmlns="http://www.w3.org/2000/svg" xmlns:xlink="http://www.w3.org/1999/xlink" x="0px"
	 y="0px" width="511.475px" height="511.475px" viewBox="0 0 511.475 511.475" enable-background="new 0 0 511.475 511.475"
	 xml:space="preserve">
<rect fill="#FFFFFF" width="511.473" height="511.476"/>
<g id="Icon">
	<g id="Sword">
		<g>
			<rect x="212.6" y="230.936" fill="#3D83A3" width="64.279" height="64.299"/>
			<rect x="191.337" y="272.949" fill="#3D83A3" width="42.527" height="44.531"/>
		</g>
		<g>
			<rect x="276.369" y="186.885" fill="#A1CEE2" width="44.054" height="42.027"/>
			<rect x="255.636" y="208.141" fill="#A1CEE2" width="44.036" height="42.014"/>
			<rect x="233.352" y="230.424" fill="#A1CEE2" width="44.039" height="42.015"/>
		</g>
	</g>
	<g>
		<rect x="364.965" y="244.396" fill="#7FBCD7" width="24.319" height="39.834"/>
		<rect x="121.99" y="142.845" fill="#7FBCD7" width="39.792" height="24.302"/>
		<rect x="196.21" y="142.845" fill="#7FBCD7" width="56.438" height="24.302"/>
		<rect x="340.668" y="142.845" fill="#7FBCD7" width="48.616" height="24.302"/>
		<rect x="364.965" y="323.061" fill="#7FBCD7" width="24.319" height="38.477"/>
		<rect x="364.965" y="143.351" fill="#7FBCD7" width="24.319" height="60.493"/>
		<rect x="121.99" y="337.247" fill="#7FBCD7" width="62.725" height="24.29"/>
		<rect x="213.11" y="337.247" fill="#7FBCD7" width="24.287" height="24.29"/>
		<rect x="272.045" y="337.247" fill="#7FBCD7" width="32.424" height="24.29"/>
		<rect x="325.447" y="337.247" fill="#7FBCD7" width="63.326" height="24.29"/>
		<rect x="121.99" y="295.234" fill="#7FBCD7" width="24.306" height="65.792"/>
		<rect x="121.99" y="142.845" fill="#7FBCD7" width="24.306" height="48.591"/>
		<rect x="121.99" y="214.271" fill="#7FBCD7" width="24.306" height="34.016"/>
		<rect x="288.277" y="142.845" fill="#7FBCD7" width="27.904" height="24.302"/>
	</g>
	<g id="Particles">
		<g id="g4809-5-5-5" transform="matrix(0.8271092,-0.27484904,0.27484904,0.8271092,218.34555,369.73633)">
			
				<rect id="rect4651-24-7-2" x="84.796" y="-306.845" transform="matrix(-0.9116 0.411 -0.411 -0.9116 43.0256 -616.7094)" fill="#4AA0C7" width="6.028" height="6.232"/>
			<polygon id="rect4651-9-1-3-0" fill="#4AA0C7" points="83.783,-305.279 78.295,-302.805 75.748,-308.478 81.242,-310.953 			"/>
			
				<rect id="rect4651-9-5-90-2-1" x="75.048" y="-302.172" transform="matrix(-0.9117 0.4109 -0.4109 -0.9117 27.6192 -597.8804)" fill="#4AA0C7" width="6.026" height="12.401"/>
			<polygon id="rect4651-9-5-8-2-9-5" fill="#4AA0C7" points="99.384,-298.715 101.811,-293.198 85.754,-286.016 83.326,-291.527 
							"/>
			<polygon id="rect4651-9-5-8-3-5-1-0" fill="#4AA0C7" points="91.589,-315.874 97.102,-318.357 104.892,-301.099 99.382,-298.669 
							"/>
			<polygon id="rect4651-9-4-7-1-1" fill="#4AA0C7" points="91.543,-315.882 86.051,-313.409 83.496,-319.083 88.989,-321.562 			
				"/>
			<polygon id="rect4651-9-5-8-7-1-3-5" fill="#4AA0C7" points="81.104,-324.578 83.575,-319.067 67.538,-311.875 65.053,-317.402 
							"/>
			<polygon id="rect4651-9-6-1-3-5" fill="#4AA0C7" points="70.021,-306.235 64.528,-303.765 61.967,-309.442 67.46,-311.914 			"/>
			<polygon id="rect4651-9-5-8-3-0-6-2-7" fill="#4AA0C7" points="59.073,-301.298 64.607,-303.73 72.337,-286.522 66.883,-284.032 
							"/>
		</g>
		<g id="g4809-5-5-5_1_" transform="matrix(0.8271092,-0.27484904,0.27484904,0.8271092,218.34555,369.73633)">
			<polygon id="rect4651-24-7-2_1_" fill="#4AA0C7" points="15.438,53.686 13.513,57.306 10.015,55.467 11.939,51.847 			"/>
			<polygon id="rect4651-9-1-3-0_1_" fill="#4AA0C7" points="20.814,51.94 18.883,55.58 15.409,53.724 17.315,50.098 			"/>
			<polygon id="rect4651-9-5-90-2-1_1_" fill="#4AA0C7" points="22.367,57.441 18.571,64.57 15.089,62.737 18.871,55.585 			"/>
			<polygon id="rect4651-9-5-8-2-9-5_1_" fill="#4AA0C7" points="15.098,62.759 13.276,66.267 3.095,60.886 4.908,57.403 			"/>
			<polygon id="rect4651-9-5-8-3-5-1-0_1_" fill="#4AA0C7" points="4.908,57.403 1.425,55.589 7.242,44.633 10.745,46.453 			"/>
			<polygon id="rect4651-9-4-7-1-1_1_" fill="#4AA0C7" points="16.147,44.731 14.241,48.361 10.747,46.499 12.679,42.856 			"/>
			<polygon id="rect4651-9-5-8-7-1-3-5_1_" fill="#4AA0C7" points="28.149,46.571 26.33,50.107 16.102,44.752 17.928,41.189 			"/>
			<polygon id="rect4651-9-6-1-3-5_1_" fill="#4AA0C7" points="29.838,51.923 27.892,55.536 24.414,53.703 26.338,50.084 			"/>
			<polygon id="rect4651-9-5-8-3-0-6-2-7_1_" fill="#4AA0C7" points="25.553,68.326 22.07,66.472 27.885,55.515 31.401,57.409 			
				"/>
		</g>
		<g id="g4809-5-5-5_2_" transform="matrix(0.8271092,-0.27484904,0.27484904,0.8271092,218.34555,369.73633)">
			<polygon id="rect4651-24-7-2_2_" fill="#4AA0C7" points="-116.948,-195.372 -119.833,-193.894 -121.352,-196.86 
				-118.473,-198.34 			"/>
			
				<rect id="rect4651-9-1-3-0_2_" x="-125.123" y="-199.237" transform="matrix(-0.8894 0.4572 -0.4572 -0.8894 -323.6708 -316.811)" fill="#4AA0C7" width="3.24" height="3.337"/>
			
				<rect id="rect4651-9-5-90-2-1_2_" x="-125.715" y="-194.973" transform="matrix(-0.8901 0.4558 -0.4558 -0.8901 -321.8995 -305.6931)" fill="#4AA0C7" width="3.245" height="6.629"/>
			<polygon id="rect4651-9-5-8-2-9-5_2_" fill="#4AA0C7" points="-112.775,-193.74 -111.305,-190.844 -119.711,-186.6 
				-121.186,-189.474 			"/>
			<polygon id="rect4651-9-5-8-3-5-1-0_2_" fill="#4AA0C7" points="-117.44,-202.686 -114.55,-204.156 -109.893,-195.151 
				-112.782,-193.68 			"/>
			<polygon id="rect4651-9-4-7-1-1_2_" fill="#4AA0C7" points="-117.357,-202.666 -120.237,-201.185 -121.757,-204.174 
				-118.875,-205.655 			"/>
			<polygon id="rect4651-9-5-8-7-1-3-5_2_" fill="#4AA0C7" points="-123.256,-207.043 -121.79,-204.149 -130.143,-199.899 
				-131.603,-202.793 			"/>
			<polygon id="rect4651-9-6-1-3-5_2_" fill="#4AA0C7" points="-128.616,-196.938 -131.498,-195.459 -133.018,-198.45 
				-130.142,-199.908 			"/>
			<polygon id="rect4651-9-5-8-3-0-6-2-7_2_" fill="#4AA0C7" points="-134.391,-194.038 -131.505,-195.509 -126.901,-186.486 
				-129.732,-185.032 			"/>
		</g>
		<g id="g4809-5-5-5_3_" transform="matrix(0.8271092,-0.27484904,0.27484904,0.8271092,218.34555,369.73633)">
			<polygon id="rect4651-24-7-2_3_" fill="#4AA0C7" points="296.289,-220.807 292.066,-218.959 290.299,-223.036 294.516,-224.882 
							"/>
			<polygon id="rect4651-9-1-3-0_3_" fill="#4AA0C7" points="302.23,-218.467 298.01,-216.626 296.216,-220.714 300.436,-222.556 
							"/>
			<polygon id="rect4651-9-5-90-2-1_3_" fill="#4AA0C7" points="299.865,-212.6 291.459,-208.928 289.667,-213.014 
				298.069,-216.674 			"/>
			<polygon id="rect4651-9-5-8-2-9-5_3_" fill="#4AA0C7" points="289.649,-212.968 285.613,-211.194 280.359,-223.034 
				284.441,-224.863 			"/>
			<polygon id="rect4651-9-5-8-3-5-1-0_3_" fill="#4AA0C7" points="284.396,-224.81 282.614,-228.913 295.442,-234.479 
				297.209,-230.381 			"/>
			<polygon id="rect4651-9-4-7-1-1_3_" fill="#4AA0C7" points="303.183,-228.157 298.961,-226.313 297.172,-230.399 
				301.389,-232.241 			"/>
			<polygon id="rect4651-9-5-8-7-1-3-5_3_" fill="#4AA0C7" points="312.492,-218.128 308.384,-216.307 303.171,-228.147 
				307.212,-229.978 			"/>
			<polygon id="rect4651-9-6-1-3-5_3_" fill="#4AA0C7" points="310.162,-212.165 305.941,-210.319 304.147,-214.408 
				308.37,-216.254 			"/>
			<polygon id="rect4651-9-5-8-3-0-6-2-7_3_" fill="#4AA0C7" points="294.965,-200.72 293.219,-204.815 305.961,-210.386 
				307.784,-206.287 			"/>
		</g>
		<g id="g4809-5-5-5_4_" transform="matrix(0.8271092,-0.27484904,0.27484904,0.8271092,218.34555,369.73633)">
			<polygon id="rect4651-24-7-2_4_" fill="#4AA0C7" points="262.925,53.858 258.646,58.378 254.28,54.223 258.558,49.701 			"/>
			<polygon id="rect4651-9-1-3-0_4_" fill="#4AA0C7" points="262.75,45.123 258.472,49.646 254.107,45.492 258.386,40.97 			"/>
			<polygon id="rect4651-9-5-90-2-1_4_" fill="#4AA0C7" points="254.11,45.512 245.579,54.528 241.215,50.373 249.731,41.398 			"/>
			<polygon id="rect4651-9-5-8-2-9-5_4_" fill="#4AA0C7" points="258.366,66.615 254.164,70.965 241.406,58.825 245.608,54.474 			
				"/>
			<polygon id="rect4651-9-5-8-3-5-1-0_4_" fill="#4AA0C7" points="271.294,52.89 275.645,57.053 262.677,70.778 258.287,66.614 			
				"/>
			<polygon id="rect4651-9-4-7-1-1_4_" fill="#4AA0C7" points="275.548,48.364 271.252,52.882 266.869,48.764 271.147,44.244 			"/>
			<polygon id="rect4651-9-5-8-7-1-3-5_4_" fill="#4AA0C7" points="275.381,39.902 271.186,44.257 258.427,32.158 262.631,27.722 
							"/>
			<polygon id="rect4651-9-6-1-3-5_4_" fill="#4AA0C7" points="258.465,32.132 254.186,36.636 249.804,32.512 254.082,27.988 			"/>
			<polygon id="rect4651-9-5-8-3-0-6-2-7_4_" fill="#4AA0C7" points="245.403,28.334 249.821,32.507 236.815,46.271 232.464,42.108 
							"/>
		</g>
	</g>
</g>
</svg>
