<?xml version="1.0" encoding="utf-8"?>
<!-- Generator: Adobe Illustrator 16.0.0, SVG Export Plug-In . SVG Version: 6.00 Build 0)  -->
<!DOCTYPE svg PUBLIC "-//W3C//DTD SVG 1.1//EN" "http://www.w3.org/Graphics/SVG/1.1/DTD/svg11.dtd">
<svg version="1.1" id="sunken_treasure" xmlns="http://www.w3.org/2000/svg" xmlns:xlink="http://www.w3.org/1999/xlink" x="0px"
	 y="0px" width="511.473px" height="511.473px" viewBox="0 0 511.473 511.473" enable-background="new 0 0 511.473 511.473"
	 xml:space="preserve">
<rect x="0.032" fill="#FFFFFF" width="511.44" height="511.474"/>
<g>
	<g>
		<g>
			<rect x="0.032" y="61.365" fill="#A1CEE2" width="511.439" height="380.189"/>
		</g>
	</g>
</g>
<g>
	<polygon fill="#3D83A3" points="325.295,462.619 325.295,449.976 337.939,449.976 337.939,412.044 325.295,412.044 325.295,399.4 
		312.65,399.4 312.65,386.756 300.006,386.756 300.006,374.113 287.361,374.113 287.361,386.756 274.718,386.756 274.718,374.113 
		262.074,374.113 262.074,361.471 249.43,361.471 249.43,348.827 236.786,348.827 236.786,336.182 224.141,336.182 224.141,323.538 
		211.498,323.538 211.498,310.893 211.498,298.248 186.21,298.248 186.21,310.893 173.566,310.893 173.566,336.182 186.21,336.182 
		198.854,336.182 198.854,348.827 211.498,348.827 211.498,361.471 224.141,361.471 224.141,374.113 236.786,374.113 
		236.786,386.756 249.43,386.756 249.43,399.4 262.074,399.4 262.074,412.044 249.43,412.044 249.43,424.689 262.074,424.689 
		262.074,437.333 274.718,437.333 274.718,449.976 287.361,449.976 287.361,462.619 	"/>
	<g>
		<polygon fill="#4AA0C7" points="325.295,437.333 325.295,412.044 312.65,412.044 312.65,399.4 300.006,399.4 300.006,386.756 
			287.361,386.756 287.361,399.4 274.718,399.4 274.718,412.044 262.074,412.044 262.074,424.689 274.718,424.689 274.718,437.333 
			287.361,437.333 287.361,449.976 312.65,449.976 325.295,449.976 		"/>
		<rect x="262.074" y="386.756" fill="#4AA0C7" width="12.645" height="12.646"/>
		<rect x="249.43" y="374.113" fill="#4AA0C7" width="12.644" height="12.643"/>
		<rect x="236.786" y="361.471" fill="#4AA0C7" width="12.644" height="12.646"/>
		<rect x="224.141" y="348.827" fill="#4AA0C7" width="12.645" height="12.644"/>
		<rect x="211.498" y="336.182" fill="#4AA0C7" width="12.644" height="12.646"/>
		<rect x="198.854" y="323.538" fill="#4AA0C7" width="12.644" height="12.644"/>
		<polygon fill="#4AA0C7" points="198.854,298.248 186.21,298.248 186.21,310.893 173.566,310.893 173.566,323.538 186.21,323.538 
			198.854,323.538 198.854,310.893 		"/>
	</g>
</g>
<polygon fill="#3D83A3" points="321.582,241.014 321.582,236.469 321.582,231.931 317.041,231.931 317.041,227.39 312.501,227.39 
	312.501,222.848 307.96,222.848 307.96,218.307 303.419,218.307 298.877,218.307 294.336,218.307 289.796,218.307 289.796,222.848 
	285.255,222.848 285.255,227.39 280.713,227.39 280.713,231.931 276.173,231.931 276.173,236.469 276.173,241.014 271.632,241.014 
	271.632,245.553 271.632,250.095 271.632,254.634 271.632,259.176 276.173,259.176 276.173,263.717 276.173,268.257 
	280.713,268.257 280.713,272.799 285.255,272.799 285.255,277.337 289.796,277.337 294.336,277.337 298.877,277.337 
	303.419,277.337 307.96,277.337 312.501,277.337 312.501,272.799 317.041,272.799 317.041,268.257 321.582,268.257 321.582,263.717 
	321.582,259.176 326.122,259.176 326.122,254.634 326.122,250.095 326.122,245.553 326.122,241.014 "/>
<polygon fill="#3D83A3" points="240.172,151.143 235.631,151.143 235.631,155.683 231.091,155.683 231.091,160.225 226.549,160.225 
	226.549,155.683 231.091,155.683 231.091,151.143 235.631,151.143 235.631,146.602 240.172,146.602 240.172,142.062 240.172,137.52 
	235.631,137.52 231.091,137.52 231.091,142.062 226.549,142.062 226.549,146.602 222.008,146.602 222.008,151.143 217.467,151.143 
	217.467,146.602 222.008,146.602 222.008,142.062 226.549,142.062 226.549,137.52 226.549,132.979 222.008,132.979 217.467,132.979 
	217.467,137.52 212.927,137.52 212.927,142.062 208.385,142.062 208.385,146.602 208.385,151.143 208.385,155.683 208.385,160.225 
	208.385,164.766 203.844,164.766 203.844,169.307 199.303,169.307 199.303,173.846 194.761,173.846 194.761,178.389 
	190.221,178.389 190.221,182.93 185.681,182.93 185.681,187.471 181.141,187.471 181.141,192.01 176.6,192.01 176.6,196.551 
	176.6,201.094 181.141,201.094 185.681,201.094 185.681,196.551 190.221,196.551 190.221,192.01 194.761,192.01 194.761,187.471 
	199.303,187.471 199.303,182.93 203.844,182.93 203.844,178.389 208.385,178.389 208.385,173.846 212.927,173.846 212.927,169.307 
	217.467,169.307 222.008,169.307 226.549,169.307 231.091,169.307 235.631,169.307 235.631,164.766 240.172,164.766 
	240.172,160.225 244.713,160.225 244.713,155.683 244.713,151.143 "/>
<rect x="283.747" y="117.565" fill="#FFFFFF" width="9.092" height="9.087"/>
<rect x="222.748" y="204.336" fill="#FFFFFF" width="9.088" height="9.087"/>
<rect x="190.977" y="217.084" fill="#FFFFFF" width="9.087" height="9.088"/>
<rect x="306.262" y="306.718" fill="#FFFFFF" width="9.09" height="9.088"/>
<rect x="311.996" y="125.84" fill="#FFFFFF" width="9.086" height="9.087"/>
<rect x="316.541" y="103.722" fill="#FFFFFF" width="9.088" height="9.087"/>
<rect x="202.128" y="192.438" fill="#FFFFFF" width="9.09" height="9.088"/>
<rect x="281.861" y="291.585" fill="#FFFFFF" width="9.089" height="9.087"/>
<rect x="215.951" y="221.629" fill="#FFFFFF" width="4.543" height="4.543"/>
<rect x="213.68" y="263.583" fill="#FFFFFF" width="4.543" height="4.546"/>
<rect x="299.634" y="171.988" fill="#FFFFFF" width="4.546" height="4.542"/>
<rect x="301.719" y="341.964" fill="#FFFFFF" width="4.543" height="4.544"/>
<rect x="208.385" y="245.53" fill="#FFFFFF" width="4.543" height="4.546"/>
<rect x="307.43" y="149.19" fill="#FFFFFF" width="4.543" height="4.542"/>
<rect x="296.207" y="136.946" fill="#FFFFFF" width="4.544" height="4.543"/>
<rect x="307.341" y="285.955" fill="#FFFFFF" width="4.545" height="4.543"/>
<rect x="290.98" y="327.154" fill="#FFFFFF" width="4.545" height="4.544"/>
<g>
	<path fill="#4AA0C7" d="M53.686,428.909H49.47h-4.213v4.214h-4.215v-4.214h4.216v-4.215h-4.216v-4.216h-4.216v-4.217v-4.213v-4.216
		h4.216v-4.216v-4.216v-4.216h-4.216v-4.216H32.61v4.216v4.216v4.216v4.216h-4.215v4.216H24.18v4.213h-4.213v4.217h-4.215v4.216
		v4.215h4.215v4.214v4.216v4.216h4.213h4.215h4.215h4.216h4.216h4.216h4.213h4.215h4.216v-4.216v-4.216v-4.214v-4.215h-4.216
		V428.909L53.686,428.909z M36.824,428.909v4.214h-4.216v-4.214v-4.215h4.216V428.909z"/>
	<polygon fill="#4AA0C7" points="74.761,424.694 74.761,428.909 70.545,428.909 70.545,433.123 66.33,433.123 62.114,433.123 
		62.114,437.339 62.114,441.555 66.33,441.555 66.33,437.339 70.545,437.339 70.545,441.555 74.761,441.555 78.977,441.555 
		78.977,437.339 78.977,433.123 78.977,428.909 78.977,424.694 78.977,420.479 74.761,420.479 	"/>
	<rect x="57.899" y="420.479" fill="#4AA0C7" width="4.216" height="4.217"/>
	<rect x="62.114" y="416.263" fill="#4AA0C7" width="4.216" height="4.213"/>
	<polygon fill="#4AA0C7" points="45.255,416.263 45.255,412.047 41.04,412.047 41.04,416.263 41.04,420.479 45.255,420.479 	"/>
	<polygon fill="#4AA0C7" points="78.977,407.832 78.977,412.047 78.977,416.263 78.977,420.479 83.192,420.479 83.192,416.263 
		83.192,412.047 83.192,407.832 	"/>
	<rect x="45.255" y="407.832" fill="#4AA0C7" width="4.216" height="4.215"/>
	<rect x="74.761" y="403.616" fill="#4AA0C7" width="4.215" height="4.216"/>
	<polygon fill="#4AA0C7" points="53.686,403.616 53.686,399.4 53.686,395.186 49.471,395.186 49.471,399.4 49.471,403.616 
		49.471,407.832 53.686,407.832 	"/>
</g>
<g>
	<path fill="#4AA0C7" d="M444.328,421.888h-6.557h-6.556v6.556h-6.556v-6.556h6.556v-6.556h-6.556v-6.556h-6.557v-6.558v-6.554
		v-6.556h6.557v-6.558v-6.556v-6.556h-6.557v-6.556h-6.558v6.556v6.556v6.556v6.558h-6.556v6.556h-6.558v6.554h-6.556v6.558h-6.549
		v6.556v6.556h6.549v6.556v6.553v6.556h6.556h6.558h6.556h6.558h6.557h6.556h6.556h6.557h6.557v-6.556v-6.553v-6.556v-6.556h-6.557
		V421.888z M418.104,421.888v6.556h-6.557v-6.556v-6.556h6.557V421.888z"/>
	<polygon fill="#4AA0C7" points="477.108,415.332 477.108,421.888 470.551,421.888 470.551,428.442 463.996,428.442 457.44,428.442 
		457.44,434.999 457.44,441.555 463.996,441.555 463.996,434.999 470.551,434.999 470.551,441.555 477.108,441.555 483.663,441.555 
		483.663,434.999 483.663,428.442 483.663,421.888 483.663,415.332 483.663,408.776 477.108,408.776 	"/>
	<rect x="450.884" y="408.776" fill="#4AA0C7" width="6.557" height="6.556"/>
	<rect x="457.44" y="402.22" fill="#4AA0C7" width="6.556" height="6.558"/>
	<polygon fill="#4AA0C7" points="431.217,402.22 431.217,395.664 424.661,395.664 424.661,402.22 424.661,408.776 431.217,408.776 	
		"/>
	<polygon fill="#4AA0C7" points="483.663,389.105 483.663,395.664 483.663,402.22 483.663,408.776 490.219,408.776 490.219,402.22 
		490.219,395.664 490.219,389.105 	"/>
	<rect x="431.217" y="389.105" fill="#4AA0C7" width="6.557" height="6.557"/>
	<rect x="477.108" y="382.55" fill="#4AA0C7" width="6.555" height="6.558"/>
	<polygon fill="#4AA0C7" points="444.328,382.55 444.328,375.994 444.328,369.438 437.771,369.438 437.771,375.994 437.771,382.55 
		437.771,389.105 444.328,389.105 	"/>
</g>
<g>
	<polygon fill="#4AA0C7" points="198.004,420.761 198.004,413.854 191.53,413.854 191.53,406.953 191.53,400.043 185.058,400.043 
		185.058,406.953 185.058,413.854 185.058,420.761 191.53,420.761 191.53,427.669 185.058,427.669 185.058,434.574 178.583,434.574 
		172.108,434.574 172.108,441.479 178.583,441.479 185.058,441.479 191.53,441.479 198.004,441.479 198.004,434.574 
		204.479,434.574 204.479,427.669 204.479,420.761 	"/>
	<polygon fill="#4AA0C7" points="152.687,420.761 146.211,420.761 146.211,427.669 139.738,427.669 139.738,434.574 
		133.264,434.574 133.264,427.669 139.738,427.669 139.738,420.761 139.738,413.854 139.738,406.953 133.264,406.953 
		133.264,413.854 126.79,413.854 126.79,420.761 120.313,420.761 120.313,413.854 120.313,406.953 120.313,400.043 126.79,400.043 
		126.79,406.953 133.264,406.953 133.264,400.043 133.264,393.138 126.79,393.138 126.79,386.233 126.79,379.328 126.79,372.421 
		126.79,365.516 126.79,358.609 120.313,358.609 120.313,365.516 113.84,365.516 113.84,372.421 113.84,379.328 113.84,386.233 
		113.84,393.138 107.367,393.138 100.893,393.138 100.893,400.043 100.893,406.953 100.893,413.854 100.893,420.761 
		107.367,420.761 107.367,427.669 107.367,434.574 100.893,434.574 100.893,441.479 107.367,441.479 113.84,441.479 
		120.313,441.479 126.79,441.479 133.264,441.479 139.738,441.479 146.211,441.479 146.211,434.574 152.687,434.574 
		159.159,434.574 159.159,441.479 165.634,441.479 165.634,434.574 165.634,427.669 165.634,420.761 159.159,420.761 	"/>
	<polygon fill="#4AA0C7" points="172.108,413.854 172.108,406.953 172.108,400.043 165.634,400.043 165.634,406.953 
		165.634,413.854 165.634,420.761 172.108,420.761 	"/>
	<polygon fill="#4AA0C7" points="198.004,393.138 198.004,386.233 198.004,379.328 191.53,379.328 191.53,386.233 191.53,393.138 
		191.53,400.043 198.004,400.043 	"/>
	<rect x="133.264" y="386.233" fill="#4AA0C7" width="6.475" height="6.906"/>
	<polygon fill="#4AA0C7" points="146.211,379.328 146.211,372.421 139.738,372.421 139.738,379.328 139.738,386.233 
		146.211,386.233 	"/>
	<polygon fill="#4AA0C7" points="159.159,372.421 159.159,365.516 152.687,365.516 146.211,365.516 146.211,372.421 
		152.687,372.421 	"/>
</g>
<g>
	<polygon fill="#3D83A3" points="270.119,61.365 270.119,61.392 265.579,61.392 265.579,65.932 265.579,70.473 265.579,75.014 
		265.579,79.555 265.579,84.096 270.119,84.096 270.119,88.636 274.662,88.636 274.662,93.177 279.202,93.177 279.202,97.72 
		283.741,97.72 288.281,97.72 292.823,97.72 297.365,97.72 297.365,93.177 301.906,93.177 306.448,93.177 310.986,93.177 
		310.986,88.636 315.529,88.636 320.068,88.636 324.609,88.636 324.609,84.096 329.15,84.096 333.693,84.096 333.693,79.555 
		338.232,79.555 338.232,75.014 338.232,70.473 338.232,65.932 338.232,61.392 333.693,61.392 333.693,61.365 	"/>
	<polygon fill="#A1CEE2" points="333.693,56.849 329.15,56.849 329.15,52.308 324.609,52.308 324.609,47.769 320.068,47.769 
		320.068,43.227 315.529,43.227 310.986,43.227 310.986,47.769 306.448,47.769 301.906,47.769 297.365,47.769 297.365,52.308 
		292.823,52.308 288.281,52.308 283.741,52.308 283.741,56.849 279.202,56.849 274.662,56.849 270.119,56.849 270.119,61.365 
		333.693,61.365 	"/>
</g>
<path fill="#3D83A3" d="M0.032,441.555v7.217v12.791v49.979h79.517v-0.004h381.945c0.843,0,1.68-0.022,2.512-0.063h47.467v-49.911
	v-15.324v-4.683L0.032,441.555L0.032,441.555z"/>
</svg>
