<?xml version="1.0" encoding="utf-8"?>
<!-- Generator: Adobe Illustrator 23.0.6, SVG Export Plug-In . SVG Version: 6.00 Build 0)  -->
<svg version="1.1" id="Layer_5" xmlns="http://www.w3.org/2000/svg" xmlns:xlink="http://www.w3.org/1999/xlink" x="0px" y="0px"
	 viewBox="0 0 1080 1080" style="enable-background:new 0 0 1080 1080;" xml:space="preserve">
<style type="text/css">
	.st0{fill:#48A0C7;}
	.st1{fill:none;stroke:#000000;stroke-miterlimit:10;}
	.st2{fill:none;stroke:#000000;stroke-width:2;stroke-miterlimit:10;}
	.st3{fill:#FFFFFF;}
	.st4{fill:#E6E7E8;}
	.st5{fill:#BCBEC0;}
</style>
<g>
	<polygon class="st0" points="1010.7,786.7 542.6,1076.2 69.3,786.7 542.6,497.2 	"/>
	<path class="st1" d="M1010.7,1280.8"/>
</g>
<g>
	<path class="st2" d="M542.6,496.6L69.3,786.1L542.6,496.6z"/>
	<path class="st2" d="M542.6,496.6l468.1,289.5L542.6,496.6z"/>
	<path class="st2" d="M542.6,2.5v494.1V2.5z"/>
</g>
<g id="first_2_">
	<polygon class="st3" points="646.5,942.5 543.2,1006.3 438.9,942.5 543.2,878.7 	"/>
</g>
<g id="top">
	<polygon class="st3" points="645.9,433.4 542.7,497.2 438.3,433.4 542.7,369.5 	"/>
	<polygon class="st4" points="438.3,433.4 438.3,601.1 542.7,665.5 542.7,497.2 	"/>
	<polygon class="st5" points="542.7,497.2 645.9,433.4 645.9,600.8 542.7,665.5 	"/>
</g>
<g id="third_1_">
	<polygon class="st3" points="786.4,573.8 683.2,637.6 578.8,573.8 683.2,509.9 	"/>
	<polygon class="st4" points="578.8,573.8 578.8,687.4 683.2,751.7 683.2,637.6 	"/>
	<polygon class="st5" points="683.2,637.6 786.4,573.8 786.4,687 683.2,751.7 	"/>
</g>
<g id="third">
	<polygon class="st3" points="505.1,574.4 401.9,638.2 297.5,574.4 401.9,510.5 	"/>
	<polygon class="st4" points="297.5,574.4 297.5,688 401.9,752.4 401.9,638.2 	"/>
	<polygon class="st5" points="401.9,638.2 505.1,574.4 505.1,687.6 401.9,752.4 	"/>
</g>
<g id="first">
	<polygon class="st3" points="785.9,832.5 682.6,896.4 578.3,832.5 682.6,768.7 	"/>
	<polygon class="st4" points="578.3,832.5 578.3,858.2 682.6,922.6 682.6,896.4 	"/>
	<polygon class="st5" points="682.6,896.4 785.9,832.5 785.9,858.9 682.6,922.6 	"/>
</g>
<g id="first_1_">
	<polygon class="st3" points="505.1,832.5 401.9,896.4 297.5,832.5 401.9,768.7 	"/>
	<polygon class="st4" points="297.5,832.5 297.5,858.2 401.9,922.6 401.9,896.4 	"/>
	<polygon class="st5" points="401.9,896.4 505.1,832.5 505.1,857.1 401.9,922.6 	"/>
</g>
<g id="second">
	<polygon class="st3" points="371.5,714.1 268.2,778 163.9,714.1 268.2,650.3 	"/>
	<polygon class="st4" points="163.9,714.1 163.9,777 268.2,841.4 268.2,778 	"/>
	<polygon class="st5" points="268.2,778 371.5,714.1 371.5,776.7 268.2,841.4 	"/>
</g>
<g id="second_1_">
	<polygon class="st3" points="919.5,715.1 816.3,778.9 711.9,715.1 816.3,651.2 	"/>
	<polygon class="st4" points="711.9,715.1 711.9,777.9 816.3,840.6 816.3,778.9 	"/>
	<polygon class="st5" points="816.3,778.9 919.5,715.1 919.5,775.9 816.3,840.6 	"/>
</g>
<g id="second_middle">
	<polygon class="st3" points="645.8,690.5 542.6,754.3 438.2,690.5 542.6,626.6 	"/>
	<polygon class="st4" points="438.2,690.5 438.2,773.7 542.6,838 542.6,754.3 	"/>
	<polygon class="st5" points="542.6,754.3 645.8,690.5 645.8,773.3 542.6,838 	"/>
</g>
<g>
	<polygon class="st2" points="1010.7,292 542.6,581.5 69.3,292 542.6,2.5 	"/>
	<polyline class="st2" points="1010.7,786.1 542.6,1075.6 69.3,786.1 	"/>
	<path class="st2" d="M69.3,292v494.1V292z"/>
	<path class="st2" d="M1010.7,786.1V292V786.1z"/>
	<path class="st2" d="M542.6,581.5v494.1V581.5z"/>
</g>
</svg>
