<?xml version="1.0" encoding="utf-8"?>
<!-- Generator: Adobe Illustrator 23.0.0, SVG Export Plug-In . SVG Version: 6.00 Build 0)  -->
<svg version="1.1" id="Layer_5" xmlns="http://www.w3.org/2000/svg" xmlns:xlink="http://www.w3.org/1999/xlink" x="0px" y="0px"
	 viewBox="0 0 1080 1080" style="enable-background:new 0 0 1080 1080;" xml:space="preserve">
<style type="text/css">
	.st0{fill:#48A0C7;}
	.st1{fill:none;stroke:#000000;stroke-miterlimit:10;}
	.st2{fill:none;stroke:#000000;stroke-width:2;stroke-miterlimit:10;}
	.st3{fill:#FFFFFF;}
	.st4{fill:#E6E7E8;}
	.st5{fill:#BCBEC0;}
</style>
<g>
	<polygon class="st0" points="851.38,675.16 574.63,846.32 294.85,675.16 574.63,503.99 	"/>
	<path class="st1" d="M851.38,967.26"/>
</g>
<g>
	<path class="st2" d="M574.63,503.61L294.85,674.78L574.63,503.61z"/>
	<path class="st2" d="M574.63,503.61l276.75,171.16L574.63,503.61z"/>
	<path class="st2" d="M574.63,211.51v292.11V211.51z"/>
</g>
<g id="first_2_">
	<polygon class="st3" points="636.06,767.24 575.03,804.99 513.32,767.24 575.03,729.5 	"/>
</g>
<g id="top">
	<polygon class="st3" points="635.72,466.24 574.69,503.99 512.99,466.24 574.69,428.5 	"/>
	<polygon class="st4" points="512.99,466.24 512.99,565.42 574.69,603.46 574.69,503.99 	"/>
	<polygon class="st5" points="574.69,503.99 635.72,466.24 635.72,565.21 574.69,603.46 	"/>
</g>
<g id="third_1_">
	<polygon class="st3" points="718.82,549.24 657.79,586.99 596.08,549.24 657.79,511.5 	"/>
	<polygon class="st4" points="596.08,549.24 596.08,616.42 657.79,654.46 657.79,586.99 	"/>
	<polygon class="st5" points="657.79,586.99 718.82,549.24 718.82,616.21 657.79,654.46 	"/>
</g>
<g id="third">
	<polygon class="st3" points="552.48,549.61 491.45,587.36 429.75,549.61 491.45,511.86 	"/>
	<polygon class="st4" points="429.75,549.61 429.75,616.78 491.45,654.83 491.45,587.36 	"/>
	<polygon class="st5" points="491.45,587.36 552.48,549.61 552.48,616.57 491.45,654.83 	"/>
</g>
<g id="first">
	<polygon class="st3" points="718.48,702.24 657.45,739.99 595.75,702.24 657.45,664.5 	"/>
	<polygon class="st4" points="595.75,702.24 595.75,717.42 657.45,755.46 657.45,739.99 	"/>
	<polygon class="st5" points="657.45,739.99 718.48,702.24 718.48,717.81 657.45,755.46 	"/>
</g>
<g id="first_1_">
	<polygon class="st3" points="552.48,702.24 491.45,739.99 429.75,702.24 491.45,664.5 	"/>
	<polygon class="st4" points="429.75,702.24 429.75,717.42 491.45,755.46 491.45,739.99 	"/>
	<polygon class="st5" points="491.45,739.99 552.48,702.24 552.48,716.74 491.45,755.46 	"/>
</g>
<g id="second">
	<polygon class="st3" points="473.48,632.24 412.45,669.99 350.75,632.24 412.45,594.5 	"/>
	<polygon class="st4" points="350.75,632.24 350.75,669.42 412.45,707.46 412.45,669.99 	"/>
	<polygon class="st5" points="412.45,669.99 473.48,632.24 473.48,669.21 412.45,707.46 	"/>
</g>
<g id="second_1_">
	<polygon class="st3" points="797.48,632.78 736.45,670.53 674.75,632.78 736.45,595.03 	"/>
	<polygon class="st4" points="674.75,632.78 674.75,669.95 736.45,707 736.45,670.53 	"/>
	<polygon class="st5" points="736.45,670.53 797.48,632.78 797.48,668.74 736.45,707 	"/>
</g>
<g id="second_middle">
	<polygon class="st3" points="635.69,618.24 574.65,655.99 512.95,618.24 574.65,580.5 	"/>
	<polygon class="st4" points="512.95,618.24 512.95,667.42 574.65,705.46 574.65,655.99 	"/>
	<polygon class="st5" points="574.65,655.99 635.69,618.24 635.69,667.21 574.65,705.46 	"/>
</g>
<g>
	<polygon class="st2" points="851.38,382.67 574.63,553.84 294.85,382.67 574.63,211.51 	"/>
	<polyline class="st2" points="851.38,674.78 574.63,845.94 294.85,674.78 	"/>
	<path class="st2" d="M294.85,382.67v292.11V382.67z"/>
	<path class="st2" d="M851.38,674.78V382.67V674.78z"/>
	<path class="st2" d="M574.63,553.84v292.11V553.84z"/>
</g>
</svg>
