<?xml version="1.0" ?><svg height="24px" version="1.1" viewBox="0 0 24 24" width="24px" xmlns="http://www.w3.org/2000/svg" xmlns:sketch="http://www.bohemiancoding.com/sketch/ns" xmlns:xlink="http://www.w3.org/1999/xlink"><title/><desc/><defs/><g fill="none" fill-rule="evenodd" id="Page-1" stroke="none" stroke-width="1"><g fill="#000000" id="Icons-Device" transform="translate(-210.000000, -40.000000)"><g id="brightness-medium" transform="translate(210.500000, 40.500000)"><path d="M19,14.3 L22.3,11 L19,7.7 L19,3 L14.3,3 L11,-0.3 L7.7,3 L3,3 L3,7.7 L-0.3,11 L3,14.3 L3,19 L7.7,19 L11,22.3 L14.3,19 L19,19 L19,14.3 L19,14.3 Z M11,17 L11,5 C14.3,5 17,7.7 17,11 C17,14.3 14.3,17 11,17 L11,17 Z" id="Shape" style="fill: rgb(136, 136, 136);"/></g></g></g></svg>