<svg id="Layer_1" data-name="Layer 1" xmlns="http://www.w3.org/2000/svg" xmlns:xlink="http://www.w3.org/1999/xlink" viewBox="0 0 878.79 878.79"><defs><style>.cls-1{fill:none;}.cls-2{clip-path:url(#clip-path);}.cls-3{opacity:0;}.cls-4{clip-path:url(#clip-path-3);}.cls-5{fill:var(--main-text-color);}</style><clipPath id="clip-path"><rect class="cls-1" x="140.32" y="140.14" width="603.89" height="603.89"/></clipPath><clipPath id="clip-path-3"><rect class="cls-1" x="165.29" y="164.35" width="555.75" height="555.75"/></clipPath></defs><title>Artboard 1</title><g class="cls-2"><g class="cls-2"><g class="cls-3"><g class="cls-4"><rect class="cls-5" x="165.29" y="164.35" width="555.75" height="555.75" rx="48.1"/></g></g><rect class="cls-5" x="241" y="240.15" width="100.01" height="100.01" rx="13.74"/><rect class="cls-5" x="392.16" y="240.15" width="100.01" height="100.01" rx="13.74"/><rect class="cls-5" x="543.33" y="240.15" width="100.01" height="100.01" rx="13.74"/><rect class="cls-5" x="241" y="391.54" width="100.01" height="100.01" rx="13.74"/><rect class="cls-5" x="393.16" y="391.54" width="100.01" height="100.01" rx="13.74"/><rect class="cls-5" x="543.33" y="391.54" width="100.01" height="100.01" rx="13.74"/><rect class="cls-5" x="241" y="542.94" width="100.01" height="100.01" rx="13.74"/><rect class="cls-5" x="392.16" y="542.94" width="100.01" height="100.01" rx="13.74"/><rect class="cls-5" x="543.33" y="542.94" width="100.01" height="100.01" rx="13.74"/></g></g><path class="cls-5" d="M223.71,188.4H329.22a10.3,10.3,0,0,0,10.31-10.31V150.61a10.31,10.31,0,0,0-10.31-10.31H213.39a72.24,72.24,0,0,0-72.15,72.15V661.69a82.46,82.46,0,0,0,82.47,82.46H329.22a10.3,10.3,0,0,0,10.31-10.31V706.36a10.31,10.31,0,0,0-10.31-10.31H223.71a34.36,34.36,0,0,1-34.37-34.36V222.77A34.37,34.37,0,0,1,223.71,188.4Zm438.92-48.1h-109a10.32,10.32,0,0,0-10.31,10.31v27.48a10.31,10.31,0,0,0,10.31,10.31h109A34.36,34.36,0,0,1,697,222.77V661.69a34.36,34.36,0,0,1-34.36,34.36h-109a10.32,10.32,0,0,0-10.31,10.31v27.48a10.31,10.31,0,0,0,10.31,10.31h109a82.46,82.46,0,0,0,82.46-82.46V222.77A82.46,82.46,0,0,0,662.63,140.3Z"/></svg>
