<?xml version="1.0" encoding="utf-8"?>
<!-- Generator: Adobe Illustrator 16.0.0, SVG Export Plug-In . SVG Version: 6.00 Build 0)  -->
<!DOCTYPE svg PUBLIC "-//W3C//DTD SVG 1.1//EN" "http://www.w3.org/Graphics/SVG/1.1/DTD/svg11.dtd">
<svg version="1.1" id="orb_of_ankou" xmlns="http://www.w3.org/2000/svg" xmlns:xlink="http://www.w3.org/1999/xlink" x="0px"
	 y="0px" width="511.473px" height="511.473px" viewBox="0 0 511.473 511.473" enable-background="new 0 0 511.473 511.473"
	 xml:space="preserve">
<rect fill="#FFFFFF" width="511.473" height="511.473"/>
<g id="Icon">
	<g id="Orb">
		<g id="Base">
			<rect x="195.598" y="208.172" fill="#4AA0C7" width="121.861" height="203.126"/>
			<rect x="175.27" y="228.483" fill="#4AA0C7" width="162.514" height="162.481"/>
			<rect x="154.961" y="248.795" fill="#4AA0C7" width="203.118" height="121.881"/>
			<rect x="236.215" y="187.851" fill="#4AA0C7" width="40.623" height="243.759"/>
			<rect x="134.65" y="289.435" fill="#4AA0C7" width="243.756" height="40.625"/>
		</g>
		<g id="Colored_Part">
			<rect x="236.215" y="208.172" fill="#7FBCD7" width="40.623" height="20.31"/>
			<rect x="276.838" y="228.483" fill="#7FBCD7" width="40.621" height="20.308"/>
			<rect x="195.598" y="248.795" fill="#7FBCD7" width="40.622" height="20.309"/>
			<rect x="154.961" y="289.435" fill="#7FBCD7" width="20.309" height="40.625"/>
			<rect x="215.906" y="289.435" fill="#7FBCD7" width="40.604" height="40.625"/>
			<rect x="276.838" y="289.435" fill="#7FBCD7" width="20.328" height="40.625"/>
			<rect x="337.789" y="309.727" fill="#7FBCD7" width="20.29" height="40.627"/>
			<rect x="276.838" y="370.674" fill="#7FBCD7" width="40.621" height="20.291"/>
			<rect x="297.166" y="350.346" fill="#7FBCD7" width="20.289" height="40.623"/>
			<rect x="195.598" y="350.346" fill="#7FBCD7" width="40.622" height="20.325"/>
			<rect x="215.906" y="350.346" fill="#7FBCD7" width="20.31" height="40.623"/>
			<rect x="195.598" y="248.795" fill="#7FBCD7" width="20.307" height="40.641"/>
			<rect x="297.166" y="228.483" fill="#7FBCD7" width="20.289" height="40.622"/>
		</g>
		<g id="Border_2_">
			<rect x="236.215" y="187.851" fill="#3D83A3" width="40.623" height="20.321"/>
			<rect x="195.598" y="208.172" fill="#3D83A3" width="40.622" height="20.31"/>
			<rect x="276.838" y="208.172" fill="#3D83A3" width="40.621" height="20.31"/>
			<rect x="195.598" y="390.969" fill="#3D83A3" width="40.622" height="20.328"/>
			<rect x="236.215" y="411.297" fill="#3D83A3" width="40.623" height="20.291"/>
			<rect x="276.838" y="390.969" fill="#3D83A3" width="40.621" height="20.328"/>
			<rect x="337.789" y="248.795" fill="#3D83A3" width="20.29" height="40.641"/>
			<rect x="358.079" y="289.435" fill="#3D83A3" width="20.327" height="40.625"/>
			<rect x="154.961" y="248.795" fill="#3D83A3" width="20.309" height="40.641"/>
			<rect x="134.65" y="289.435" fill="#3D83A3" width="20.311" height="40.625"/>
			<rect x="154.961" y="330.056" fill="#3D83A3" width="20.309" height="40.622"/>
			<rect x="175.27" y="228.662" fill="#3D83A3" width="20.322" height="20.134"/>
			<rect x="175.039" y="370.735" fill="#3D83A3" width="20.31" height="20.152"/>
			<rect x="317.455" y="370.747" fill="#3D83A3" width="20.325" height="20.152"/>
			<rect x="337.789" y="350.457" fill="#3D83A3" width="20.29" height="20.117"/>
			<rect x="358.079" y="330.056" fill="#3D83A3" width="20.327" height="20.295"/>
			<rect x="317.375" y="228.654" fill="#3D83A3" width="20.292" height="20.133"/>
		</g>
	</g>
	<g id="Souls">
		<g id="Soul">
			<rect x="137.889" y="130.555" fill="#4AA0C7" width="50.786" height="42.32"/>
			<rect x="146.352" y="122.097" fill="#4AA0C7" width="33.862" height="67.714"/>
			<rect x="154.827" y="113.628" fill="#4AA0C7" width="16.921" height="93.095"/>
			<rect x="163.283" y="198.266" fill="#4AA0C7" width="8.458" height="16.936"/>
			<rect x="180.218" y="130.555" fill="#4AA0C7" width="16.917" height="33.86"/>
			<rect x="171.74" y="122.097" fill="#4AA0C7" width="16.934" height="16.929"/>
			<rect x="163.283" y="113.628" fill="#4AA0C7" width="16.936" height="16.925"/>
			<rect x="146.352" y="139.021" fill="#3D83A3" width="8.469" height="25.393"/>
			<rect x="154.827" y="147.482" fill="#3D83A3" width="8.456" height="25.392"/>
			<rect x="154.827" y="122.097" fill="#3D83A3" width="8.456" height="8.458"/>
			<rect x="171.74" y="139.021" fill="#3D83A3" width="8.473" height="8.458"/>
			<rect x="146.352" y="147.482" fill="#3D83A3" width="16.931" height="16.936"/>
		</g>
		<g id="Soul_1_">
			<rect x="311.682" y="133.138" fill="#4AA0C7" width="34.629" height="28.85"/>
			<rect x="317.459" y="127.355" fill="#4AA0C7" width="23.099" height="46.179"/>
			<rect x="323.237" y="121.584" fill="#4AA0C7" width="11.556" height="63.494"/>
			<rect x="323.237" y="179.305" fill="#4AA0C7" width="5.777" height="11.555"/>
			<rect x="305.934" y="133.138" fill="#4AA0C7" width="11.525" height="23.079"/>
			<rect x="311.682" y="127.362" fill="#4AA0C7" width="11.557" height="11.541"/>
			<rect x="317.459" y="121.584" fill="#4AA0C7" width="11.558" height="11.549"/>
			<rect x="334.789" y="138.902" fill="#3D83A3" width="5.763" height="17.314"/>
			<rect x="329.015" y="144.672" fill="#3D83A3" width="5.778" height="17.314"/>
			<rect x="329.015" y="127.362" fill="#3D83A3" width="5.778" height="5.776"/>
			<rect x="317.459" y="138.902" fill="#3D83A3" width="5.779" height="5.771"/>
			<rect x="329.015" y="144.672" fill="#3D83A3" width="11.541" height="11.544"/>
		</g>
		<g id="Soul_2_">
			<polygon fill="#4AA0C7" points="245.956,59.534 245.928,41.145 294.975,41.11 294.984,59.506 			"/>
			
				<rect x="279.667" y="50.326" transform="matrix(5.572597e-004 1 -1 5.572597e-004 345.1527 -226.3227)" fill="#4AA0C7" width="12.267" height="18.37"/>
			<polygon fill="#4AA0C7" points="276.62,71.785 276.599,34.993 288.835,34.984 288.892,71.776 			"/>
			<polygon fill="#4AA0C7" points="258.202,47.27 258.192,28.867 282.702,28.854 282.746,47.251 			"/>
			
				<rect x="245.94" y="41.128" transform="matrix(5.732338e-004 1 -1 5.732338e-004 311.4542 -210.9677)" fill="#4AA0C7" width="30.663" height="18.408"/>
			
				<rect x="273.56" y="68.709" transform="matrix(4.778663e-004 1 -1 4.778663e-004 351.3341 -207.9464)" fill="#4AA0C7" width="12.261" height="6.138"/>
			
				<rect x="252.079" y="59.523" transform="matrix(6.767074e-004 1 -1 6.767074e-004 323.6985 -192.5959)" fill="#4AA0C7" width="12.266" height="12.275"/>
			<polygon fill="#4AA0C7" points="245.961,65.669 245.953,53.403 258.209,53.389 258.217,65.658 			"/>
			<polygon fill="#3D83A3" points="282.744,47.243 282.702,34.987 288.838,34.981 288.846,47.237 			"/>
			<polygon fill="#3D83A3" points="270.467,41.132 270.459,28.862 282.694,28.854 282.74,41.121 			"/>
			<rect x="276.606" y="34.99" fill="#3D83A3" width="12.235" height="6.13"/>
			<rect x="258.196" y="35.001" fill="#3D83A3" width="6.136" height="6.133"/>
		</g>
	</g>
	<g id="Particles">
		<g id="Particle_11_">
			<polygon fill="#A1CEE2" points="397.444,389.727 400.064,382.131 407.66,384.75 405.063,392.345 			"/>
			<polygon fill="#A1CEE2" points="392.465,379.468 395.085,371.858 402.681,374.454 400.061,382.087 			"/>
			<polygon fill="#A1CEE2" points="387.23,394.729 389.851,387.104 397.446,389.723 394.826,397.342 			"/>
			<polygon fill="#A1CEE2" points="402.429,399.867 405.026,392.263 412.649,394.88 410.037,402.487 			"/>
			<polygon fill="#A1CEE2" points="407.622,384.757 410.241,377.161 417.837,379.767 415.218,387.376 			"/>
		</g>
		<g id="Particle_10_">
			<polygon fill="#A1CEE2" points="102.726,431.345 105.581,422.859 114.073,425.715 111.219,434.193 			"/>
			<polygon fill="#A1CEE2" points="97.099,420.007 99.955,411.506 108.446,414.357 105.588,422.872 			"/>
			<polygon fill="#A1CEE2" points="91.391,436.981 94.248,428.505 102.738,431.354 99.884,439.83 			"/>
			<polygon fill="#A1CEE2" points="108.353,442.702 111.208,434.196 119.699,437.069 116.849,445.564 			"/>
			<polygon fill="#A1CEE2" points="114.069,425.72 116.93,417.234 125.418,420.09 122.567,428.568 			"/>
		</g>
		<g id="Particle_9_">
			<polygon fill="#A1CEE2" points="82.25,280.117 91.313,275.054 96.372,284.098 87.301,289.16 			"/>
			<polygon fill="#A1CEE2" points="68.124,276.127 77.186,271.065 82.24,280.145 73.177,285.171 			"/>
			<polygon fill="#A1CEE2" points="78.227,294.231 87.289,289.168 92.344,298.249 83.281,303.275 			"/>
			<polygon fill="#A1CEE2" points="96.337,284.106 105.4,279.081 110.456,288.123 101.393,293.187 			"/>
			<polygon fill="#A1CEE2" points="86.281,265.979 95.341,260.955 100.39,269.997 91.33,275.058 			"/>
		</g>
		<g id="Particle_8_">
			<polygon fill="#A1CEE2" points="253.103,147.854 256.091,140.538 263.419,143.526 260.431,150.842 			"/>
			
				<rect x="249.996" y="131.436" transform="matrix(-0.3785 0.9256 -0.9256 -0.3785 475.3753 -48.4237)" fill="#A1CEE2" width="7.898" height="7.898"/>
			
				<rect x="244.019" y="146.072" transform="matrix(-0.378 0.9258 -0.9258 -0.378 480.6046 -22.8355)" fill="#A1CEE2" width="7.907" height="7.896"/>
			<polygon fill="#A1CEE2" points="257.466,158.184 260.456,150.873 267.745,153.862 264.754,161.174 			"/>
			<polygon fill="#A1CEE2" points="263.415,143.496 266.403,136.174 273.694,139.162 270.706,146.483 			"/>
		</g>
		<g id="Particle_7_">
			<polygon fill="#A1CEE2" points="325.19,443.374 335.134,441.183 337.312,451.089 327.406,453.303 			"/>
			
				<rect x="309.521" y="455.267" transform="matrix(-0.9764 0.2162 -0.2162 -0.9764 732.4072 850.7415)" fill="#A1CEE2" width="20.316" height="20.313"/>
			<polygon fill="#A1CEE2" points="331.71,473.108 341.649,470.906 343.828,480.833 333.927,483.024 			"/>
			<polygon fill="#A1CEE2" points="295.478,449.934 305.416,447.726 307.597,457.654 297.692,459.844 			"/>
			<polygon fill="#A1CEE2" points="302.021,479.711 311.96,477.525 314.139,487.435 304.236,489.637 			"/>
		</g>
		<g id="Particle_5_">
			<polygon fill="#A1CEE2" points="439.418,251.86 441.647,244.073 449.427,246.314 447.187,254.082 			"/>
			<polygon fill="#A1CEE2" points="419.397,262.965 423.866,247.405 439.421,251.87 434.963,267.41 			"/>
			<polygon fill="#A1CEE2" points="432.726,275.227 434.953,267.418 442.738,269.658 440.498,277.43 			"/>
			<polygon fill="#A1CEE2" points="416.053,245.179 418.293,237.391 426.062,239.633 423.821,247.401 			"/>
			<polygon fill="#A1CEE2" points="409.383,268.541 411.623,260.732 419.392,262.973 417.153,270.742 			"/>
		</g>
	</g>
</g>
</svg>
