<?xml version="1.0" encoding="utf-8"?>
<!-- Generator: Adobe Illustrator 16.0.0, SVG Export Plug-In . SVG Version: 6.00 Build 0)  -->
<!DOCTYPE svg PUBLIC "-//W3C//DTD SVG 1.1//EN" "http://www.w3.org/Graphics/SVG/1.1/DTD/svg11.dtd">
<svg version="1.1" id="desire_lines" xmlns="http://www.w3.org/2000/svg" xmlns:xlink="http://www.w3.org/1999/xlink" x="0px"
	 y="0px" width="511.475px" height="511.475px" viewBox="0 0 511.475 511.475" enable-background="new 0 0 511.475 511.475"
	 xml:space="preserve">
<rect fill="#FFFFFF" width="511.473" height="511.474"/>
<polygon fill="#A1CEE2" points="0,360.213 0,434.143 0,461.493 0,511.472 49.981,511.472 97.193,511.472 382.136,511.472 
	382.136,511.475 511.475,511.475 511.475,461.493 511.475,403.832 511.475,360.213 "/>
<g>
	<g enable-background="new    ">
		<g id="Shape_5">
			<g>
				<polygon fill="#387895" points="347.548,239.892 302.88,239.892 302.88,255.047 182.538,255.047 179.246,258.985 
					179.246,317.263 302.083,317.263 302.88,301.311 345.953,301.311 349.144,242.285 				"/>
			</g>
		</g>
		<g id="Shape_8">
			<g>
				<polygon fill="#387895" points="215.142,314.072 186.426,313.275 195.201,361.133 219.792,356.745 220.723,353.954 				"/>
			</g>
		</g>
		<g id="Shape_10">
			<g>
				<polygon fill="#387895" points="254.227,316.854 244.653,353.547 246.249,355.94 268.581,361.522 280.546,317.654 				"/>
			</g>
		</g>
		<g id="Shape_7">
			<g>
				<path fill="#387895" d="M178.23,311.066l-4.567,3.804l-10.37,39.882c-0.135,0.507,29.114,8.589,29.114,8.589
					s2.443-1.979,2.401-2.049l10.313-46.359L178.23,311.066z"/>
			</g>
		</g>
		<g id="Shape_9">
			<g>
				<path fill="#387895" d="M293.99,312.404l-38.079,4.063l14.875,47.15l3.38,2.359l34.196-10.375
					C308.36,355.598,294.069,313.037,293.99,312.404z"/>
			</g>
		</g>
	</g>
	<g>
		<path fill="#145572" d="M262.201,258.404l0.797-8.771h-51.846v9.57h15.155l0.798,44.667h-7.976l-0.075,17.196l24.801,0.022
			l-0.018-17.017l-7.958-0.201v-44.67L262.201,258.404z M235.637,314.646h-8.104v-5.598h8.104V314.646z"/>
	</g>
	<g>
		
			<rect x="311.277" y="147.02" transform="matrix(0.1524 0.9883 -0.9883 0.1524 413.6895 -183.5304)" fill="#387895" width="5.133" height="4.792"/>
		
			<rect x="312.11" y="152.105" transform="matrix(0.1528 0.9883 -0.9883 0.1528 419.2837 -180.0901)" fill="#387895" width="5.138" height="4.794"/>
		
			<rect x="315.238" y="141.207" transform="matrix(0.1524 0.9883 -0.9883 0.1524 411.3009 -192.3737)" fill="#387895" width="5.133" height="4.791"/>
		
			<rect x="316.014" y="146.288" transform="matrix(0.1526 0.9883 -0.9883 0.1526 416.9087 -188.8537)" fill="#387895" width="5.132" height="4.793"/>
		
			<rect x="316.802" y="151.351" transform="matrix(0.1524 0.9883 -0.9883 0.1524 422.6572 -185.3195)" fill="#387895" width="5.134" height="4.79"/>
		
			<rect x="317.601" y="156.397" transform="matrix(0.1517 0.9884 -0.9884 0.1517 428.5453 -181.7597)" fill="#387895" width="5.13" height="4.787"/>
		
			<rect x="319.975" y="140.476" transform="matrix(0.1528 0.9883 -0.9883 0.1528 414.4608 -197.7096)" fill="#387895" width="5.133" height="4.792"/>
		
			<rect x="320.719" y="145.54" transform="matrix(0.152 0.9884 -0.9884 0.152 420.3467 -194.0835)" fill="#387895" width="5.132" height="4.79"/>
		
			<rect x="321.578" y="150.641" transform="matrix(0.1524 0.9883 -0.9883 0.1524 425.9787 -190.6481)" fill="#387895" width="5.131" height="4.792"/>
		
			<rect x="322.328" y="155.692" transform="matrix(0.1526 0.9883 -0.9883 0.1526 431.5421 -187.1277)" fill="#387895" width="5.131" height="4.793"/>
		
			<rect x="323.118" y="160.804" transform="matrix(0.153 0.9882 -0.9882 0.153 437.1376 -183.6177)" fill="#387895" width="5.132" height="4.792"/>
		
			<rect x="325.499" y="144.837" transform="matrix(0.1526 0.9883 -0.9883 0.1526 423.5227 -199.4547)" fill="#387895" width="5.133" height="4.793"/>
		
			<rect x="326.287" y="149.895" transform="matrix(0.153 0.9882 -0.9882 0.153 429.0343 -195.9915)" fill="#387895" width="5.132" height="4.789"/>
		
			<rect x="327.061" y="154.967" transform="matrix(0.1524 0.9883 -0.9883 0.1524 434.9109 -192.3985)" fill="#387895" width="5.132" height="4.79"/>
		
			<rect x="327.855" y="160.073" transform="matrix(0.153 0.9882 -0.9882 0.153 440.4221 -188.9197)" fill="#387895" width="5.132" height="4.791"/>
		
			<rect x="328.617" y="165.109" transform="matrix(0.1518 0.9884 -0.9884 0.1518 446.4885 -185.2658)" fill="#387895" width="5.135" height="4.789"/>
		
			<rect x="329.418" y="170.185" transform="matrix(0.1535 0.9882 -0.9882 0.1535 451.5707 -181.9591)" fill="#387895" width="5.135" height="4.789"/>
		
			<rect x="331.86" y="154.277" transform="matrix(0.1524 0.9883 -0.9883 0.1524 438.2851 -197.7292)" fill="#387895" width="5.131" height="4.789"/>
		
			<rect x="332.539" y="159.287" transform="matrix(0.1522 0.9884 -0.9884 0.1522 443.9059 -194.1266)" fill="#387895" width="5.134" height="4.789"/>
		
			<rect x="333.354" y="164.378" transform="matrix(0.1521 0.9884 -0.9884 0.1521 449.6741 -190.5993)" fill="#387895" width="5.131" height="4.79"/>
		
			<rect x="334.15" y="169.455" transform="matrix(0.1524 0.9883 -0.9883 0.1524 455.2553 -187.1199)" fill="#387895" width="5.134" height="4.792"/>
		
			<rect x="334.976" y="174.537" transform="matrix(0.1524 0.9883 -0.9883 0.1524 460.9507 -183.6356)" fill="#387895" width="5.131" height="4.792"/>
		
			<rect x="337.316" y="158.613" transform="matrix(0.153 0.9882 -0.9882 0.153 446.9984 -199.5047)" fill="#387895" width="5.132" height="4.792"/>
		
			<rect x="338.106" y="163.62" transform="matrix(0.1521 0.9884 -0.9884 0.1521 452.944 -195.9419)" fill="#387895" width="5.13" height="4.79"/>
		
			<rect x="338.872" y="168.72" transform="matrix(0.1524 0.9883 -0.9883 0.1524 458.5146 -192.4135)" fill="#387895" width="5.132" height="4.792"/>
	</g>
	<g>
		<g>
			<g>
				
					<rect x="293.883" y="191.244" transform="matrix(0.1523 0.9883 -0.9883 0.1523 442.6928 -128.8362)" fill="#4AA0C7" width="5.131" height="4.79"/>
				<polygon fill="#4AA0C7" points="305.573,174.058 305.57,174.03 310.249,173.308 309.467,168.237 309.47,168.237 
					308.688,163.164 303.951,163.895 304.733,168.967 304.733,168.967 304.74,169.014 300.058,169.738 300.841,174.792 
					300.812,174.796 300.811,174.789 296.082,175.52 296.859,180.594 301.58,179.864 301.581,179.87 301.586,179.87 301.59,179.895 
					296.874,180.622 297.652,185.659 297.648,185.659 296.867,180.597 292.133,181.327 292.91,186.369 288.184,187.093 
					288.961,192.164 293.697,191.438 292.925,186.399 292.925,186.399 293.707,191.463 298.426,190.734 298.427,190.738 
					303.155,190.008 302.379,184.967 302.389,184.964 302.383,184.927 307.103,184.201 306.321,179.127 306.313,179.128 
					305.54,174.084 305.557,174.082 306.336,179.132 311.068,178.401 310.286,173.33 				"/>
				
					<rect x="309.666" y="168.038" transform="matrix(-0.1524 -0.9883 0.9883 -0.1524 191.3704 504.9897)" fill="#4AA0C7" width="5.133" height="4.789"/>
				<polygon fill="#4AA0C7" points="313.475,162.478 313.47,162.449 318.185,161.722 317.402,156.65 312.668,157.38 
					313.448,162.433 313.448,162.433 312.668,157.381 307.936,158.113 308.718,163.184 308.737,163.181 309.514,168.229 
					314.218,167.505 314.225,167.555 318.958,166.825 318.175,161.753 				"/>
				
					<rect x="324.709" y="139.712" transform="matrix(-0.1521 -0.9884 0.9884 -0.1521 236.5842 487.1854)" fill="#4AA0C7" width="5.131" height="4.792"/>
				<polygon fill="#4AA0C7" points="251.876,206.07 284.847,226.597 300.486,204.728 300.323,200.948 294.603,197.373 
					294.476,196.542 293.509,196.689 293.505,196.687 294.452,196.541 293.669,191.469 288.93,192.203 288.934,192.226 
					286.876,192.543 252.64,171.143 253.037,152.946 262.311,153.634 265.999,151.796 268.77,92.135 266.926,90.298 201.4,87.544 
					200.478,149.045 215.284,150.144 215.417,163.128 205.667,177.301 215.624,183.501 216.163,236.241 220.943,236.673 
					220.212,251.213 301.333,267.755 304.814,263.001 308.177,235.286 251.447,225.682 				"/>
				<polygon fill="#4AA0C7" points="492.524,355.08 492.524,349.752 487.701,349.752 487.193,349.752 480.605,349.752 
					480.605,355.08 480.605,360.412 487.193,360.412 487.701,360.412 492.524,360.412 497.854,360.412 497.854,355.08 				"/>
				<polygon fill="#4AA0C7" points="471.204,349.752 465.875,349.752 460.544,349.752 460.544,355.08 455.215,355.08 
					449.884,355.08 449.884,349.752 444.552,349.752 439.221,349.752 439.221,355.08 433.892,355.08 433.892,360.412 
					439.221,360.412 444.552,360.412 449.884,360.412 455.215,360.412 460.544,360.412 465.875,360.412 471.204,360.412 
					476.53,360.412 481.862,360.412 481.862,355.08 481.862,349.752 476.53,349.752 				"/>
				<polygon fill="#4AA0C7" points="407.24,349.752 401.911,349.752 396.58,349.752 391.251,349.752 385.922,349.752 
					380.591,349.752 375.261,349.752 375.261,355.08 369.93,355.08 364.601,355.08 364.601,349.752 359.27,349.752 353.938,349.752 
					353.938,355.08 348.609,355.08 348.609,360.412 353.938,360.412 359.27,360.412 364.601,360.412 369.93,360.412 
					375.261,360.412 380.591,360.412 385.922,360.412 391.251,360.412 396.58,360.412 401.911,360.412 407.24,360.412 
					412.571,360.412 412.571,355.08 407.24,355.08 				"/>
			</g>
			<g>
				<polygon fill="#387895" points="492.524,307.106 487.193,307.106 487.193,312.438 481.864,312.438 481.864,317.767 
					476.53,317.767 476.53,312.438 476.53,307.106 476.53,301.777 481.864,301.777 481.864,296.449 487.193,296.449 
					487.193,291.117 481.864,291.117 476.53,291.117 476.53,296.449 471.204,296.449 471.204,301.777 471.204,307.106 
					465.875,307.106 465.875,301.777 465.875,296.449 460.544,296.449 460.544,301.777 460.544,307.106 455.215,307.106 
					455.215,301.777 449.884,301.777 444.552,301.777 444.552,307.106 449.884,307.106 449.884,312.438 449.884,317.767 
					444.552,317.767 444.552,312.438 444.552,307.106 439.221,307.106 439.221,312.438 439.221,317.767 433.892,317.767 
					428.561,317.767 428.561,323.101 433.892,323.101 433.892,328.431 439.221,328.431 439.221,333.76 439.221,339.092 
					439.221,344.42 439.221,349.752 444.552,349.752 449.884,349.752 449.884,344.42 449.884,339.092 455.215,339.092 
					455.215,344.42 460.544,344.42 460.544,349.752 465.875,349.752 471.204,349.752 471.204,344.42 476.53,344.42 476.53,339.092 
					481.864,339.092 481.864,344.42 481.864,349.752 487.193,349.752 492.524,349.752 492.524,344.42 492.524,339.092 
					497.854,339.092 497.854,333.76 497.854,328.431 497.854,323.101 503.185,323.101 503.185,317.767 497.854,317.767 
					492.524,317.767 492.524,312.438 				"/>
				<polygon fill="#387895" points="401.911,312.438 396.58,312.438 396.58,317.767 391.251,317.767 391.251,312.438 
					391.251,307.106 391.251,301.777 396.58,301.777 396.58,296.449 401.911,296.449 401.911,291.117 396.58,291.117 
					391.251,291.117 391.251,296.449 385.922,296.449 385.922,301.777 385.922,307.106 380.591,307.106 380.591,301.777 
					380.591,296.449 375.261,296.449 375.261,301.777 375.261,307.106 369.93,307.106 369.93,301.777 364.601,301.777 
					359.27,301.777 359.27,307.106 364.601,307.106 364.601,312.438 364.601,317.767 359.27,317.767 359.27,312.438 359.27,307.106 
					353.938,307.106 353.938,312.438 353.938,317.767 348.609,317.767 343.28,317.767 343.28,323.101 348.609,323.101 
					348.609,328.431 353.938,328.431 353.938,333.76 353.938,339.092 353.938,344.42 353.938,349.752 359.27,349.752 
					364.601,349.752 364.601,344.42 364.601,339.092 369.93,339.092 369.93,344.42 375.261,344.42 375.261,349.752 380.591,349.752 
					385.922,349.752 385.922,344.42 391.251,344.42 391.251,339.092 396.58,339.092 396.58,344.42 396.58,349.752 401.911,349.752 
					407.24,349.752 407.24,344.42 407.24,339.092 412.571,339.092 412.571,333.76 412.571,328.431 412.571,323.101 417.9,323.101 
					417.9,317.767 412.571,317.767 407.24,317.767 407.24,312.438 407.24,307.106 401.911,307.106 				"/>
				<rect x="492.524" y="301.777" fill="#387895" width="5.329" height="5.33"/>
				<rect x="407.24" y="301.777" fill="#387895" width="5.331" height="5.33"/>
				<rect x="497.854" y="296.449" fill="#387895" width="5.331" height="5.328"/>
				<rect x="439.221" y="296.449" fill="#387895" width="5.331" height="5.328"/>
				<rect x="412.571" y="296.449" fill="#387895" width="5.329" height="5.328"/>
				<rect x="353.938" y="296.449" fill="#387895" width="5.331" height="5.328"/>
				<rect x="455.215" y="291.117" fill="#387895" width="5.329" height="5.332"/>
				<rect x="433.892" y="291.117" fill="#387895" width="5.329" height="5.332"/>
				<rect x="369.93" y="291.117" fill="#387895" width="5.331" height="5.332"/>
				<rect x="348.609" y="291.117" fill="#387895" width="5.329" height="5.332"/>
			</g>
		</g>
		<g>
			<rect x="316.813" y="355.011" fill="#387895" width="5.313" height="5.314"/>
			<rect x="295.558" y="355.011" fill="#387895" width="5.307" height="5.314"/>
			<rect x="274.3" y="355.011" fill="#387895" width="5.315" height="5.314"/>
			<polygon fill="#387895" points="327.441,349.697 322.126,349.697 322.126,355.011 327.441,355.011 332.755,355.011 
				332.755,349.697 			"/>
			<polygon fill="#387895" points="311.499,349.697 311.499,344.386 306.185,344.386 300.869,344.386 300.869,349.697 
				300.869,355.011 306.185,355.011 311.499,355.011 316.813,355.011 316.813,349.697 			"/>
			<polygon fill="#387895" points="268.989,349.697 263.674,349.697 263.674,355.011 268.989,355.011 274.3,355.011 274.3,349.697 
							"/>
			<polygon fill="#387895" points="295.558,344.386 290.243,344.386 284.929,344.386 284.929,349.697 279.615,349.697 
				279.615,355.011 284.929,355.011 290.243,355.011 295.558,355.011 295.558,349.697 			"/>
			<polygon fill="#387895" points="237.107,349.649 237.107,349.697 237.107,354.962 231.79,354.962 231.79,349.697 231.79,349.649 
				226.479,349.649 226.479,344.386 226.479,344.336 221.166,344.336 215.851,344.336 215.851,344.386 215.851,349.649 
				215.851,349.697 215.851,354.962 210.537,354.962 210.537,349.697 210.537,349.649 210.537,344.386 210.537,344.336 
				205.224,344.336 199.91,344.336 199.91,344.386 199.91,349.649 194.596,349.649 194.596,349.697 194.595,349.697 
				194.595,354.962 189.282,354.962 189.282,349.697 189.282,349.649 183.968,349.649 178.655,349.649 178.655,349.697 
				178.652,349.697 178.652,355.011 178.655,355.011 183.968,355.011 189.282,355.011 189.282,360.278 189.282,360.325 
				194.595,360.325 194.596,360.325 194.596,360.278 194.596,355.011 199.91,355.011 205.224,355.011 210.537,355.011 
				210.537,360.325 210.537,360.325 215.851,360.325 215.851,360.278 215.851,355.011 221.166,355.011 226.478,355.011 
				226.479,355.011 231.79,355.011 231.79,360.278 231.79,360.325 237.107,360.325 237.107,360.278 237.107,355.011 
				242.419,355.011 242.419,355.011 247.734,355.011 247.734,354.962 247.734,349.697 247.734,349.649 242.419,349.649 			"/>
			<rect x="61.752" y="354.962" fill="#387895" width="5.314" height="5.316"/>
			<rect x="40.495" y="354.962" fill="#387895" width="5.315" height="5.316"/>
			<rect x="19.241" y="354.962" fill="#387895" width="5.312" height="5.316"/>
			<polygon fill="#387895" points="157.397,349.649 152.087,349.649 152.087,349.697 152.087,354.962 146.771,354.962 
				146.771,349.697 146.771,349.649 141.458,349.649 141.458,344.336 141.458,344.336 136.144,344.336 130.83,344.336 
				130.83,344.386 130.83,349.649 130.83,349.697 130.83,354.962 125.517,354.962 125.517,349.649 125.517,344.336 125.515,344.336 
				120.203,344.336 114.89,344.336 114.89,344.386 114.89,349.649 109.575,349.649 109.575,349.649 109.575,349.697 
				109.575,354.962 104.262,354.962 104.262,349.697 104.262,349.649 98.949,349.649 93.633,349.649 93.631,349.649 93.631,349.697 
				93.631,354.962 93.631,355.011 98.949,355.011 104.262,355.011 104.262,360.278 104.262,360.325 109.575,360.325 
				109.575,360.278 109.575,360.278 109.575,355.011 114.89,355.011 120.203,355.011 125.515,355.011 125.515,360.278 
				125.515,360.325 130.83,360.325 130.83,360.278 130.83,355.011 136.144,355.011 141.458,355.011 146.771,355.011 
				146.771,360.278 146.771,360.325 152.087,360.325 152.087,360.278 152.087,355.011 157.397,355.011 162.712,355.011 
				162.712,354.962 162.712,349.697 162.712,349.649 			"/>
			<polygon fill="#387895" points="67.067,349.649 67.067,354.962 72.378,354.962 77.691,354.962 77.691,349.649 72.378,349.649 			
				"/>
			<polygon fill="#387895" points="56.438,349.649 56.438,344.336 51.126,344.336 45.811,344.336 45.811,349.649 45.811,354.962 
				51.126,354.962 56.438,354.962 61.752,354.962 61.752,349.649 			"/>
			<polygon fill="#387895" points="13.928,349.649 8.613,349.649 8.613,354.962 13.928,354.962 19.241,354.962 19.241,349.649 			
				"/>
			<polygon fill="#387895" points="40.495,344.336 35.183,344.336 29.868,344.336 29.868,349.649 24.555,349.649 24.555,354.962 
				29.868,354.962 35.183,354.962 40.495,354.962 40.495,349.649 			"/>
		</g>
	</g>
</g>
</svg>
