<?xml version="1.0" encoding="utf-8"?>
<!-- Generator: Adobe Illustrator 16.0.0, SVG Export Plug-In . SVG Version: 6.00 Build 0)  -->
<!DOCTYPE svg PUBLIC "-//W3C//DTD SVG 1.1//EN" "http://www.w3.org/Graphics/SVG/1.1/DTD/svg11.dtd">
<svg version="1.1" id="podzol_rooting_soil" xmlns="http://www.w3.org/2000/svg" xmlns:xlink="http://www.w3.org/1999/xlink"
	 x="0px" y="0px" width="511.473px" height="511.476px" viewBox="0 0 511.473 511.476" enable-background="new 0 0 511.473 511.476"
	 xml:space="preserve">
<rect fill="#FFFFFF" width="511.473" height="511.476"/>
<polyline fill="#A1CEE2" points="185.08,364.435 92.086,337.853 157.06,292.511 110.334,214.789 214.061,229.351 253.427,160.445 
	299.303,232.038 390.57,209.211 350.574,296.662 420.417,336.294 325.831,364.435 "/>
<polyline fill="#FFFFFF" points="197.565,372.714 135.84,333.574 179.821,296.966 150.652,241.188 224.026,248.578 254.285,201.531 
	290.093,252.781 352.65,241.188 329.697,300.017 376.605,333.572 321.507,367.119 298.328,365.171 346.372,333.572 312.203,303.069 
	334.813,255.54 287.217,266.285 255.619,222.885 229.771,266.675 173.265,256.296 200.053,300.019 157.866,331.951 210.878,365.171 
	"/>
<g>
	<g>
		<polygon fill="#7FBCD7" points="57.779,333.046 56.449,339.068 62.125,340.322 67.8,341.576 69.13,335.554 63.455,334.3 		"/>
		<polygon fill="#7FBCD7" points="76.137,330.789 70.461,329.535 69.13,335.554 74.806,336.81 80.481,338.064 86.157,339.32 
			87.488,333.296 81.813,332.042 		"/>
		
			<rect x="52.511" y="326.517" transform="matrix(-0.2158 0.9764 -0.9764 -0.2158 389.2527 346.2152)" fill="#7FBCD7" width="6.167" height="5.812"/>
		<polygon fill="#7FBCD7" points="94.494,328.531 88.819,327.275 87.488,333.296 93.164,334.55 98.839,335.804 104.515,337.06 
			105.846,331.039 100.17,329.785 		"/>
		
			<rect x="48.166" y="319.241" transform="matrix(-0.2158 0.9764 -0.9764 -0.2158 376.8665 341.6124)" fill="#7FBCD7" width="6.167" height="5.812"/>
		<polygon fill="#7FBCD7" points="112.852,326.271 107.176,325.017 105.846,331.039 111.521,332.292 117.196,333.546 
			118.527,327.527 		"/>
		
			<rect x="43.822" y="311.964" transform="matrix(-0.2158 0.9764 -0.9764 -0.2158 364.4785 337.0073)" fill="#7FBCD7" width="6.167" height="5.812"/>
	</g>
	<polygon fill="#3D83A3" points="124.203,328.781 125.534,322.757 119.858,321.503 121.189,315.484 115.513,314.228 
		116.844,308.208 111.168,306.955 112.499,300.931 106.824,299.677 101.148,298.423 99.817,304.445 94.142,303.19 88.466,301.936 
		82.791,300.681 81.46,306.703 75.785,305.449 70.109,304.194 64.434,302.939 63.103,308.96 57.427,307.707 51.751,306.453 
		46.076,305.199 44.745,311.218 50.421,312.474 49.09,318.496 54.766,319.75 53.435,325.771 59.11,327.025 57.779,333.046 
		63.455,334.3 69.13,335.554 70.461,329.535 76.137,330.789 81.813,332.042 87.488,333.296 88.819,327.275 94.494,328.531 
		100.17,329.785 105.846,331.039 107.176,325.017 112.852,326.271 118.527,327.527 117.196,333.546 111.521,332.292 
		105.846,331.039 104.515,337.06 98.839,335.804 93.164,334.55 87.488,333.296 86.157,339.32 80.481,338.064 74.806,336.81 
		69.13,335.554 67.8,341.576 62.125,340.322 56.449,339.068 57.779,333.046 52.104,331.792 53.435,325.771 47.759,324.515 
		49.09,318.496 43.415,317.242 44.745,311.218 39.07,309.964 37.739,315.986 36.408,322.007 35.077,328.031 33.747,334.05 
		32.416,340.072 38.091,341.326 36.761,347.347 42.436,348.601 41.105,354.623 46.781,355.876 45.45,361.9 51.125,363.154 
		56.801,364.408 62.477,365.662 68.152,366.917 69.483,360.894 75.159,362.15 80.834,363.404 86.51,364.658 87.84,358.636 
		93.516,359.89 99.191,361.146 104.867,362.4 106.198,356.378 111.874,357.632 117.549,358.886 118.88,352.865 124.556,354.121 
		125.887,348.099 127.217,342.078 128.548,336.054 129.879,330.035 	"/>
</g>
<g>
	<g>
		<polygon fill="#7FBCD7" points="83.625,194.611 78.386,197.862 81.451,202.801 84.516,207.74 89.754,204.489 86.69,199.55 		"/>
		<polygon fill="#7FBCD7" points="98.059,206.177 94.995,201.238 89.754,204.489 92.819,209.428 95.884,214.367 98.948,219.306 
			104.189,216.054 101.124,211.116 		"/>
		
			<rect x="81.636" y="187.608" transform="matrix(-0.8497 0.5273 -0.5273 -0.8497 257.1602 307.7184)" fill="#7FBCD7" width="6.167" height="5.812"/>
		<polygon fill="#7FBCD7" points="112.493,217.742 109.429,212.803 104.189,216.054 107.253,220.994 110.318,225.932 
			113.382,230.872 118.623,227.62 115.558,222.681 		"/>
		
			<rect x="83.803" y="179.428" transform="matrix(-0.8497 0.5273 -0.5273 -0.8497 256.8535 291.45)" fill="#7FBCD7" width="6.167" height="5.812"/>
		<polygon fill="#7FBCD7" points="126.926,229.308 123.862,224.369 118.623,227.62 121.687,232.559 124.752,237.497 
			129.991,234.247 		"/>
		
			<rect x="85.985" y="171.227" transform="matrix(-0.8497 0.5273 -0.5273 -0.8497 256.5681 275.1254)" fill="#7FBCD7" width="6.167" height="5.812"/>
	</g>
	<polygon fill="#3D83A3" points="133.056,239.186 138.296,235.934 135.231,230.995 140.472,227.744 137.407,222.804 
		142.646,219.553 139.582,214.615 144.822,211.363 141.757,206.424 138.692,201.486 133.452,204.737 130.388,199.797 
		127.323,194.859 124.259,189.92 119.019,193.171 115.955,188.232 112.89,183.293 109.826,178.354 104.585,181.605 101.521,176.667 
		98.456,171.728 95.392,166.789 90.151,170.04 93.216,174.979 87.976,178.23 91.041,183.169 85.8,186.421 88.866,191.36 
		83.625,194.611 86.69,199.55 89.754,204.489 94.995,201.238 98.059,206.177 101.124,211.116 104.189,216.054 109.429,212.803 
		112.493,217.742 115.558,222.681 118.623,227.62 123.862,224.369 126.926,229.308 129.991,234.247 124.752,237.497 
		121.687,232.559 118.623,227.62 113.382,230.872 110.318,225.932 107.253,220.994 104.189,216.054 98.948,219.306 95.884,214.367 
		92.819,209.428 89.754,204.489 84.516,207.74 81.451,202.801 78.386,197.862 83.625,194.611 80.561,189.672 85.8,186.421 
		82.736,181.482 87.976,178.23 84.912,173.292 90.151,170.04 87.086,165.102 81.848,168.353 76.607,171.604 71.366,174.855 
		66.127,178.106 60.887,181.358 63.952,186.296 58.711,189.549 61.776,194.487 56.537,197.738 59.602,202.677 54.361,205.929 
		57.426,210.868 60.491,215.807 63.555,220.746 66.62,225.685 71.86,222.434 74.925,227.372 77.989,232.311 81.054,237.25 
		86.293,233.999 89.358,238.938 92.422,243.877 95.487,248.816 100.727,245.564 103.792,250.503 106.856,255.443 112.097,252.19 
		115.162,257.13 120.401,253.879 125.641,250.628 130.881,247.375 136.121,244.125 	"/>
</g>
<g>
	<g>
		<polygon fill="#7FBCD7" points="259.357,130.195 253.482,128.322 251.718,133.861 249.953,139.398 255.827,141.271 
			257.592,135.733 		"/>
		<polygon fill="#7FBCD7" points="259.938,148.681 261.703,143.144 255.827,141.271 254.062,146.809 252.297,152.347 
			250.531,157.884 256.407,159.758 258.172,154.219 		"/>
		
			<rect x="260.103" y="125.448" transform="matrix(-0.9528 -0.3036 0.3036 -0.9528 474.9802 330.556)" fill="#7FBCD7" width="6.166" height="5.812"/>
		<polygon fill="#7FBCD7" points="260.518,167.168 262.283,161.631 256.407,159.758 254.642,165.295 252.876,170.834 
			251.112,176.372 256.986,178.245 258.752,172.707 		"/>
		
			<rect x="267.73" y="121.784" transform="matrix(-0.9528 -0.3035 0.3035 -0.9528 491.0079 325.6951)" fill="#7FBCD7" width="6.168" height="5.812"/>
		<polygon fill="#7FBCD7" points="261.096,185.655 262.861,180.118 256.986,178.245 255.22,183.782 253.458,189.32 259.331,191.193 
					"/>
		
			<rect x="275.388" y="118.128" transform="matrix(-0.9528 -0.3038 0.3038 -0.9528 507.0205 320.9355)" fill="#7FBCD7" width="6.166" height="5.812"/>
	</g>
	<polygon fill="#3D83A3" points="257.564,196.73 263.441,198.604 265.206,193.066 271.081,194.939 272.848,189.401 278.723,191.274 
		280.486,185.736 286.361,187.609 288.128,182.071 289.893,176.533 284.018,174.66 285.783,169.122 287.549,163.584 
		289.314,158.047 283.439,156.173 285.204,150.636 286.971,145.098 288.736,139.56 282.859,137.687 284.625,132.148 
		286.393,126.611 288.157,121.073 282.281,119.2 280.516,124.738 274.641,122.865 272.875,128.404 266.999,126.53 265.234,132.068 
		259.357,130.195 257.592,135.733 255.827,141.271 261.703,143.144 259.938,148.681 258.172,154.219 256.407,159.758 
		262.283,161.631 260.518,167.168 258.752,172.707 256.986,178.245 262.861,180.118 261.096,185.655 259.331,191.193 
		253.458,189.32 255.22,183.782 256.986,178.245 251.112,176.372 252.876,170.834 254.642,165.295 256.407,159.758 250.531,157.884 
		252.297,152.347 254.062,146.809 255.827,141.271 249.953,139.398 251.718,133.861 253.482,128.322 259.357,130.195 
		261.123,124.657 266.999,126.53 268.764,120.993 274.641,122.865 276.405,117.327 282.281,119.2 284.047,113.663 278.171,111.79 
		272.296,109.917 266.419,108.043 260.545,106.17 254.669,104.297 252.905,109.836 247.027,107.962 245.263,113.5 239.388,111.627 
		237.623,117.165 231.747,115.292 229.982,120.83 228.217,126.368 226.451,131.906 224.685,137.444 230.562,139.317 
		228.796,144.855 227.031,150.393 225.265,155.931 231.14,157.804 229.374,163.342 227.608,168.879 225.843,174.417 
		231.718,176.291 229.954,181.829 228.188,187.367 234.064,189.239 232.298,194.778 238.172,196.651 244.049,198.524 
		249.926,200.396 255.8,202.27 	"/>
</g>
<g>
	<g>
		<polygon fill="#7FBCD7" points="385.969,221.301 387.53,227.267 393.154,225.795 398.776,224.324 397.217,218.359 
			391.593,219.831 		"/>
		<polygon fill="#7FBCD7" points="401.279,210.923 395.655,212.393 397.217,218.359 402.84,216.889 408.463,215.418 
			414.087,213.948 412.525,207.98 406.902,209.452 		"/>
		
			<rect x="379.322" y="216.14" transform="matrix(0.253 0.9675 -0.9675 0.253 497.5566 -206.3424)" fill="#7FBCD7" width="6.167" height="5.813"/>
		<polygon fill="#7FBCD7" points="416.589,200.544 410.965,202.015 412.525,207.98 418.149,206.51 423.771,205.039 429.396,203.569 
			427.836,197.602 422.212,199.073 		"/>
		
			<rect x="372.113" y="211.66" transform="matrix(0.2532 0.9674 -0.9674 0.2532 487.764 -202.735)" fill="#7FBCD7" width="6.167" height="5.81"/>
		<polygon fill="#7FBCD7" points="431.898,190.166 426.274,191.636 427.836,197.602 433.459,196.131 439.082,194.66 
			437.521,188.695 		"/>
		
			<rect x="364.954" y="207.15" transform="matrix(0.253 0.9675 -0.9675 0.253 478.126 -199.1569)" fill="#7FBCD7" width="6.167" height="5.812"/>
	</g>
	<polygon fill="#3D83A3" points="443.146,187.224 441.584,181.258 435.961,182.729 434.401,176.762 428.777,178.232 
		427.217,172.268 421.594,173.739 420.032,167.772 414.41,169.243 408.787,170.714 410.348,176.68 404.724,178.151 399.102,179.622 
		393.479,181.092 395.037,187.059 389.414,188.528 383.791,190 378.167,191.47 379.729,197.437 374.105,198.907 368.48,200.379 
		362.857,201.849 364.418,207.815 370.042,206.345 371.602,212.311 377.227,210.84 378.785,216.806 384.409,215.334 
		385.969,221.301 391.593,219.831 397.217,218.359 395.655,212.393 401.279,210.923 406.902,209.452 412.525,207.98 
		410.965,202.015 416.589,200.544 422.212,199.073 427.836,197.602 426.274,191.636 431.898,190.166 437.521,188.695 
		439.082,194.66 433.459,196.131 427.836,197.602 429.396,203.569 423.771,205.039 418.149,206.51 412.525,207.98 414.087,213.948 
		408.463,215.418 402.84,216.889 397.217,218.359 398.776,224.324 393.154,225.795 387.53,227.267 385.969,221.301 380.346,222.772 
		378.785,216.806 373.163,218.276 371.602,212.311 365.979,213.782 364.418,207.815 358.796,209.287 360.355,215.251 
		361.916,221.218 363.477,227.185 365.036,233.15 366.598,239.116 372.221,237.645 373.781,243.612 379.404,242.141 
		380.965,248.106 386.588,246.635 388.148,252.602 393.771,251.131 399.396,249.66 405.02,248.188 410.643,246.718 409.082,240.752 
		414.705,239.282 420.327,237.81 425.952,236.339 424.391,230.375 430.015,228.903 435.638,227.433 441.262,225.961 439.7,219.996 
		445.323,218.524 450.947,217.054 449.387,211.087 455.01,209.616 453.451,203.651 451.889,197.685 450.329,191.718 448.77,185.753 
			"/>
</g>
<g>
	<g>
		<polygon fill="#7FBCD7" points="408.738,329.455 406.336,335.134 411.689,337.4 417.042,339.664 419.445,333.984 414.092,331.72 
					"/>
		<polygon fill="#7FBCD7" points="427.2,330.57 421.847,328.304 419.445,333.984 424.798,336.25 430.15,338.513 435.504,340.779 
			437.907,335.097 432.554,332.833 		"/>
		
			<rect x="404.196" y="322.593" transform="matrix(-0.3897 0.9209 -0.9209 -0.3897 865.759 77.2606)" fill="#7FBCD7" width="6.167" height="5.812"/>
		<polygon fill="#7FBCD7" points="445.662,331.683 440.309,329.417 437.907,335.097 443.261,337.363 448.613,339.626 
			453.967,341.89 456.369,336.212 451.016,333.947 		"/>
		
			<rect x="401.245" y="314.647" transform="matrix(-0.3896 0.921 -0.921 -0.3896 854.3051 68.8709)" fill="#7FBCD7" width="6.167" height="5.812"/>
		<polygon fill="#7FBCD7" points="464.125,332.796 458.771,330.533 456.369,336.212 461.723,338.476 467.075,340.74 
			469.479,335.062 		"/>
		
			<rect x="398.252" y="306.682" transform="matrix(-0.3898 0.9209 -0.9209 -0.3898 842.8759 60.6798)" fill="#7FBCD7" width="6.165" height="5.813"/>
	</g>
	<polygon fill="#3D83A3" points="474.832,337.328 477.233,331.646 471.88,329.382 474.283,323.703 468.931,321.437 471.332,315.757 
		465.979,313.496 468.381,307.814 463.028,305.55 457.675,303.287 455.271,308.964 449.919,306.701 444.566,304.437 
		439.213,302.171 436.811,307.851 431.458,305.585 426.104,303.324 420.751,301.057 418.348,306.738 412.995,304.473 
		407.642,302.208 402.288,299.944 399.886,305.625 405.239,307.888 402.837,313.568 408.189,315.832 405.787,321.511 
		411.141,323.777 408.738,329.455 414.092,331.72 419.445,333.984 421.847,328.304 427.2,330.57 432.554,332.833 437.907,335.097 
		440.309,329.417 445.662,331.683 451.016,333.947 456.369,336.212 458.771,330.533 464.125,332.796 469.479,335.062 
		467.075,340.74 461.723,338.476 456.369,336.212 453.967,341.89 448.613,339.626 443.261,337.363 437.907,335.097 435.504,340.779 
		430.15,338.513 424.798,336.25 419.445,333.984 417.042,339.664 411.689,337.4 406.336,335.134 408.738,329.455 403.385,327.191 
		405.787,321.511 400.435,319.248 402.837,313.568 397.482,311.302 399.886,305.625 394.533,303.359 392.131,309.039 
		389.729,314.716 387.325,320.398 384.922,326.078 382.521,331.755 387.874,334.019 385.471,339.701 390.824,341.964 
		388.422,347.642 393.775,349.91 391.373,355.587 396.726,357.851 402.079,360.117 407.433,362.38 412.786,364.646 415.188,358.966 
		420.541,361.23 425.895,363.496 431.248,365.759 433.649,360.082 439.003,362.345 444.355,364.611 449.71,366.875 452.112,361.195 
		457.466,363.458 462.819,365.722 465.222,360.042 470.575,362.308 472.979,356.628 475.38,350.951 477.782,345.269 
		480.186,339.589 	"/>
</g>
<g>
	<polygon fill="#3D83A3" points="282.25,383.3 282.25,373.414 282.25,363.525 282.25,353.634 273.35,353.634 273.35,343.746 
		264.45,343.746 255.55,343.746 246.65,343.746 237.75,343.746 237.75,353.634 228.85,353.634 228.85,363.525 228.85,373.414 
		228.85,383.3 219.95,383.3 219.95,393.191 228.85,393.191 237.75,393.191 237.75,383.3 246.65,383.3 255.55,383.3 264.45,383.3 
		273.35,383.3 273.35,393.191 282.25,393.191 291.15,393.191 291.15,383.3 	"/>
	<polygon fill="#3D83A3" points="291.15,323.966 291.15,333.857 291.15,343.746 291.15,353.634 291.15,363.525 291.15,373.414 
		291.15,383.3 300.051,383.3 300.051,373.414 300.051,363.525 300.051,353.634 300.051,343.746 300.051,333.857 300.051,323.966 	
		"/>
	<polygon fill="#3D83A3" points="211.05,323.966 211.05,333.857 211.05,343.746 211.05,353.634 211.05,363.525 211.05,373.414 
		211.05,383.3 219.95,383.3 219.95,373.414 219.95,363.525 219.95,353.634 219.95,343.746 219.95,333.857 219.95,323.966 	"/>
	<rect x="282.25" y="314.08" fill="#3D83A3" width="8.9" height="9.889"/>
	<polygon fill="#7FBCD7" points="282.25,323.966 282.25,314.08 273.35,314.08 264.45,314.08 255.55,314.08 246.65,314.08 
		237.75,314.08 228.85,314.08 228.85,323.966 219.95,323.966 219.95,333.857 219.95,343.746 219.95,353.634 219.95,363.525 
		219.95,373.414 219.95,383.3 228.85,383.3 228.85,373.414 228.85,363.525 228.85,353.634 237.75,353.634 237.75,343.746 
		246.65,343.746 255.55,343.746 264.45,343.746 273.35,343.746 273.35,353.634 282.25,353.634 282.25,363.525 282.25,373.414 
		282.25,383.3 291.15,383.3 291.15,373.414 291.15,363.525 291.15,353.634 291.15,343.746 291.15,333.857 291.15,323.966 	"/>
	<rect x="219.95" y="314.08" fill="#3D83A3" width="8.9" height="9.889"/>
	<polygon fill="#3D83A3" points="273.35,304.19 264.45,304.19 255.55,304.19 246.65,304.19 237.75,304.19 228.85,304.19 
		228.85,314.08 237.75,314.08 246.65,314.08 255.55,314.08 264.45,314.08 273.35,314.08 282.25,314.08 282.25,304.19 	"/>
</g>
</svg>
