<?xml version="1.0" encoding="utf-8"?>
<!-- Generator: Adobe Illustrator 16.0.0, SVG Export Plug-In . SVG Version: 6.00 Build 0)  -->
<!DOCTYPE svg PUBLIC "-//W3C//DTD SVG 1.1//EN" "http://www.w3.org/Graphics/SVG/1.1/DTD/svg11.dtd">
<svg version="1.1" id="scuba_gear" xmlns="http://www.w3.org/2000/svg" xmlns:xlink="http://www.w3.org/1999/xlink" x="0px" y="0px"
	 width="511.473px" height="511.473px" viewBox="0 0 511.473 511.473" enable-background="new 0 0 511.473 511.473"
	 xml:space="preserve">
<rect fill="#FFFFFF" width="511.473" height="511.473"/>
<g id="Icon_1_">
	<g id="bubbles">
		<g id="bubble">
			<polygon fill="#A1CEE2" points="181.1,212.581 186.79,206.942 196.181,216.431 190.486,222.07 			"/>
			<polygon fill="#A1CEE2" points="181.082,216.367 190.56,206.984 196.196,212.669 186.712,222.068 			"/>
		</g>
		<g id="bubble_1_">
			
				<rect x="145.478" y="237.937" transform="matrix(0.7108 -0.7034 0.7034 0.7108 -129.5681 176.8739)" fill="#A1CEE2" width="9.691" height="16.153"/>
			<polygon fill="#A1CEE2" points="141.183,248.239 152.662,236.867 159.48,243.755 148.003,255.127 			"/>
		</g>
		<g id="bubble_2_">
			<polygon fill="#A1CEE2" points="135.255,308.75 147.119,303.873 155.229,323.617 143.367,328.494 			"/>
			<polygon fill="#A1CEE2" points="132.95,314.281 152.709,306.182 157.571,318.028 137.817,326.156 			"/>
		</g>
		<g id="bubble_3_">
			<polygon fill="#A1CEE2" points="164.719,271.221 167.942,263.878 180.159,269.25 176.938,276.593 			"/>
			<polygon fill="#A1CEE2" points="166.081,274.686 171.438,262.48 178.779,265.68 173.411,277.915 			"/>
		</g>
		<g id="bubble_4_">
			<polygon fill="#A1CEE2" points="131.468,240.954 132.531,239.221 135.421,240.981 134.362,242.715 			"/>
			<polygon fill="#A1CEE2" points="131.725,241.857 133.498,238.967 135.233,240.026 133.463,242.918 			"/>
		</g>
		<g id="bubble_5_">
			
				<rect x="157.322" y="174.865" transform="matrix(0.3245 -0.9459 0.9459 0.3245 -60.6069 270.3085)" fill="#A1CEE2" width="3.272" height="5.449"/>
			<polygon fill="#A1CEE2" points="156.511,179.634 158.285,174.478 161.38,175.541 159.604,180.694 			"/>
		</g>
		<g id="bubble_6_">
			<polygon fill="#A1CEE2" points="158.942,158.062 162.563,157.549 163.415,163.596 159.789,164.104 			"/>
			
				<rect x="158.126" y="159" transform="matrix(0.9903 -0.1391 0.1391 0.9903 -20.7985 23.9755)" fill="#A1CEE2" width="6.103" height="3.658"/>
		</g>
		<g id="bubble_7_">
			<polygon fill="#A1CEE2" points="136.303,143.134 144.657,137.83 153.508,151.748 145.155,157.056 			"/>
			<polygon fill="#A1CEE2" points="135.281,147.722 149.201,138.871 154.515,147.221 140.588,156.071 			"/>
		</g>
		<g id="bubble_8_">
			<polygon fill="#A1CEE2" points="169.565,139.449 169.791,136.079 175.42,136.461 175.188,139.83 			"/>
			<polygon fill="#A1CEE2" points="170.597,140.634 170.985,135.011 174.354,135.238 173.967,140.865 			"/>
		</g>
		<g id="bubble_9_">
			<polygon fill="#A1CEE2" points="171.222,125.58 172.271,119.21 182.897,120.964 181.84,127.342 			"/>
			<polygon fill="#A1CEE2" points="172.981,128.058 174.738,117.432 181.111,118.489 179.36,129.111 			"/>
		</g>
		<g id="bubble_10_">
			<polygon fill="#A1CEE2" points="126.659,111.624 127.195,105.711 137.046,106.598 136.511,112.509 			"/>
			<polygon fill="#A1CEE2" points="128.437,113.753 129.327,103.9 135.239,104.431 134.349,114.289 			"/>
		</g>
		<g id="bubble_11_">
			<polygon fill="#A1CEE2" points="172.61,39.609 183.372,36.976 187.756,54.901 177.001,57.539 			"/>
			
				<rect x="170.961" y="41.704" transform="matrix(0.9713 -0.2379 0.2379 0.9713 -6.0659 44.224)" fill="#A1CEE2" width="18.451" height="11.078"/>
		</g>
		<g id="bubble_12_">
			
				<rect x="144.033" y="36.213" transform="matrix(0.7106 -0.7036 0.7036 0.7106 12.3873 116.9431)" fill="#A1CEE2" width="8.638" height="14.4"/>
			<polygon fill="#A1CEE2" points="140.193,45.413 150.422,35.278 156.5,41.419 146.271,51.552 			"/>
		</g>
		<g id="bubble_13_">
			<polygon fill="#A1CEE2" points="197.726,182.688 197.784,171.926 215.717,172.041 215.647,182.797 			"/>
			<polygon fill="#A1CEE2" points="201.288,186.304 201.405,168.367 212.166,168.436 212.045,186.363 			"/>
		</g>
	</g>
	<g id="sea_animals">
		<polygon id="dolphin_1_" fill="#4AA0C7" points="96.722,262.329 80.682,265.627 88.231,274.127 79.735,282.598 65.581,268.449 
			47.174,271.749 40.568,266.104 30.66,268.449 26.887,264.198 28.773,259.027 32.075,259.027 31.6,257.126 36.795,237.775 
			77.375,230.225 80.207,226.452 85.398,229.29 87.286,228.814 96.252,237.775 115.13,236.364 134.004,253.351 133.058,257.126 
			117.96,257.126 115.597,255.239 115.597,257.126 98.141,259.027 		"/>
		<polygon id="dolphin" fill="#4AA0C7" points="105.786,202.383 93.579,206.649 100.377,212.495 94.625,220.029 82.073,210.443 
			68.025,214.955 62.266,211.212 54.769,214.097 51.368,211.176 52.299,206.917 54.885,206.577 54.319,205.138 56.351,189.468 
			87.29,179.314 89.106,176.067 93.463,177.731 94.891,177.166 102.842,183.242 117.452,180.16 133.997,191.466 133.648,194.516 
			121.843,196.096 119.802,194.864 119.993,196.341 106.542,199.648 		"/>
		<polygon id="cod" fill="#4AA0C7" points="200.063,109.424 198.651,107.536 200.063,101.402 207.824,100.111 208.088,99.514 
			211.863,99.044 211.797,99.436 213.75,99.044 213.75,98.572 219.412,97.626 219.412,98.098 221.776,97.626 224.138,100.459 
			226.025,100.459 226.487,99.986 226.961,98.098 230.737,97.157 230.26,99.044 228.373,99.514 226.961,104.234 228.848,103.761 
			228.373,105.649 224.599,106.123 225.074,104.234 223.188,104.234 222.252,108.482 211.387,110.37 211.387,111.312 
			209.499,111.312 209.975,113.672 208.088,114.144 207.613,111.312 202.426,112.257 199.593,109.898 		"/>
		<polygon id="cod_1_" fill="#4AA0C7" points="195.832,86.643 194.671,85.105 195.832,80.103 202.153,79.051 202.361,78.565 
			205.446,78.178 205.391,78.496 206.984,78.178 206.984,77.796 211.602,77.023 211.602,77.414 213.515,77.023 215.449,79.33 
			216.982,79.33 217.365,78.951 217.756,77.414 220.824,76.644 220.449,78.178 218.907,78.565 217.756,82.417 219.297,82.026 
			218.907,83.568 215.825,83.954 216.213,82.417 214.671,82.417 213.907,85.873 205.058,87.412 205.058,88.178 203.517,88.178 
			203.903,90.106 202.361,90.486 201.99,88.178 197.749,88.952 195.444,87.028 		"/>
		<polygon id="cod_2_" fill="#4AA0C7" points="231.418,85.285 230.278,83.756 231.418,78.796 237.691,77.752 237.914,77.269 
			240.964,76.89 240.904,77.202 242.479,76.89 242.479,76.508 247.058,75.749 247.058,76.122 248.968,75.749 250.884,78.037 
			252.398,78.037 252.788,77.655 253.175,76.122 256.224,75.366 255.836,76.89 254.322,77.269 253.175,81.089 254.693,80.705 
			254.322,82.231 251.255,82.609 251.642,81.089 250.108,81.089 249.352,84.521 240.578,86.046 240.578,86.813 239.056,86.813 
			239.431,88.718 237.914,89.102 237.527,86.813 233.331,87.571 231.041,85.667 		"/>
		<polygon id="cod_3_" fill="#4AA0C7" points="215.666,73.052 214.537,71.53 215.666,66.596 221.912,65.558 222.12,65.078 
			225.155,64.701 225.118,65.011 226.682,64.701 226.682,64.314 231.228,63.558 231.228,63.94 233.126,63.558 235.03,65.839 
			236.548,65.839 236.934,65.458 237.303,63.94 240.338,63.178 239.971,64.701 238.443,65.078 237.303,68.878 238.827,68.492 
			238.443,70.014 235.405,70.389 235.792,68.878 234.266,68.878 233.511,72.294 224.788,73.808 224.788,74.565 223.26,74.565 
			223.646,76.468 222.12,76.846 221.739,74.565 217.571,75.329 215.292,73.426 		"/>
		<polygon id="cod_4_" fill="#4AA0C7" points="251.039,59.875 249.608,57.988 251.039,51.852 258.799,50.562 259.048,49.964 
			262.822,49.496 262.773,49.883 264.725,49.496 264.725,49.026 270.371,48.077 270.371,48.552 272.751,48.077 275.098,50.914 
			276.969,50.914 277.445,50.439 277.921,48.552 281.696,47.608 281.22,49.496 279.35,49.964 277.921,54.688 279.824,54.213 
			279.35,56.101 275.573,56.576 276.05,54.688 274.146,54.688 273.193,58.935 262.348,60.822 262.348,61.763 260.477,61.763 
			260.951,64.125 259.048,64.596 258.571,61.763 253.385,62.709 250.563,60.351 		"/>
		<polygon id="cod_5_" fill="#4AA0C7" points="208.736,57.542 207.589,56.012 208.736,51.05 215.017,50.003 215.231,49.521 
			218.281,49.134 218.242,49.453 219.815,49.134 219.815,48.756 224.403,47.988 224.403,48.374 226.31,47.988 228.229,50.281 
			229.747,50.281 230.134,49.903 230.51,48.374 233.575,47.608 233.188,49.134 231.654,49.521 230.51,53.334 232.041,52.957 
			231.654,54.48 228.6,54.865 228.987,53.334 227.457,53.334 226.697,56.773 217.907,58.307 217.907,59.067 216.378,59.067 
			216.766,60.982 215.231,61.36 214.848,59.067 210.642,59.836 208.348,57.92 		"/>
		<polygon id="cod_6_" fill="#4AA0C7" points="167.184,66.5 165.752,64.587 167.184,58.39 175.021,57.083 175.284,56.48 
			179.11,56.005 179.043,56.399 181.013,56.005 181.013,55.525 186.739,54.573 186.739,55.045 189.122,54.573 191.505,57.435 
			193.407,57.435 193.891,56.957 194.37,55.045 198.176,54.098 197.702,56.005 195.793,56.48 194.37,61.252 196.272,60.773 
			195.793,62.676 191.984,63.156 192.453,61.252 190.544,61.252 189.602,65.538 178.629,67.451 178.629,68.403 176.727,68.403 
			177.197,70.786 175.284,71.265 174.811,68.403 169.567,69.358 166.713,66.976 		"/>
		<polygon id="tropical_fish" fill="#4AA0C7" points="319.443,183.041 318.523,183.041 318.523,183.516 316.621,183.516 
			316.621,183.041 315.199,183.041 315.199,184.929 313.797,184.929 313.797,185.404 313.321,185.869 311.42,185.404 
			311.42,182.566 307.2,182.095 307.2,180.679 302.473,179.741 302.473,175.016 307.2,175.492 307.2,174.073 310.975,174.073 
			310.975,171.717 315.199,172.186 315.199,174.544 319.443,175.016 		"/>
		<polygon id="tropical_fish_1_" fill="#4AA0C7" points="326.811,208.897 325.673,208.897 325.673,209.465 323.43,209.465 
			323.43,208.897 321.714,208.897 321.714,211.168 320.025,211.168 320.025,211.736 319.443,212.303 317.203,211.736 
			317.203,208.329 312.09,207.76 312.09,206.073 306.434,204.938 306.434,199.276 312.09,199.844 312.09,198.14 316.621,198.14 
			316.621,195.307 321.714,195.871 321.714,198.708 326.811,199.276 		"/>
		<polygon id="tropical_fish_2_" fill="#4AA0C7" points="365.825,200.622 364.691,200.622 364.691,201.189 362.42,201.189 
			362.42,200.622 360.732,200.622 360.732,202.894 359.045,202.894 359.045,203.461 358.462,204.029 356.189,203.461 
			356.189,200.057 351.096,199.492 351.096,197.799 345.45,196.664 345.45,191.001 351.096,191.569 351.096,189.867 
			355.639,189.867 355.639,187.042 360.732,187.601 360.732,190.434 365.825,191.001 		"/>
		<polygon id="tropical_fish_3_" fill="#4AA0C7" points="391.773,172.788 390.639,172.788 390.639,173.355 388.389,173.355 
			388.389,172.788 386.679,172.788 386.679,175.049 384.992,175.049 384.992,175.616 384.408,176.179 382.159,175.616 
			382.159,172.22 377.063,171.651 377.063,169.953 371.396,168.82 371.396,163.158 377.063,163.723 377.063,162.031 
			381.586,162.031 381.586,159.192 386.679,159.76 386.679,162.595 391.773,163.158 		"/>
		<polygon id="tropical_fish_4_" fill="#4AA0C7" points="364.76,223.627 363.821,223.627 363.821,224.088 361.918,224.088 
			361.918,223.627 360.521,223.627 360.521,225.516 359.094,225.516 359.094,225.976 358.618,226.452 356.748,225.976 
			356.748,223.152 352.497,222.676 352.497,221.265 347.77,220.313 347.77,215.603 352.497,216.078 352.497,214.65 356.271,214.65 
			356.271,212.303 360.521,212.763 360.521,215.127 364.76,215.603 		"/>
		<polygon id="tropical_fish_5_" fill="#4AA0C7" points="393.543,193.89 392.592,193.89 392.592,194.366 390.721,194.366 
			390.721,193.89 389.293,193.89 389.293,195.778 387.869,195.778 387.869,196.253 387.411,196.729 385.518,196.253 
			385.518,193.419 381.268,192.954 381.268,191.532 376.541,190.59 376.541,185.869 381.268,186.34 381.268,184.929 
			385.042,184.929 385.042,182.566 389.293,183.041 389.293,185.404 393.543,185.869 		"/>
		<polygon id="tropical_fish_6_" fill="#4AA0C7" points="342.566,167.785 341.895,167.785 341.895,168.122 340.539,168.122 
			340.539,167.785 339.521,167.785 339.521,169.145 338.475,169.145 338.475,169.492 338.139,169.829 336.783,169.492 
			336.783,167.444 333.706,167.099 333.706,166.078 330.318,165.399 330.318,161.985 333.706,162.328 333.706,161.306 
			336.445,161.306 336.445,159.599 339.521,159.945 339.521,161.647 342.566,161.985 		"/>
		<polygon id="pufferfish" fill="#4AA0C7" points="251.964,156.93 243.939,160.235 243.939,161.177 244.891,161.647 
			243.939,163.534 234.979,158.347 235.914,156.93 233.567,156.93 233.567,152.686 235.914,152.686 235.914,150.799 
			233.567,150.799 233.567,147.024 235.454,147.024 237.342,146.078 234.502,144.662 237.342,142.772 240.641,144.662 
			243.939,142.772 244.891,141.363 246.302,141.829 245.401,143.752 246.778,144.662 248.189,142.772 249.602,143.249 
			248.189,145.138 249.602,146.078 251.488,144.187 252.9,144.662 251.964,147.024 253.853,147.024 253.853,148.912 
			251.964,148.912 251.964,150.799 253.853,150.799 253.853,152.686 251.964,152.686 251.964,155.044 253.853,155.044 
			253.853,156.93 		"/>
		<polygon id="turtle" fill="#4AA0C7" points="408.642,234.476 468.097,237.775 468.563,253.826 466.69,260.424 485.565,263.246 
			488.864,275.521 481.314,292.525 461.488,287.799 458.189,296.775 455.367,296.775 453.939,302.898 448.757,301.946 
			430.339,335.464 427.993,335.464 414.764,324.595 429.875,297.696 387.411,288.75 385.518,285.896 377.018,286.372 
			375.621,284.977 379.859,275.999 380.792,275.999 380.316,275.047 390.721,259.947 385.518,259.027 385.042,256.648 
			391.186,250.051 396.366,251.939 		"/>
	</g>
	<polygon id="body" fill="#7FBCD7" points="94.364,468.533 56.143,444.468 60.861,410.494 162.792,326.499 208.088,360.947 
		294.448,360.947 339.27,326.499 436.017,407.661 444.042,440.692 405.343,470.415 305.296,388.786 296.796,511.473 
		200.063,511.473 199.593,388.786 	"/>
	<g id="helmet">
		<g id="Icon">
			<rect x="184.963" y="226.452" fill="#3D83A3" width="131.658" height="135.446"/>
		</g>
		<rect x="220.068" y="252.431" fill="#4AA0C7" width="62.192" height="15.739"/>
		<rect x="204.313" y="268.171" fill="#4AA0C7" width="15.755" height="47.297"/>
		<rect x="282.261" y="268.171" fill="#4AA0C7" width="15.757" height="47.297"/>
		<rect x="220.068" y="252.434" fill="#2E627A" width="15.755" height="15.738"/>
		<rect x="220.068" y="315.469" fill="#4AA0C7" width="62.192" height="15.755"/>
		<rect x="267.352" y="252.431" fill="#2E627A" width="15.756" height="15.739"/>
		<rect x="282.261" y="268.17" fill="#2E627A" width="15.757" height="15.755"/>
		<rect x="282.261" y="299.714" fill="#2E627A" width="15.757" height="15.755"/>
		<rect x="250.733" y="315.469" fill="#2E627A" width="31.525" height="15.755"/>
		<rect x="204.313" y="283.927" fill="#2E627A" width="15.755" height="15.776"/>
		<rect x="235.823" y="268.172" fill="#A1CEE2" width="15.756" height="15.755"/>
		<rect x="220.068" y="283.927" fill="#A1CEE2" width="15.755" height="31.542"/>
	</g>
</g>
</svg>
