<?xml version="1.0" encoding="utf-8"?>
<!-- Generator: Adobe Illustrator 16.0.0, SVG Export Plug-In . SVG Version: 6.00 Build 0)  -->
<!DOCTYPE svg PUBLIC "-//W3C//DTD SVG 1.1//EN" "http://www.w3.org/Graphics/SVG/1.1/DTD/svg11.dtd">
<svg version="1.1"
	 id="weighted_armour" xmlns:cc="http://creativecommons.org/ns#" xmlns:dc="http://purl.org/dc/elements/1.1/" xmlns:inkscape="http://www.inkscape.org/namespaces/inkscape" xmlns:rdf="http://www.w3.org/1999/02/22-rdf-syntax-ns#" xmlns:sodipodi="http://sodipodi.sourceforge.net/DTD/sodipodi-0.dtd" xmlns:svg="http://www.w3.org/2000/svg"
	 xmlns="http://www.w3.org/2000/svg" xmlns:xlink="http://www.w3.org/1999/xlink" x="0px" y="0px" width="511.473px"
	 height="511.473px" viewBox="0 0 511.473 511.473" enable-background="new 0 0 511.473 511.473" xml:space="preserve">
<rect fill="#FFFFFF" width="511.473" height="511.473"/>
<g>
	<path fill="#A1CEE2" d="M395.91,152.656l-5.14-2.764c-7.043,1.275-75.94-9.229-139.717,43.616
		c-21.677,17.962-33.6,37.194-38.006,47.262c-10.182-7.558-27.07-24.189-78.405-27.07c-42.439-2.381-82.924,7.313-121.451,27.027
		c-4.751,2.431-9.103,5.12-13.12,8.037v61.796c24.042-7.752,57.137-14.895,97.5-14.899c64.018-0.008,105.91,27.482,117.858,35.979
		c0,0,36.295-48.569,129.014-48.724c41.38-0.069,38.089-7.026,44.698-6.924C390.278,267.104,411.434,157.65,395.91,152.656z"/>
</g>
<path fill="#A1CEE2" d="M412.716,289.616c-0.041,0.33-0.067,0.52-0.067,0.52S420.851,289.743,412.716,289.616z"/>
<g>
	<path fill="#387895" d="M183.311,180.063l-15.054-3.192l-24.028,1.596c0,0-14.299,5.031-14.561,5.558
		c-0.265,0.528-4.386,4.211-4.386,4.211l-0.617,4.125l-3.858-3.599l0.878-8.334l-2.457-2.192l1.051-7.194l12.809-8.949
		c0,0,22.721,0.438,22.985,0.526c0.262,0.086,21.932,1.14,21.932,1.14s3.431,1.766,3.366,1.873
		c-0.066,0.107,2.759,7.833,2.759,7.833"/>
	<path fill="#4AA0C7" d="M168.951,203.117l-40.979-10.141l-3.308-4.299l4.738-28.773l51.967,8.545l-6.395,34.965"/>
	<polyline fill="#387895" points="182.878,179.378 183.794,174.33 182.763,172.838 181.937,179.771 180.167,179.397 
		181.615,171.115 180.239,168.879 179.147,175.248 178.23,174.214 150,169.511 148.795,176.337 120.278,171.634 126.13,136.632 
		183.166,146.215 186.95,159.47 183.311,180.063 183.311,180.063 	"/>
	<path fill="#A1CEE2" d="M172.214,179.771"/>
	<path fill="#387895" d="M166.922,250.995"/>
	<path fill="#387895" d="M168.631,251.609"/>
	<polygon fill="#4AA0C7" points="169.128,218.728 185.892,255.382 167.336,264.132 167.667,262.026 	"/>
	<path fill="#387895" d="M133.541,175.461l31.58,14.475l4.562,7.456l-1.667,3.948l1.052,2.106l0.805-0.03v2.216l6.258,14.7
		l-4.606,3.421l-2.585-5.419l0.261,33.978l-0.375-0.651v5.07l-1.012-1.429l-0.081,9.026l11.055,14.248l4.208,1.017l22.567,29.545
		l-1.315,1.776l-28.554,20.725l-23.619-31.977l2.434-2.084l-5.613-7.456l-5.527,7.547l2.192,1.493l-23.073,29.65l-5.876,1.141
		l-26.405-20.087l23.949-30.794l4.297-0.177l12.545-16.67l-0.876-26.404l-1.141-20.79l-6.844-6.845l-0.703,1.579l-3.156-3.509
		l15.087-31.145"/>
	<polyline fill="#4AA0C7" points="106.607,248.538 128.454,259.855 132.401,259.855 149.639,221.037 125.03,209.719 	"/>
	<rect x="180.392" y="319.386" fill="#A1CEE2" width="7.227" height="7.226"/>
	<rect x="115.892" y="308.46" fill="#A1CEE2" width="8.775" height="8.772"/>
	<rect x="140.867" y="320.421" fill="#A1CEE2" width="8.774" height="8.772"/>
	<rect x="159.709" y="306.267" fill="#A1CEE2" width="8.775" height="8.773"/>
	<rect x="78.956" y="308.88" fill="#A1CEE2" width="7.931" height="7.931"/>
	<rect x="94.17" y="275.168" fill="#A1CEE2" width="3.964" height="3.966"/>
	<rect x="77.403" y="290.53" fill="#A1CEE2" width="5.053" height="5.051"/>
	<rect x="93.834" y="299.47" fill="#A1CEE2" width="6.54" height="6.536"/>
	<rect x="137.138" y="304.252" fill="#A1CEE2" width="7.451" height="7.45"/>
	<rect x="149.639" y="308.46" fill="#A1CEE2" width="4.387" height="4.388"/>
	<rect x="63.995" y="302.366" fill="#A1CEE2" width="7.289" height="7.286"/>
	<rect x="110.693" y="126.105" fill="#A1CEE2" width="5.644" height="5.646"/>
	<rect x="97.221" y="120.307" fill="#A1CEE2" width="4.006" height="4.004"/>
	<rect x="84.323" y="137.506" fill="#A1CEE2" width="3.922" height="3.921"/>
	<rect x="194.364" y="128.681" fill="#A1CEE2" width="5.378" height="5.378"/>
	<rect x="216.115" y="136.947" fill="#A1CEE2" width="3.778" height="3.779"/>
	<rect x="219.893" y="151.594" fill="#A1CEE2" width="1.836" height="1.834"/>
	<rect x="194.364" y="166.336" fill="#A1CEE2" width="7.541" height="7.541"/>
	<rect x="205.94" y="177.223" fill="#A1CEE2" width="5.252" height="5.251"/>
	<rect x="213.309" y="191.739" fill="#A1CEE2" width="4.066" height="4.067"/>
	<rect x="98.783" y="163.067" fill="#A1CEE2" width="5.796" height="5.795"/>
	<rect x="89.536" y="169.296" fill="#A1CEE2" width="3.05" height="3.049"/>
	<rect x="83.5" y="180.367" fill="#A1CEE2" width="3.05" height="3.049"/>
	<polyline fill="#4AA0C7" points="403.081,137.211 353.4,142.331 356.47,191.248 360.571,195.345 319.081,236.066 337.521,255.02 
		345.46,258.349 368.766,234.787 370.087,263.727 316.968,290.812 328.043,313.282 336.241,312.966 391.494,285.623 
		448.349,313.603 461.026,290.295 406.799,263.854 406.989,239.012 429.271,262.511 434.01,262.64 450.016,247.72 406.922,202.774 
		406.668,197.522 418.259,196.626 415.886,157.315 	"/>
</g>
<polygon fill="#A1CEE2" points="0.072,331.639 0.072,421.556 0,421.556 0,511.473 50.046,511.473 77.403,511.473 397.236,511.473 
	461.499,511.473 511.473,511.473 511.473,461.502 511.473,451.236 511.473,331.639 "/>
</svg>
