<?xml version="1.0" encoding="UTF-8" standalone="no"?>
<!-- Created with Inkscape (http://www.inkscape.org/) -->

<svg
   xmlns:dc="http://purl.org/dc/elements/1.1/"
   xmlns:cc="http://creativecommons.org/ns#"
   xmlns:rdf="http://www.w3.org/1999/02/22-rdf-syntax-ns#"
   xmlns:svg="http://www.w3.org/2000/svg"
   xmlns="http://www.w3.org/2000/svg"
   xmlns:sodipodi="http://sodipodi.sourceforge.net/DTD/sodipodi-0.dtd"
   xmlns:inkscape="http://www.inkscape.org/namespaces/inkscape"
   width="210mm"
   height="297mm"
   viewBox="0 0 744.09448819 1052.3622047"
   id="svg2"
   version="1.1"
   inkscape:version="0.91 r13725"
   sodipodi:docname="weighted_armor_3.svg"
   enable-background="new">
  <defs
     id="defs4" />
  <sodipodi:namedview
     id="base"
     pagecolor="#ffffff"
     bordercolor="#666666"
     borderopacity="1.0"
     inkscape:pageopacity="0.0"
     inkscape:pageshadow="2"
     inkscape:zoom="0.5"
     inkscape:cx="-351.69341"
     inkscape:cy="577.56216"
     inkscape:document-units="px"
     inkscape:current-layer="layer3"
     showgrid="false"
     inkscape:window-width="1920"
     inkscape:window-height="1017"
     inkscape:window-x="-8"
     inkscape:window-y="-8"
     inkscape:window-maximized="1"
     inkscape:snap-global="false" />
  <metadata
     id="metadata7">
    <rdf:RDF>
      <cc:Work
         rdf:about="">
        <dc:format>image/svg+xml</dc:format>
        <dc:type
           rdf:resource="http://purl.org/dc/dcmitype/StillImage" />
        <dc:title />
      </cc:Work>
    </rdf:RDF>
  </metadata>
  <g
     inkscape:label="Layer 1"
     inkscape:groupmode="layer"
     id="layer1"
     style="opacity:1;">
    <g
       transform="translate(-1402.7388,-50.60915)"
       id="g4177" />
    <a
       id="a4378">
      <g
         id="g4323">
        <g
           id="g4384" />
      </g>
    </a>
    <a
       transform="translate(554,0)"
       id="a4357" />
  </g>
  <g
     inkscape:groupmode="layer"
     id="layer3"
     inkscape:label="Layer 2">
    <g
       id="g4152">
      <text
         sodipodi:linespacing="125%"
         id="text8324"
         y="311.48929"
         x="326.3812"
         style="font-style:normal;font-weight:normal;font-size:40px;line-height:125%;font-family:sans-serif;letter-spacing:0px;word-spacing:0px;fill:#ffffff;fill-opacity:1;stroke:none;stroke-width:1px;stroke-linecap:butt;stroke-linejoin:miter;stroke-opacity:1"
         xml:space="preserve"><tspan
           style="font-style:normal;font-variant:normal;font-weight:normal;font-stretch:normal;font-family:'Segoe UI Symbol';-inkscape-font-specification:'Segoe UI Symbol'"
           y="311.48929"
           x="326.3812"
           id="tspan8326"
           sodipodi:role="line" /></text>
      <g
         transform="matrix(1.2015482,0,0,1.2015482,-55.839664,-219.26494)"
         id="g8651">
        <path
           style="opacity:1;fill:#4aa0c7;fill-opacity:1;stroke:none"
           d="m 239.78088,422.08728 17.82269,0 -0.17732,-18 35.82269,0 -0.17732,-18 35.82269,0 -0.17731,18 19.82268,0 -0.17731,34 35.82269,0 -0.17732,-34 17.82269,0 -0.17732,-18 37.82269,0 -0.17731,18 35.87256,-0.008 -0.0499,18.00831 17.82269,0 0,55.06405 -17.82269,0 0.17732,36 -19.82269,0 0.17731,74 -17.82268,0 0.17731,16 -17.82268,0 0.0194,20 -53.84209,0 -53.72574,0.0776 -0.0969,-20.07756 -17.82268,0 0.17731,-16 -19.82269,0 0.17732,-74 -17.82269,0 0.17732,-36 -17.82269,0 z"
           id="rect8292"
           inkscape:connector-curvature="0"
           sodipodi:nodetypes="cccccccccccccccccccccccccccccccccccccc" />
        <g
           id="g8476"
           transform="translate(0,-4)">
          <path
             sodipodi:nodetypes="ccccccccccccc"
             inkscape:connector-curvature="0"
             id="rect8339-0"
             d="m 279.602,499.60365 29.14396,0.12536 0.077,-29.55754 15.78146,-0.0573 0.11147,29.23903 28.68205,0.25058 0,14.88447 -29.19048,-0.0184 0.17999,29.1405 -15.20709,-0.0443 0.0252,-29.21076 -29.60345,0.13295 z"
             style="opacity:1;fill:#ffffff;fill-opacity:1;stroke:none" />
          <rect
             y="455.73721"
             x="379.65625"
             height="14.875"
             width="44.307137"
             id="rect8420"
             style="opacity:1;fill:#ffffff;fill-opacity:1;stroke:none" />
          <rect
             y="499.42471"
             x="379.6875"
             height="14.875"
             width="44.25758"
             id="rect8420-5"
             style="opacity:1;fill:#ffffff;fill-opacity:1;stroke:none" />
          <rect
             y="543.23718"
             x="379.62878"
             height="15.0625"
             width="44.301777"
             id="rect8420-7"
             style="opacity:1;fill:#ffffff;fill-opacity:1;stroke:none" />
          <rect
             transform="matrix(0,1,-1,0,0,0)"
             y="-379.6875"
             x="470.58096"
             height="14.875"
             width="28.859375"
             id="rect8420-6"
             style="opacity:1;fill:#ffffff;fill-opacity:1;stroke:none" />
          <rect
             transform="matrix(0,1,-1,0,0,0)"
             y="-438.8125"
             x="470.56488"
             height="14.875"
             width="28.888865"
             id="rect8420-6-3"
             style="opacity:1;fill:#ffffff;fill-opacity:1;stroke:none" />
          <rect
             transform="matrix(0,1,-1,0,0,0)"
             y="-379.70044"
             x="514.25616"
             height="14.887944"
             width="29.074793"
             id="rect8420-6-1"
             style="opacity:1;fill:#ffffff;fill-opacity:1;stroke:none" />
          <rect
             transform="matrix(0,1,-1,0,0,0)"
             y="-438.5625"
             x="514.27826"
             height="14.625"
             width="29.021446"
             id="rect8420-6-6"
             style="opacity:1;fill:#ffffff;fill-opacity:1;stroke:none" />
        </g>
      </g>
    </g>
  </g>
</svg>
