<?xml version="1.0" encoding="utf-8"?>
<!-- Generator: Adobe Illustrator 16.0.0, SVG Export Plug-In . SVG Version: 6.00 Build 0)  -->
<!DOCTYPE svg PUBLIC "-//W3C//DTD SVG 1.1//EN" "http://www.w3.org/Graphics/SVG/1.1/DTD/svg11.dtd">
<svg version="1.1"
	 id="svg8" xmlns:cc="http://creativecommons.org/ns#" xmlns:dc="http://purl.org/dc/elements/1.1/" xmlns:inkscape="http://www.inkscape.org/namespaces/inkscape" xmlns:rdf="http://www.w3.org/1999/02/22-rdf-syntax-ns#" xmlns:sodipodi="http://sodipodi.sourceforge.net/DTD/sodipodi-0.dtd" xmlns:svg="http://www.w3.org/2000/svg"
	 xmlns="http://www.w3.org/2000/svg" xmlns:xlink="http://www.w3.org/1999/xlink" x="0px" y="0px" width="511.473px"
	 height="511.473px" viewBox="0 0 511.473 511.473" enable-background="new 0 0 511.473 511.473" xml:space="preserve">
<rect fill="#FFFFFF" width="511.473" height="511.477"/>
<g id="Hill_Back">
	<rect y="126.978" fill="#A1CEE2" width="87.541" height="213.002"/>
	<rect x="63.644" y="163.967" fill="#A1CEE2" width="52.617" height="129.825"/>
	<rect x="99.229" y="203.351" fill="#A1CEE2" width="95.1" height="117.12"/>
</g>
<g id="Icon">
	<g id="Tree">
		<rect x="235.652" y="46.765" fill="#A1CEE2" width="37.571" height="265.268"/>
		<rect x="194.663" y="83.195" fill="#A1CEE2" width="120.681" height="77.414"/>
		<rect x="155.953" y="125.319" fill="#A1CEE2" width="198.094" height="37.572"/>
	</g>
	<polygon fill="#7FBCD7" points="397.623,242.3 397.623,282.146 78.847,282.146 78.847,318.091 0,318.091 0,511.468 
		511.473,511.468 511.473,347.042 511.473,336.792 511.473,318.091 511.473,282.146 511.473,242.3 	"/>
	<g id="Hill_Front">
		<rect y="359.224" fill="#3D83A3" width="116.754" height="152.244"/>
		<rect x="108.523" y="395.966" fill="#3D83A3" width="87.74" height="115.507"/>
		<rect x="176.227" y="436.688" fill="#3D83A3" width="58.726" height="74.779"/>
	</g>
	<g id="Cave">
		<rect x="173.871" y="281.509" fill="#A1CEE2" width="41.511" height="76.438"/>
		<rect x="156.942" y="300.494" fill="#A1CEE2" width="78.02" height="19.831"/>
		<rect x="194.963" y="319.925" fill="#A1CEE2" width="60.593" height="57.427"/>
		<rect x="235.36" y="339.334" fill="#A1CEE2" width="142.179" height="76.438"/>
		<rect x="256.895" y="396.241" fill="#A1CEE2" width="159.627" height="38.461"/>
		<rect x="296.18" y="424.203" fill="#A1CEE2" width="60.525" height="47.068"/>
		<rect x="372.34" y="357.307" fill="#A1CEE2" width="24.072" height="20.883"/>
		<rect x="336.527" y="320.145" fill="#A1CEE2" width="20.882" height="23.006"/>
		<rect x="274.234" y="319.79" fill="#A1CEE2" width="43.892" height="23.715"/>
	</g>
	<g id="Mineshaft">
		<rect x="215.732" y="376.506" fill="#3D83A3" width="201.417" height="19.436"/>
		<rect x="274.33" y="390.348" fill="#3D83A3" width="20.91" height="63.604"/>
		<rect x="356.729" y="388.949" fill="#3D83A3" width="20.906" height="62.718"/>
		<rect x="278.161" y="434.221" fill="#3D83A3" width="117.788" height="19.729"/>
	</g>
	<g id="Minecart_Chest">
		<rect x="320.184" y="432.614" fill="#4AA0C7" width="3.072" height="2.151"/>
		<rect x="332.446" y="432.514" fill="#4AA0C7" width="3.069" height="2.198"/>
		<rect x="317.268" y="420.271" fill="#3D83A3" width="22.367" height="12.338"/>
		<rect x="320.25" y="415.256" fill="#4AA0C7" width="16.197" height="5.15"/>
	</g>
</g>
<g>
	<g>
		<path fill="none" d="M61.064,500.09h389.563c26.134,0,47.314-21.184,47.314-47.304V63.216c0-26.132-21.186-47.315-47.314-47.315
			H61.064c-26.131,0-47.314,21.184-47.314,47.315v389.559C13.75,478.907,34.935,500.09,61.064,500.09z"/>
	</g>
</g>
</svg>
