<?xml version="1.0" encoding="utf-8"?>
<!-- Generator: Adobe Illustrator 16.0.0, SVG Export Plug-In . SVG Version: 6.00 Build 0)  -->
<!DOCTYPE svg PUBLIC "-//W3C//DTD SVG 1.1//EN" "http://www.w3.org/Graphics/SVG/1.1/DTD/svg11.dtd">
<svg version="1.1"
	 id="svg8" xmlns:cc="http://creativecommons.org/ns#" xmlns:dc="http://purl.org/dc/elements/1.1/" xmlns:inkscape="http://www.inkscape.org/namespaces/inkscape" xmlns:rdf="http://www.w3.org/1999/02/22-rdf-syntax-ns#" xmlns:sodipodi="http://sodipodi.sourceforge.net/DTD/sodipodi-0.dtd" xmlns:svg="http://www.w3.org/2000/svg"
	 xmlns="http://www.w3.org/2000/svg" xmlns:xlink="http://www.w3.org/1999/xlink" x="0px" y="0px" width="511.473px"
	 height="511.473px" viewBox="0 0 511.473 511.473" enable-background="new 0 0 511.473 511.473" xml:space="preserve">
<rect fill="#FFFFFF" width="511.473" height="511.473"/>
<g id="Icon">
	<g id="Tree">
		<rect x="235.651" y="46.768" fill="#4AA0C7" width="37.571" height="265.267"/>
		<rect x="194.663" y="83.195" fill="#4AA0C7" width="120.68" height="77.414"/>
		<rect x="155.952" y="125.322" fill="#4AA0C7" width="198.098" height="37.571"/>
	</g>
	<g id="Hill_Back">
		<rect y="126.985" fill="#A1CEE2" width="87.54" height="213.007"/>
		<rect x="63.645" y="163.977" fill="#A1CEE2" width="52.615" height="129.836"/>
		<rect x="99.231" y="203.361" fill="#A1CEE2" width="95.099" height="117.108"/>
	</g>
	<polygon fill="#7FBCD7" points="397.625,242.301 397.625,282.149 78.849,282.149 78.849,318.094 0,318.094 0,511.469 
		511.473,511.469 511.473,347.044 511.473,336.792 511.473,318.094 511.473,282.149 511.473,242.301 	"/>
	<g id="Hill_Front">
		<rect y="359.224" fill="#3D83A3" width="116.755" height="152.245"/>
		<rect x="108.523" y="395.967" fill="#3D83A3" width="87.739" height="115.506"/>
		<rect x="176.227" y="436.69" fill="#3D83A3" width="58.725" height="74.778"/>
	</g>
</g>
</svg>
