<?xml version="1.0" encoding="UTF-8" standalone="no"?>
<svg
   xmlns:dc="http://purl.org/dc/elements/1.1/"
   xmlns:cc="http://creativecommons.org/ns#"
   xmlns:rdf="http://www.w3.org/1999/02/22-rdf-syntax-ns#"
   xmlns:svg="http://www.w3.org/2000/svg"
   xmlns="http://www.w3.org/2000/svg"
   xmlns:sodipodi="http://sodipodi.sourceforge.net/DTD/sodipodi-0.dtd"
   xmlns:inkscape="http://www.inkscape.org/namespaces/inkscape"
   id="Ingot"
   viewBox="0 0 240 180"
   version="1.1"
   inkscape:version="0.91 r13725"
   sodipodi:docname="blast_furnaces_1.svg">
  <metadata
     id="metadata19">
    <rdf:RDF>
      <cc:Work
         rdf:about="">
        <dc:format>image/svg+xml</dc:format>
        <dc:type
           rdf:resource="http://purl.org/dc/dcmitype/StillImage" />
        <dc:title>blast_furnaces</dc:title>
      </cc:Work>
    </rdf:RDF>
  </metadata>
  <sodipodi:namedview
     pagecolor="#ffffff"
     bordercolor="#666666"
     borderopacity="1"
     objecttolerance="10"
     gridtolerance="10"
     guidetolerance="10"
     inkscape:pageopacity="0"
     inkscape:pageshadow="2"
     inkscape:window-width="958"
     inkscape:window-height="1008"
     id="namedview17"
     showgrid="false"
     inkscape:zoom="1.6970563"
     inkscape:cx="127.49851"
     inkscape:cy="54.174179"
     inkscape:window-x="-7"
     inkscape:window-y="0"
     inkscape:window-maximized="0"
     inkscape:current-layer="g4191" />
  <defs
     id="defs3">
    <style
       id="style5">.cls-1{fill:#3b809f;}.cls-2{fill:#4aa0c7;}.cls-3{fill:#94cae3;}</style>
  </defs>
  <title
     id="title7">blast_furnaces</title>
  <g
     id="g4163">
    <polygon
       style="fill:#4aa0c7;fill-opacity:1"
       transform="matrix(0.47222222,0,0,0.47222222,32.5,33.75)"
       points="180,15 195,15 195,30 210,30 210,45 225,45 225,60 240,60 240,120 225,120 225,135 180,135 180,150 135,150 135,165 90,165 90,180 45,180 45,165 30,165 30,150 15,150 15,135 0,135 0,60 30,60 30,45 60,45 60,30 105,30 105,15 150,15 150.06,0 150.06,0 180,0 "
       class="cls-1"
       id="Shadows" />
    <g
       transform="matrix(0.47222222,0,0,0.47222222,32.5,33.75)"
       style="fill:#4aa0c7;fill-opacity:1"
       id="Midtones">
      <polygon
         style="fill:#4aa0c7;fill-opacity:1"
         points="30,90 45,90 45,105 60,105 60,135 45,135 45,120 15,120 15,75 15,75 30,75 "
         class="cls-2"
         id="Side" />
      <polygon
         style="fill:#4aa0c7;fill-opacity:1"
         points="195,90 195,105 150,105 150,120 120,120 120,135 75,135 75,105 120,105 120,90 165,90 165,75 225,75 225,75 225,90 "
         class="cls-2"
         data-name="Side"
         id="Side-2" />
      <polygon
         style="fill:#4aa0c7;fill-opacity:1"
         points="60,45 105,45 105,30 150,30 150,15 180,15 180,30 195,30 195,45 210,45 210,60 165,60 165,75 120,75 120,90 75,90 75,105 60,105 60,90 45,90 45,75 30,75 30,60 30,60 60,60 "
         class="cls-2"
         id="Top" />
    </g>
    <g
       transform="matrix(0.47222222,0,0,0.47222222,32.5,33.75)"
       style="fill:#4aa0c7;fill-opacity:1"
       id="Highlights">
      <polygon
         style="fill:#4aa0c7;fill-opacity:1"
         points="45,120 45,90 30,90 30,75 15,75 15,75 15,120 "
         class="cls-3"
         data-name="Side"
         id="Side-3" />
      <polygon
         style="fill:#4aa0c7;fill-opacity:1"
         points="180,45 195,45 195,60 165,60 165,75 120,75 120,90 75,90 75,105 60,105 60,90 45,90 45,75 30,75 30,60 75,60 75,45 120,45 120,30 120,30 180,30 "
         class="cls-3"
         data-name="Top"
         id="Top-2" />
    </g>
  </g>
  <g
     id="g4173"
     transform="translate(10.021675,-15.082702)">
    <g
       id="g4191" />
  </g>
</svg>
