<?xml version="1.0" encoding="utf-8"?>
<!-- Generator: Adobe Illustrator 16.0.0, SVG Export Plug-In . SVG Version: 6.00 Build 0)  -->
<!DOCTYPE svg PUBLIC "-//W3C//DTD SVG 1.1//EN" "http://www.w3.org/Graphics/SVG/1.1/DTD/svg11.dtd">
<svg version="1.1"
	 id="speed_paths" xmlns:cc="http://creativecommons.org/ns#" xmlns:dc="http://purl.org/dc/elements/1.1/" xmlns:inkscape="http://www.inkscape.org/namespaces/inkscape" xmlns:rdf="http://www.w3.org/1999/02/22-rdf-syntax-ns#" xmlns:sodipodi="http://sodipodi.sourceforge.net/DTD/sodipodi-0.dtd" xmlns:svg="http://www.w3.org/2000/svg"
	 xmlns="http://www.w3.org/2000/svg" xmlns:xlink="http://www.w3.org/1999/xlink" x="0px" y="0px" width="511.473px"
	 height="511.473px" viewBox="0 0 511.473 511.473" enable-background="new 0 0 511.473 511.473" xml:space="preserve">
<rect fill="#FFFFFF" width="511.473" height="511.473"/>
<g>
	<g id="Icon">
		<g id="layer1_1_" inkscape:label="Layer 1" inkscape:groupmode="layer">
			<g id="g4380">
				<path id="path4152" sodipodi:nodetypes="sscs" inkscape:connector-curvature="0" fill="#4AA0C7" d="M180.777,285.16
					c3.824-6.899,10.473-3.342,5.837,2.734c-20.049,26.36-33.994,46.232-33.994,46.232S164.946,313.632,180.777,285.16
					L180.777,285.16z"/>
				<path id="path4154" sodipodi:nodetypes="sscs" inkscape:connector-curvature="0" fill="#4AA0C7" d="M109.039,321.943
					c5.724-7.184,12.144-2.343,5.729,3.843c-27.778,26.771-47.438,47.112-47.438,47.112S85.388,351.636,109.039,321.943
					L109.039,321.943z"/>
				<path id="path4156" sodipodi:nodetypes="sscs" inkscape:connector-curvature="0" fill="#4AA0C7" d="M192.225,351.271
					c3.324-10.03,11.565-7.645,7.178,1.622c-18.918,40.11-31.823,69.987-31.823,69.987S178.529,392.729,192.225,351.271z"/>
				<path id="path4158" sodipodi:nodetypes="sscs" inkscape:connector-curvature="0" fill="#4AA0C7" d="M116.836,399.025
					c4.308-7.754,11.779-3.767,6.568,3.081c-22.56,29.659-38.238,52.032-38.238,52.032S99.034,431.061,116.836,399.025
					L116.836,399.025z"/>
				
					<path id="path4160" inkscape:transform-center-x="30.707643" inkscape:transform-center-y="25.084314" sodipodi:nodetypes="sscs" inkscape:connector-curvature="0" fill="#4AA0C7" d="
					M48.69,301.438c6.049-5.841,11.724-0.176,5.101,4.598C25.133,326.73,4.729,342.685,4.729,342.685S23.692,325.57,48.69,301.438
					L48.69,301.438z"/>
				<path id="path4162" sodipodi:nodetypes="sscs" inkscape:connector-curvature="0" fill="#4AA0C7" d="M344.096,296.601
					c-3.591-7.901-11.199-4.614-6.662,2.505c19.691,30.754,33.235,53.857,33.235,53.857S358.957,329.32,344.096,296.601z"/>
				<path id="path4164" sodipodi:nodetypes="sscs" inkscape:connector-curvature="0" fill="#4AA0C7" d="M424.159,349.577
					c-5.198-7.716-12.076-3.322-6.106,3.428c25.87,29.287,44.056,51.415,44.056,51.415S445.619,381.484,424.159,349.577
					L424.159,349.577z"/>
				
					<path id="path4166" inkscape:transform-center-x="16.325906" inkscape:transform-center-y="-54.472732" sodipodi:nodetypes="sscs" inkscape:connector-curvature="0" fill="#4AA0C7" d="
					M332.475,387.646c-2.142-10.187-10.368-8.729-7.115,0.836c14.098,41.357,23.426,72.043,23.426,72.043
					S341.36,429.78,332.475,387.646z"/>
				<path id="path4168" sodipodi:nodetypes="sscs" inkscape:connector-curvature="0" fill="#4AA0C7" d="M393.381,417.361
					c-2.903-7.156-9.788-4.5-6.001,1.989c16.37,28.049,27.56,49.061,27.56,49.061S405.382,446.979,393.381,417.361z"/>
				
					<path id="path4170" inkscape:transform-center-x="-28.997539" inkscape:transform-center-y="21.895877" sodipodi:nodetypes="sscs" inkscape:connector-curvature="0" fill="#4AA0C7" d="
					M457.45,299.741c-5.7-5.089-11.067-0.146-4.817,4.028c27.067,18.034,46.328,31.968,46.328,31.968
					S481.064,320.817,457.45,299.741z"/>
			</g>
		</g>
	</g>
	<g>
		<polygon fill="#A1CEE2" points="12.488,262.493 49.818,262.493 49.818,262.493 		"/>
		<polygon fill="#A1CEE2" points="461.993,262.493 499.328,262.493 499.328,262.493 		"/>
		<polygon fill="#7FBCD7" points="49.818,262.493 88.647,262.493 88.647,262.493 		"/>
		<path fill="#A1CEE2" d="M305.999,0.783H205.804C107.553,19.476,28.434,92.109,0.416,186.716v75.777h245.857h19.288H511.39v-75.764
			C483.376,92.117,404.256,19.478,305.999,0.783z"/>
		<path fill="#7FBCD7" d="M255.915,81.626c99.894,0,180.88,80.988,180.88,180.884h41.992c0-123.085-99.775-222.876-222.872-222.876
			c-123.105,0-222.889,99.791-222.889,222.876H75.02C75.02,162.612,156.002,81.626,255.915,81.626z"/>
		<polygon fill="#4AA0C7" points="88.647,262.493 124.488,262.493 124.488,262.493 		"/>
		<polygon fill="#4AA0C7" points="387.317,262.493 423.166,262.493 423.166,262.493 		"/>
		<path fill="#4AA0C7" d="M255.915,81.626c-99.914,0-180.896,80.988-180.896,180.884h38.762
			c0-78.497,63.635-142.125,142.134-142.125c78.485,0,142.112,63.63,142.112,142.125h38.768
			C436.795,162.612,355.809,81.626,255.915,81.626z"/>
		<polygon fill="#3D83A3" points="350.979,262.493 387.317,262.493 387.317,262.493 		"/>
		<path fill="#3D83A3" d="M255.915,159.691c56.775,0,102.812,46.025,102.812,102.818h39.301c0-78.494-63.627-142.12-142.108-142.12
			c-78.5,0-142.134,63.63-142.134,142.12h39.299C153.077,205.717,199.118,159.691,255.915,159.691z"/>
		<polygon fill="#387895" points="160.824,262.493 350.979,262.493 350.979,262.493 		"/>
		<path fill="#387895" d="M255.915,159.691c-56.797,0-102.838,46.025-102.838,102.818h205.65
			C358.727,205.717,312.69,159.691,255.915,159.691z"/>
	</g>
</g>
<g>
	<polygon fill="#A1CEE2" points="246.273,262.493 194.338,511.745 317.481,511.745 265.562,262.493 	"/>
	<path fill="#4AA0C7" d="M205.804,0.783h100.195"/>
</g>
</svg>
