<svg width="23" height="22" viewBox="0 0 23 22" fill="none" xmlns="http://www.w3.org/2000/svg">
<path d="M14.75 0C16.3808 0.00197798 17.9745 0.48726 19.3297 1.39454C20.6849 2.30182 21.7407 3.5904 22.3639 5.09748C22.9871 6.60456 23.1496 8.26253 22.831 9.86194C22.5123 11.4614 21.7268 12.9304 20.5736 14.0836C19.4204 15.2368 17.9514 16.0223 16.3519 16.341C14.7525 16.6596 13.0946 16.4971 11.5875 15.8739C10.0804 15.2507 8.79182 14.1949 7.88454 12.8397C6.97726 11.4845 6.49198 9.89084 6.49 8.26C6.49 6.06931 7.36025 3.96835 8.9093 2.4193C10.4583 0.870248 12.5593 0 14.75 0V0ZM0 22H4V0H0V22Z" fill="white"/>
</svg>
