<?xml version="1.0" encoding="utf-8"?>
<!-- Generator: Adobe Illustrator 16.0.0, SVG Export Plug-In . SVG Version: 6.00 Build 0)  -->
<!DOCTYPE svg PUBLIC "-//W3C//DTD SVG 1.1//EN" "http://www.w3.org/Graphics/SVG/1.1/DTD/svg11.dtd">
<svg version="1.1" id="desire_lines" xmlns="http://www.w3.org/2000/svg" xmlns:xlink="http://www.w3.org/1999/xlink" x="0px"
	 y="0px" width="511.473px" height="511.475px" viewBox="0 0 511.473 511.475" enable-background="new 0 0 511.473 511.475"
	 xml:space="preserve">
<rect fill="#FFFFFF" width="511.475" height="511.474"/>
<g id="Icon">
	<g id="trail">
		<g id="Particle">
			<rect x="346.781" y="199.691" fill="#7FBCD7" width="1.56" height="1.544"/>
			<rect x="348.342" y="198.132" fill="#7FBCD7" width="1.547" height="1.56"/>
			<rect x="348.342" y="201.235" fill="#7FBCD7" width="1.547" height="1.544"/>
			<rect x="345.24" y="201.235" fill="#7FBCD7" width="1.537" height="1.544"/>
			<rect x="345.24" y="198.132" fill="#7FBCD7" width="1.537" height="1.56"/>
		</g>
		<g id="Particle_1_">
			<rect x="315.022" y="178.772" fill="#7FBCD7" width="1.56" height="1.544"/>
			<rect x="316.583" y="177.216" fill="#7FBCD7" width="1.526" height="1.557"/>
			<rect x="316.583" y="180.318" fill="#7FBCD7" width="1.526" height="1.546"/>
			<rect x="313.465" y="180.318" fill="#7FBCD7" width="1.558" height="1.546"/>
			<rect x="313.465" y="177.216" fill="#7FBCD7" width="1.558" height="1.557"/>
		</g>
		<g id="Particle_2_">
			<rect x="318.111" y="142.338" fill="#7FBCD7" width="3.123" height="1.549"/>
			<rect x="321.231" y="140.794" fill="#7FBCD7" width="1.526" height="1.544"/>
			<rect x="321.231" y="143.888" fill="#7FBCD7" width="1.526" height="1.554"/>
			<rect x="316.583" y="143.888" fill="#7FBCD7" width="1.526" height="1.554"/>
			<rect x="316.583" y="140.794" fill="#7FBCD7" width="1.526" height="1.544"/>
		</g>
		<g id="Particle_3_">
			<rect x="328.97" y="191.939" fill="#7FBCD7" width="1.558" height="1.545"/>
			<rect x="330.527" y="190.395" fill="#7FBCD7" width="1.527" height="1.544"/>
			<rect x="330.527" y="193.484" fill="#7FBCD7" width="1.527" height="1.559"/>
			<rect x="327.406" y="193.484" fill="#7FBCD7" width="1.555" height="1.559"/>
			<rect x="327.406" y="190.395" fill="#7FBCD7" width="1.555" height="1.544"/>
		</g>
		<g id="Particle_4_">
			<rect x="311.935" y="160.177" fill="#4AA0C7" width="1.526" height="1.547"/>
			<rect x="313.465" y="158.623" fill="#4AA0C7" width="1.558" height="1.551"/>
			<rect x="313.465" y="161.724" fill="#4AA0C7" width="1.558" height="1.549"/>
			<rect x="310.374" y="161.724" fill="#4AA0C7" width="1.56" height="1.549"/>
			<rect x="310.374" y="158.623" fill="#4AA0C7" width="1.56" height="1.551"/>
		</g>
		<g id="Particle_5_">
			<rect x="330.527" y="128.41" fill="#4AA0C7" width="1.527" height="1.547"/>
			<rect x="332.055" y="126.86" fill="#4AA0C7" width="1.56" height="1.549"/>
			<rect x="332.055" y="129.957" fill="#4AA0C7" width="1.56" height="1.551"/>
			<rect x="328.97" y="129.957" fill="#4AA0C7" width="1.558" height="1.551"/>
			<rect x="328.97" y="126.86" fill="#4AA0C7" width="1.558" height="1.549"/>
		</g>
		<g id="Particle_6_">
			<rect x="346.781" y="117.564" fill="#4AA0C7" width="1.56" height="1.549"/>
			<rect x="348.342" y="116.011" fill="#4AA0C7" width="1.547" height="1.552"/>
			<rect x="348.342" y="119.113" fill="#4AA0C7" width="1.547" height="1.547"/>
			<rect x="345.24" y="119.113" fill="#4AA0C7" width="1.537" height="1.547"/>
			<rect x="345.24" y="116.011" fill="#4AA0C7" width="1.537" height="1.552"/>
		</g>
		<g id="Particle_7_">
			<rect x="365.377" y="111.362" fill="#4AA0C7" width="1.555" height="1.552"/>
			<rect x="366.935" y="109.816" fill="#4AA0C7" width="1.55" height="1.546"/>
			<rect x="366.935" y="112.916" fill="#4AA0C7" width="1.55" height="1.549"/>
			<rect x="363.838" y="112.916" fill="#4AA0C7" width="1.535" height="1.549"/>
			<rect x="363.838" y="109.816" fill="#4AA0C7" width="1.535" height="1.546"/>
		</g>
		<g id="Particle_8_">
			<rect x="384.749" y="110.591" fill="#4AA0C7" width="1.56" height="1.549"/>
			<rect x="386.31" y="109.036" fill="#4AA0C7" width="1.526" height="1.554"/>
			<rect x="386.31" y="112.14" fill="#4AA0C7" width="1.526" height="1.547"/>
			<rect x="383.203" y="112.14" fill="#4AA0C7" width="1.546" height="1.547"/>
			<rect x="383.203" y="109.036" fill="#4AA0C7" width="1.546" height="1.554"/>
		</g>
		<g id="Particle_9_">
			<rect x="402.233" y="114.728" fill="#4AA0C7" width="3.095" height="1.544"/>
			<rect x="405.327" y="113.179" fill="#4AA0C7" width="1.554" height="1.549"/>
			<rect x="405.327" y="116.272" fill="#4AA0C7" width="1.554" height="1.554"/>
			<rect x="400.68" y="116.272" fill="#4AA0C7" width="1.554" height="1.554"/>
			<rect x="400.68" y="113.179" fill="#4AA0C7" width="1.554" height="1.549"/>
		</g>
		<g id="Particle_10_">
			<rect x="420.053" y="122.476" fill="#7FBCD7" width="3.09" height="1.549"/>
			<rect x="423.143" y="120.921" fill="#7FBCD7" width="1.559" height="1.554"/>
			<rect x="423.143" y="124.025" fill="#7FBCD7" width="1.559" height="1.546"/>
			<rect x="418.494" y="124.025" fill="#7FBCD7" width="1.559" height="1.546"/>
			<rect x="418.494" y="120.921" fill="#7FBCD7" width="1.559" height="1.554"/>
		</g>
		<g id="Particle_11_">
			<rect x="435.883" y="133.059" fill="#7FBCD7" width="1.553" height="1.547"/>
			<rect x="437.441" y="131.508" fill="#7FBCD7" width="1.544" height="1.549"/>
			<rect x="437.441" y="134.605" fill="#7FBCD7" width="1.544" height="1.551"/>
			<rect x="434.333" y="134.605" fill="#7FBCD7" width="1.549" height="1.551"/>
			<rect x="434.333" y="131.508" fill="#7FBCD7" width="1.549" height="1.549"/>
		</g>
		<g id="Particle_12_">
			<rect x="448.282" y="147.778" fill="#A1CEE2" width="1.545" height="1.549"/>
			<rect x="449.828" y="146.229" fill="#A1CEE2" width="1.554" height="1.55"/>
			<rect x="449.828" y="149.327" fill="#A1CEE2" width="1.554" height="1.547"/>
			<rect x="446.736" y="149.327" fill="#A1CEE2" width="1.527" height="1.547"/>
			<rect x="446.736" y="146.229" fill="#A1CEE2" width="1.527" height="1.55"/>
		</g>
		<g id="Particle_13_">
			<rect x="456.031" y="164.825" fill="#A1CEE2" width="1.531" height="1.547"/>
			<rect x="457.579" y="163.272" fill="#A1CEE2" width="1.545" height="1.552"/>
			<rect x="457.579" y="166.372" fill="#A1CEE2" width="1.545" height="1.546"/>
			<rect x="454.476" y="166.372" fill="#A1CEE2" width="1.556" height="1.546"/>
			<rect x="454.476" y="163.272" fill="#A1CEE2" width="1.556" height="1.552"/>
		</g>
		<g id="Particle_14_">
			<rect x="462.23" y="184.189" fill="#DBECF4" width="1.542" height="1.557"/>
			<rect x="463.772" y="182.643" fill="#DBECF4" width="1.556" height="1.546"/>
			<rect x="463.772" y="185.746" fill="#DBECF4" width="1.556" height="1.544"/>
			<rect x="460.678" y="185.746" fill="#DBECF4" width="1.534" height="1.544"/>
			<rect x="460.678" y="182.643" fill="#DBECF4" width="1.534" height="1.546"/>
		</g>
		<g id="Particle_15_">
			<rect x="463.832" y="201.298" fill="#DBECF4" width="1.541" height="3.104"/>
			<rect x="465.374" y="204.402" fill="#DBECF4" width="1.556" height="1.545"/>
			<rect x="462.284" y="204.402" fill="#DBECF4" width="1.548" height="1.545"/>
			<rect x="462.284" y="199.754" fill="#DBECF4" width="1.548" height="1.545"/>
			<rect x="465.374" y="199.754" fill="#DBECF4" width="1.556" height="1.545"/>
		</g>
		<g id="Particle_16_">
			<rect x="464.29" y="220.627" fill="#DBECF4" width="1.542" height="3.104"/>
			<rect x="465.839" y="223.737" fill="#DBECF4" width="1.54" height="1.544"/>
			<rect x="462.73" y="223.737" fill="#DBECF4" width="1.56" height="1.544"/>
			<rect x="462.73" y="219.088" fill="#DBECF4" width="1.56" height="1.544"/>
			<rect x="465.839" y="219.088" fill="#DBECF4" width="1.54" height="1.544"/>
		</g>
		<g id="Particle_17_">
			<rect x="462.257" y="239.485" fill="#DBECF4" width="1.542" height="3.104"/>
			<rect x="463.799" y="242.594" fill="#DBECF4" width="1.55" height="1.544"/>
			<rect x="460.707" y="242.594" fill="#DBECF4" width="1.55" height="1.544"/>
			<rect x="460.707" y="237.946" fill="#DBECF4" width="1.55" height="1.544"/>
			<rect x="463.799" y="237.946" fill="#DBECF4" width="1.55" height="1.544"/>
		</g>
		<g id="Particle_18_">
			<rect x="457.774" y="258.607" fill="#DBECF4" width="1.55" height="3.089"/>
			<rect x="459.316" y="261.702" fill="#DBECF4" width="1.54" height="1.56"/>
			<rect x="456.208" y="261.702" fill="#DBECF4" width="1.558" height="1.56"/>
			<rect x="456.208" y="257.054" fill="#DBECF4" width="1.558" height="1.56"/>
			<rect x="459.316" y="257.054" fill="#DBECF4" width="1.54" height="1.56"/>
		</g>
		<g id="Particle_19_">
			<rect x="450.782" y="277.201" fill="#DBECF4" width="3.108" height="1.56"/>
			<rect x="449.241" y="278.761" fill="#DBECF4" width="1.541" height="1.529"/>
			<rect x="449.241" y="275.642" fill="#DBECF4" width="1.541" height="1.56"/>
			<rect x="453.89" y="275.642" fill="#DBECF4" width="1.54" height="1.56"/>
			<rect x="453.89" y="278.761" fill="#DBECF4" width="1.54" height="1.529"/>
		</g>
		<g id="Particle_20_">
			<rect x="443.395" y="293.658" fill="#DBECF4" width="1.531" height="3.089"/>
			<rect x="444.94" y="296.747" fill="#DBECF4" width="1.551" height="1.56"/>
			<rect x="441.85" y="296.747" fill="#DBECF4" width="1.55" height="1.56"/>
			<rect x="441.85" y="292.099" fill="#DBECF4" width="1.55" height="1.56"/>
			<rect x="444.94" y="292.099" fill="#DBECF4" width="1.551" height="1.56"/>
		</g>
		<g id="Particle_21_">
			<rect x="430.769" y="309.225" fill="#DBECF4" width="3.1" height="1.56"/>
			<rect x="429.218" y="310.784" fill="#DBECF4" width="1.55" height="1.533"/>
			<rect x="429.218" y="307.665" fill="#DBECF4" width="1.55" height="1.56"/>
			<rect x="433.868" y="307.665" fill="#DBECF4" width="1.548" height="1.56"/>
			<rect x="433.868" y="310.784" fill="#DBECF4" width="1.548" height="1.533"/>
		</g>
		<g id="Particle_22_">
			<rect x="418.069" y="322.095" fill="#DBECF4" width="1.547" height="1.56"/>
			<rect x="419.616" y="320.537" fill="#DBECF4" width="1.537" height="1.552"/>
			<rect x="419.616" y="323.654" fill="#DBECF4" width="1.537" height="1.528"/>
			<rect x="416.509" y="323.654" fill="#DBECF4" width="1.56" height="1.528"/>
			<rect x="416.509" y="320.537" fill="#DBECF4" width="1.56" height="1.552"/>
		</g>
		<g id="Particle_23_">
			<rect x="401.783" y="332.951" fill="#DBECF4" width="1.553" height="1.529"/>
			<rect x="403.345" y="331.392" fill="#DBECF4" width="1.557" height="1.56"/>
			<rect x="403.345" y="334.48" fill="#DBECF4" width="1.557" height="1.552"/>
			<rect x="400.254" y="334.48" fill="#DBECF4" width="1.529" height="1.552"/>
			<rect x="400.254" y="331.392" fill="#DBECF4" width="1.529" height="1.56"/>
		</g>
		<g id="Particle_24_">
			<rect x="384.749" y="340.688" fill="#DBECF4" width="1.56" height="1.56"/>
			<rect x="386.31" y="339.129" fill="#DBECF4" width="1.526" height="1.552"/>
			<rect x="386.31" y="342.248" fill="#DBECF4" width="1.526" height="1.529"/>
			<rect x="383.203" y="342.248" fill="#DBECF4" width="1.546" height="1.529"/>
			<rect x="383.203" y="339.129" fill="#DBECF4" width="1.546" height="1.552"/>
		</g>
		<g id="Particle_25_">
			<rect x="365.377" y="346.117" fill="#DBECF4" width="1.555" height="1.549"/>
			<rect x="366.935" y="344.558" fill="#DBECF4" width="1.55" height="1.56"/>
			<rect x="366.935" y="347.666" fill="#DBECF4" width="1.55" height="1.537"/>
			<rect x="363.838" y="347.666" fill="#DBECF4" width="1.535" height="1.537"/>
			<rect x="363.838" y="344.558" fill="#DBECF4" width="1.535" height="1.56"/>
		</g>
	</g>
	<g id="trail_1_">
		<g id="Particle_26_">
			<rect x="283.263" y="77.276" fill="#4AA0C7" width="1.559" height="1.544"/>
			<rect x="284.821" y="75.728" fill="#4AA0C7" width="1.528" height="1.549"/>
			<rect x="284.821" y="78.822" fill="#4AA0C7" width="1.528" height="1.554"/>
			<rect x="281.705" y="78.822" fill="#4AA0C7" width="1.558" height="1.554"/>
			<rect x="281.705" y="75.728" fill="#4AA0C7" width="1.558" height="1.549"/>
		</g>
		<g id="Particle_27_">
			<rect x="265.448" y="70.304" fill="#4AA0C7" width="1.529" height="1.544"/>
			<rect x="266.979" y="68.756" fill="#4AA0C7" width="1.557" height="1.547"/>
			<rect x="266.979" y="71.849" fill="#4AA0C7" width="1.557" height="1.556"/>
			<rect x="263.891" y="71.849" fill="#4AA0C7" width="1.558" height="1.556"/>
			<rect x="263.891" y="68.756" fill="#4AA0C7" width="1.558" height="1.547"/>
		</g>
		<g id="Particle_28_">
			<rect x="246.84" y="64.876" fill="#4AA0C7" width="1.558" height="1.556"/>
			<rect x="248.398" y="63.332" fill="#4AA0C7" width="1.544" height="1.544"/>
			<rect x="248.398" y="66.432" fill="#4AA0C7" width="1.544" height="1.547"/>
			<rect x="245.295" y="66.432" fill="#4AA0C7" width="1.544" height="1.547"/>
			<rect x="245.295" y="63.332" fill="#4AA0C7" width="1.544" height="1.544"/>
		</g>
		<g id="Particle_29_">
			<rect x="227.481" y="67.98" fill="#4AA0C7" width="1.544" height="1.544"/>
			<rect x="229.026" y="66.432" fill="#4AA0C7" width="1.543" height="1.547"/>
			<rect x="229.026" y="69.524" fill="#4AA0C7" width="1.543" height="1.556"/>
			<rect x="225.92" y="69.524" fill="#4AA0C7" width="1.559" height="1.556"/>
			<rect x="225.92" y="66.432" fill="#4AA0C7" width="1.559" height="1.547"/>
		</g>
		<g id="Particle_30_">
			<rect x="211.979" y="77.276" fill="#4AA0C7" width="1.557" height="1.544"/>
			<rect x="213.536" y="75.728" fill="#4AA0C7" width="1.544" height="1.549"/>
			<rect x="213.536" y="78.822" fill="#4AA0C7" width="1.544" height="1.554"/>
			<rect x="210.432" y="78.822" fill="#4AA0C7" width="1.543" height="1.554"/>
			<rect x="210.432" y="75.728" fill="#4AA0C7" width="1.543" height="1.549"/>
		</g>
		<g id="Particle_31_">
			<rect x="198.809" y="91.997" fill="#7FBCD7" width="1.544" height="1.549"/>
			<rect x="200.36" y="90.445" fill="#7FBCD7" width="1.555" height="1.552"/>
			<rect x="200.36" y="93.546" fill="#7FBCD7" width="1.555" height="1.544"/>
			<rect x="197.266" y="93.546" fill="#7FBCD7" width="1.543" height="1.544"/>
			<rect x="197.266" y="90.445" fill="#7FBCD7" width="1.543" height="1.552"/>
		</g>
		<g id="Particle_32_">
			<rect x="191.063" y="109.816" fill="#7FBCD7" width="1.555" height="1.546"/>
			<rect x="192.618" y="108.267" fill="#7FBCD7" width="1.543" height="1.549"/>
			<rect x="192.618" y="111.362" fill="#7FBCD7" width="1.543" height="1.552"/>
			<rect x="189.515" y="111.362" fill="#7FBCD7" width="1.548" height="1.552"/>
			<rect x="189.515" y="108.267" fill="#7FBCD7" width="1.548" height="1.549"/>
		</g>
		<g id="Particle_33_">
			<rect x="187.969" y="126.86" fill="#A1CEE2" width="1.543" height="3.097"/>
			<rect x="189.515" y="125.308" fill="#A1CEE2" width="1.548" height="1.552"/>
			<rect x="189.515" y="129.957" fill="#A1CEE2" width="1.548" height="1.551"/>
			<rect x="186.415" y="129.957" fill="#A1CEE2" width="1.555" height="1.551"/>
			<rect x="186.415" y="125.308" fill="#A1CEE2" width="1.555" height="1.552"/>
		</g>
		<g id="Particle_34_">
			<rect x="190.293" y="146.229" fill="#A1CEE2" width="1.543" height="1.55"/>
			<rect x="191.839" y="144.68" fill="#A1CEE2" width="1.548" height="1.549"/>
			<rect x="191.839" y="147.778" fill="#A1CEE2" width="1.548" height="1.549"/>
			<rect x="188.739" y="147.778" fill="#A1CEE2" width="1.555" height="1.549"/>
			<rect x="188.739" y="144.68" fill="#A1CEE2" width="1.555" height="1.549"/>
		</g>
		<g id="Particle_35_">
			<rect x="200.36" y="161.724" fill="#A1CEE2" width="1.555" height="1.549"/>
			<rect x="201.915" y="160.177" fill="#A1CEE2" width="1.543" height="1.547"/>
			<rect x="201.915" y="163.272" fill="#A1CEE2" width="1.543" height="1.552"/>
			<rect x="198.809" y="163.272" fill="#A1CEE2" width="1.544" height="1.552"/>
			<rect x="198.809" y="160.177" fill="#A1CEE2" width="1.544" height="1.547"/>
		</g>
		<g id="Particle_36_">
			<rect x="215.08" y="174.122" fill="#DBECF4" width="1.543" height="1.546"/>
			<rect x="216.626" y="172.566" fill="#DBECF4" width="1.558" height="1.556"/>
			<rect x="216.626" y="175.669" fill="#DBECF4" width="1.558" height="1.547"/>
			<rect x="213.536" y="175.669" fill="#DBECF4" width="1.544" height="1.547"/>
			<rect x="213.536" y="172.566" fill="#DBECF4" width="1.544" height="1.556"/>
		</g>
		<g id="Particle_37_">
			<rect x="232.131" y="184.189" fill="#DBECF4" width="1.543" height="3.102"/>
			<rect x="233.674" y="182.643" fill="#DBECF4" width="1.544" height="1.546"/>
			<rect x="233.674" y="187.291" fill="#DBECF4" width="1.544" height="1.545"/>
			<rect x="230.569" y="187.291" fill="#DBECF4" width="1.56" height="1.545"/>
			<rect x="230.569" y="182.643" fill="#DBECF4" width="1.56" height="1.546"/>
		</g>
		<g id="Particle_38_">
			<rect x="248.398" y="195.043" fill="#DBECF4" width="1.544" height="1.544"/>
			<rect x="249.944" y="193.484" fill="#DBECF4" width="1.544" height="1.559"/>
			<rect x="249.944" y="196.588" fill="#DBECF4" width="1.544" height="1.544"/>
			<rect x="246.84" y="196.588" fill="#DBECF4" width="1.558" height="1.544"/>
			<rect x="246.84" y="193.484" fill="#DBECF4" width="1.558" height="1.559"/>
		</g>
		<g id="Particle_39_">
			<rect x="265.448" y="203.56" fill="#DBECF4" width="1.529" height="1.544"/>
			<rect x="266.979" y="202.016" fill="#DBECF4" width="1.557" height="1.544"/>
			<rect x="266.979" y="205.104" fill="#DBECF4" width="1.557" height="1.56"/>
			<rect x="263.891" y="205.104" fill="#DBECF4" width="1.558" height="1.56"/>
			<rect x="263.891" y="202.016" fill="#DBECF4" width="1.558" height="1.544"/>
		</g>
		<g id="Particle_40_">
			<rect x="283.263" y="211.313" fill="#DBECF4" width="1.559" height="1.544"/>
			<rect x="284.821" y="209.753" fill="#DBECF4" width="1.528" height="1.559"/>
			<rect x="284.821" y="212.857" fill="#DBECF4" width="1.528" height="1.544"/>
			<rect x="281.705" y="212.857" fill="#DBECF4" width="1.558" height="1.544"/>
			<rect x="281.705" y="209.753" fill="#DBECF4" width="1.558" height="1.559"/>
		</g>
		<g id="Particle_41_">
			<rect x="298.767" y="220.609" fill="#DBECF4" width="1.528" height="1.544"/>
			<rect x="300.295" y="219.05" fill="#DBECF4" width="1.555" height="1.559"/>
			<rect x="300.295" y="222.154" fill="#DBECF4" width="1.555" height="1.544"/>
			<rect x="297.208" y="222.154" fill="#DBECF4" width="1.558" height="1.544"/>
			<rect x="297.208" y="219.05" fill="#DBECF4" width="1.558" height="1.559"/>
		</g>
		<g id="Particle_42_">
			<rect x="314.243" y="231.451" fill="#DBECF4" width="1.557" height="1.544"/>
			<rect x="315.804" y="229.906" fill="#DBECF4" width="1.548" height="1.544"/>
			<rect x="315.804" y="232.995" fill="#DBECF4" width="1.548" height="1.56"/>
			<rect x="312.709" y="232.995" fill="#DBECF4" width="1.533" height="1.56"/>
			<rect x="312.709" y="229.906" fill="#DBECF4" width="1.533" height="1.544"/>
		</g>
		<g id="Particle_43_">
			<rect x="324.319" y="247.72" fill="#DBECF4" width="1.56" height="3.104"/>
			<rect x="325.88" y="246.176" fill="#DBECF4" width="1.526" height="1.544"/>
			<rect x="325.88" y="250.824" fill="#DBECF4" width="1.526" height="1.544"/>
			<rect x="322.758" y="250.824" fill="#DBECF4" width="1.555" height="1.544"/>
			<rect x="322.758" y="246.176" fill="#DBECF4" width="1.555" height="1.544"/>
		</g>
	</g>
	<g id="trail_2_">
		<g id="Particle_44_">
			<rect x="65.556" y="166.372" fill="#4AA0C7" width="1.547" height="3.104"/>
			<rect x="67.103" y="164.825" fill="#4AA0C7" width="1.554" height="1.547"/>
			<rect x="67.103" y="169.477" fill="#4AA0C7" width="1.554" height="1.544"/>
			<rect x="64.009" y="169.477" fill="#4AA0C7" width="1.544" height="1.544"/>
			<rect x="64.009" y="164.825" fill="#4AA0C7" width="1.544" height="1.547"/>
		</g>
		<g>
			<rect x="73.306" y="150.877" fill="#4AA0C7" width="1.544" height="1.55"/>
			<rect x="74.85" y="149.327" fill="#4AA0C7" width="1.546" height="1.547"/>
			<rect x="74.85" y="152.427" fill="#4AA0C7" width="1.546" height="1.548"/>
			<rect x="71.751" y="152.427" fill="#4AA0C7" width="1.554" height="1.548"/>
			<rect x="71.751" y="149.327" fill="#4AA0C7" width="1.554" height="1.547"/>
		</g>
		<g>
			<rect x="84.925" y="134.605" fill="#4AA0C7" width="1.546" height="1.551"/>
			<rect x="86.471" y="133.059" fill="#4AA0C7" width="1.547" height="1.547"/>
			<rect x="86.471" y="136.157" fill="#4AA0C7" width="1.547" height="1.549"/>
			<rect x="83.375" y="136.157" fill="#4AA0C7" width="1.551" height="1.549"/>
			<rect x="83.375" y="133.059" fill="#4AA0C7" width="1.551" height="1.547"/>
		</g>
		<g>
			<rect x="97.316" y="120.66" fill="#4AA0C7" width="1.55" height="1.552"/>
			<rect x="98.869" y="119.113" fill="#4AA0C7" width="1.549" height="1.547"/>
			<rect x="98.869" y="122.212" fill="#4AA0C7" width="1.549" height="1.549"/>
			<rect x="95.77" y="122.212" fill="#4AA0C7" width="1.547" height="1.549"/>
			<rect x="95.77" y="119.113" fill="#4AA0C7" width="1.547" height="1.547"/>
		</g>
		<g id="Particle_45_">
			<rect x="115.14" y="114.464" fill="#4AA0C7" width="3.103" height="1.547"/>
			<rect x="118.239" y="116.011" fill="#4AA0C7" width="1.546" height="1.552"/>
			<rect x="113.588" y="116.011" fill="#4AA0C7" width="1.548" height="1.552"/>
			<rect x="113.588" y="112.916" fill="#4AA0C7" width="1.548" height="1.549"/>
			<rect x="118.239" y="112.916" fill="#4AA0C7" width="1.546" height="1.549"/>
		</g>
		<g>
			<rect x="134.511" y="117.564" fill="#4AA0C7" width="1.544" height="1.549"/>
			<rect x="136.055" y="116.011" fill="#4AA0C7" width="1.549" height="1.552"/>
			<rect x="136.055" y="119.113" fill="#4AA0C7" width="1.549" height="1.547"/>
			<rect x="132.959" y="119.113" fill="#4AA0C7" width="1.552" height="1.547"/>
			<rect x="132.959" y="116.011" fill="#4AA0C7" width="1.552" height="1.552"/>
		</g>
		<g>
			<rect x="148.458" y="129.957" fill="#4AA0C7" width="1.544" height="1.551"/>
			<rect x="150.002" y="128.41" fill="#4AA0C7" width="1.548" height="1.547"/>
			<rect x="150.002" y="131.508" fill="#4AA0C7" width="1.548" height="1.549"/>
			<rect x="146.901" y="131.508" fill="#4AA0C7" width="1.552" height="1.549"/>
			<rect x="146.901" y="128.41" fill="#4AA0C7" width="1.552" height="1.547"/>
		</g>
		<g id="Particle_46_">
			<rect x="151.55" y="149.327" fill="#4AA0C7" width="3.101" height="1.547"/>
			<rect x="154.65" y="150.877" fill="#4AA0C7" width="1.548" height="1.55"/>
			<rect x="150.002" y="150.877" fill="#4AA0C7" width="1.548" height="1.55"/>
			<rect x="150.002" y="147.778" fill="#4AA0C7" width="1.548" height="1.549"/>
			<rect x="154.65" y="147.778" fill="#4AA0C7" width="1.548" height="1.549"/>
		</g>
		<g>
			<rect x="151.55" y="167.918" fill="#4AA0C7" width="1.554" height="1.555"/>
			<rect x="153.107" y="166.372" fill="#4AA0C7" width="1.543" height="1.546"/>
			<rect x="153.107" y="169.477" fill="#4AA0C7" width="1.543" height="1.544"/>
			<rect x="150.002" y="169.477" fill="#4AA0C7" width="1.548" height="1.544"/>
			<rect x="150.002" y="166.372" fill="#4AA0C7" width="1.548" height="1.546"/>
		</g>
		<g>
			<rect x="146.901" y="187.291" fill="#7FBCD7" width="1.552" height="1.545"/>
			<rect x="148.458" y="185.746" fill="#7FBCD7" width="1.544" height="1.544"/>
			<rect x="148.458" y="188.836" fill="#7FBCD7" width="1.544" height="1.559"/>
			<rect x="145.354" y="188.836" fill="#7FBCD7" width="1.548" height="1.559"/>
			<rect x="145.354" y="185.746" fill="#7FBCD7" width="1.548" height="1.544"/>
		</g>
		<g id="Particle_47_">
			<rect x="129.083" y="220.609" fill="#7FBCD7" width="3.103" height="1.544"/>
			<rect x="132.185" y="222.154" fill="#7FBCD7" width="1.546" height="1.544"/>
			<rect x="127.537" y="222.154" fill="#7FBCD7" width="1.546" height="1.544"/>
			<rect x="127.537" y="219.05" fill="#7FBCD7" width="1.546" height="1.559"/>
			<rect x="132.185" y="219.05" fill="#7FBCD7" width="1.546" height="1.559"/>
		</g>
		<g id="Particle_48_">
			<rect x="138.381" y="204.34" fill="#7FBCD7" width="3.104" height="1.544"/>
			<rect x="141.484" y="205.884" fill="#7FBCD7" width="1.545" height="1.544"/>
			<rect x="136.834" y="205.884" fill="#7FBCD7" width="1.547" height="1.544"/>
			<rect x="136.834" y="202.78" fill="#7FBCD7" width="1.547" height="1.56"/>
			<rect x="141.484" y="202.78" fill="#7FBCD7" width="1.545" height="1.56"/>
		</g>
		<g>
			<rect x="118.239" y="236.099" fill="#7FBCD7" width="1.546" height="1.544"/>
			<rect x="119.788" y="234.555" fill="#7FBCD7" width="1.548" height="1.544"/>
			<rect x="119.788" y="237.644" fill="#7FBCD7" width="1.548" height="1.559"/>
			<rect x="116.688" y="237.644" fill="#7FBCD7" width="1.551" height="1.559"/>
			<rect x="116.688" y="234.555" fill="#7FBCD7" width="1.551" height="1.544"/>
		</g>
		<g>
			<rect x="106.613" y="250.824" fill="#7FBCD7" width="1.551" height="1.544"/>
			<rect x="108.167" y="249.265" fill="#7FBCD7" width="1.548" height="1.559"/>
			<rect x="108.167" y="252.369" fill="#7FBCD7" width="1.548" height="1.544"/>
			<rect x="105.066" y="252.369" fill="#7FBCD7" width="1.547" height="1.544"/>
			<rect x="105.066" y="249.265" fill="#7FBCD7" width="1.547" height="1.559"/>
		</g>
		<g>
			<rect x="94.221" y="266.315" fill="#A1CEE2" width="1.548" height="1.558"/>
			<rect x="95.77" y="264.754" fill="#A1CEE2" width="1.547" height="1.56"/>
			<rect x="95.77" y="267.873" fill="#A1CEE2" width="1.547" height="1.529"/>
			<rect x="92.672" y="267.873" fill="#A1CEE2" width="1.549" height="1.529"/>
			<rect x="92.672" y="264.754" fill="#A1CEE2" width="1.549" height="1.56"/>
		</g>
		<g>
			<rect x="86.471" y="284.129" fill="#A1CEE2" width="1.547" height="1.558"/>
			<rect x="88.023" y="282.575" fill="#A1CEE2" width="1.55" height="1.552"/>
			<rect x="88.023" y="285.687" fill="#A1CEE2" width="1.55" height="1.529"/>
			<rect x="84.925" y="285.687" fill="#A1CEE2" width="1.546" height="1.529"/>
			<rect x="84.925" y="282.575" fill="#A1CEE2" width="1.546" height="1.552"/>
		</g>
		<g>
			<rect x="86.471" y="302.721" fill="#7FBCD7" width="1.547" height="1.552"/>
			<rect x="88.023" y="301.171" fill="#7FBCD7" width="1.55" height="1.55"/>
			<rect x="88.023" y="304.28" fill="#7FBCD7" width="1.55" height="1.55"/>
			<rect x="84.925" y="304.28" fill="#7FBCD7" width="1.546" height="1.55"/>
			<rect x="84.925" y="301.171" fill="#7FBCD7" width="1.546" height="1.55"/>
		</g>
		<g id="Particle_49_">
			<rect x="92.672" y="320.537" fill="#DBECF4" width="3.1" height="1.552"/>
			<rect x="95.77" y="322.095" fill="#DBECF4" width="1.547" height="1.56"/>
			<rect x="91.121" y="322.095" fill="#DBECF4" width="1.546" height="1.56"/>
			<rect x="91.121" y="319.006" fill="#DBECF4" width="1.546" height="1.529"/>
			<rect x="95.77" y="319.006" fill="#DBECF4" width="1.547" height="1.529"/>
		</g>
		<g>
			<rect x="108.167" y="331.392" fill="#DBECF4" width="1.548" height="1.56"/>
			<rect x="109.715" y="329.832" fill="#DBECF4" width="1.547" height="1.552"/>
			<rect x="109.715" y="332.951" fill="#DBECF4" width="1.547" height="1.529"/>
			<rect x="106.613" y="332.951" fill="#DBECF4" width="1.551" height="1.529"/>
			<rect x="106.613" y="329.832" fill="#DBECF4" width="1.551" height="1.552"/>
		</g>
		<g>
			<rect x="127.537" y="334.48" fill="#DBECF4" width="1.546" height="1.552"/>
			<rect x="129.083" y="332.951" fill="#DBECF4" width="1.549" height="1.529"/>
			<rect x="129.083" y="336.04" fill="#DBECF4" width="1.549" height="1.56"/>
			<rect x="125.985" y="336.04" fill="#DBECF4" width="1.552" height="1.56"/>
			<rect x="125.985" y="332.951" fill="#DBECF4" width="1.552" height="1.529"/>
		</g>
		<g>
			<rect x="146.901" y="332.951" fill="#DBECF4" width="1.552" height="1.529"/>
			<rect x="148.458" y="331.392" fill="#DBECF4" width="1.544" height="1.56"/>
			<rect x="148.458" y="334.48" fill="#DBECF4" width="1.544" height="1.552"/>
			<rect x="145.354" y="334.48" fill="#DBECF4" width="1.548" height="1.552"/>
			<rect x="145.354" y="331.392" fill="#DBECF4" width="1.548" height="1.56"/>
		</g>
	</g>
	<g id="block">
		<path id="rect4153" fill="#4AA0C7" d="M158.386,277.709l98.461-54.757l98.452,54.757V394.09l-98.452,54.754l-98.461-54.754
			V277.709L158.386,277.709z"/>
	</g>
	<g id="block_1_">
		<path id="rect4153_1_" fill="#4AA0C7" d="M43.65,183.314l18.242-10.141l18.244,10.141v21.566l-18.244,10.144L43.65,204.88V183.314
			L43.65,183.314z"/>
	</g>
	<g id="block_2_">
		<path id="rect4153_2_" fill="#4AA0C7" d="M282.22,79.78l18.225-10.143l18.259,10.143v21.557l-18.259,10.143l-18.225-10.143V79.78z
			"/>
	</g>
	<g id="block_3_">
		<path id="rect4153_3_" fill="#4AA0C7" d="M368.003,196.569l18.233-10.146l18.25,10.146v21.551l-18.25,10.146l-18.233-10.146
			V196.569z"/>
	</g>
</g>
</svg>
