<?xml version="1.0" encoding="utf-8"?>
<!-- Generator: Adobe Illustrator 16.0.0, SVG Export Plug-In . SVG Version: 6.00 Build 0)  -->
<!DOCTYPE svg PUBLIC "-//W3C//DTD SVG 1.1//EN" "http://www.w3.org/Graphics/SVG/1.1/DTD/svg11.dtd">
<svg version="1.1" id="desire_lines" xmlns="http://www.w3.org/2000/svg" xmlns:xlink="http://www.w3.org/1999/xlink" x="0px"
	 y="0px" width="511.475px" height="511.475px" viewBox="0 0 511.475 511.475" enable-background="new 0 0 511.475 511.475"
	 xml:space="preserve">
<rect fill="#FFFFFF" width="511.473" height="511.474"/>
<g id="Player">
	<path id="path6524" fill="#7FBCD7" d="M434.324,273.688l-22.351-31.171l-0.318-15.105l4.066-3.147l-0.595-36.844l19.497,12.595
		l42.186,11.961l7.887-28.651l-37.488-15.114l-23.278-21.097l0.309-8.507l5.019,2.528l17.341-54.473l-79.655-27.393l-20.158,48.809
		l11.96,9.122l-0.647,4.091l-16.662,1.897L315.633,155.3l-2.226,57.626l14.194,4.707l17.623-0.627l-1.247-36.208l5.333-11.64
		l7.274,6.284l4.074,50.071l1.577,24.55l-38.427,28.024l5.045,23.316l20.165,9.418l33.665-21.703l6.951-9.13l20.128,11.96
		L434.324,273.688z"/>
</g>
<path id="rect6526-6" fill="#A1CEE2" d="M153.044,414.899l89.366-25.607l67.437,37.003l-95.034,25.803L153.044,414.899z"/>
<path id="rect6526-4" fill="#A1CEE2" d="M175.67,317.106l72.439-20.989l56.012,27.49l-77.104,25.526L175.67,317.106z"/>
<path id="rect6526-7" fill="#A1CEE2" d="M28.823,353.593l92.644-24.889l70.323,39.969l-98.712,30.771L28.823,353.593z"/>
<g>
	<polygon fill="#3D83A3" points="242.789,403.989 236.932,403.989 236.932,409.807 242.789,409.807 248.646,409.807 
		248.646,403.989 	"/>
	<polygon fill="#3D83A3" points="231.074,403.989 231.074,398.171 231.074,392.353 231.074,386.534 231.074,380.716 
		236.932,380.716 236.932,374.897 242.789,374.897 242.789,369.08 242.789,363.262 236.932,363.262 236.932,357.443 
		231.074,357.443 225.217,357.443 225.217,363.262 219.36,363.262 213.503,363.262 213.503,369.08 207.646,369.08 207.646,374.897 
		207.646,380.716 213.503,380.716 213.503,386.534 219.36,386.534 225.217,386.534 225.217,392.353 225.217,398.171 
		225.217,403.989 225.217,409.807 225.217,415.625 219.36,415.625 219.36,421.443 225.217,421.443 231.074,421.443 236.932,421.443 
		236.932,415.625 236.932,409.807 231.074,409.807 	"/>
	<polygon fill="#3D83A3" points="219.36,403.989 213.503,403.989 207.646,403.989 207.646,409.807 213.503,409.807 213.503,415.625 
		219.36,415.625 219.36,409.807 	"/>
</g>
<polygon fill="#3D83A3" points="340.273,266.096 323.801,278.09 328.851,301.406 349.006,310.827 369.678,297.517 364.391,271.206 
	"/>
<polygon fill="#3D83A3" points="420.877,254.947 400.195,269.681 395.682,268.251 389.63,279.994 409.758,291.953 434.324,273.688 
	"/>
<g>
	<polygon fill="#7FBCD7" points="155.63,165.567 146.88,165.567 146.88,174.282 146.88,182.996 155.63,182.996 155.63,174.282 
		164.38,174.282 164.38,165.567 	"/>
	<polygon fill="#3D83A3" points="199.38,165.567 199.38,156.853 190.63,156.853 181.88,156.853 181.88,165.567 173.13,165.567 
		164.38,165.567 164.38,174.282 155.63,174.282 155.63,182.996 146.88,182.996 146.88,174.282 146.88,165.567 138.13,165.567 
		138.13,174.282 138.13,182.996 138.13,191.71 146.88,191.71 146.88,200.424 155.63,200.424 155.63,209.139 164.38,209.139 
		164.38,217.853 173.13,217.853 181.88,217.853 181.88,209.139 190.63,209.139 190.63,200.424 199.38,200.424 199.38,191.71 
		208.13,191.71 208.13,182.996 208.13,174.282 208.13,165.567 	"/>
	<polygon fill="#3D83A3" points="155.63,156.853 146.88,156.853 146.88,165.567 155.63,165.567 164.38,165.567 164.38,156.853 	"/>
</g>
<g>
	<polygon fill="#3D83A3" points="123.141,340.718 123.141,334.784 123.141,328.851 117.224,328.851 117.224,334.784 
		117.224,340.718 111.308,340.718 111.308,334.784 111.308,328.851 111.308,322.918 111.308,316.984 111.308,311.051 
		105.391,311.051 105.391,316.984 105.391,322.918 105.391,328.851 105.391,334.784 99.474,334.784 99.474,340.718 93.558,340.718 
		93.558,334.784 87.641,334.784 87.641,328.851 87.641,322.918 81.724,322.918 81.724,328.851 81.724,334.784 81.724,340.718 
		87.641,340.718 87.641,346.651 87.641,352.585 81.724,352.585 81.724,346.651 75.807,346.651 75.807,352.585 75.807,358.518 
		81.724,358.518 87.641,358.518 93.558,358.518 99.474,358.518 105.391,358.518 111.308,358.518 117.224,358.518 123.141,358.518 
		129.058,358.518 134.974,358.518 134.974,352.585 129.058,352.585 129.058,346.651 123.141,346.651 	"/>
	<rect x="69.891" y="340.718" fill="#3D83A3" width="5.917" height="5.934"/>
	<polygon fill="#3D83A3" points="129.058,340.718 129.058,346.651 134.974,346.651 134.974,340.718 134.974,334.784 
		129.058,334.784 	"/>
	<rect x="134.974" y="328.851" fill="#3D83A3" width="5.917" height="5.934"/>
	<polygon fill="#3D83A3" points="99.474,328.851 99.474,322.918 99.474,316.984 93.558,316.984 93.558,322.918 93.558,328.851 
		93.558,334.784 99.474,334.784 	"/>
	<polygon fill="#3D83A3" points="129.058,322.918 129.058,316.984 123.141,316.984 123.141,322.918 123.141,328.851 
		129.058,328.851 	"/>
	<rect x="75.807" y="316.984" fill="#3D83A3" width="5.917" height="5.934"/>
	<rect x="129.058" y="311.051" fill="#3D83A3" width="5.917" height="5.934"/>
	<rect x="87.641" y="311.051" fill="#3D83A3" width="5.917" height="5.934"/>
	<polygon fill="#3D83A3" points="117.224,305.118 117.224,299.185 117.224,293.251 117.224,287.317 111.308,287.317 
		111.308,293.251 111.308,299.185 111.308,305.118 111.308,311.051 117.224,311.051 	"/>
	<polygon fill="#3D83A3" points="105.391,299.185 105.391,293.251 99.474,293.251 99.474,287.317 99.474,281.384 93.558,281.384 
		93.558,287.317 93.558,293.251 93.558,299.185 99.474,299.185 99.474,305.118 99.474,311.051 105.391,311.051 105.391,305.118 	"/>
	<polygon fill="#3D83A3" points="123.141,281.384 123.141,275.451 117.224,275.451 117.224,281.384 117.224,287.317 
		123.141,287.317 	"/>
	<rect x="87.641" y="275.451" fill="#3D83A3" width="5.917" height="5.933"/>
	<rect x="123.141" y="269.518" fill="#3D83A3" width="5.917" height="5.934"/>
</g>
<polygon fill="#3D83A3" points="260.146,289.729 260.146,284.979 255.395,284.979 255.395,280.229 250.645,280.229 245.895,280.229 
	241.145,280.229 236.395,280.229 236.395,284.979 231.645,284.979 231.645,289.729 226.895,289.729 226.895,294.479 
	226.895,299.229 231.645,299.229 236.395,299.229 241.145,299.229 241.145,303.979 241.145,308.729 241.145,313.479 
	241.145,318.229 245.895,318.229 250.645,318.229 250.645,313.479 250.645,308.729 250.645,303.979 250.645,299.229 
	255.395,299.229 260.146,299.229 264.896,299.229 264.896,294.479 264.896,289.729 "/>
</svg>
