<?xml version="1.0" encoding="UTF-8" standalone="no"?>
<!-- Created with Inkscape (http://www.inkscape.org/) -->

<svg
   xmlns:dc="http://purl.org/dc/elements/1.1/"
   xmlns:cc="http://creativecommons.org/ns#"
   xmlns:rdf="http://www.w3.org/1999/02/22-rdf-syntax-ns#"
   xmlns:svg="http://www.w3.org/2000/svg"
   xmlns="http://www.w3.org/2000/svg"
   xmlns:sodipodi="http://sodipodi.sourceforge.net/DTD/sodipodi-0.dtd"
   xmlns:inkscape="http://www.inkscape.org/namespaces/inkscape"
   width="210mm"
   height="297mm"
   viewBox="0 0 744.09448819 1052.3622047"
   id="svg2"
   version="1.1"
   inkscape:version="0.91 r13725"
   sodipodi:docname="decorative_mushroom_blocks_53.svg">
  <defs
     id="defs4" />
  <sodipodi:namedview
     id="base"
     pagecolor="#ffffff"
     bordercolor="#666666"
     borderopacity="1.0"
     inkscape:pageopacity="0.0"
     inkscape:pageshadow="2"
     inkscape:zoom="0.49497475"
     inkscape:cx="312.79035"
     inkscape:cy="413.77789"
     inkscape:document-units="px"
     inkscape:current-layer="layer1"
     showgrid="false"
     inkscape:window-width="958"
     inkscape:window-height="1008"
     inkscape:window-x="953"
     inkscape:window-y="0"
     inkscape:window-maximized="0" />
  <metadata
     id="metadata7">
    <rdf:RDF>
      <cc:Work
         rdf:about="">
        <dc:format>image/svg+xml</dc:format>
        <dc:type
           rdf:resource="http://purl.org/dc/dcmitype/StillImage" />
        <dc:title></dc:title>
      </cc:Work>
    </rdf:RDF>
  </metadata>
  <g
     inkscape:label="Layer 1"
     inkscape:groupmode="layer"
     id="layer1">
    <g
       style="opacity:1"
       id="g6777"
       transform="matrix(0.07861312,0,0,0.07861312,-39.624902,671.83067)">
      <rect
         style="opacity:1;fill:#78c1e3;fill-opacity:1;stroke:none;stroke-width:8.10000038;stroke-linecap:round;stroke-linejoin:round;stroke-miterlimit:4;stroke-dasharray:none;stroke-opacity:1"
         id="rect6779"
         width="948.82935"
         height="951.98566"
         x="1988.9286"
         y="601.87079" />
      <path
         style="fill:#ffffff;fill-opacity:1;fill-rule:evenodd;stroke:none;stroke-width:1px;stroke-linecap:butt;stroke-linejoin:miter;stroke-opacity:1"
         d="m 2136.7896,783.38168 c 3.8738,66.77091 12.2991,129.64054 22.8182,190.71551 11.3868,80.55851 40.8775,167.23141 38.8034,240.96121 -3.7783,127.6689 -82.6523,203.5998 -51.6637,241.855 13.003,8.2505 26.6631,14.4474 47.1611,-0.724 9.7147,-13.3216 17.9027,-29.6111 24.2558,-58.0135 12.7,-88.2889 39.4594,-174.2345 22.4975,-267.467 0,0 -22.1928,-91.7918 -43.481,-194.66013 -14.6817,-70.94419 -18.4054,-157.0619 -23.7493,-212.16102 -3.235,-33.35418 -17.7411,-43.99565 -28.1968,-37.20077 -21.3458,11.64195 -11.3118,58.15016 -8.4452,96.6947 z"
         id="path6781"
         inkscape:connector-curvature="0"
         sodipodi:nodetypes="cccccccsscc" />
      <path
         style="fill:#ffffff;fill-opacity:1;fill-rule:evenodd;stroke:none;stroke-width:1px;stroke-linecap:butt;stroke-linejoin:miter;stroke-opacity:1"
         d="m 2599.9422,1378.9067 c 18.6418,-44.7503 25.9073,-99.9503 26.1567,-165.3845 6.5865,-56.8242 -39.6158,-113.9311 -4.0194,-221.938 43.7516,-101.8547 98.389,-183.43121 80.4804,-219.45131 -8.831,-8.28351 -18.7223,-14.92104 -39.6461,-4.43196 -11.4402,10.09496 0.5167,45.69032 -11.8581,68.74693 -32.5684,72.42436 -76.32,141.38886 -85.2949,221.11264 -3.2941,40.8462 23.063,134.9605 19.4402,183.7449 -4.5242,60.9206 -55.0578,116.7897 -64.2785,163.4053 -5.5817,28.2188 3.9132,44.3752 14.3515,39.8136 21.7407,13.5668 47.0503,-32.1094 64.6682,-65.6176 z"
         id="path6783"
         inkscape:connector-curvature="0"
         sodipodi:nodetypes="cccccccsscc" />
      <path
         style="fill:#ffffff;fill-opacity:1;fill-rule:evenodd;stroke:none;stroke-width:1px;stroke-linecap:butt;stroke-linejoin:miter;stroke-opacity:1"
         d="m 2851.6508,936.55529 c -2.8459,43.6173 -9.0356,84.68621 -16.7635,124.58281 -8.3654,52.6239 -30.0308,109.242 -28.507,157.4051 2.7757,83.3983 60.7207,132.9993 37.9549,157.9891 -9.5527,5.3895 -19.5882,9.4376 -34.6471,-0.473 -7.1369,-8.7022 -13.1523,-19.3431 -17.8196,-37.8966 -9.3301,-57.6738 -28.989,-113.8167 -16.5278,-174.7198 0,0 16.304,-59.962 31.9434,-127.1595 10.786,-46.34351 13.5216,-102.59901 17.4475,-138.59181 2.3766,-21.7883 13.0336,-28.7397 20.7149,-24.301 15.6817,7.605 8.3102,37.9859 6.2043,63.1647 z"
         id="path6785"
         inkscape:connector-curvature="0"
         sodipodi:nodetypes="cccccccsscc" />
      <path
         style="fill:#ffffff;fill-opacity:1;fill-rule:evenodd;stroke:none;stroke-width:1px;stroke-linecap:butt;stroke-linejoin:miter;stroke-opacity:1"
         d="m 2332.2866,705.63713 c 1.7485,49.66546 -6.7389,104.94027 2.3767,149.06225 15.8965,76.38075 71.4368,113.63084 56.8817,139.94557 -6.9399,6.34985 -14.4943,11.53455 -28.4413,4.5974 -7.2644,-6.9753 -13.9273,-15.8985 -20.7792,-32.30258 -17.0599,-51.74434 -42.3255,-100.57901 -42.0734,-158.46193 0,0 3.26,-57.58364 5.3776,-121.71457 1.038,-31.43516 -6.0755,-74.21205 -5.4029,-85.14674 l 29.3568,0.72095 c 4.9996,24.15436 2.5087,65.44668 2.704,103.29965 z"
         id="path6787"
         inkscape:connector-curvature="0"
         sodipodi:nodetypes="ccccccsccc" />
      <path
         sodipodi:nodetypes="ccccccsccc"
         inkscape:connector-curvature="0"
         id="path6789"
         d="m 2332.2866,705.63713 c 1.7485,49.66546 -6.7389,104.94027 2.3767,149.06225 15.8965,76.38075 71.4368,113.63084 56.8817,139.94557 -6.9399,6.34985 -14.4943,11.53455 -28.4413,4.5974 -7.2644,-6.9753 -13.9273,-15.8985 -20.7792,-32.30258 -17.0599,-51.74434 -42.3255,-100.57901 -42.0734,-158.46193 0,0 3.26,-57.58364 5.3776,-121.71457 1.038,-31.43516 -6.0755,-74.07812 -5.4029,-85.01281 l 29.2675,0.096 c 4.9996,24.15436 2.598,65.93775 2.7933,103.79072 z"
         style="fill:#ffffff;fill-opacity:1;fill-rule:evenodd;stroke:none;stroke-width:1px;stroke-linecap:butt;stroke-linejoin:miter;stroke-opacity:1" />
      <path
         style="fill:#ffffff;fill-opacity:1;fill-rule:evenodd;stroke:none;stroke-width:1px;stroke-linecap:butt;stroke-linejoin:miter;stroke-opacity:1"
         d="m 2332.2866,1450.5245 c 1.7485,-49.6655 34.9299,-106.0348 22.2816,-116.0123 -16.239,-10.8244 -51.1838,71.0136 -48.9395,134.8861 1.1045,31.4329 -5.8861,73.5176 -5.2135,84.4523 l 29.1674,-0.026 c 4.9996,-24.1543 2.5087,-65.4467 2.704,-103.2996 z"
         id="path6791"
         inkscape:connector-curvature="0"
         sodipodi:nodetypes="ccscccc" />
      <path
         style="fill:#ffffff;fill-opacity:1;fill-rule:evenodd;stroke:none;stroke-width:1px;stroke-linecap:butt;stroke-linejoin:miter;stroke-opacity:1"
         d="m 2816.3302,1508.115 c 1.7485,-21.9693 34.9299,-46.9039 22.2816,-51.3174 -16.239,-4.7881 -51.1838,31.4125 -48.9395,59.6661 1.1045,13.9042 -5.8861,32.5201 -5.2135,37.357 l 29.1674,-0.012 c 4.9996,-10.6845 2.5087,-28.95 2.704,-45.694 z"
         id="path6793"
         inkscape:connector-curvature="0"
         sodipodi:nodetypes="ccscccc" />
      <path
         style="fill:#ffffff;fill-opacity:1;fill-rule:evenodd;stroke:none;stroke-width:1px;stroke-linecap:butt;stroke-linejoin:miter;stroke-opacity:1"
         d="m 2781.652,647.5378 c -1.7485,21.9693 -34.9299,46.9039 -22.2816,51.3174 16.239,4.7881 51.1838,-31.4125 48.9395,-59.6661 -1.1045,-13.9042 5.8861,-32.5201 5.2135,-37.357 l -29.1674,0.012 c -4.9996,10.6845 -2.5087,28.95 -2.704,45.694 z"
         id="path6795"
         inkscape:connector-curvature="0"
         sodipodi:nodetypes="ccscccc" />
      <path
         style="fill:#ffffff;fill-opacity:1;fill-rule:evenodd;stroke:none;stroke-width:1px;stroke-linecap:butt;stroke-linejoin:miter;stroke-opacity:1"
         d="m 2529.8855,738.43403 c -2.2737,28.56889 -45.4228,60.99385 -28.975,66.73317 21.1172,6.22645 67.1883,-40.90421 63.641,-77.58983 -1.7367,-17.96085 4.8319,-54.95987 -13.1443,-59.68109 -25.6525,13.87011 -21.2669,48.76682 -21.5217,70.53813 z"
         id="path6797"
         inkscape:connector-curvature="0"
         sodipodi:nodetypes="ccsccc" />
    </g>
  </g>
</svg>
