<?xml version="1.0" encoding="utf-8"?>
<!-- Generator: Adobe Illustrator 16.0.0, SVG Export Plug-In . SVG Version: 6.00 Build 0)  -->
<!DOCTYPE svg PUBLIC "-//W3C//DTD SVG 1.1//EN" "http://www.w3.org/Graphics/SVG/1.1/DTD/svg11.dtd">
<svg version="1.1" id="ziprails" xmlns="http://www.w3.org/2000/svg" xmlns:xlink="http://www.w3.org/1999/xlink" x="0px" y="0px"
	 width="511.473px" height="511.473px" viewBox="0 0 511.473 511.473" enable-background="new 0 0 511.473 511.473"
	 xml:space="preserve">
<rect fill="#FFFFFF" width="511.473" height="511.473"/>
<g id="Icon">
	<rect id="tripwire" x="148.64" y="207.054" fill="#DBECF4" width="214.486" height="1.191"/>
	<g id="player">
		<rect x="238.686" y="176.705" fill="#4AA0C7" width="17.783" height="17.017"/>
		<rect x="243.389" y="192.12" fill="#4AA0C7" width="8.097" height="21.6"/>
		<polygon fill="#4AA0C7" points="246.426,202.724 250.164,196.277 269.999,207.745 266.27,214.185 		"/>
	</g>
	<g id="cart">
		<rect x="230.176" y="207.53" fill="#3D83A3" width="44.237" height="25.352"/>
	</g>
	<g id="cliff_1_">
		<g id="cart_2_">
			<rect x="431.288" y="228.6" fill="#3D83A3" width="44.228" height="25.339"/>
		</g>
		<g id="connectors_1_">
			<rect x="505.021" y="258.846" fill="#4AA0C7" width="5.375" height="2.972"/>
			<rect x="492.298" y="258.846" fill="#4AA0C7" width="5.351" height="2.972"/>
			<rect x="480.094" y="258.846" fill="#4AA0C7" width="5.357" height="2.972"/>
			<rect x="467.952" y="258.846" fill="#4AA0C7" width="5.35" height="2.972"/>
			<rect x="455.164" y="258.846" fill="#4AA0C7" width="5.341" height="2.972"/>
			<rect x="443.02" y="258.846" fill="#4AA0C7" width="5.337" height="2.972"/>
			<rect x="430.871" y="258.846" fill="#4AA0C7" width="5.363" height="2.972"/>
			<rect x="418.074" y="258.846" fill="#4AA0C7" width="5.36" height="2.972"/>
			<rect x="405.924" y="258.846" fill="#4AA0C7" width="5.376" height="2.972"/>
		</g>
		<g id="bars_1_">
			<rect x="505.021" y="257.643" fill="#3D83A3" width="5.375" height="2.972"/>
			<rect x="492.298" y="257.643" fill="#3D83A3" width="5.351" height="2.972"/>
			<rect x="480.094" y="257.643" fill="#3D83A3" width="5.357" height="2.972"/>
			<rect x="467.952" y="257.643" fill="#3D83A3" width="5.35" height="2.972"/>
			<rect x="455.164" y="257.643" fill="#3D83A3" width="5.341" height="2.972"/>
			<rect x="443.02" y="257.643" fill="#3D83A3" width="5.337" height="2.972"/>
			<rect x="430.871" y="257.643" fill="#3D83A3" width="5.363" height="2.972"/>
			<rect x="418.074" y="257.643" fill="#3D83A3" width="5.36" height="2.972"/>
			<rect x="405.924" y="257.643" fill="#3D83A3" width="5.376" height="2.972"/>
		</g>
		<g id="tripwire_hook">
			<rect x="365.532" y="200.513" fill="#3D83A3" width="2.968" height="8.928"/>
			<rect x="364.329" y="204.086" fill="#3D83A3" width="1.806" height="4.159"/>
			<rect x="362.555" y="207.054" fill="#3D83A3" width="2.375" height="1.191"/>
		</g>
	</g>
	<g id="cliff">
		<g id="cart_1_">
			<rect x="37.286" y="228.6" fill="#3D83A3" width="44.221" height="25.339"/>
		</g>
		<g id="connectors">
			<rect x="1.873" y="258.761" fill="#4AA0C7" width="5.357" height="3.005"/>
			<rect x="14.669" y="258.711" fill="#4AA0C7" width="5.356" height="2.971"/>
			<rect x="26.811" y="258.711" fill="#4AA0C7" width="5.355" height="2.971"/>
			<rect x="39.015" y="258.711" fill="#4AA0C7" width="5.354" height="2.971"/>
			<rect x="51.745" y="258.761" fill="#4AA0C7" width="5.357" height="3.005"/>
			<rect x="63.888" y="258.761" fill="#4AA0C7" width="5.358" height="3.005"/>
			<rect x="76.089" y="258.761" fill="#4AA0C7" width="5.358" height="3.005"/>
			<rect x="88.832" y="258.711" fill="#4AA0C7" width="5.357" height="2.971"/>
			<rect x="101.03" y="258.711" fill="#4AA0C7" width="5.354" height="2.971"/>
		</g>
		<g id="bars">
			<rect x="1.934" y="257.598" fill="#3D83A3" width="5.356" height="2.968"/>
			<rect x="14.669" y="257.598" fill="#3D83A3" width="5.356" height="2.968"/>
			<rect x="26.811" y="257.598" fill="#3D83A3" width="5.355" height="2.968"/>
			<rect x="39.015" y="257.598" fill="#3D83A3" width="5.354" height="2.968"/>
			<rect x="51.745" y="257.598" fill="#3D83A3" width="5.357" height="2.968"/>
			<rect x="63.888" y="257.598" fill="#3D83A3" width="5.358" height="2.968"/>
			<rect x="76.089" y="257.598" fill="#3D83A3" width="5.358" height="2.968"/>
			<rect x="88.832" y="257.598" fill="#3D83A3" width="5.357" height="2.968"/>
			<rect x="101.03" y="257.598" fill="#3D83A3" width="5.354" height="2.968"/>
		</g>
		<g id="tripwire_hook_1_">
			<rect x="143.283" y="200.513" fill="#3D83A3" width="2.982" height="8.928"/>
			<rect x="145.663" y="204.086" fill="#3D83A3" width="1.784" height="4.159"/>
			<rect x="146.854" y="207.054" fill="#3D83A3" width="2.381" height="1.191"/>
		</g>
	</g>
</g>
<polygon fill="#3D83A3" points="51.156,253.939 50.654,253.939 50.158,253.939 49.657,253.939 49.166,253.939 48.666,253.939 
	48.167,253.939 47.671,253.939 47.175,253.939 46.677,253.939 46.177,253.939 45.682,253.939 45.184,253.939 45.184,254.458 
	45.184,254.943 45.682,254.943 45.682,255.439 46.177,255.439 46.177,255.948 46.677,255.948 47.175,255.948 47.175,256.431 
	47.671,256.431 48.167,256.431 48.666,256.431 49.166,256.431 49.657,256.431 49.657,255.948 50.158,255.948 50.654,255.948 
	50.654,255.439 51.156,255.439 51.156,254.943 51.647,254.943 51.647,254.458 51.647,253.939 "/>
<polygon fill="#3D83A3" points="74.185,253.939 73.685,253.939 73.195,253.939 72.692,253.939 72.195,253.939 71.694,253.939 
	71.204,253.939 70.701,253.939 70.206,253.939 69.705,253.939 69.214,253.939 68.711,253.939 68.215,253.939 68.215,254.458 
	68.215,254.943 68.711,254.943 68.711,255.439 69.214,255.439 69.214,255.948 69.705,255.948 70.206,255.948 70.206,256.431 
	70.701,256.431 71.204,256.431 71.694,256.431 72.195,256.431 72.692,256.431 72.692,255.948 73.195,255.948 73.685,255.948 
	73.685,255.439 74.185,255.439 74.185,254.943 74.683,254.943 74.683,254.458 74.683,253.939 "/>
<polygon fill="#3D83A3" points="445.119,253.939 444.617,253.939 444.114,253.939 443.632,253.939 443.109,253.939 442.626,253.939 
	442.133,253.939 441.621,253.939 441.139,253.939 440.642,253.939 440.134,253.939 439.649,253.939 439.131,253.939 
	439.131,254.458 439.131,254.943 439.649,254.943 439.649,255.439 440.134,255.439 440.134,255.948 440.642,255.948 
	441.139,255.948 441.139,256.431 441.621,256.431 442.133,256.431 442.626,256.431 443.109,256.431 443.632,256.431 
	443.632,255.948 444.114,255.948 444.617,255.948 444.617,255.439 445.119,255.439 445.119,254.943 445.603,254.943 
	445.603,254.458 445.603,253.939 "/>
<polygon fill="#3D83A3" points="468.149,253.939 467.642,253.939 467.158,253.939 466.646,253.939 466.153,253.939 465.67,253.939 
	465.148,253.939 464.665,253.939 464.168,253.939 463.66,253.939 463.178,253.939 462.678,253.939 462.171,253.939 462.171,254.458 
	462.171,254.943 462.678,254.943 462.678,255.439 463.178,255.439 463.178,255.948 463.66,255.948 464.168,255.948 464.168,256.431 
	464.665,256.431 465.148,256.431 465.67,256.431 466.153,256.431 466.646,256.431 466.646,255.948 467.158,255.948 467.642,255.948 
	467.642,255.439 468.149,255.439 468.149,254.943 468.646,254.943 468.646,254.458 468.646,253.939 "/>
<polygon fill="#3D83A3" points="244.007,232.882 243.505,232.882 243.002,232.882 242.519,232.882 242.016,232.882 241.513,232.882 
	241.03,232.882 240.528,232.882 240.026,232.882 239.523,232.882 239.04,232.882 238.538,232.882 238.035,232.882 238.035,233.383 
	238.035,233.876 238.538,233.876 238.538,234.372 239.04,234.372 239.04,234.874 239.523,234.874 240.026,234.874 240.026,235.375 
	240.528,235.375 241.03,235.375 241.513,235.375 242.016,235.375 242.519,235.375 242.519,234.874 243.002,234.874 243.505,234.874 
	243.505,234.372 244.007,234.372 244.007,233.876 244.51,233.876 244.51,233.383 244.51,232.882 "/>
<polygon fill="#3D83A3" points="267.052,232.882 266.528,232.882 266.045,232.882 265.563,232.882 265.041,232.882 264.558,232.882 
	264.035,232.882 263.552,232.882 263.069,232.882 262.548,232.882 262.065,232.882 261.58,232.882 261.059,232.882 261.059,233.383 
	261.059,233.876 261.58,233.876 261.58,234.372 262.065,234.372 262.065,234.874 262.548,234.874 263.069,234.874 263.069,235.375 
	263.552,235.375 264.035,235.375 264.558,235.375 265.041,235.375 265.563,235.375 265.563,234.874 266.045,234.874 
	266.528,234.874 266.528,234.372 267.052,234.372 267.052,233.876 267.534,233.876 267.534,233.383 267.534,232.882 "/>
<g>
	<rect x="403.672" y="261.818" fill="#7FBCD7" width="107.801" height="249.654"/>
	<polygon fill="#7FBCD7" points="368.5,261.818 403.672,261.818 403.672,191.821 368.086,191.821 368.086,511.473 368.5,511.473 	
		"/>
	<rect x="368.5" y="261.818" fill="#7FBCD7" width="35.172" height="249.654"/>
	<rect y="261.216" fill="#7FBCD7" width="108.768" height="250.257"/>
	<polygon fill="#7FBCD7" points="143.879,511.473 143.946,511.473 143.946,192.162 108.768,192.162 108.768,261.216 
		143.879,261.216 	"/>
	<rect x="108.768" y="261.216" fill="#7FBCD7" width="35.111" height="250.257"/>
	<line fill="#FFFFFF" x1="368.086" y1="511.473" x2="143.946" y2="511.473"/>
	<line fill="#FFFFFF" x1="511.473" y1="511.473" x2="403.672" y2="511.473"/>
	<line fill="#FFFFFF" x1="368.5" y1="511.473" x2="368.086" y2="511.473"/>
	<line fill="#FFFFFF" x1="403.672" y1="511.473" x2="368.5" y2="511.473"/>
	<line fill="#FFFFFF" x1="108.768" y1="511.473" x2="0" y2="511.473"/>
	<line fill="#FFFFFF" x1="143.946" y1="511.473" x2="143.879" y2="511.473"/>
	<line fill="#FFFFFF" x1="143.879" y1="511.473" x2="108.768" y2="511.473"/>
	<g>
		<rect x="399.987" y="256.44" fill="#4AA0C7" width="111.485" height="2.984"/>
	</g>
	<g>
		<rect y="256.393" fill="#4AA0C7" width="112.343" height="2.97"/>
	</g>
</g>
</svg>
