<?xml version="1.0" encoding="utf-8"?>
<!-- Generator: Adobe Illustrator 16.0.0, SVG Export Plug-In . SVG Version: 6.00 Build 0)  -->
<!DOCTYPE svg PUBLIC "-//W3C//DTD SVG 1.1//EN" "http://www.w3.org/Graphics/SVG/1.1/DTD/svg11.dtd">
<svg version="1.1"
	 id="svg8" xmlns:cc="http://creativecommons.org/ns#" xmlns:dc="http://purl.org/dc/elements/1.1/" xmlns:inkscape="http://www.inkscape.org/namespaces/inkscape" xmlns:rdf="http://www.w3.org/1999/02/22-rdf-syntax-ns#" xmlns:sodipodi="http://sodipodi.sourceforge.net/DTD/sodipodi-0.dtd" xmlns:svg="http://www.w3.org/2000/svg"
	 xmlns="http://www.w3.org/2000/svg" xmlns:xlink="http://www.w3.org/1999/xlink" x="0px" y="0px" width="511.473px"
	 height="511.473px" viewBox="0 0 511.473 511.473" enable-background="new 0 0 511.473 511.473" xml:space="preserve">
<rect fill="#FFFFFF" width="511.473" height="511.475"/>
<g id="Icon">
	<polygon id="Chair" fill="#4AA0C7" points="265.832,475.506 115.987,402.166 116.558,309.34 188.309,274.695 188.309,190.18 
		300.771,164.03 410.797,221.919 412.094,400.319 	"/>
	<polygon id="Player" fill="#3D83A3" points="280.288,430.93 217.531,426.082 218.57,376.732 229.351,350.742 225.672,348.384 
		138.494,400.897 108.303,381.442 99.378,335.511 210.966,276.694 211.162,248.361 185.351,292.069 149.149,283.359 
		124.772,256.572 196.78,134.418 220.126,139.734 229.136,38.971 347.939,47.993 336.135,155.047 366.707,153.341 380.7,177.949 
		338.509,323.484 306.694,321.692 	"/>
</g>
</svg>
