<?xml version="1.0" encoding="utf-8"?>
<!-- Generator: Adobe Illustrator 16.0.0, SVG Export Plug-In . SVG Version: 6.00 Build 0)  -->
<!DOCTYPE svg PUBLIC "-//W3C//DTD SVG 1.1//EN" "http://www.w3.org/Graphics/SVG/1.1/DTD/svg11.dtd">
<svg version="1.1"
	 id="relocators" xmlns:cc="http://creativecommons.org/ns#" xmlns:dc="http://purl.org/dc/elements/1.1/" xmlns:inkscape="http://www.inkscape.org/namespaces/inkscape" xmlns:rdf="http://www.w3.org/1999/02/22-rdf-syntax-ns#" xmlns:sodipodi="http://sodipodi.sourceforge.net/DTD/sodipodi-0.dtd" xmlns:svg="http://www.w3.org/2000/svg" inkscape:version="1.0.2-2 (e86c870879, 2021-01-15)" sodipodi:docname="relocators2.svg"
	 xmlns="http://www.w3.org/2000/svg" xmlns:xlink="http://www.w3.org/1999/xlink" x="0px" y="0px" width="511.473px"
	 height="511.473px" viewBox="0 0 511.473 511.473" enable-background="new 0 0 511.473 511.473" xml:space="preserve">
<rect fill="#FFFFFF" width="511.473" height="511.473"/>
<sodipodi:namedview  inkscape:window-maximized="1" inkscape:current-layer="relocators" inkscape:window-y="-8" inkscape:window-height="1017" inkscape:window-width="1920" inkscape:window-x="-8" inkscape:pageopacity="0" inkscape:pageshadow="2" inkscape:cx="255.7365" inkscape:cy="255.737" objecttolerance="10" guidetolerance="10" showgrid="false" inkscape:zoom="1.6168955" pagecolor="#ffffff" id="namedview332" gridtolerance="10" bordercolor="#666666" borderopacity="1">
	</sodipodi:namedview>
<g id="g321">
	<path id="circle252" fill="#A1CEE2" d="M408.683,215.439c40.722,0,73.734,32.997,73.734,73.719
		c0,40.722-33.013,73.737-73.734,73.737s-73.737-33.016-73.737-73.737C334.945,248.436,367.961,215.439,408.683,215.439z"/>
	<g id="g262">
		<polygon id="polygon254" fill="#A1CEE2" points="449.502,227.754 302.045,131.392 302.045,188.597 255.855,207.922 
			354.542,339.224 		"/>
		<polygon id="polygon256" fill="#A1CEE2" points="255.625,111.967 209.434,131.292 209.434,131.392 255.739,112.015 		"/>
		<polygon id="polygon258" fill="#A1CEE2" points="302.045,131.292 255.855,111.967 255.739,112.015 302.045,131.392 		"/>
		<polygon id="polygon260" fill="#A1CEE2" points="209.434,131.392 209.434,131.392 61.987,227.754 156.926,339.224 
			255.855,207.922 209.434,188.597 		"/>
	</g>
	<path id="circle264" fill="#A1CEE2" d="M102.791,215.439c40.722,0,73.738,32.997,73.738,73.719
		c0,40.722-33.016,73.737-73.738,73.737c-40.716,0-73.73-33.016-73.73-73.737C29.06,248.436,62.075,215.439,102.791,215.439z"/>
	<g id="g279">
		<g id="layer1_1_" inkscape:label="Layer 1" inkscape:groupmode="layer">
			<path id="path236_1_" fill="#FFFFFF" d="M62.232,270.993l6.125,64.17l68.303,0.16l6.427-64.482L62.232,270.993z"/>
			<path id="path238_7_" fill="#FFFFFF" d="M75.818,250.787l-13.166,19.514l80.355-0.191l-15.542-19.774L75.818,250.787z"/>
			<path id="path238_6_" fill="#3D83A3" d="M98.5,257.473l-2.145,2.787l13.103-0.021l-2.535-2.854L98.5,257.473z"/>
		</g>
		<g id="layer2_1_" inkscape:label="Layer 2" inkscape:groupmode="layer">
			<path id="path240_1_" sodipodi:nodetypes="ccccc" fill="#A1CEE2" d="M87.526,245.99l29.279,0.029l0.032,24.42l-29.281,0.121
				L87.526,245.99z"/>
			<path id="path600_1_" fill="#A1CEE2" d="M113.114,239.854c-0.645,0-2.885,0-8.267,0.01l0.168,1.056h8.919l-0.471-1.065
				C113.472,239.854,113.472,239.854,113.114,239.854L113.114,239.854z M104.435,239.864c-1.354,0-3.533,0.011-5.322,0.011
				l-0.134,1.046h5.624L104.435,239.864z M98.71,239.874c-2.482,0.029-4.507,0.029-7.945,0.04l-0.342,0.996h8.169L98.71,239.874z
				 M90.27,241.342l-0.523,1.549h8.583l0.199-1.549H90.27z M98.932,241.342l-0.199,1.549h6.165l-0.241-1.549H98.932z
				 M105.085,241.342l0.245,1.549h9.459l-0.661-1.549H105.085z M89.618,243.284l-0.471,1.427l8.958-0.04l0.171-1.387H89.618z
				 M98.681,243.284l-0.17,1.387l17.026-0.041l-0.575-1.346h-9.572l0.2,1.357h-0.415l-0.207-1.329L98.681,243.284z"/>
			<path id="rect1635_1_" fill="#FFFFFF" d="M104.404,239.721l0.203,1.2h-5.625l0.142-1.156h-0.414l-0.141,1.156H89.94v0.422h8.57
				l-0.192,1.549h-8.81v0.422h8.754l-0.168,1.398h0.415l0.171-1.398h6.287l0.206,1.328h0.417l-0.201-1.354h9.637v-0.406h-9.709
				l-0.251-1.548h9.161v-0.423H105l-0.198-1.217L104.404,239.721z M98.932,241.342h5.732l0.252,1.549h-6.162L98.932,241.342z"/>
			<path id="path238_5_" fill="#FFFFFF" d="M114.925,238.969l-25.619,0.03l-2.736,5.934l0.032,27.107l31.52-0.084v-26.783
				L114.925,238.969z M113.114,239.854c0.356,0,0.356,0,0.356,0l2.066,4.776l-26.39,0.081l1.606-4.787
				C107.787,239.843,112.048,239.843,113.114,239.854L113.114,239.854z M88.659,246.732l27.531,0.01l0.061,22.692l-27.571,0.109
				L88.659,246.732z"/>
		</g>
		<g id="layer3_1_">
			<path id="path238_4_" fill="#FFFFFF" d="M75.818,250.787l-13.166,19.514l80.355-0.191l-15.542-19.774l-9.353,0.081v9.897
				l-31.553,0.361v-9.988L75.818,250.787z"/>
			<polygon id="polygon276" fill="#A1CEE2" points="143.087,270.832 62.232,270.993 62.652,270.301 143.007,270.118 			"/>
		</g>
	</g>
	<g id="g283">
		<path id="path281" fill="#4AA0C7" d="M255.855,111.967l-46.421,19.424v2.973v51.145v2.975l46.421,19.438l46.189-19.326v-57.305
			L255.855,111.967z M253.632,202.146l-36.172-15.149l36.172-15.137V202.146z M253.632,167.021l-39.729,16.621v-47.404
			l39.729,16.628V167.021z M253.632,148.02l-36.172-15.142l36.172-15.133V148.02z M258.115,117.744l36.139,15.133l-36.139,15.142
			V117.744z M258.115,202.146v-30.287l36.139,15.137L258.115,202.146z M258.115,167.021v-14.155l39.713-16.628v47.404
			L258.115,167.021z"/>
	</g>
	<g id="g298">
		<g id="layer1_2_" inkscape:label="Layer 1" inkscape:groupmode="layer">
			<path id="path236_2_" fill="#3D83A3" d="M368.389,270.844l6.422,64.482l68.313-0.162l6.123-64.168L368.389,270.844z"/>
			<path id="path238_8_" fill="#3D83A3" d="M384.021,250.334l-15.55,19.774l80.356,0.191l-13.179-19.514L384.021,250.334z"/>
			<path id="path238_3_" fill="#3D83A3" d="M404.541,257.385l-2.517,2.855l13.104,0.021l-2.148-2.787L404.541,257.385z"/>
		</g>
		<g id="layer2_2_" inkscape:label="Layer 2" inkscape:groupmode="layer">
			<path id="path240_2_" sodipodi:nodetypes="ccccc" fill="#A1CEE2" d="M423.921,270.56l-29.26-0.121l0.021-24.419l29.26-0.029
				L423.921,270.56z"/>
			<path id="path600_2_" fill="#A1CEE2" d="M398.365,239.854c-0.354,0-0.354,0-0.354,0l-0.482,1.065h8.921l0.17-1.055
				C401.246,239.854,399.025,239.854,398.365,239.854L398.365,239.854z M406.886,240.919h5.619l-0.142-1.045
				c-1.78,0-3.98-0.011-5.312-0.011L406.886,240.919z M412.887,240.91h8.175l-0.341-0.996c-3.448-0.01-5.466-0.01-7.963-0.04
				L412.887,240.91z M412.941,241.342l0.213,1.549h8.586l-0.521-1.549H412.941z M406.81,241.342l-0.228,1.549h6.156l-0.192-1.549
				H406.81z M397.351,241.342l-0.673,1.549h9.475l0.247-1.549H397.351z M413.207,243.284l0.172,1.387l8.954,0.04l-0.479-1.427
				H413.207z M406.515,243.312l-0.222,1.329h-0.404l0.2-1.357h-9.583l-0.564,1.346l17.033,0.041l-0.172-1.387L406.515,243.312z"/>
			<path id="rect1635_2_" fill="#3D83A3" d="M406.676,239.693l-0.211,1.217h-9.206v0.423h9.153l-0.246,1.548h-9.713v0.409h9.635
				l-0.199,1.352h0.404l0.222-1.328h6.288l0.171,1.398h0.417l-0.17-1.398h8.749v-0.422h-8.805l-0.192-1.549h8.571v-0.422h-8.636
				l-0.15-1.156h-0.403l0.15,1.156h-5.621l0.198-1.2L406.676,239.693z M412.726,242.891h-6.155l0.231-1.549h5.744L412.726,242.891z"
				/>
			<path id="path238_2_" fill="#3D83A3" d="M393.346,245.175v26.783l31.547,0.084l0.023-27.107l-2.742-5.934l-25.604-0.03
				L393.346,245.175z M398.365,239.854c1.065-0.011,5.313-0.011,22.366,0.069l1.6,4.787l-26.391-0.081l2.071-4.776
				C398.012,239.854,398.012,239.854,398.365,239.854L398.365,239.854z M422.807,269.544l-27.581-0.109l0.051-22.69l27.551-0.01
				L422.807,269.544z"/>
		</g>
		<g id="layer3_2_">
			<path id="path238_1_" fill="#3D83A3" d="M424.926,250.686v9.989l-31.57-0.363v-9.896l-9.335-0.081l-15.55,19.773l80.356,0.191
				l-13.179-19.513L424.926,250.686z"/>
			<polygon id="polygon295" fill="#A1CEE2" points="368.472,270.118 448.829,270.301 449.247,270.993 368.389,270.832 			"/>
		</g>
	</g>
	<g id="g313">
		<g id="layer1_3_" inkscape:label="Layer 1" inkscape:groupmode="layer">
			<path id="path236_3_" fill="#A1CEE2" d="M230.493,147.274l3.83,40.059l42.633,0.1l4.01-40.25L230.493,147.274z"/>
			<path id="path238_12_" fill="#A1CEE2" d="M238.975,134.649l-8.221,12.191l50.176-0.128l-9.688-12.351L238.975,134.649z"/>
			<path id="path238_11_" fill="#A1CEE2" d="M253.135,138.815l-1.33,1.742l8.167-0.014l-1.579-1.76L253.135,138.815z"/>
		</g>
		<g id="layer2_3_" inkscape:label="Layer 2" inkscape:groupmode="layer">
			<path id="path240_3_" sodipodi:nodetypes="ccccc" fill="#FFFFFF" d="M246.292,131.653l18.296,0.012l0.013,15.259l-18.297,0.057
				L246.292,131.653z"/>
			<path id="path600_3_" fill="#FFFFFF" d="M262.253,127.825c-0.392,0-1.787,0-5.141,0.006l0.084,0.662h5.575l-0.271-0.668
				C262.5,127.825,262.5,127.825,262.253,127.825L262.253,127.825z M256.834,127.83c-0.835,0-2.198,0.006-3.303,0.006l-0.084,0.656
				h3.504L256.834,127.83z M253.274,127.837c-1.553,0.01-2.81,0.01-4.963,0.021l-0.203,0.628h5.09L253.274,127.837z
				 M247.993,128.752l-0.314,0.962h5.356l0.133-0.962H247.993z M253.404,128.752l-0.117,0.962h3.848l-0.156-0.962H253.404z
				 M257.265,128.752l0.159,0.962h5.878l-0.401-0.962H257.265z M247.599,129.971l-0.306,0.88l5.595-0.014l0.122-0.867
				L247.599,129.971L247.599,129.971z M253.264,129.971l-0.12,0.867l10.633-0.037l-0.354-0.831h-5.971l0.141,0.835h-0.285
				l-0.136-0.83L253.264,129.971z"/>
			<path id="rect1635_3_" fill="#A1CEE2" d="M256.817,127.732l0.136,0.761h-3.503l0.087-0.723h-0.262l-0.086,0.723h-5.395v0.261
				h5.35l-0.116,0.962h-5.501v0.261h5.476l-0.122,0.874h0.263l0.12-0.874h3.907l0.136,0.831h0.287l-0.142-0.836h6.003v-0.262h-6.038
				l-0.159-0.961h5.695v-0.262h-5.764l-0.099-0.766L256.817,127.732z M253.404,128.752h3.582l0.159,0.962h-3.851L253.404,128.752z"
				/>
			<path id="path238_10_" fill="#A1CEE2" d="M263.403,127.27l-15.996,0.021L245.691,131l0.014,16.925l19.679-0.071v-16.709
				L263.403,127.27z M262.253,127.825c0.247,0,0.247,0,0.247,0l1.276,2.977l-16.484,0.05l1.012-2.984
				C258.929,127.813,261.615,127.813,262.253,127.825L262.253,127.825z M246.996,132.113l17.177,0.006l0.068,14.185l-17.232,0.052
				L246.996,132.113z"/>
		</g>
		<g id="layer3_3_">
			<path id="path238_9_" fill="#A1CEE2" d="M238.975,134.649l-8.221,12.191l50.176-0.128l-9.688-12.351l-5.864,0.057v6.177
				l-19.696,0.229v-6.234L238.975,134.649z"/>
			<polygon id="polygon310" fill="#FFFFFF" points="280.965,147.175 230.493,147.274 230.754,146.84 280.93,146.724 			"/>
		</g>
	</g>
	<polygon id="polygon315" fill="#4AA0C7" points="253.632,189.548 253.632,152.867 230.99,143.386 233.122,139.435 255.857,148.927 
		279.726,138.967 280.742,143.385 258.115,152.867 258.115,191.528 	"/>
	<polygon id="polygon317" fill="#4AA0C7" points="188.539,205.418 165.839,204.962 173.899,213.35 149.48,236.785 155.614,243.17 
		180.031,219.736 188.083,228.123 	"/>
	<polygon id="polygon319" fill="#4AA0C7" points="360.37,241.436 337.677,241.909 345.727,233.521 321.305,210.072 327.433,203.684 
		351.857,227.131 359.907,218.749 	"/>
</g>
</svg>
