<?xml version="1.0" encoding="utf-8"?>
<!-- Generator: Adobe Illustrator 16.0.0, SVG Export Plug-In . SVG Version: 6.00 Build 0)  -->
<!DOCTYPE svg PUBLIC "-//W3C//DTD SVG 1.1//EN" "http://www.w3.org/Graphics/SVG/1.1/DTD/svg11.dtd">
<svg version="1.1"
	 id="undead_players" xmlns:cc="http://creativecommons.org/ns#" xmlns:dc="http://purl.org/dc/elements/1.1/" xmlns:inkscape="http://www.inkscape.org/namespaces/inkscape" xmlns:rdf="http://www.w3.org/1999/02/22-rdf-syntax-ns#" xmlns:sodipodi="http://sodipodi.sourceforge.net/DTD/sodipodi-0.dtd" xmlns:svg="http://www.w3.org/2000/svg"
	 xmlns="http://www.w3.org/2000/svg" xmlns:xlink="http://www.w3.org/1999/xlink" x="0px" y="0px" width="511.473px"
	 height="511.473px" viewBox="0 0 511.473 511.473" enable-background="new 0 0 511.473 511.473" xml:space="preserve">
<rect fill="#FFFFFF" width="511.473" height="511.473"/>
<g>
	<g id="Icon">
		<g id="layer3_1_" inkscape:label="Layer 2" inkscape:groupmode="layer">
			<g id="g4701" transform="matrix(1.2062044,0,0,1.2062044,-102.75989,2.2195706)">
				<rect id="rect4162" x="165.694" y="22.658" fill="#4AA0C7" width="263.032" height="36.753"/>
				<rect id="rect4175" x="187.562" y="30.576" fill="#FFFFFF" width="3.114" height="18.062"/>
				<rect id="rect4175-8" x="199.596" y="30.546" fill="#FFFFFF" width="3.111" height="18.077"/>
				<rect id="rect4175-8-7" x="190.671" y="48.631" fill="#FFFFFF" width="8.932" height="3.108"/>
				<rect id="rect4175-8-7-6" x="205.607" y="36.445" fill="#FFFFFF" width="12.203" height="3.107"/>
				<rect id="rect4175-8-1" x="205.607" y="36.557" fill="#FFFFFF" width="3.109" height="15.111"/>
				<rect id="rect4175-8-1-4" x="217.815" y="39.54" fill="#FFFFFF" width="3.105" height="12.092"/>
				<rect id="rect4175-8-1-4-7" x="223.677" y="39.54" fill="#FFFFFF" width="3.106" height="9.079"/>
				<path id="rect4175-8-1-4-0" sodipodi:nodetypes="cccccccccccc" inkscape:connector-curvature="0" fill="#FFFFFF" d="
					M235.758,30.464h3.114V51.56h-3.084l-9.013,0.011v-2.967h8.991v-5.999l-2.933,0.009V39.54l2.933,0.005L235.758,30.464z"/>
				<rect id="rect4175-8-1-4-8" x="226.784" y="36.425" fill="#FFFFFF" width="6.045" height="3.115"/>
				<rect id="rect4175-8-1-4-7-7" x="277.983" y="39.49" fill="#FFFFFF" width="3.114" height="9.086"/>
				<path id="rect4175-8-1-4-0-2" sodipodi:nodetypes="cccccccccccc" inkscape:connector-curvature="0" fill="#FFFFFF" d="
					M290.064,30.422h3.114v21.101h-3.078l-9.005,0.01v-2.966h8.992v-6.002l-2.933,0.014v-3.079l2.933,0.009L290.064,30.422z"/>
				<rect id="rect4175-8-1-4-8-7" x="281.096" y="36.384" fill="#FFFFFF" width="6.052" height="3.106"/>
				<rect id="rect4175-8-1-4-8-9" x="244.854" y="36.412" fill="#FFFFFF" width="9.066" height="3.112"/>
				<rect id="rect4175-8-1-4-8-4" x="262.924" y="36.482" fill="#FFFFFF" width="9.175" height="3.115"/>
				<rect id="rect4175-8-1-4-8-73" x="259.901" y="45.55" fill="#FFFFFF" width="3.134" height="3.032"/>
				<rect id="rect4175-8-1-4-8-2" x="244.827" y="48.534" fill="#FFFFFF" width="12.169" height="3.109"/>
				<path id="rect4175-8-1-4-1" sodipodi:nodetypes="ccccccccccc" inkscape:connector-curvature="0" fill="#FFFFFF" d="
					M241.74,39.518h3.11v2.902l9.05,0.019l0.012-2.916l3.066-0.006l-0.014,6.107l-12.089,0.008l-0.025,2.915h-3.11V39.518
					L241.74,39.518z"/>
				<path id="rect4175-8-1-4-1-9" sodipodi:nodetypes="cccccccccccc" inkscape:connector-curvature="0" fill="#FFFFFF" d="
					M275.098,39.438h-3.114v2.908h-8.949l0.004,3.221l8.928-0.019l0.026,3.052l-8.958-0.009v3.113h12.068l-0.021-3.032
					L275.098,39.438z"/>
				<rect id="rect4175-8-1-4-8-4-4" x="341.48" y="36.412" fill="#FFFFFF" width="9.16" height="3.112"/>
				<rect id="rect4175-8-1-4-8-73-5" x="338.438" y="45.485" fill="#FFFFFF" width="3.127" height="3.033"/>
				<path id="rect4175-8-1-4-1-9-05" sodipodi:nodetypes="cccccccccccc" inkscape:connector-curvature="0" fill="#FFFFFF" d="
					M353.641,39.365h-3.114v2.911h-8.964l0.006,3.215l8.942-0.015l0.024,3.053l-8.973-0.013v3.115h12.081l-0.013-3.032
					L353.641,39.365z"/>
				<rect id="rect4175-8-1-4-8-9-0" x="377.808" y="36.264" fill="#FFFFFF" width="9.08" height="3.108"/>
				<rect id="rect4175-8-1-4-8-2-3" x="377.794" y="48.392" fill="#FFFFFF" width="12.182" height="3.108"/>
				<path id="rect4175-8-1-4-1-98" sodipodi:nodetypes="ccccccccccc" inkscape:connector-curvature="0" fill="#FFFFFF" d="
					M374.712,39.365h3.096v2.911l9.068,0.013l0.006-2.916l3.068-0.007l-0.023,6.112l-12.071,0.005l-0.048,2.92h-3.091v-9.038
					H374.712z"/>
				<rect id="rect4175-8-1-0" x="311.451" y="30.427" fill="#FFFFFF" width="3.115" height="21.167"/>
				<rect id="rect4175-8-1-0-8" x="329.496" y="30.437" fill="#FFFFFF" width="3.092" height="18.188"/>
				<rect id="rect4175-8-1-0-9" x="368.774" y="36.491" fill="#FFFFFF" width="3.114" height="15.112"/>
				<rect id="rect4175-8-1-0-91" x="356.663" y="36.55" fill="#FFFFFF" width="3.114" height="9.107"/>
				<rect id="rect4175-8-1-0-91-6" x="359.764" y="45.623" fill="#FFFFFF" width="9.107" height="3.113"/>
				<rect id="rect4175-8-1-0-91-9" x="356.663" y="51.599" fill="#FFFFFF" width="12.116" height="3.11"/>
				<rect id="rect4175-8-1-0-8-8" x="392.761" y="36.384" fill="#FFFFFF" width="3.115" height="15.138"/>
				<rect id="rect4175-8-1-0-8-1" x="394.337" y="39.438" fill="#FFFFFF" width="4.62" height="3.11"/>
				<rect id="rect4175-8-1-0-8-2" x="398.938" y="36.346" fill="#FFFFFF" width="5.953" height="3.111"/>
				<rect id="rect4175-8-1-0-8-2-0" x="404.877" y="39.438" fill="#FFFFFF" width="3.128" height="3.11"/>
				<rect id="rect4175-8-1-0-8-2-0-3" x="332.578" y="48.608" fill="#FFFFFF" width="3.126" height="3.114"/>
				<rect id="rect4175-8-1-0-8-2-0-38" x="323.554" y="33.471" fill="#FFFFFF" width="3.128" height="3.108"/>
				<rect id="rect4175-8-1-0-8-2-0-5" x="314.033" y="30.437" fill="#FFFFFF" width="9.525" height="3.037"/>
				<rect id="rect4175-8-1-0-8-2-0-5-1" x="314.033" y="36.562" fill="#FFFFFF" width="9.525" height="3.04"/>
			</g>
		</g>
	</g>
	<g>
		<polyline fill="#A1CEE2" points="334.518,195.58 334.326,210.444 326.969,211.886 287.297,241.696 275.706,244.935 
			260.51,250.087 242.069,243.768 239.304,241.208 223.645,229.21 221.375,225.015 210.444,221.637 210.471,166.814 
			221.238,166.401 298.392,173.295 332.429,179.314 		"/>
		<polygon fill="#4AA0C7" points="269.435,103.315 193.535,121.155 193.855,177.217 203.751,180.583 203.853,174.783 
			210.443,173.252 210.446,167.717 224.111,171.401 224.277,199.916 244.974,206.129 245.522,177.329 267.094,183.226 
			266.937,197.771 278.412,201.389 315.636,188.498 315.452,202.51 334.472,195.904 334.439,199.922 349.734,203.477 
			352.992,119.988 		"/>
		<polyline fill="#A1CEE2" points="139.27,266.016 143.07,291.1 175.802,303.076 211.995,275.235 215.73,277.873 232.403,267.276 
			223.729,227.412 221.732,225.68 210.399,221.99 210.525,213.468 197.856,209.45 178.696,215.925 		"/>
		<polyline fill="#4AA0C7" points="115.111,113.128 122.959,114.721 143.173,122.967 140.652,133.198 146.939,135.57 
			144.593,145.796 150.468,148.037 148.118,158.581 154.646,160.647 152.002,170.872 158.053,173.24 155.489,183.282 
			161.794,185.279 159.193,194.769 165.441,196.91 162.846,206.645 173.294,209.794 175.496,199.859 194.338,205.45 
			189.204,224.102 183.456,223.004 178.771,241.575 173.199,240.854 170.281,249.655 159.835,257.381 155.876,257.304 
			153.71,267.044 141.177,264.452 138.555,274.253 125.208,272.095 118.546,269.208 124.001,249.159 130.657,250.666 
			132.94,240.552 138.995,242.586 141.444,232.977 135.335,230.921 138.091,220.919 131.384,218.723 134.16,209.766 
			127.398,207.351 129.798,197.653 123.332,195.461 125.94,185.39 119.56,183.265 122.564,172.694 115.174,170.093 117.931,160.401 
			111.044,158.139 114.316,147.677 106.998,144.61 		"/>
		<polyline fill="#4AA0C7" points="210.438,183.055 181.697,202.456 192.212,213.7 197.807,210.372 210.522,213.946 		"/>
		<g>
			<path fill="#4AA0C7" d="M367.545,220.797l-42.276-12.681l-40.719,25.811l-0.236,2.266l-2.206,1.31l-5.645,3.048l-15.185-4.778
				l-0.249,11.324l-20.417-7.078l-0.031-9.462l-30.15-9.991l-0.038,1.972l11.207,3.614l-0.943,43.253l-8.663,5.833l0.107,38.811
				l7.078,2.524l0.063,4.377l0.899,0.499l-0.201,21.063l1.111,0.432l0.868,48.082l-6.375,3.063l0.134,54.076l73.405,37.761
				l38.354-26.604l1.545-54.774l-6.729-2.75l2.112-73.412l7.766-4.162l0.954-14.992l39.795-25.03L367.545,220.797z M258.745,335.216
				l-31.765-13.795l-7.271-43.505l62.097-33.635l10.783,3.364l9.992-6.048l18.526,5.814l5.082,46.306L258.745,335.216z"/>
			<polygon fill="#A1CEE2" points="302.582,241.596 292.59,247.644 281.807,244.28 219.71,277.916 226.98,321.421 258.745,335.216 
				326.189,293.717 321.107,247.411 			"/>
		</g>
		<polyline fill="#4AA0C7" points="222.502,226.03 210.399,221.99 210.391,222.765 222.493,226.628 		"/>
		<polyline fill="#FFFFFF" points="267.008,193.41 251.346,189.602 251.197,200.677 268.582,205.783 268.661,198.316 
			266.937,197.771 		"/>
		<polyline fill="#FFFFFF" points="224.16,181.909 218.152,180.283 218.408,191.354 224.231,193.143 		"/>
	</g>
</g>
</svg>
