<?xml version="1.0" encoding="UTF-8" standalone="no"?>
<!-- Created with Inkscape (http://www.inkscape.org/) -->

<svg
   xmlns:dc="http://purl.org/dc/elements/1.1/"
   xmlns:cc="http://creativecommons.org/ns#"
   xmlns:rdf="http://www.w3.org/1999/02/22-rdf-syntax-ns#"
   xmlns:svg="http://www.w3.org/2000/svg"
   xmlns="http://www.w3.org/2000/svg"
   xmlns:sodipodi="http://sodipodi.sourceforge.net/DTD/sodipodi-0.dtd"
   xmlns:inkscape="http://www.inkscape.org/namespaces/inkscape"
   width="210mm"
   height="297mm"
   viewBox="0 0 744.09448819 1052.3622047"
   id="svg2"
   version="1.1"
   inkscape:version="0.91 r13725"
   sodipodi:docname="undead_players_2.svg"
   enable-background="new">
  <defs
     id="defs4" />
  <sodipodi:namedview
     id="base"
     pagecolor="#ffffff"
     bordercolor="#666666"
     borderopacity="1.0"
     inkscape:pageopacity="0.0"
     inkscape:pageshadow="2"
     inkscape:zoom="0.70710678"
     inkscape:cx="-254.65536"
     inkscape:cy="554.13467"
     inkscape:document-units="px"
     inkscape:current-layer="layer3"
     showgrid="false"
     inkscape:window-width="1920"
     inkscape:window-height="1017"
     inkscape:window-x="-8"
     inkscape:window-y="-8"
     inkscape:window-maximized="1"
     inkscape:snap-global="false" />
  <metadata
     id="metadata7">
    <rdf:RDF>
      <cc:Work
         rdf:about="">
        <dc:format>image/svg+xml</dc:format>
        <dc:type
           rdf:resource="http://purl.org/dc/dcmitype/StillImage" />
        <dc:title></dc:title>
      </cc:Work>
    </rdf:RDF>
  </metadata>
  <g
     inkscape:label="Layer 1"
     inkscape:groupmode="layer"
     id="layer1"
     style="opacity:1;">
    <g
       transform="translate(-1402.7388,-50.60915)"
       id="g4177" />
    <a
       id="a4378">
      <g
         id="g4323">
        <g
           id="g4384" />
      </g>
    </a>
    <a
       transform="translate(554,0)"
       id="a4357" />
  </g>
  <g
     inkscape:groupmode="layer"
     id="layer3"
     inkscape:label="Layer 2">
    <g
       id="g4701"
       transform="matrix(1.2062044,0,0,1.2062044,-102.75989,2.2195706)">
      <rect
         style="opacity:1;fill:#4aa0c7;fill-opacity:1;stroke:none"
         id="rect4162"
         width="452.96249"
         height="63.290653"
         x="165.1684"
         y="139.31129" />
      <rect
         style="opacity:1;fill:#ffffff;fill-opacity:1;stroke:none"
         id="rect4175"
         width="5.3517833"
         height="31.102392"
         x="202.83041"
         y="152.95203" />
      <rect
         style="opacity:1;fill:#ffffff;fill-opacity:1;stroke:none"
         id="rect4175-8"
         width="5.3517833"
         height="31.141455"
         x="223.55466"
         y="152.89975" />
      <rect
         style="opacity:1;fill:#ffffff;fill-opacity:1;stroke:none"
         id="rect4175-8-7"
         width="5.3517833"
         height="15.384613"
         x="184.0451"
         y="-223.5639"
         transform="matrix(0,1,-1,0,0,0)" />
      <rect
         style="opacity:1;fill:#ffffff;fill-opacity:1;stroke:none"
         id="rect4175-8-7-6"
         width="5.3517833"
         height="21.009613"
         x="163.06131"
         y="-254.91328"
         transform="matrix(0,1,-1,0,0,0)" />
      <rect
         style="opacity:1;fill:#ffffff;fill-opacity:1;stroke:none"
         id="rect4175-8-1"
         width="5.3517833"
         height="26.014931"
         x="233.90314"
         y="163.25699" />
      <rect
         style="opacity:1;fill:#ffffff;fill-opacity:1;stroke:none"
         id="rect4175-8-1-4"
         width="5.3517833"
         height="20.827431"
         x="254.91786"
         y="168.38599" />
      <rect
         style="opacity:1;fill:#ffffff;fill-opacity:1;stroke:none"
         id="rect4175-8-1-4-7"
         width="5.3517833"
         height="15.639931"
         x="265.0116"
         y="168.38599" />
      <path
         style="opacity:1;fill:#ffffff;fill-opacity:1;stroke:none"
         d="m 285.8241,152.76099 5.35178,0 0,36.32743 -5.3126,0 -15.5199,0.0221 -0.004,-5.1095 15.48438,7.2e-4 0,-10.33488 -5.05469,0.0148 0,-5.29994 5.04688,0.0107 z"
         id="rect4175-8-1-4-0"
         inkscape:connector-curvature="0"
         sodipodi:nodetypes="cccccccccccc" />
      <rect
         style="opacity:1;fill:#ffffff;fill-opacity:1;stroke:none"
         id="rect4175-8-1-4-8"
         width="5.3517833"
         height="10.419703"
         x="163.02875"
         y="-280.78452"
         transform="matrix(0,1,-1,0,0,0)" />
      <rect
         style="opacity:1;fill:#ffffff;fill-opacity:1;stroke:none"
         id="rect4175-8-1-4-7-7"
         width="5.3517833"
         height="15.639931"
         x="358.54288"
         y="168.31244" />
      <path
         style="opacity:1;fill:#ffffff;fill-opacity:1;stroke:none"
         d="m 379.35535,152.68744 5.35178,0 0,36.32743 -5.3126,0 -15.5199,0.0221 -0.004,-5.1095 15.48438,7.2e-4 0,-10.33488 -5.05469,0.0148 0,-5.29994 5.04688,0.0107 z"
         id="rect4175-8-1-4-0-2"
         inkscape:connector-curvature="0"
         sodipodi:nodetypes="cccccccccccc" />
      <rect
         style="opacity:1;fill:#ffffff;fill-opacity:1;stroke:none"
         id="rect4175-8-1-4-8-7"
         width="5.3517833"
         height="10.419703"
         x="162.9552"
         y="-374.31577"
         transform="matrix(0,1,-1,0,0,0)" />
      <rect
         style="opacity:1;fill:#ffffff;fill-opacity:1;stroke:none"
         id="rect4175-8-1-4-8-9"
         width="5.3517833"
         height="15.607203"
         x="162.99881"
         y="-317.08484"
         transform="matrix(0,1,-1,0,0,0)" />
      <rect
         style="opacity:1;fill:#ffffff;fill-opacity:1;stroke:none"
         id="rect4175-8-1-4-8-4"
         width="5.3517833"
         height="15.794703"
         x="163.12381"
         y="-348.39734"
         transform="matrix(0,1,-1,0,0,0)" />
      <rect
         style="opacity:1;fill:#ffffff;fill-opacity:1;stroke:none"
         id="rect4175-8-1-4-8-73"
         width="5.2132835"
         height="5.3884525"
         x="178.74881"
         y="-332.79187"
         transform="matrix(0,1,-1,0,0,0)" />
      <rect
         style="opacity:1;fill:#ffffff;fill-opacity:1;stroke:none"
         id="rect4175-8-1-4-8-2"
         width="5.3517833"
         height="20.950953"
         x="183.87381"
         y="-322.39734"
         transform="matrix(0,1,-1,0,0,0)" />
      <path
         style="opacity:1;fill:#ffffff;fill-opacity:1;stroke:none"
         d="m 296.12381,168.34558 5.35178,0 0,5.001 15.5959,0.0249 0.0126,-5.02638 5.27539,-0.01 -0.0108,10.52136 -20.82886,0.0131 -0.0442,5.0222 -5.35178,0 z"
         id="rect4175-8-1-4-1"
         inkscape:connector-curvature="0"
         sodipodi:nodetypes="ccccccccccc" />
      <path
         style="opacity:1;fill:#ffffff;fill-opacity:1;stroke:none"
         d="m 353.55853,168.21193 -5.35178,0 0,5.001 -15.42209,0.004 0.007,5.54967 15.37036,-0.0307 0.0575,5.25095 -15.44143,-0.0153 0.002,5.36671 20.78928,0 -0.0267,-5.22215 z"
         id="rect4175-8-1-4-1-9"
         inkscape:connector-curvature="0"
         sodipodi:nodetypes="cccccccccccc" />
      <rect
         style="opacity:1;fill:#ffffff;fill-opacity:1;stroke:none"
         id="rect4175-8-1-4-8-4-4"
         width="5.3517833"
         height="15.794703"
         x="163.00497"
         y="-483.66095"
         transform="matrix(0,1,-1,0,0,0)" />
      <rect
         style="opacity:1;fill:#ffffff;fill-opacity:1;stroke:none"
         id="rect4175-8-1-4-8-73-5"
         width="5.2132835"
         height="5.3884525"
         x="178.62997"
         y="-468.05548"
         transform="matrix(0,1,-1,0,0,0)" />
      <path
         style="opacity:1;fill:#ffffff;fill-opacity:1;stroke:none"
         d="m 488.82214,168.0931 -5.35178,0 0,5.001 -15.42209,0.004 0.007,5.54967 15.37036,-0.0307 0.0575,5.25095 -15.44143,-0.0153 0.002,5.36671 20.78928,0 -0.0267,-5.22215 z"
         id="rect4175-8-1-4-1-9-05"
         inkscape:connector-curvature="0"
         sodipodi:nodetypes="cccccccccccc" />
      <rect
         style="opacity:1;fill:#ffffff;fill-opacity:1;stroke:none"
         id="rect4175-8-1-4-8-9-0"
         width="5.3517833"
         height="15.607203"
         x="162.74881"
         y="-546.07422"
         transform="matrix(0,1,-1,0,0,0)" />
      <rect
         style="opacity:1;fill:#ffffff;fill-opacity:1;stroke:none"
         id="rect4175-8-1-4-8-2-3"
         width="5.3517833"
         height="20.950953"
         x="183.62381"
         y="-551.38672"
         transform="matrix(0,1,-1,0,0,0)" />
      <path
         style="opacity:1;fill:#ffffff;fill-opacity:1;stroke:none"
         d="m 525.11323,168.09559 5.35178,0 0,5.001 15.5959,0.0249 0.0126,-5.02638 5.27539,-0.01 -0.0108,10.52136 -20.82886,0.0131 -0.0442,5.0222 -5.35178,0 z"
         id="rect4175-8-1-4-1-98"
         inkscape:connector-curvature="0"
         sodipodi:nodetypes="ccccccccccc" />
      <rect
         style="opacity:1;fill:#ffffff;fill-opacity:1;stroke:none"
         id="rect4175-8-1-0"
         width="5.3517833"
         height="36.444756"
         x="416.19153"
         y="152.70395" />
      <rect
         style="opacity:1;fill:#ffffff;fill-opacity:1;stroke:none"
         id="rect4175-8-1-0-8"
         width="5.3517833"
         height="31.318232"
         x="447.23376"
         y="152.71927" />
      <rect
         style="opacity:1;fill:#ffffff;fill-opacity:1;stroke:none"
         id="rect4175-8-1-0-9"
         width="5.3517833"
         height="26.014931"
         x="514.89502"
         y="163.14911" />
      <rect
         style="opacity:1;fill:#ffffff;fill-opacity:1;stroke:none"
         id="rect4175-8-1-0-91"
         width="5.3517833"
         height="15.673494"
         x="494.0354"
         y="163.23749" />
      <rect
         style="opacity:1;fill:#ffffff;fill-opacity:1;stroke:none"
         id="rect4175-8-1-0-91-6"
         width="5.3517833"
         height="15.673494"
         x="178.87259"
         y="-515.03772"
         transform="matrix(0,1,-1,0,0,0)" />
      <rect
         style="opacity:1;fill:#ffffff;fill-opacity:1;stroke:none"
         id="rect4175-8-1-0-91-9"
         width="5.3517833"
         height="20.860994"
         x="189.1579"
         y="-514.89972"
         transform="matrix(0,1,-1,0,0,0)" />
      <rect
         style="opacity:1;fill:#ffffff;fill-opacity:1;stroke:none"
         id="rect4175-8-1-0-8-8"
         width="5.3517833"
         height="26.068232"
         x="556.1991"
         y="162.95309" />
      <rect
         style="opacity:1;fill:#ffffff;fill-opacity:1;stroke:none"
         id="rect4175-8-1-0-8-1"
         width="5.3517833"
         height="7.9432316"
         x="168.21756"
         y="-566.86224"
         transform="matrix(0,1,-1,0,0,0)" />
      <rect
         style="opacity:1;fill:#ffffff;fill-opacity:1;stroke:none"
         id="rect4175-8-1-0-8-2"
         width="5.3517833"
         height="10.255732"
         x="162.88943"
         y="-577.08881"
         transform="matrix(0,1,-1,0,0,0)" />
      <rect
         style="opacity:1;fill:#ffffff;fill-opacity:1;stroke:none"
         id="rect4175-8-1-0-8-2-0"
         width="5.3517833"
         height="5.3807316"
         x="168.21756"
         y="-582.44037"
         transform="matrix(0,1,-1,0,0,0)" />
      <rect
         style="opacity:1;fill:#ffffff;fill-opacity:1;stroke:none"
         id="rect4175-8-1-0-8-2-0-3"
         width="5.3517833"
         height="5.3807316"
         x="184.00998"
         y="-457.95905"
         transform="matrix(0,1,-1,0,0,0)" />
      <rect
         style="opacity:1;fill:#ffffff;fill-opacity:1;stroke:none"
         id="rect4175-8-1-0-8-2-0-38"
         width="5.3517833"
         height="5.3807316"
         x="157.93631"
         y="-442.40912"
         transform="matrix(0,1,-1,0,0,0)" />
      <rect
         style="opacity:1;fill:#ffffff;fill-opacity:1;stroke:none"
         id="rect4175-8-1-0-8-2-0-5"
         width="5.2267833"
         height="16.411819"
         x="152.71756"
         y="-437.03397"
         transform="matrix(0,1,-1,0,0,0)" />
      <rect
         style="opacity:1;fill:#ffffff;fill-opacity:1;stroke:none"
         id="rect4175-8-1-0-8-2-0-5-1"
         width="5.2267833"
         height="16.411819"
         x="163.26801"
         y="-437.03494"
         transform="matrix(0,1,-1,0,0,0)" />
    </g>
  </g>
</svg>
