<?xml version="1.0" encoding="utf-8"?>
<!-- Generator: Adobe Illustrator 16.0.0, SVG Export Plug-In . SVG Version: 6.00 Build 0)  -->
<!DOCTYPE svg PUBLIC "-//W3C//DTD SVG 1.1//EN" "http://www.w3.org/Graphics/SVG/1.1/DTD/svg11.dtd">
<svg version="1.1" id="shroomites" xmlns="http://www.w3.org/2000/svg" xmlns:xlink="http://www.w3.org/1999/xlink" x="0px" y="0px"
	 width="511.473px" height="511.473px" viewBox="0 0 511.473 511.473" enable-background="new 0 0 511.473 511.473"
	 xml:space="preserve">
<rect fill="#FFFFFF" width="511.473" height="511.473"/>
<g id="Icon">
	<polygon id="floor" fill="#4AA0C7" points="445.159,321.202 377.355,321.202 390.636,367.178 319.046,367.178 310.993,321.669 
		241.777,321.202 242.72,367.178 170.188,367.178 173.977,321.202 37.441,320.246 52.141,282.793 114.718,283.27 122.778,250.087 
		181.088,249.607 182.989,219.742 129.89,219.742 135.578,196.039 287.277,196.516 283.011,174.706 329.001,174.706 
		336.112,196.516 386.845,196.516 399.169,221.644 452.743,221.644 469.333,249.137 411.5,249.137 	"/>
	<g id="mushroom">
		<rect x="250.781" y="250.087" fill="#3D83A3" width="37.918" height="9.484"/>
		<rect x="255.049" y="245.34" fill="#3D83A3" width="28.443" height="18.958"/>
		<rect x="260.258" y="240.604" fill="#3D83A3" width="18.968" height="9.484"/>
		<rect x="264.523" y="259.571" fill="#3D83A3" width="9.493" height="9.476"/>
	</g>
	<g id="Particles">
		<rect x="227.074" y="260.515" fill="#3D83A3" width="3.323" height="3.324"/>
		<rect x="206.217" y="278.522" fill="#3D83A3" width="5.215" height="5.227"/>
		<rect x="178.244" y="304.767" fill="#3D83A3" width="6.481" height="6.479"/>
		<rect x="190.099" y="332.579" fill="#3D83A3" width="4.737" height="4.733"/>
		<rect x="139.539" y="293.704" fill="#3D83A3" width="5.389" height="5.39"/>
		<rect x="159.652" y="340.217" fill="#3D83A3" width="5.39" height="5.388"/>
		<rect x="191.288" y="378.561" fill="#3D83A3" width="2.128" height="2.121"/>
		<rect x="238.935" y="399.3" fill="#3D83A3" width="3.833" height="3.837"/>
		<rect x="247.99" y="330.7" fill="#3D83A3" width="2.791" height="2.802"/>
		<rect x="292.904" y="355.896" fill="#3D83A3" width="5.392" height="5.389"/>
		<rect x="316.602" y="372.962" fill="#3D83A3" width="5.389" height="5.397"/>
		<rect x="152.623" y="259.575" fill="#3D83A3" width="2.84" height="2.84"/>
		<rect x="288.284" y="304.392" fill="#3D83A3" width="3.26" height="3.259"/>
		<rect x="322.95" y="282.766" fill="#3D83A3" width="4.162" height="4.163"/>
		<rect x="382.424" y="308.345" fill="#3D83A3" width="5.391" height="5.389"/>
		<rect x="367.673" y="348.286" fill="#3D83A3" width="3.052" height="3.056"/>
		<rect x="426.175" y="357.688" fill="#3D83A3" width="5.389" height="5.389"/>
		<rect x="434.078" y="306.854" fill="#3D83A3" width="1.536" height="1.544"/>
		<rect x="419.56" y="259.093" fill="#3D83A3" width="0.792" height="0.797"/>
		<rect x="368.358" y="228.811" fill="#3D83A3" width="3.404" height="3.411"/>
		<rect x="339.505" y="236.421" fill="#3D83A3" width="1.828" height="1.83"/>
		<rect x="476.921" y="233.397" fill="#3D83A3" width="0.812" height="0.811"/>
		<rect x="82.391" y="229.059" fill="#3D83A3" width="1.989" height="1.985"/>
		<rect x="185.017" y="228.815" fill="#3D83A3" width="5.391" height="5.389"/>
		<rect x="244.389" y="212.863" fill="#3D83A3" width="5.39" height="5.39"/>
		<rect x="397.055" y="211.72" fill="#3D83A3" width="4.014" height="4.007"/>
		<rect x="429.515" y="200.504" fill="#3D83A3" width="3.956" height="3.959"/>
		<rect x="339.78" y="193.184" fill="#3D83A3" width="5.392" height="5.391"/>
		<rect x="280.647" y="187.231" fill="#3D83A3" width="1.619" height="1.617"/>
		<rect x="235.608" y="188.454" fill="#3D83A3" width="4.256" height="4.255"/>
		<rect x="209.063" y="184.509" fill="#3D83A3" width="1.713" height="1.715"/>
		<rect x="141.404" y="185.61" fill="#3D83A3" width="3.205" height="3.203"/>
		<rect x="191.173" y="164.75" fill="#3D83A3" width="1.873" height="1.871"/>
		<rect x="141.742" y="135.413" fill="#3D83A3" width="3.821" height="3.823"/>
		<rect x="200.523" y="108.334" fill="#3D83A3" width="2.116" height="2.11"/>
		<rect x="253.27" y="125.175" fill="#3D83A3" width="5.398" height="5.389"/>
		<rect x="302.107" y="119.668" fill="#3D83A3" width="3.841" height="3.836"/>
		<rect x="308.149" y="140.282" fill="#3D83A3" width="1.897" height="1.903"/>
		<rect x="327.038" y="148.65" fill="#3D83A3" width="3.386" height="3.394"/>
		<rect x="380.68" y="127.526" fill="#3D83A3" width="4.041" height="4.033"/>
		<rect x="405.809" y="154.112" fill="#3D83A3" width="2.87" height="2.872"/>
	</g>
</g>
</svg>
