<?xml version="1.0" encoding="utf-8"?>
<!-- Generator: Adobe Illustrator 16.0.0, SVG Export Plug-In . SVG Version: 6.00 Build 0)  -->
<!DOCTYPE svg PUBLIC "-//W3C//DTD SVG 1.1//EN" "http://www.w3.org/Graphics/SVG/1.1/DTD/svg11.dtd">
<svg version="1.1" id="mending_tanks" xmlns="http://www.w3.org/2000/svg" xmlns:xlink="http://www.w3.org/1999/xlink" x="0px"
	 y="0px" width="511.473px" height="511.473px" viewBox="0 0 511.473 511.473" enable-background="new 0 0 511.473 511.473"
	 xml:space="preserve">
<rect fill="#FFFFFF" width="511.473" height="511.473"/>
<g id="Icon">
	<path id="rect4147" fill="#4AA0C7" d="M288.413,432.883l-66.513-0.16l-1.464-37.415l-40.543,0.021l-4.621-58.063l-108.823-0.991
		L50.906,202.548l65.264-93.798h278.574l65.276,94.345l-15.549,133.176l-108.822,0.991l-4.284,58.406l-41.074-0.198L288.413,432.883
		z"/>
	<path id="rect4150" fill="#428FB3" d="M145.866,121.238l5.27,66.59h-41.508L145.866,121.238z"/>
	<path id="rect4153" fill="#428FB3" d="M147.991,116.707h215.124l-4.676,70.436H152.679L147.991,116.707z"/>
	<path id="rect4150-0" fill="#428FB3" d="M365.532,120.102l-5.269,66.586h41.504L365.532,120.102z"/>
	<path id="rect4185" fill="#FFFFFF" d="M189.219,126.319h127.057l17.082,31.978v27.28H176.777v-25.113L189.219,126.319z"/>
	<path id="rect4171" fill="#4AA0C7" d="M174.032,123.737l11.678-35.123h4.275l133.202,0.212l0.054,1.124l12.287,34.318l-4.062,2.463
		l-9.722-27.215l-0.672-1.362l-1.552,32.565l-3.501-5.246l1.391-32.441l-127.188-0.242l1.029,34.142l-3.672,3.221l-0.429-33.672
		l-7.8,27.21l156.63,0.04v3.053v61.566L176.4,188.374l0.071-5.546l154.495-0.41l-0.741-54.641l-151.258,0.779l0.028,23.75
		l9.322-28.134l127.1,0.086l4.718,1.062l12.241,29.247l0.272,14.087l-16.162-40.399l-125.052,0.265l-12.435,36.567l0.033,22.728h-5
		V123.737L174.032,123.737L174.032,123.737z"/>
	<rect x="148.263" y="246.267" fill="#3D83A3" width="210.688" height="19.45"/>
	<rect x="148.263" y="246.267" fill="#FFFFFF" width="90.003" height="19.45"/>
</g>
<polyline fill="#FFFFFF" points="178.996,175.853 179.018,187.095 331.116,187.095 330.743,165.291 303.298,168.319 "/>
</svg>
