<?xml version="1.0" encoding="utf-8"?>
<!-- Generator: Adobe Illustrator 16.0.0, SVG Export Plug-In . SVG Version: 6.00 Build 0)  -->
<!DOCTYPE svg PUBLIC "-//W3C//DTD SVG 1.1//EN" "http://www.w3.org/Graphics/SVG/1.1/DTD/svg11.dtd">
<svg version="1.1" id="conduction_shamir" xmlns="http://www.w3.org/2000/svg" xmlns:xlink="http://www.w3.org/1999/xlink" x="0px"
	 y="0px" width="511.475px" height="511.473px" viewBox="0 0 511.475 511.473" enable-background="new 0 0 511.475 511.473"
	 xml:space="preserve">
<rect fill="#FFFFFF" width="511.475" height="511.473"/>
<g id="Icon">
	<g id="Lightning">
		<polygon fill="#A1CEE2" points="136.872,102.261 78.515,88.018 60.436,0 117.063,0 110.244,75.151 162.349,82.129 
			154.011,150.729 261.021,204.533 126.01,185.169 		"/>
		<polygon fill="#A1CEE2" points="257.786,214.015 258.751,216.409 442.194,80.533 398.851,66.194 434.318,0 371.934,0 
			360.756,82.129 392.883,88.885 		"/>
	</g>
	<g id="Sword">
		<polygon fill="#4AA0C7" points="232.4,452.184 259.265,425.313 286.145,452.184 259.265,479.055 		"/>
		<polygon id="rect4152" fill="#4AA0C7" points="234.574,218.487 260.172,192.906 286.159,218.912 260.578,244.492 		"/>
		<polygon id="rect4154" fill="#4AA0C7" points="232.405,238.877 258.858,212.442 284.847,238.449 258.412,264.902 		"/>
		<polygon id="rect4156" fill="#4AA0C7" points="232.401,256.179 258.854,229.728 285.7,256.626 259.265,283.062 		"/>
		<polygon id="rect4158" fill="#4AA0C7" points="234.998,276.136 261.021,250.111 287.009,276.135 261.021,302.123 		"/>
		<polygon id="rect4160" fill="#4AA0C7" points="233.26,296.089 258.857,270.51 285.293,296.944 259.713,322.524 		"/>
		<polygon id="rect4160-9" fill="#4AA0C7" points="233.26,314.296 258.857,288.717 286.6,316.459 261.021,342.037 		"/>
		
			<rect id="rect4160-4" x="240.392" y="316.393" transform="matrix(-0.7071 0.7071 -0.7071 -0.7071 680.3051 388.3768)" fill="#4AA0C7" width="38.649" height="37.386"/>
		<polygon id="rect4160-5" fill="#4AA0C7" points="223.734,364.604 259.715,328.624 296.142,365.037 260.161,401.02 		"/>
		<polygon id="rect4160-4-9" fill="#4AA0C7" points="183.402,363.304 201.17,345.52 218.952,363.303 201.168,381.087 		"/>
		<polygon id="rect4160-4-9-7" fill="#4AA0C7" points="202.479,365.009 220.261,347.263 247.125,374.134 229.36,391.89 		"/>
		<polygon id="rect4160-4-9-2" fill="#4AA0C7" points="300.466,364.162 318.216,346.401 335.998,364.162 318.216,381.946 		"/>
		<polygon id="rect4160-4-9-7-3" fill="#4AA0C7" points="270.126,374.523 298.315,346.334 316.063,364.119 287.911,392.306 		"/>
		<polygon fill="#4AA0C7" points="277.017,402.232 277.017,422.32 259.833,440.285 242.081,421.697 242.081,402.069 
			251.565,392.393 259.289,384.528 267.973,393.191 		"/>
		<polygon id="rect4150_1_" fill="#4AA0C7" points="232.407,198.119 259.271,171.248 285.708,197.69 258.86,224.572 		"/>
		<rect x="242.081" y="405.105" fill="#A1CEE2" width="34.936" height="13.851"/>
	</g>
</g>
<g id="Shamir_Particles">
	<g>
		<line fill="#7FBCD7" x1="205.199" y1="139.814" x2="200.925" y2="138.679"/>
	</g>
	<g>
		<path fill="#7FBCD7" d="M175.322,55.729"/>
	</g>
	<g>
		<line fill="#7FBCD7" x1="259.909" y1="23.031" x2="262.587" y2="23.91"/>
		<path fill="#7FBCD7" d="M265.309,24.7"/>
	</g>
</g>
<g id="Shamir">
	<rect id="Cast" x="223.912" y="53.095" fill="#3D83A3" width="67.713" height="67.718"/>
	<rect id="Band" x="217.386" y="74.141" fill="#7FBCD7" width="80.102" height="22.166"/>
</g>
<g id="Shamir_Particles_1_">
	<g>
		<polygon fill="#7FBCD7" points="311.637,139.602 313.171,132.941 319.834,134.483 318.303,141.133 		"/>
		<polygon fill="#7FBCD7" points="317.692,143.808 318.322,141.125 321.004,141.739 320.375,144.419 		"/>
		<polygon fill="#7FBCD7" points="319.936,134.537 320.529,131.855 323.212,132.479 322.61,135.161 		"/>
		<polygon fill="#7FBCD7" points="310.59,132.408 311.22,129.727 313.901,130.345 313.272,133.026 		"/>
		<polygon fill="#7FBCD7" points="308.412,141.653 309.043,138.974 311.724,139.598 311.092,142.276 		"/>
	</g>
	<g>
		<polygon fill="#7FBCD7" points="193.338,131.458 196.177,120.872 206.763,123.701 203.923,134.287 		"/>
		<polygon fill="#7FBCD7" points="202.754,138.493 203.886,134.259 208.123,135.398 206.98,139.626 		"/>
		<polygon fill="#7FBCD7" points="206.697,123.725 207.824,119.489 212.064,120.625 210.922,124.852 		"/>
		<polygon fill="#7FBCD7" points="191.87,119.686 193.008,115.455 197.232,116.591 196.106,120.817 		"/>
		<polygon fill="#7FBCD7" points="187.913,134.542 189.055,130.31 193.281,131.449 192.157,135.678 		"/>
	</g>
	<g>
		<polygon fill="#7FBCD7" points="181.182,55.487 184.848,49.717 190.604,53.383 186.954,59.145 		"/>
		<polygon fill="#7FBCD7" points="185.528,61.458 186.998,59.129 189.322,60.611 187.845,62.934 		"/>
		<polygon fill="#7FBCD7" points="190.636,53.4 192.101,51.076 194.43,52.553 192.948,54.876 		"/>
		<polygon fill="#7FBCD7" points="182.549,48.259 184.026,45.932 186.354,47.41 184.872,49.728 		"/>
		<polygon fill="#7FBCD7" points="177.386,56.317 178.857,53.991 181.18,55.468 179.706,57.786 		"/>
	</g>
	<g>
		<polygon fill="#7FBCD7" points="262.109,30.117 263.008,27.45 265.676,28.319 264.775,30.983 		"/>
		
			<rect x="260.7" y="24.276" transform="matrix(-0.3086 0.9512 -0.9512 -0.3086 367.4182 -215.7015)" fill="#7FBCD7" width="2.8" height="2.806"/>
		<polygon fill="#7FBCD7" points="265.679,28.232 266.543,25.574 269.213,26.442 268.313,29.11 		"/>
		<polygon fill="#7FBCD7" points="258.571,31.848 259.42,29.188 262.088,30.056 261.224,32.723 		"/>
		
			<rect x="264.254" y="31.331" transform="matrix(-0.3083 0.9513 -0.9513 -0.3083 378.6982 -209.8865)" fill="#7FBCD7" width="2.8" height="2.806"/>
	</g>
	<g>
		<polygon fill="#7FBCD7" points="324.891,69.94 331.729,69.866 331.786,76.695 324.983,76.762 		"/>
		<polygon fill="#7FBCD7" points="331.786,76.702 334.558,76.669 334.58,79.424 331.808,79.447 		"/>
		<polygon fill="#7FBCD7" points="331.706,67.123 334.442,67.092 334.465,69.846 331.728,69.87 		"/>
		<polygon fill="#7FBCD7" points="322.17,67.271 324.902,67.248 324.927,69.998 322.191,70.026 		"/>
		<polygon fill="#7FBCD7" points="322.284,76.804 325.018,76.774 325.04,79.524 322.308,79.558 		"/>
	</g>
</g>
</svg>
