<?xml version="1.0" encoding="utf-8"?>
<!-- Generator: Adobe Illustrator 16.0.0, SVG Export Plug-In . SVG Version: 6.00 Build 0)  -->
<!DOCTYPE svg PUBLIC "-//W3C//DTD SVG 1.1//EN" "http://www.w3.org/Graphics/SVG/1.1/DTD/svg11.dtd">
<svg version="1.1" id="defuse_shamir" xmlns="http://www.w3.org/2000/svg" xmlns:xlink="http://www.w3.org/1999/xlink" x="0px"
	 y="0px" width="511.475px" height="511.473px" viewBox="0 0 511.475 511.473" enable-background="new 0 0 511.475 511.473"
	 xml:space="preserve">
<rect fill="#FFFFFF" width="511.475" height="511.473"/>
<g id="Icon">
	<g id="Creeper_1_">
		<path id="Body" fill="#4AA0C8" d="M272.958,474.142l-31.774,14.417l-63.008-26.732l0.495-48.353l31.265-13.15v-84.855
			l-17.862-6.784l0.495-64.904l63.521-27.995l61.512,26.722l0.983,64.902l-15.363,8.063v69.589l31.742,13.999v49.633l-30.758,13.141
			l-31.742-12.725L272.958,474.142z"/>
		<path id="Mouth" fill="#FFFFFF" d="M232.042,324.224l0.113-8.796l-14.013-6.476l-0.131,9.217l-7.81-3.173l-0.248-16.917
			l8.559,3.83v-8.847l13.646,5.508v7.854l9.556,4.029l0.114,17.813L232.042,324.224z"/>
		<path id="Eye_1_" fill="#FFFFFF" d="M252.008,297.199l-19.292-8.326v-18.234l19.292,8.299V297.199z"/>
		<path id="Eye" fill="#FFFFFF" d="M218.464,283.384l-19.292-8.323v-18.229l19.292,8.293V283.384L218.464,283.384z"/>
	</g>
	<g id="Fuse_2_">
		<g id="Pieces">
			<polygon fill="#397A99" points="328.144,171.684 327.163,173.91 325.943,167.538 328.509,167.614 			"/>
			<polygon fill="#397A99" points="334.766,179.338 334.458,180.597 337.389,184.702 338.406,181.316 			"/>
			<polygon fill="#397A99" points="327.996,179.98 330.008,181.183 331.683,188.972 328.168,186.858 			"/>
			<polygon fill="#397A99" points="326.975,176.99 326.433,178.737 325.958,177.253 325.958,176.082 			"/>
			<polygon fill="#397A99" points="321.307,176.755 322.413,178.137 322.341,176.566 321.918,175.49 			"/>
		</g>
		<g id="Attached">
			<path fill="#3D83A3" d="M308.563,276.703l-0.332-5.831c9.3-0.648,21.018-3.034,24.021-10.671
				c3.354-8.459-4.515-21.09-9.502-27.861c-13.278-18.087-18.222-29.716-16.473-38.883c1.25-6.503,5.631-11.583,14.231-16.462
				l2.421,5.2c-7.04,4.006-10.579,7.854-11.478,12.468c-1.344,7.156,3.392,17.64,15.426,33.983
				c10.065,13.684,13.612,25.39,10.258,33.883C333.82,270.854,324.204,275.635,308.563,276.703z"/>
		</g>
		<g id="Cut">
			<path fill="#3D83A3" d="M346.376,212.336l-2.477-5.158c4.521-2.666,8.668-8.313,7.719-14.926c-0.688-4.71-3.79-7.943-8.494-8.872
				l0.931-5.762c6.848,1.344,11.765,6.609,12.777,13.716C358.014,199.519,353.799,207.963,346.376,212.336z"/>
		</g>
	</g>
</g>
<g id="Shamir">
	<rect id="Cast" x="223.912" y="53.095" fill="#3D83A3" width="67.713" height="67.718"/>
	<rect id="Band" x="217.386" y="74.141" fill="#7FBCD7" width="80.102" height="22.166"/>
</g>
<g id="Shamir_Particles">
	<g>
		<polygon fill="#7FBCD7" points="311.637,139.602 313.171,132.941 319.834,134.483 318.303,141.133 		"/>
		<polygon fill="#7FBCD7" points="317.692,143.808 318.322,141.125 321.004,141.739 320.375,144.419 		"/>
		<polygon fill="#7FBCD7" points="319.936,134.537 320.529,131.855 323.212,132.479 322.61,135.161 		"/>
		<polygon fill="#7FBCD7" points="310.59,132.408 311.22,129.727 313.901,130.345 313.272,133.026 		"/>
		<polygon fill="#7FBCD7" points="308.412,141.653 309.043,138.974 311.724,139.598 311.092,142.276 		"/>
	</g>
	<g>
		<polygon fill="#7FBCD7" points="193.338,131.458 196.177,120.872 206.763,123.701 203.923,134.287 		"/>
		<polygon fill="#7FBCD7" points="202.754,138.493 203.886,134.259 208.123,135.398 206.98,139.626 		"/>
		<polygon fill="#7FBCD7" points="206.697,123.725 207.824,119.489 212.064,120.625 210.922,124.852 		"/>
		<polygon fill="#7FBCD7" points="191.87,119.686 193.008,115.455 197.232,116.591 196.106,120.817 		"/>
		<polygon fill="#7FBCD7" points="187.913,134.542 189.055,130.31 193.281,131.449 192.157,135.678 		"/>
	</g>
	<g>
		<polygon fill="#7FBCD7" points="181.182,55.487 184.848,49.717 190.604,53.383 186.954,59.145 		"/>
		<polygon fill="#7FBCD7" points="185.528,61.458 186.998,59.129 189.322,60.611 187.845,62.934 		"/>
		<polygon fill="#7FBCD7" points="190.636,53.4 192.101,51.076 194.43,52.553 192.948,54.876 		"/>
		<polygon fill="#7FBCD7" points="182.549,48.259 184.026,45.932 186.354,47.41 184.872,49.728 		"/>
		<polygon fill="#7FBCD7" points="177.386,56.317 178.857,53.991 181.18,55.468 179.706,57.786 		"/>
	</g>
	<g>
		<polygon fill="#7FBCD7" points="262.109,30.117 263.008,27.45 265.676,28.319 264.775,30.983 		"/>
		
			<rect x="260.7" y="24.276" transform="matrix(-0.3086 0.9512 -0.9512 -0.3086 367.4182 -215.7015)" fill="#7FBCD7" width="2.8" height="2.806"/>
		<polygon fill="#7FBCD7" points="265.679,28.232 266.543,25.574 269.213,26.442 268.313,29.11 		"/>
		<polygon fill="#7FBCD7" points="258.571,31.848 259.42,29.188 262.088,30.056 261.224,32.723 		"/>
		
			<rect x="264.254" y="31.331" transform="matrix(-0.3083 0.9513 -0.9513 -0.3083 378.6982 -209.8865)" fill="#7FBCD7" width="2.8" height="2.806"/>
	</g>
	<g>
		<polygon fill="#7FBCD7" points="324.891,69.94 331.729,69.866 331.786,76.695 324.983,76.762 		"/>
		<polygon fill="#7FBCD7" points="331.786,76.702 334.558,76.669 334.58,79.424 331.808,79.447 		"/>
		<polygon fill="#7FBCD7" points="331.706,67.123 334.442,67.092 334.465,69.846 331.728,69.87 		"/>
		<polygon fill="#7FBCD7" points="322.17,67.271 324.902,67.248 324.927,69.998 322.191,70.026 		"/>
		<polygon fill="#7FBCD7" points="322.284,76.804 325.018,76.774 325.04,79.524 322.308,79.558 		"/>
	</g>
</g>
</svg>
