<?xml version="1.0" encoding="utf-8"?>
<!-- Generator: Adobe Illustrator 16.0.0, SVG Export Plug-In . SVG Version: 6.00 Build 0)  -->
<!DOCTYPE svg PUBLIC "-//W3C//DTD SVG 1.1//EN" "http://www.w3.org/Graphics/SVG/1.1/DTD/svg11.dtd">
<svg version="1.1" id="ender_bolt_shamir" xmlns="http://www.w3.org/2000/svg" xmlns:xlink="http://www.w3.org/1999/xlink" x="0px"
	 y="0px" width="511.475px" height="511.473px" viewBox="0 0 511.475 511.473" enable-background="new 0 0 511.475 511.473"
	 xml:space="preserve">
<rect fill="#FFFFFF" width="511.475" height="511.473"/>
<g id="Icon">
	<g id="Zombies">
		<g id="Zombie_2_">
			<path id="path4213_2_" fill="#4AA0C7" d="M443.083,443.747l-32.455-17.239l1.362-72.287l-5.392,0.32l-0.34-22.781l5.802-1.83
				l-0.284-7.7l-29.771,17.989l-17.598-9.315l0.29-22.354l39.986-23.193l0.513-24.226l34.501-17.042l34.1,18.962l-0.729,42.687
				l-8.009,3.231l15.971,7.195l-0.313,24.09l-17.942,5.832l-1.039,88.406L443.083,443.747z"/>
			<g id="g4565_2_">
				<path id="rect4547_2_" fill="#FFFFFF" d="M408.792,285.17l9.146,4.445l-0.117,5.776l-9.156-5.251L408.792,285.17z"/>
				<path id="rect4547-1_2_" fill="#FFFFFF" d="M426.015,293.476l9.156,4.474l-0.133,6.586l-9.139-5.285L426.015,293.476z"/>
			</g>
		</g>
		<polygon fill="#A1CEE2" points="423.261,321.688 384.466,313.326 365.669,341.587 333.757,305.561 293.171,346.748 
			295.548,313.326 336.138,289.45 364.769,320.494 385.061,298.994 		"/>
		<g id="Zombie_1_">
			<path id="path4213_1_" fill="#4AA0C7" d="M274.767,443.747l-32.453-17.239l1.375-72.287l-5.389,0.32l-0.355-22.781l5.816-1.83
				l-0.283-7.7l-29.775,17.989l-17.598-9.315l0.275-22.354l39.99-23.193l0.528-24.226l34.5-17.042l34.101,18.962l-0.743,42.687
				l-7.994,3.231l15.957,7.195l-0.313,24.09l-17.947,5.832l-1.021,88.406L274.767,443.747z"/>
			<g id="g4565_1_">
				<path id="rect4547_1_" fill="#FFFFFF" d="M240.493,285.17l9.143,4.445l-0.129,5.776l-9.143-5.251L240.493,285.17z"/>
				<path id="rect4547-1_1_" fill="#FFFFFF" d="M257.713,293.476l9.158,4.474l-0.131,6.586l-9.159-5.281L257.713,293.476z"/>
			</g>
		</g>
		<polygon fill="#A1CEE2" points="254.568,321.688 215.79,313.326 196.982,341.587 165.054,305.561 124.484,346.748 126.87,313.326 
			167.451,289.45 196.085,320.494 216.375,298.994 		"/>
		<g id="Zombie">
			<path id="path4213" fill="#4AA0C7" d="M106.16,443.747L73.7,426.508l1.37-72.287l-5.389,0.32l-0.347-22.781l5.808-1.83
				l-0.281-7.7l-29.778,17.989l-17.595-9.338l0.277-22.343l39.989-23.188l0.524-24.224l34.495-17.044l34.107,18.962l-0.735,42.675
				l-7.995,3.241l15.958,7.199l-0.313,24.09l-17.942,5.83l-1.042,88.408L106.16,443.747z"/>
			<g id="g4565">
				<path id="rect4547" fill="#FFFFFF" d="M71.874,285.17l9.142,4.445l-0.118,5.776l-9.143-5.251L71.874,285.17z"/>
				<path id="rect4547-1" fill="#FFFFFF" d="M89.104,293.476l9.143,4.474l-0.125,6.586l-9.143-5.281L89.104,293.476z"/>
			</g>
		</g>
	</g>
	<g id="Particles">
		<g>
			<polygon fill="#3D83A3" points="81.348,365.506 82.227,364.462 85.317,367.096 84.444,368.14 			"/>
			<polygon fill="#3D83A3" points="79.43,365.651 80.307,364.609 81.332,365.5 80.458,366.53 			"/>
			<polygon fill="#3D83A3" points="75.78,367.882 78.412,364.792 79.445,365.673 76.811,368.771 			"/>
			<polygon fill="#3D83A3" points="75.905,369.771 76.787,368.759 77.812,369.617 76.936,370.661 			"/>
			<polygon fill="#3D83A3" points="76.063,371.686 76.941,370.653 80.035,373.289 79.156,374.301 			"/>
			<polygon fill="#3D83A3" points="80.043,373.307 82.676,370.209 83.708,371.098 81.076,374.186 			"/>
			<polygon fill="#3D83A3" points="80.605,368.452 81.48,367.41 83.542,369.167 82.66,370.201 			"/>
			<polygon fill="#3D83A3" points="78.719,368.594 79.598,367.55 80.625,368.438 79.753,369.452 			"/>
			<polygon fill="#3D83A3" points="78.887,370.52 79.763,369.494 80.789,370.366 79.915,371.408 			"/>
		</g>
		<g>
			
				<rect x="101.065" y="353.04" transform="matrix(-0.6507 0.7593 -0.7593 -0.6507 436.5914 507.8325)" fill="#3D83A3" width="0.854" height="2.59"/>
			<polygon fill="#3D83A3" points="99.069,353.932 99.627,353.283 100.282,353.823 99.728,354.478 			"/>
			<polygon fill="#3D83A3" points="96.689,355.368 98.362,353.409 99.021,353.961 97.344,355.94 			"/>
			<polygon fill="#3D83A3" points="96.855,356.591 97.414,355.94 98.066,356.48 97.505,357.146 			"/>
			<polygon fill="#3D83A3" points="96.95,357.8 97.507,357.125 99.474,358.808 98.911,359.458 			"/>
			<polygon fill="#3D83A3" points="99.462,358.817 101.138,356.87 101.792,357.412 100.121,359.39 			"/>
			<polygon fill="#3D83A3" points="99.831,355.71 100.384,355.063 101.691,356.174 101.137,356.841 			"/>
			<polygon fill="#3D83A3" points="98.643,355.818 99.199,355.172 99.851,355.71 99.297,356.377 			"/>
			<polygon fill="#3D83A3" points="98.712,357.027 99.271,356.353 99.922,356.917 99.365,357.567 			"/>
		</g>
		<g>
			<polygon fill="#3D83A3" points="66.611,356.158 67.581,355.933 68.311,358.823 67.338,359.081 			"/>
			<polygon fill="#3D83A3" points="65.395,355.432 66.371,355.188 66.614,356.15 65.637,356.408 			"/>
			<polygon fill="#3D83A3" points="62.229,355.205 65.14,354.472 65.381,355.457 62.471,356.168 			"/>
			<polygon fill="#3D83A3" points="61.447,356.451 62.418,356.216 62.657,357.192 61.687,357.416 			"/>
			<polygon fill="#3D83A3" points="60.769,357.593 61.737,357.367 62.465,360.271 61.49,360.512 			"/>
			<polygon fill="#3D83A3" points="62.463,360.262 65.375,359.545 65.615,360.51 62.706,361.249 			"/>
			<polygon fill="#3D83A3" points="64.831,357.597 65.798,357.369 66.286,359.293 65.313,359.549 			"/>
			<polygon fill="#3D83A3" points="63.673,356.892 64.647,356.636 64.888,357.619 63.913,357.856 			"/>
			<polygon fill="#3D83A3" points="62.897,358.063 63.87,357.839 64.115,358.804 63.142,359.06 			"/>
		</g>
		<g>
			<polygon fill="#3D83A3" points="124.869,358.623 127.031,354.368 128.454,355.071 126.288,359.345 			"/>
			<polygon fill="#3D83A3" points="125.63,353.625 126.359,352.204 127.779,352.915 127.06,354.347 			"/>
			<polygon fill="#3D83A3" points="122.072,350.038 122.789,348.617 127.061,350.785 126.334,352.202 			"/>
			<polygon fill="#3D83A3" points="119.938,350.773 120.663,349.345 122.081,350.06 121.361,351.479 			"/>
			<polygon fill="#3D83A3" points="116.344,354.343 118.511,350.071 119.932,350.805 117.769,355.058 			"/>
			
				<rect x="118.719" y="354.439" transform="matrix(-0.4536 0.8912 -0.8912 -0.4536 491.7372 412.1669)" fill="#3D83A3" width="1.592" height="4.781"/>
			<polygon fill="#3D83A3" points="122.025,357.196 123.47,354.349 124.888,355.062 123.443,357.899 			"/>
			<polygon fill="#3D83A3" points="122.031,353.623 122.76,352.202 124.179,352.913 123.453,354.345 			"/>
			<polygon fill="#3D83A3" points="119.909,354.372 120.629,352.943 122.057,353.656 121.328,355.075 			"/>
		</g>
		<g>
			<polygon fill="#3D83A3" points="241.842,377.521 244.733,371.813 246.627,372.794 243.736,378.481 			"/>
			<polygon fill="#3D83A3" points="242.847,370.94 243.805,369.034 245.715,370.003 244.742,371.897 			"/>
			<polygon fill="#3D83A3" points="238.159,366.129 239.117,364.234 244.814,367.107 243.856,369.01 			"/>
			<polygon fill="#3D83A3" points="235.292,367.049 236.266,365.152 238.16,366.113 237.201,368.008 			"/>
			<polygon fill="#3D83A3" points="230.454,371.758 233.349,366.066 235.256,367.037 232.363,372.717 			"/>
			<polygon fill="#3D83A3" points="231.373,374.651 232.332,372.738 238.027,375.647 237.068,377.54 			"/>
			<polygon fill="#3D83A3" points="238.061,375.655 239.978,371.86 241.886,372.825 239.954,376.612 			"/>
			<polygon fill="#3D83A3" points="238.08,370.811 239.039,368.922 240.943,369.881 239.971,371.771 			"/>
			
				<rect x="235.541" y="370.256" transform="matrix(-0.4531 0.8915 -0.8915 -0.4531 674.8192 328.6381)" fill="#3D83A3" width="2.121" height="2.121"/>
		</g>
		<g>
			<polygon fill="#3D83A3" points="263.11,356.057 263.345,355.191 265.952,355.96 265.687,356.807 			"/>
			<polygon fill="#3D83A3" points="261.974,356.647 262.24,355.797 263.12,356.038 262.854,356.913 			"/>
			<polygon fill="#3D83A3" points="260.33,358.986 261.095,356.41 261.942,356.644 261.179,359.252 			"/>
			<polygon fill="#3D83A3" points="260.99,360.178 261.255,359.301 262.103,359.564 261.868,360.432 			"/>
			<polygon fill="#3D83A3" points="261.57,361.243 261.806,360.364 264.415,361.133 264.148,362 			"/>
			<polygon fill="#3D83A3" points="264.394,361.137 265.161,358.528 266.01,358.794 265.241,361.404 			"/>
			<polygon fill="#3D83A3" points="263.465,358.047 263.729,357.198 265.457,357.699 265.191,358.566 			"/>
			<polygon fill="#3D83A3" points="262.281,358.602 262.548,357.725 263.426,357.992 263.159,358.837 			"/>
			<polygon fill="#3D83A3" points="262.979,359.735 263.212,358.875 264.092,359.12 263.827,359.999 			"/>
		</g>
		<g>
			<polygon fill="#3D83A3" points="287.7,376.319 288.59,375.547 290.872,378.183 290.015,378.953 			"/>
			<polygon fill="#3D83A3" points="286.003,376.186 286.893,375.434 287.665,376.306 286.776,377.076 			"/>
			<polygon fill="#3D83A3" points="282.641,377.608 285.246,375.317 286.018,376.178 283.382,378.489 			"/>
			
				<rect x="282.785" y="378.736" transform="matrix(-0.7559 0.6547 -0.6547 -0.7559 745.9139 480.5427)" fill="#3D83A3" width="1.177" height="1.18"/>
			<polygon fill="#3D83A3" points="282.407,380.875 283.297,380.127 285.603,382.746 284.715,383.515 			"/>
			<polygon fill="#3D83A3" points="285.619,382.81 288.232,380.5 288.995,381.377 286.389,383.67 			"/>
			<polygon fill="#3D83A3" points="286.647,378.726 287.537,377.967 289.076,379.714 288.187,380.484 			"/>
			<polygon fill="#3D83A3" points="285.039,378.6 285.929,377.829 286.698,378.688 285.81,379.458 			"/>
			<polygon fill="#3D83A3" points="284.978,380.325 285.837,379.551 286.611,380.43 285.722,381.184 			"/>
		</g>
		<g>
			<polygon fill="#3D83A3" points="289.944,356.61 291.57,356.272 292.583,361.096 290.988,361.434 			"/>
			<polygon fill="#3D83A3" points="292.573,361.072 294.198,360.712 294.536,362.338 292.91,362.676 			"/>
			<polygon fill="#3D83A3" points="294.55,362.35 299.372,361.308 299.709,362.907 294.887,363.945 			"/>
			<polygon fill="#3D83A3" points="299.003,359.72 300.631,359.382 300.968,360.979 299.371,361.315 			"/>
			<polygon fill="#3D83A3" points="299.593,354.57 301.189,354.234 302.231,359.056 300.637,359.394 			"/>
			<polygon fill="#3D83A3" points="294.398,353.982 299.22,352.971 299.557,354.564 294.735,355.595 			"/>
			
				<rect x="293.438" y="355.67" transform="matrix(-0.9785 0.2061 -0.2061 -0.9785 655.8409 646.3074)" fill="#3D83A3" width="1.63" height="3.295"/>
			<polygon fill="#3D83A3" points="295.405,358.761 297.03,358.415 297.368,360.019 295.774,360.356 			"/>
			<polygon fill="#3D83A3" points="296.657,356.884 298.283,356.54 298.618,358.146 297.023,358.481 			"/>
		</g>
		<g>
			<polygon fill="#3D83A3" points="413.79,364.761 415.222,364.085 417.294,368.395 415.847,369.085 			"/>
			<polygon fill="#3D83A3" points="411.657,364 413.102,363.324 413.789,364.757 412.356,365.463 			"/>
			
				<rect x="406.774" y="363.531" transform="matrix(-0.9014 0.4329 -0.4329 -0.9014 935.7275 515.6404)" fill="#3D83A3" width="4.789" height="1.606"/>
			<polygon fill="#3D83A3" points="405.85,366.76 407.301,366.078 407.989,367.517 406.549,368.192 			"/>
			<polygon fill="#3D83A3" points="405.177,368.902 406.61,368.194 408.668,372.519 407.233,373.194 			"/>
			<polygon fill="#3D83A3" points="408.647,372.556 412.975,370.498 413.651,371.931 409.344,373.988 			"/>
			<polygon fill="#3D83A3" points="411.534,367.583 412.98,366.905 414.354,369.767 412.902,370.475 			"/>
			<polygon fill="#3D83A3" points="409.439,366.853 410.894,366.154 411.582,367.591 410.144,368.297 			"/>
			<polygon fill="#3D83A3" points="408.723,368.979 410.167,368.303 410.843,369.735 409.41,370.426 			"/>
		</g>
		<g>
			<polygon fill="#3D83A3" points="468.884,366.207 472.349,365.067 472.714,366.231 469.26,367.363 			"/>
			<polygon fill="#3D83A3" points="467.369,365.463 468.515,365.067 468.903,366.231 467.733,366.604 			"/>
			<polygon fill="#3D83A3" points="465.077,362.373 466.241,361.994 467.373,365.463 466.22,365.828 			"/>
			<polygon fill="#3D83A3" points="465.853,360.838 467.017,360.475 467.39,361.616 466.241,362 			"/>
			<polygon fill="#3D83A3" points="466.632,359.303 470.101,358.179 470.482,359.341 467.021,360.477 			"/>
			<polygon fill="#3D83A3" points="470.437,359.39 471.586,358.996 472.707,362.47 471.567,362.845 			"/>
			<polygon fill="#3D83A3" points="469.269,363.538 471.581,362.796 471.946,363.943 469.652,364.704 			"/>
			<polygon fill="#3D83A3" points="467.819,362.776 468.96,362.393 469.344,363.544 468.184,363.93 			"/>
			<polygon fill="#3D83A3" points="468.545,361.247 469.699,360.852 470.064,362.023 468.922,362.389 			"/>
		</g>
		<g>
			<polygon fill="#3D83A3" points="450.982,356.249 451.574,355.494 453.809,357.237 453.236,357.994 			"/>
			<polygon fill="#3D83A3" points="449.593,356.398 450.186,355.642 450.942,356.228 450.349,356.96 			"/>
			<polygon fill="#3D83A3" points="447.087,358.053 448.836,355.818 449.588,356.412 447.844,358.646 			"/>
			<polygon fill="#3D83A3" points="447.215,359.429 447.8,358.674 448.551,359.266 447.972,360.022 			"/>
			<polygon fill="#3D83A3" points="447.476,360.692 448.048,359.936 450.316,361.697 449.726,362.432 			"/>
			<polygon fill="#3D83A3" points="450.235,361.775 451.998,359.539 452.741,360.119 450.992,362.367 			"/>
			<polygon fill="#3D83A3" points="450.479,358.281 451.062,357.526 452.547,358.68 451.954,359.435 			"/>
			
				<rect x="449.331" y="357.941" transform="matrix(-0.6166 0.7873 -0.7873 -0.6166 1009.3438 225.3048)" fill="#3D83A3" width="0.961" height="0.96"/>
			<polygon fill="#3D83A3" points="449.364,359.863 449.954,359.108 450.689,359.702 450.115,360.449 			"/>
		</g>
		<g>
			
				<rect x="422.648" y="386.615" transform="matrix(-0.9009 0.434 -0.434 -0.9009 972.3451 553.3827)" fill="#3D83A3" width="0.711" height="2.139"/>
			<polygon fill="#3D83A3" points="422.597,385.97 423.249,385.663 423.558,386.304 422.902,386.61 			"/>
			
				<rect x="422.879" y="384.525" transform="matrix(-0.9009 0.434 -0.434 -0.9009 972.9284 547.6266)" fill="#3D83A3" width="2.138" height="0.711"/>
			
				<rect x="425.293" y="384.507" transform="matrix(-0.9009 0.434 -0.434 -0.9009 976.1483 546.8699)" fill="#3D83A3" width="0.711" height="0.711"/>
			<polygon fill="#3D83A3" points="426.138,385.06 426.778,384.751 427.705,386.703 427.063,387.006 			"/>
			<polygon fill="#3D83A3" points="425.035,387.888 426.97,386.962 427.275,387.621 425.344,388.536 			"/>
			<polygon fill="#3D83A3" points="423.879,386.899 424.53,386.591 425.142,387.876 424.496,388.183 			"/>
			
				<rect x="424.247" y="385.752" transform="matrix(-0.9001 0.4357 -0.4357 -0.9001 975.0065 548.6612)" fill="#3D83A3" width="0.713" height="0.714"/>
			
				<rect x="425.273" y="386.096" transform="matrix(-0.9012 0.4334 -0.4334 -0.9012 976.7028 550.2287)" fill="#3D83A3" width="0.712" height="0.712"/>
		</g>
		<g>
			<polygon fill="#3D83A3" points="445.097,394.529 445.816,393.538 448.756,395.69 448.025,396.674 			"/>
			<polygon fill="#3D83A3" points="444.841,392.831 445.54,391.851 446.527,392.562 445.81,393.538 			"/>
			<polygon fill="#3D83A3" points="444.576,391.057 446.737,388.13 447.707,388.829 445.546,391.77 			"/>
			<polygon fill="#3D83A3" points="447.688,388.833 448.406,387.866 449.387,388.598 448.656,389.564 			"/>
			<polygon fill="#3D83A3" points="449.458,388.635 450.186,387.666 453.114,389.816 452.39,390.797 			"/>
			<polygon fill="#3D83A3" points="450.186,393.771 452.345,390.83 453.315,391.56 451.155,394.481 			"/>
			<polygon fill="#3D83A3" points="447.545,393.26 448.271,392.269 450.217,393.716 449.505,394.698 			"/>
			<polygon fill="#3D83A3" points="447.284,391.565 448.007,390.582 448.977,391.298 448.271,392.267 			"/>
			<polygon fill="#3D83A3" points="448.959,391.265 449.688,390.282 450.659,390.993 449.935,391.97 			"/>
		</g>
		<g>
			<polygon fill="#3D83A3" points="109.888,375.108 110.601,374.124 113.549,376.272 112.834,377.247 			"/>
			<polygon fill="#3D83A3" points="109.578,373.458 110.291,372.476 111.274,373.183 110.558,374.161 			"/>
			<polygon fill="#3D83A3" points="109.344,371.75 111.486,368.804 112.467,369.531 110.321,372.466 			"/>
			<polygon fill="#3D83A3" points="112.453,369.549 113.164,368.566 114.141,369.273 113.431,370.244 			"/>
			<polygon fill="#3D83A3" points="114.188,369.26 114.901,368.287 117.845,370.407 117.133,371.406 			"/>
			<polygon fill="#3D83A3" points="114.958,374.341 117.099,371.406 118.081,372.102 115.937,375.048 			"/>
			<polygon fill="#3D83A3" points="112.278,373.889 112.997,372.894 114.956,374.339 114.242,375.321 			"/>
			<polygon fill="#3D83A3" points="112.009,372.224 112.724,371.253 113.707,371.95 112.994,372.939 			"/>
			<polygon fill="#3D83A3" points="113.679,371.931 114.398,370.958 115.378,371.653 114.661,372.656 			"/>
		</g>
		<g>
			<polygon fill="#3D83A3" points="261.588,397.742 265.609,396.443 266.021,397.78 262.03,399.091 			"/>
			<polygon fill="#3D83A3" points="259.776,396.882 261.127,396.439 261.57,397.776 260.219,398.2 			"/>
			<polygon fill="#3D83A3" points="257.109,393.328 258.458,392.884 259.761,396.901 258.443,397.346 			"/>
			<polygon fill="#3D83A3" points="258.05,391.498 259.398,391.08 259.842,392.404 258.492,392.847 			"/>
			<polygon fill="#3D83A3" points="258.973,389.718 262.991,388.409 263.434,389.737 259.414,391.049 			"/>
			<polygon fill="#3D83A3" points="263.378,389.769 264.728,389.345 266.025,393.346 264.708,393.788 			"/>
			<polygon fill="#3D83A3" points="262.052,394.602 264.723,393.741 265.165,395.063 262.496,395.952 			"/>
			<polygon fill="#3D83A3" points="260.225,393.733 261.573,393.301 262.017,394.619 260.669,395.062 			"/>
			<polygon fill="#3D83A3" points="261.152,391.95 262.501,391.526 262.912,392.856 261.596,393.301 			"/>
		</g>
	</g>
	<g>
		<rect x="85.789" y="316.098" fill="#3D83A3" width="29.54" height="2.999"/>
		<rect x="85.789" y="318.532" fill="#3D83A3" width="24.619" height="3.567"/>
		<rect x="85.789" y="321.565" fill="#3D83A3" width="27.078" height="4.905"/>
		<rect x="115.335" y="321.565" fill="#3D83A3" width="4.922" height="3.001"/>
		<rect x="115.329" y="324.014" fill="#3D83A3" width="9.853" height="4.93"/>
		<rect x="88.257" y="326.475" fill="#3D83A3" width="27.628" height="4.939"/>
		<rect x="115.329" y="328.381" fill="#3D83A3" width="7.386" height="3.029"/>
		<rect x="90.717" y="330.852" fill="#3D83A3" width="27.075" height="3.02"/>
		<rect x="93.178" y="333.32" fill="#3D83A3" width="24.615" height="3.003"/>
		<rect x="95.638" y="335.791" fill="#3D83A3" width="19.698" height="3.001"/>
		<rect x="98.099" y="338.237" fill="#3D83A3" width="14.77" height="3.021"/>
		<rect x="100.563" y="340.696" fill="#3D83A3" width="9.851" height="3.02"/>
		<rect x="103.024" y="342.882" fill="#3D83A3" width="4.921" height="3.021"/>
		<rect x="88.257" y="314.169" fill="#3D83A3" width="29.535" height="2.461"/>
		<rect x="90.717" y="311.725" fill="#3D83A3" width="12.308" height="3.001"/>
		<rect x="93.178" y="309.252" fill="#3D83A3" width="7.387" height="2.999"/>
		<rect x="107.945" y="311.725" fill="#3D83A3" width="12.313" height="2.444"/>
		<rect x="110.406" y="309.252" fill="#3D83A3" width="7.386" height="2.999"/>
		<rect x="120.258" y="314.169" fill="#3D83A3" width="4.921" height="4.93"/>
		<rect x="117.792" y="316.63" fill="#3D83A3" width="3.013" height="2.469"/>
		<rect x="107.945" y="313.348" fill="#3D83A3" width="9.848" height="1.378"/>
		<rect x="120.258" y="318.532" fill="#3D83A3" width="2.457" height="3.031"/>
	</g>
	<g>
		<rect x="254.409" y="316.098" fill="#3D83A3" width="29.536" height="2.999"/>
		<rect x="254.409" y="318.532" fill="#3D83A3" width="24.598" height="3.567"/>
		<rect x="254.409" y="321.565" fill="#3D83A3" width="27.067" height="4.905"/>
		<rect x="283.948" y="321.565" fill="#3D83A3" width="4.932" height="3.001"/>
		<rect x="283.944" y="324.014" fill="#3D83A3" width="9.847" height="4.93"/>
		<rect x="256.881" y="326.475" fill="#3D83A3" width="27.63" height="4.939"/>
		<rect x="283.944" y="328.381" fill="#3D83A3" width="7.379" height="3.029"/>
		<rect x="259.318" y="330.852" fill="#3D83A3" width="27.098" height="3.02"/>
		<rect x="261.788" y="333.32" fill="#3D83A3" width="24.628" height="3.003"/>
		<rect x="264.256" y="335.791" fill="#3D83A3" width="19.692" height="3.001"/>
		<rect x="266.725" y="338.237" fill="#3D83A3" width="14.754" height="3.021"/>
		<rect x="269.196" y="340.696" fill="#3D83A3" width="9.844" height="3.02"/>
		<rect x="271.634" y="342.882" fill="#3D83A3" width="4.938" height="3.021"/>
		<rect x="256.881" y="314.169" fill="#3D83A3" width="29.535" height="2.461"/>
		<rect x="259.318" y="311.725" fill="#3D83A3" width="12.318" height="3.001"/>
		<rect x="261.788" y="309.252" fill="#3D83A3" width="7.408" height="2.999"/>
		<rect x="276.571" y="311.725" fill="#3D83A3" width="12.314" height="2.444"/>
		<rect x="279.007" y="309.252" fill="#3D83A3" width="7.409" height="2.999"/>
		<rect x="288.88" y="314.169" fill="#3D83A3" width="4.911" height="4.93"/>
		<rect x="286.416" y="316.63" fill="#3D83A3" width="3.002" height="2.469"/>
		<rect x="276.571" y="313.348" fill="#3D83A3" width="9.845" height="1.378"/>
		<rect x="288.88" y="318.532" fill="#3D83A3" width="2.442" height="3.031"/>
	</g>
	<g>
		<rect x="422.711" y="316.098" fill="#3D83A3" width="29.536" height="2.999"/>
		<rect x="422.711" y="318.532" fill="#3D83A3" width="24.63" height="3.567"/>
		<rect x="422.711" y="321.565" fill="#3D83A3" width="27.086" height="4.905"/>
		<rect x="452.25" y="321.565" fill="#3D83A3" width="4.93" height="3.001"/>
		<rect x="452.246" y="324.014" fill="#3D83A3" width="9.847" height="4.93"/>
		<rect x="425.181" y="326.475" fill="#3D83A3" width="27.63" height="4.939"/>
		<rect x="452.246" y="328.381" fill="#3D83A3" width="7.397" height="3.029"/>
		<rect x="427.642" y="330.852" fill="#3D83A3" width="27.073" height="3.02"/>
		<rect x="430.104" y="333.32" fill="#3D83A3" width="24.61" height="3.003"/>
		<rect x="432.558" y="335.791" fill="#3D83A3" width="19.689" height="3.001"/>
		<rect x="435.025" y="338.237" fill="#3D83A3" width="14.769" height="3.021"/>
		<rect x="437.487" y="340.696" fill="#3D83A3" width="9.854" height="3.02"/>
		<rect x="439.95" y="342.882" fill="#3D83A3" width="4.919" height="3.021"/>
		<rect x="425.181" y="314.169" fill="#3D83A3" width="29.534" height="2.461"/>
		<rect x="427.642" y="311.725" fill="#3D83A3" width="12.313" height="3.001"/>
		<rect x="430.104" y="309.252" fill="#3D83A3" width="7.392" height="2.999"/>
		<rect x="444.873" y="311.725" fill="#3D83A3" width="12.307" height="2.444"/>
		<rect x="447.337" y="309.252" fill="#3D83A3" width="7.381" height="2.999"/>
		<rect x="457.18" y="314.169" fill="#3D83A3" width="4.913" height="4.93"/>
		<rect x="454.715" y="316.63" fill="#3D83A3" width="3" height="2.469"/>
		<rect x="444.873" y="313.348" fill="#3D83A3" width="9.846" height="1.378"/>
		<rect x="457.18" y="318.532" fill="#3D83A3" width="2.464" height="3.031"/>
	</g>
</g>
<g id="Shamir_1_">
	<rect id="Cast_1_" x="222.002" y="88.469" fill="#3D83A3" width="67.713" height="67.718"/>
	<rect id="Band_1_" x="215.476" y="109.515" fill="#7FBCD7" width="80.102" height="22.166"/>
</g>
<g id="Shamir_Particles_1_">
	<g>
		<polygon fill="#7FBCD7" points="309.727,174.976 311.261,168.315 317.924,169.857 316.393,176.507 		"/>
		<polygon fill="#7FBCD7" points="315.782,179.182 316.412,176.499 319.094,177.113 318.465,179.794 		"/>
		<polygon fill="#7FBCD7" points="318.025,169.911 318.619,167.229 321.302,167.853 320.7,170.534 		"/>
		<polygon fill="#7FBCD7" points="308.68,167.782 309.31,165.101 311.991,165.72 311.362,168.4 		"/>
		<polygon fill="#7FBCD7" points="306.502,177.027 307.133,174.349 309.813,174.972 309.182,177.65 		"/>
	</g>
	<g>
		<polygon fill="#7FBCD7" points="191.428,166.832 194.267,156.246 204.853,159.075 202.013,169.661 		"/>
		<polygon fill="#7FBCD7" points="200.844,173.867 201.976,169.633 206.212,170.772 205.07,175 		"/>
		<polygon fill="#7FBCD7" points="204.787,159.099 205.914,154.862 210.154,155.999 209.012,160.226 		"/>
		<polygon fill="#7FBCD7" points="189.96,155.06 191.098,150.829 195.322,151.965 194.196,156.191 		"/>
		<polygon fill="#7FBCD7" points="186.002,169.915 187.145,165.684 191.371,166.823 190.247,171.052 		"/>
	</g>
	<g>
		<polygon fill="#7FBCD7" points="179.271,90.861 182.938,85.091 188.694,88.757 185.043,94.519 		"/>
		<polygon fill="#7FBCD7" points="183.618,96.832 185.088,94.503 187.412,95.985 185.935,98.308 		"/>
		<polygon fill="#7FBCD7" points="188.726,88.774 190.19,86.45 192.52,87.927 191.038,90.25 		"/>
		<polygon fill="#7FBCD7" points="180.639,83.633 182.116,81.306 184.444,82.784 182.962,85.103 		"/>
		<polygon fill="#7FBCD7" points="175.476,91.69 176.947,89.365 179.27,90.842 177.796,93.159 		"/>
	</g>
	<g>
		<polygon fill="#7FBCD7" points="260.199,65.491 261.098,62.823 263.766,63.693 262.865,66.356 		"/>
		
			<rect x="258.79" y="59.65" transform="matrix(-0.3086 0.9512 -0.9512 -0.3086 398.5536 -167.6001)" fill="#7FBCD7" width="2.801" height="2.806"/>
		<polygon fill="#7FBCD7" points="263.769,63.606 264.633,60.948 267.303,61.815 266.403,64.484 		"/>
		<polygon fill="#7FBCD7" points="256.661,67.222 257.51,64.563 260.178,65.43 259.313,68.097 		"/>
		
			<rect x="262.343" y="66.705" transform="matrix(-0.3083 0.9513 -0.9513 -0.3083 409.8375 -161.7968)" fill="#7FBCD7" width="2.8" height="2.806"/>
	</g>
	<g>
		<polygon fill="#7FBCD7" points="322.98,105.313 329.819,105.239 329.876,112.069 323.073,112.136 		"/>
		<polygon fill="#7FBCD7" points="329.876,112.076 332.647,112.043 332.67,114.798 329.897,114.821 		"/>
		<polygon fill="#7FBCD7" points="329.796,102.497 332.532,102.466 332.555,105.22 329.817,105.243 		"/>
		
			<rect x="320.272" y="102.634" transform="matrix(-1 0.0086 -0.0086 -1 644.1566 205.255)" fill="#7FBCD7" width="2.733" height="2.75"/>
		<polygon fill="#7FBCD7" points="320.374,112.179 323.107,112.148 323.13,114.898 320.397,114.933 		"/>
	</g>
</g>
</svg>
