<?xml version="1.0" encoding="utf-8"?>
<!-- Generator: Adobe Illustrator 16.0.0, SVG Export Plug-In . SVG Version: 6.00 Build 0)  -->
<!DOCTYPE svg PUBLIC "-//W3C//DTD SVG 1.1//EN" "http://www.w3.org/Graphics/SVG/1.1/DTD/svg11.dtd">
<svg version="1.1" id="forterra_shamir" xmlns="http://www.w3.org/2000/svg" xmlns:xlink="http://www.w3.org/1999/xlink" x="0px"
	 y="0px" width="511.475px" height="511.473px" viewBox="0 0 511.475 511.473" enable-background="new 0 0 511.475 511.473"
	 xml:space="preserve">
<rect fill="#FFFFFF" width="511.475" height="511.473"/>
<g id="Icon">
	<g id="Rays">
		<polygon fill="#A1CEE2" points="227.389,265.066 217.542,262.064 152.557,195.044 200.438,185.503 		"/>
		<polygon fill="#A1CEE2" points="311.166,286.434 316.438,280.437 383.87,219.833 382.695,249.75 		"/>
		<polygon fill="#A1CEE2" points="178.129,299.27 173.243,299.27 121.705,269.674 136.874,248.199 		"/>
		<polygon fill="#A1CEE2" points="283.305,259.544 271.122,266.648 299.716,174.752 325.146,181.412 		"/>
	</g>
	<g id="Pickaxe">
		<g>
			
				<rect x="327.922" y="306.883" transform="matrix(0.7071 -0.7071 0.7071 0.7071 -126.4578 330.844)" fill="#4AA0C7" width="16.379" height="22.357"/>
			<polygon fill="#4AA0C7" points="349.534,297.148 314.757,331.938 256.733,273.932 291.527,239.131 			"/>
			<polygon fill="#4AA0C7" points="256.739,273.934 198.718,331.936 163.927,297.156 221.929,239.139 			"/>
			<polygon fill="#4AA0C7" points="303.148,273.922 256.747,320.339 210.329,273.922 256.747,227.504 			"/>
			<polygon fill="#4AA0C7" points="189.844,317.599 175.498,331.934 163.909,320.349 178.258,305.982 			"/>
			<polygon fill="#4AA0C7" points="279.933,320.37 256.704,343.597 233.496,320.37 256.706,297.178 			"/>
			<polygon fill="#4AA0C7" points="279.931,343.611 256.702,366.798 233.498,343.605 256.708,320.382 			"/>
			<polygon fill="#4AA0C7" points="279.938,366.755 256.724,389.97 233.499,366.755 256.724,343.532 			"/>
			<polygon fill="#4AA0C7" points="279.935,390.003 256.708,413.193 233.498,390.002 256.707,366.777 			"/>
			<polygon fill="#4AA0C7" points="279.942,413.154 256.731,436.367 233.522,413.154 256.731,389.931 			"/>
			<polygon fill="#4AA0C7" points="279.807,436.477 256.598,459.703 233.389,436.478 256.599,413.287 			"/>
			<polygon fill="#4AA0C7" points="279.701,459.867 256.509,483.072 233.299,459.868 256.51,436.641 			"/>
		</g>
		<rect x="233.255" y="297.16" fill="#4AA0C7" width="46.864" height="23.222"/>
		<rect x="233.255" y="302.272" fill="#A1CEE2" width="46.864" height="13.317"/>
	</g>
	<g id="Particles">
	</g>
	<g id="Redstone_Dust">
		<g>
			<g>
				<rect x="146.415" y="182.23" fill="#4AA0C7" width="65.653" height="16.394"/>
				<rect x="151.888" y="176.759" fill="#4AA0C7" width="54.694" height="27.341"/>
				<rect x="157.362" y="171.282" fill="#4AA0C7" width="43.786" height="38.295"/>
				<rect x="162.839" y="165.838" fill="#4AA0C7" width="32.838" height="5.995"/>
				<rect x="168.316" y="160.366" fill="#4AA0C7" width="21.874" height="6.186"/>
				<rect x="173.758" y="154.89" fill="#4AA0C7" width="10.947" height="6.894"/>
				<rect x="168.316" y="208.398" fill="#4AA0C7" width="21.874" height="6.669"/>
			</g>
			<g>
				<rect x="168.316" y="165.838" fill="#A1CEE2" width="5.477" height="5.482"/>
				<rect x="162.839" y="193.186" fill="#A1CEE2" width="5.484" height="5.488"/>
				<rect x="179.232" y="182.23" fill="#A1CEE2" width="5.48" height="5.475"/>
				<rect x="195.674" y="176.759" fill="#A1CEE2" width="5.476" height="5.477"/>
				<rect x="195.674" y="198.673" fill="#A1CEE2" width="5.476" height="5.477"/>
				<rect x="151.888" y="182.23" fill="#A1CEE2" width="5.474" height="5.475"/>
			</g>
		</g>
	</g>
	<g id="Gold_Ingot">
		<g>
			<g>
				<rect x="382.695" y="212.652" fill="#4AA0C7" width="16.417" height="6.391"/>
				<rect x="377.216" y="218.133" fill="#4AA0C7" width="27.357" height="16.387"/>
				<rect x="403.216" y="223.617" fill="#4AA0C7" width="6.816" height="10.948"/>
				<rect x="382.695" y="233.383" fill="#4AA0C7" width="21.874" height="17.609"/>
				<rect x="388.165" y="248.719" fill="#4AA0C7" width="10.947" height="7.734"/>
			</g>
			<g>
				<rect x="388.165" y="218.133" fill="#7FBCD7" width="5.492" height="5.487"/>
				<rect x="382.695" y="223.617" fill="#7FBCD7" width="5.47" height="10.948"/>
			</g>
		</g>
	</g>
	<g id="Iron_Ingot">
		<g>
			<g>
				<rect x="107.434" y="253.724" fill="#4AA0C7" width="6.31" height="16.393"/>
				<rect x="112.917" y="248.249" fill="#4AA0C7" width="16.395" height="27.322"/>
				<rect x="118.393" y="242.757" fill="#4AA0C7" width="10.95" height="6.154"/>
				<rect x="128.444" y="248.249" fill="#4AA0C7" width="17.296" height="21.869"/>
				<rect x="144.402" y="253.724" fill="#4AA0C7" width="6.78" height="10.964"/>
			</g>
			<g>
				<rect x="112.917" y="259.168" fill="#7FBCD7" width="5.478" height="5.458"/>
				<rect x="118.393" y="253.724" fill="#7FBCD7" width="10.95" height="5.475"/>
			</g>
		</g>
		<g>
			<g>
				<rect x="292.044" y="172.802" fill="#4AA0C7" width="6.816" height="16.436"/>
				<rect x="297.537" y="167.364" fill="#4AA0C7" width="16.441" height="27.353"/>
				<rect x="303.026" y="161.88" fill="#4AA0C7" width="10.952" height="6.814"/>
				<rect x="313.032" y="167.364" fill="#4AA0C7" width="17.326" height="21.874"/>
				<rect x="329.721" y="172.802" fill="#4AA0C7" width="6.123" height="10.952"/>
			</g>
			<g>
				<rect x="297.537" y="178.273" fill="#7FBCD7" width="5.489" height="5.478"/>
				<rect x="303.026" y="172.802" fill="#7FBCD7" width="10.952" height="5.476"/>
			</g>
		</g>
	</g>
</g>
<g id="Shamir">
	<rect id="Cast" x="223.912" y="53.095" fill="#3D83A3" width="67.713" height="67.718"/>
	<rect id="Band" x="217.386" y="74.141" fill="#7FBCD7" width="80.102" height="22.166"/>
</g>
<g id="Shamir_Particles">
	<g>
		<polygon fill="#7FBCD7" points="311.637,139.602 313.171,132.941 319.834,134.483 318.303,141.133 		"/>
		<polygon fill="#7FBCD7" points="317.692,143.808 318.322,141.125 321.004,141.739 320.375,144.419 		"/>
		<polygon fill="#7FBCD7" points="319.936,134.537 320.529,131.855 323.212,132.479 322.61,135.161 		"/>
		<polygon fill="#7FBCD7" points="310.59,132.408 311.22,129.727 313.901,130.345 313.272,133.026 		"/>
		<polygon fill="#7FBCD7" points="308.412,141.653 309.043,138.974 311.724,139.598 311.092,142.276 		"/>
	</g>
	<g>
		<polygon fill="#7FBCD7" points="193.338,131.458 196.177,120.872 206.763,123.701 203.923,134.287 		"/>
		<polygon fill="#7FBCD7" points="202.754,138.493 203.886,134.259 208.123,135.398 206.98,139.626 		"/>
		<polygon fill="#7FBCD7" points="206.697,123.725 207.824,119.489 212.064,120.625 210.922,124.852 		"/>
		<polygon fill="#7FBCD7" points="191.87,119.686 193.008,115.455 197.232,116.591 196.106,120.817 		"/>
		<polygon fill="#7FBCD7" points="187.913,134.542 189.055,130.31 193.281,131.449 192.157,135.678 		"/>
	</g>
	<g>
		<polygon fill="#7FBCD7" points="181.182,55.487 184.848,49.717 190.604,53.383 186.954,59.145 		"/>
		<polygon fill="#7FBCD7" points="185.528,61.458 186.998,59.129 189.322,60.611 187.845,62.934 		"/>
		<polygon fill="#7FBCD7" points="190.636,53.4 192.101,51.076 194.43,52.553 192.948,54.876 		"/>
		<polygon fill="#7FBCD7" points="182.549,48.259 184.026,45.932 186.354,47.41 184.872,49.728 		"/>
		<polygon fill="#7FBCD7" points="177.386,56.317 178.857,53.991 181.18,55.468 179.706,57.786 		"/>
	</g>
	<g>
		<polygon fill="#7FBCD7" points="262.109,30.117 263.008,27.45 265.676,28.319 264.775,30.983 		"/>
		
			<rect x="260.7" y="24.276" transform="matrix(-0.3086 0.9512 -0.9512 -0.3086 367.4182 -215.7015)" fill="#7FBCD7" width="2.8" height="2.806"/>
		<polygon fill="#7FBCD7" points="265.679,28.232 266.543,25.574 269.213,26.442 268.313,29.11 		"/>
		<polygon fill="#7FBCD7" points="258.571,31.848 259.42,29.188 262.088,30.056 261.224,32.723 		"/>
		
			<rect x="264.254" y="31.331" transform="matrix(-0.3083 0.9513 -0.9513 -0.3083 378.6982 -209.8865)" fill="#7FBCD7" width="2.8" height="2.806"/>
	</g>
	<g>
		<polygon fill="#7FBCD7" points="324.891,69.94 331.729,69.866 331.786,76.695 324.983,76.762 		"/>
		<polygon fill="#7FBCD7" points="331.786,76.702 334.558,76.669 334.58,79.424 331.808,79.447 		"/>
		<polygon fill="#7FBCD7" points="331.706,67.123 334.442,67.092 334.465,69.846 331.728,69.87 		"/>
		<polygon fill="#7FBCD7" points="322.17,67.271 324.902,67.248 324.927,69.998 322.191,70.026 		"/>
		<polygon fill="#7FBCD7" points="322.284,76.804 325.018,76.774 325.04,79.524 322.308,79.558 		"/>
	</g>
</g>
</svg>
