<?xml version="1.0" encoding="utf-8"?>
<!-- Generator: Adobe Illustrator 16.0.0, SVG Export Plug-In . SVG Version: 6.00 Build 0)  -->
<!DOCTYPE svg PUBLIC "-//W3C//DTD SVG 1.1//EN" "http://www.w3.org/Graphics/SVG/1.1/DTD/svg11.dtd">
<svg version="1.1" id="hypexperia_shamir" xmlns="http://www.w3.org/2000/svg" xmlns:xlink="http://www.w3.org/1999/xlink" x="0px"
	 y="0px" width="511.475px" height="511.473px" viewBox="0 0 511.475 511.473" enable-background="new 0 0 511.475 511.473"
	 xml:space="preserve">
<rect fill="#FFFFFF" width="511.475" height="511.473"/>
<g id="Icon">
	<g id="Shamir">
		<rect id="Cast" x="187.084" y="188.399" fill="#4AA0C7" width="150.538" height="150.526"/>
		<rect id="Band" x="172.573" y="235.118" fill="#7FBCD7" width="178.046" height="49.307"/>
	</g>
	<g id="XP_Orbs">
		<g>
			<polygon fill="#4AA0C7" points="153.896,352.328 129.907,365.898 119.714,347.922 143.705,334.332 			"/>
			<polygon fill="#4AA0C7" points="152.591,357.027 134.604,367.203 121.017,343.226 139.007,333.033 			"/>
			<polygon fill="#7FBCD7" points="149.2,351.028 131.208,361.206 124.411,349.213 142.404,339.03 			"/>
			<polygon fill="#7FBCD7" points="147.886,355.736 135.893,362.521 125.7,344.542 137.695,337.74 			"/>
			
				<rect x="129.893" y="346.71" transform="matrix(0.8698 -0.4933 0.4933 0.8698 -154.9402 113.0598)" fill="#DBECF4" width="13.791" height="6.89"/>
			<polygon fill="#DBECF4" points="143.191,354.434 137.193,357.825 130.401,345.828 136.397,342.438 			"/>
		</g>
		<g>
			<polygon fill="#4AA0C7" points="274.191,383.086 256.907,385.335 254.65,368.047 271.923,365.799 			"/>
			<polygon fill="#4AA0C7" points="272.407,385.906 259.434,387.585 256.512,365.165 269.484,363.489 			"/>
			<polygon fill="#4AA0C7" points="276.522,380.532 254.094,383.457 252.404,370.507 274.821,367.583 			"/>
			<polygon fill="#7FBCD7" points="273.916,380.911 256.631,383.154 254.943,370.205 272.216,367.938 			"/>
			<polygon fill="#7FBCD7" points="272.047,383.327 259.096,385.028 256.828,367.745 269.804,366.044 			"/>
			<polygon fill="#DBECF4" points="269.332,379.305 260.689,380.434 259.553,371.788 268.195,370.659 			"/>
		</g>
		<g>
			
				<rect x="140.514" y="86.916" transform="matrix(0.9337 -0.358 0.358 0.9337 -25.0781 62.6726)" fill="#4AA0C7" width="32.371" height="24.28"/>
			
				<rect x="144.558" y="82.867" transform="matrix(0.9337 -0.3581 0.3581 0.9337 -25.0803 62.6841)" fill="#4AA0C7" width="24.277" height="32.376"/>
			<polygon fill="#7FBCD7" points="170.937,102.264 148.265,110.961 142.468,95.847 165.143,87.155 			"/>
			
				<rect x="148.607" y="86.915" transform="matrix(0.9337 -0.3581 0.3581 0.9337 -25.0805 62.6874)" fill="#7FBCD7" width="16.183" height="24.278"/>
			<polygon fill="#DBECF4" points="165.692,99.935 150.586,105.729 147.687,98.176 162.802,92.38 			"/>
			<polygon fill="#DBECF4" points="163.389,105.131 155.829,108.031 150.034,92.917 157.59,90.022 			"/>
		</g>
		<g>
			<polygon fill="#4AA0C7" points="355.893,421.104 332.817,436.438 321.337,419.142 344.396,403.807 			"/>
			<polygon fill="#4AA0C7" points="354.943,425.803 337.646,437.306 322.313,414.223 339.625,402.743 			"/>
			<polygon fill="#7FBCD7" points="351.106,420.072 333.809,431.569 326.138,420.038 343.452,408.548 			"/>
			<polygon fill="#7FBCD7" points="350.118,424.917 338.579,432.589 327.096,415.291 338.635,407.62 			"/>
			<polygon fill="#DBECF4" points="346.274,419.109 334.735,426.773 330.906,421.008 342.445,413.335 			"/>
			<polygon fill="#DBECF4" points="345.387,423.938 339.61,427.768 331.953,416.23 337.729,412.405 			"/>
		</g>
		<g>
			<polygon fill="#4AA0C7" points="246.947,138.972 240.551,150.667 224.963,142.154 231.354,130.458 			"/>
			<polygon fill="#4AA0C7" points="246.072,135.946 237.548,151.537 225.864,145.147 234.375,129.562 			"/>
			<polygon fill="#7FBCD7" points="243.909,139.862 239.653,147.662 227.956,141.278 232.223,133.477 			"/>
			
				<rect x="229.301" y="136.103" transform="matrix(0.4795 -0.8775 0.8775 0.4795 -0.5121 280.2221)" fill="#7FBCD7" width="13.323" height="8.879"/>
			<polygon fill="#DBECF4" points="240.912,140.741 238.786,144.644 230.993,140.383 233.12,136.486 			"/>
			<polygon fill="#DBECF4" points="240.058,137.713 235.791,145.51 231.897,143.38 236.153,135.586 			"/>
		</g>
		<g>
			<polygon fill="#4AA0C7" points="395.877,263.926 386.683,271.093 377.13,258.826 386.316,251.671 			"/>
			
				<rect x="378.702" y="255.581" transform="matrix(0.7891 -0.6143 0.6143 0.7891 -79.0686 292.5383)" fill="#4AA0C7" width="15.537" height="11.662"/>
			<polygon fill="#7FBCD7" points="393.119,263.632 386.984,268.417 379.819,259.216 385.955,254.442 			"/>
			<polygon fill="#7FBCD7" points="393.418,260.843 384.214,268.008 379.43,261.874 388.635,254.721 			"/>
			
				<rect x="384.55" y="257.556" transform="matrix(0.7899 -0.6133 0.6133 0.7899 -79.12 291.9634)" fill="#DBECF4" width="3.882" height="7.765"/>
			
				<rect x="382.567" y="259.382" transform="matrix(0.7898 -0.6133 0.6133 0.7898 -79.0587 291.9282)" fill="#DBECF4" width="7.761" height="3.887"/>
		</g>
		<g>
			<polygon fill="#4AA0C7" points="193.349,457.569 164.186,463.879 157.871,434.717 187.04,428.408 			"/>
			<polygon fill="#4AA0C7" points="196.87,453.006 159.048,461.192 154.318,439.32 192.132,431.137 			"/>
			<polygon fill="#4AA0C7" points="190.643,462.683 168.765,467.417 160.582,429.594 182.456,424.868 			"/>
			
				<rect x="164.402" y="431.243" transform="matrix(0.9774 -0.2114 0.2114 0.9774 -90.3602 47.2108)" fill="#7FBCD7" width="22.383" height="29.836"/>
			<polygon fill="#7FBCD7" points="192.556,453.928 163.395,460.246 158.657,438.369 187.822,432.06 			"/>
			<polygon fill="#DBECF4" points="184.474,451.871 169.887,455.037 166.734,440.444 181.315,437.303 			"/>
		</g>
		<g>
			<polygon fill="#4AA0C7" points="425.906,131.977 410.459,153.778 388.648,138.338 404.103,116.533 			"/>
			<polygon fill="#4AA0C7" points="425.466,126.792 405.438,155.073 389.074,143.493 409.109,115.211 			"/>
			
				<rect x="397.235" y="117.799" transform="matrix(0.5779 -0.8161 0.8161 0.5779 61.6099 389.3807)" fill="#4AA0C7" width="20.035" height="34.655"/>
			
				<rect x="397.238" y="121.773" transform="matrix(0.5778 -0.8161 0.8161 0.5778 61.6362 389.4316)" fill="#7FBCD7" width="20.039" height="26.726"/>
			<polygon fill="#7FBCD7" points="423.166,130.024 407.712,151.834 391.37,140.254 406.802,118.444 			"/>
			<polygon fill="#DBECF4" points="416.577,133.539 408.847,144.446 397.95,136.721 405.661,125.816 			"/>
		</g>
		<g>
			<polygon fill="#4AA0C7" points="79.909,258.376 75.839,283.693 50.53,279.619 54.597,254.314 			"/>
			<polygon fill="#4AA0C7" points="77.347,254.113 72.071,286.935 53.088,283.881 58.366,251.07 			"/>
			
				<rect x="55.594" y="252.372" transform="matrix(0.1588 -0.9873 0.9873 0.1588 -210.7249 290.653)" fill="#4AA0C7" width="19.235" height="33.244"/>
			<polygon fill="#7FBCD7" points="79.396,261.529 76.345,280.497 51.033,276.447 54.085,257.455 			"/>
			<polygon fill="#7FBCD7" points="76.74,257.865 72.675,283.182 53.692,280.127 57.756,254.81 			"/>
			<polygon fill="#DBECF4" points="72.551,263.703 70.52,276.347 57.87,274.311 59.902,261.666 			"/>
		</g>
		<g>
			
				<rect x="136.289" y="234.428" transform="matrix(0.8678 -0.4969 0.4969 0.8678 -101.4505 103.8514)" fill="#4AA0C7" width="16.357" height="16.356"/>
			
				<rect x="138.347" y="232.001" transform="matrix(0.8678 -0.4969 0.4969 0.8678 -101.4454 103.8512)" fill="#4AA0C7" width="12.258" height="21.203"/>
			<polygon fill="#4AA0C7" points="156.731,242.651 138.329,253.189 132.234,242.538 150.637,232.011 			"/>
			<polygon fill="#7FBCD7" points="154.609,243.879 140.414,252.006 134.322,241.354 148.514,233.227 			"/>
			
				<rect x="138.331" y="234.44" transform="matrix(0.8679 -0.4967 0.4967 0.8679 -101.4338 103.81)" fill="#7FBCD7" width="12.264" height="16.354"/>
			
				<rect x="140.395" y="238.527" transform="matrix(0.8678 -0.4969 0.4969 0.8678 -101.4628 103.8793)" fill="#DBECF4" width="8.177" height="8.173"/>
		</g>
		<g>
			<polygon fill="#4AA0C7" points="463.583,307.607 443.61,318.525 432.707,298.567 452.667,287.649 			"/>
			<polygon fill="#4AA0C7" points="465.127,303.486 439.235,317.641 431.06,302.67 456.958,288.516 			"/>
			<polygon fill="#4AA0C7" points="462.735,311.924 447.763,320.106 433.612,294.2 448.595,286.019 			"/>
			<polygon fill="#7FBCD7" points="461.083,308.979 446.11,317.156 435.202,297.177 450.172,288.994 			"/>
			<polygon fill="#7FBCD7" points="462.216,305.129 442.244,316.039 434.063,301.072 454.038,290.153 			"/>
			<polygon fill="#DBECF4" points="455.836,305.363 445.851,310.812 440.396,300.83 450.378,295.381 			"/>
		</g>
		<g>
			<polygon fill="#4AA0C7" points="317.552,51.572 313.071,88.226 276.422,83.758 280.901,47.104 			"/>
			
				<rect x="283.158" y="43.735" transform="matrix(0.1211 -0.9926 0.9926 0.1211 193.8596 354.2971)" fill="#4AA0C7" width="27.697" height="47.877"/>
			<polygon fill="#4AA0C7" points="313.628,45.572 307.837,93.107 280.348,89.757 286.128,42.22 			"/>
			<polygon fill="#7FBCD7" points="312.988,51.021 308.508,87.679 281.009,84.328 285.489,47.669 			"/>
			
				<rect x="283.146" y="49.214" transform="matrix(0.1211 -0.9926 0.9926 0.1211 193.8512 354.2862)" fill="#7FBCD7" width="27.698" height="36.919"/>
			<polygon fill="#DBECF4" points="307.287,59.631 305.038,77.958 286.714,75.72 288.965,57.394 			"/>
		</g>
	</g>
</g>
</svg>
