<?xml version="1.0" encoding="utf-8"?>
<!-- Generator: Adobe Illustrator 16.0.0, SVG Export Plug-In . SVG Version: 6.00 Build 0)  -->
<!DOCTYPE svg PUBLIC "-//W3C//DTD SVG 1.1//EN" "http://www.w3.org/Graphics/SVG/1.1/DTD/svg11.dtd">
<svg version="1.1" id="levity_shamir" xmlns="http://www.w3.org/2000/svg" xmlns:xlink="http://www.w3.org/1999/xlink" x="0px"
	 y="0px" width="511.475px" height="511.473px" viewBox="0 0 511.475 511.473" enable-background="new 0 0 511.475 511.473"
	 xml:space="preserve">
<rect fill="#FFFFFF" width="511.475" height="511.473"/>
<g id="Icon">
	<g id="Boots">
		<g>
			<g>
				<rect x="131.76" y="187.505" fill="#4AA0C7" width="101.034" height="202.079"/>
				<rect x="106.497" y="313.8" fill="#4AA0C7" width="75.772" height="101.042"/>
				<rect x="81.24" y="339.066" fill="#4AA0C7" width="29.84" height="75.775"/>
				<rect x="157.015" y="162.249" fill="#4AA0C7" width="75.779" height="28.937"/>
			</g>
			<g>
				<rect x="283.304" y="187.505" fill="#4AA0C7" width="101.048" height="202.079"/>
				<rect x="333.83" y="313.8" fill="#4AA0C7" width="75.775" height="101.042"/>
				<rect x="405.691" y="339.066" fill="#4AA0C7" width="29.168" height="75.775"/>
				<rect x="283.304" y="162.249" fill="#4AA0C7" width="75.788" height="29.417"/>
			</g>
		</g>
		<g>
			<g>
				<rect x="106.497" y="339.066" fill="#80BCD8" width="25.263" height="25.261"/>
				<rect x="157.015" y="187.505" fill="#80BCD8" width="50.518" height="126.294"/>
				<rect x="131.76" y="313.8" fill="#80BCD8" width="25.252" height="25.269"/>
			</g>
			<g>
				<rect x="384.347" y="339.066" fill="#80BCD8" width="25.259" height="25.261"/>
				<rect x="308.567" y="187.505" fill="#80BCD8" width="50.521" height="126.294"/>
				<rect x="359.092" y="313.8" fill="#80BCD8" width="25.26" height="25.269"/>
			</g>
		</g>
		<g>
			<rect x="157.015" y="187.505" fill="#FFFFFF" width="25.26" height="25.263"/>
			<rect x="308.567" y="187.505" fill="#FFFFFF" width="25.263" height="25.263"/>
		</g>
		<g>
			<rect x="131.76" y="238.12" fill="#A1CEE2" width="101.034" height="27.646"/>
			<rect x="283.202" y="238.12" fill="#A1CEE2" width="101.05" height="27.646"/>
		</g>
	</g>
	<g id="Particles">
		<g id="Particle">
			<rect x="61.759" y="406.279" fill="#A1CEE2" width="12.604" height="12.664"/>
			<rect x="61.759" y="431.543" fill="#A1CEE2" width="12.604" height="12.666"/>
			<rect x="74.364" y="418.945" fill="#A1CEE2" width="50.518" height="12.653"/>
			<rect x="87.019" y="429.406" fill="#A1CEE2" width="12.601" height="14.803"/>
			<rect x="87.019" y="403.858" fill="#A1CEE2" width="25.261" height="17.374"/>
			<rect x="74.364" y="381.036" fill="#A1CEE2" width="12.605" height="13.559"/>
			<rect x="74.364" y="393.684" fill="#A1CEE2" width="50.518" height="12.652"/>
			<rect x="99.619" y="381.036" fill="#A1CEE2" width="12.609" height="13.928"/>
		</g>
		<g id="Particle_9_">
			<rect x="146.846" y="381.369" fill="#A1CEE2" width="9.404" height="9.396"/>
			<rect x="146.846" y="400.125" fill="#A1CEE2" width="9.404" height="9.414"/>
			<rect x="156.205" y="390.729" fill="#A1CEE2" width="37.528" height="9.397"/>
			<rect x="165.61" y="398.509" fill="#A1CEE2" width="9.405" height="11.03"/>
			<rect x="165.61" y="379.509" fill="#A1CEE2" width="18.764" height="12.929"/>
			<rect x="156.205" y="362.604" fill="#A1CEE2" width="9.406" height="10.075"/>
			<rect x="156.205" y="371.962" fill="#A1CEE2" width="37.528" height="9.407"/>
			<rect x="175.016" y="362.604" fill="#A1CEE2" width="9.405" height="10.358"/>
		</g>
		<g id="Particle_1_">
			<rect x="128.368" y="429.122" fill="#A1CEE2" width="10.553" height="10.543"/>
			<rect x="128.368" y="450.221" fill="#A1CEE2" width="10.553" height="10.559"/>
			<rect x="138.919" y="439.658" fill="#A1CEE2" width="42.211" height="10.563"/>
			<rect x="149.469" y="448.405" fill="#A1CEE2" width="10.552" height="12.371"/>
			<rect x="149.469" y="427.059" fill="#A1CEE2" width="21.111" height="14.519"/>
			<rect x="138.919" y="408.009" fill="#A1CEE2" width="10.551" height="11.361"/>
			<rect x="138.919" y="418.556" fill="#A1CEE2" width="42.211" height="10.566"/>
			<rect x="160.021" y="408.009" fill="#A1CEE2" width="10.56" height="11.65"/>
		</g>
		<g id="Particle_2_">
			<rect x="186.289" y="401.475" fill="#A1CEE2" width="9.021" height="9.019"/>
			<rect x="186.289" y="419.56" fill="#A1CEE2" width="9.021" height="9.03"/>
			<rect x="195.311" y="410.545" fill="#A1CEE2" width="36.148" height="9.015"/>
			<rect x="204.328" y="417.983" fill="#A1CEE2" width="9.026" height="10.608"/>
			<rect x="204.328" y="399.698" fill="#A1CEE2" width="18.096" height="12.463"/>
			<rect x="195.311" y="383.422" fill="#A1CEE2" width="9.019" height="9.729"/>
			<rect x="195.311" y="392.438" fill="#A1CEE2" width="36.148" height="9.035"/>
			<rect x="213.402" y="383.422" fill="#A1CEE2" width="9.021" height="9.977"/>
		</g>
		<g id="Particle_3_">
			<rect x="236.177" y="387.135" fill="#A1CEE2" width="11.032" height="11.033"/>
			<rect x="236.177" y="409.158" fill="#A1CEE2" width="11.032" height="11.033"/>
			<rect x="247.207" y="398.131" fill="#A1CEE2" width="44.07" height="11.028"/>
			<rect x="258.185" y="407.295" fill="#A1CEE2" width="11.033" height="12.934"/>
			<rect x="258.185" y="385.001" fill="#A1CEE2" width="22.062" height="15.182"/>
			<rect x="247.207" y="365.076" fill="#A1CEE2" width="11.045" height="11.847"/>
			<rect x="247.207" y="376.107" fill="#A1CEE2" width="44.07" height="11.03"/>
			<rect x="269.214" y="365.076" fill="#A1CEE2" width="11.032" height="12.179"/>
		</g>
		<g>
			<polygon fill="#A1CEE2" points="454.221,404.989 454.221,392.105 454.218,392.105 454.218,379.194 441.331,379.194 
				441.331,392.105 428.389,392.105 428.389,379.194 415.507,379.194 415.507,392.105 402.605,392.105 402.605,404.989 
				415.507,404.989 415.507,417.927 402.605,417.927 402.605,430.82 428.389,430.82 428.389,443.702 441.277,443.702 
				441.277,430.82 454.221,430.82 454.221,417.927 441.331,417.927 441.331,404.989 454.22,404.989 454.22,417.868 467.113,417.868 
				467.113,404.989 			"/>
			<rect x="454.22" y="430.822" fill="#A1CEE2" width="12.894" height="12.879"/>
		</g>
		<g id="Particle_6_">
			<rect x="289.852" y="402.568" fill="#A1CEE2" width="9.538" height="9.547"/>
			<rect x="270.744" y="402.568" fill="#A1CEE2" width="9.567" height="9.547"/>
			<rect x="280.312" y="412.161" fill="#A1CEE2" width="9.54" height="38.24"/>
			<rect x="270.744" y="421.72" fill="#A1CEE2" width="11.24" height="9.538"/>
			<rect x="288.14" y="421.72" fill="#A1CEE2" width="13.131" height="19.097"/>
			<rect x="308.281" y="412.114" fill="#A1CEE2" width="10.264" height="9.556"/>
			<rect x="299.455" y="412.114" fill="#A1CEE2" width="9.54" height="38.25"/>
			<rect x="307.996" y="431.22" fill="#A1CEE2" width="10.549" height="9.54"/>
		</g>
		<g id="Particle_7_">
			<rect x="313.394" y="370.436" fill="#A1CEE2" width="9.013" height="9.017"/>
			<rect x="313.394" y="388.523" fill="#A1CEE2" width="9.013" height="9.035"/>
			<rect x="322.409" y="379.451" fill="#A1CEE2" width="36.15" height="9.036"/>
			<rect x="331.444" y="386.958" fill="#A1CEE2" width="9.003" height="10.602"/>
			<rect x="331.444" y="368.668" fill="#A1CEE2" width="18.079" height="12.455"/>
			<rect x="322.409" y="352.336" fill="#A1CEE2" width="9.035" height="9.753"/>
			<rect x="322.409" y="361.409" fill="#A1CEE2" width="36.15" height="9.022"/>
			<rect x="340.518" y="352.336" fill="#A1CEE2" width="9.006" height="9.973"/>
		</g>
	</g>
</g>
<g id="Particle_4_">
	<rect x="347.07" y="417.09" fill="#A1CEE2" width="11.353" height="11.366"/>
	<rect x="347.07" y="439.824" fill="#A1CEE2" width="11.353" height="11.366"/>
	<rect x="358.423" y="428.457" fill="#A1CEE2" width="45.403" height="11.367"/>
	<rect x="369.738" y="437.862" fill="#A1CEE2" width="11.363" height="13.328"/>
	<rect x="369.738" y="414.9" fill="#A1CEE2" width="22.682" height="15.617"/>
	<rect x="358.423" y="394.406" fill="#A1CEE2" width="11.355" height="12.236"/>
	<rect x="358.423" y="405.775" fill="#A1CEE2" width="45.403" height="11.364"/>
	<rect x="381.102" y="394.406" fill="#A1CEE2" width="11.372" height="12.522"/>
</g>
<g id="Shamir">
	<rect id="Cast" x="223.912" y="53.095" fill="#3D83A3" width="67.713" height="67.718"/>
	<rect id="Band" x="217.386" y="74.141" fill="#7FBCD7" width="80.102" height="22.166"/>
</g>
<g id="Shamir_Particles">
	<g>
		<polygon fill="#7FBCD7" points="311.637,139.602 313.171,132.941 319.834,134.483 318.303,141.133 		"/>
		<polygon fill="#7FBCD7" points="317.692,143.808 318.322,141.125 321.004,141.739 320.375,144.419 		"/>
		<polygon fill="#7FBCD7" points="319.936,134.537 320.529,131.855 323.212,132.479 322.61,135.161 		"/>
		<polygon fill="#7FBCD7" points="310.59,132.408 311.22,129.727 313.901,130.345 313.272,133.026 		"/>
		<polygon fill="#7FBCD7" points="308.412,141.653 309.043,138.974 311.724,139.598 311.092,142.276 		"/>
	</g>
	<g>
		<polygon fill="#7FBCD7" points="193.338,131.458 196.177,120.872 206.763,123.701 203.923,134.287 		"/>
		<polygon fill="#7FBCD7" points="202.754,138.493 203.886,134.259 208.123,135.398 206.98,139.626 		"/>
		<polygon fill="#7FBCD7" points="206.697,123.725 207.824,119.489 212.064,120.625 210.922,124.852 		"/>
		<polygon fill="#7FBCD7" points="191.87,119.686 193.008,115.455 197.232,116.591 196.106,120.817 		"/>
		<polygon fill="#7FBCD7" points="187.913,134.542 189.055,130.31 193.281,131.449 192.157,135.678 		"/>
	</g>
	<g>
		<polygon fill="#7FBCD7" points="181.182,55.487 184.848,49.717 190.604,53.383 186.954,59.145 		"/>
		<polygon fill="#7FBCD7" points="185.528,61.458 186.998,59.129 189.322,60.611 187.845,62.934 		"/>
		<polygon fill="#7FBCD7" points="190.636,53.4 192.101,51.076 194.43,52.553 192.948,54.876 		"/>
		<polygon fill="#7FBCD7" points="182.549,48.259 184.026,45.932 186.354,47.41 184.872,49.728 		"/>
		<polygon fill="#7FBCD7" points="177.386,56.317 178.857,53.991 181.18,55.468 179.706,57.786 		"/>
	</g>
	<g>
		<polygon fill="#7FBCD7" points="262.109,30.117 263.008,27.45 265.676,28.319 264.775,30.983 		"/>
		
			<rect x="260.7" y="24.276" transform="matrix(-0.3086 0.9512 -0.9512 -0.3086 367.4182 -215.7015)" fill="#7FBCD7" width="2.8" height="2.806"/>
		<polygon fill="#7FBCD7" points="265.679,28.232 266.543,25.574 269.213,26.442 268.313,29.11 		"/>
		<polygon fill="#7FBCD7" points="258.571,31.848 259.42,29.188 262.088,30.056 261.224,32.723 		"/>
		
			<rect x="264.254" y="31.331" transform="matrix(-0.3083 0.9513 -0.9513 -0.3083 378.6982 -209.8865)" fill="#7FBCD7" width="2.8" height="2.806"/>
	</g>
	<g>
		<polygon fill="#7FBCD7" points="324.891,69.94 331.729,69.866 331.786,76.695 324.983,76.762 		"/>
		<polygon fill="#7FBCD7" points="331.786,76.702 334.558,76.669 334.58,79.424 331.808,79.447 		"/>
		<polygon fill="#7FBCD7" points="331.706,67.123 334.442,67.092 334.465,69.846 331.728,69.87 		"/>
		<polygon fill="#7FBCD7" points="322.17,67.271 324.902,67.248 324.927,69.998 322.191,70.026 		"/>
		<polygon fill="#7FBCD7" points="322.284,76.804 325.018,76.774 325.04,79.524 322.308,79.558 		"/>
	</g>
</g>
</svg>
