<?xml version="1.0" encoding="utf-8"?>
<!-- Generator: Adobe Illustrator 16.0.0, SVG Export Plug-In . SVG Version: 6.00 Build 0)  -->
<!DOCTYPE svg PUBLIC "-//W3C//DTD SVG 1.1//EN" "http://www.w3.org/Graphics/SVG/1.1/DTD/svg11.dtd">
<svg version="1.1" id="metallurgy" xmlns="http://www.w3.org/2000/svg" xmlns:xlink="http://www.w3.org/1999/xlink" x="0px" y="0px"
	 width="511.473px" height="511.473px" viewBox="0 0 511.473 511.473" enable-background="new 0 0 511.473 511.473"
	 xml:space="preserve">
<rect fill="#FFFFFF" width="511.473" height="511.473"/>
<g id="Icon">
	<g id="Pickaxe">
		<g>
			<polygon fill="#4AA0C7" points="319.862,231.762 330.644,220.961 345.371,235.689 334.575,246.49 			"/>
			<polygon fill="#4AA0C7" points="258.68,192.641 291.08,160.22 345.129,214.262 312.703,246.683 			"/>
			<polygon fill="#4AA0C7" points="172.204,214.262 226.241,160.22 258.678,192.642 204.623,246.684 			"/>
			<polygon fill="#4AA0C7" points="215.436,192.633 258.691,149.39 301.934,192.632 258.69,235.875 			"/>
			
				<rect x="174.824" y="226.961" transform="matrix(-0.7074 0.7069 -0.7069 -0.7074 480.4536 270.2757)" fill="#4AA0C7" width="18.909" height="15.266"/>
			<polygon fill="#4AA0C7" points="237.027,235.868 258.668,214.246 280.29,235.869 258.668,257.49 			"/>
			<polygon fill="#4AA0C7" points="237.029,257.512 258.668,235.891 280.291,257.515 258.671,279.135 			"/>
			<polygon fill="#4AA0C7" points="237.026,279.128 258.666,257.508 280.29,279.131 258.67,300.752 			"/>
			<polygon fill="#4AA0C7" points="237.03,300.733 258.67,279.111 280.292,300.733 258.67,322.354 			"/>
			<polygon fill="#4AA0C7" points="237.031,322.343 258.672,300.721 280.293,322.342 258.671,343.964 			"/>
			
				<rect x="243.256" y="328.741" transform="matrix(-0.7071 0.7071 -0.7071 -0.7071 684.6284 404.4762)" fill="#4AA0C7" width="30.577" height="30.578"/>
			<polygon fill="#4AA0C7" points="236.83,365.836 258.433,344.213 280.056,365.836 258.434,387.46 			"/>
		</g>
		<rect x="236.815" y="214.262" fill="#4AA0C7" width="43.654" height="21.651"/>
		<rect x="236.815" y="219.028" fill="#A1CEE2" width="43.654" height="12.405"/>
	</g>
	<g id="Shamirs">
		<g id="Shamir">
			<rect id="Cast" x="334.343" y="75.618" fill="#3D83A3" width="36.09" height="36.081"/>
			<rect id="Band" x="330.856" y="83.144" fill="#7FBCD7" width="42.691" height="15.68"/>
		</g>
		<g id="Shamir_1_">
			<rect id="Cast_1_" x="419.215" y="240.821" fill="#3D83A3" width="36.067" height="36.068"/>
			<rect id="Band_1_" x="415.727" y="248.352" fill="#7FBCD7" width="42.692" height="15.674"/>
		</g>
		<g id="Shamir_2_">
			<rect id="Cast_2_" x="334.364" y="403.538" fill="#3D83A3" width="36.106" height="36.067"/>
			<rect id="Band_2_" x="330.914" y="411.057" fill="#7FBCD7" width="42.662" height="15.688"/>
		</g>
		<g id="Shamir_3_">
			<rect id="Cast_3_" x="145.606" y="403.938" fill="#3D83A3" width="36.074" height="36.068"/>
			<rect id="Band_3_" x="142.126" y="411.471" fill="#7FBCD7" width="42.686" height="15.675"/>
		</g>
		<g id="Shamir_4_">
			<rect id="Cast_4_" x="60.882" y="240.952" fill="#3D83A3" width="36.075" height="36.068"/>
			<rect id="Band_4_" x="57.4" y="248.464" fill="#7FBCD7" width="42.686" height="15.693"/>
		</g>
		<g id="Shamir_5_">
			<rect id="Cast_5_" x="145.714" y="75.967" fill="#3D83A3" width="36.085" height="36.08"/>
			<rect id="Band_5_" x="142.238" y="83.492" fill="#7FBCD7" width="42.68" height="15.681"/>
		</g>
	</g>
	<g id="Particles">
		<g>
			<polygon fill="#7FBCD7" points="395.436,272.288 397.338,271.762 397.864,273.678 395.962,274.205 			"/>
			
				<rect x="398.035" y="273.396" transform="matrix(-0.964 0.2657 -0.2657 -0.964 856.6229 432.8763)" fill="#7FBCD7" width="1.984" height="1.987"/>
			<polygon fill="#7FBCD7" points="393.989,274.762 395.879,274.235 396.405,276.151 394.515,276.678 			"/>
			
				<rect x="396.914" y="269.539" transform="matrix(-0.9642 0.265 -0.265 -0.9642 853.2845 425.9316)" fill="#7FBCD7" width="1.986" height="1.985"/>
			
				<rect x="393.132" y="270.58" transform="matrix(-0.9639 0.2662 -0.2662 -0.9639 846.3198 428.435)" fill="#7FBCD7" width="1.985" height="1.988"/>
		</g>
		<g>
			<polygon fill="#7FBCD7" points="420.604,219.082 422.573,218.98 422.692,220.949 420.71,221.05 			"/>
			<polygon fill="#7FBCD7" points="422.691,220.961 424.66,220.86 424.769,222.848 422.773,222.949 			"/>
			<polygon fill="#7FBCD7" points="418.702,221.19 420.672,221.087 420.79,223.057 418.822,223.158 			"/>
			<polygon fill="#7FBCD7" points="422.47,216.995 424.452,216.894 424.533,218.863 422.564,218.982 			"/>
			<polygon fill="#7FBCD7" points="418.515,217.204 420.482,217.096 420.603,219.084 418.635,219.185 			"/>
		</g>
		<g>
			<polygon fill="#7FBCD7" points="469.781,248.984 471.755,248.83 471.908,250.816 469.928,250.969 			"/>
			<polygon fill="#7FBCD7" points="471.9,250.827 473.868,250.674 474.022,252.658 472.042,252.793 			"/>
			<polygon fill="#7FBCD7" points="467.954,251.12 469.941,250.984 470.092,252.953 468.105,253.107 			"/>
			<polygon fill="#7FBCD7" points="471.589,246.902 473.552,246.767 473.707,248.733 471.743,248.888 			"/>
			<polygon fill="#7FBCD7" points="467.688,247.15 469.652,247.014 469.807,248.981 467.828,249.135 			"/>
		</g>
		<g>
			<polygon fill="#7FBCD7" points="325.554,69.651 326.087,67.748 328.002,68.28 327.47,70.189 			"/>
			
				<rect x="327.154" y="70.47" transform="matrix(-0.2687 0.9632 -0.9632 -0.2687 485.1584 -225.4075)" fill="#7FBCD7" width="1.981" height="1.985"/>
			
				<rect x="323.325" y="69.402" transform="matrix(-0.2689 0.9632 -0.9632 -0.2689 479.3364 -223.0401)" fill="#7FBCD7" width="1.983" height="1.989"/>
			
				<rect x="328.227" y="66.598" transform="matrix(-0.2692 0.9631 -0.9631 -0.2692 482.9326 -231.2806)" fill="#7FBCD7" width="1.981" height="1.986"/>
			
				<rect x="324.402" y="65.565" transform="matrix(-0.268 0.9634 -0.9634 -0.268 476.7322 -229.0902)" fill="#7FBCD7" width="1.986" height="1.988"/>
		</g>
		<g>
			<polygon fill="#7FBCD7" points="187.027,129.183 187.334,127.223 189.288,127.518 188.997,129.475 			"/>
			<polygon fill="#7FBCD7" points="188.688,131.457 188.981,129.491 190.947,129.789 190.648,131.743 			"/>
			<polygon fill="#7FBCD7" points="184.745,130.874 185.053,128.92 187.005,129.213 186.716,131.172 			"/>
			<polygon fill="#7FBCD7" points="189.28,127.519 189.567,125.565 191.527,125.852 191.234,127.813 			"/>
			<polygon fill="#7FBCD7" points="185.379,126.955 185.68,124.998 187.633,125.296 187.345,127.251 			"/>
		</g>
		<g>
			<polygon fill="#7FBCD7" points="173.343,59.63 174.237,58.816 175.062,59.782 174.173,60.596 			"/>
			<polygon fill="#7FBCD7" points="175.066,59.789 175.951,58.967 176.792,59.939 175.896,60.755 			"/>
			<polygon fill="#7FBCD7" points="173.288,61.448 174.176,60.625 175.001,61.594 174.115,62.414 			"/>
			<polygon fill="#7FBCD7" points="173.396,57.851 174.282,57.028 175.124,57.998 174.229,58.816 			"/>
			<polygon fill="#7FBCD7" points="171.625,59.491 172.512,58.67 173.343,59.635 172.452,60.457 			"/>
		</g>
		<g>
			<polygon fill="#7FBCD7" points="128.81,88.271 130.776,88.107 130.94,90.083 128.968,90.249 			"/>
			
				<rect x="131.015" y="90.022" transform="matrix(-0.9965 0.0834 -0.0834 -0.9965 271.1412 170.6984)" fill="#7FBCD7" width="1.978" height="1.984"/>
			<polygon fill="#7FBCD7" points="127,90.433 128.979,90.274 129.133,92.249 127.16,92.405 			"/>
			<polygon fill="#7FBCD7" points="130.608,86.142 132.586,85.979 132.74,87.957 130.768,88.116 			"/>
			<polygon fill="#7FBCD7" points="126.693,86.469 128.66,86.305 128.825,88.277 126.848,88.441 			"/>
		</g>
		<g>
			<polygon fill="#7FBCD7" points="111.779,282.655 111.903,280.558 114,280.694 113.875,282.793 			"/>
			<polygon fill="#7FBCD7" points="113.718,284.87 113.842,282.77 115.938,282.867 115.814,284.968 			"/>
			<polygon fill="#7FBCD7" points="109.52,284.61 109.65,282.512 111.735,282.647 111.609,284.747 			"/>
			<polygon fill="#7FBCD7" points="114,280.707 114.129,278.609 116.213,278.746 116.088,280.844 			"/>
			<polygon fill="#7FBCD7" points="109.794,280.408 109.924,278.309 112.02,278.446 111.891,280.545 			"/>
		</g>
		<g>
			<polygon fill="#7FBCD7" points="76.807,290.738 78.234,290.711 78.272,292.134 76.838,292.161 			"/>
			<polygon fill="#7FBCD7" points="78.287,292.144 79.719,292.112 79.759,293.539 78.325,293.57 			"/>
			<polygon fill="#7FBCD7" points="75.389,292.25 76.82,292.183 76.857,293.621 75.426,293.676 			"/>
			<polygon fill="#7FBCD7" points="78.2,289.291 79.63,289.262 79.664,290.685 78.236,290.714 			"/>
			<polygon fill="#7FBCD7" points="75.337,289.348 76.769,289.318 76.807,290.744 75.379,290.773 			"/>
		</g>
		<g>
			<polygon fill="#7FBCD7" points="165.44,451.873 165.592,450.26 167.194,450.412 167.044,452.019 			"/>
			<polygon fill="#7FBCD7" points="166.885,453.639 167.043,452.024 168.642,452.183 168.484,453.783 			"/>
			<polygon fill="#7FBCD7" points="163.664,453.331 163.814,451.731 165.419,451.889 165.273,453.487 			"/>
			<polygon fill="#7FBCD7" points="167.203,450.428 167.351,448.807 168.958,448.963 168.805,450.564 			"/>
			<polygon fill="#7FBCD7" points="163.976,450.104 164.134,448.498 165.732,448.646 165.574,450.256 			"/>
		</g>
		<g>
			<polygon fill="#7FBCD7" points="199.141,423.809 200.55,423.774 200.604,425.184 199.194,425.219 			"/>
			
				<rect x="200.627" y="425.173" transform="matrix(-0.9997 0.0249 -0.0249 -0.9997 413.2198 846.602)" fill="#7FBCD7" width="1.41" height="1.409"/>
			<polygon fill="#7FBCD7" points="197.767,425.293 199.178,425.233 199.225,426.643 197.815,426.702 			"/>
			<polygon fill="#7FBCD7" points="200.528,422.369 201.938,422.324 201.975,423.736 200.564,423.778 			"/>
			<polygon fill="#7FBCD7" points="197.729,422.423 199.138,422.388 199.183,423.796 197.772,423.831 			"/>
		</g>
		<g>
			<polygon fill="#7FBCD7" points="186.582,390.33 188.132,389.047 189.385,390.594 187.843,391.848 			"/>
			<polygon fill="#7FBCD7" points="189.387,390.585 190.933,389.329 192.191,390.879 190.651,392.134 			"/>
			<polygon fill="#7FBCD7" points="186.297,393.189 187.834,391.935 189.101,393.466 187.552,394.73 			"/>
			<polygon fill="#7FBCD7" points="186.804,387.544 188.334,386.275 189.595,387.8 188.059,389.077 			"/>
			<polygon fill="#7FBCD7" points="183.773,390.052 185.321,388.796 186.578,390.346 185.049,391.601 			"/>
		</g>
		<g>
			<polygon fill="#7FBCD7" points="330.743,454.26 331.009,453.082 332.208,453.362 331.904,454.558 			"/>
			<polygon fill="#7FBCD7" points="331.521,455.756 331.825,454.561 333.022,454.864 332.718,456.046 			"/>
			<polygon fill="#7FBCD7" points="329.188,455.144 329.479,453.969 330.65,454.247 330.384,455.439 			"/>
			<polygon fill="#7FBCD7" points="332.16,453.354 332.427,452.183 333.624,452.463 333.33,453.659 			"/>
			<polygon fill="#7FBCD7" points="329.733,452.78 330.04,451.582 331.198,451.888 330.929,453.072 			"/>
		</g>
		<g>
			<polygon fill="#7FBCD7" points="394.456,403.943 395.542,402.579 396.902,403.684 395.823,405.024 			"/>
			<polygon fill="#7FBCD7" points="396.942,403.715 398.055,402.348 399.389,403.429 398.31,404.795 			"/>
			<polygon fill="#7FBCD7" points="394.742,406.411 395.824,405.064 397.19,406.166 396.095,407.494 			"/>
			<polygon fill="#7FBCD7" points="394.26,401.515 395.345,400.186 396.708,401.271 395.623,402.622 			"/>
			<polygon fill="#7FBCD7" points="392.088,404.182 393.168,402.838 394.52,403.92 393.415,405.277 			"/>
		</g>
		<g>
			<polygon fill="#7FBCD7" points="429.416,295.537 429.584,290.361 434.784,290.528 434.623,295.704 			"/>
			<polygon fill="#7FBCD7" points="427.27,297.575 427.32,295.489 429.406,295.541 429.35,297.626 			"/>
			<polygon fill="#7FBCD7" points="434.525,297.755 434.602,295.671 436.661,295.76 436.608,297.807 			"/>
			<polygon fill="#7FBCD7" points="434.771,290.517 434.836,288.432 436.92,288.482 436.832,290.567 			"/>
			<polygon fill="#7FBCD7" points="427.49,290.252 427.565,288.206 429.626,288.257 429.575,290.341 			"/>
		</g>
		<g>
			<polygon fill="#7FBCD7" points="450.269,217.51 453.49,213.427 457.56,216.653 454.346,220.743 			"/>
			<polygon fill="#7FBCD7" points="447.445,217.883 448.734,216.265 450.354,217.542 449.076,219.18 			"/>
			<polygon fill="#7FBCD7" points="453.19,222.414 454.5,220.776 456.118,222.07 454.828,223.688 			"/>
			<polygon fill="#7FBCD7" points="457.681,216.662 458.957,215.044 460.598,216.327 459.3,217.958 			"/>
			<polygon fill="#7FBCD7" points="451.936,212.141 453.237,210.503 454.867,211.798 453.577,213.423 			"/>
		</g>
		<g>
			<polygon fill="#7FBCD7" points="356.486,126.487 361.705,126.465 361.723,131.665 356.504,131.689 			"/>
			<polygon fill="#7FBCD7" points="354.465,131.712 356.513,131.695 356.531,133.771 354.473,133.783 			"/>
			<polygon fill="#7FBCD7" points="361.731,131.655 363.816,131.648 363.823,133.723 361.737,133.738 			"/>
			
				<rect x="361.709" y="124.385" transform="matrix(-1 0.0042 -0.0042 -1 726.0277 249.3167)" fill="#7FBCD7" width="2.084" height="2.078"/>
			<polygon fill="#7FBCD7" points="354.441,124.417 356.501,124.401 356.508,126.478 354.455,126.49 			"/>
		</g>
		<g>
			<polygon fill="#7FBCD7" points="373.328,70.343 377.163,66.82 380.687,70.648 376.853,74.171 			"/>
			<polygon fill="#7FBCD7" points="375.305,75.603 376.842,74.196 378.251,75.722 376.715,77.131 			"/>
			<polygon fill="#7FBCD7" points="380.668,70.637 382.171,69.23 383.576,70.756 382.073,72.163 			"/>
			<polygon fill="#7FBCD7" points="375.744,65.3 377.247,63.892 378.655,65.418 377.152,66.826 			"/>
			<polygon fill="#7FBCD7" points="370.398,70.216 371.937,68.809 373.346,70.338 371.807,71.746 			"/>
		</g>
		<g>
			<polygon fill="#7FBCD7" points="311.022,94.021 316.04,92.666 317.402,97.693 312.362,99.043 			"/>
			<polygon fill="#7FBCD7" points="310.384,99.584 312.374,99.045 312.911,101.055 310.92,101.591 			"/>
			<polygon fill="#7FBCD7" points="317.408,97.675 319.399,97.139 319.936,99.143 317.945,99.686 			"/>
			<polygon fill="#7FBCD7" points="315.528,90.689 317.558,90.151 318.095,92.153 316.064,92.698 			"/>
			<polygon fill="#7FBCD7" points="308.484,92.544 310.514,92.007 311.051,94.018 309.021,94.556 			"/>
		</g>
		<g>
			
				<rect x="195.289" y="76.234" transform="matrix(-0.8982 0.4396 -0.4396 -0.8982 410.293 62.6525)" fill="#7FBCD7" width="5.205" height="5.207"/>
			<polygon fill="#7FBCD7" points="194.871,83.302 196.745,82.383 197.651,84.253 195.789,85.165 			"/>
			<polygon fill="#7FBCD7" points="201.361,80.08 203.24,79.167 204.146,81.03 202.285,81.942 			"/>
			<polygon fill="#7FBCD7" points="198.203,73.541 200.079,72.623 200.985,74.489 199.122,75.403 			"/>
			<polygon fill="#7FBCD7" points="191.664,76.722 193.525,75.809 194.449,77.678 192.568,78.59 			"/>
		</g>
		<g>
			<polygon fill="#7FBCD7" points="152.191,130.669 153.967,126.595 158.036,128.383 156.253,132.446 			"/>
			<polygon fill="#7FBCD7" points="149.865,131.564 150.572,129.944 152.199,130.659 151.491,132.272 			"/>
			
				<rect x="155.838" y="132.733" transform="matrix(-0.3997 0.9167 -0.9167 -0.3997 341.8491 43.3597)" fill="#7FBCD7" width="1.776" height="1.779"/>
			<polygon fill="#7FBCD7" points="158.02,128.382 158.731,126.757 160.36,127.466 159.651,129.091 			"/>
			
				<rect x="152.652" y="124.539" transform="matrix(-0.4002 0.9164 -0.9164 -0.4002 329.9191 34.9104)" fill="#7FBCD7" width="1.767" height="1.769"/>
		</g>
		<g>
			<polygon fill="#7FBCD7" points="108.904,251.421 115.424,249.444 117.394,255.982 110.874,257.922 			"/>
			<polygon fill="#7FBCD7" points="108.242,258.732 110.838,257.967 111.623,260.537 109.022,261.341 			"/>
			<polygon fill="#7FBCD7" points="117.403,255.984 120.004,255.199 120.785,257.806 118.188,258.571 			"/>
			<polygon fill="#7FBCD7" points="114.634,246.858 117.235,246.073 118.021,248.665 115.419,249.448 			"/>
			
				<rect x="105.815" y="249.155" transform="matrix(-0.9573 0.2891 -0.2891 -0.9573 282.1999 459.3512)" fill="#7FBCD7" width="2.719" height="2.725"/>
		</g>
		<g>
			<polygon fill="#7FBCD7" points="37.4,262.981 42.28,261.184 44.088,266.071 39.209,267.868 			"/>
			
				<rect x="37.54" y="268.145" transform="matrix(-0.9383 0.3458 -0.3458 -0.9383 167.865 508.4153)" fill="#7FBCD7" width="2.078" height="2.075"/>
			<polygon fill="#7FBCD7" points="44.045,266.06 45.989,265.304 46.714,267.287 44.762,268.004 			"/>
			<polygon fill="#7FBCD7" points="41.536,259.231 43.483,258.515 44.207,260.461 42.256,261.177 			"/>
			
				<rect x="35.004" y="261.308" transform="matrix(-0.9384 0.3457 -0.3457 -0.9384 160.5447 496.0591)" fill="#7FBCD7" width="2.074" height="2.073"/>
		</g>
		<g>
			
				<rect x="146.594" y="387.09" transform="matrix(-0.0309 0.9995 -0.9995 -0.0309 544.3297 252.624)" fill="#7FBCD7" width="6.2" height="6.222"/>
			<polygon fill="#7FBCD7" points="143.981,395.674 144.063,393.202 146.536,393.266 146.465,395.76 			"/>
			<polygon fill="#7FBCD7" points="152.652,395.883 152.732,393.411 155.204,393.512 155.124,395.982 			"/>
			<polygon fill="#7FBCD7" points="152.909,387.188 152.99,384.715 155.461,384.778 155.38,387.251 			"/>
			<polygon fill="#7FBCD7" points="144.244,386.896 144.324,384.426 146.797,384.512 146.725,386.982 			"/>
		</g>
		<g>
			<polygon fill="#7FBCD7" points="120.919,427.22 124.526,423.459 128.282,427.085 124.674,430.822 			"/>
			<polygon fill="#7FBCD7" points="123.197,432.291 124.639,430.811 126.133,432.246 124.692,433.746 			"/>
			<polygon fill="#7FBCD7" points="128.243,427.038 129.688,425.538 131.187,426.972 129.741,428.482 			"/>
			<polygon fill="#7FBCD7" points="122.93,421.979 124.37,420.469 125.867,421.903 124.426,423.418 			"/>
			<polygon fill="#7FBCD7" points="117.935,427.214 119.374,425.713 120.874,427.146 119.435,428.654 			"/>
		</g>
		<g>
			<polygon fill="#7FBCD7" points="183.393,449.993 185.443,445.547 189.908,447.593 187.856,452.063 			"/>
			<polygon fill="#7FBCD7" points="180.746,450.906 181.562,449.13 183.339,449.965 182.523,451.741 			"/>
			<polygon fill="#7FBCD7" points="187.028,453.818 187.86,452.027 189.64,452.837 188.825,454.634 			"/>
			<polygon fill="#7FBCD7" points="189.866,447.547 190.692,445.771 192.467,446.605 191.651,448.382 			"/>
			<polygon fill="#7FBCD7" points="183.624,444.689 184.451,442.909 186.227,443.715 185.412,445.51 			"/>
		</g>
		<g>
			<polygon fill="#7FBCD7" points="349.001,456.88 349.134,452.05 353.998,452.196 353.841,457.038 			"/>
			<polygon fill="#7FBCD7" points="346.989,458.743 347.074,456.811 348.996,456.86 348.922,458.793 			"/>
			<polygon fill="#7FBCD7" points="353.798,458.956 353.845,457.025 355.776,457.092 355.729,459.014 			"/>
			<polygon fill="#7FBCD7" points="354.008,452.189 354.06,450.256 355.992,450.317 355.94,452.252 			"/>
			<polygon fill="#7FBCD7" points="347.231,451.948 347.293,450.019 349.225,450.09 349.152,452.02 			"/>
		</g>
		<g>
			<polygon fill="#7FBCD7" points="316.432,427.31 319.666,426.826 320.111,430.05 316.915,430.509 			"/>
			
				<rect x="315.715" y="430.566" transform="matrix(-0.9895 0.1442 -0.1442 -0.9895 691.5817 812.2878)" fill="#7FBCD7" width="1.28" height="1.28"/>
			<polygon fill="#7FBCD7" points="320.086,429.97 321.357,429.785 321.545,431.069 320.271,431.265 			"/>
			
				<rect x="319.598" y="425.443" transform="matrix(-0.9893 0.1456 -0.1456 -0.9893 699.0948 801.0078)" fill="#7FBCD7" width="1.281" height="1.282"/>
			
				<rect x="315.101" y="426.068" transform="matrix(-0.9896 0.1436 -0.1436 -0.9896 689.5247 803.6727)" fill="#7FBCD7" width="1.319" height="1.301"/>
		</g>
		<g>
			<polygon fill="#7FBCD7" points="392.297,422.184 397.367,420.968 398.569,426.04 393.512,427.248 			"/>
			<polygon fill="#7FBCD7" points="391.466,427.774 393.506,427.292 393.979,429.298 391.958,429.786 			"/>
			<polygon fill="#7FBCD7" points="398.52,425.938 400.562,425.47 401.055,427.486 399.013,427.979 			"/>
			<polygon fill="#7FBCD7" points="396.805,418.928 398.819,418.467 399.313,420.472 397.276,420.966 			"/>
			<polygon fill="#7FBCD7" points="389.822,420.503 391.824,420.033 392.317,422.049 390.302,422.542 			"/>
		</g>
		<g>
			<polygon fill="#7FBCD7" points="355.551,381.528 360.272,376.908 364.869,381.63 360.148,386.227 			"/>
			<polygon fill="#7FBCD7" points="351.849,381.429 353.708,379.598 355.561,381.467 353.666,383.323 			"/>
			<polygon fill="#7FBCD7" points="358.28,388.091 360.17,386.232 362.027,388.125 360.132,389.971 			"/>
			<polygon fill="#7FBCD7" points="364.916,381.636 366.809,379.816 368.628,381.692 366.773,383.527 			"/>
			<polygon fill="#7FBCD7" points="358.442,375.034 360.335,373.186 362.18,375.078 360.302,376.899 			"/>
		</g>
		<g>
			<polygon fill="#7FBCD7" points="75.553,230.358 78.665,228.117 80.917,231.225 77.798,233.482 			"/>
			<polygon fill="#7FBCD7" points="73.401,230.014 74.643,229.12 75.547,230.36 74.297,231.255 			"/>
			<polygon fill="#7FBCD7" points="76.537,234.352 77.785,233.443 78.679,234.686 77.438,235.598 			"/>
			<polygon fill="#7FBCD7" points="80.914,231.234 82.155,230.339 83.057,231.582 81.81,232.477 			"/>
			<polygon fill="#7FBCD7" points="77.783,226.868 79.025,225.97 79.919,227.212 78.677,228.125 			"/>
		</g>
	</g>
</g>
</svg>
