<?xml version="1.0" encoding="utf-8"?>
<!-- Generator: Adobe Illustrator 16.0.0, SVG Export Plug-In . SVG Version: 6.00 Build 0)  -->
<!DOCTYPE svg PUBLIC "-//W3C//DTD SVG 1.1//EN" "http://www.w3.org/Graphics/SVG/1.1/DTD/svg11.dtd">
<svg version="1.1" id="musical_shamir" xmlns="http://www.w3.org/2000/svg" xmlns:xlink="http://www.w3.org/1999/xlink" x="0px"
	 y="0px" width="511.475px" height="511.473px" viewBox="0 0 511.475 511.473" enable-background="new 0 0 511.475 511.473"
	 xml:space="preserve">
<rect fill="#FFFFFF" width="511.475" height="511.473"/>
<g id="Icon">
	<g id="Swipe">
		<g id="Sweep_1_">
			<path fill="#7FBCD7" d="M288.307,417.545L80.938,271.368c25.374-73.325,246.588-139.042,369.595-41.587
				c0.54-0.363-67.745,7.723-122.405,52.891C293.08,311.6,268.699,357.54,288.307,417.545z"/>
		</g>
		<g id="Notes">
			<g>
				<polygon fill="#3D83A3" points="203.839,296.858 210.68,290.712 212.753,293.011 205.9,299.157 				"/>
				<polygon fill="#3D83A3" points="203.703,299.722 212.8,291.521 219.638,299.131 210.537,307.306 				"/>
				<polygon fill="#3D83A3" points="203.567,302.629 205.872,300.554 209.96,305.111 207.664,307.17 				"/>
				<polygon fill="#3D83A3" points="211.377,305.242 217.479,299.761 219.541,302.058 213.45,307.54 				"/>
				<polygon fill="#3D83A3" points="197.626,277.747 200.677,275.018 219.788,296.243 216.741,298.999 				"/>
				<polygon fill="#3D83A3" points="199.572,276.063 203.362,272.644 208.846,278.746 205.052,282.164 				"/>
				<polygon fill="#3D83A3" points="204.71,274.168 206.212,272.807 211.699,278.909 210.206,280.268 				"/>
				<polygon fill="#3D83A3" points="207.543,274.318 209.041,272.979 214.538,279.053 213.032,280.413 				"/>
				<polygon fill="#3D83A3" points="203.95,274.905 205.451,273.545 209.547,278.102 208.051,279.436 				"/>
				<polygon fill="#3D83A3" points="206.829,274.972 208.323,273.636 212.415,278.194 210.917,279.53 				"/>
			</g>
			<g>
				<polygon fill="#3D83A3" points="232.52,269.795 240.361,264.966 241.987,267.58 234.147,272.409 				"/>
				<polygon fill="#3D83A3" points="231.819,272.654 242.244,266.246 247.604,274.941 237.187,281.371 				"/>
				<polygon fill="#3D83A3" points="231.168,275.454 233.796,273.827 237.014,279.042 234.374,280.669 				"/>
				<polygon fill="#3D83A3" points="238.429,279.364 245.415,275.056 247.033,277.698 240.055,281.98 				"/>
				<polygon fill="#3D83A3" points="229.879,249.846 233.363,247.694 248.355,272.028 244.863,274.182 				"/>
				<polygon fill="#3D83A3" points="232.051,248.497 236.398,245.817 240.706,252.792 236.348,255.472 				"/>
				<polygon fill="#3D83A3" points="237.471,247.571 239.188,246.521 243.494,253.496 241.775,254.56 				"/>
				<polygon fill="#3D83A3" points="240.256,248.308 241.975,247.245 246.269,254.232 244.55,255.282 				"/>
				<polygon fill="#3D83A3" points="236.582,248.108 238.301,247.045 241.507,252.262 239.789,253.313 				"/>
				<polygon fill="#3D83A3" points="239.381,248.837 241.1,247.786 244.309,252.986 242.591,254.05 				"/>
			</g>
			<g>
				<polygon fill="#4AA0C7" points="265.513,246.849 273.932,243.122 275.186,245.956 266.765,249.671 				"/>
				<polygon fill="#4AA0C7" points="264.56,249.473 275.755,244.523 279.875,253.874 268.68,258.813 				"/>
				<polygon fill="#4AA0C7" points="263.545,252.199 266.367,250.946 268.83,256.559 266.008,257.786 				"/>
				<polygon fill="#4AA0C7" points="270.181,257.086 277.687,253.773 278.938,256.596 271.436,259.908 				"/>
				<polygon fill="#4AA0C7" points="265.647,226.673 269.412,225.019 280.932,251.167 277.19,252.822 				"/>
				<polygon fill="#4AA0C7" points="267.99,225.685 272.647,223.621 275.963,231.123 271.306,233.184 				"/>
				
					<rect x="274.99" y="224.718" transform="matrix(-0.9152 0.403 -0.403 -0.9152 620.8211 327.0003)" fill="#4AA0C7" width="2.031" height="8.204"/>
				<polygon fill="#4AA0C7" points="276.151,226.487 277.984,225.67 281.289,233.176 279.456,233.993 				"/>
				<polygon fill="#4AA0C7" points="272.527,225.899 274.386,225.084 276.844,230.685 275.013,231.5 				"/>
				<polygon fill="#4AA0C7" points="275.197,226.936 277.057,226.117 279.521,231.717 277.687,232.535 				"/>
			</g>
			<g>
				<polygon fill="#DBECF4" points="301.611,231.898 310.297,228.852 311.315,231.771 302.631,234.818 				"/>
				<polygon fill="#DBECF4" points="300.354,234.491 311.909,230.439 315.276,240.091 303.719,244.131 				"/>
				
					<rect x="299.996" y="236.436" transform="matrix(-0.944 0.3301 -0.3301 -0.944 665.2375 366.0443)" fill="#DBECF4" width="3.093" height="6.124"/>
				<polygon fill="#DBECF4" points="305.352,242.489 313.097,239.783 314.12,242.704 306.375,245.41 				"/>
				
					<rect x="307.879" y="210.43" transform="matrix(-0.9438 0.3306 -0.3306 -0.9438 676.7073 334.3584)" fill="#DBECF4" width="4.087" height="28.581"/>
				<polygon fill="#DBECF4" points="305.66,211.039 310.469,209.352 313.2,217.085 308.374,218.78 				"/>
				<polygon fill="#DBECF4" points="311.15,211.254 313.057,210.581 315.76,218.325 313.855,218.986 				"/>
				<polygon fill="#DBECF4" points="313.716,212.473 315.62,211.803 318.32,219.548 316.414,220.212 				"/>
				<polygon fill="#DBECF4" points="310.186,211.604 312.094,210.94 314.122,216.716 312.216,217.384 				"/>
				<polygon fill="#DBECF4" points="312.764,212.852 314.671,212.178 316.699,217.959 314.791,218.634 				"/>
			</g>
			<g>
				<polygon fill="#DBECF4" points="340.607,221.535 349.757,220.415 350.135,223.481 340.987,224.613 				"/>
				<polygon fill="#DBECF4" points="338.888,223.745 351.036,222.241 352.292,232.394 340.128,233.884 				"/>
				<polygon fill="#DBECF4" points="337.111,226.058 340.181,225.681 340.929,231.764 337.849,232.143 				"/>
				<polygon fill="#DBECF4" points="342.025,232.613 350.17,231.62 350.548,234.685 342.406,235.691 				"/>
				<polygon fill="#DBECF4" points="346.533,202.277 350.589,201.774 354.1,230.141 350.03,230.64 				"/>
				
					<rect x="349.51" y="201.616" transform="matrix(-0.9925 0.1226 -0.1226 -0.9925 726.6992 366.7276)" fill="#DBECF4" width="5.119" height="8.202"/>
				
					<rect x="354.857" y="203.172" transform="matrix(-0.9926 0.1212 -0.1212 -0.9926 734.2457 369.8686)" fill="#DBECF4" width="2.026" height="8.202"/>
				<polygon fill="#DBECF4" points="356.626,205.145 358.627,204.897 359.617,213.041 357.634,213.289 				"/>
				<polygon fill="#DBECF4" points="353.333,203.426 355.343,203.178 356.087,209.247 354.085,209.496 				"/>
				<polygon fill="#DBECF4" points="355.62,205.222 357.631,204.973 358.378,211.058 356.375,211.3 				"/>
			</g>
		</g>
	</g>
	<g id="Sword">
		<polygon fill="#4AA0C7" points="307.544,440.878 349.429,434.847 355.479,476.731 313.597,482.764 		"/>
		
			<rect id="rect4152" x="103.508" y="281.978" transform="matrix(-0.9897 0.1429 -0.1429 -0.9897 289.8526 583.4359)" fill="#4AA0C7" width="40.948" height="40.29"/>
		
			<rect id="rect4154" x="120.159" y="296.11" transform="matrix(-0.9897 0.1429 -0.1429 -0.9897 325.0996 610.5414)" fill="#4AA0C7" width="40.945" height="41.665"/>
		<polygon id="rect4156" fill="#4AA0C7" points="132.878,310.842 174.762,304.811 180.709,346.029 138.825,352.08 		"/>
		
			<rect id="rect4158" x="155.194" y="319.389" transform="matrix(-0.9897 0.1429 -0.1429 -0.9897 398.0841 651.1383)" fill="#4AA0C7" width="40.947" height="40.942"/>
		<polygon id="rect4160" fill="#4AA0C7" points="169.189,337.974 210.416,332.026 216.168,371.908 174.946,377.847 		"/>
		<polygon id="rect4160-9" fill="#4AA0C7" points="185.465,350.166 228.696,343.929 234.457,383.804 191.219,390.04 		"/>
		<polygon id="rect4160-4" fill="#4AA0C7" points="203.744,362.039 244.982,356.088 251.124,398.688 209.895,404.637 		"/>
		<polygon id="rect4160-5" fill="#4AA0C7" points="221.622,376.016 278.384,367.824 286.49,423.935 229.717,432.134 		"/>
		<polygon id="rect4160-4-9" fill="#4AA0C7" points="197.728,439.536 225.432,435.53 229.432,463.244 201.72,467.238 		"/>
		<polygon id="rect4160-4-9-7" fill="#4AA0C7" points="211.909,423.6 253.787,417.551 257.798,445.259 215.905,451.298 		"/>
		<polygon id="rect4160-4-9-2" fill="#4AA0C7" points="276.513,335.631 304.203,331.619 308.211,359.336 280.499,363.321 		"/>
		<polygon id="rect4160-4-9-7-3" fill="#4AA0C7" points="263.317,353.47 291.032,349.459 297.353,393.413 269.662,397.409 		"/>
		<polygon fill="#4AA0C7" points="298.713,409.59 316.662,423.013 321.236,450.282 292.837,453.727 275.3,440.661 273.034,425.747 
			271.132,413.57 284.622,411.667 		"/>
		<polygon id="rect4150_1_" fill="#4AA0C7" points="81.004,271.386 122.24,265.431 128.284,307.315 87.047,313.272 		"/>
		<polygon fill="#A1CEE2" points="277.959,442.695 301.236,411.57 313.56,420.796 290.287,451.91 		"/>
	</g>
</g>
<g id="Shamir">
	<rect id="Cast" x="223.912" y="53.095" fill="#3D83A3" width="67.713" height="67.718"/>
	<rect id="Band" x="217.386" y="74.141" fill="#7FBCD7" width="80.102" height="22.166"/>
</g>
<g id="Shamir_Particles">
	<g>
		<polygon fill="#7FBCD7" points="311.637,139.602 313.171,132.941 319.834,134.483 318.303,141.133 		"/>
		<polygon fill="#7FBCD7" points="317.692,143.808 318.322,141.125 321.004,141.739 320.375,144.419 		"/>
		<polygon fill="#7FBCD7" points="319.936,134.537 320.529,131.855 323.212,132.479 322.61,135.161 		"/>
		<polygon fill="#7FBCD7" points="310.59,132.408 311.22,129.727 313.901,130.345 313.272,133.026 		"/>
		<polygon fill="#7FBCD7" points="308.412,141.653 309.043,138.974 311.724,139.598 311.092,142.276 		"/>
	</g>
	<g>
		<polygon fill="#7FBCD7" points="193.338,131.458 196.177,120.872 206.763,123.701 203.923,134.287 		"/>
		<polygon fill="#7FBCD7" points="202.754,138.493 203.886,134.259 208.123,135.398 206.98,139.626 		"/>
		<polygon fill="#7FBCD7" points="206.697,123.725 207.824,119.489 212.064,120.625 210.922,124.852 		"/>
		<polygon fill="#7FBCD7" points="191.87,119.686 193.008,115.455 197.232,116.591 196.106,120.817 		"/>
		<polygon fill="#7FBCD7" points="187.913,134.542 189.055,130.31 193.281,131.449 192.157,135.678 		"/>
	</g>
	<g>
		<polygon fill="#7FBCD7" points="181.182,55.487 184.848,49.717 190.604,53.383 186.954,59.145 		"/>
		<polygon fill="#7FBCD7" points="185.528,61.458 186.998,59.129 189.322,60.611 187.845,62.934 		"/>
		<polygon fill="#7FBCD7" points="190.636,53.4 192.101,51.076 194.43,52.553 192.948,54.876 		"/>
		<polygon fill="#7FBCD7" points="182.549,48.259 184.026,45.932 186.354,47.41 184.872,49.728 		"/>
		<polygon fill="#7FBCD7" points="177.386,56.317 178.857,53.991 181.18,55.468 179.706,57.786 		"/>
	</g>
	<g>
		<polygon fill="#7FBCD7" points="262.109,30.117 263.008,27.45 265.676,28.319 264.775,30.983 		"/>
		
			<rect x="260.7" y="24.276" transform="matrix(-0.3086 0.9512 -0.9512 -0.3086 367.4182 -215.7015)" fill="#7FBCD7" width="2.8" height="2.806"/>
		<polygon fill="#7FBCD7" points="265.679,28.232 266.543,25.574 269.213,26.442 268.313,29.11 		"/>
		<polygon fill="#7FBCD7" points="258.571,31.848 259.42,29.188 262.088,30.056 261.224,32.723 		"/>
		
			<rect x="264.254" y="31.331" transform="matrix(-0.3083 0.9513 -0.9513 -0.3083 378.6982 -209.8865)" fill="#7FBCD7" width="2.8" height="2.806"/>
	</g>
	<g>
		<polygon fill="#7FBCD7" points="324.891,69.94 331.729,69.866 331.786,76.695 324.983,76.762 		"/>
		<polygon fill="#7FBCD7" points="331.786,76.702 334.558,76.669 334.58,79.424 331.808,79.447 		"/>
		<polygon fill="#7FBCD7" points="331.706,67.123 334.442,67.092 334.465,69.846 331.728,69.87 		"/>
		<polygon fill="#7FBCD7" points="322.17,67.271 324.902,67.248 324.927,69.998 322.191,70.026 		"/>
		<polygon fill="#7FBCD7" points="322.284,76.804 325.018,76.774 325.04,79.524 322.308,79.558 		"/>
	</g>
</g>
</svg>
