<?xml version="1.0" encoding="utf-8"?>
<!-- Generator: Adobe Illustrator 16.0.0, SVG Export Plug-In . SVG Version: 6.00 Build 0)  -->
<!DOCTYPE svg PUBLIC "-//W3C//DTD SVG 1.1//EN" "http://www.w3.org/Graphics/SVG/1.1/DTD/svg11.dtd">
<svg version="1.1" id="sensus_shamir" xmlns="http://www.w3.org/2000/svg" xmlns:xlink="http://www.w3.org/1999/xlink" x="0px"
	 y="0px" width="511.475px" height="511.473px" viewBox="0 0 511.475 511.473" enable-background="new 0 0 511.475 511.473"
	 xml:space="preserve">
<rect fill="#FFFFFF" width="511.475" height="511.473"/>
<g id="Icon">
	<g id="Ray">
		<path fill="#DBECF4" d="M306.87,291.457h-98.227c-9.314,0-16.856-7.536-16.856-16.858v-98.224c0-9.317,7.542-16.818,16.821-16.818
			h98.22c9.317,0,16.816,7.541,16.816,16.818v98.224C323.688,283.921,316.146,291.457,306.87,291.457z"/>
		<polygon fill="#DBECF4" points="293.19,361.119 222.292,361.119 204.982,278.271 310.492,278.271 		"/>
	</g>
	<g id="Compass">
		<g>
			<rect x="222.496" y="443.352" fill="#A1CEE2" width="70.48" height="23.501"/>
			<rect x="187.252" y="431.604" fill="#A1CEE2" width="140.969" height="23.493"/>
			<g>
				<rect x="187.252" y="361.119" fill="#7FBCD7" width="140.969" height="70.487"/>
				<rect x="222.496" y="349.371" fill="#7FBCD7" width="70.48" height="15.04"/>
			</g>
			<rect x="316.479" y="419.854" fill="#A1CEE2" width="12.116" height="13.81"/>
			<rect x="187.252" y="419.854" fill="#A1CEE2" width="11.746" height="13.81"/>
		</g>
		<g>
			<rect x="222.496" y="337.628" fill="#3D83A3" width="70.48" height="11.743"/>
			<rect x="198.998" y="349.371" fill="#3D83A3" width="23.498" height="11.743"/>
			<rect x="187.252" y="361.119" fill="#3D83A3" width="11.746" height="11.748"/>
			<rect x="175.506" y="372.867" fill="#3D83A3" width="11.744" height="70.484"/>
			<rect x="187.252" y="443.352" fill="#3D83A3" width="11.746" height="11.741"/>
			<rect x="198.998" y="455.093" fill="#3D83A3" width="23.498" height="11.747"/>
			<rect x="222.496" y="466.85" fill="#3D83A3" width="70.48" height="11.743"/>
			<rect x="328.221" y="372.867" fill="#3D83A3" width="11.748" height="70.484"/>
			<rect x="292.976" y="455.093" fill="#3D83A3" width="23.504" height="11.747"/>
			<rect x="316.479" y="443.352" fill="#3D83A3" width="11.741" height="11.741"/>
			<rect x="292.976" y="349.371" fill="#3D83A3" width="23.504" height="11.743"/>
			<rect x="316.479" y="361.119" fill="#3D83A3" width="11.741" height="11.748"/>
			<rect x="187.252" y="408.112" fill="#3D83A3" width="11.746" height="11.742"/>
			<rect x="198.998" y="419.854" fill="#3D83A3" width="23.498" height="11.742"/>
			<rect x="222.496" y="431.604" fill="#3D83A3" width="70.48" height="11.746"/>
			<rect x="292.976" y="419.854" fill="#3D83A3" width="23.504" height="11.742"/>
			<rect x="316.479" y="408.112" fill="#3D83A3" width="11.741" height="11.742"/>
		</g>
		<g>
			<rect x="240.476" y="384.405" fill="#A1CEE2" width="35.234" height="11.75"/>
			<rect x="252.217" y="361.114" fill="#4AA0C7" width="11.745" height="35.244"/>
		</g>
	</g>
	<g id="Ore">
		<rect x="204.982" y="172.749" fill="#A1CEE2" width="105.514" height="105.524"/>
		<rect x="231.357" y="185.939" fill="#4AA0C7" width="6.596" height="6.597"/>
		<rect x="251.139" y="192.532" fill="#4AA0C7" width="13.192" height="6.594"/>
		<rect x="284.123" y="185.939" fill="#4AA0C7" width="13.192" height="6.597"/>
		<rect x="231.357" y="212.319" fill="#4AA0C7" width="26.378" height="6.594"/>
		<rect x="270.934" y="205.725" fill="#4AA0C7" width="13.191" height="13.19"/>
		<rect x="251.139" y="232.101" fill="#4AA0C7" width="26.377" height="6.599"/>
		<rect x="277.516" y="245.297" fill="#4AA0C7" width="13.197" height="6.589"/>
		<rect x="257.737" y="251.886" fill="#4AA0C7" width="39.565" height="6.603"/>
		<rect x="264.329" y="258.485" fill="#4AA0C7" width="13.19" height="6.593"/>
		<rect x="231.357" y="258.485" fill="#4AA0C7" width="6.596" height="6.593"/>
		<rect x="231.357" y="238.7" fill="#4AA0C7" width="6.596" height="6.598"/>
		<rect x="218.165" y="225.507" fill="#4AA0C7" width="6.596" height="6.593"/>
		<rect x="264.329" y="225.507" fill="#4AA0C7" width="6.604" height="6.593"/>
		<rect x="244.543" y="205.725" fill="#4AA0C7" width="6.593" height="6.594"/>
		<rect x="264.329" y="251.886" fill="#DBECF4" width="6.604" height="6.603"/>
		<rect x="224.762" y="258.485" fill="#DBECF4" width="6.596" height="6.593"/>
		<rect x="211.573" y="225.507" fill="#DBECF4" width="6.592" height="6.593"/>
		<rect x="257.737" y="225.507" fill="#DBECF4" width="6.59" height="6.593"/>
		<rect x="224.762" y="212.319" fill="#DBECF4" width="6.596" height="6.594"/>
		<rect x="237.956" y="205.725" fill="#DBECF4" width="6.596" height="6.594"/>
		<rect x="270.934" y="205.725" fill="#DBECF4" width="6.586" height="6.594"/>
		<rect x="277.516" y="212.319" fill="#DBECF4" width="6.607" height="6.594"/>
	</g>
	<rect x="252.262" y="396.07" fill="#A1CEE2" width="11.753" height="11.75"/>
</g>
<g id="Shamir">
	<rect id="Cast" x="223.912" y="53.095" fill="#3D83A3" width="67.713" height="67.718"/>
	<rect id="Band" x="217.386" y="74.141" fill="#7FBCD7" width="80.102" height="22.166"/>
</g>
<g id="Shamir_Particles">
	<g>
		<polygon fill="#7FBCD7" points="311.637,139.602 313.171,132.941 319.834,134.483 318.303,141.133 		"/>
		<polygon fill="#7FBCD7" points="317.692,143.808 318.322,141.125 321.004,141.739 320.375,144.419 		"/>
		<polygon fill="#7FBCD7" points="319.936,134.537 320.529,131.855 323.212,132.479 322.61,135.161 		"/>
		<polygon fill="#7FBCD7" points="310.59,132.408 311.22,129.727 313.901,130.345 313.272,133.026 		"/>
		<polygon fill="#7FBCD7" points="308.412,141.653 309.043,138.974 311.724,139.598 311.092,142.276 		"/>
	</g>
	<g>
		<polygon fill="#7FBCD7" points="193.338,131.458 196.177,120.872 206.763,123.701 203.923,134.287 		"/>
		<polygon fill="#7FBCD7" points="202.754,138.493 203.886,134.259 208.123,135.398 206.98,139.626 		"/>
		<polygon fill="#7FBCD7" points="206.697,123.725 207.824,119.489 212.064,120.625 210.922,124.852 		"/>
		<polygon fill="#7FBCD7" points="191.87,119.686 193.008,115.455 197.232,116.591 196.106,120.817 		"/>
		<polygon fill="#7FBCD7" points="187.913,134.542 189.055,130.31 193.281,131.449 192.157,135.678 		"/>
	</g>
	<g>
		<polygon fill="#7FBCD7" points="181.182,55.487 184.848,49.717 190.604,53.383 186.954,59.145 		"/>
		<polygon fill="#7FBCD7" points="185.528,61.458 186.998,59.129 189.322,60.611 187.845,62.934 		"/>
		<polygon fill="#7FBCD7" points="190.636,53.4 192.101,51.076 194.43,52.553 192.948,54.876 		"/>
		<polygon fill="#7FBCD7" points="182.549,48.259 184.026,45.932 186.354,47.41 184.872,49.728 		"/>
		<polygon fill="#7FBCD7" points="177.386,56.317 178.857,53.991 181.18,55.468 179.706,57.786 		"/>
	</g>
	<g>
		<polygon fill="#7FBCD7" points="262.109,30.117 263.008,27.45 265.676,28.319 264.775,30.983 		"/>
		
			<rect x="260.7" y="24.276" transform="matrix(-0.3086 0.9512 -0.9512 -0.3086 367.4182 -215.7015)" fill="#7FBCD7" width="2.8" height="2.806"/>
		<polygon fill="#7FBCD7" points="265.679,28.232 266.543,25.574 269.213,26.442 268.313,29.11 		"/>
		<polygon fill="#7FBCD7" points="258.571,31.848 259.42,29.188 262.088,30.056 261.224,32.723 		"/>
		
			<rect x="264.254" y="31.331" transform="matrix(-0.3083 0.9513 -0.9513 -0.3083 378.6982 -209.8865)" fill="#7FBCD7" width="2.8" height="2.806"/>
	</g>
	<g>
		<polygon fill="#7FBCD7" points="324.891,69.94 331.729,69.866 331.786,76.695 324.983,76.762 		"/>
		<polygon fill="#7FBCD7" points="331.786,76.702 334.558,76.669 334.58,79.424 331.808,79.447 		"/>
		<polygon fill="#7FBCD7" points="331.706,67.123 334.442,67.092 334.465,69.846 331.728,69.87 		"/>
		<polygon fill="#7FBCD7" points="322.17,67.271 324.902,67.248 324.927,69.998 322.191,70.026 		"/>
		<polygon fill="#7FBCD7" points="322.284,76.804 325.018,76.774 325.04,79.524 322.308,79.558 		"/>
	</g>
</g>
</svg>
