<?xml version="1.0" encoding="utf-8"?>
<!-- Generator: Adobe Illustrator 16.0.0, SVG Export Plug-In . SVG Version: 6.00 Build 0)  -->
<!DOCTYPE svg PUBLIC "-//W3C//DTD SVG 1.1//EN" "http://www.w3.org/Graphics/SVG/1.1/DTD/svg11.dtd">
<svg version="1.1" id="spiraculum_shamir" xmlns="http://www.w3.org/2000/svg" xmlns:xlink="http://www.w3.org/1999/xlink" x="0px"
	 y="0px" width="511.475px" height="511.473px" viewBox="0 0 511.475 511.473" enable-background="new 0 0 511.475 511.473"
	 xml:space="preserve">
<rect fill="#FFFFFF" width="511.475" height="511.473"/>
<g id="Icon">
	<g id="Bucket">
		<rect x="207.945" y="322.249" fill="#3D83A3" width="119.708" height="131.663"/>
		<rect x="195.978" y="334.219" fill="#3D83A3" width="143.625" height="95.761"/>
		<rect x="231.893" y="310.288" fill="#3D83A3" width="71.817" height="167.568"/>
		<rect x="219.923" y="453.912" fill="#3D83A3" width="95.748" height="11.983"/>
		<g>
			<rect x="207.945" y="334.219" fill="#A1CEE2" width="119.708" height="23.936"/>
			<rect x="231.893" y="322.249" fill="#A1CEE2" width="71.817" height="47.885"/>
		</g>
		<g>
			<path fill="#DBECF4" d="M303.136,375.41c-24.517-0.582-55.832-12.213-90.501-33.618l4.03-6.511
				c23.362,14.44,57.41,31.776,86.655,32.461L303.136,375.41z"/>
		</g>
		<g>
			<rect x="207.945" y="370.135" fill="#7FBCD7" width="119.708" height="59.846"/>
			<rect x="219.923" y="425.475" fill="#7FBCD7" width="95.748" height="28.438"/>
			<rect x="231.893" y="449.465" fill="#7FBCD7" width="71.817" height="16.431"/>
		</g>
		<rect x="231.893" y="370.135" fill="#3D83A3" width="71.817" height="11.97"/>
	</g>
	<g id="Swirl_Back">
		<g>
			<path fill="#DBECF4" d="M415.744,218.356l-1.783,3.26l-6.561-2.876c0.402-0.916,0.771-1.815,1.062-2.73
				c3.116-9.577-0.293-17.995-10.295-25.708c-11.006-8.477-29.581-15.514-53.729-20.395c-22.979-4.6-49.771-6.994-77.55-6.994
				c-59.514,0.049-110.309,11.108-132.572,28.781c-11.636,9.235-15.136,19.625-10.537,31.737c0.283,0.808,0.623,1.631,1.006,2.4
				l-0.53,0.239l-6.415,2.914c-0.34-0.769-0.669-1.523-0.96-2.292c-0.958-2.453-1.623-4.838-2.103-7.183
				c-2.353-12.643,2.678-24.186,14.841-33.855c12.448-9.865,31.931-17.617,57.89-22.981c23.457-4.835,50.941-7.422,79.417-7.462
				h0.586c60.431,0,112.264,11.049,135.393,28.959C416.601,194.847,421.913,204.375,415.744,218.356z"/>
		</g>
		<g>
			<path fill="#DBECF4" d="M146.667,264.328c-2.54-6.559-1.677-11.647,11.014-21.07c9.619-7.145,25.854-13.174,46.963-17.529
				c19.389-3.965,42.092-6.419,65.546-7.041c40.02-1.046,90.007,3.499,110.311,19.403c11.286,8.853,10.394,18.618,7.621,25.286
				l-7.106-2.967c2.634-6.284,0.972-11.451-5.244-16.342c-15.428-12.058-56.803-19.057-105.436-17.757
				c-48.559,1.244-91.016,10.295-108.161,23.033c-10.67,7.881-8.087,14.659-7.227,16.857L146.667,264.328z"/>
		</g>
		<g>
			<path fill="#DBECF4" d="M213.74,342.504c-16.847-13.078-23.699-25.802-20.292-37.861c2.86-10.296,13.01-19.055,30.062-26.164
				c14.174-5.865,33.139-10.373,53.276-12.611c20.45-2.307,40.716-2.23,57.022,0.223c18.915,2.822,30.785,8.43,35.255,16.675
				c4.641,8.573-0.254,15.539-4.066,21.767l-6.229-3.813c4.311-6.23,5.643-10.408,3.552-14.328
				c-3.112-5.75-13.957-10.405-29.646-12.747c-15.647-2.349-35.183-2.384-55.007-0.184c-19.496,2.198-37.691,6.484-51.233,12.129
				c-14.605,6.012-23.458,13.341-25.619,21.147c-2.437,8.759,3.446,18.764,17.627,29.744L213.74,342.504z"/>
		</g>
	</g>
	<g id="Entites">
		<g>
			<path fill="#DBECF4" d="M92.085,160.422l-6.705-3.83c8.999-12.394,26.049-23.169,51.18-32.268
				c22.074-7.996,49.028-14.073,77.943-17.665c28.347-3.498,56.932-4.213,80.495-2.059c17.997,1.63,42.112,5.844,54.756,16.517
				l-4.912,5.84c-8.722-7.325-26.644-12.546-50.534-14.744c-22.979-2.107-50.979-1.391-78.844,2.062
				c-28.39,3.49-54.771,9.476-76.272,17.232C115.832,139.984,100.033,149.411,92.085,160.422z"/>
		</g>
		<polygon id="Pig_1_" fill="#4AA0C7" points="98.262,197.668 110.515,210.074 128.234,208.259 130.91,200.875 136.803,206.774 
			142.545,205.713 144.464,207.821 135.177,235.361 147.382,247.857 164.904,245.511 167.729,238.329 173.665,244.396 
			191.196,242.196 195.068,231.806 221.541,227.885 233.799,191.494 209.043,166.26 202.538,167.416 167.011,131.268 
			123.491,136.92 112.24,169.474 108.121,170.384 		"/>
		<g id="Gold_Ingot">
			<g>
				<g>
					<polygon fill="#4AA0C7" points="251.23,131.411 269.696,124.305 272.064,130.471 253.615,137.579 					"/>
					<polygon fill="#4AA0C7" points="247.509,139.889 278.26,128.045 285.351,146.5 254.616,158.344 					"/>
					<polygon fill="#4AA0C7" points="280.617,134.223 286.764,131.855 291.487,144.138 285.34,146.511 					"/>
					<polygon fill="#4AA0C7" points="260.751,156 285.316,146.538 292.408,164.988 267.841,174.451 					"/>
					<polygon fill="#4AA0C7" points="273.99,172.053 286.293,167.323 288.66,173.491 276.392,178.214 					"/>
				</g>
				<g>
					<polygon fill="#7FBCD7" points="259.825,135.214 265.976,132.835 268.343,139.004 262.194,141.382 					"/>
					
						<rect x="258.129" y="142.088" transform="matrix(-0.9333 0.3592 -0.3592 -0.9333 558.8346 193.5185)" fill="#7FBCD7" width="6.625" height="13.164"/>
				</g>
			</g>
		</g>
		<g id="Zombie">
			<path id="path4213" fill="#4AA0C7" d="M360.037,272.835l-20.927-20.763l17.853-55.21l-4.21-1.008l5.045-17.572l4.878-0.049
				l1.576-5.979l-27.048,6.889l-11.359-11.251l5.422-17.089l36.099-8.523l6.033-18.476l30.45-5.076l21.786,22.502l-10.482,32.599
				l-6.902,0.623l10.57,9.239l-5.832,18.43l-15.136,0.293l-21.354,67.669L360.037,272.835z"/>
			<g id="g4565">
				<path id="rect4547" fill="#FFFFFF" d="M370.576,143.098l5.989,5.553l-1.436,4.398l-5.798-6.174L370.576,143.098z"/>
				<path id="rect4547-1" fill="#FFFFFF" d="M381.88,153.488l5.973,5.553l-1.61,5.021l-5.794-6.176L381.88,153.488z"/>
			</g>
		</g>
	</g>
	<g id="Swirl_Front">
		<g>
			<path fill="#DBECF4" d="M117.128,228.984c-15.757-6.652-29.113-15.411-36.008-27.003c-7.999-13.402-6.66-28.575,4.214-45.389
				l6.696,3.83c-9.288,14.366-10.818,26.766-4.35,37.631c4.784,8.044,13.835,15.281,26.998,21.495
				c0.433,2.346,1.147,4.745,2.106,7.183l-0.524,0.238C116.549,227.646,116.836,228.324,117.128,228.984z"/>
			<path fill="#DBECF4" d="M415.462,218.833c-0.401,0.958-0.878,1.87-1.501,2.785c-4.496,6.799-15.173,12.443-32.451,17.279
				c-0.202,0.055-0.39,0.092-0.571,0.146c-2.93,0.807-6.045,1.576-9.236,2.292c-16.05,3.646-35.769,6.414-57.755,8.099
				c-15.834,1.191-32.068,1.814-48.157,1.814c-31.996,0-63.583-2.346-91.019-6.853c-1.005-0.13-1.969-0.331-2.975-0.477
				c-3.832-0.661-7.76-1.376-11.772-2.199c-10.73-2.199-21.785-5.021-32.225-8.667c-3.635-1.246-7.183-2.584-10.582-4.014
				c-0.292-0.677-0.579-1.337-0.86-2.015l0.521-0.239c-0.956-2.438-1.621-4.838-2.103-7.183c1.581,0.769,3.254,1.484,4.934,2.199
				c1.338,0.586,2.676,1.101,4.068,1.685c12.926,5.023,28.677,9.236,46.915,12.498c1.724,0.277,3.453,0.623,5.217,0.9
				c3.308,0.53,6.706,1.061,10.152,1.538c38.737,5.407,84.456,6.707,127.261,3.446c17.04-1.301,32.69-3.262,46.212-5.792
				c4.69-0.861,9.09-1.815,13.194-2.823c2.125-0.53,4.178-1.062,6.143-1.591c23.468-6.452,28.635-13.159,29.626-15.704l0.476,0.492
				L415.462,218.833z"/>
		</g>
		<g>
			<path fill="#DBECF4" d="M388.161,263.375L388.161,263.375c-2.932,7.185-9.49,13.599-19.348,18.987
				c-2.141,1.207-4.438,2.312-6.894,3.408c-4.105,1.833-8.65,3.482-13.596,5.02c-19.534,6.045-44.616,9.347-70.656,9.347
				c-0.18,0-0.404,0-0.585,0c-22.502-0.037-44.62-2.492-64.823-7.145c-3.21-0.696-6.367-1.539-9.481-2.346
				c-7.844-2.09-15.319-4.582-22.356-7.37c-8.337-3.299-15.997-7.035-22.886-11.14c-2.346-1.394-4.545-2.826-6.706-4.285
				c-1.386-0.953-2.674-1.869-4.014-2.859l-0.104-0.109c-1.862-1.359-3.634-2.752-5.356-4.213
				c-10.97-9.218-19.151-19.903-24.28-31.723c-0.288-0.677-0.569-1.354-0.86-2.015l0.53-0.238l6.561-2.638
				c0.283,0.678,0.52,1.339,0.812,2.015c1.003,2.345,2.2,4.638,3.495,6.945c4.545,7.935,10.818,15.265,18.581,21.879
				c0.383,0.331,0.764,0.618,1.144,0.943c2.107,1.748,4.355,3.4,6.704,5.047c8.377,5.83,18.145,10.958,29.154,15.317
				c8.531,3.339,17.768,6.267,27.536,8.613c3.776,0.914,7.658,1.762,11.582,2.49c17.278,3.341,35.859,5.131,54.733,5.168
				c0.185,0,0.371,0,0.586,0c30.784,0,58.491-4.652,77.646-12.203c2.969-1.206,5.729-2.455,8.281-3.735
				c8.908-4.652,15.041-10.076,17.424-16.051l3.555,1.431L388.161,263.375L388.161,263.375L388.161,263.375z"/>
		</g>
		<g>
			<path fill="#DBECF4" d="M277.889,333.85c-11.511,0-23.255-0.914-34.745-2.744c-23.418-3.735-44.343-10.996-60.469-21.148
				c-18.872-11.837-30.93-27.009-35.86-45.113l7.367-2.014c4.404,16.196,15.374,29.868,32.506,40.643
				c15.318,9.6,35.239,16.527,57.592,20.082c24.042,3.815,49.182,3.485,70.769-0.916c21.588-4.4,37.017-11.764,43.682-21.917
				l6.203,3.813c-8.144,11.506-24.745,20.777-48.346,25.615C304.528,332.605,291.34,333.85,277.889,333.85z"/>
		</g>
	</g>
</g>
<g id="Shamir">
	<rect id="Cast" x="223.912" y="53.095" fill="#3D83A3" width="67.713" height="67.718"/>
	<rect id="Band" x="217.386" y="74.141" fill="#7FBCD7" width="80.102" height="22.166"/>
</g>
<g id="Shamir_Particles">
	<g>
		<polygon fill="#7FBCD7" points="311.637,139.602 313.171,132.941 319.834,134.483 318.303,141.133 		"/>
		<polygon fill="#7FBCD7" points="317.692,143.808 318.322,141.125 321.004,141.739 320.375,144.419 		"/>
		<polygon fill="#7FBCD7" points="319.936,134.537 320.529,131.855 323.212,132.479 322.61,135.161 		"/>
		<polygon fill="#7FBCD7" points="310.59,132.408 311.22,129.727 313.901,130.345 313.272,133.026 		"/>
		<polygon fill="#7FBCD7" points="308.412,141.653 309.043,138.974 311.724,139.598 311.092,142.276 		"/>
	</g>
	<g>
		<polygon fill="#7FBCD7" points="193.338,131.458 196.177,120.872 206.763,123.701 203.923,134.287 		"/>
		<polygon fill="#7FBCD7" points="202.754,138.493 203.886,134.259 208.123,135.398 206.98,139.626 		"/>
		<polygon fill="#7FBCD7" points="206.697,123.725 207.824,119.489 212.064,120.625 210.922,124.852 		"/>
		<polygon fill="#7FBCD7" points="191.87,119.686 193.008,115.455 197.232,116.591 196.106,120.817 		"/>
		<polygon fill="#7FBCD7" points="187.913,134.542 189.055,130.31 193.281,131.449 192.157,135.678 		"/>
	</g>
	<g>
		<polygon fill="#7FBCD7" points="181.182,55.487 184.848,49.717 190.604,53.383 186.954,59.145 		"/>
		<polygon fill="#7FBCD7" points="185.528,61.458 186.998,59.129 189.322,60.611 187.845,62.934 		"/>
		<polygon fill="#7FBCD7" points="190.636,53.4 192.101,51.076 194.43,52.553 192.948,54.876 		"/>
		<polygon fill="#7FBCD7" points="182.549,48.259 184.026,45.932 186.354,47.41 184.872,49.728 		"/>
		<polygon fill="#7FBCD7" points="177.386,56.317 178.857,53.991 181.18,55.468 179.706,57.786 		"/>
	</g>
	<g>
		<polygon fill="#7FBCD7" points="262.109,30.117 263.008,27.45 265.676,28.319 264.775,30.983 		"/>
		
			<rect x="260.7" y="24.276" transform="matrix(-0.3086 0.9512 -0.9512 -0.3086 367.4182 -215.7015)" fill="#7FBCD7" width="2.8" height="2.806"/>
		<polygon fill="#7FBCD7" points="265.679,28.232 266.543,25.574 269.213,26.442 268.313,29.11 		"/>
		<polygon fill="#7FBCD7" points="258.571,31.848 259.42,29.188 262.088,30.056 261.224,32.723 		"/>
		
			<rect x="264.254" y="31.331" transform="matrix(-0.3083 0.9513 -0.9513 -0.3083 378.6982 -209.8865)" fill="#7FBCD7" width="2.8" height="2.806"/>
	</g>
	<g>
		<polygon fill="#7FBCD7" points="324.891,69.94 331.729,69.866 331.786,76.695 324.983,76.762 		"/>
		<polygon fill="#7FBCD7" points="331.786,76.702 334.558,76.669 334.58,79.424 331.808,79.447 		"/>
		<polygon fill="#7FBCD7" points="331.706,67.123 334.442,67.092 334.465,69.846 331.728,69.87 		"/>
		<polygon fill="#7FBCD7" points="322.17,67.271 324.902,67.248 324.927,69.998 322.191,70.026 		"/>
		<polygon fill="#7FBCD7" points="322.284,76.804 325.018,76.774 325.04,79.524 322.308,79.558 		"/>
	</g>
</g>
</svg>
