<?xml version="1.0" encoding="utf-8"?>
<!-- Generator: Adobe Illustrator 16.0.0, SVG Export Plug-In . SVG Version: 6.00 Build 0)  -->
<!DOCTYPE svg PUBLIC "-//W3C//DTD SVG 1.1//EN" "http://www.w3.org/Graphics/SVG/1.1/DTD/svg11.dtd">
<svg version="1.1" id="tinker_shamir" xmlns="http://www.w3.org/2000/svg" xmlns:xlink="http://www.w3.org/1999/xlink" x="0px"
	 y="0px" width="511.475px" height="511.473px" viewBox="0 0 511.475 511.473" enable-background="new 0 0 511.475 511.473"
	 xml:space="preserve">
<rect fill="#FFFFFF" width="511.475" height="511.473"/>
<g id="Icon_1_">
	<g id="Arrow_1_">
		<path id="Arrow" fill="#4AA0C7" d="M220.496,332.267h64.971l0.302-13.124l15.438,20.715l-15.74,20.822l-0.191-13.229h-64.78
			V332.267L220.496,332.267z"/>
	</g>
	<g id="Block_1_">
		<polygon fill="#3D83A3" points="394.805,438.215 312.329,397.313 312.329,296.348 394.805,337.26 		"/>
		<polygon fill="#3D83A3" points="394.805,438.215 477.941,397.367 477.941,296.43 394.805,337.26 		"/>
		<polygon fill="#7FBCD7" points="394.805,333.979 319.847,296.756 395.467,259.396 470.417,296.756 		"/>
		<g>
			<g>
				<polygon fill="#4AA0C7" points="458.813,304.277 455.51,306.391 377.651,267.326 381.614,265.752 				"/>
			</g>
			<g>
				<polygon fill="#4AA0C7" points="444.561,311.522 441.261,313.642 363.396,274.571 367.357,272.998 				"/>
			</g>
			<g>
				<polygon fill="#4AA0C7" points="427.668,319.773 424.371,321.895 346.512,282.828 350.475,281.257 				"/>
			</g>
			<g>
				<polygon fill="#4AA0C7" points="413.216,326.832 409.921,328.952 332.066,289.887 336.03,288.313 				"/>
			</g>
		</g>
		<path fill="#3D83A3" d="M395.467,255.246l-83.131,41.102v1.19l82.425,41.892l83.125-40.902l0.063-2.236L395.467,255.246z
			 M319.847,296.756l75.608-37.356l75.028,37.356l-75.679,37.223L319.847,296.756z"/>
		<polygon fill="#7FBCD7" points="390.192,430.296 316.295,393.672 316.295,303.217 390.192,339.837 		"/>
		<polygon fill="#7FBCD7" points="399.421,430.895 473.318,394.538 473.318,304.786 399.421,341.159 		"/>
		<g>
			<g>
				<polygon fill="#4AA0C7" points="390.192,356.077 390.192,359.69 316.295,322.74 316.295,319.127 				"/>
			</g>
			<g>
				<polygon fill="#4AA0C7" points="390.192,375.729 390.192,379.422 316.295,342.472 316.295,338.781 				"/>
			</g>
			<g>
				<polygon fill="#4AA0C7" points="390.192,392.941 390.192,396.651 316.295,359.69 316.295,355.988 				"/>
			</g>
			<g>
				<polygon fill="#4AA0C7" points="390.192,410.643 390.192,414.337 316.295,377.386 316.295,373.694 				"/>
			</g>
			<g>
				<polygon fill="#4AA0C7" points="399.421,356.535 399.421,360.227 473.318,323.279 473.318,319.587 				"/>
			</g>
			<g>
				<polygon fill="#4AA0C7" points="399.421,376.261 399.421,379.955 473.318,343.008 473.318,339.31 				"/>
			</g>
			<g>
				<polygon fill="#4AA0C7" points="399.421,393.487 399.421,397.178 473.318,360.227 473.318,356.535 				"/>
			</g>
			<g>
				<polygon fill="#4AA0C7" points="399.421,410.643 399.421,414.337 473.318,377.386 473.318,373.694 				"/>
			</g>
		</g>
	</g>
	<g id="Ingots">
		<g id="Ingot_6_">
			<rect x="124.965" y="312.298" fill="#3D83A3" width="13.852" height="6.938"/>
			<rect x="104.195" y="318.719" fill="#3D83A3" width="41.545" height="6.92"/>
			<rect x="83.427" y="325.639" fill="#3D83A3" width="69.188" height="6.937"/>
			<rect x="62.705" y="332.576" fill="#3D83A3" width="96.888" height="6.933"/>
			<rect x="55.777" y="339.509" fill="#3D83A3" width="110.735" height="27.677"/>
			<rect x="62.705" y="374.057" fill="#3D83A3" width="74.41" height="6.918"/>
			<rect x="69.632" y="380.979" fill="#3D83A3" width="46.71" height="6.935"/>
			<rect x="83.427" y="367.138" fill="#4AA0C7" width="34.624" height="6.918"/>
			<rect x="55.777" y="367.138" fill="#3D83A3" width="103.817" height="6.918"/>
			<rect x="76.498" y="387.913" fill="#3D83A3" width="20.773" height="6.919"/>
			<rect x="62.705" y="339.509" fill="#7FBCD7" width="96.888" height="27.677"/>
			<rect x="62.705" y="363.572" fill="#7FBCD7" width="74.41" height="10.484"/>
			<rect x="83.427" y="332.576" fill="#7FBCD7" width="69.188" height="11.117"/>
			<rect x="104.195" y="325.639" fill="#7FBCD7" width="41.545" height="9.271"/>
			<rect x="124.965" y="318.719" fill="#7FBCD7" width="13.852" height="8.576"/>
			<rect x="69.632" y="370.949" fill="#7FBCD7" width="46.71" height="10.031"/>
			<rect x="76.498" y="378.776" fill="#7FBCD7" width="20.773" height="9.127"/>
		</g>
		<g id="Ingot_2_">
			<rect x="162.483" y="330.311" fill="#3D83A3" width="13.846" height="6.915"/>
			<rect x="141.71" y="336.723" fill="#3D83A3" width="41.544" height="6.928"/>
			<rect x="120.995" y="343.65" fill="#3D83A3" width="69.188" height="6.919"/>
			<rect x="100.225" y="350.569" fill="#3D83A3" width="96.882" height="6.914"/>
			<rect x="93.298" y="357.485" fill="#3D83A3" width="110.738" height="27.714"/>
			<rect x="100.225" y="392.058" fill="#3D83A3" width="74.41" height="6.931"/>
			<rect x="107.148" y="398.988" fill="#3D83A3" width="46.71" height="6.919"/>
			<rect x="120.995" y="385.122" fill="#4AA0C7" width="34.623" height="6.934"/>
			<rect x="93.298" y="385.122" fill="#3D83A3" width="103.807" height="6.934"/>
			<rect x="114.071" y="405.909" fill="#3D83A3" width="20.771" height="6.917"/>
			<rect x="100.225" y="357.485" fill="#7FBCD7" width="96.882" height="27.714"/>
			<rect x="100.225" y="381.553" fill="#7FBCD7" width="74.41" height="10.503"/>
			<rect x="120.995" y="350.569" fill="#7FBCD7" width="69.188" height="11.103"/>
			<rect x="141.71" y="343.65" fill="#7FBCD7" width="41.544" height="9.241"/>
			<rect x="162.483" y="336.723" fill="#7FBCD7" width="13.846" height="8.558"/>
			<rect x="107.148" y="388.992" fill="#7FBCD7" width="46.71" height="10.041"/>
			<rect x="114.071" y="396.76" fill="#7FBCD7" width="20.771" height="9.149"/>
		</g>
		<g id="Ingot_1_">
			<rect x="102.098" y="335.986" fill="#3D83A3" width="13.843" height="6.918"/>
			<rect x="81.324" y="342.401" fill="#3D83A3" width="41.549" height="6.923"/>
			<rect x="60.604" y="349.326" fill="#3D83A3" width="69.188" height="6.917"/>
			<rect x="39.828" y="356.243" fill="#3D83A3" width="96.888" height="6.916"/>
			<rect x="32.91" y="363.161" fill="#3D83A3" width="110.734" height="27.714"/>
			<rect x="39.828" y="397.791" fill="#3D83A3" width="74.412" height="6.915"/>
			<rect x="46.762" y="404.659" fill="#3D83A3" width="46.71" height="6.924"/>
			<rect x="60.604" y="390.873" fill="#4AA0C7" width="34.631" height="6.918"/>
			<rect x="32.91" y="390.873" fill="#3D83A3" width="103.806" height="6.918"/>
			<rect x="53.686" y="411.583" fill="#3D83A3" width="20.772" height="6.919"/>
			<rect x="39.828" y="363.161" fill="#7FBCD7" width="96.888" height="27.714"/>
			<rect x="39.828" y="387.229" fill="#7FBCD7" width="74.412" height="10.499"/>
			<rect x="60.604" y="356.243" fill="#7FBCD7" width="69.188" height="11.106"/>
			<rect x="81.324" y="349.326" fill="#7FBCD7" width="41.549" height="9.239"/>
			<rect x="102.098" y="342.401" fill="#7FBCD7" width="13.843" height="8.548"/>
			<rect x="46.762" y="394.669" fill="#7FBCD7" width="46.71" height="10.039"/>
			<rect x="53.686" y="402.432" fill="#7FBCD7" width="20.772" height="9.147"/>
		</g>
	</g>
</g>
<g id="Shamir_1_">
	<rect id="Cast_1_" x="222.002" y="88.469" fill="#3D83A3" width="67.713" height="67.718"/>
	<rect id="Band_1_" x="215.476" y="109.515" fill="#7FBCD7" width="80.102" height="22.166"/>
</g>
<g id="Shamir_Particles_1_">
	<g>
		<polygon fill="#7FBCD7" points="309.727,174.976 311.261,168.315 317.924,169.857 316.393,176.507 		"/>
		<polygon fill="#7FBCD7" points="315.782,179.182 316.412,176.499 319.094,177.113 318.465,179.794 		"/>
		<polygon fill="#7FBCD7" points="318.025,169.911 318.619,167.229 321.302,167.853 320.7,170.534 		"/>
		<polygon fill="#7FBCD7" points="308.68,167.782 309.31,165.101 311.991,165.72 311.362,168.4 		"/>
		<polygon fill="#7FBCD7" points="306.502,177.027 307.133,174.349 309.813,174.972 309.182,177.65 		"/>
	</g>
	<g>
		<polygon fill="#7FBCD7" points="191.428,166.832 194.267,156.246 204.853,159.075 202.013,169.661 		"/>
		<polygon fill="#7FBCD7" points="200.844,173.867 201.976,169.633 206.212,170.772 205.07,175 		"/>
		<polygon fill="#7FBCD7" points="204.787,159.099 205.914,154.862 210.154,155.999 209.012,160.226 		"/>
		<polygon fill="#7FBCD7" points="189.96,155.06 191.098,150.829 195.322,151.965 194.196,156.191 		"/>
		<polygon fill="#7FBCD7" points="186.002,169.915 187.145,165.684 191.371,166.823 190.247,171.052 		"/>
	</g>
	<g>
		<polygon fill="#7FBCD7" points="179.271,90.861 182.938,85.091 188.694,88.757 185.043,94.519 		"/>
		<polygon fill="#7FBCD7" points="183.618,96.832 185.088,94.503 187.412,95.985 185.935,98.308 		"/>
		<polygon fill="#7FBCD7" points="188.726,88.774 190.19,86.45 192.52,87.927 191.038,90.25 		"/>
		<polygon fill="#7FBCD7" points="180.639,83.633 182.116,81.306 184.444,82.784 182.962,85.103 		"/>
		<polygon fill="#7FBCD7" points="175.476,91.69 176.947,89.365 179.27,90.842 177.796,93.159 		"/>
	</g>
	<g>
		<polygon fill="#7FBCD7" points="260.199,65.491 261.098,62.823 263.766,63.693 262.865,66.356 		"/>
		
			<rect x="258.79" y="59.65" transform="matrix(-0.3086 0.9512 -0.9512 -0.3086 398.5536 -167.6001)" fill="#7FBCD7" width="2.801" height="2.806"/>
		<polygon fill="#7FBCD7" points="263.769,63.606 264.633,60.948 267.303,61.815 266.403,64.484 		"/>
		<polygon fill="#7FBCD7" points="256.661,67.222 257.51,64.563 260.178,65.43 259.313,68.097 		"/>
		
			<rect x="262.343" y="66.705" transform="matrix(-0.3083 0.9513 -0.9513 -0.3083 409.8375 -161.7968)" fill="#7FBCD7" width="2.8" height="2.806"/>
	</g>
	<g>
		<polygon fill="#7FBCD7" points="322.98,105.313 329.819,105.239 329.876,112.069 323.073,112.136 		"/>
		<polygon fill="#7FBCD7" points="329.876,112.076 332.647,112.043 332.67,114.798 329.897,114.821 		"/>
		<polygon fill="#7FBCD7" points="329.796,102.497 332.532,102.466 332.555,105.22 329.817,105.243 		"/>
		
			<rect x="320.272" y="102.634" transform="matrix(-1 0.0086 -0.0086 -1 644.1566 205.255)" fill="#7FBCD7" width="2.733" height="2.75"/>
		<polygon fill="#7FBCD7" points="320.374,112.179 323.107,112.148 323.13,114.898 320.397,114.933 		"/>
	</g>
</g>
</svg>
