<?xml version="1.0" encoding="utf-8"?>
<!-- Generator: Adobe Illustrator 16.0.0, SVG Export Plug-In . SVG Version: 6.00 Build 0)  -->
<!DOCTYPE svg PUBLIC "-//W3C//DTD SVG 1.1//EN" "http://www.w3.org/Graphics/SVG/1.1/DTD/svg11.dtd">
<svg version="1.1"
	 id="xp_storage" xmlns:cc="http://creativecommons.org/ns#" xmlns:dc="http://purl.org/dc/elements/1.1/" xmlns:inkscape="http://www.inkscape.org/namespaces/inkscape" xmlns:rdf="http://www.w3.org/1999/02/22-rdf-syntax-ns#" xmlns:sodipodi="http://sodipodi.sourceforge.net/DTD/sodipodi-0.dtd" xmlns:svg="http://www.w3.org/2000/svg"
	 xmlns="http://www.w3.org/2000/svg" xmlns:xlink="http://www.w3.org/1999/xlink" x="0px" y="0px" width="511.473px"
	 height="511.473px" viewBox="0 0 511.473 511.473" enable-background="new 0 0 511.473 511.473" xml:space="preserve">
<rect fill="#FFFFFF" width="511.473" height="511.473"/>
<g>
	<g>
		<polygon fill="#A1CEE2" points="325.085,477.681 325.085,474.976 322.375,474.976 319.665,474.976 319.665,477.681 
			316.956,477.681 316.956,480.393 316.956,483.104 319.665,483.104 319.665,485.81 322.375,485.81 325.085,485.81 325.085,483.104 
			327.792,483.104 327.792,480.393 327.792,477.681 		"/>
		<path fill="#7FBCD7" d="M330.499,472.269v-2.711h-2.706h-2.708h-2.708h-2.712h-2.709h-2.707v2.711h-2.707v2.707v2.705v2.711v2.713
			v2.705v2.709h2.707v2.712h2.707h2.709h2.71h2.708h2.709h2.705v-2.712h2.711v-2.709v-2.705v-2.713v-2.711v-2.705v-2.707H330.499z
			 M325.085,485.81h-2.708h-2.712v-2.705h-2.709v-2.713v-2.711h2.709v-2.705h2.71h2.708v2.705h2.709v2.711v2.713h-2.709
			L325.085,485.81L325.085,485.81z"/>
		<g>
			<polygon fill="#387895" points="325.085,491.23 322.375,491.23 319.665,491.23 316.956,491.23 314.249,491.23 314.249,493.938 
				316.956,493.938 319.665,493.938 322.375,493.938 325.085,493.938 327.792,493.938 330.499,493.938 330.499,491.23 
				327.792,491.23 			"/>
			<rect x="330.499" y="488.519" fill="#387895" width="2.712" height="2.712"/>
			<rect x="311.54" y="488.519" fill="#387895" width="2.707" height="2.712"/>
			<polygon fill="#387895" points="311.54,483.104 311.54,480.393 311.54,477.681 311.54,474.976 311.54,472.269 308.829,472.269 
				308.829,474.976 308.829,477.681 308.829,480.393 308.829,483.104 308.829,485.81 308.829,488.519 311.54,488.519 311.54,485.81 
							"/>
			<polygon fill="#387895" points="333.211,472.269 333.211,474.976 333.211,477.681 333.211,480.393 333.211,483.104 
				333.211,485.81 333.211,488.519 335.919,488.519 335.919,485.81 335.919,483.104 335.919,480.393 335.919,477.681 
				335.919,474.976 335.919,472.269 			"/>
			<rect x="330.499" y="469.558" fill="#387895" width="2.712" height="2.711"/>
			<rect x="311.54" y="469.558" fill="#387895" width="2.707" height="2.711"/>
			<polygon fill="#387895" points="319.665,469.558 322.375,469.558 325.085,469.558 327.792,469.558 330.499,469.558 
				330.499,466.85 327.792,466.85 325.085,466.85 322.375,466.85 319.665,466.85 316.956,466.85 314.249,466.85 314.249,469.558 
				316.956,469.558 			"/>
		</g>
	</g>
	<g>
		<g>
			<polygon fill="#A1CEE2" points="298.582,405.111 298.582,402.428 295.895,402.428 293.209,402.428 293.209,405.111 
				290.521,405.111 290.521,407.797 290.521,410.486 293.209,410.486 293.209,413.167 295.895,413.167 298.582,413.167 
				298.582,410.486 301.264,410.486 301.264,407.797 301.264,405.111 			"/>
			<path fill="#7FBCD7" d="M303.948,399.742v-2.689h-2.685h-2.682h-2.688h-2.685h-2.686h-2.687v2.689h-2.686v2.686v2.684v2.686
				v2.688v2.682v2.685h2.686v2.688h2.687h2.686h2.685h2.688h2.682h2.685v-2.688h2.689v-2.685v-2.682v-2.688v-2.686v-2.684v-2.686
				H303.948z M298.582,413.167h-2.688h-2.685v-2.682h-2.686v-2.688v-2.684h2.686v-2.687h2.685h2.688v2.687h2.682v2.684v2.688h-2.682
				V413.167z"/>
			<g>
				<polygon fill="#387895" points="298.582,418.539 295.895,418.539 293.209,418.539 290.521,418.539 287.837,418.539 
					287.837,421.227 290.521,421.227 293.209,421.227 295.895,421.227 298.582,421.227 301.264,421.227 303.948,421.227 
					303.948,418.539 301.264,418.539 				"/>
				<rect x="303.948" y="415.852" fill="#387895" width="2.689" height="2.688"/>
				<rect x="285.152" y="415.852" fill="#387895" width="2.686" height="2.688"/>
				<polygon fill="#387895" points="285.152,410.486 285.152,407.797 285.152,405.111 285.152,402.428 285.152,399.742 
					282.465,399.742 282.465,402.428 282.465,405.111 282.465,407.797 282.465,410.486 282.465,413.167 282.465,415.852 
					285.152,415.852 285.152,413.167 				"/>
				<polygon fill="#387895" points="306.638,399.742 306.638,402.428 306.638,405.111 306.638,407.797 306.638,410.486 
					306.638,413.167 306.638,415.852 309.321,415.852 309.321,413.167 309.321,410.486 309.321,407.797 309.321,405.111 
					309.321,402.428 309.321,399.742 				"/>
				<rect x="303.948" y="397.053" fill="#387895" width="2.689" height="2.689"/>
				<rect x="285.152" y="397.053" fill="#387895" width="2.686" height="2.689"/>
				<polygon fill="#387895" points="293.209,397.053 295.895,397.053 298.582,397.053 301.264,397.053 303.948,397.053 
					303.948,394.369 301.264,394.369 298.582,394.369 295.895,394.369 293.209,394.369 290.521,394.369 287.837,394.369 
					287.837,397.053 290.521,397.053 				"/>
			</g>
		</g>
		<g>
			<polygon fill="#A1CEE2" points="212.44,479.95 212.44,477.267 209.752,477.267 207.069,477.267 207.069,479.95 204.381,479.95 
				204.381,482.636 204.381,485.325 207.069,485.325 207.069,488.007 209.752,488.007 212.44,488.007 212.44,485.325 
				215.123,485.325 215.123,482.636 215.123,479.95 			"/>
			<path fill="#7FBCD7" d="M217.809,474.582v-2.688h-2.686h-2.683h-2.687h-2.685h-2.687h-2.686v2.688h-2.686v2.685v2.687v2.683
				v2.689v2.683v2.687h2.686v2.685h2.686h2.687h2.685h2.687h2.683h2.686v-2.686h2.687v-2.687v-2.683v-2.688v-2.684v-2.687v-2.686
				L217.809,474.582L217.809,474.582z M212.44,488.007h-2.687h-2.685v-2.683h-2.687v-2.688v-2.684h2.687v-2.687h2.685h2.687v2.687
				h2.683v2.684v2.688h-2.683V488.007z"/>
			<g>
				<polygon fill="#387895" points="212.44,493.379 209.752,493.379 207.069,493.379 204.381,493.379 201.696,493.379 
					201.696,496.066 204.381,496.066 207.069,496.066 209.752,496.066 212.44,496.066 215.123,496.066 217.809,496.066 
					217.809,493.379 215.123,493.379 				"/>
				<rect x="217.809" y="490.693" fill="#387895" width="2.687" height="2.684"/>
				<rect x="199.01" y="490.693" fill="#387895" width="2.686" height="2.684"/>
				<polygon fill="#387895" points="199.01,485.325 199.01,482.636 199.01,479.95 199.01,477.267 199.01,474.582 196.323,474.582 
					196.323,477.267 196.323,479.95 196.323,482.636 196.323,485.325 196.323,488.007 196.323,490.693 199.01,490.693 
					199.01,488.007 				"/>
				<polygon fill="#387895" points="220.496,474.582 220.496,477.267 220.496,479.95 220.496,482.636 220.496,485.325 
					220.496,488.007 220.496,490.693 223.18,490.693 223.18,488.007 223.18,485.325 223.18,482.636 223.18,479.95 223.18,477.267 
					223.18,474.582 				"/>
				<rect x="217.809" y="471.894" fill="#387895" width="2.687" height="2.688"/>
				<rect x="199.01" y="471.894" fill="#387895" width="2.686" height="2.688"/>
				<polygon fill="#387895" points="207.069,471.894 209.752,471.894 212.44,471.894 215.123,471.894 217.809,471.894 
					217.809,469.209 215.123,469.209 212.44,469.209 209.752,469.209 207.069,469.209 204.381,469.209 201.696,469.209 
					201.696,471.894 204.381,471.894 				"/>
			</g>
		</g>
		<g>
			<polygon fill="#A1CEE2" points="272.985,476.537 272.985,473.855 270.299,473.855 267.612,473.855 267.612,476.537 
				264.927,476.537 264.927,479.225 264.927,481.914 267.612,481.914 267.612,484.595 270.299,484.595 272.985,484.595 
				272.985,481.914 275.668,481.914 275.668,479.225 275.668,476.537 			"/>
			<path fill="#7FBCD7" d="M278.354,471.171v-2.689h-2.687h-2.683h-2.687h-2.687h-2.683h-2.686v2.689h-2.686v2.685v2.687v2.686
				v2.688v2.681v2.687h2.686v2.685h2.686h2.683h2.687h2.687h2.683h2.687v-2.685h2.686v-2.687v-2.681v-2.688v-2.686v-2.687v-2.685
				H278.354z M272.985,484.595h-2.687h-2.687v-2.681h-2.683v-2.689v-2.684h2.683v-2.687h2.687h2.687v2.687h2.683v2.684v2.689h-2.683
				V484.595z"/>
			<g>
				<polygon fill="#387895" points="272.985,489.968 270.299,489.968 267.612,489.968 264.927,489.968 262.24,489.968 
					262.24,492.653 264.927,492.653 267.612,492.653 270.299,492.653 272.985,492.653 275.668,492.653 278.354,492.653 
					278.354,489.968 275.668,489.968 				"/>
				<rect x="278.354" y="487.281" fill="#387895" width="2.686" height="2.685"/>
				<rect x="259.557" y="487.281" fill="#387895" width="2.684" height="2.685"/>
				<polygon fill="#387895" points="259.557,481.914 259.557,479.225 259.557,476.537 259.557,473.855 259.557,471.171 
					256.872,471.171 256.872,473.855 256.872,476.537 256.872,479.225 256.872,481.914 256.872,484.595 256.872,487.281 
					259.557,487.281 259.557,484.595 				"/>
				<polygon fill="#387895" points="281.042,471.171 281.042,473.855 281.042,476.537 281.042,479.225 281.042,481.914 
					281.042,484.595 281.042,487.281 283.727,487.281 283.727,484.595 283.727,481.914 283.727,479.225 283.727,476.537 
					283.727,473.855 283.727,471.171 				"/>
				<rect x="278.354" y="468.481" fill="#387895" width="2.686" height="2.689"/>
				<rect x="259.557" y="468.481" fill="#387895" width="2.684" height="2.689"/>
				<polygon fill="#387895" points="267.612,468.481 270.299,468.481 272.985,468.481 275.668,468.481 278.354,468.481 
					278.354,465.797 275.668,465.797 272.985,465.797 270.299,465.797 267.612,465.797 264.927,465.797 262.24,465.797 
					262.24,468.481 264.927,468.481 				"/>
			</g>
		</g>
		<g>
			<polygon fill="#A1CEE2" points="242.302,115.887 242.302,113.204 239.616,113.204 236.93,113.204 236.93,115.887 
				234.243,115.887 234.243,118.573 234.243,121.262 236.93,121.262 236.93,123.946 239.616,123.946 242.302,123.946 
				242.302,121.262 244.986,121.262 244.986,118.573 244.986,115.887 			"/>
			<path fill="#7FBCD7" d="M247.671,110.52v-2.689h-2.685h-2.685h-2.686h-2.687h-2.686h-2.686v2.689h-2.685v2.685v2.683v2.686v2.688
				v2.683v2.685h2.685v2.687h2.686h2.686h2.687h2.686h2.685h2.685v-2.687h2.687v-2.685v-2.683v-2.688v-2.686v-2.683v-2.685H247.671z
				 M242.302,123.946h-2.686h-2.686v-2.683h-2.685v-2.688v-2.686h2.685v-2.683h2.686h2.686v2.683h2.685v2.686v2.688h-2.685V123.946z
				"/>
			<g>
				<polygon fill="#387895" points="242.302,129.317 239.616,129.317 236.93,129.317 234.243,129.317 231.558,129.317 
					231.558,132.003 234.243,132.003 236.93,132.003 239.616,132.003 242.302,132.003 244.986,132.003 247.671,132.003 
					247.671,129.317 244.986,129.317 				"/>
				<rect x="249.271" y="126.63" fill="#387895" width="2.686" height="2.687"/>
				<rect x="228.873" y="126.63" fill="#387895" width="2.687" height="2.687"/>
				<polygon fill="#387895" points="228.873,121.262 228.873,118.573 228.873,115.887 228.873,113.204 228.873,110.52 
					226.188,110.52 226.188,113.204 226.188,115.887 226.188,118.573 226.188,121.262 226.188,123.946 226.188,126.63 
					228.873,126.63 228.873,123.946 				"/>
				<polygon fill="#387895" points="250.358,110.52 250.358,113.204 250.358,115.887 250.358,118.573 250.358,121.262 
					250.358,123.946 250.358,126.63 253.043,126.63 253.043,123.946 253.043,121.262 253.043,118.573 253.043,115.887 
					253.043,113.204 253.043,110.52 				"/>
				<rect x="247.671" y="107.831" fill="#387895" width="2.687" height="2.689"/>
				<rect x="228.873" y="107.831" fill="#387895" width="2.687" height="2.689"/>
				<polygon fill="#387895" points="236.93,107.831 239.616,107.831 242.302,107.831 244.986,107.831 247.671,107.831 
					247.671,105.146 244.986,105.146 242.302,105.146 239.616,105.146 236.93,105.146 234.243,105.146 231.558,105.146 
					231.558,107.831 234.243,107.831 				"/>
			</g>
		</g>
		<g>
			<polygon fill="#A1CEE2" points="233.75,428.223 233.75,423.979 229.5,423.979 225.251,423.979 225.251,428.223 221.001,428.223 
				221.001,432.472 221.001,436.724 225.251,436.724 225.251,440.967 229.5,440.967 233.75,440.967 233.75,436.724 237.993,436.724 
				237.993,432.472 237.993,428.223 			"/>
			<path fill="#7FBCD7" d="M242.242,419.73v-4.25h-4.249h-4.242H229.5h-4.249h-4.25h-4.247v4.25h-4.246v4.248v4.244v4.25v4.252
				v4.244v4.244h4.246v4.254h4.247h4.25h4.249h4.251h4.242h4.249v-4.254h4.25v-4.244v-4.244v-4.252v-4.25v-4.244v-4.248H242.242z
				 M233.75,440.967h-4.25h-4.249v-4.243H221v-4.252v-4.251h4.25v-4.244h4.249h4.25v4.244h4.243v4.251v4.252h-4.243V440.967z"/>
			<g>
				<polygon fill="#387895" points="233.75,449.467 229.5,449.467 225.251,449.467 221.001,449.467 216.757,449.467 
					216.757,453.712 221.001,453.712 225.251,453.712 229.5,453.712 233.75,453.712 237.993,453.712 242.242,453.712 
					242.242,449.467 237.993,449.467 				"/>
				<rect x="242.242" y="445.212" fill="#387895" width="4.25" height="4.255"/>
				<rect x="212.51" y="445.212" fill="#387895" width="4.248" height="4.255"/>
				<polygon fill="#387895" points="212.51,436.724 212.51,432.472 212.51,428.223 212.51,423.979 212.51,419.73 208.262,419.73 
					208.262,423.979 208.262,428.223 208.262,432.472 208.262,436.724 208.262,440.967 208.262,445.212 212.51,445.212 
					212.51,440.967 				"/>
				<polygon fill="#387895" points="246.493,419.73 246.493,423.979 246.493,428.223 246.493,432.472 246.493,436.724 
					246.493,440.967 246.493,445.212 250.737,445.212 250.737,440.967 250.737,436.724 250.737,432.472 250.737,428.223 
					250.737,423.979 250.737,419.73 				"/>
				<rect x="242.242" y="415.48" fill="#387895" width="4.25" height="4.246"/>
				<rect x="212.51" y="415.48" fill="#387895" width="4.248" height="4.246"/>
				<polygon fill="#387895" points="225.251,415.48 229.5,415.48 233.75,415.48 237.993,415.48 242.242,415.48 242.242,411.235 
					237.993,411.235 233.75,411.235 229.5,411.235 225.251,411.235 221.001,411.235 216.757,411.235 216.757,415.48 221.001,415.48 
									"/>
			</g>
		</g>
		<g>
			<polygon fill="#A1CEE2" points="242.094,387.852 242.094,385.738 239.979,385.738 237.864,385.738 237.864,387.852 
				235.751,387.852 235.751,389.967 235.751,392.085 237.864,392.085 237.864,394.196 239.979,394.196 242.094,394.196 
				242.094,392.085 244.207,392.085 244.207,389.967 244.207,387.852 			"/>
			<path fill="#7FBCD7" d="M246.32,383.626v-2.112h-2.113h-2.112h-2.114h-2.116h-2.113h-2.114v2.112h-2.114v2.112v2.113v2.115v2.118
				v2.105v2.114h2.114v2.116h2.114h2.113h2.116h2.114h2.112h2.113v-2.116h2.116v-2.114v-2.105v-2.118v-2.115v-2.113v-2.112H246.32z
				 M242.094,394.196h-2.115h-2.115v-2.106h-2.113v-2.117v-2.115h2.113v-2.113h2.115h2.115v2.113h2.112v2.115v2.117h-2.112V394.196z
				"/>
			<g>
				<polygon fill="#387895" points="242.094,398.426 239.979,398.426 237.864,398.426 235.751,398.426 233.636,398.426 
					233.636,400.538 235.751,400.538 237.864,400.538 239.979,400.538 242.094,400.538 244.207,400.538 246.32,400.538 
					246.32,398.426 244.207,398.426 				"/>
				<rect x="246.32" y="396.309" fill="#387895" width="2.116" height="2.117"/>
				<rect x="231.521" y="396.309" fill="#387895" width="2.115" height="2.117"/>
				<polygon fill="#387895" points="231.521,392.085 231.521,389.967 231.521,387.852 231.521,385.738 231.521,383.626 
					229.406,383.626 229.406,385.738 229.406,387.852 229.406,389.967 229.406,392.085 229.406,394.196 229.406,396.309 
					231.521,396.309 231.521,394.196 				"/>
				<polygon fill="#387895" points="248.436,383.626 248.436,385.738 248.436,387.852 248.436,389.967 248.436,392.085 
					248.436,394.196 248.436,396.309 250.549,396.309 250.549,394.196 250.549,392.085 250.549,389.967 250.549,387.852 
					250.549,385.738 250.549,383.626 				"/>
				<rect x="246.32" y="381.51" fill="#387895" width="2.116" height="2.118"/>
				<rect x="231.521" y="381.51" fill="#387895" width="2.115" height="2.118"/>
				<polygon fill="#387895" points="237.864,381.51 239.979,381.51 242.094,381.51 244.207,381.51 246.32,381.51 246.32,379.397 
					244.207,379.397 242.094,379.397 239.979,379.397 237.864,379.397 235.751,379.397 233.636,379.397 233.636,381.51 
					235.751,381.51 				"/>
			</g>
		</g>
		<g>
			<polygon fill="#A1CEE2" points="303.907,97.418 303.907,99.53 306.022,99.53 308.137,99.53 308.137,97.418 310.252,97.418 
				310.252,95.303 310.252,93.186 308.137,93.186 308.137,91.075 306.022,91.075 303.907,91.075 303.907,93.186 301.798,93.186 
				301.798,95.303 301.798,97.418 			"/>
			<path fill="#7FBCD7" d="M299.681,101.643v2.117h2.109h2.112h2.115h2.108h2.116h2.112v-2.117h2.116V99.53v-2.112v-2.116v-2.116
				v-2.11v-2.114h-2.116v-2.115h-2.112h-2.113h-2.108h-2.116h-2.112h-2.109v2.115h-2.114v2.114v2.11v2.116v2.116v2.112v2.113
				H299.681z M303.907,91.075h2.115h2.114v2.111h2.115v2.116v2.116h-2.115v2.111h-2.114h-2.115v-2.111h-2.113v-2.116v-2.116h2.113
				V91.075z"/>
			<g>
				<polygon fill="#387895" points="303.907,86.846 306.022,86.846 308.137,86.846 310.252,86.846 312.367,86.846 312.367,84.729 
					310.252,84.729 308.137,84.729 306.022,84.729 303.907,84.729 301.798,84.729 299.681,84.729 299.681,86.846 301.798,86.846 
									"/>
				<rect x="297.567" y="86.846" fill="#387895" width="2.115" height="2.115"/>
				<rect x="312.367" y="86.846" fill="#387895" width="2.115" height="2.115"/>
				<polygon fill="#387895" points="314.482,93.186 314.482,95.303 314.482,97.418 314.482,99.53 314.482,101.643 316.595,101.643 
					316.595,99.53 316.595,97.418 316.595,95.303 316.595,93.186 316.595,91.075 316.595,88.961 314.482,88.961 314.482,91.075 				
					"/>
				<polygon fill="#387895" points="297.567,101.643 297.567,99.53 297.567,97.418 297.567,95.303 297.567,93.186 297.567,91.075 
					297.567,88.961 295.451,88.961 295.451,91.075 295.451,93.186 295.451,95.303 295.451,97.418 295.451,99.53 295.451,101.643 
									"/>
				<rect x="297.567" y="101.643" fill="#387895" width="2.115" height="2.117"/>
				<rect x="312.367" y="101.643" fill="#387895" width="2.115" height="2.117"/>
				<polygon fill="#387895" points="308.137,103.761 306.022,103.761 303.907,103.761 301.798,103.761 299.681,103.761 
					299.681,105.873 301.798,105.873 303.907,105.873 306.022,105.873 308.137,105.873 310.252,105.873 312.367,105.873 
					312.367,103.761 310.252,103.761 				"/>
			</g>
		</g>
		<g>
			<rect x="342.81" y="491.21" fill="#387895" width="4.25" height="4.252"/>
			<rect x="313.078" y="491.21" fill="#387895" width="4.248" height="4.252"/>
			<polygon fill="#387895" points="325.821,491.21 330.069,491.21 334.318,491.21 338.561,491.21 342.81,491.21 342.81,486.964 
				338.561,486.964 334.318,486.964 330.069,486.964 325.821,486.964 321.572,486.964 317.326,486.964 317.326,491.21 
				321.572,491.21 			"/>
		</g>
		<g>
			<polygon fill="#A1CEE2" points="283.3,382.403 283.3,378.924 279.814,378.924 276.333,378.924 276.333,382.403 272.849,382.403 
				272.849,385.887 272.849,389.373 276.333,389.373 276.333,392.853 279.814,392.853 283.3,392.853 283.3,389.373 286.779,389.373 
				286.779,385.887 286.779,382.403 			"/>
			<path fill="#7FBCD7" d="M290.26,375.443v-3.486h-3.48h-3.481h-3.484h-3.482h-3.483h-3.483v3.486h-3.48v3.48v3.479v3.483v3.486
				v3.479v3.483h3.48v3.483h3.484h3.484h3.481h3.485h3.48h3.482v-3.483h3.486v-3.483v-3.479v-3.486v-3.483v-3.479v-3.48H290.26z
				 M283.3,392.853h-3.485h-3.481v-3.479h-3.484v-3.486v-3.481h3.484v-3.483h3.481h3.485v3.483h3.48v3.481v3.486h-3.48V392.853z"/>
			<g>
				<polygon fill="#387895" points="283.3,399.819 279.814,399.819 276.333,399.819 272.849,399.819 269.364,399.819 
					269.364,403.301 272.849,403.301 276.333,403.301 279.814,403.301 283.3,403.301 286.779,403.301 290.26,403.301 
					290.26,399.819 286.779,399.819 				"/>
				<rect x="290.26" y="396.336" fill="#387895" width="3.488" height="3.482"/>
				<rect x="265.884" y="396.336" fill="#387895" width="3.48" height="3.482"/>
				<polygon fill="#387895" points="265.884,389.373 265.884,385.887 265.884,382.403 265.884,378.924 265.884,375.443 
					262.4,375.443 262.4,378.924 262.4,382.403 262.4,385.887 262.4,389.373 262.4,392.853 262.4,396.336 265.884,396.336 
					265.884,392.853 				"/>
				<polygon fill="#387895" points="293.748,375.443 293.748,378.924 293.748,382.403 293.748,385.887 293.748,389.373 
					293.748,392.853 293.748,396.336 297.227,396.336 297.227,392.853 297.227,389.373 297.227,385.887 297.227,382.403 
					297.227,378.924 297.227,375.443 				"/>
				<rect x="290.26" y="371.956" fill="#387895" width="3.488" height="3.485"/>
				<rect x="265.884" y="371.956" fill="#387895" width="3.48" height="3.485"/>
				<polygon fill="#387895" points="276.333,371.956 279.814,371.956 283.3,371.956 286.779,371.956 290.26,371.956 290.26,368.476 
					286.779,368.476 283.3,368.476 279.814,368.476 276.333,368.476 272.849,368.476 269.364,368.476 269.364,371.956 
					272.849,371.956 				"/>
			</g>
		</g>
		<g>
			<polygon fill="#A1CEE2" points="289.473,33.066 289.473,30.382 286.785,30.382 284.099,30.382 284.099,33.066 281.412,33.066 
				281.412,35.752 281.412,38.44 284.099,38.44 284.099,41.123 286.785,41.123 289.473,41.123 289.473,38.44 292.156,38.44 
				292.156,35.752 292.156,33.066 			"/>
			<path fill="#7FBCD7" d="M294.839,27.698v-2.688h-2.683h-2.684h-2.687h-2.685h-2.685h-2.686v2.688h-2.687v2.684v2.684v2.686v2.688
				v2.683v2.686h2.687v2.687h2.686h2.685h2.685h2.687h2.684h2.683v-2.687h2.69v-2.686V38.44v-2.688v-2.686v-2.684v-2.684H294.839z
				 M289.473,41.123h-2.688h-2.686V38.44h-2.685v-2.688v-2.686h2.685v-2.684h2.686h2.688v2.684h2.684v2.686v2.688h-2.684V41.123z"/>
			<g>
				<polygon fill="#387895" points="289.473,46.495 286.785,46.495 284.099,46.495 281.412,46.495 278.729,46.495 278.729,49.182 
					281.412,49.182 284.099,49.182 286.785,49.182 289.473,49.182 292.156,49.182 294.839,49.182 294.839,46.495 292.156,46.495 
									"/>
				<rect x="294.839" y="43.809" fill="#387895" width="2.69" height="2.687"/>
				<rect x="276.041" y="43.809" fill="#387895" width="2.688" height="2.687"/>
				<polygon fill="#387895" points="276.041,38.44 276.041,35.752 276.041,33.066 276.041,30.382 276.041,27.698 273.357,27.698 
					273.357,30.382 273.357,33.066 273.357,35.752 273.357,38.44 273.357,41.123 273.357,43.809 276.041,43.809 276.041,41.123 				
					"/>
				<polygon fill="#387895" points="297.528,27.698 297.528,30.382 297.528,33.066 297.528,35.752 297.528,38.44 297.528,41.123 
					297.528,43.809 300.212,43.809 300.212,41.123 300.212,38.44 300.212,35.752 300.212,33.066 300.212,30.382 300.212,27.698 				
					"/>
				<rect x="294.839" y="25.009" fill="#387895" width="2.69" height="2.688"/>
				<rect x="276.041" y="25.009" fill="#387895" width="2.688" height="2.688"/>
				<polygon fill="#387895" points="284.099,25.009 286.785,25.009 289.473,25.009 292.156,25.009 294.839,25.009 294.839,22.324 
					292.156,22.324 289.473,22.324 286.785,22.324 284.099,22.324 281.412,22.324 278.729,22.324 278.729,25.009 281.412,25.009 
									"/>
			</g>
		</g>
		<g>
			<polygon fill="#A1CEE2" points="246.814,19.634 246.814,16.95 244.126,16.95 241.439,16.95 241.439,19.634 238.752,19.634 
				238.752,22.321 238.752,25.008 241.439,25.008 241.439,27.691 244.126,27.691 246.814,27.691 246.814,25.008 249.496,25.008 
				249.496,22.321 249.496,19.634 			"/>
			<path fill="#7FBCD7" d="M252.181,14.266v-2.688h-2.686h-2.683h-2.686h-2.687h-2.686h-2.685v2.688h-2.684v2.684v2.683v2.686v2.689
				v2.684v2.685h2.684v2.688h2.685h2.686h2.687h2.686h2.683h2.686v-2.688h2.688v-2.685v-2.684v-2.689v-2.686V16.95v-2.684H252.181z
				 M246.814,27.691h-2.687h-2.687v-2.684h-2.686v-2.689v-2.686h2.686V16.95h2.687h2.687v2.683h2.683v2.686v2.689h-2.683V27.691z"/>
			<g>
				<polygon fill="#387895" points="246.814,33.064 244.126,33.064 241.439,33.064 238.752,33.064 236.069,33.064 236.069,35.749 
					238.752,35.749 241.439,35.749 244.126,35.749 246.814,35.749 249.496,35.749 252.181,35.749 252.181,33.064 249.496,33.064 
									"/>
				<rect x="252.181" y="30.376" fill="#387895" width="2.688" height="2.688"/>
				<rect x="233.383" y="30.376" fill="#387895" width="2.686" height="2.688"/>
				<polygon fill="#387895" points="233.383,25.008 233.383,22.321 233.383,19.634 233.383,16.95 233.383,14.266 230.698,14.266 
					230.698,16.95 230.698,19.634 230.698,22.321 230.698,25.008 230.698,27.691 230.698,30.376 233.383,30.376 233.383,27.691 				
					"/>
				<polygon fill="#387895" points="254.869,14.266 254.869,16.95 254.869,19.634 254.869,22.321 254.869,25.008 254.869,27.691 
					254.869,30.376 257.553,30.376 257.553,27.691 257.553,25.008 257.553,22.321 257.553,19.634 257.553,16.95 257.553,14.266 				
					"/>
				<rect x="252.181" y="11.577" fill="#387895" width="2.688" height="2.688"/>
				<rect x="233.383" y="11.577" fill="#387895" width="2.686" height="2.688"/>
				<polygon fill="#387895" points="241.439,11.577 244.126,11.577 246.814,11.577 249.496,11.577 252.181,11.577 252.181,8.892 
					249.496,8.892 246.814,8.892 244.126,8.892 241.439,8.892 238.752,8.892 236.069,8.892 236.069,11.577 238.752,11.577 				"/>
			</g>
		</g>
		<g>
			<rect x="259.061" y="501.625" fill="#387895" width="2.686" height="2.69"/>
			<rect x="240.262" y="501.625" fill="#387895" width="2.687" height="2.69"/>
			<polygon fill="#387895" points="248.32,501.625 251.007,501.625 253.694,501.625 256.375,501.625 259.061,501.625 
				259.061,498.941 256.375,498.941 253.694,498.941 251.007,498.941 248.32,498.941 245.633,498.941 242.949,498.941 
				242.949,501.625 245.633,501.625 			"/>
		</g>
		<g>
			<polygon fill="#A1CEE2" points="281.041,94.34 281.041,98.182 284.889,98.182 288.731,98.182 288.731,94.34 292.579,94.34 
				292.579,90.495 292.579,86.645 288.731,86.645 288.731,82.805 284.889,82.805 281.041,82.805 281.041,86.645 277.2,86.645 
				277.2,90.495 277.2,94.34 			"/>
			<path fill="#7FBCD7" d="M273.357,102.024v3.849h3.843h3.842h3.847h3.843h3.854h3.848v-3.849h3.845v-3.842V94.34v-3.847v-3.85
				v-3.84v-3.843h-3.845v-3.849h-3.848h-3.854h-3.843h-3.847H277.2h-3.843v3.849h-3.854v3.843v3.84v3.85v3.847v3.842v3.842H273.357z
				 M281.041,82.805h3.848h3.843v3.84h3.854v3.85v3.847h-3.854v3.841h-3.843h-3.848v-3.841h-3.842v-3.847v-3.85h3.842V82.805z"/>
			<g>
				<polygon fill="#387895" points="281.041,75.115 284.889,75.115 288.731,75.115 292.579,75.115 296.421,75.115 296.421,71.271 
					292.579,71.271 288.731,71.271 284.889,71.271 281.041,71.271 277.2,71.271 273.357,71.271 273.357,75.115 277.2,75.115 				"/>
				<rect x="269.509" y="75.115" fill="#387895" width="3.849" height="3.848"/>
				<rect x="296.421" y="75.115" fill="#387895" width="3.846" height="3.848"/>
				<polygon fill="#387895" points="300.267,86.645 300.267,90.495 300.267,94.34 300.267,98.182 300.267,102.024 304.112,102.024 
					304.112,98.182 304.112,94.34 304.112,90.495 304.112,86.645 304.112,82.805 304.112,78.962 300.267,78.962 300.267,82.805 				
					"/>
				<polygon fill="#387895" points="269.509,102.024 269.509,98.182 269.509,94.34 269.509,90.495 269.509,86.645 269.509,82.805 
					269.509,78.962 265.667,78.962 265.667,82.805 265.667,86.645 265.667,90.495 265.667,94.34 265.667,98.182 265.667,102.024 
									"/>
				<rect x="269.509" y="102.024" fill="#387895" width="3.849" height="3.849"/>
				<rect x="296.421" y="102.024" fill="#387895" width="3.846" height="3.849"/>
				<polygon fill="#387895" points="288.731,105.873 284.889,105.873 281.041,105.873 277.2,105.873 273.357,105.873 
					273.357,109.717 277.2,109.717 281.041,109.717 284.889,109.717 288.731,109.717 292.579,109.717 296.421,109.717 
					296.421,105.873 292.579,105.873 				"/>
			</g>
		</g>
		<g>
			<g>
				<rect x="223.773" y="370.951" fill="#387895" width="3.469" height="3.468"/>
			</g>
		</g>
		<g>
			<g>
				<polygon fill="#A1CEE2" points="191.91,494.525 186.812,494.525 181.712,494.525 181.712,499.624 181.712,504.723 
					181.712,509.818 186.812,509.818 191.91,509.818 197.008,509.818 197.008,504.723 197.008,499.624 197.008,494.525 				"/>
				<rect x="202.102" y="484.326" fill="#387895" width="5.098" height="5.1"/>
			</g>
			<g>
				<rect x="202.105" y="484.326" fill="#387895" width="5.099" height="5.1"/>
				<polygon fill="#387895" points="181.709,484.322 186.808,484.322 191.907,484.322 197.005,484.322 202.102,484.322 
					202.102,479.225 197.005,479.225 191.907,479.225 186.808,479.225 181.709,479.225 176.614,479.225 176.614,484.322 				"/>
				<polygon fill="#4AA0C7" points="176.614,509.814 176.614,504.717 176.614,499.619 176.614,494.519 176.614,489.421 
					171.513,489.421 171.513,494.519 171.513,499.619 171.513,504.717 171.513,509.814 				"/>
				<rect x="171.513" y="484.326" fill="#387895" width="5.101" height="5.1"/>
				<rect x="171.517" y="484.321" fill="#387895" width="5.098" height="5.098"/>
			</g>
		</g>
		<g>
			<g>
				<polygon fill="#4AA0C7" points="275.905,147.125 271.146,147.125 266.388,147.125 261.629,147.125 256.872,147.125 
					256.872,151.884 261.629,151.884 266.388,151.884 271.146,151.884 275.905,151.884 280.661,151.884 280.661,147.125 				"/>
				<rect x="252.11" y="147.121" fill="#387895" width="4.76" height="4.76"/>
				<polygon fill="#387895" points="275.905,151.884 271.146,151.884 266.388,151.884 261.629,151.884 256.872,151.884 
					256.872,156.641 261.629,156.641 266.388,156.641 271.146,156.641 275.905,156.641 280.661,156.641 280.661,151.884 				"/>
				<rect x="280.661" y="147.121" fill="#387895" width="4.758" height="4.76"/>
				<polygon fill="#4AA0C7" points="252.113,128.093 252.113,132.851 252.113,137.609 252.113,142.367 252.113,147.125 
					256.872,147.125 256.872,142.367 256.872,137.609 256.872,132.851 256.872,128.093 				"/>
				<polygon fill="#A1CEE2" points="267.279,128.093 262.484,128.093 257.69,128.093 257.69,132.928 257.69,137.762 257.69,142.597 
					262.484,142.597 267.279,142.597 272.076,142.597 272.076,137.762 272.076,132.928 272.076,128.093 				"/>
				<rect x="280.659" y="147.127" fill="#387895" width="4.757" height="4.758"/>
				<polygon fill="#387895" points="281.491,123.333 281.491,128.092 281.491,132.85 281.491,137.608 281.491,142.365 
					281.491,147.124 286.248,147.124 286.248,142.365 286.248,137.608 286.248,132.85 286.248,128.092 286.248,123.333 				"/>
			</g>
			<g>
				<rect x="276.731" y="118.575" fill="#387895" width="4.76" height="4.758"/>
				<polygon fill="#387895" points="257.798,118.571 262.556,118.571 267.314,118.571 272.072,118.571 276.83,118.571 
					276.83,113.815 272.072,113.815 267.314,113.815 262.556,113.815 257.798,113.815 253.041,113.815 253.041,118.571 				"/>
				<polygon fill="#4AA0C7" points="256.87,142.362 256.87,137.604 256.87,132.847 256.87,128.088 256.87,123.329 252.11,123.329 
					252.11,128.088 252.11,132.847 252.11,137.604 252.11,142.362 				"/>
				<rect x="252.11" y="118.575" fill="#387895" width="4.76" height="4.758"/>
				<rect x="248.284" y="118.57" fill="#387895" width="4.759" height="4.758"/>
				<polygon fill="#387895" points="248.282,142.364 248.282,137.605 248.282,132.848 248.282,128.089 248.282,123.332 
					243.522,123.332 243.522,128.089 243.522,132.848 243.522,137.605 243.522,142.364 243.522,147.121 248.282,147.121 				"/>
				<rect x="252.113" y="147.121" fill="#387895" width="4.76" height="4.76"/>
				<path fill="#7FBCD7" d="M281.491,123.335v-0.002h-4.76v0.002l0,0v-0.002l0,0v-4.76h-4.759h-4.759h-4.76h-4.76h-4.759v0.002
					v4.756l0,0v0.001l0,0h-4.761v4.759v4.759v4.758v4.758v4.758h4.761l0,0h4.758h0.003l0,0h-0.003h-4.76v4.758h4.76h0.003v0.001
					h4.758h4.76h4.757h4.761v-4.759h-4.761h-0.002l0,0h0.002h4.761v-4.76v-0.001l0,0v0.003v4.758h4.76v-4.758v-4.758v-4.758v-4.759
					v-4.759h-0.004v0.002H281.491z M271.977,142.367h-0.004v-0.002h-4.759h-4.76h-4.76v-0.001v-4.755v-0.002v-4.757v-0.001v-4.758
					h0.003v0.001h4.759h4.76h4.755v4.755v4.758v4.758h0.006V142.367L271.977,142.367z"/>
			</g>
		</g>
		<g>
			<g>
				<polygon fill="#4AA0C7" points="226.942,81.919 222.185,81.919 217.426,81.919 212.667,81.919 207.909,81.919 207.909,86.677 
					212.667,86.677 217.426,86.677 222.185,86.677 226.942,86.677 231.699,86.677 231.699,81.919 				"/>
				<rect x="203.147" y="81.917" fill="#387895" width="4.759" height="4.758"/>
				<polygon fill="#387895" points="226.942,86.677 222.185,86.677 217.426,86.677 212.667,86.677 207.909,86.677 207.909,91.435 
					212.667,91.435 217.426,91.435 222.185,91.435 226.942,91.435 231.699,91.435 231.699,86.677 				"/>
				<rect x="231.699" y="81.917" fill="#387895" width="4.759" height="4.758"/>
				<polygon fill="#4AA0C7" points="203.152,62.887 203.152,67.645 203.152,72.403 203.152,77.163 203.152,81.919 207.909,81.919 
					207.909,77.163 207.909,72.403 207.909,67.645 207.909,62.887 				"/>
				<polygon fill="#A1CEE2" points="222.185,62.887 217.426,62.887 212.667,62.887 212.667,67.645 212.667,72.403 212.667,77.163 
					217.426,77.163 222.185,77.163 226.942,77.163 226.942,72.403 226.942,67.645 226.942,62.887 				"/>
				<rect x="231.695" y="81.92" fill="#387895" width="4.76" height="4.758"/>
				<polygon fill="#387895" points="236.458,58.129 236.458,62.886 236.458,67.644 236.458,72.401 236.458,77.162 236.458,81.917 
					241.216,81.917 241.216,77.162 241.216,72.401 241.216,67.644 241.216,62.886 241.216,58.129 				"/>
				<rect x="231.695" y="53.37" fill="#387895" width="4.76" height="4.759"/>
			</g>
			<g>
				<rect x="231.699" y="53.37" fill="#387895" width="4.759" height="4.759"/>
				<polygon fill="#387895" points="212.663,53.367 217.422,53.367 222.18,53.367 226.938,53.367 231.695,53.367 231.695,48.607 
					226.938,48.607 222.18,48.607 217.422,48.607 212.663,48.607 207.906,48.607 207.906,53.367 				"/>
				<polygon fill="#4AA0C7" points="207.906,77.157 207.906,72.399 207.906,67.639 207.906,62.882 207.906,58.125 203.147,58.125 
					203.147,62.882 203.147,67.639 203.147,72.399 203.147,77.157 				"/>
				<rect x="203.147" y="53.37" fill="#387895" width="4.759" height="4.759"/>
				<rect x="203.152" y="53.365" fill="#387895" width="4.758" height="4.76"/>
				<polygon fill="#387895" points="203.147,77.158 203.147,72.4 203.147,67.642 203.147,62.883 203.147,58.126 198.39,58.126 
					198.39,62.883 198.39,67.642 198.39,72.4 198.39,77.158 198.39,81.917 203.147,81.917 				"/>
				<rect x="203.152" y="81.917" fill="#387895" width="4.758" height="4.758"/>
				<path fill="#7FBCD7" d="M236.458,58.131v-0.003h-4.759v0.002l0,0v-0.002l0,0V53.37h-4.758h-4.76h-4.759h-4.76h-4.759v0.001
					v4.755l0,0v0.003l0,0h-4.76v4.758v4.758v4.759v4.76v4.759h4.76v-0.001h4.757h0.005v0.001h-0.002h-4.759v4.76h4.759h0.002v0.001
					h4.76h4.759h4.76h4.759v-4.759h-4.759h-0.002l0,0h0.002h4.759v-4.759v-0.003l0,0v0.003v4.759h4.76v-4.759v-4.758v-4.758v-4.76
					v-4.756L236.458,58.131L236.458,58.131z M226.944,77.163h-0.002v-0.001h-4.76h-4.758h-4.76v-0.002v-4.756v-0.001v-4.756v-0.001
					v-4.757h0.003v0.001h4.759h4.76h4.755v4.756v4.758v4.76L226.944,77.163L226.944,77.163z"/>
			</g>
		</g>
		<g>
			<g>
				<polygon fill="#4AA0C7" points="321.488,59.547 316.73,59.547 311.97,59.547 307.213,59.547 302.457,59.547 302.457,64.305 
					307.213,64.305 311.97,64.305 316.73,64.305 321.488,64.305 326.245,64.305 326.245,59.547 				"/>
				<rect x="297.693" y="59.542" fill="#387895" width="4.759" height="4.759"/>
				<polygon fill="#387895" points="321.488,64.305 316.73,64.305 311.97,64.305 307.213,64.305 302.457,64.305 302.457,69.062 
					307.213,69.062 311.97,69.062 316.73,69.062 321.488,69.062 326.245,69.062 326.245,64.305 				"/>
				<rect x="326.245" y="59.542" fill="#387895" width="4.76" height="4.759"/>
				<polygon fill="#4AA0C7" points="297.697,40.514 297.697,45.271 297.697,50.029 297.697,54.788 297.697,59.547 302.457,59.547 
					302.457,54.788 302.457,50.029 302.457,45.271 302.457,40.514 				"/>
				<polygon fill="#A1CEE2" points="316.73,40.514 311.97,40.514 307.213,40.514 307.213,45.271 307.213,50.029 307.213,54.788 
					311.97,54.788 316.73,54.788 321.488,54.788 321.488,50.029 321.488,45.271 321.488,40.514 				"/>
				<rect x="326.243" y="59.548" fill="#387895" width="4.758" height="4.758"/>
				<polygon fill="#387895" points="331.005,35.753 331.005,40.512 331.005,45.27 331.005,50.028 331.005,54.786 331.005,59.544 
					335.762,59.544 335.762,54.786 335.762,50.028 335.762,45.27 335.762,40.512 335.762,35.753 				"/>
				<rect x="326.243" y="30.995" fill="#387895" width="4.758" height="4.758"/>
			</g>
			<g>
				<rect x="326.245" y="30.995" fill="#387895" width="4.76" height="4.758"/>
				<polygon fill="#387895" points="307.211,30.991 311.968,30.991 316.728,30.991 321.485,30.991 326.243,30.991 326.243,26.233 
					321.485,26.233 316.728,26.233 311.968,26.233 307.211,26.233 302.452,26.233 302.452,30.991 				"/>
				<polygon fill="#4AA0C7" points="302.452,54.784 302.452,50.025 302.452,45.267 302.452,40.508 302.452,35.75 297.693,35.75 
					297.693,40.508 297.693,45.267 297.693,50.025 297.693,54.784 				"/>
				<rect x="297.693" y="30.995" fill="#387895" width="4.759" height="4.758"/>
				<rect x="297.697" y="30.99" fill="#387895" width="4.761" height="4.758"/>
				<polygon fill="#387895" points="297.693,54.785 297.693,50.027 297.693,45.267 297.693,40.51 297.693,35.752 292.937,35.752 
					292.937,40.51 292.937,45.267 292.937,50.027 292.937,54.785 292.937,59.542 297.693,59.542 				"/>
				<rect x="297.697" y="59.542" fill="#387895" width="4.761" height="4.759"/>
				<path fill="#7FBCD7" d="M331.003,35.756v-0.002h-4.76v0.002l0,0v-0.002l0,0v-4.758h-4.76h-4.76h-4.759h-4.76h-4.761v0.001v4.757
					l0,0v0.001l0,0h-4.757v4.758v4.759v4.757v4.759v4.758h4.757v-0.001h4.761h0.005v0.001h-0.003h-4.759v4.759h4.759h0.003v0.002
					h4.758h4.761h4.76h4.759v-4.76h-4.759h-0.003l0,0h0.003h4.759v-4.759v-0.002l0,0v0.003v4.758h4.758V54.79V50.03v-4.758v-4.759
					v-4.758L331.003,35.756L331.003,35.756z M321.491,54.788h-0.003v-0.001h-4.76h-4.759h-4.759v-0.001v-4.756v-0.001V45.27v-0.001
					V40.51h0.003v0.002h4.759h4.76h4.759v4.756v4.759v4.757h0.007v0.003H321.491z"/>
			</g>
		</g>
		<g>
			<g>
				<polygon fill="#4AA0C7" points="290.867,473.256 286.106,473.256 281.35,473.256 276.593,473.256 271.833,473.256 
					271.833,478.014 276.593,478.014 281.35,478.014 286.106,478.014 290.867,478.014 295.624,478.014 295.624,473.256 				"/>
				<rect x="267.072" y="473.252" fill="#387895" width="4.76" height="4.759"/>
				<polygon fill="#387895" points="290.867,478.014 286.106,478.014 281.35,478.014 276.593,478.014 271.833,478.014 
					271.833,482.772 276.593,482.772 281.35,482.772 286.106,482.772 290.867,482.772 295.624,482.772 295.624,478.014 				"/>
				<rect x="295.624" y="473.252" fill="#387895" width="4.76" height="4.759"/>
				<polygon fill="#4AA0C7" points="267.075,454.223 267.075,458.98 267.075,463.739 267.075,468.498 267.075,473.256 
					271.833,473.256 271.833,468.498 271.833,463.739 271.833,458.98 271.833,454.223 				"/>
				<polygon fill="#A1CEE2" points="286.106,454.223 281.35,454.223 276.593,454.223 276.593,458.98 276.593,463.739 
					276.593,468.498 281.35,468.498 286.106,468.498 290.867,468.498 290.867,463.739 290.867,458.98 290.867,454.223 				"/>
				<rect x="295.621" y="473.259" fill="#387895" width="4.758" height="4.76"/>
				<polygon fill="#387895" points="300.384,449.467 300.384,454.222 300.384,458.98 300.384,463.738 300.384,468.495 
					300.384,473.255 305.14,473.255 305.14,468.495 305.14,463.738 305.14,458.98 305.14,454.222 305.14,449.467 				"/>
				<rect x="295.621" y="444.706" fill="#387895" width="4.758" height="4.761"/>
			</g>
			<g>
				<rect x="295.624" y="444.706" fill="#387895" width="4.76" height="4.761"/>
				<polygon fill="#387895" points="276.589,444.701 281.348,444.701 286.104,444.701 290.864,444.701 295.621,444.701 
					295.621,439.945 290.864,439.945 286.104,439.945 281.348,439.945 276.589,439.945 271.831,439.945 271.831,444.701 				"/>
				<polygon fill="#4AA0C7" points="271.831,468.492 271.831,463.733 271.831,458.978 271.831,454.218 271.831,449.46 
					267.072,449.46 267.072,454.218 267.072,458.978 267.072,463.733 267.072,468.492 				"/>
				<rect x="267.072" y="444.706" fill="#387895" width="4.76" height="4.761"/>
				<rect x="267.075" y="444.7" fill="#387895" width="4.759" height="4.758"/>
				<polygon fill="#387895" points="267.072,468.494 267.072,463.737 267.072,458.979 267.072,454.221 267.072,449.463 
					262.314,449.463 262.314,454.221 262.314,458.979 262.314,463.737 262.314,468.494 262.314,473.252 267.072,473.252 				"/>
				<rect x="267.075" y="473.252" fill="#387895" width="4.759" height="4.759"/>
				<path fill="#7FBCD7" d="M300.383,449.467v-0.004h-4.76v0.004h-0.002v-0.004h0.002v-4.76h-4.758h-4.761h-4.757h-4.761h-4.758
					v0.001v4.759l0,0v0.006l0,0h-4.757v4.757v4.76v4.758v4.761v4.76h4.757l0,0h4.758h0.002l0,0h-0.002h-4.758v4.759h4.758h0.006l0,0
					h4.76h4.76h4.758h4.76v-4.759h-4.76h-0.002v-0.002h0.002h4.76v-4.758v-0.007l0,0v0.007v4.76h4.76v-4.76v-4.761v-4.756v-4.761
					v-4.758L300.383,449.467L300.383,449.467z M290.868,468.501h-0.002v-0.003h-4.761h-4.757h-4.761v-0.001v-4.757v-0.001v-4.756
					v-0.008v-4.756h0.005v0.001h4.76h4.76h4.757v4.76v4.759v4.759h0.004L290.868,468.501L290.868,468.501z"/>
			</g>
		</g>
		<g>
			<polygon fill="none" points="195.105,17.568 195.105,17.57 195.108,17.57 195.108,17.565 195.105,17.565 			"/>
			<polygon fill="none" points="180.831,12.81 180.831,8.052 180.831,3.295 180.835,3.295 180.835,3.292 180.831,3.292 
				180.831,8.05 180.831,8.051 180.831,12.808 180.831,12.81 180.831,17.565 180.831,17.566 180.831,17.566 			"/>
			<polygon fill="none" points="171.313,17.568 171.313,17.563 171.31,17.563 171.31,17.565 171.31,22.323 171.313,22.323 			"/>
			<polygon fill="none" points="180.831,22.327 180.835,22.327 180.835,22.327 180.831,22.327 176.072,22.327 176.072,22.327 			"/>
			<polygon fill="#4AA0C7" points="195.108,22.328 195.105,22.328 195.105,22.328 195.108,22.328 199.863,22.328 199.863,22.328 			
				"/>
			<polygon fill="#4AA0C7" points="180.835,27.083 180.835,27.083 180.831,27.083 176.072,27.083 176.072,27.083 180.831,27.083 			
				"/>
			<polygon fill="#387895" points="171.315,22.327 171.313,22.327 171.313,22.323 171.31,22.323 171.31,27.081 171.315,27.081 			
				"/>
			<polygon fill="#387895" points="199.861,27.086 195.108,27.086 190.35,27.086 185.592,27.086 180.835,27.086 180.835,27.083 
				180.831,27.083 176.072,27.083 176.072,31.842 180.831,31.842 185.589,31.842 190.348,31.842 195.105,31.842 199.863,31.842 
				199.863,27.086 			"/>
			<polygon fill="#387895" points="199.866,22.328 204.619,22.328 204.619,27.081 204.621,27.081 204.621,22.328 			"/>
			<polygon fill="#387895" points="199.863,22.328 199.866,22.328 199.866,22.328 			"/>
			<polygon fill="#A1CEE2" points="180.831,8.052 180.831,12.81 180.831,17.566 185.589,17.566 190.345,17.566 195.105,17.566 
				195.105,17.568 195.105,17.568 195.105,17.565 195.105,17.565 195.105,12.808 195.105,8.05 195.105,3.296 190.35,3.296 
				185.591,3.296 180.835,3.296 180.835,3.295 180.831,3.295 			"/>
			<polygon fill="#387895" points="199.866,27.086 199.863,27.086 199.863,27.086 204.619,27.086 204.619,27.081 199.866,27.081 			
				"/>
			<rect x="199.861" y="27.084" fill="#387895" width="0" height="0.003"/>
			<rect x="199.866" y="22.328" fill="#387895" width="4.753" height="4.754"/>
			<rect x="176.069" y="22.327" fill="#387895" width="0.003" height="4.755"/>
			<rect x="171.315" y="22.327" fill="#387895" width="4.754" height="4.755"/>
			<rect x="176.071" y="22.326" fill="#387895" width="0" height="0.002"/>
			<path fill="#387895" d="M176.072,22.327L176.072,22.327L176.072,22.327z"/>
			<rect x="173.695" y="19.949" fill="#387895" width="0" height="4.754"/>
			<polygon fill="#7FBCD7" points="171.315,17.568 171.315,17.563 171.313,17.563 171.313,17.568 171.313,22.323 171.315,22.323 			
				"/>
			<rect x="204.621" y="22.324" fill="#7FBCD7" width="0.003" height="0.002"/>
			<polygon fill="#7FBCD7" points="176.071,27.082 176.073,27.082 176.073,27.082 			"/>
			<polygon fill="#7FBCD7" points="180.835,27.083 180.835,27.083 185.589,27.083 190.348,27.083 195.105,27.083 199.861,27.083 
				199.861,22.328 199.863,22.328 199.863,22.328 195.108,22.328 195.105,22.328 195.105,22.328 195.108,22.328 199.863,22.328 
				199.863,22.327 195.105,22.327 190.348,22.327 185.589,22.327 180.831,22.327 176.072,22.327 176.072,27.081 176.072,27.083 
				180.831,27.083 			"/>
			<rect x="171.313" y="22.324" fill="#7FBCD7" width="0.004" height="0.001"/>
			<polygon fill="#7FBCD7" points="195.105,27.083 190.348,27.083 185.589,27.083 180.835,27.083 180.835,27.086 185.592,27.086 
				190.35,27.086 195.108,27.086 199.861,27.086 199.861,27.083 			"/>
			<polygon fill="#7FBCD7" points="199.863,22.328 199.866,22.328 199.866,22.328 			"/>
			<polygon fill="#7FBCD7" points="199.863,22.327 199.863,22.328 199.866,22.328 199.866,22.323 199.863,22.323 			"/>
			<polygon fill="#7FBCD7" points="204.621,22.323 199.866,22.323 199.866,22.328 199.866,22.328 204.621,22.328 204.621,22.324 			
				"/>
			<polygon fill="#7FBCD7" points="171.315,22.323 176.069,22.323 176.072,22.323 176.072,17.568 176.072,12.81 176.072,8.052 
				176.072,3.295 176.069,3.295 176.069,8.047 176.069,12.805 176.069,17.563 171.315,17.563 171.315,17.568 			"/>
			<polygon fill="#7FBCD7" points="185.591,3.296 190.35,3.296 195.105,3.296 195.105,8.05 195.105,12.808 195.105,17.565 
				195.105,17.565 195.105,12.81 195.105,8.052 195.105,3.295 190.348,3.295 185.589,3.295 180.835,3.295 180.835,3.296 			"/>
			<polygon fill="#7FBCD7" points="190.345,17.566 185.589,17.566 180.831,17.566 180.831,17.568 185.589,17.568 190.348,17.568 
				195.105,17.568 195.105,17.566 			"/>
			<polygon fill="#7FBCD7" points="199.863,27.083 199.863,27.086 199.866,27.086 199.866,27.081 199.863,27.081 			"/>
			<polygon fill="#7FBCD7" points="199.863,27.081 199.863,22.328 199.861,22.328 199.861,27.083 199.863,27.083 			"/>
			<rect x="199.861" y="27.083" fill="#7FBCD7" width="0" height="0.003"/>
			<rect x="199.863" y="22.328" fill="#7FBCD7" width="0.003" height="4.754"/>
			<g>
				<polygon fill="none" points="195.105,12.81 195.105,8.052 195.105,3.295 190.348,3.295 185.589,3.295 180.835,3.295 
					180.835,3.292 180.831,3.292 180.831,8.05 180.831,8.051 180.831,12.808 180.831,12.81 180.831,17.565 180.831,17.566 
					180.831,17.566 180.831,17.568 185.589,17.568 190.348,17.568 195.105,17.568 195.105,17.57 195.108,17.57 195.108,17.565 
					195.105,17.565 				"/>
			</g>
			<polygon fill="#7FBCD7" points="176.069,12.805 176.069,8.047 176.069,3.295 171.315,3.295 171.315,8.052 171.315,12.81 
				171.315,17.563 176.069,17.563 			"/>
			<rect x="176.072" y="22.327" fill="#7FBCD7" width="0" height="4.755"/>
			<path fill="#7FBCD7" d="M176.072,22.327L176.072,22.327L176.072,22.327z"/>
			<polygon fill="#7FBCD7" points="176.069,22.327 176.072,22.327 176.072,22.327 176.072,22.327 176.072,22.323 176.069,22.323 			
				"/>
			<rect x="171.315" y="22.323" fill="#7FBCD7" width="4.754" height="0.003"/>
		</g>
		<g id="Icon">
			<g id="layer1" inkscape:label="Layer 1" inkscape:groupmode="layer">
				
					<path id="path4147" sodipodi:nodetypes="cccccccccccccccccccccccccccccccccc" inkscape:connector-curvature="0" fill="#46A0C7" d="
					M135.604,299.177v-86.708h53.992h53.994v20.323v20.327h14.927h14.926v-20.327v-20.323h52.726h52.722v86.708v86.71h-121.64
					H135.604V299.177L135.604,299.177z M135.604,175.632v-33.035h121.647h121.648v33.035v33.027h-52.723h-52.726v-3.489v-3.497
					h-14.927h-14.926v3.497v3.489h-54.001h-53.994L135.604,175.632L135.604,175.632z"/>
			</g>
		</g>
		<g>
			<polygon fill="#387895" points="204.625,3.296 204.625,8.053 204.625,12.812 204.625,17.57 204.625,22.324 209.381,22.324 
				209.381,17.566 209.381,12.808 209.381,8.05 209.381,3.292 209.381,0.35 204.625,0.35 			"/>
			<g>
				<polygon fill="#387895" points="166.553,3.291 166.553,8.048 166.553,12.807 166.553,17.565 166.553,22.323 171.31,22.323 
					171.31,17.565 171.31,17.563 171.31,12.807 171.31,12.805 171.31,8.048 171.31,8.047 171.31,3.291 171.31,3.29 171.31,0.35 
					166.553,0.35 				"/>
				<g>
					<polygon fill="none" points="180.831,17.568 185.589,17.568 190.348,17.568 195.105,17.568 195.105,17.57 195.108,17.57 
						195.108,17.565 195.105,17.565 195.105,12.81 195.105,8.052 195.105,3.295 190.348,3.295 185.589,3.295 180.835,3.295 
						180.835,3.292 180.831,3.292 180.831,8.05 180.831,8.051 180.831,12.808 180.831,12.81 180.831,17.565 180.831,17.566 
						180.831,17.566 					"/>
					<path fill="#7FBCD7" d="M176.069,3.29v0.005h0.003v4.757v4.76v4.758v4.754v0.004h4.759h0.004l0,0h-0.004h-4.759l0,0h4.759
						h4.759h4.759h4.76h4.759v-0.004h0.003v-4.753l0,0v-0.003v0.003l0,0v4.753h4.755v-4.757v-4.758V8.051V3.292V0.349h-28.55V3.29
						H176.069z M180.831,17.565v-4.756v-0.002V8.05V8.048V3.291h0.004v0.001h4.755h4.759h4.759V8.05v4.759v4.754h0.003v0.004h-0.003
						v-0.001h-4.759h-4.759L180.831,17.565L180.831,17.565L180.831,17.565L180.831,17.565z"/>
					<g>
						<polygon fill="#7FBCD7" points="171.313,3.292 171.313,8.052 171.313,12.81 171.313,17.563 171.315,17.563 171.315,12.81 
							171.315,8.052 171.315,3.295 176.069,3.295 176.069,3.29 176.069,0.35 171.313,0.35 						"/>
					</g>
				</g>
			</g>
		</g>
		<g>
			<polygon fill="#387895" points="171.513,509.816 171.513,504.717 171.513,499.62 171.513,494.523 171.513,489.424 
				166.414,489.424 166.414,494.523 166.414,499.62 166.414,504.717 166.414,509.816 166.414,511.465 171.513,511.465 			"/>
			<g>
				<polygon fill="#387895" points="212.304,509.817 212.304,504.722 212.304,499.622 212.304,494.523 212.304,489.426 
					207.202,489.426 207.202,494.523 207.202,499.622 207.202,504.722 207.202,509.817 207.202,511.465 212.304,511.465 				"/>
				<g>
					<rect x="202.104" y="489.426" fill="none" width="0" height="0.002"/>
					<polygon fill="none" points="197.007,504.72 197.007,499.62 197.007,494.525 191.912,494.525 186.813,494.525 181.717,494.525 
						181.717,494.523 181.712,494.523 181.712,499.62 181.712,499.624 181.712,504.72 181.712,504.722 181.712,509.816 
						181.712,509.817 186.811,509.817 191.909,509.817 197.007,509.817 197.007,509.82 197.011,509.82 197.011,509.816 
						197.007,509.816 					"/>
					<polygon fill="none" points="202.108,509.82 202.108,509.817 202.108,509.817 202.108,509.82 202.108,511.465 202.108,511.465 
											"/>
					<g>
						<polygon fill="#A1CEE2" points="256.375,509.683 253.694,509.683 253.694,507 251.007,507 248.32,507 248.32,509.683 
							245.633,509.683 245.633,511.465 256.375,511.465 						"/>
						<g>
							<polygon fill="#7FBCD7" points="245.633,509.683 248.32,509.683 248.32,507 251.006,507 253.694,507 253.694,509.683 
								256.375,509.683 256.375,511.465 261.749,511.465 261.749,509.683 261.749,507 261.749,504.315 259.061,504.315 
								259.061,501.625 256.375,501.625 253.694,501.625 251.007,501.625 248.32,501.625 245.633,501.625 242.949,501.625 
								242.949,504.315 240.262,504.315 240.262,507 240.262,509.683 240.262,511.465 245.633,511.465 							"/>
							<g>
								<polygon fill="#387895" points="264.434,509.683 264.434,507 264.434,504.315 261.749,504.315 261.749,507 261.749,509.683 
									261.749,511.465 264.434,511.465 								"/>
								<g>
									<polygon fill="#387895" points="240.262,509.683 240.262,507 240.262,504.315 237.578,504.315 237.578,507 
										237.578,509.683 237.578,511.465 240.262,511.465 									"/>
									<g>
										<polygon fill="#A1CEE2" points="338.561,508.202 338.561,503.951 334.318,503.951 334.318,499.708 330.069,499.708 
											325.821,499.708 325.821,503.951 321.572,503.951 321.572,508.202 321.572,511.465 338.561,511.465 										"/>
										<g>
											<polygon fill="#7FBCD7" points="321.572,508.202 321.572,503.951 325.821,503.951 325.821,499.708 330.069,499.708 
												334.318,499.708 334.318,503.951 338.561,503.951 338.561,508.202 338.561,511.465 347.062,511.465 347.062,508.202 
												347.062,503.951 347.062,499.708 347.062,495.462 342.81,495.462 342.81,491.21 338.561,491.21 334.318,491.21 
												330.069,491.21 325.821,491.21 321.572,491.21 317.326,491.21 317.326,495.462 313.078,495.462 313.078,499.708 
												313.078,503.951 313.078,508.202 313.078,511.465 321.572,511.465 											"/>
											<g>
												<polygon fill="#387895" points="351.306,508.202 351.306,503.951 351.306,499.708 351.306,495.462 347.062,495.462 
													347.062,499.708 347.062,503.951 347.062,508.202 347.062,511.465 351.306,511.465 												"/>
												<g>
													<polygon fill="#387895" points="313.078,508.202 313.078,503.951 313.078,499.708 313.078,495.462 308.829,495.462 
														308.829,499.708 308.829,503.951 308.829,508.202 308.829,511.465 313.078,511.465 													"/>
												</g>
											</g>
										</g>
									</g>
								</g>
							</g>
						</g>
					</g>
					<line fill="none" x1="202.108" y1="511.465" x2="202.108" y2="511.465"/>
					<g>
						<polygon fill="none" points="197.007,504.72 197.007,499.62 197.007,494.525 191.912,494.525 186.813,494.525 
							181.717,494.525 181.717,494.523 181.712,494.523 181.712,499.62 181.712,499.624 181.712,504.72 181.712,504.722 
							181.712,509.816 181.712,509.817 186.811,509.817 191.909,509.817 197.007,509.817 197.007,509.82 197.011,509.82 
							197.011,509.816 197.007,509.816 						"/>
						<rect x="202.104" y="489.426" fill="none" width="0" height="0.002"/>
						<g>
							<rect x="202.104" y="489.426" fill="none" width="0" height="0.002"/>
							<polygon fill="none" points="197.007,504.72 197.007,499.62 197.007,494.525 191.912,494.525 186.813,494.525 
								181.717,494.525 181.717,494.523 181.712,494.523 181.712,499.62 181.712,499.624 181.712,504.72 181.712,504.722 
								181.712,509.816 181.712,509.817 186.811,509.817 191.909,509.817 197.007,509.817 197.007,509.82 197.011,509.82 
								197.011,509.816 197.007,509.816 							"/>
							<path fill="#7FBCD7" d="M207.202,489.428v-0.004h-5.097v0.003l0,0v-0.003l0,0v-5.099h-5.099h-5.098h-5.097h-5.099h-5.097
								v0.002v5.095l0,0v0.002l0,0h-5.098v5.098v5.1v5.099v5.09v1.647l0,0v-1.646v-5.09v-5.1v-5.098h5.098v5.098v5.1v5.09v1.646
								h25.496v-1.641v-0.006l0,0v0.006v1.641h5.094l0.002-1.641v-5.096v-5.099v-5.099v-5.098h-0.002L207.202,489.428
								L207.202,489.428z M197.011,509.82h-0.003v-0.002h-5.099h-5.098h-5.098v-0.001v-5.089v-0.002v-5.1v-0.002v-5.098h0.004v0.004
								h5.097h5.099h5.095v5.093v5.096v5.096h0.003V509.82L197.011,509.82z"/>
							<polygon fill="#7FBCD7" points="176.616,504.723 176.616,499.624 176.616,494.525 171.517,494.525 171.517,499.624 
								171.517,504.723 171.517,509.818 171.517,511.465 176.616,511.465 176.616,509.818 							"/>
						</g>
					</g>
				</g>
			</g>
		</g>
	</g>
	<g>
		<polygon fill="none" points="340.537,1.319 340.537,1.317 337.848,1.317 335.164,1.317 335.164,1.319 337.848,1.319 		"/>
		<polygon fill="none" points="343.218,8.505 343.22,8.505 343.22,6.688 343.22,4 343.218,4 343.218,6.688 		"/>
		<polygon fill="none" points="348.589,4.001 348.589,6.69 348.589,8.505 348.591,8.505 348.591,6.688 348.591,4 348.591,1.319 
			348.591,0 348.589,0 348.589,1.319 		"/>
		<polygon fill="#A1CEE2" points="343.218,6.688 343.218,4 340.537,4 340.537,1.319 337.848,1.319 335.164,1.319 335.164,4 
			332.477,4 332.477,6.688 332.477,8.505 343.218,8.505 		"/>
		<polygon fill="#7FBCD7" points="327.105,1.319 327.105,4 327.105,4.001 327.105,6.688 327.105,6.69 327.105,8.505 327.106,8.505 
			332.477,8.505 332.477,6.688 332.477,4 335.164,4 335.164,1.319 335.164,1.317 337.848,1.317 340.537,1.317 340.537,1.319 
			340.537,4 343.218,4 343.22,4 343.22,6.688 343.22,8.505 348.589,8.505 348.589,6.69 348.589,4.001 348.589,1.319 348.589,0 
			327.105,0 		"/>
		<rect x="329.791" y="17.432" fill="#387895" width="0.001" height="2.684"/>
		<rect x="329.791" y="17.431" fill="#387895" width="0.001" height="0.001"/>
		<rect x="327.105" y="14.744" fill="#387895" width="0.001" height="2.687"/>
		<rect x="327.105" y="14.743" fill="#387895" width="0.001" height="0.001"/>
		<polygon fill="#387895" points="324.42,4 324.42,6.688 324.42,8.505 327.105,8.505 327.105,6.69 327.105,6.688 327.105,4.001 
			327.105,4 327.105,1.319 327.105,0 324.42,0 324.42,1.319 		"/>
		<polygon fill="#387895" points="348.591,4 348.591,6.688 348.591,8.505 348.593,8.505 351.277,8.505 351.277,6.688 351.277,4 
			351.277,1.319 351.277,0 348.591,0 348.591,1.319 		"/>
		<rect x="343.218" y="8.505" fill="#A1CEE2" width="0.002" height="0.872"/>
		<polygon fill="#A1CEE2" points="335.164,9.376 335.165,9.376 335.165,12.058 337.848,12.058 337.849,12.058 340.537,12.058 
			340.537,9.376 343.218,9.376 343.218,8.505 332.477,8.505 332.477,9.376 		"/>
		<polygon fill="#7FBCD7" points="348.591,9.376 348.591,8.505 348.589,8.505 348.589,9.377 348.589,12.059 348.589,14.743 
			348.591,14.743 348.591,12.058 		"/>
		<rect x="335.164" y="9.376" fill="#7FBCD7" width="0.001" height="2.681"/>
		<polygon fill="#7FBCD7" points="348.589,9.377 348.589,8.505 343.22,8.505 343.22,9.376 343.218,9.376 340.537,9.376 
			340.537,12.058 337.849,12.058 337.848,12.058 335.165,12.058 335.164,12.058 335.164,9.376 332.477,9.376 332.477,8.505 
			327.106,8.505 327.106,9.376 327.106,12.058 327.106,14.743 329.791,14.743 329.792,14.743 329.792,17.431 332.477,17.431 
			335.164,17.431 335.165,17.431 337.848,17.431 337.849,17.431 340.537,17.431 343.218,17.431 343.22,17.431 345.904,17.431 
			345.904,14.744 345.904,14.743 348.589,14.743 348.589,12.059 		"/>
		<polygon fill="#7FBCD7" points="348.593,9.376 348.593,8.505 348.591,8.505 348.591,9.376 348.591,12.058 348.591,14.743 
			348.593,14.743 348.593,12.058 		"/>
		<polygon fill="#387895" points="340.535,17.432 337.848,17.432 335.164,17.432 332.477,17.432 329.792,17.432 329.792,20.116 
			332.477,20.116 335.164,20.116 335.165,20.116 337.848,20.116 337.849,20.116 340.537,20.116 343.218,20.116 343.22,20.116 
			345.904,20.116 345.904,17.432 343.218,17.432 		"/>
		<polygon fill="#387895" points="343.218,17.431 340.537,17.431 337.849,17.431 337.848,17.431 335.165,17.431 335.164,17.431 
			332.477,17.431 329.792,17.431 329.792,17.432 332.477,17.432 335.164,17.432 337.848,17.432 340.535,17.432 343.218,17.432 
			345.904,17.432 345.904,17.431 343.22,17.431 		"/>
		<rect x="345.904" y="14.744" fill="#387895" width="2.685" height="2.687"/>
		<rect x="345.904" y="14.743" fill="#387895" width="2.685" height="0.001"/>
		<polygon fill="#387895" points="329.792,14.743 329.791,14.743 329.791,14.744 329.791,17.431 329.792,17.431 		"/>
		<rect x="327.106" y="14.744" fill="#387895" width="2.685" height="2.687"/>
		<rect x="328.448" y="13.401" fill="#387895" width="0.001" height="2.685"/>
		<polygon fill="#387895" points="327.106,12.058 327.106,9.376 327.106,8.505 327.105,8.505 327.105,9.376 327.105,9.377 
			327.105,12.058 327.105,12.059 327.105,14.743 327.106,14.743 		"/>
		<polygon fill="#387895" points="327.105,12.058 327.105,9.377 327.105,9.376 327.105,8.505 324.42,8.505 324.42,9.376 
			324.42,12.058 324.42,14.743 327.105,14.743 327.105,12.059 		"/>
		<polygon fill="#387895" points="348.593,9.376 348.593,12.058 348.593,14.743 351.277,14.743 351.277,12.058 351.277,9.376 
			351.277,8.505 348.593,8.505 		"/>
	</g>
</g>
</svg>
