<?xml version="1.0" encoding="utf-8"?>
<!-- Generator: Adobe Illustrator 16.0.0, SVG Export Plug-In . SVG Version: 6.00 Build 0)  -->
<!DOCTYPE svg PUBLIC "-//W3C//DTD SVG 1.1//EN" "http://www.w3.org/Graphics/SVG/1.1/DTD/svg11.dtd">
<svg version="1.1" id="desire_lines" xmlns="http://www.w3.org/2000/svg" xmlns:xlink="http://www.w3.org/1999/xlink" x="0px"
	 y="0px" width="511.475px" height="511.475px" viewBox="0 0 511.475 511.475" enable-background="new 0 0 511.475 511.475"
	 xml:space="preserve">
<rect fill="#FFFFFF" width="511.475" height="511.475"/>
<g id="Icon">
	<g id="Bee">
		<polygon fill="#4AA0C7" points="163.791,448.667 73.45,399.08 73.45,291.062 121.324,291.062 112.237,285.158 103.399,282.71 
			90.636,273.891 81.302,271.899 40.065,245.412 48.414,246.389 34.664,237.054 53.808,240.004 69.032,250.796 79.835,251.792 
			95.049,263.079 105.853,265.037 133.842,284.7 144.647,286.652 150.321,291.062 157.895,291.062 190.476,299.068 194.722,295.469 
			183.916,293.517 194.976,286.579 184.9,284.2 195.209,278.297 185.888,275.844 215.344,257.676 225.659,259.134 234.971,252.769 
			256.091,256.199 246.756,262.582 258.049,264.078 248.234,270.94 259.539,272.894 240.375,286.652 251.183,289.107 
			230.067,304.325 217.797,300.877 212.711,304.517 265.906,317.586 247.257,428.539 		"/>
		<polygon fill="#3D83A3" points="83.762,404.483 73.45,399.08 73.45,291.062 157.895,291.062 175.578,295.469 89.163,294.015 		"/>
		<polygon fill="#3D83A3" points="101.93,414.298 92.6,409.89 99.964,297.459 185.888,297.923 190.296,298.923 108.806,300.877 		
			"/>
		<polygon fill="#3D83A3" points="120.58,424.108 111.255,419.701 119.601,303.827 207.982,303.33 218.284,305.785 129.91,306.78 		
			"/>
		<polygon fill="#4AA0C7" points="167.721,309.233 146.606,303.827 135.809,295.97 125.985,293.517 121.572,291.062 
			150.533,291.062 167.721,303.33 		"/>
		<polygon fill="#4AA0C7" points="212.895,304.325 206.512,308.733 183.916,303.33 190.296,298.923 		"/>
	</g>
</g>
<g>
	<path fill="#4AA0C7" d="M469.032,363.253l-3.675-6.899l-3.677-6.913l-3.675-6.903l-3.677-6.909l-3.677-6.923l-3.677-6.89
		l-3.676-6.928l-3.676-6.887l-3.676-6.927l-3.678-6.888l-3.676-6.924l-3.676-6.893l-3.678-6.925l-3.677-6.888l-3.676-6.925
		l-3.681-6.909l-6.921,3.693l-3.675-6.911l-3.677-6.924l-3.678-6.906l-6.902,3.676l-3.696-6.91l-3.679-6.906l6.926-3.677
		l-3.676-6.906l6.891-3.673l6.922-3.676l-3.676-6.909l6.891-3.674l6.925-3.675l-3.675-6.908l6.897-3.673l-3.686-6.909l6.925-3.677
		l-3.678-6.906l6.888-3.675l-3.676-6.918l-3.677-6.911l6.925-3.676l-3.676-6.909l-3.676-6.907l6.889-3.673l-3.678-6.912
		l-3.674-6.906l-3.678-6.908l-3.676-6.912l-6.901,3.674l-3.676-6.907l-3.681-6.908l-6.909,3.678l-3.676-6.906l-3.677-6.912
		l-6.925,3.676l-3.608-6.918l-6.921,3.675l-3.678-6.908l-6.899,3.674l-3.697-6.907l-6.893,3.675l-6.924,3.676l-3.678-6.907
		l-6.889,3.676l-6.924,3.676l-3.678-6.908l-6.89,3.678l-6.926,3.674l-6.888,3.676l-6.924,3.676l3.675,6.907l-6.887,3.675
		l-6.926,3.677l3.676,6.912l-6.888,3.676l-6.914,3.679l3.662,6.908l-6.889,3.672l3.677,6.909l-6.908,3.675l3.674,6.908l-6.906,3.673
		l3.675,6.909l3.676,6.907l-6.91,3.676l3.674,6.909l3.676,6.907l-6.906,3.674l3.675,6.909l3.674,6.913l3.676,6.906l3.676,6.912
		l6.926-3.674l3.676,6.905l3.677,6.922l6.891-3.688l3.674,6.917l3.677,6.911l6.923-3.675l3.677,6.906l6.888-3.678l3.677,6.913
		l6.925-3.676l3.677,6.907l6.888-3.692l6.925-3.677l3.677,6.93l6.893-3.695l6.923-3.674l3.675,6.907l6.914-3.676l3.675,6.906
		l3.677,6.913l-6.913,3.692l3.675,6.906l3.678,6.89l3.673,6.926l-6.887,3.676l3.676,6.889l3.677,6.925l3.677,6.889l3.677,6.925
		l3.676,6.892l3.678,6.925l3.676,6.903l3.678,6.909l3.676,6.911l3.677,6.902l3.676,6.912l3.677,6.901l3.675,6.913l3.677,6.902
		l3.674,6.924l3.677,6.892l6.925-3.678l3.678,6.925l6.89-3.689l6.923-3.674l6.891-3.677l6.924-3.682l-3.677-6.907L469.032,363.253z
		 M342.611,208.907l-6.911,3.674l-6.904,3.677l-3.673-6.907l-6.927,3.675l-3.674-6.911l-6.892,3.676l-3.675-6.907l-6.925,3.674
		l-3.675-6.908l-3.677-6.908l-6.888,3.677l-3.677-6.911l-3.675-6.906l-3.677-6.909l-3.675-6.907l6.887-3.676l-3.674-6.907
		l-3.678-6.907l6.926-3.674l-3.713-6.906l6.925-3.679l-3.676-6.913l6.888-3.679l-3.676-6.906l6.926-3.676l6.889-3.672l-3.678-6.909
		l6.927-3.675l6.888-3.674l6.924-3.674l6.902-3.682l3.688,6.911l6.899-3.676l6.923-3.677l3.68,6.907l6.888-3.674l3.676,6.91
		l6.928-3.676l3.677,6.906l6.888-3.674l3.676,6.907l3.677,6.91l6.925-3.678l3.677,6.91l3.676,6.907l3.676,6.908l3.677,6.909
		l-6.909,3.681l3.684,6.906l3.677,6.908l-6.913,3.674l3.677,6.907l-6.903,3.68l3.677,6.917l-6.912,3.675l3.676,6.907l-6.899,3.674
		l-6.913,3.674l3.677,6.91l-6.894,3.675l-6.919,3.675l-6.891,3.673l-6.923,3.677L342.611,208.907z"/>
	<polygon fill="#4AA0C7" points="372.56,148.642 379.487,144.967 383.159,151.875 376.234,155.551 	"/>
	<polygon fill="#4AA0C7" points="368.481,124.231 372.153,131.14 375.828,138.045 379.506,144.96 386.417,141.288 382.74,134.37 
		379.067,127.466 375.391,120.556 371.708,113.647 364.805,117.322 	"/>
	<polygon fill="#4AA0C7" points="354.203,114.089 357.878,120.999 364.805,117.322 361.132,110.413 357.456,103.505 
		350.528,107.182 	"/>
</g>
</svg>
