<?xml version="1.0" encoding="utf-8"?>
<!-- Generator: Adobe Illustrator 16.0.0, SVG Export Plug-In . SVG Version: 6.00 Build 0)  -->
<!DOCTYPE svg PUBLIC "-//W3C//DTD SVG 1.1//EN" "http://www.w3.org/Graphics/SVG/1.1/DTD/svg11.dtd">
<svg version="1.1" id="tunnel_bores" xmlns="http://www.w3.org/2000/svg" xmlns:xlink="http://www.w3.org/1999/xlink" x="0px"
	 y="0px" width="511.473px" height="511.473px" viewBox="0 0 511.473 511.473" enable-background="new 0 0 511.473 511.473"
	 xml:space="preserve">
<rect fill="#FFFFFF" width="511.473" height="511.473"/>
<g>
	<g id="Icon">
		<rect x="294.65" y="225.291" fill="#A1CEE2" width="116.695" height="83.94"/>
		<rect x="243.096" y="225.291" fill="#7FBCD7" width="116.695" height="83.94"/>
		<rect x="213.134" y="282.941" fill="#A1CEE2" width="232.812" height="124.166"/>
		<rect x="162.772" y="282.941" fill="#7FBCD7" width="232.814" height="124.166"/>
		<rect x="146.348" y="225.291" fill="#7FBCD7" width="135.257" height="83.94"/>
		<rect x="187.396" y="225.291" fill="#3D83A3" width="116.695" height="83.94"/>
		<rect x="107.073" y="282.941" fill="#4AA0C7" width="232.812" height="124.166"/>
		<g id="Pickaxe">
			<g>
				<rect x="234.582" y="315.538" fill="#3D83A3" width="8.723" height="6.396"/>
				<rect x="204.862" y="309.267" fill="#3D83A3" width="32.026" height="19.21"/>
				<rect x="185.655" y="328.475" fill="#3D83A3" width="19.209" height="32.021"/>
				<rect x="192.056" y="315.658" fill="#3D83A3" width="25.624" height="25.627"/>
				<rect x="192.056" y="358.986" fill="#3D83A3" width="6.399" height="7.922"/>
				<rect x="211.269" y="334.882" fill="#3D83A3" width="12.811" height="12.813"/>
				<rect x="217.671" y="341.291" fill="#3D83A3" width="12.811" height="12.813"/>
				<rect x="224.078" y="347.695" fill="#3D83A3" width="12.817" height="12.815"/>
				<rect x="230.484" y="354.102" fill="#3D83A3" width="12.815" height="12.82"/>
				<rect x="236.895" y="360.511" fill="#3D83A3" width="12.811" height="12.82"/>
				<rect x="243.28" y="366.966" fill="#3D83A3" width="12.814" height="12.818"/>
				<rect x="249.718" y="373.457" fill="#3D83A3" width="12.812" height="12.81"/>
			</g>
		</g>
	</g>
	<polygon fill="#3D83A3" points="180.263,407.108 177.645,407.108 175.026,407.108 172.411,407.108 169.786,407.108 
		167.157,407.108 164.539,407.108 161.923,407.108 159.306,407.108 156.68,407.108 154.062,407.108 151.44,407.108 148.821,407.108 
		148.821,409.726 148.821,412.349 151.44,412.349 154.062,412.349 154.062,414.968 154.062,417.592 156.68,417.592 159.306,417.592 
		159.306,417.596 161.923,417.596 164.539,417.596 167.157,417.596 169.786,417.596 172.411,417.596 172.411,417.592 
		175.026,417.592 177.645,417.592 177.645,414.968 177.645,412.349 180.263,412.349 182.889,412.349 182.889,409.726 
		182.889,407.108 	"/>
	<polygon fill="#A1CEE2" points="286.038,407.108 283.42,407.108 280.802,407.108 278.187,407.108 275.558,407.108 272.936,407.108 
		270.315,407.108 267.699,407.108 265.081,407.108 262.455,407.108 259.836,407.108 257.211,407.108 254.59,407.108 254.59,409.726 
		254.59,412.349 257.211,412.349 259.836,412.349 259.836,414.968 259.836,417.592 262.455,417.592 265.081,417.592 
		265.081,417.596 267.699,417.596 270.315,417.596 272.936,417.596 275.558,417.596 278.187,417.596 278.187,417.592 
		280.802,417.592 283.42,417.592 283.42,414.968 283.42,412.349 286.038,412.349 288.665,412.349 288.665,409.726 288.665,407.108 	
		"/>
	<polygon fill="#3D83A3" points="301.62,407.108 298.999,407.108 296.384,407.108 293.763,407.108 291.142,407.108 288.515,407.108 
		285.896,407.108 283.275,407.108 280.658,407.108 278.038,407.108 275.418,407.108 272.787,407.108 270.169,407.108 
		270.169,409.726 270.169,412.349 272.787,412.349 275.418,412.349 275.418,414.968 275.418,417.592 278.038,417.592 
		280.658,417.592 280.658,417.596 283.275,417.596 285.896,417.596 288.515,417.596 291.142,417.596 293.763,417.596 
		293.763,417.592 296.384,417.592 298.999,417.592 298.999,414.968 298.999,412.349 301.62,412.349 304.249,412.349 
		304.249,409.726 304.249,407.108 	"/>
	<polygon fill="#7FBCD7" points="235.967,407.108 233.349,407.108 230.729,407.108 228.113,407.108 225.485,407.108 
		222.857,407.108 220.239,407.108 217.624,407.108 215.004,407.108 212.381,407.108 209.763,407.108 207.139,407.108 
		204.52,407.108 204.52,409.726 204.52,412.349 207.139,412.349 209.763,412.349 209.763,414.968 209.763,417.592 212.381,417.592 
		215.004,417.592 215.004,417.596 217.624,417.596 220.239,417.596 222.857,417.596 225.485,417.596 228.113,417.596 
		228.113,417.592 230.729,417.592 233.349,417.592 233.349,414.968 233.349,412.349 235.967,412.349 238.589,412.349 
		238.589,409.726 238.589,407.108 	"/>
	<polygon fill="#7FBCD7" points="357.322,407.108 354.699,407.108 352.081,407.108 349.463,407.108 346.845,407.108 
		344.212,407.108 341.596,407.108 338.979,407.108 336.36,407.108 333.741,407.108 331.121,407.108 328.488,407.108 325.87,407.108 
		325.87,409.726 325.87,412.349 328.488,412.349 331.121,412.349 331.121,414.968 331.121,417.592 333.741,417.592 336.36,417.592 
		336.36,417.596 338.979,417.596 341.596,417.596 344.212,417.596 346.845,417.596 349.463,417.596 349.463,417.592 
		352.081,417.592 354.699,417.592 354.699,414.968 354.699,412.349 357.322,412.349 359.948,412.349 359.948,409.726 
		359.948,407.108 	"/>
	<polygon fill="#A1CEE2" points="407.395,407.108 404.774,407.108 402.154,407.108 399.535,407.108 396.918,407.108 
		394.291,407.108 391.668,407.108 389.05,407.108 386.432,407.108 383.813,407.108 381.194,407.108 378.564,407.108 
		375.947,407.108 375.947,409.726 375.947,412.349 378.564,412.349 381.194,412.349 381.194,414.968 381.194,417.592 
		383.813,417.592 386.432,417.592 386.432,417.596 389.05,417.596 391.668,417.596 394.291,417.596 396.918,417.596 
		399.535,417.596 399.535,417.592 402.154,417.592 404.774,417.592 404.774,414.968 404.774,412.349 407.395,412.349 
		410.025,412.349 410.025,409.726 410.025,407.108 	"/>
	<g>
		<rect x="132.934" y="432.695" fill="#4AA0C7" width="34.762" height="19.321"/>
		<rect x="212.142" y="432.695" fill="#4AA0C7" width="34.756" height="19.321"/>
		<rect x="294.79" y="433.088" fill="#4AA0C7" width="34.781" height="19.315"/>
		<rect x="373.602" y="433.088" fill="#4AA0C7" width="34.773" height="19.315"/>
		<rect x="452.783" y="433.088" fill="#4AA0C7" width="34.781" height="19.315"/>
		<rect x="132.934" y="425.369" fill="#3D83A3" width="34.762" height="19.304"/>
		<rect x="212.142" y="425.369" fill="#3D83A3" width="34.756" height="19.304"/>
		<rect x="294.79" y="425.369" fill="#3D83A3" width="34.781" height="19.304"/>
		<rect x="373.602" y="425.369" fill="#3D83A3" width="34.773" height="19.304"/>
		<rect x="452.783" y="425.369" fill="#3D83A3" width="34.781" height="19.304"/>
	</g>
	<rect x="284.407" y="195.396" fill="#3D83A3" width="18.122" height="18.121"/>
	<rect x="107.073" y="179.782" fill="#3D83A3" width="18.118" height="18.121"/>
	<rect x="103.34" y="258.2" fill="#3D83A3" width="18.121" height="18.123"/>
	<rect x="139.759" y="300.171" fill="#3D83A3" width="18.121" height="18.119"/>
	<rect x="137.287" y="240.081" fill="#3D83A3" width="18.122" height="18.12"/>
	<rect x="195.806" y="202.925" fill="#3D83A3" width="13.103" height="13.101"/>
	<rect x="114.91" y="218.187" fill="#3D83A3" width="13.099" height="13.102"/>
	<rect x="147.759" y="188.844" fill="#3D83A3" width="13.099" height="13.102"/>
	<rect x="189.792" y="149.339" fill="#3D83A3" width="13.099" height="13.103"/>
	<rect x="204.716" y="175.742" fill="#3D83A3" width="6.549" height="6.551"/>
	<rect x="267.506" y="302.681" fill="#3D83A3" width="6.552" height="6.551"/>
	<rect x="204.862" y="289.436" fill="#3D83A3" width="6.551" height="6.553"/>
	<rect x="133.207" y="333.732" fill="#3D83A3" width="6.548" height="6.546"/>
	<rect x="167.697" y="263.985" fill="#3D83A3" width="6.551" height="6.552"/>
	<rect x="246.412" y="175.742" fill="#3D83A3" width="6.551" height="6.551"/>
	<rect x="136.481" y="149.339" fill="#3D83A3" width="6.551" height="6.551"/>
	<rect x="234.698" y="213.789" fill="#3D83A3" width="6.551" height="6.551"/>
	<rect x="83.091" y="309.676" fill="#3D83A3" width="18.122" height="18.114"/>
</g>
<g>
	<path fill="none" d="M496.846,14.634c0.243,0.243,0.473,0.497,0.711,0.745C497.318,15.131,497.089,14.877,496.846,14.634z"/>
	<path fill="none" d="M498.502,16.37c0.1,0.111,0.194,0.229,0.298,0.342C498.696,16.6,498.602,16.481,498.502,16.37z"/>
	<path fill="none" d="M495.111,12.979c0.337,0.307,0.66,0.629,0.989,0.944C495.771,13.607,495.448,13.285,495.111,12.979z"/>
	<path fill="none" d="M461.503-0.005c12.775,0,24.428,4.8,33.266,12.688C485.931,4.795,474.28-0.005,461.503-0.005z"/>
	<path fill="none" d="M511.485,452.017V49.977c0-12.776-4.799-24.427-12.686-33.264c-0.104-0.113-0.198-0.231-0.298-0.342
		c-0.309-0.338-0.631-0.662-0.945-0.991c-0.238-0.248-0.468-0.502-0.711-0.745c-0.241-0.243-0.497-0.474-0.745-0.711
		c-0.329-0.315-0.652-0.638-0.989-0.944c-0.113-0.101-0.23-0.196-0.343-0.296c-8.838-7.888-20.49-12.688-33.266-12.688H92.152
		v452.022H511.485z"/>
	<path fill="#4AA0C7" d="M494.769,12.682c0.112,0.1,0.229,0.195,0.343,0.296C494.998,12.877,494.881,12.782,494.769,12.682z"/>
	<path fill="#4AA0C7" d="M496.846,14.634"/>
</g>
<polyline fill="#7FBCD7" points="215.004,407.108 182.889,407.108 182.889,412.349 177.645,412.349 177.645,417.592 
	213.812,417.707 "/>
<polyline fill="#7FBCD7" points="336.322,407.108 304.206,407.108 304.206,412.349 298.962,412.349 298.962,417.592 335.13,417.707 
	"/>
<polyline fill="#A1CEE2" points="257.211,407.108 238.589,407.108 238.589,412.349 233.349,412.349 233.349,417.592 
	266.465,417.707 "/>
<polyline fill="#A1CEE2" points="378.665,407.108 360.043,407.108 360.043,412.349 354.802,412.349 354.802,417.592 387.92,417.707 
	"/>
<g>
	<rect x="92.023" y="417.632" fill="#4AA0C7" width="419.462" height="19.315"/>
</g>
<path fill="#A1CEE2" d="M92.152,452.017V-0.005H73.138H49.982H0v49.982v28.608V430.03v21.986v9.474v49.979h49.866
	c0.039,0,0.077,0.003,0.116,0.003h364.84h46.681h49.982v-49.977v-0.006v-9.087v-0.387H92.152z"/>
</svg>
