<?xml version="1.0" encoding="utf-8"?>
<!-- Generator: Adobe Illustrator 16.0.0, SVG Export Plug-In . SVG Version: 6.00 Build 0)  -->
<!DOCTYPE svg PUBLIC "-//W3C//DTD SVG 1.1//EN" "http://www.w3.org/Graphics/SVG/1.1/DTD/svg11.dtd">
<svg version="1.1"
	 id="trapped_signs" xmlns:cc="http://creativecommons.org/ns#" xmlns:dc="http://purl.org/dc/elements/1.1/" xmlns:inkscape="http://www.inkscape.org/namespaces/inkscape" xmlns:rdf="http://www.w3.org/1999/02/22-rdf-syntax-ns#" xmlns:sodipodi="http://sodipodi.sourceforge.net/DTD/sodipodi-0.dtd" xmlns:svg="http://www.w3.org/2000/svg"
	 xmlns="http://www.w3.org/2000/svg" xmlns:xlink="http://www.w3.org/1999/xlink" x="0px" y="0px" width="511.473px"
	 height="511.473px" viewBox="0 0 511.473 511.473" enable-background="new 0 0 511.473 511.473" xml:space="preserve">
<rect x="0.003" fill="#FFFFFF" width="511.467" height="511.473"/>
<g>
	<polygon fill="#4AA0C7" points="154.36,146.54 154.36,217.438 154.36,288.326 193.352,288.326 232.342,288.326 232.342,288.313 
		279.605,288.313 279.605,288.323 319.387,288.323 359.163,288.323 359.163,217.433 359.163,146.54 256.766,146.54 	"/>
	<path fill="none" d="M479.796,187.33v-5.518h11.024h11.024v5.518v5.517H490.82h-11.024V187.33z M109.582,220.416v5.519h-5.516
		h-5.518v5.513v5.519h-5.514h-5.518v5.519V248h-5.522H76.48l0.016-5.528v-5.516h5.519h5.515v-11.029V214.9h11.03h11.023
		L109.582,220.416L109.582,220.416z M143.446,220.411v5.516h-11.424h-11.421v-5.516v-5.518h11.421h11.424V220.411z M359.163,217.433
		v70.891h-39.776h-39.779v11.242v28.535v39.774H255.98h-23.633l-0.006-39.77v-28.54v-11.24h-38.99H154.36v-70.889V146.54h102.404
		h102.398L359.163,217.433L359.163,217.433z M379.764,242.472v5.518h-5.517h-5.517v-5.518v-5.516h5.517h5.517V242.472z
		 M379.764,220.411v5.516h-5.517h-5.517v-5.516v-5.518h5.517h5.517V220.411z"/>
	<polygon fill="none" points="501.846,225.92 501.846,231.438 501.846,236.956 507.366,236.956 511.473,236.956 511.473,225.92 
		507.366,225.92 	"/>
	<polygon fill="none" points="485.307,236.956 490.82,236.956 490.82,231.438 490.82,225.92 485.307,225.92 479.79,225.92 
		479.79,231.438 479.79,236.956 479.796,236.956 	"/>
	<polygon fill="none" points="4.023,236.956 9.538,236.956 9.538,225.927 9.538,214.899 4.023,214.899 0.095,214.899 0.095,236.956 
			"/>
	<polygon fill="#4AA0C7" points="232.342,328.105 232.348,367.876 255.98,367.876 279.605,367.876 279.605,328.102 279.605,299.566 
		232.342,299.566 	"/>
	<polygon fill="#89C1DA" points="401.813,236.966 407.331,236.966 412.848,236.966 412.848,231.447 412.848,225.935 
		407.331,225.935 401.813,225.935 401.813,231.447 	"/>
	<polygon fill="#89C1DA" points="507.366,236.956 501.846,236.956 501.846,231.438 501.846,225.92 507.366,225.92 511.473,225.92 
		511.473,214.899 501.851,214.899 501.851,209.386 501.851,203.868 496.336,203.868 490.816,203.868 490.816,209.386 
		490.816,214.899 468.763,214.899 446.708,214.899 446.708,220.416 446.708,225.92 457.733,225.92 468.76,225.92 468.76,231.438 
		468.76,236.956 474.276,236.956 479.79,236.956 479.79,231.438 479.79,225.92 485.307,225.92 490.82,225.92 490.82,231.438 
		490.82,236.956 485.307,236.956 479.796,236.956 479.796,242.472 479.796,247.99 496.34,247.99 511.473,247.99 511.473,236.956 	
		"/>
	<polygon fill="#89C1DA" points="368.73,214.894 368.73,220.411 368.73,225.927 374.247,225.927 379.764,225.927 379.764,220.411 
		379.764,214.894 374.247,214.894 	"/>
	<polygon fill="#89C1DA" points="390.781,214.899 390.781,220.416 390.781,225.935 396.296,225.935 401.813,225.935 
		401.813,220.416 401.813,214.899 396.297,214.899 	"/>
	<rect x="446.705" y="225.92" fill="#89C1DA" width="0.003" height="0.015"/>
	<polygon fill="#89C1DA" points="9.512,242.485 9.512,236.966 15.025,236.966 20.543,236.966 20.543,242.485 20.543,248 26.059,248 
		31.577,248 31.577,242.485 31.577,236.966 37.094,236.966 42.611,236.966 42.611,242.485 42.611,248 48.513,248 54.42,248 
		54.42,242.485 54.42,236.966 59.936,236.966 65.454,236.966 65.454,231.447 65.454,225.935 70.972,225.935 76.489,225.935 
		76.489,220.416 76.489,214.899 65.462,214.899 54.436,214.899 54.436,220.416 54.436,225.935 48.531,225.935 42.625,225.935 
		42.625,220.416 42.625,214.899 37.108,214.899 31.59,214.899 31.59,209.386 31.59,203.868 15.05,203.868 0.017,203.868 
		0.02,214.899 4.023,214.899 9.538,214.899 9.538,225.927 9.538,236.956 4.023,236.956 0.017,236.956 0.017,248 9.512,248 	"/>
	<polygon fill="#89C1DA" points="368.73,236.956 368.73,242.472 368.73,247.99 374.247,247.99 379.764,247.99 379.764,242.472 
		379.764,236.956 374.247,236.956 	"/>
	<polygon fill="#89C1DA" points="87.529,214.899 87.529,225.927 87.529,236.956 82.014,236.956 76.496,236.956 76.496,242.472 
		76.48,248 81.994,248 87.516,248 87.516,242.485 87.516,236.966 93.034,236.966 98.548,236.966 98.548,231.447 98.548,225.935 
		104.066,225.935 109.582,225.935 109.582,220.416 109.582,214.899 98.559,214.899 	"/>
	<polygon fill="#89C1DA" points="120.601,214.894 120.601,220.411 120.601,225.927 132.022,225.927 143.446,225.927 
		143.446,220.411 143.446,214.894 132.022,214.894 	"/>
	<polygon fill="#89C1DA" points="501.846,192.847 501.846,187.33 501.846,181.813 490.82,181.813 479.796,181.813 479.796,187.33 
		479.796,192.847 490.82,192.847 	"/>
	<polygon fill="#89C1DA" points="434.9,225.935 434.9,220.416 434.9,214.899 429.384,214.899 423.866,214.899 423.866,209.386 
		423.866,203.868 412.843,203.868 401.813,203.868 401.813,209.386 401.813,214.899 412.843,214.899 423.865,214.899 
		423.865,225.927 423.865,236.956 435.284,236.956 446.705,236.956 446.705,231.438 446.705,225.935 440.808,225.935 	"/>
	<polygon fill="#89C1DA" points="232.342,288.313 232.342,288.326 232.342,299.566 279.605,299.566 279.605,288.323 
		279.605,288.313 	"/>
</g>
<g id="Redstone_Dust">
	<g>
		<g>
			<rect x="211.352" y="210.614" fill="#7FBCD7" width="88.891" height="22.201"/>
			<rect x="218.765" y="203.203" fill="#7FBCD7" width="74.055" height="37.024"/>
			<rect x="226.183" y="195.783" fill="#7FBCD7" width="59.274" height="51.862"/>
			<rect x="233.601" y="188.423" fill="#7FBCD7" width="44.447" height="8.105"/>
			<rect x="241.007" y="181.009" fill="#7FBCD7" width="29.618" height="8.381"/>
			<rect x="248.38" y="173.591" fill="#7FBCD7" width="14.833" height="9.339"/>
			<rect x="241.007" y="246.044" fill="#7FBCD7" width="29.618" height="9.015"/>
		</g>
		<g>
			<rect x="241.007" y="188.423" fill="#4AA0C7" width="7.425" height="7.414"/>
			<rect x="233.601" y="225.451" fill="#4AA0C7" width="7.422" height="7.417"/>
			<rect x="255.796" y="210.614" fill="#4AA0C7" width="7.421" height="7.424"/>
			<rect x="278.048" y="203.203" fill="#4AA0C7" width="7.417" height="7.423"/>
			<rect x="278.048" y="232.868" fill="#4AA0C7" width="7.417" height="7.42"/>
			<rect x="218.765" y="210.614" fill="#4AA0C7" width="7.418" height="7.424"/>
		</g>
	</g>
</g>
</svg>
