<?xml version="1.0" encoding="utf-8"?>
<!-- Generator: Adobe Illustrator 16.0.0, SVG Export Plug-In . SVG Version: 6.00 Build 0)  -->
<!DOCTYPE svg PUBLIC "-//W3C//DTD SVG 1.1//EN" "http://www.w3.org/Graphics/SVG/1.1/DTD/svg11.dtd">
<svg version="1.1"
	 id="lightning_rods" xmlns:cc="http://creativecommons.org/ns#" xmlns:dc="http://purl.org/dc/elements/1.1/" xmlns:inkscape="http://www.inkscape.org/namespaces/inkscape" xmlns:rdf="http://www.w3.org/1999/02/22-rdf-syntax-ns#" xmlns:sodipodi="http://sodipodi.sourceforge.net/DTD/sodipodi-0.dtd" xmlns:svg="http://www.w3.org/2000/svg"
	 xmlns="http://www.w3.org/2000/svg" xmlns:xlink="http://www.w3.org/1999/xlink" x="0px" y="0px" width="511.482px"
	 height="511.469px" viewBox="0 0 511.482 511.469" enable-background="new 0 0 511.482 511.469" xml:space="preserve">
<rect x="0.01" y="-0.004" fill="#FFFFFF" width="511.477" height="511.473"/>
<g id="Icon">
	<g id="layer1" inkscape:label="Layer 1" inkscape:groupmode="layer">
		<g id="g4230" transform="matrix(0.28668289,0,0,0.28668289,313.78995,487.79337)">
			<rect id="rect4147" x="-445.98" y="-175.061" fill="#4AA0C7" width="89.229" height="135.068"/>
			<rect id="rect4147-0" x="-401.247" y="-219.061" fill="#4AA0C7" width="89.216" height="135.105"/>
			<rect id="rect4147-7" x="-359.799" y="-264.881" fill="#4AA0C7" width="89.163" height="135.068"/>
			<rect id="rect4147-8" x="-315.218" y="-305.336" fill="#4AA0C7" width="89.228" height="134.976"/>
			<rect id="rect4147-5" x="-270.636" y="-349.963" fill="#4AA0C7" width="89.292" height="135.02"/>
			<rect id="rect4147-08" x="-227.536" y="-394.628" fill="#4AA0C7" width="89.165" height="135.105"/>
			<rect id="rect4147-88" x="-182.952" y="-436.698" fill="#4AA0C7" width="89.16" height="135.102"/>
			<rect id="rect4147-07" x="-139.813" y="-482.18" fill="#4AA0C7" width="89.163" height="134.979"/>
			<rect id="rect4147-2" x="-95.768" y="-525.82" fill="#4AA0C7" width="89.163" height="135.112"/>
			<rect id="rect4147-9" x="-52.261" y="-569.906" fill="#4AA0C7" width="89.292" height="134.976"/>
			<rect id="rect4147-50" x="-8.621" y="-613.545" fill="#4AA0C7" width="89.163" height="135.112"/>
			<rect id="rect4147-1" x="35.424" y="-655.979" fill="#4AA0C7" width="89.241" height="134.976"/>
			<rect id="rect4147-10" x="119.641" y="-611.937" fill="#4AA0C7" width="49.982" height="45.363"/>
		</g>
	</g>
	<g id="layer1_1_" inkscape:label="Layer 1" inkscape:groupmode="layer">
		<g id="g4380">
			<path id="path4273-4-2" sodipodi:nodetypes="ccccccc" inkscape:connector-curvature="0" fill="#7DBBD7" d="M228.849,206.402
				l40.325-33.434l-21.203,200.735l-3.97-148.378l-41.658,31.266l42.48-223.991L228.849,206.402z"/>
		</g>
	</g>
	<g id="layer1_2_" inkscape:label="Layer 1" inkscape:groupmode="layer">
		<g id="g4380_1_">
			<path id="path4273-4-2-4" sodipodi:nodetypes="ccccccc" inkscape:connector-curvature="0" fill="#7DBBD7" d="M195.103,321.491
				l14.002-18.793l12.002,89.658l-17.431-64.204l-14.818,18.05l-5.178-102.014L195.103,321.491z"/>
		</g>
	</g>
	<g id="layer1_3_" inkscape:label="Layer 1" inkscape:groupmode="layer">
		<g id="g4380_2_">
			<path id="path4273-4-2-4-3" sodipodi:nodetypes="ccccccc" inkscape:connector-curvature="0" fill="#7DBBD7" d="M304.759,271.271
				l-13.687-19.085l-13.522,89.451l18.494-63.864l14.532,18.229l6.969-101.894L304.759,271.271z"/>
		</g>
	</g>
</g>
</svg>
