<?xml version="1.0" encoding="utf-8"?>
<!-- Generator: Adobe Illustrator 16.0.0, SVG Export Plug-In . SVG Version: 6.00 Build 0)  -->
<!DOCTYPE svg PUBLIC "-//W3C//DTD SVG 1.1//EN" "http://www.w3.org/Graphics/SVG/1.1/DTD/svg11.dtd">
<svg version="1.1" id="desire_lines" xmlns="http://www.w3.org/2000/svg" xmlns:xlink="http://www.w3.org/1999/xlink" x="0px"
	 y="0px" width="511.475px" height="511.475px" viewBox="0 0 511.475 511.475" enable-background="new 0 0 511.475 511.475"
	 xml:space="preserve">
<rect fill="#FFFFFF" width="511.473" height="511.476"/>
<g id="Icon">
	<g id="Campfire">
		<rect x="103.936" y="361.662" fill="#387895" width="296.942" height="106.053"/>
		<rect x="125.147" y="340.446" fill="#387895" width="254.535" height="127.269"/>
		<rect x="146.376" y="319.217" fill="#387895" width="212.078" height="148.503"/>
		<rect x="125.147" y="382.867" fill="#3D83A3" width="254.535" height="63.617"/>
		<rect x="146.376" y="340.446" fill="#7FBCD7" width="63.6" height="63.621"/>
		<rect x="294.875" y="340.446" fill="#7FBCD7" width="63.579" height="63.621"/>
		<rect x="231.204" y="340.446" fill="#FFFFFF" width="21.21" height="42.424"/>
		<rect x="252.415" y="319.217" fill="#FFFFFF" width="21.23" height="42.449"/>
		<rect x="231.204" y="340.446" fill="#FFFFFF" width="42.441" height="21.216"/>
		<rect x="252.415" y="361.662" fill="#DBECF4" width="21.23" height="21.205"/>
		<rect x="231.204" y="298.059" fill="#DBECF4" width="21.21" height="42.422"/>
		<rect x="252.415" y="276.828" fill="#DBECF4" width="21.23" height="42.424"/>
		<rect x="231.204" y="298.059" fill="#DBECF4" width="42.441" height="21.188"/>
		<rect x="209.976" y="340.446" fill="#4AA0C7" width="21.229" height="42.424"/>
		<rect x="273.646" y="340.446" fill="#4AA0C7" width="21.229" height="42.424"/>
		<rect x="167.588" y="319.217" fill="#4AA0C7" width="42.442" height="21.229"/>
		<rect x="294.875" y="319.217" fill="#4AA0C7" width="42.422" height="21.229"/>
		<rect x="316.032" y="255.6" fill="#4AA0C7" width="21.229" height="84.847"/>
		<rect x="294.875" y="213.17" fill="#4AA0C7" width="21.192" height="63.624"/>
		<rect x="273.646" y="170.771" fill="#4AA0C7" width="21.229" height="42.441"/>
		<rect x="252.415" y="149.561" fill="#4AA0C7" width="21.23" height="42.44"/>
		<rect x="231.204" y="170.771" fill="#4AA0C7" width="63.599" height="21.23"/>
		<rect x="167.588" y="255.6" fill="#4AA0C7" width="21.217" height="84.847"/>
		<rect x="188.805" y="213.17" fill="#4AA0C7" width="21.223" height="63.624"/>
		<rect x="167.588" y="255.6" fill="#4AA0C7" width="42.442" height="21.229"/>
		<rect x="252.415" y="191.948" fill="#7FBCD7" width="21.23" height="42.441"/>
		<rect x="231.204" y="191.948" fill="#7FBCD7" width="42.441" height="21.229"/>
		<rect x="273.646" y="213.17" fill="#7FBCD7" width="21.229" height="42.43"/>
		<rect x="252.415" y="213.17" fill="#7FBCD7" width="42.462" height="21.219"/>
		<rect x="294.875" y="276.828" fill="#7FBCD7" width="21.192" height="42.95"/>
		<rect x="188.805" y="276.828" fill="#7FBCD7" width="21.223" height="42.424"/>
		<rect x="209.976" y="255.073" fill="#7FBCD7" width="21.229" height="42.459"/>
		<rect x="188.805" y="276.828" fill="#7FBCD7" width="42.435" height="21.23"/>
		<rect x="209.976" y="233.862" fill="#7FBCD7" width="21.229" height="21.211"/>
		<rect x="231.204" y="213.17" fill="#A1CEE2" width="21.21" height="84.816"/>
		<rect x="209.976" y="298.059" fill="#A1CEE2" width="21.229" height="21.188"/>
		<rect x="252.415" y="234.389" fill="#A1CEE2" width="21.23" height="42.439"/>
		<rect x="273.646" y="255.6" fill="#A1CEE2" width="21.229" height="84.847"/>
		<rect x="316.032" y="298.059" fill="#7FBCD7" width="21.229" height="21.188"/>
		<rect x="209.976" y="319.217" fill="#7FBCD7" width="21.229" height="21.229"/>
		<rect x="146.376" y="404.097" fill="#387895" width="84.828" height="21.223"/>
		<rect x="294.875" y="404.097" fill="#387895" width="63.579" height="21.223"/>
		<rect x="250.833" y="425.255" fill="#387895" width="44.042" height="21.229"/>
		<rect x="231.204" y="382.867" fill="#387895" width="44.022" height="21.225"/>
		<rect x="167.588" y="298.059" fill="#7FBCD7" width="42.442" height="21.188"/>
	</g>
	<g>
		<rect x="103.363" y="180.315" fill="#4AA0C7" width="10.942" height="6.678"/>
		<rect x="114.305" y="211.631" fill="#4AA0C7" width="10.929" height="7.029"/>
		<rect x="97.873" y="185.763" fill="#4AA0C7" width="43.792" height="16.43"/>
		<rect x="103.363" y="200.822" fill="#4AA0C7" width="32.857" height="6.854"/>
		<rect x="108.856" y="206.762" fill="#4AA0C7" width="21.914" height="6.362"/>
		<rect x="125.29" y="180.315" fill="#4AA0C7" width="10.928" height="6.678"/>
	</g>
	<g>
		<rect x="388.787" y="256.303" fill="#4AA0C7" width="12.194" height="7.416"/>
		<rect x="400.981" y="291.205" fill="#4AA0C7" width="12.233" height="7.801"/>
		<rect x="382.671" y="262.418" fill="#4AA0C7" width="48.82" height="18.313"/>
		<rect x="388.787" y="279.147" fill="#4AA0C7" width="36.588" height="7.66"/>
		<rect x="394.903" y="285.791" fill="#4AA0C7" width="24.414" height="7.1"/>
		<rect x="413.214" y="256.303" fill="#4AA0C7" width="12.195" height="7.416"/>
	</g>
	<g>
		<rect x="288.724" y="118.367" fill="#4AA0C7" width="8.821" height="5.401"/>
		<rect x="297.545" y="143.623" fill="#4AA0C7" width="8.821" height="5.675"/>
		<rect x="284.258" y="122.761" fill="#4AA0C7" width="35.384" height="13.268"/>
		<rect x="288.724" y="134.926" fill="#4AA0C7" width="26.464" height="5.534"/>
		<rect x="293.15" y="139.72" fill="#4AA0C7" width="17.644" height="5.131"/>
		<rect x="306.366" y="118.367" fill="#4AA0C7" width="8.821" height="5.401"/>
	</g>
	<g>
		<rect x="218.726" y="50.711" fill="#4AA0C7" width="9.403" height="5.751"/>
		<rect x="228.129" y="77.638" fill="#4AA0C7" width="9.401" height="6.021"/>
		<rect x="214.018" y="55.407" fill="#4AA0C7" width="37.661" height="14.147"/>
		<rect x="218.726" y="68.324" fill="#4AA0C7" width="28.241" height="5.887"/>
		<rect x="223.418" y="73.467" fill="#4AA0C7" width="18.857" height="5.49"/>
		<rect x="237.53" y="50.711" fill="#4AA0C7" width="9.401" height="5.751"/>
	</g>
</g>
</svg>
