<?xml version="1.0" encoding="utf-8"?>
<!-- Generator: Adobe Illustrator 16.0.0, SVG Export Plug-In . SVG Version: 6.00 Build 0)  -->
<!DOCTYPE svg PUBLIC "-//W3C//DTD SVG 1.1//EN" "http://www.w3.org/Graphics/SVG/1.1/DTD/svg11.dtd">
<svg version="1.1" id="desire_lines" xmlns="http://www.w3.org/2000/svg" xmlns:xlink="http://www.w3.org/1999/xlink" x="0px"
	 y="0px" width="511.475px" height="511.475px" viewBox="0 0 511.475 511.475" enable-background="new 0 0 511.475 511.475"
	 xml:space="preserve">
<g id="grid" transform="matrix(1.1876553,0,0,1.1876553,579.25835,-183.2473)">
	<g id="g4206" transform="translate(-547.85714,2.6913062e-7)">
		<g id="rect4204">
			<rect x="60.124" y="154.293" fill="#BEE9FD" width="430.778" height="430.769"/>
		</g>
		<g id="g4197">
			<g id="rect4150">
				<rect x="202.075" y="154.293" fill="#4AA0C7" width="5.047" height="430.769"/>
			</g>
			<g id="rect4150-5">
				<rect x="344.02" y="154.293" fill="#4AA0C7" width="5.045" height="430.769"/>
			</g>
			<g id="rect4150-5-7">
				<rect x="60.124" y="439.318" fill="#4AA0C7" width="430.778" height="5.046"/>
			</g>
			<g id="rect4150-5-7-7">
				<rect x="60.124" y="295.784" fill="#4AA0C7" width="430.778" height="5.046"/>
			</g>
		</g>
	</g>
</g>
<g>
	<g>
		<path fill="none" d="M51.712,511.611h411.295c27.571,0,49.938-22.359,49.938-49.948V50.38c0-27.589-22.37-49.951-49.938-49.951
			H51.712C24.123,0.43,1.758,22.793,1.758,50.38v411.28C1.758,489.252,24.125,511.611,51.712,511.611z"/>
	</g>
</g>
<g id="Icon">
	<g id="Music_Disc">
		<rect x="183.825" y="234.277" fill="#2E627A" width="143.987" height="38.387"/>
		<rect x="193.455" y="224.691" fill="#2E627A" width="124.75" height="57.582"/>
		<rect x="203.042" y="215.103" fill="#2E627A" width="105.593" height="76.814"/>
		<rect x="231.823" y="205.478" fill="#2E627A" width="48.032" height="95.968"/>
		<rect x="193.396" y="234.277" fill="#4AA0C7" width="124.77" height="38.387"/>
		<rect x="203.042" y="224.691" fill="#4AA0C7" width="105.593" height="48.013"/>
		<rect x="203.042" y="272.704" fill="#387895" width="105.593" height="9.568"/>
		<rect x="231.823" y="282.272" fill="#387895" width="48.032" height="9.603"/>
		<rect x="231.823" y="215.103" fill="#4AA0C7" width="48.032" height="67.169"/>
		<rect x="193.396" y="263.06" fill="#387895" width="9.588" height="9.604"/>
		<rect x="308.597" y="263.099" fill="#387895" width="9.568" height="9.602"/>
		<rect x="241.408" y="234.277" fill="#7FBCD7" width="28.801" height="28.783"/>
		<rect x="231.823" y="243.904" fill="#7FBCD7" width="48.032" height="9.586"/>
		<rect x="251.035" y="243.904" fill="#2E627A" width="9.604" height="9.586"/>
	</g>
</g>
</svg>
