<?xml version="1.0" encoding="utf-8"?>
<!-- Generator: Adobe Illustrator 16.0.0, SVG Export Plug-In . SVG Version: 6.00 Build 0)  -->
<!DOCTYPE svg PUBLIC "-//W3C//DTD SVG 1.1//EN" "http://www.w3.org/Graphics/SVG/1.1/DTD/svg11.dtd">
<svg version="1.1" id="mysterious_midnights" xmlns="http://www.w3.org/2000/svg" xmlns:xlink="http://www.w3.org/1999/xlink"
	 x="0px" y="0px" width="511.473px" height="511.473px" viewBox="0 0 511.473 511.473" enable-background="new 0 0 511.473 511.473"
	 xml:space="preserve">
<rect fill="#FFFFFF" width="511.473" height="511.473"/>
<g id="Icon">
	<g enable-background="new    ">
		<path fill="#4AA0C7" d="M434.205,298.612l8.061,3.023l-3.004,8.078l-8.061-3.041L434.205,298.612z M435.27,344.981l8.061,3.021
			l-3.004,8.062l-8.062-3.004L435.27,344.981z M441.303,328.84l8.073,3.004l-3.018,8.094l-8.085-3.036L441.303,328.84z
			 M466.474,310.665l-24.208-9.029l3.006-8.08l24.219,9.049L466.474,310.665z M452.38,323.783l8.062,3.022l-3.004,8.079
			l-8.062-3.041L452.38,323.783z M474.547,313.67l-6.045,16.159l-8.061-3.023l6.032-16.141L474.547,313.67z"/>
	</g>
	<g enable-background="new    ">
		<path fill="#4AA0C7" d="M417.845,147.58l8.074,3.016l-3.028,8.061l-8.061-3.004L417.845,147.58z M418.921,193.941l8.075,3.004
			l-3.024,8.07l-8.078-3.013L418.921,193.941z M424.944,177.801l8.061,3.022l-3.004,8.062l-8.062-3.016L424.944,177.801z
			 M450.115,159.626l-24.196-9.031l3.017-8.072l24.184,9.042L450.115,159.626z M436.013,172.745l8.081,3.022l-3.027,8.06
			l-8.062-3.004L436.013,172.745z M458.176,162.649l-6.008,16.123l-8.074-3.005l6.021-16.141L458.176,162.649z"/>
	</g>
	<g enable-background="new    ">
		<path fill="#4AA0C7" d="M24.41,313.423l9.529-5.006l4.987,9.548l-9.529,4.969L24.41,313.423z M62.524,293.475l-28.585,14.942
			l-4.987-9.51l28.585-14.981L62.524,293.475z M58.429,332.016l9.528-4.969l4.989,9.51l-9.529,5.006L58.429,332.016z
			 M72.053,288.469l9.975,19.056l-9.528,5.006l-9.975-19.056L72.053,288.469z M62.97,317.5l9.529-4.97l4.988,9.511l-9.529,5.006
			L62.97,317.5z M68.407,351.072l9.533-4.969l4.992,9.512l-9.529,5.005L68.407,351.072z"/>
	</g>
	<g enable-background="new    ">
		<path fill="#4AA0C7" d="M48.435,163.501l7.097-3.713l3.718,7.093l-7.104,3.725L48.435,163.501z M76.825,148.638l-21.293,11.15
			l-3.715-7.095l21.29-11.155L76.825,148.638z M73.776,177.363l7.1-3.707l3.717,7.093l-7.104,3.707L73.776,177.363z M83.922,144.925
			l7.432,14.193l-7.098,3.719l-7.431-14.199L83.922,144.925z M77.161,166.549l7.095-3.713l3.714,7.095l-7.095,3.725L77.161,166.549z
			 M81.208,191.569l7.099-3.725l3.718,7.094l-7.104,3.725L81.208,191.569z"/>
	</g>
	<g enable-background="new    ">
		<path fill="#4AA0C7" d="M146.557,84.874l4.484-2.468l2.469,4.491l-4.489,2.469L146.557,84.874z M164.512,75.005l-13.471,7.4
			l-2.462-4.49l13.472-7.405L164.512,75.005z M162.931,93.409l4.501-2.464l2.466,4.497l-4.497,2.462L162.931,93.409z
			 M169.015,72.541l4.925,8.978l-4.484,2.473l-4.944-8.987L169.015,72.541z M164.96,86.455l4.496-2.462l2.462,4.485l-4.485,2.468
			L164.96,86.455z M167.875,102.395l4.485-2.469l2.462,4.491l-4.484,2.474L167.875,102.395z"/>
	</g>
	<g enable-background="new    ">
		<path fill="#4AA0C7" d="M340.7,70.07l4.318,1.718l-1.722,4.301l-4.317-1.711L340.7,70.07z M340.729,95.019l4.316,1.71
			l-1.722,4.308l-4.299-1.72L340.729,95.019z M344.172,86.408l4.303,1.715l-1.707,4.306l-4.317-1.71L344.172,86.408z
			 M357.921,76.929l-12.902-5.141l1.708-4.303l12.891,5.146L357.921,76.929z M350.173,83.823l4.317,1.71l-1.722,4.309l-4.294-1.719
			L350.173,83.823z M362.213,78.642l-3.416,8.607l-4.307-1.715l3.431-8.604L362.213,78.642z"/>
	</g>
	<g id="Clock">
		<g id="Back">
			<rect x="108.767" y="199.793" fill="#4AA0C7" width="294.476" height="147.217"/>
			<rect x="150.841" y="157.72" fill="#4AA0C7" width="210.323" height="210.335"/>
			<rect x="171.869" y="115.653" fill="#4AA0C7" width="168.273" height="294.461"/>
		</g>
		<g id="Outline">
			<rect x="108.767" y="199.793" fill="#3D83A3" width="21.035" height="147.217"/>
			<rect x="129.801" y="347.015" fill="#3D83A3" width="21.04" height="21.045"/>
			<rect x="150.841" y="368.056" fill="#3D83A3" width="21.028" height="21.039"/>
			<rect x="171.869" y="389.094" fill="#3D83A3" width="42.073" height="21.024"/>
			<rect x="213.942" y="410.115" fill="#3D83A3" width="84.121" height="21.039"/>
			<rect x="298.063" y="389.094" fill="#3D83A3" width="42.079" height="21.024"/>
			<rect x="340.142" y="368.056" fill="#3D83A3" width="21.024" height="21.039"/>
			<rect x="361.163" y="347.015" fill="#3D83A3" width="21.045" height="21.045"/>
			<rect x="382.208" y="199.793" fill="#3D83A3" width="21.038" height="147.217"/>
			<rect x="361.163" y="157.72" fill="#3D83A3" width="21.045" height="42.073"/>
			<rect x="340.142" y="136.692" fill="#3D83A3" width="21.024" height="21.028"/>
			<rect x="298.063" y="115.653" fill="#3D83A3" width="42.079" height="21.04"/>
			<rect x="213.942" y="94.62" fill="#3D83A3" width="84.121" height="21.034"/>
			<rect x="171.869" y="115.653" fill="#3D83A3" width="42.073" height="21.04"/>
			<rect x="150.841" y="136.692" fill="#3D83A3" width="21.028" height="21.028"/>
			<rect x="129.801" y="157.72" fill="#3D83A3" width="21.04" height="42.073"/>
			<rect x="108.767" y="304.948" fill="#3D83A3" width="42.073" height="21.046"/>
			<rect x="150.841" y="325.994" fill="#3D83A3" width="21.028" height="21.021"/>
			<rect x="171.869" y="347.015" fill="#3D83A3" width="42.073" height="21.045"/>
			<rect x="213.942" y="368.056" fill="#3D83A3" width="84.121" height="21.039"/>
			<rect x="298.063" y="346.49" fill="#3D83A3" width="42.079" height="21.032"/>
			<rect x="340.142" y="325.468" fill="#3D83A3" width="21.024" height="21.022"/>
			<rect x="361.163" y="304.414" fill="#3D83A3" width="42.08" height="21.055"/>
		</g>
		<g id="Display">
			<rect x="150.841" y="199.793" fill="#3D83A3" width="84.121" height="63.1"/>
			<rect x="171.869" y="157.72" fill="#3D83A3" width="63.095" height="126.194"/>
			<rect x="171.869" y="157.72" fill="#3D83A3" width="168.273" height="83.608"/>
			<rect x="213.942" y="136.692" fill="#3D83A3" width="84.121" height="104.635"/>
			<rect x="277.042" y="157.72" fill="#3D83A3" width="63.1" height="126.194"/>
			<rect x="277.042" y="199.268" fill="#3D83A3" width="84.121" height="63.1"/>
		</g>
		<g id="Moon">
			<rect x="234.962" y="146.678" fill="#7FBCD7" width="42.08" height="21.039"/>
			<rect x="256" y="167.717" fill="#7FBCD7" width="42.062" height="42.061"/>
			<rect x="234.962" y="209.777" fill="#7FBCD7" width="42.08" height="21.04"/>
			<rect x="256" y="146.678" fill="#7FBCD7" width="21.042" height="84.139"/>
		</g>
	</g>
</g>
</svg>
