<?xml version="1.0" encoding="utf-8"?>
<!-- Generator: Adobe Illustrator 16.0.0, SVG Export Plug-In . SVG Version: 6.00 Build 0)  -->
<!DOCTYPE svg PUBLIC "-//W3C//DTD SVG 1.1//EN" "http://www.w3.org/Graphics/SVG/1.1/DTD/svg11.dtd">
<svg version="1.1" id="vertical_rails" xmlns="http://www.w3.org/2000/svg" xmlns:xlink="http://www.w3.org/1999/xlink" x="0px"
	 y="0px" width="511.473px" height="511.473px" viewBox="0 0 511.473 511.473" enable-background="new 0 0 511.473 511.473"
	 xml:space="preserve">
<rect fill="#FFFFFF" width="511.473" height="511.473"/>
<g id="Icon">
	<rect id="main_rail" x="211.824" y="0.004" fill="#4AA0C7" width="6.027" height="511.454"/>
	<g id="connectors">
		<rect x="207.006" y="0.019" fill="#4AA0C7" width="6.023" height="11.972"/>
		<rect x="207.006" y="25.844" fill="#4AA0C7" width="6.023" height="10.843"/>
		<rect x="207.006" y="50.539" fill="#4AA0C7" width="6.023" height="10.84"/>
		<rect x="207.006" y="76.438" fill="#4AA0C7" width="6.023" height="10.842"/>
		<rect x="207.006" y="101.135" fill="#4AA0C7" width="6.023" height="10.841"/>
		<rect x="207.006" y="125.829" fill="#4AA0C7" width="6.023" height="10.841"/>
		<rect x="207.006" y="151.728" fill="#4AA0C7" width="6.023" height="10.842"/>
		<rect x="207.006" y="176.422" fill="#4AA0C7" width="6.023" height="10.842"/>
		<rect x="207.006" y="201.118" fill="#4AA0C7" width="6.023" height="10.841"/>
		<rect x="207.006" y="227.018" fill="#4AA0C7" width="6.023" height="10.842"/>
		<rect x="207.006" y="251.712" fill="#4AA0C7" width="6.023" height="10.841"/>
		<rect x="207.006" y="276.406" fill="#4AA0C7" width="6.023" height="10.843"/>
		<rect x="207.006" y="302.308" fill="#4AA0C7" width="6.023" height="10.842"/>
		<rect x="207.006" y="327.003" fill="#4AA0C7" width="6.023" height="10.847"/>
		<rect x="207.006" y="351.695" fill="#4AA0C7" width="6.023" height="10.848"/>
		<rect x="207.006" y="377.596" fill="#4AA0C7" width="6.023" height="10.842"/>
		<rect x="207.006" y="402.293" fill="#4AA0C7" width="6.023" height="10.84"/>
		<rect x="207.006" y="426.986" fill="#4AA0C7" width="6.023" height="10.843"/>
		<rect x="207.006" y="452.885" fill="#4AA0C7" width="6.023" height="10.849"/>
		<rect x="207.006" y="477.579" fill="#4AA0C7" width="6.023" height="10.848"/>
		<rect x="207.006" y="502.275" fill="#4AA0C7" width="6.023" height="9.183"/>
	</g>
	<g id="bars">
		<rect x="209.416" y="0.012" fill="#3D83A3" width="6.022" height="11.979"/>
		<rect x="209.416" y="25.844" fill="#3D83A3" width="6.022" height="10.843"/>
		<rect x="209.416" y="50.539" fill="#3D83A3" width="6.022" height="10.84"/>
		<rect x="209.416" y="76.438" fill="#3D83A3" width="6.022" height="10.842"/>
		<rect x="209.416" y="101.135" fill="#3D83A3" width="6.022" height="10.841"/>
		<rect x="209.416" y="125.829" fill="#3D83A3" width="6.022" height="10.841"/>
		<rect x="209.416" y="151.728" fill="#3D83A3" width="6.022" height="10.842"/>
		<rect x="209.416" y="176.422" fill="#3D83A3" width="6.022" height="10.842"/>
		<rect x="209.416" y="201.118" fill="#3D83A3" width="6.022" height="10.841"/>
		<rect x="209.416" y="227.018" fill="#3D83A3" width="6.022" height="10.842"/>
		<rect x="209.416" y="251.712" fill="#3D83A3" width="6.022" height="10.841"/>
		<rect x="209.416" y="276.406" fill="#3D83A3" width="6.022" height="10.843"/>
		<rect x="209.416" y="302.308" fill="#3D83A3" width="6.022" height="10.842"/>
		<rect x="209.416" y="327.003" fill="#3D83A3" width="6.022" height="10.847"/>
		<rect x="209.416" y="351.695" fill="#3D83A3" width="6.022" height="10.848"/>
		<rect x="209.416" y="377.596" fill="#3D83A3" width="6.022" height="10.842"/>
		<rect x="209.416" y="402.293" fill="#3D83A3" width="6.022" height="10.84"/>
		<rect x="209.416" y="426.986" fill="#3D83A3" width="6.022" height="10.843"/>
		<rect x="209.416" y="452.885" fill="#3D83A3" width="6.022" height="10.849"/>
		<rect x="209.416" y="477.579" fill="#3D83A3" width="6.022" height="10.848"/>
		<rect x="209.416" y="502.275" fill="#3D83A3" width="6.022" height="9.211"/>
	</g>
	<g id="player">
		<rect x="268.443" y="172.809" fill="#4AA0C7" width="40.956" height="39.152"/>
		<rect x="279.886" y="208.347" fill="#4AA0C7" width="18.671" height="49.752"/>
		
			<rect x="238.163" y="230.077" transform="matrix(0.866 -0.5 0.5 0.866 -83.8747 164.2509)" fill="#4AA0C7" width="52.755" height="17.104"/>
	</g>
	<g id="cart">
		<rect x="217.852" y="243.881" fill="#3D83A3" width="101.79" height="58.426"/>
	</g>
</g>
<path fill="none" d="M403.334-0.663L206.038,0.035v511.424l197.296-0.699c27.602,0,49.979-22.369,49.979-49.977V49.314
	C453.313,21.714,430.939-0.663,403.334-0.663z"/>
<polygon fill="#3D83A3" points="249.926,302.308 248.778,302.308 247.63,302.308 246.482,302.308 245.332,302.308 244.184,302.308 
	243.034,302.308 241.887,302.308 240.74,302.308 239.591,302.308 238.441,302.308 237.293,302.308 236.145,302.308 236.145,303.454 
	236.145,304.604 237.293,304.604 237.293,305.753 238.441,305.753 238.441,306.902 239.591,306.902 240.74,306.902 240.74,308.05 
	241.887,308.05 243.034,308.05 244.184,308.05 245.332,308.05 246.482,308.05 246.482,306.902 247.63,306.902 248.778,306.902 
	248.778,305.753 249.926,305.753 249.926,304.604 251.076,304.604 251.076,303.454 251.076,302.308 "/>
<polygon fill="#3D83A3" points="303.105,302.308 301.959,302.308 300.811,302.308 299.664,302.308 298.515,302.308 297.361,302.308 
	296.215,302.308 295.068,302.308 293.92,302.308 292.773,302.308 291.625,302.308 290.471,302.308 289.325,302.308 289.325,303.454 
	289.325,304.604 290.471,304.604 290.471,305.753 291.625,305.753 291.625,306.902 292.773,306.902 293.92,306.902 293.92,308.05 
	295.068,308.05 296.215,308.05 297.361,308.05 298.515,308.05 299.664,308.05 299.664,306.902 300.811,306.902 301.959,306.902 
	301.959,305.753 303.105,305.753 303.105,304.604 304.26,304.604 304.26,303.454 304.26,302.308 "/>
<polygon fill="#7FBCD7" points="207.005,0.035 54.903,0.035 54.903,0 0,0 0,116.902 0.084,116.902 0.084,341.569 0,341.569 
	0,511.473 111.57,511.473 111.57,511.459 207.005,511.459 "/>
</svg>
