<?xml version="1.0" encoding="UTF-8" standalone="no"?>
<!-- Created with Inkscape (http://www.inkscape.org/) -->

<svg
   xmlns:dc="http://purl.org/dc/elements/1.1/"
   xmlns:cc="http://creativecommons.org/ns#"
   xmlns:rdf="http://www.w3.org/1999/02/22-rdf-syntax-ns#"
   xmlns:svg="http://www.w3.org/2000/svg"
   xmlns="http://www.w3.org/2000/svg"
   xmlns:sodipodi="http://sodipodi.sourceforge.net/DTD/sodipodi-0.dtd"
   xmlns:inkscape="http://www.inkscape.org/namespaces/inkscape"
   width="210mm"
   height="297mm"
   viewBox="0 0 744.09448819 1052.3622047"
   id="svg2"
   version="1.1"
   inkscape:version="0.91 r13725"
   sodipodi:docname="dragon_egg_hatching_1.svg">
  <defs
     id="defs4" />
  <sodipodi:namedview
     id="base"
     pagecolor="#ffffff"
     bordercolor="#666666"
     borderopacity="1.0"
     inkscape:pageopacity="0.0"
     inkscape:pageshadow="2"
     inkscape:zoom="0.98994949"
     inkscape:cx="447.0974"
     inkscape:cy="564.82402"
     inkscape:document-units="px"
     inkscape:current-layer="layer1"
     showgrid="false"
     inkscape:window-width="1920"
     inkscape:window-height="1017"
     inkscape:window-x="-8"
     inkscape:window-y="-8"
     inkscape:window-maximized="1" />
  <metadata
     id="metadata7">
    <rdf:RDF>
      <cc:Work
         rdf:about="">
        <dc:format>image/svg+xml</dc:format>
        <dc:type
           rdf:resource="http://purl.org/dc/dcmitype/StillImage" />
        <dc:title></dc:title>
      </cc:Work>
    </rdf:RDF>
  </metadata>
  <g
     inkscape:label="Layer 1"
     inkscape:groupmode="layer"
     id="layer1">
    <path
       style="fill:#4aa0c7;fill-opacity:1"
       d="m 203.78722,720.64797 0,-22.78572 -22.78572,0 -22.78572,0 0,-22.78571 0,-22.78572 -22.78571,0 -22.78572,0 0,-68.35715 0,-68.35714 22.78572,0 22.78571,0 0,-45.57144 0,-45.57143 22.78572,0 22.78572,0 0,-45.57143 0,-45.57143 22.78571,0 22.78572,0 0,-22.78572 0,-22.78572 45.57143,0 45.57143,0 0,-22.78571 0,-22.78572 45.57143,0 45.57144,0 0,22.78572 0,22.78571 45.57143,0 45.57143,0 0,22.78572 0,22.78572 22.78572,0 22.78571,0 0,45.57143 0,45.57143 22.78572,0 22.78571,0 0,45.57143 0,45.57144 22.78572,0 22.78572,0 0,68.35714 0,68.35715 -22.78572,0 -22.78572,0 0,22.78572 0,22.78571 -22.78571,0 -22.78572,0 0,22.78572 0,22.78572 -182.28573,0 -182.28572,0 0,-22.78572 z"
       id="path4147"
       inkscape:connector-curvature="0" />
  </g>
</svg>
