<?xml version="1.0" encoding="utf-8"?>
<!-- Generator: Adobe Illustrator 16.0.0, SVG Export Plug-In . SVG Version: 6.00 Build 0)  -->
<!DOCTYPE svg PUBLIC "-//W3C//DTD SVG 1.1//EN" "http://www.w3.org/Graphics/SVG/1.1/DTD/svg11.dtd">
<svg version="1.1"
	 id="dragon_egg_hatching" xmlns:inkscape="http://www.inkscape.org/namespaces/inkscape" xmlns:cc="http://creativecommons.org/ns#" xmlns:rdf="http://www.w3.org/1999/02/22-rdf-syntax-ns#" xmlns:sodipodi="http://sodipodi.sourceforge.net/DTD/sodipodi-0.dtd" xmlns:dc="http://purl.org/dc/elements/1.1/" xmlns:svg="http://www.w3.org/2000/svg"
	 xmlns="http://www.w3.org/2000/svg" xmlns:xlink="http://www.w3.org/1999/xlink" x="0px" y="0px" width="511.473px"
	 height="511.475px" viewBox="0 0 511.473 511.475" enable-background="new 0 0 511.473 511.475" xml:space="preserve">
<rect fill="#FFFFFF" width="511.473" height="511.476"/>
<g id="Icon">
	<g id="layer1" inkscape:groupmode="layer" inkscape:label="Layer 1">
		<path id="path4147" inkscape:connector-curvature="0" fill="#4AA0C7" d="M137.313,406.53v-14.805h-14.8h-14.807v-14.814v-14.789
			H92.906H78.098v-44.433v-44.405h14.809h14.803v-29.593v-29.61h14.81h14.795v-29.602v-29.601h14.804h14.81v-14.805v-14.804h29.607
			h29.594v-14.797V95.665h29.61h29.591v14.808v14.797h29.631h29.594v14.804v14.81h14.817h14.798v29.606v29.595h14.788h14.816v29.61
			v29.592h14.804h14.79v44.408v44.436h-14.79h-14.802v14.783v14.814h-14.82H374.16v14.805v14.791H255.74H137.318v-14.791
			L137.313,406.53L137.313,406.53z"/>
	</g>
	<g id="layer1_1_" inkscape:groupmode="layer" inkscape:label="Layer 1">
		<path id="path4151" inkscape:connector-curvature="0" sodipodi:nodetypes="cccccccccccccc" fill="#FFFFFF" d="M286.158,123.589
			l-22.01,37.092l7.206,13.787l-17.703,43.323l13.124,34.116l-24.289,64.313l19.699,103.014l-11.805-99.724l30.18-68.246
			l-10.502-41.344l23.623-38.069l-8.411-12.936l35.367-35.77L286.158,123.589z"/>
	</g>
</g>
</svg>
