<?xml version="1.0" encoding="utf-8"?>
<!-- Generator: Adobe Illustrator 16.0.0, SVG Export Plug-In . SVG Version: 6.00 Build 0)  -->
<!DOCTYPE svg PUBLIC "-//W3C//DTD SVG 1.1//EN" "http://www.w3.org/Graphics/SVG/1.1/DTD/svg11.dtd">
<svg version="1.1" id="end_fishing" xmlns="http://www.w3.org/2000/svg" xmlns:xlink="http://www.w3.org/1999/xlink" x="0px"
	 y="0px" width="511.471px" height="511.475px" viewBox="0 0 511.471 511.475" enable-background="new 0 0 511.471 511.475"
	 xml:space="preserve">
<rect fill="#FFFFFF" width="511.473" height="511.473"/>
<g id="Icon">
	<g id="Particles">
		<g id="Particle_2_">
			<polygon fill="#4AA0C7" points="270.279,267.465 272.746,266.129 274.044,268.597 271.577,269.933 			"/>
			
				<rect x="274.52" y="267.732" transform="matrix(-0.8787 0.4773 -0.4773 -0.8787 646.8469 373.9293)" fill="#4AA0C7" width="2.805" height="2.805"/>
			
				<rect x="269.614" y="270.327" transform="matrix(-0.8794 0.4761 -0.4761 -0.8794 638.7138 381.6673)" fill="#4AA0C7" width="2.806" height="2.805"/>
			<polygon fill="#4AA0C7" points="266.515,266.305 268.98,265.005 270.318,267.471 267.853,268.771 			"/>
			<polygon fill="#4AA0C7" points="271.419,263.659 273.885,262.358 275.221,264.824 272.756,266.124 			"/>
		</g>
		<g id="Particle_4_">
			<polygon fill="#4AA0C7" points="320.561,343.964 322.484,345.839 320.599,347.737 318.675,345.886 			"/>
			<polygon fill="#4AA0C7" points="320.639,347.734 322.559,349.62 320.706,351.542 318.789,349.655 			"/>
			
				<rect x="315.398" y="344.563" transform="matrix(-0.714 -0.7002 0.7002 -0.714 300.6879 814.6596)" fill="#4AA0C7" width="2.692" height="2.697"/>
			
				<rect x="319.098" y="340.884" transform="matrix(-0.7129 -0.7013 0.7013 -0.7129 308.8844 810.9229)" fill="#4AA0C7" width="2.693" height="2.693"/>
			
				<rect x="322.922" y="344.376" transform="matrix(-0.7131 -0.7011 0.7011 -0.7131 313.1069 819.5875)" fill="#4AA0C7" width="2.695" height="2.69"/>
		</g>
		<g id="Particle_5_">
			<rect x="302.077" y="278.563" fill="#4AA0C7" width="2.153" height="2.152"/>
			<rect x="304.203" y="280.689" fill="#4AA0C7" width="2.151" height="2.152"/>
			<rect x="299.894" y="280.677" fill="#4AA0C7" width="2.184" height="2.153"/>
			<rect x="299.906" y="276.432" fill="#4AA0C7" width="2.19" height="2.151"/>
			<rect x="304.218" y="276.383" fill="#4AA0C7" width="2.146" height="2.187"/>
		</g>
		<g id="Particle_6_">
			<polygon fill="#4AA0C7" points="344.648,244.247 345.736,244.921 345.062,246.009 343.973,245.353 			"/>
			<polygon fill="#4AA0C7" points="345.091,245.93 346.218,246.608 345.543,247.694 344.453,247.036 			"/>
			<polygon fill="#4AA0C7" points="342.856,244.664 343.946,245.32 343.271,246.426 342.186,245.751 			"/>
			<polygon fill="#4AA0C7" points="344.279,242.538 345.366,243.196 344.69,244.3 343.604,243.624 			"/>
			
				<rect x="345.997" y="244.121" transform="matrix(-0.8495 -0.5276 0.5276 -0.8495 511.9674 635.5677)" fill="#4AA0C7" width="1.277" height="1.28"/>
		</g>
		<g id="Particle_9_">
			<polygon fill="#4AA0C7" points="402.508,323.544 403.778,324.175 403.135,325.483 401.839,324.815 			"/>
			<polygon fill="#4AA0C7" points="403.216,325.499 404.484,326.153 403.84,327.438 402.547,326.771 			"/>
			<polygon fill="#4AA0C7" points="400.667,324.124 401.951,324.794 401.283,326.064 400.013,325.395 			"/>
			<polygon fill="#4AA0C7" points="401.902,321.629 403.186,322.28 402.516,323.567 401.247,322.898 			"/>
			<polygon fill="#4AA0C7" points="404.446,322.874 405.718,323.544 405.073,324.813 403.778,324.145 			"/>
		</g>
		<g id="Particle_10_">
			<polygon fill="#4AA0C7" points="386.369,289.913 387.362,290.519 386.781,291.473 385.802,290.905 			"/>
			<polygon fill="#4AA0C7" points="386.765,291.464 387.746,292.072 387.179,293.022 386.186,292.453 			"/>
			<polygon fill="#4AA0C7" points="384.892,290.372 385.842,290.941 385.272,291.933 384.284,291.354 			"/>
			<polygon fill="#4AA0C7" points="385.987,288.401 386.967,288.969 386.372,289.966 385.418,289.36 			"/>
			<polygon fill="#4AA0C7" points="387.917,289.553 388.892,290.158 388.299,291.109 387.349,290.542 			"/>
		</g>
		<g id="Particle_12_">
			<polygon fill="#4AA0C7" points="266.044,399.57 267.638,401.74 265.453,403.341 263.859,401.167 			"/>
			<polygon fill="#4AA0C7" points="265.47,403.26 267.1,405.427 264.916,407.021 263.324,404.851 			"/>
			
				<rect x="260.77" y="399.53" transform="matrix(-0.5955 -0.8034 0.8034 -0.5955 96.147 850.1445)" fill="#4AA0C7" width="2.673" height="2.672"/>
			<polygon fill="#4AA0C7" points="266.573,395.887 268.166,398.056 265.983,399.658 264.39,397.478 			"/>
			<polygon fill="#4AA0C7" points="269.75,400.159 271.342,402.319 269.156,403.912 267.564,401.754 			"/>
		</g>
		<g id="Particle_13_">
			<polygon fill="#4AA0C7" points="335.339,435.442 336.704,435.331 336.809,436.675 335.472,436.812 			"/>
			<polygon fill="#4AA0C7" points="336.798,436.664 338.167,436.551 338.305,437.895 336.936,438.032 			"/>
			<polygon fill="#4AA0C7" points="334.13,436.907 335.501,436.783 335.601,438.138 334.267,438.251 			"/>
			<polygon fill="#4AA0C7" points="333.9,434.26 335.231,434.136 335.369,435.49 334,435.604 			"/>
			<polygon fill="#4AA0C7" points="336.563,433.982 337.919,433.845 338.032,435.214 336.687,435.351 			"/>
		</g>
		<g id="Particle_14_">
			<polygon fill="#4AA0C7" points="360.67,419.336 361.218,420.621 359.942,421.169 359.395,419.895 			"/>
			<polygon fill="#4AA0C7" points="360.015,421.103 360.585,422.38 359.289,422.932 358.739,421.661 			"/>
			<polygon fill="#4AA0C7" points="358.967,418.551 359.539,419.848 358.24,420.41 357.692,419.109 			"/>
			<polygon fill="#4AA0C7" points="361.505,417.503 362.053,418.802 360.768,419.361 360.194,418.063 			"/>
			<polygon fill="#4AA0C7" points="362.575,420.057 363.124,421.332 361.847,421.881 361.263,420.605 			"/>
		</g>
		<g id="Particle_15_">
			<polygon fill="#4AA0C7" points="370.998,426.427 372.165,427.229 371.387,428.409 370.181,427.632 			"/>
			<polygon fill="#4AA0C7" points="371.362,428.36 372.556,429.162 371.753,430.345 370.547,429.565 			"/>
			<polygon fill="#4AA0C7" points="368.997,426.796 370.2,427.612 369.424,428.8 368.219,427.996 			"/>
			<polygon fill="#4AA0C7" points="370.567,424.446 371.773,425.228 370.993,426.433 369.788,425.64 			"/>
			<polygon fill="#4AA0C7" points="372.965,426.007 374.17,426.801 373.353,428.005 372.148,427.196 			"/>
		</g>
		<g id="Particle_16_">
			
				<rect x="350.624" y="360.652" transform="matrix(-0.8346 -0.5509 0.5509 -0.8346 445.1826 855.9246)" fill="#4AA0C7" width="0.943" height="0.947"/>
			<polygon fill="#4AA0C7" points="351.135,361.751 351.926,362.271 351.405,363.101 350.614,362.58 			"/>
			<polygon fill="#4AA0C7" points="349.579,360.804 350.366,361.311 349.853,362.113 349.058,361.595 			"/>
			<polygon fill="#4AA0C7" points="350.622,359.134 351.413,359.656 350.892,360.484 350.101,359.963 			"/>
			<polygon fill="#4AA0C7" points="352.227,360.156 353.04,360.681 352.52,361.503 351.702,360.98 			"/>
		</g>
		<g id="Particle_17_">
			<rect x="448.704" y="293.48" fill="#4AA0C7" width="15.087" height="9.245"/>
			<rect x="451.729" y="290.417" fill="#4AA0C7" width="9.01" height="15.216"/>
		</g>
		<g id="Particle_18_">
			
				<rect x="360.95" y="327.107" transform="matrix(-0.9956 0.0937 -0.0937 -0.9956 766.5033 627.5063)" fill="#4AA0C7" width="15.126" height="9.298"/>
			<polygon fill="#4AA0C7" points="363.293,324.551 372.279,323.724 373.704,338.842 364.717,339.687 			"/>
		</g>
		<g id="Particle_19_">
			<rect x="362.254" y="284.046" fill="#4AA0C7" width="7.484" height="4.586"/>
			<rect x="363.763" y="282.525" fill="#4AA0C7" width="4.47" height="7.53"/>
		</g>
		<g id="Particle_20_">
			<polygon fill="#4AA0C7" points="441.572,269.77 448.859,265.361 451.563,269.813 444.302,274.22 			"/>
			<polygon fill="#4AA0C7" points="442.032,267.333 446.38,264.692 450.822,271.981 446.461,274.622 			"/>
		</g>
		<g id="Particle_21_">
			<polygon fill="#4AA0C7" points="358.913,386.547 362.975,390.965 360.276,393.478 356.201,389.036 			"/>
			<polygon fill="#4AA0C7" points="360.546,386.657 362.985,389.3 358.548,393.386 356.107,390.743 			"/>
		</g>
		<g id="Particle_1_">
			<polygon fill="#4AA0C7" points="400.143,396.023 404.218,400.441 401.479,402.942 397.418,398.515 			"/>
			<polygon fill="#4AA0C7" points="401.798,396.079 404.234,398.747 399.766,402.837 397.358,400.19 			"/>
		</g>
		<g id="Particle_22_">
			<polygon fill="#4AA0C7" points="304.07,406.455 312.037,402.871 314.259,407.771 306.272,411.35 			"/>
			<polygon fill="#4AA0C7" points="304.981,404.135 309.746,401.995 313.374,410.019 308.609,412.169 			"/>
		</g>
		<g id="Particle_23_">
			<polygon fill="#4AA0C7" points="230.53,460.389 237.391,454.12 241.249,458.331 234.388,464.602 			"/>
			<polygon fill="#4AA0C7" points="230.538,457.82 234.646,454.057 240.963,460.97 236.855,464.725 			"/>
		</g>
		<g id="Particle_24_">
			<polygon fill="#4AA0C7" points="320.757,447.21 327.335,442.421 330.292,446.472 323.713,451.261 			"/>
			<polygon fill="#4AA0C7" points="321.156,444.982 325.126,442.101 329.934,448.747 326.002,451.605 			"/>
		</g>
		<g id="Particle_3_">
			<polygon fill="#4AA0C7" points="433.804,340.669 439.402,339.662 440.403,345.256 434.818,346.27 			"/>
			<polygon fill="#4AA0C7" points="440.372,345.24 442.232,344.904 442.568,346.774 440.696,347.11 			"/>
			<polygon fill="#4AA0C7" points="439.208,337.845 441.039,337.51 441.375,339.38 439.532,339.716 			"/>
			<polygon fill="#4AA0C7" points="431.787,339.188 433.633,338.852 433.969,340.685 432.11,341.021 			"/>
			<polygon fill="#4AA0C7" points="432.964,346.583 434.836,346.247 435.171,348.078 433.299,348.414 			"/>
		</g>
		<g id="Particle_7_">
			<polygon fill="#4AA0C7" points="402.435,282.22 409.999,281.298 410.899,288.862 403.333,289.788 			"/>
			<polygon fill="#4AA0C7" points="410.816,288.924 413.333,288.617 413.615,291.112 411.123,291.419 			"/>
			<polygon fill="#4AA0C7" points="409.657,278.909 412.157,278.603 412.451,281.098 409.934,281.405 			"/>
			<polygon fill="#4AA0C7" points="399.682,280.136 402.183,279.827 402.492,282.326 399.978,282.635 			"/>
			<polygon fill="#4AA0C7" points="400.763,290.06 403.256,289.793 403.563,292.286 401.068,292.563 			"/>
		</g>
		<g id="Particle_8_">
			
				<rect x="329.794" y="303.109" transform="matrix(-0.7244 -0.6893 0.6893 -0.7244 362.9067 757.3495)" fill="#4AA0C7" width="6.063" height="6.062"/>
			<polygon fill="#4AA0C7" points="332.94,310.385 334.421,311.771 333.036,313.217 331.554,311.83 			"/>
			
				<rect x="337.503" y="304.988" transform="matrix(-0.7216 -0.6923 0.6923 -0.7216 370.9289 761.1412)" fill="#4AA0C7" width="2" height="2.003"/>
			<polygon fill="#4AA0C7" points="332.599,299.102 334.081,300.451 332.693,301.933 331.222,300.546 			"/>
			<polygon fill="#4AA0C7" points="327.141,304.836 328.622,306.224 327.237,307.678 325.753,306.32 			"/>
		</g>
		<g id="Particle_25_">
			<polygon fill="#4AA0C7" points="369.589,244.212 374.772,243.299 375.666,248.522 370.481,249.416 			"/>
			<polygon fill="#4AA0C7" points="375.714,248.513 377.421,248.204 377.729,249.935 375.998,250.225 			"/>
			<polygon fill="#4AA0C7" points="374.411,241.523 376.146,241.232 376.455,242.946 374.72,243.255 			"/>
			<polygon fill="#4AA0C7" points="367.569,242.748 369.297,242.459 369.604,244.17 367.878,244.478 			"/>
			<polygon fill="#4AA0C7" points="368.802,249.71 370.532,249.421 370.842,251.151 369.11,251.44 			"/>
		</g>
		<g id="Particle_26_">
			<polygon fill="#4AA0C7" points="311.521,264.325 315.836,263.71 316.411,268.024 312.134,268.603 			"/>
			
				<rect x="316.494" y="267.829" transform="matrix(-0.9909 0.1344 -0.1344 -0.9909 667.6248 492.0391)" fill="#4AA0C7" width="1.432" height="1.434"/>
			
				<rect x="315.723" y="262.181" transform="matrix(-0.9909 0.1346 -0.1346 -0.9909 665.3859 480.7993)" fill="#4AA0C7" width="1.429" height="1.432"/>
			
				<rect x="310.12" y="262.898" transform="matrix(-0.9908 0.1351 -0.1351 -0.9908 654.4393 482.8122)" fill="#4AA0C7" width="1.431" height="1.432"/>
			<polygon fill="#4AA0C7" points="310.81,268.705 312.255,268.514 312.458,269.935 311.024,270.125 			"/>
		</g>
		<g id="Particle_27_">
			<polygon fill="#4AA0C7" points="295.528,375.55 304.788,371.017 309.334,380.239 300.074,384.786 			"/>
			<polygon fill="#4AA0C7" points="309.269,380.29 312.328,378.782 313.837,381.83 310.766,383.352 			"/>
			<polygon fill="#4AA0C7" points="303.229,368.038 306.314,366.518 307.798,369.603 304.751,371.085 			"/>
			<polygon fill="#4AA0C7" points="290.995,374.046 294.048,372.524 295.552,375.605 292.485,377.091 			"/>
			<polygon fill="#4AA0C7" points="296.972,386.188 300.023,384.694 301.503,387.752 298.456,389.257 			"/>
		</g>
		<g id="Particle_28_">
			<polygon fill="#4AA0C7" points="270.367,451.31 275.465,447.942 278.823,453.051 273.725,456.411 			"/>
			<polygon fill="#4AA0C7" points="278.771,453.019 280.474,451.916 281.576,453.606 279.874,454.722 			"/>
			<polygon fill="#4AA0C7" points="274.332,446.295 276,445.19 277.14,446.86 275.434,447.991 			"/>
			<polygon fill="#4AA0C7" points="267.511,450.789 269.221,449.663 270.32,451.37 268.61,452.471 			"/>
			<polygon fill="#4AA0C7" points="271.954,457.541 273.664,456.427 274.766,458.107 273.096,459.235 			"/>
		</g>
		<g id="Particle_29_">
			<polygon fill="#4AA0C7" points="403.129,361.939 410.897,364.533 408.306,372.29 400.549,369.696 			"/>
			<polygon fill="#4AA0C7" points="408.276,372.276 410.827,373.137 409.989,375.688 407.415,374.851 			"/>
			
				<rect x="411.182" y="362.334" transform="matrix(-0.9489 -0.3155 0.3155 -0.9489 689.2859 838.9708)" fill="#4AA0C7" width="2.727" height="2.727"/>
			<polygon fill="#4AA0C7" points="401.428,358.574 403.989,359.435 403.141,362.011 400.566,361.165 			"/>
			<polygon fill="#4AA0C7" points="398.032,368.811 400.591,369.67 399.729,372.256 397.185,371.396 			"/>
		</g>
		<g id="Particle_56_">
			<polygon fill="#4AA0C7" points="178.308,452.274 175.948,453.78 174.447,451.414 176.807,449.919 			"/>
			<polygon fill="#4AA0C7" points="174.51,451.432 172.15,452.949 170.65,450.589 173.01,449.09 			"/>
			<polygon fill="#4AA0C7" points="179.199,448.52 176.844,450.01 175.339,447.669 177.699,446.15 			"/>
			<polygon fill="#4AA0C7" points="182.117,453.15 179.763,454.655 178.26,452.288 180.614,450.796 			"/>
			<polygon fill="#4AA0C7" points="177.491,456.165 175.13,457.684 173.63,455.305 175.983,453.823 			"/>
		</g>
		<g id="Particle_55_">
			<polygon fill="#4AA0C7" points="196.338,300.681 197.834,298.445 200.073,299.925 198.569,302.161 			"/>
			<polygon fill="#4AA0C7" points="200.037,300.051 201.534,297.813 203.772,299.328 202.275,301.566 			"/>
			<polygon fill="#4AA0C7" points="197.037,304.335 198.535,302.129 200.761,303.608 199.263,305.847 			"/>
			<polygon fill="#4AA0C7" points="192.694,301.495 194.191,299.295 196.41,300.773 194.913,303.012 			"/>
			<polygon fill="#4AA0C7" points="195.603,297.078 197.099,294.87 199.318,296.356 197.821,298.595 			"/>
		</g>
		<g id="Particle_54_">
			<polygon fill="#4AA0C7" points="146.635,317.403 146.239,315.277 148.371,314.856 148.766,316.983 			"/>
			<polygon fill="#4AA0C7" points="148.336,314.936 147.941,312.804 150.079,312.391 150.462,314.515 			"/>
			<polygon fill="#4AA0C7" points="149.05,319.164 148.668,317.035 150.794,316.617 151.182,318.769 			"/>
			<polygon fill="#4AA0C7" points="144.904,319.896 144.509,317.771 146.645,317.389 147.028,319.514 			"/>
			<polygon fill="#4AA0C7" points="144.132,315.672 143.749,313.549 145.875,313.166 146.264,315.289 			"/>
		</g>
		<g id="Particle_53_">
			<polygon fill="#4AA0C7" points="243.205,342.972 242.546,344.081 241.441,343.421 242.116,342.317 			"/>
			<polygon fill="#4AA0C7" points="241.512,343.249 240.856,344.335 239.751,343.66 240.426,342.574 			"/>
			<polygon fill="#4AA0C7" points="242.846,341.146 242.19,342.234 241.084,341.56 241.759,340.473 			"/>
			<polygon fill="#4AA0C7" points="244.936,342.365 244.278,343.452 243.172,342.776 243.849,341.689 			"/>
			<polygon fill="#4AA0C7" points="243.611,344.612 242.935,345.714 241.851,345.04 242.526,343.951 			"/>
		</g>
		<g id="Particle_52_">
			<polygon fill="#4AA0C7" points="162.707,426.119 162.049,427.413 160.768,426.757 161.43,425.475 			"/>
			<polygon fill="#4AA0C7" points="160.747,426.77 160.095,428.039 158.809,427.394 159.479,426.099 			"/>
			<polygon fill="#4AA0C7" points="162.006,424.181 161.348,425.474 160.066,424.817 160.728,423.535 			"/>
			<polygon fill="#4AA0C7" points="164.573,425.501 163.905,426.772 162.631,426.104 163.285,424.835 			"/>
			<polygon fill="#4AA0C7" points="163.289,428.039 162.64,429.333 161.352,428.679 162.02,427.396 			"/>
		</g>
		<g id="Particle_51_">
			<polygon fill="#4AA0C7" points="197.534,384.577 196.946,385.532 195.975,384.962 196.563,383.995 			"/>
			<polygon fill="#4AA0C7" points="195.971,384.964 195.387,385.956 194.411,385.351 194.998,384.396 			"/>
			<polygon fill="#4AA0C7" points="197.158,383.036 196.583,384.028 195.609,383.427 196.182,382.469 			"/>
			<polygon fill="#4AA0C7" points="199.067,384.197 198.5,385.152 197.526,384.585 198.094,383.593 			"/>
			
				<rect x="196.592" y="385.786" transform="matrix(0.5069 -0.862 0.862 0.5069 -235.8219 360.4536)" fill="#4AA0C7" width="1.119" height="1.134"/>
		</g>
		<g id="Particle_50_">
			<polygon fill="#4AA0C7" points="56.12,240.895 53.966,242.489 52.368,240.343 54.519,238.733 			"/>
			<polygon fill="#4AA0C7" points="52.405,240.36 50.254,241.953 48.659,239.807 50.812,238.194 			"/>
			<polygon fill="#4AA0C7" points="56.665,237.136 54.504,238.729 52.913,236.582 55.072,234.989 			"/>
			<polygon fill="#4AA0C7" points="59.817,241.423 57.66,243.016 56.063,240.87 58.212,239.258 			"/>
			<polygon fill="#4AA0C7" points="55.57,244.658 53.417,246.251 51.825,244.088 53.979,242.495 			"/>
		</g>
		<g id="Particle_49_">
			<polygon fill="#4AA0C7" points="89.817,344.299 90.986,345.002 90.284,346.148 89.114,345.446 			"/>
			
				<rect x="89.798" y="346.332" transform="matrix(-0.8584 -0.513 0.513 -0.8584 -9.8586 691.311)" fill="#4AA0C7" width="1.367" height="1.369"/>
			<polygon fill="#4AA0C7" points="87.993,344.714 89.171,345.417 88.468,346.602 87.291,345.899 			"/>
			<polygon fill="#4AA0C7" points="89.281,342.458 90.454,343.162 89.751,344.344 88.579,343.64 			"/>
			
				<rect x="91.224" y="344.047" transform="matrix(-0.8576 -0.5144 0.5144 -0.8576 -6.6074 687.6332)" fill="#4AA0C7" width="1.363" height="1.368"/>
		</g>
		<g id="Particle_48_">
			<polygon fill="#4AA0C7" points="223.758,260.44 223.826,259.038 225.229,259.087 225.162,260.489 			"/>
			<polygon fill="#4AA0C7" points="225.175,259.087 225.243,257.685 226.644,257.733 226.576,259.136 			"/>
			<polygon fill="#4AA0C7" points="225.065,261.885 225.133,260.483 226.533,260.532 226.465,261.934 			"/>
			<polygon fill="#4AA0C7" points="222.332,261.753 222.4,260.351 223.8,260.438 223.733,261.841 			"/>
			<polygon fill="#4AA0C7" points="222.403,258.937 222.452,257.537 223.854,257.624 223.806,259.024 			"/>
		</g>
		<g id="Particle_47_">
			<polygon fill="#4AA0C7" points="64.82,355.286 64.017,356.491 62.821,355.713 63.622,354.509 			"/>
			<polygon fill="#4AA0C7" points="62.877,355.69 62.078,356.868 60.885,356.089 61.685,354.886 			"/>
			<polygon fill="#4AA0C7" points="64.478,353.311 63.679,354.516 62.481,353.7 63.28,352.519 			"/>
			<polygon fill="#4AA0C7" points="66.819,354.892 66.022,356.098 64.827,355.28 65.625,354.098 			"/>
			<polygon fill="#4AA0C7" points="65.223,357.298 64.426,358.485 63.222,357.687 64.021,356.482 			"/>
		</g>
		<g id="Particle_46_">
			<polygon fill="#4AA0C7" points="200.556,311.59 200.05,310.757 200.882,310.243 201.392,311.078 			"/>
			<polygon fill="#4AA0C7" points="200.872,310.263 200.362,309.433 201.179,308.955 201.689,309.754 			"/>
			<polygon fill="#4AA0C7" points="201.889,311.882 201.394,311.084 202.209,310.572 202.721,311.404 			"/>
			<polygon fill="#4AA0C7" points="200.269,312.884 199.759,312.045 200.584,311.545 201.087,312.376 			"/>
			<polygon fill="#4AA0C7" points="199.243,311.293 198.753,310.457 199.571,309.948 200.079,310.784 			"/>
		</g>
		<g id="Particle_45_">
			<polygon fill="#4AA0C7" points="137.917,432.84 122.852,433.988 122.145,424.732 137.21,423.593 			"/>
			<polygon fill="#4AA0C7" points="135.136,436.097 126.125,436.787 124.966,421.651 133.971,420.96 			"/>
		</g>
		<g id="Particle_44_">
			<polygon fill="#4AA0C7" points="144.385,370.118 145.808,385.15 136.569,386.025 135.149,370.985 			"/>
			<polygon fill="#4AA0C7" points="147.658,372.83 148.512,381.817 133.398,383.244 132.548,374.257 			"/>
		</g>
		<g id="Particle_43_">
			<rect x="198.826" y="360.47" fill="#4AA0C7" width="4.6" height="7.458"/>
			<rect x="197.398" y="361.951" fill="#4AA0C7" width="7.529" height="4.494"/>
		</g>
		<g id="Particle_42_">
			<polygon fill="#4AA0C7" points="207.927,447.332 201.006,452.278 197.976,448.04 204.886,443.093 			"/>
			<polygon fill="#4AA0C7" points="207.646,449.592 203.511,452.548 198.524,445.594 202.66,442.625 			"/>
		</g>
		<g id="Particle_41_">
			<polygon fill="#4AA0C7" points="109.685,350.512 105.262,354.575 102.76,351.876 107.19,347.813 			"/>
			<polygon fill="#4AA0C7" points="109.591,352.171 106.945,354.584 102.854,350.147 105.501,347.709 			"/>
		</g>
		<g id="Particle_40_">
			<polygon fill="#4AA0C7" points="278.018,324.695 269.26,324.466 269.416,319.08 278.173,319.348 			"/>
			<polygon fill="#4AA0C7" points="276.188,326.403 270.989,326.25 271.221,317.456 276.458,317.609 			"/>
		</g>
		<g id="Particle_39_">
			<polygon fill="#4AA0C7" points="46.409,326.765 55.656,325.748 56.272,331.451 47.025,332.43 			"/>
			<polygon fill="#4AA0C7" points="47.927,324.662 53.458,324.079 54.468,333.384 48.938,333.967 			"/>
		</g>
		<g id="Particle_38_">
			
				<rect x="97.709" y="300.87" transform="matrix(-1 -0.0038 0.0038 -1 202.4213 607.1207)" fill="#4AA0C7" width="8.166" height="4.993"/>
			<polygon fill="#4AA0C7" points="99.384,299.195 104.261,299.211 104.229,307.431 99.35,307.414 			"/>
		</g>
		<g id="Particle_37_">
			<polygon fill="#4AA0C7" points="172.565,386.882 167.058,388.303 165.637,382.81 171.132,381.389 			"/>
			<polygon fill="#4AA0C7" points="165.644,382.909 163.814,383.382 163.349,381.571 165.166,381.087 			"/>
			<polygon fill="#4AA0C7" points="167.588,390.172 165.765,390.617 165.296,388.808 167.124,388.324 			"/>
			<polygon fill="#4AA0C7" points="174.933,388.229 173.111,388.677 172.635,386.867 174.454,386.384 			"/>
			<polygon fill="#4AA0C7" points="172.929,380.962 171.101,381.443 170.636,379.631 172.451,379.148 			"/>
		</g>
		<g id="Particle_36_">
			<polygon fill="#4AA0C7" points="230.393,406.437 222.896,407.923 221.446,400.43 228.923,398.979 			"/>
			<polygon fill="#4AA0C7" points="221.474,400.564 219,401.044 218.514,398.569 221,398.091 			"/>
			<polygon fill="#4AA0C7" points="223.24,410.406 220.767,410.885 220.294,408.413 222.768,407.935 			"/>
			<polygon fill="#4AA0C7" points="233.256,408.476 230.781,408.958 230.303,406.483 232.78,406.002 			"/>
			<polygon fill="#4AA0C7" points="231.343,398.611 228.866,399.077 228.391,396.597 230.863,396.131 			"/>
		</g>
		<g id="Particle_35_">
			<polygon fill="#4AA0C7" points="164.052,282.996 167.349,277.919 172.422,281.232 169.117,286.309 			"/>
			<polygon fill="#4AA0C7" points="172.389,281.24 173.476,279.542 175.155,280.666 174.068,282.326 			"/>
			<polygon fill="#4AA0C7" points="165.663,276.857 166.768,275.197 168.448,276.285 167.345,277.944 			"/>
			<polygon fill="#4AA0C7" points="161.333,283.563 162.424,281.903 164.105,282.99 163.01,284.688 			"/>
			<polygon fill="#4AA0C7" points="167.996,287.939 169.083,286.279 170.763,287.366 169.677,289.025 			"/>
		</g>
		<g id="Particle_34_">
			<polygon fill="#4AA0C7" points="243.255,367.708 244.148,372.919 238.942,373.825 238.05,368.602 			"/>
			<polygon fill="#4AA0C7" points="238.935,373.86 239.224,375.59 237.512,375.86 237.205,374.165 			"/>
			<polygon fill="#4AA0C7" points="245.812,372.665 246.102,374.395 244.39,374.702 244.101,372.972 			"/>
			<polygon fill="#4AA0C7" points="244.609,365.782 244.917,367.514 243.183,367.805 242.893,366.093 			"/>
			<polygon fill="#4AA0C7" points="237.776,366.979 238.066,368.698 236.335,368.98 236.046,367.251 			"/>
		</g>
		<g id="Particle_33_">
			<polygon fill="#4AA0C7" points="130.855,310.739 129.505,306.602 133.613,305.272 134.974,309.371 			"/>
			<polygon fill="#4AA0C7" points="133.652,305.179 133.204,303.841 134.561,303.377 135.013,304.748 			"/>
			<polygon fill="#4AA0C7" points="128.183,306.959 127.726,305.621 129.09,305.155 129.538,306.532 			"/>
			<polygon fill="#4AA0C7" points="129.915,312.392 129.465,311.053 130.834,310.589 131.282,311.964 			"/>
			<polygon fill="#4AA0C7" points="135.374,310.611 134.925,309.239 136.29,308.811 136.737,310.182 			"/>
		</g>
		<g id="Particle_32_">
			<polygon fill="#4AA0C7" points="250.477,310.713 240.178,310.755 240.117,300.437 250.435,300.395 			"/>
			<polygon fill="#4AA0C7" points="240.193,300.464 236.777,300.515 236.764,297.08 240.18,297.066 			"/>
			<polygon fill="#4AA0C7" points="240.3,314.076 236.903,314.092 236.869,310.657 240.284,310.641 			"/>
			<polygon fill="#4AA0C7" points="253.921,313.993 250.524,314.042 250.491,310.609 253.908,310.596 			"/>
			<polygon fill="#4AA0C7" points="253.861,300.41 250.445,300.424 250.431,297.025 253.828,297.013 			"/>
		</g>
		<g id="Particle_31_">
			<polygon fill="#4AA0C7" points="52.551,277.953 55.911,283.054 50.81,286.447 47.45,281.347 			"/>
			<polygon fill="#4AA0C7" points="50.81,286.36 51.927,288.07 50.234,289.173 49.116,287.5 			"/>
			<polygon fill="#4AA0C7" points="57.574,281.905 58.688,283.571 56.993,284.714 55.88,283.008 			"/>
			<polygon fill="#4AA0C7" points="53.142,275.189 54.251,276.862 52.563,277.966 51.442,276.295 			"/>
			<polygon fill="#4AA0C7" points="46.385,279.596 47.495,281.264 45.806,282.403 44.693,280.697 			"/>
		</g>
		<g id="Particle_30_">
			<polygon fill="#4AA0C7" points="89.393,385.7 86.812,393.48 79.047,390.9 81.63,383.145 			"/>
			<polygon fill="#4AA0C7" points="79.035,390.827 78.187,393.394 75.607,392.534 76.467,389.974 			"/>
			<polygon fill="#4AA0C7" points="89.409,394.308 88.561,396.893 85.981,396.031 86.84,393.471 			"/>
			<polygon fill="#4AA0C7" points="92.733,384.011 91.875,386.563 89.303,385.702 90.157,383.152 			"/>
			<polygon fill="#4AA0C7" points="82.565,380.574 81.712,383.163 79.132,382.302 79.991,379.714 			"/>
		</g>
		<g id="Particle_83_">
			
				<rect x="96.461" y="273.783" transform="matrix(0.9727 -0.232 0.232 0.9727 -61.1636 30.2073)" fill="#4AA0C7" width="2.8" height="2.779"/>
			<polygon fill="#4AA0C7" points="96.258,274.175 93.536,274.787 92.905,272.086 95.626,271.436 			"/>
			<polygon fill="#4AA0C7" points="101.618,272.946 98.895,273.56 98.264,270.856 100.984,270.205 			"/>
			<polygon fill="#4AA0C7" points="102.852,278.276 100.129,278.928 99.498,276.187 102.22,275.573 			"/>
			<polygon fill="#4AA0C7" points="97.477,279.6 94.755,280.212 94.117,277.509 96.839,276.858 			"/>
		</g>
		<g id="Particle_82_">
			
				<rect x="246.085" y="223.24" transform="matrix(-0.4686 0.8834 -0.8834 -0.4686 561.7625 111.2319)" fill="#4AA0C7" width="2.681" height="2.681"/>
			
				<rect x="249.684" y="222.112" transform="matrix(-0.4685 0.8835 -0.8835 -0.4685 566.0427 106.3764)" fill="#4AA0C7" width="2.679" height="2.681"/>
			<polygon fill="#4AA0C7" points="246.686,228.695 247.943,226.327 250.311,227.603 249.054,229.971 			"/>
			<polygon fill="#4AA0C7" points="242.037,226.199 243.313,223.831 245.66,225.087 244.402,227.455 			"/>
			<polygon fill="#4AA0C7" points="244.543,221.499 245.799,219.136 248.166,220.405 246.89,222.774 			"/>
		</g>
		<g id="Particle_81_">
			
				<rect x="220.573" y="211.415" transform="matrix(0.5206 0.8538 -0.8538 0.5206 287.6763 -87.3818)" fill="#4AA0C7" width="2.166" height="2.166"/>
			<polygon fill="#4AA0C7" points="221.988,211.053 220.862,209.195 222.711,208.088 223.839,209.938 			"/>
			<polygon fill="#4AA0C7" points="224.225,214.724 223.109,212.875 224.96,211.746 226.088,213.6 			"/>
			<polygon fill="#4AA0C7" points="220.576,216.918 219.449,215.068 221.297,213.941 222.425,215.797 			"/>
			<polygon fill="#4AA0C7" points="218.323,213.278 217.215,211.428 219.063,210.301 220.175,212.151 			"/>
		</g>
		<g id="Particle_80_">
			<polygon fill="#4AA0C7" points="190.277,347.994 191.317,348.737 190.563,349.775 189.535,349.033 			"/>
			<polygon fill="#4AA0C7" points="190.685,349.828 191.727,350.604 190.965,351.62 189.924,350.869 			"/>
			<polygon fill="#4AA0C7" points="188.539,348.346 189.574,349.087 188.832,350.129 187.792,349.387 			"/>
			<polygon fill="#4AA0C7" points="190.087,346.281 191.129,347.023 190.368,348.065 189.333,347.322 			"/>
			<polygon fill="#4AA0C7" points="192.146,347.776 193.18,348.531 192.438,349.571 191.396,348.792 			"/>
		</g>
		<g id="Particle_79_">
			
				<rect x="138.555" y="156.445" transform="matrix(0.7398 0.6728 -0.6728 0.7398 141.988 -52.8127)" fill="#4AA0C7" width="1.437" height="1.439"/>
			
				<rect x="138.504" y="154.428" transform="matrix(0.7388 0.6739 -0.6739 0.7388 140.9164 -53.3014)" fill="#4AA0C7" width="1.437" height="1.436"/>
			
				<rect x="140.543" y="156.394" transform="matrix(0.7374 0.6754 -0.6754 0.7374 143.2074 -54.1598)" fill="#4AA0C7" width="1.441" height="1.437"/>
			
				<rect x="138.658" y="158.44" transform="matrix(0.7436 0.6686 -0.6686 0.7436 142.1521 -52.3841)" fill="#4AA0C7" width="1.445" height="1.443"/>
			<polygon fill="#4AA0C7" points="137.331,158.276 136.261,157.308 137.227,156.245 138.299,157.213 			"/>
		</g>
		<g id="Particle_78_">
			<polygon fill="#4AA0C7" points="142.985,207.317 142.191,206.509 143.005,205.716 143.799,206.524 			"/>
			<polygon fill="#4AA0C7" points="143.019,205.727 142.227,204.92 143.046,204.13 143.836,204.936 			"/>
			<polygon fill="#4AA0C7" points="144.676,207.391 143.881,206.571 144.69,205.78 145.484,206.6 			"/>
			<polygon fill="#4AA0C7" points="143.018,208.907 142.225,208.102 143.042,207.31 143.834,208.115 			"/>
			<polygon fill="#4AA0C7" points="141.425,207.295 140.634,206.469 141.443,205.68 142.233,206.505 			"/>
		</g>
		<g id="Particle_77_">
			
				<rect x="217.701" y="135.008" transform="matrix(0.1527 0.9883 -0.9883 0.1527 320.3443 -100.9459)" fill="#4AA0C7" width="2.683" height="2.68"/>
			<polygon fill="#4AA0C7" points="220.132,134.856 219.722,132.205 222.374,131.809 222.781,134.458 			"/>
			<polygon fill="#4AA0C7" points="220.826,140.121 220.417,137.466 223.07,137.076 223.478,139.725 			"/>
			<polygon fill="#4AA0C7" points="215.695,140.887 215.301,138.238 217.951,137.836 218.36,140.487 			"/>
			<polygon fill="#4AA0C7" points="214.868,135.618 214.461,132.97 217.125,132.567 217.515,135.227 			"/>
		</g>
		<g id="Particle_76_">
			<polygon fill="#4AA0C7" points="188.611,60.479 187.261,60.601 187.127,59.246 188.493,59.118 			"/>
			<polygon fill="#4AA0C7" points="187.122,59.262 185.768,59.394 185.634,58.031 187,57.905 			"/>
			<polygon fill="#4AA0C7" points="189.824,59.013 188.467,59.146 188.334,57.783 189.703,57.66 			"/>
			<polygon fill="#4AA0C7" points="190.08,61.697 188.715,61.821 188.589,60.465 189.949,60.334 			"/>
			<polygon fill="#4AA0C7" points="187.387,61.958 186.034,62.083 185.902,60.726 187.266,60.595 			"/>
		</g>
		<g id="Particle_75_">
			<polygon fill="#4AA0C7" points="167.301,100.263 167.408,98.865 168.806,98.979 168.698,100.371 			"/>
			<polygon fill="#4AA0C7" points="168.771,99.033 168.89,97.636 170.288,97.75 170.169,99.141 			"/>
			<polygon fill="#4AA0C7" points="168.535,101.791 168.642,100.394 170.041,100.508 169.933,101.898 			"/>
			<polygon fill="#4AA0C7" points="165.783,101.522 165.901,100.128 167.298,100.238 167.179,101.631 			"/>
			
				<rect x="166.058" y="97.427" transform="matrix(-0.0801 0.9968 -0.9968 -0.0801 277.9269 -60.2368)" fill="#4AA0C7" width="1.402" height="1.398"/>
		</g>
		<g id="Particle_74_">
			<polygon fill="#4AA0C7" points="161.503,89.099 160.816,87.828 162.081,87.146 162.762,88.412 			"/>
			<polygon fill="#4AA0C7" points="162.074,87.186 161.391,85.924 162.66,85.24 163.347,86.505 			"/>
			<polygon fill="#4AA0C7" points="163.444,89.724 162.757,88.453 164.024,87.778 164.703,89.042 			"/>
			<polygon fill="#4AA0C7" points="160.891,91.099 160.203,89.832 161.468,89.148 162.149,90.421 			"/>
			<polygon fill="#4AA0C7" points="159.596,88.553 158.916,87.287 160.187,86.603 160.862,87.874 			"/>
		</g>
		<g id="Particle_73_">
			<polygon fill="#4AA0C7" points="200.702,150.842 200.04,150.124 200.758,149.48 201.414,150.191 			"/>
			<polygon fill="#4AA0C7" points="200.76,149.49 200.107,148.779 200.817,148.122 201.482,148.835 			"/>
			<polygon fill="#4AA0C7" points="202.049,150.939 201.405,150.228 202.115,149.577 202.76,150.289 			"/>
			<polygon fill="#4AA0C7" points="200.651,152.221 200.008,151.511 200.718,150.857 201.364,151.577 			"/>
			<polygon fill="#4AA0C7" points="199.325,150.803 198.683,150.092 199.395,149.437 200.038,150.148 			"/>
		</g>
		<g id="Particle_72_">
			<polygon fill="#4AA0C7" points="71.641,204.055 57.043,200.141 59.435,191.185 74.033,195.093 			"/>
			<polygon fill="#4AA0C7" points="67.962,206.205 59.238,203.883 63.16,189.208 71.887,191.534 			"/>
		</g>
		<g id="Particle_71_">
			<polygon fill="#4AA0C7" points="109.339,111.499 94.443,108.982 95.982,99.837 110.883,102.347 			"/>
			<polygon fill="#4AA0C7" points="105.895,113.925 96.994,112.424 99.511,97.451 108.423,98.949 			"/>
		</g>
		<g id="Particle_70_">
			<polygon fill="#4AA0C7" points="164.723,219.291 157.494,217.357 158.69,212.93 165.913,214.865 			"/>
			
				<rect x="159.494" y="212.346" transform="matrix(0.9662 0.2578 -0.2578 0.9662 61.1791 -34.3888)" fill="#4AA0C7" width="4.47" height="7.526"/>
		</g>
		<g id="Particle_69_">
			
				<rect x="93.124" y="228.88" transform="matrix(0.9601 -0.2798 0.2798 0.9601 -60.8824 36.4931)" fill="#4AA0C7" width="8.507" height="5.222"/>
			<polygon fill="#4AA0C7" points="101.051,234.932 96.166,236.354 93.769,228.153 98.658,226.731 			"/>
		</g>
		<g id="Particle_68_">
			<polygon fill="#4AA0C7" points="141.523,91.043 137.454,86.616 140.172,84.122 144.242,88.542 			"/>
			<polygon fill="#4AA0C7" points="139.837,90.973 137.412,88.325 141.853,84.233 144.289,86.881 			"/>
		</g>
		<g id="Particle_67_">
			
				<rect x="236.497" y="101.211" transform="matrix(0.9119 -0.4104 0.4104 0.9119 -21.4181 108.017)" fill="#4AA0C7" width="8.755" height="5.365"/>
			<polygon fill="#4AA0C7" points="245.088,106.819 240.321,108.972 236.693,100.955 241.477,98.803 			"/>
		</g>
		<g id="Particle_66_">
			<polygon fill="#4AA0C7" points="225.474,76.382 216.46,78.723 215.031,73.195 224.026,70.856 			"/>
			<polygon fill="#4AA0C7" points="224.115,78.61 218.736,80.01 216.38,70.957 221.767,69.558 			"/>
		</g>
		<g id="Particle_65_">
			<polygon fill="#4AA0C7" points="246.225,50.99 239.629,55.788 236.672,51.732 243.268,46.937 			"/>
			<polygon fill="#4AA0C7" points="245.911,53.255 241.961,56.128 237.133,49.496 241.083,46.617 			"/>
		</g>
		<g id="Particle_64_">
			<polygon fill="#4AA0C7" points="86.626,155.777 80.963,155.301 81.443,149.648 87.1,150.116 			"/>
			<polygon fill="#4AA0C7" points="81.494,149.621 79.62,149.472 79.778,147.59 81.655,147.744 			"/>
			<polygon fill="#4AA0C7" points="80.867,157.175 78.988,157.025 79.149,155.14 81.024,155.299 			"/>
			<polygon fill="#4AA0C7" points="88.353,157.743 86.479,157.582 86.637,155.711 88.514,155.86 			"/>
			
				<rect x="87.2" y="148.381" transform="matrix(0.9963 0.086 -0.086 0.9963 13.1677 -7.0269)" fill="#4AA0C7" width="1.891" height="1.888"/>
		</g>
		<g id="Particle_63_">
			<polygon fill="#4AA0C7" points="123.193,189.807 115.649,188.7 116.746,181.161 124.287,182.263 			"/>
			
				<rect x="114.426" y="178.518" transform="matrix(0.9898 0.1425 -0.1425 0.9898 26.8053 -14.6539)" fill="#4AA0C7" width="2.532" height="2.53"/>
			
				<rect x="112.91" y="188.485" transform="matrix(0.9897 0.1431 -0.1431 0.9897 28.3215 -14.3829)" fill="#4AA0C7" width="2.525" height="2.517"/>
			<polygon fill="#4AA0C7" points="125.257,192.65 122.759,192.29 123.12,189.788 125.619,190.159 			"/>
			
				<rect x="124.397" y="179.98" transform="matrix(0.9895 0.1445 -0.1445 0.9895 27.5005 -16.2513)" fill="#4AA0C7" width="2.518" height="2.524"/>
		</g>
		<g id="Particle_62_">
			<polygon fill="#4AA0C7" points="192.172,201.327 194.934,195.937 200.318,198.711 197.55,204.088 			"/>
			<polygon fill="#4AA0C7" points="200.242,198.704 201.159,196.925 202.937,197.835 202.025,199.615 			"/>
			<polygon fill="#4AA0C7" points="193.131,195.079 194.042,193.28 195.82,194.208 194.91,195.988 			"/>
			<polygon fill="#4AA0C7" points="189.458,202.14 190.368,200.36 192.165,201.27 191.236,203.057 			"/>
			<polygon fill="#4AA0C7" points="196.577,205.889 197.488,204.092 199.284,205.021 198.355,206.8 			"/>
		</g>
		<g id="Particle_61_">
			<polygon fill="#4AA0C7" points="147.409,255.838 142.145,255.368 142.625,250.103 147.89,250.572 			"/>
			<polygon fill="#4AA0C7" points="142.687,250.052 140.941,249.889 141.104,248.162 142.839,248.306 			"/>
			<polygon fill="#4AA0C7" points="142.042,257.043 140.297,256.92 140.457,255.153 142.196,255.314 			"/>
			<polygon fill="#4AA0C7" points="148.95,257.702 147.203,257.539 147.366,255.812 149.113,255.956 			"/>
			<polygon fill="#4AA0C7" points="149.571,250.759 147.823,250.6 147.986,248.87 149.734,249.015 			"/>
		</g>
		<g id="Particle_60_">
			
				<rect x="204.583" y="246.857" transform="matrix(0.9923 0.1239 -0.1239 0.9923 32.4424 -23.6945)" fill="#4AA0C7" width="4.336" height="4.337"/>
			
				<rect x="203.533" y="245.106" transform="matrix(0.9922 0.1249 -0.1249 0.9922 32.2955 -23.5813)" fill="#4AA0C7" width="1.431" height="1.43"/>
			
				<rect x="202.799" y="250.812" transform="matrix(0.9923 0.1242 -0.1242 0.9923 32.828 -23.3367)" fill="#4AA0C7" width="1.431" height="1.431"/>
			
				<rect x="208.514" y="251.503" transform="matrix(0.9922 0.1248 -0.1248 0.9922 33.1216 -24.1458)" fill="#4AA0C7" width="1.432" height="1.431"/>
			
				<rect x="209.147" y="245.835" transform="matrix(0.9923 0.1242 -0.1242 0.9923 32.237 -24.1489)" fill="#4AA0C7" width="1.431" height="1.45"/>
		</g>
		<g id="Particle_59_">
			<polygon fill="#4AA0C7" points="182.084,174.972 172.843,179.518 168.295,170.261 177.536,165.729 			"/>
			<polygon fill="#4AA0C7" points="168.315,170.261 165.255,171.766 163.751,168.713 166.809,167.199 			"/>
			<polygon fill="#4AA0C7" points="174.389,182.495 171.336,184.007 169.823,180.942 172.883,179.44 			"/>
			
				<rect x="182.735" y="174.046" transform="matrix(0.8982 -0.4395 0.4395 0.8982 -58.4778 98.9558)" fill="#4AA0C7" width="3.415" height="3.414"/>
			<polygon fill="#4AA0C7" points="180.632,164.288 177.578,165.791 176.065,162.737 179.128,161.223 			"/>
		</g>
		<g id="Particle_58_">
			<polygon fill="#4AA0C7" points="286.512,57.225 280.446,57.805 279.848,51.718 285.941,51.143 			"/>
			<polygon fill="#4AA0C7" points="279.939,51.622 277.903,51.814 277.715,49.803 279.743,49.606 			"/>
			
				<rect x="278.528" y="57.747" transform="matrix(0.9954 -0.0959 0.0959 0.9954 -4.3483 27.0936)" fill="#4AA0C7" width="2.041" height="2.028"/>
			<polygon fill="#4AA0C7" points="288.734,58.926 286.704,59.125 286.515,57.109 288.546,56.911 			"/>
			<polygon fill="#4AA0C7" points="287.958,50.914 285.961,51.103 285.772,49.087 287.769,48.896 			"/>
		</g>
		<g id="Particle_57_">
			<polygon fill="#4AA0C7" points="170.84,131.692 164.005,127.197 168.506,120.362 175.336,124.867 			"/>
			
				<rect x="166.826" y="117.215" transform="matrix(0.8348 0.5505 -0.5505 0.8348 93.0468 -72.9991)" fill="#4AA0C7" width="2.708" height="2.705"/>
			
				<rect x="160.827" y="126.237" transform="matrix(0.8359 0.5489 -0.5489 0.8359 96.6457 -68.0811)" fill="#4AA0C7" width="2.713" height="2.713"/>
			<polygon fill="#4AA0C7" points="171.617,135.395 169.348,133.903 170.841,131.64 173.109,133.132 			"/>
			<polygon fill="#4AA0C7" points="177.569,126.355 175.305,124.864 176.797,122.595 179.056,124.087 			"/>
		</g>
		<g id="Particle_110_">
			<polygon fill="#4AA0C7" points="262.954,117.768 261.653,115.301 264.122,113.982 265.422,116.448 			"/>
			<polygon fill="#4AA0C7" points="264.056,114.053 262.76,111.585 265.225,110.272 266.521,112.737 			"/>
			<polygon fill="#4AA0C7" points="266.685,118.905 265.387,116.44 267.854,115.122 269.152,117.586 			"/>
			<polygon fill="#4AA0C7" points="261.824,121.477 260.488,119.007 262.954,117.691 264.29,120.159 			"/>
			<polygon fill="#4AA0C7" points="259.193,116.605 257.857,114.141 260.323,112.822 261.659,115.288 			"/>
		</g>
		<g id="Particle_109_">
			<polygon fill="#4AA0C7" points="343.472,215.521 345.358,213.619 347.28,215.486 345.393,217.408 			"/>
			<polygon fill="#4AA0C7" points="347.193,215.488 349.081,213.566 351.003,215.435 349.115,217.357 			"/>
			<polygon fill="#4AA0C7" points="343.587,219.294 345.436,217.379 347.358,219.26 345.51,221.182 			"/>
			<polygon fill="#4AA0C7" points="339.738,215.588 341.611,213.667 343.509,215.554 341.66,217.457 			"/>
			<polygon fill="#4AA0C7" points="343.5,211.737 345.387,209.824 347.309,211.704 345.422,213.625 			"/>
		</g>
		<g id="Particle_108_">
			<rect x="291.652" y="220.768" fill="#4AA0C7" width="2.188" height="2.17"/>
			<rect x="293.813" y="218.643" fill="#4AA0C7" width="2.154" height="2.15"/>
			<rect x="293.765" y="222.933" fill="#4AA0C7" width="2.184" height="2.153"/>
			<rect x="289.516" y="222.903" fill="#4AA0C7" width="2.146" height="2.171"/>
			<rect x="289.506" y="218.626" fill="#4AA0C7" width="2.152" height="2.154"/>
		</g>
		<g id="Particle_107_">
			<polygon fill="#4AA0C7" points="257.341,180.274 258.017,179.187 259.104,179.851 258.428,180.95 			"/>
			<polygon fill="#4AA0C7" points="259.087,179.87 259.763,178.765 260.849,179.439 260.175,180.526 			"/>
			<polygon fill="#4AA0C7" points="257.726,182.138 258.401,181.044 259.485,181.719 258.848,182.806 			"/>
			<polygon fill="#4AA0C7" points="255.632,180.793 256.293,179.706 257.378,180.369 256.736,181.471 			"/>
			<polygon fill="#4AA0C7" points="256.957,178.647 257.632,177.542 258.72,178.217 258.046,179.304 			"/>
		</g>
		<g id="Particle_106_">
			<polygon fill="#4AA0C7" points="338.226,124.841 338.896,123.563 340.167,124.223 339.535,125.504 			"/>
			<polygon fill="#4AA0C7" points="340.167,124.23 340.835,122.952 342.103,123.608 341.472,124.888 			"/>
			<polygon fill="#4AA0C7" points="338.848,126.797 339.505,125.508 340.786,126.176 340.117,127.45 			"/>
			<polygon fill="#4AA0C7" points="336.341,125.48 336.987,124.191 338.29,124.859 337.623,126.134 			"/>
			<polygon fill="#4AA0C7" points="337.596,122.946 338.228,121.663 339.533,122.325 338.862,123.602 			"/>
		</g>
		<g id="Particle_105_">
			<polygon fill="#4AA0C7" points="303.037,138.604 303.604,137.633 304.595,138.22 304.028,139.191 			"/>
			<polygon fill="#4AA0C7" points="304.579,138.22 305.147,137.247 306.136,137.815 305.53,138.788 			"/>
			<polygon fill="#4AA0C7" points="303.391,140.168 303.96,139.195 304.951,139.77 304.381,140.744 			"/>
			<polygon fill="#4AA0C7" points="301.486,139.013 302.093,138.037 303.047,138.607 302.479,139.587 			"/>
			<polygon fill="#4AA0C7" points="302.646,137.077 303.213,136.098 304.205,136.672 303.6,137.649 			"/>
		</g>
		<g id="Particle_104_">
			<polygon fill="#4AA0C7" points="419.108,240.423 421.278,238.813 422.87,240.978 420.711,242.569 			"/>
			<polygon fill="#4AA0C7" points="422.821,240.969 424.981,239.375 426.575,241.522 424.415,243.115 			"/>
			<polygon fill="#4AA0C7" points="418.487,244.163 420.632,242.569 422.226,244.732 420.079,246.326 			"/>
			
				<rect x="415.966" y="238.811" transform="matrix(-0.805 0.5933 -0.5933 -0.805 895.7168 185.8957)" fill="#4AA0C7" width="2.682" height="2.685"/>
			<polygon fill="#4AA0C7" points="419.664,236.703 421.823,235.11 423.416,237.274 421.271,238.868 			"/>
		</g>
		<g id="Particle_103_">
			<polygon fill="#4AA0C7" points="453.43,207.78 453.302,206.429 454.658,206.292 454.771,207.661 			"/>
			<polygon fill="#4AA0C7" points="454.612,206.362 454.497,205.012 455.848,204.874 455.969,206.244 			"/>
			<polygon fill="#4AA0C7" points="454.813,209.148 454.688,207.78 456.042,207.661 456.155,209.011 			"/>
			<polygon fill="#4AA0C7" points="452.208,209.274 452.072,207.924 453.432,207.784 453.558,209.153 			"/>
			<polygon fill="#4AA0C7" points="451.924,206.539 451.8,205.188 453.155,205.051 453.293,206.42 			"/>
		</g>
		<g id="Particle_102_">
			<polygon fill="#4AA0C7" points="428.685,178.216 429.96,177.656 430.509,178.943 429.233,179.498 			"/>
			<polygon fill="#4AA0C7" points="430.452,179.001 431.724,178.439 432.275,179.727 431.002,180.276 			"/>
			<polygon fill="#4AA0C7" points="427.962,180.051 429.236,179.487 429.784,180.778 428.509,181.325 			"/>
			<polygon fill="#4AA0C7" points="426.854,177.437 428.144,176.889 428.691,178.164 427.405,178.729 			"/>
			<polygon fill="#4AA0C7" points="429.417,176.4 430.702,175.852 431.264,177.139 429.966,177.693 			"/>
		</g>
		<g id="Particle_101_">
			<polygon fill="#4AA0C7" points="435.764,167.914 436.579,166.714 437.772,167.512 436.971,168.717 			"/>
			<polygon fill="#4AA0C7" points="437.719,167.534 438.534,166.344 439.741,167.143 438.923,168.336 			"/>
			<polygon fill="#4AA0C7" points="436.124,169.897 436.94,168.705 438.138,169.507 437.331,170.694 			"/>
			<polygon fill="#4AA0C7" points="433.778,168.363 434.564,167.157 435.763,167.955 434.983,169.16 			"/>
			<polygon fill="#4AA0C7" points="435.381,165.911 436.183,164.706 437.367,165.503 436.587,166.708 			"/>
		</g>
		<g id="Particle_100_">
			<polygon fill="#4AA0C7" points="372.573,179.763 373.085,178.948 373.886,179.469 373.363,180.283 			"/>
			
				<rect x="374.039" y="178.864" transform="matrix(-0.5411 0.841 -0.841 -0.5411 727.9951 -38.5708)" fill="#4AA0C7" width="0.966" height="0.965"/>
			<polygon fill="#4AA0C7" points="372.828,181.109 373.351,180.289 374.177,180.804 373.654,181.63 			"/>
			
				<rect x="371.398" y="179.392" transform="matrix(-0.539 0.8423 -0.8423 -0.539 723.827 -36.4233)" fill="#4AA0C7" width="0.966" height="0.967"/>
			
				<rect x="372.456" y="177.804" transform="matrix(-0.5416 0.8407 -0.8407 -0.5416 724.7838 -38.6771)" fill="#4AA0C7" width="0.965" height="0.967"/>
		</g>
		<g id="Particle_99_">
			<rect x="310.905" y="63.795" fill="#4AA0C7" width="9.284" height="15.109"/>
			<rect x="307.872" y="66.829" fill="#4AA0C7" width="15.178" height="9.037"/>
		</g>
		<g id="Particle_98_">
			
				<rect x="363.779" y="147.121" transform="matrix(0.0945 0.9955 -0.9955 0.0945 487.3193 -232.247)" fill="#4AA0C7" width="15.105" height="9.291"/>
			<polygon fill="#4AA0C7" points="364.034,157.091 363.177,148.097 378.303,146.67 379.162,155.657 			"/>
		</g>
		<g id="Particle_97_">
			<rect x="318.427" y="161.354" fill="#4AA0C7" width="4.591" height="7.478"/>
			<rect x="316.907" y="162.855" fill="#4AA0C7" width="7.528" height="4.477"/>
		</g>
		<g id="Particle_96_">
			<polygon fill="#4AA0C7" points="310.017,109.811 305.609,102.544 310.062,99.832 314.468,107.109 			"/>
			<polygon fill="#4AA0C7" points="307.696,109.243 305.05,104.89 312.349,100.458 314.987,104.809 			"/>
		</g>
		<g id="Particle_95_">
			<polygon fill="#4AA0C7" points="403.716,158.909 408.133,154.846 410.622,157.563 406.205,161.626 			"/>
			<polygon fill="#4AA0C7" points="403.794,157.173 406.45,154.747 410.557,159.189 407.911,161.623 			"/>
		</g>
		<g id="Particle_94_">
			<polygon fill="#4AA0C7" points="424.813,127.406 421.207,119.422 426.102,117.22 429.716,125.195 			"/>
			<polygon fill="#4AA0C7" points="422.573,126.484 420.433,121.717 428.45,118.107 430.604,122.871 			"/>
		</g>
		<g id="Particle_93_">
			<polygon fill="#4AA0C7" points="434.294,215.482 428,208.621 432.213,204.763 438.505,211.624 			"/>
			<polygon fill="#4AA0C7" points="431.661,215.504 427.892,211.401 434.808,205.094 438.551,209.184 			"/>
		</g>
		<g id="Particle_92_">
			<polygon fill="#4AA0C7" points="459.255,230.264 454.448,223.666 458.5,220.71 463.303,227.327 			"/>
			<polygon fill="#4AA0C7" points="456.865,229.847 454.007,225.902 460.647,221.088 463.511,225.02 			"/>
		</g>
		<g id="Particle_91_">
			<polygon fill="#4AA0C7" points="354.448,82.194 353.447,76.6 359.049,75.6 360.024,81.192 			"/>
			<polygon fill="#4AA0C7" points="359.082,75.649 358.744,73.792 360.609,73.458 360.938,75.312 			"/>
			<polygon fill="#4AA0C7" points="351.644,76.998 351.313,75.142 353.145,74.813 353.48,76.666 			"/>
			
				<rect x="352.799" y="82.353" transform="matrix(0.1784 0.984 -0.984 0.1784 372.5879 -279.6261)" fill="#4AA0C7" width="1.883" height="1.896"/>
			<polygon fill="#4AA0C7" points="360.397,83.051 360.075,81.197 361.921,80.861 362.259,82.72 			"/>
		</g>
		<g id="Particle_90_">
			
				<rect x="282.543" y="131.831" transform="matrix(0.1163 0.9932 -0.9932 0.1163 387.7657 -164.5439)" fill="#4AA0C7" width="7.616" height="7.616"/>
			<polygon fill="#4AA0C7" points="289.633,131.425 289.325,128.921 291.821,128.621 292.129,131.129 			"/>
			<polygon fill="#4AA0C7" points="279.659,132.646 279.353,130.143 281.887,129.842 282.155,132.352 			"/>
			<polygon fill="#4AA0C7" points="280.819,142.622 280.513,140.108 283.01,139.818 283.316,142.322 			"/>
			<polygon fill="#4AA0C7" points="290.78,141.439 290.512,138.936 293.007,138.636 293.313,141.145 			"/>
		</g>
		<g id="Particle_89_">
			<polygon fill="#4AA0C7" points="293.326,187.382 297.503,182.989 301.881,187.167 297.719,191.56 			"/>
			<polygon fill="#4AA0C7" points="301.858,187.171 303.244,185.708 304.726,187.092 303.338,188.537 			"/>
			<polygon fill="#4AA0C7" points="296.034,181.592 297.42,180.147 298.868,181.522 297.521,182.979 			"/>
			<polygon fill="#4AA0C7" points="290.529,187.41 291.915,185.958 293.362,187.347 291.978,188.791 			"/>
			<polygon fill="#4AA0C7" points="296.349,192.973 297.736,191.51 299.18,192.896 297.793,194.341 			"/>
		</g>
		<g id="Particle_88_">
			<polygon fill="#4AA0C7" points="257.321,155.382 256.429,150.177 261.651,149.275 262.544,154.49 			"/>
			<polygon fill="#4AA0C7" points="261.578,149.324 261.308,147.601 263,147.304 263.31,149.035 			"/>
			<polygon fill="#4AA0C7" points="254.717,150.477 254.429,148.765 256.16,148.461 256.447,150.188 			"/>
			<polygon fill="#4AA0C7" points="255.888,157.346 255.58,155.628 257.313,155.326 257.621,157.049 			"/>
			<polygon fill="#4AA0C7" points="262.776,156.276 262.466,154.561 264.198,154.252 264.509,155.985 			"/>
		</g>
		<g id="Particle_87_">
			<polygon fill="#4AA0C7" points="277.359,213.413 276.784,209.131 281.062,208.541 281.637,212.837 			"/>
			<polygon fill="#4AA0C7" points="280.987,208.575 280.758,207.156 282.218,206.966 282.408,208.384 			"/>
			<polygon fill="#4AA0C7" points="275.313,209.368 275.123,207.949 276.544,207.758 276.772,209.177 			"/>
			
				<rect x="275.992" y="213.532" transform="matrix(0.133 0.9911 -0.9911 0.133 452.2462 -88.4984)" fill="#4AA0C7" width="1.432" height="1.433"/>
			<polygon fill="#4AA0C7" points="281.795,214.309 281.604,212.881 283.023,212.691 283.214,214.109 			"/>
		</g>
		<g id="Particle_86_">
			<polygon fill="#4AA0C7" points="387.36,211.387 382.809,202.144 392.057,197.598 396.583,206.855 			"/>
			<polygon fill="#4AA0C7" points="392.04,197.663 390.545,194.597 393.59,193.098 395.109,196.164 			"/>
			<polygon fill="#4AA0C7" points="379.816,203.583 378.295,200.531 381.379,199.028 382.861,202.075 			"/>
			<polygon fill="#4AA0C7" points="385.82,215.858 384.324,212.792 387.385,211.29 388.892,214.356 			"/>
			<polygon fill="#4AA0C7" points="398.034,209.849 396.528,206.784 399.573,205.285 401.093,208.35 			"/>
		</g>
		<g id="Particle_85_">
			
				<rect x="460.107" y="250.081" transform="matrix(0.5498 0.8353 -0.8353 0.5498 419.9429 -272.9149)" fill="#4AA0C7" width="6.106" height="6.103"/>
			<polygon fill="#4AA0C7" points="463.893,248.915 462.791,247.227 464.484,246.107 465.599,247.814 			"/>
			<polygon fill="#4AA0C7" points="457.145,253.366 456.019,251.679 457.711,250.558 458.818,252.246 			"/>
			<polygon fill="#4AA0C7" points="461.674,260.115 460.549,258.409 462.258,257.307 463.358,258.974 			"/>
			<polygon fill="#4AA0C7" points="468.287,255.657 467.186,253.969 468.88,252.848 469.995,254.536 			"/>
		</g>
		<g id="Particle_84_">
			<polygon fill="#4AA0C7" points="379.308,107.43 381.903,99.667 389.658,102.25 387.063,110.018 			"/>
			<polygon fill="#4AA0C7" points="389.664,102.28 390.524,99.701 393.075,100.562 392.238,103.129 			"/>
			<polygon fill="#4AA0C7" points="379.331,98.782 380.193,96.213 382.784,97.064 381.923,99.645 			"/>
			<polygon fill="#4AA0C7" points="375.905,109.146 376.755,106.573 379.321,107.425 378.46,110.003 			"/>
			<polygon fill="#4AA0C7" points="386.138,112.564 386.999,109.982 389.547,110.839 388.688,113.412 			"/>
		</g>
	</g>
	<g id="Fishing_Rod_1_">
		<rect x="191.68" y="246.281" fill="#7FBCD7" width="16.318" height="16.317"/>
		<rect x="205.804" y="233.104" fill="#7FBCD7" width="15.608" height="15.009"/>
		<rect x="219.956" y="219.023" fill="#7FBCD7" width="16.13" height="18.074"/>
		<rect x="233.215" y="204.876" fill="#7FBCD7" width="15.16" height="16.076"/>
		<rect x="247.241" y="190.871" fill="#7FBCD7" width="15.157" height="14.74"/>
		<rect x="261.389" y="177.644" fill="#7FBCD7" width="14.944" height="15.417"/>
		<rect x="275.555" y="163.5" fill="#7FBCD7" width="14.851" height="16.002"/>
		<rect x="289.634" y="149.488" fill="#7FBCD7" width="14.94" height="15.476"/>
		<rect x="303.762" y="135.341" fill="#7FBCD7" width="28.16" height="15.138"/>
		<rect x="316.873" y="175.11" fill="#7FBCD7" width="15.172" height="85.324"/>
		<rect x="303.691" y="260.379" fill="#7FBCD7" width="13.094" height="28.296"/>
		<rect x="289.683" y="288.675" fill="#7FBCD7" width="14.009" height="14.244"/>
		<rect x="261.301" y="316.212" fill="#7FBCD7" width="14.125" height="15.016"/>
		<rect x="275.426" y="316.195" fill="#7FBCD7" width="14.126" height="15.008"/>
		<rect x="261.301" y="301.268" fill="#7FBCD7" width="14.125" height="15.011"/>
		<rect x="289.554" y="301.268" fill="#7FBCD7" width="14.14" height="14.928"/>
		<rect x="150.271" y="315.625" fill="#3D83A3" width="27.244" height="15.588"/>
		<rect x="177.069" y="302.033" fill="#3D83A3" width="14.665" height="14.008"/>
		<rect x="190.422" y="288.317" fill="#3D83A3" width="15.902" height="14.662"/>
		<rect x="205.757" y="301.46" fill="#3D83A3" width="27.383" height="14.624"/>
		<rect x="230.328" y="274.547" fill="#3D83A3" width="16.905" height="28.354"/>
		<rect x="219.296" y="259.226" fill="#3D83A3" width="14.821" height="16.27"/>
		<rect x="231.601" y="245.646" fill="#3D83A3" width="15.628" height="14.874"/>
		<rect x="245.527" y="232.045" fill="#3D83A3" width="15.837" height="14.357"/>
		<rect x="259.109" y="218.346" fill="#3D83A3" width="16.368" height="14.889"/>
		<rect x="273.677" y="203.693" fill="#3D83A3" width="15.835" height="15.301"/>
		<rect x="287.173" y="189.341" fill="#3D83A3" width="16.43" height="15.716"/>
		<rect x="299.358" y="177.355" fill="#3D83A3" width="17.553" height="13.377"/>
		<rect x="315.111" y="149.313" fill="#3D83A3" width="17.025" height="28.575"/>
		<rect x="177.884" y="274.937" fill="#4AA0C7" width="28.279" height="13.724"/>
		<rect x="164.713" y="288.563" fill="#4AA0C7" width="26.717" height="13.724"/>
		<rect x="150.448" y="302.371" fill="#4AA0C7" width="27.019" height="13.725"/>
		<rect x="191.709" y="260.358" fill="#4AA0C7" width="28.277" height="17.569"/>
		<rect x="164.586" y="296" fill="#4AA0C7" width="12.826" height="11.752"/>
		<rect x="177.894" y="286.564" fill="#4AA0C7" width="13.562" height="3.856"/>
		<rect x="205.835" y="246.354" fill="#4AA0C7" width="28.28" height="13.742"/>
		<rect x="205.832" y="258.041" fill="#4AA0C7" width="14.14" height="5.086"/>
		<rect x="219.991" y="233.215" fill="#4AA0C7" width="27.063" height="13.148"/>
		<rect x="219.972" y="244.417" fill="#4AA0C7" width="14.175" height="3.608"/>
		<rect x="234.115" y="219.037" fill="#4AA0C7" width="27.289" height="14.14"/>
		<rect x="234.21" y="231.34" fill="#4AA0C7" width="12.81" height="3.255"/>
		<rect x="247.241" y="204.933" fill="#4AA0C7" width="28.175" height="14.097"/>
		<rect x="247.194" y="217.713" fill="#4AA0C7" width="14.208" height="2.861"/>
		<rect x="261.366" y="190.817" fill="#4AA0C7" width="28.414" height="14.231"/>
		<rect x="261.366" y="202.997" fill="#4AA0C7" width="14.043" height="3.431"/>
		<rect x="275.474" y="177.744" fill="#4AA0C7" width="28.129" height="13.143"/>
		<rect x="275.474" y="188.43" fill="#4AA0C7" width="14.344" height="4.844"/>
		<rect x="289.683" y="163.592" fill="#4AA0C7" width="27.365" height="14.085"/>
		<rect x="289.669" y="176.179" fill="#4AA0C7" width="13.088" height="2.466"/>
		<rect x="303.702" y="149.437" fill="#4AA0C7" width="13.35" height="18.777"/>
		<rect x="206.008" y="274.594" fill="#4AA0C7" width="27.165" height="28.373"/>
	</g>
</g>
</svg>
