<?xml version="1.0" encoding="UTF-8" standalone="no"?>
<!-- Created with Inkscape (http://www.inkscape.org/) -->

<svg
   xmlns:dc="http://purl.org/dc/elements/1.1/"
   xmlns:cc="http://creativecommons.org/ns#"
   xmlns:rdf="http://www.w3.org/1999/02/22-rdf-syntax-ns#"
   xmlns:svg="http://www.w3.org/2000/svg"
   xmlns="http://www.w3.org/2000/svg"
   xmlns:sodipodi="http://sodipodi.sourceforge.net/DTD/sodipodi-0.dtd"
   xmlns:inkscape="http://www.inkscape.org/namespaces/inkscape"
   width="210mm"
   height="297mm"
   viewBox="0 0 744.09448819 1052.3622047"
   id="svg2"
   version="1.1"
   inkscape:version="0.91 r13725"
   sodipodi:docname="GM4_Share-Hearts.svg">
  <defs
     id="defs4" />
  <sodipodi:namedview
     id="base"
     pagecolor="#ffffff"
     bordercolor="#666666"
     borderopacity="1.0"
     inkscape:pageopacity="0.0"
     inkscape:pageshadow="2"
     inkscape:zoom="0.49497475"
     inkscape:cx="32.775117"
     inkscape:cy="197.55891"
     inkscape:document-units="px"
     inkscape:current-layer="layer1"
     showgrid="false"
     inkscape:window-width="1920"
     inkscape:window-height="1017"
     inkscape:window-x="-8"
     inkscape:window-y="41"
     inkscape:window-maximized="1" />
  <metadata
     id="metadata7">
    <rdf:RDF>
      <cc:Work
         rdf:about="">
        <dc:format>image/svg+xml</dc:format>
        <dc:type
           rdf:resource="http://purl.org/dc/dcmitype/StillImage" />
        <dc:title></dc:title>
      </cc:Work>
    </rdf:RDF>
  </metadata>
  <g
     inkscape:label="Layer 1"
     inkscape:groupmode="layer"
     id="layer1"
     style="display:inline">
    <path
       style="opacity:1;fill:#4aa0c7;fill-opacity:1;stroke:none;stroke-width:43.20000076;stroke-linecap:round;stroke-linejoin:round;stroke-miterlimit:4;stroke-dasharray:none;stroke-opacity:1"
       d="m 348.90171,874.56824 c -0.14184,-39.79855 -1.0219,-78.8148 -1.9557,-86.70281 l -1.69781,-14.34181 -26.72794,-0.74312 -26.72793,-0.74314 0,-16.49424 c 0,-9.07185 -0.74621,-21.93842 -1.65824,-28.59241 l -1.65824,-12.09817 -25.5677,0 c -14.06223,0 -26.11,-0.88006 -26.7728,-1.9557 -0.66281,-1.07563 -2.05665,-13.98326 -3.09742,-28.68363 l -1.8923,-26.72793 59.00698,0 59.00699,0 0,-84.74711 0,-84.74709 -27.37984,0 -27.37982,0 0,-27.37984 0,-27.37983 -27.37983,0 -27.37984,0 0,-27.37983 0,-27.37984 -27.37983,0 -27.37983,0 0,-27.37983 0,-27.37982 -26.07604,0 -26.07603,0 0,-82.1395 0,-82.1395 19.38727,0 c 10.663,0 22.39722,-1.14438 26.07603,-2.54306 6.53378,-2.48414 6.68877,-3.11853 6.68877,-27.37984 l 0,-24.83677 28.99511,0 28.99511,0 -1.86621,-27.379834 -1.86622,-27.37984 56.31441,0 56.31439,0 0,27.37984 0,27.379834 26.07603,0 26.07603,0 0,-27.379834 0,-27.37984 54.75967,0 54.75967,0 0,27.37984 0,27.379834 28.68362,0 28.68364,0 0,27.37983 0,27.37984 26.07603,0 26.07603,0 0,82.1395 0,82.1395 -26.07603,0 -26.07603,0 0,27.37982 0,27.37983 -27.37984,0 -27.37983,0 0,27.37984 0,27.37983 -27.37982,0 -27.37985,0 0,27.37983 0,27.37984 -27.37982,0 -27.37983,0 0,27.37983 0,27.37983 27.37983,0 27.37982,0 0,27.37984 0,27.37982 -26.07602,0 -26.07603,0 -0.0767,43.67736 c -0.0422,24.02254 -0.77345,63.29236 -1.62499,87.2663 l -1.54823,43.58894 29.65671,0.74032 29.65671,0.7403 0.70179,58.01916 0.70178,58.01917 -28.3703,0 -28.37031,0 -1.64435,13.6899 c -0.9044,7.5295 -1.65456,20.4371 -1.66702,28.6836 l -0.0227,14.9938 -28.68364,0 -28.68363,0 -0.25789,-72.36101 z"
       id="path4182"
       inkscape:connector-curvature="0" />
  </g>
  <g
     inkscape:groupmode="layer"
     id="layer2"
     inkscape:label="Layer 2"
     style="display:none" />
</svg>
