<?xml version="1.0" encoding="UTF-8" standalone="no"?>
<!-- Generator: Adobe Illustrator 16.0.0, SVG Export Plug-In . SVG Version: 6.00 Build 0)  -->

<svg
   xmlns:dc="http://purl.org/dc/elements/1.1/"
   xmlns:cc="http://creativecommons.org/ns#"
   xmlns:rdf="http://www.w3.org/1999/02/22-rdf-syntax-ns#"
   xmlns:svg="http://www.w3.org/2000/svg"
   xmlns="http://www.w3.org/2000/svg"
   xmlns:sodipodi="http://sodipodi.sourceforge.net/DTD/sodipodi-0.dtd"
   xmlns:inkscape="http://www.inkscape.org/namespaces/inkscape"
   version="1.1"
   id="Layer_1"
   x="0px"
   y="0px"
   width="612px"
   height="792px"
   viewBox="0 0 612 792"
   enable-background="new 0 0 612 792"
   xml:space="preserve"
   inkscape:version="0.91 r13725"
   sodipodi:docname="ink_spitting_squid_2.svg"><metadata
     id="metadata407"><rdf:RDF><cc:Work
         rdf:about=""><dc:format>image/svg+xml</dc:format><dc:type
           rdf:resource="http://purl.org/dc/dcmitype/StillImage" /><dc:title></dc:title></cc:Work></rdf:RDF></metadata><defs
     id="defs405" /><sodipodi:namedview
     pagecolor="#ffffff"
     bordercolor="#666666"
     borderopacity="1"
     objecttolerance="10"
     gridtolerance="10"
     guidetolerance="10"
     inkscape:pageopacity="0"
     inkscape:pageshadow="2"
     inkscape:window-width="1920"
     inkscape:window-height="1017"
     id="namedview403"
     showgrid="false"
     inkscape:zoom="1.4142136"
     inkscape:cx="178.79161"
     inkscape:cy="375.22255"
     inkscape:window-x="-8"
     inkscape:window-y="-8"
     inkscape:window-maximized="1"
     inkscape:current-layer="g5" /><g
     id="g3"
     transform="translate(47.460049,4.7460063)"><g
       id="g5"><path
         d="m 205.19184,355.73465 c 0.0197,-4.80314 -0.22111,-9.62943 0.19796,-14.399 0.14818,-1.68671 1.60683,-4.29145 2.97172,-4.67464 11.57777,-3.25187 23.23079,-6.25716 34.94748,-8.96145 4.68622,-1.0801 9.63175,-0.98517 14.377,-1.86963 3.27271,-0.60893 6.40419,-1.98076 10.10755,-3.17546 0.19333,-1.39267 0.52094,-3.7624 0.96664,-6.97723 -11.18764,0.62051 -22.08934,1.22481 -32.99104,1.82911 -1.12177,0.0625 -2.24354,0.12271 -3.36185,0.18985 -7.93229,0.47812 -7.85357,0.47117 -8.51923,-7.52827 -0.27899,-3.3468 -0.97359,-6.65887 -1.42971,-9.66995 9.24161,-8.17656 20.52997,-7.22959 31.52197,-7.99134 28.34419,-1.96455 56.66753,-4.24167 85.00246,-6.35208 6.16339,-0.45844 12.34067,-0.7467 18.35126,-1.10326 0.37855,-1.05463 0.82771,-1.64735 0.72353,-2.1162 -2.48434,-11.1888 3.34564,-16.00352 12.96234,-20.46399 25.87605,-12.00379 51.18485,-25.23239 76.67076,-38.06854 8.71025,-4.38754 17.29662,-9.02166 25.90848,-13.60252 3.0296,-1.61263 5.15159,-2.05254 8.53197,0.61819 13.21816,10.44905 26.97814,20.21509 40.52623,30.24622 8.64658,6.40303 17.26075,12.8512 25.93395,19.21718 1.01991,0.74785 2.32691,1.10441 3.8226,1.79091 0,23.41139 0.003,46.93391 -0.003,70.45875 -0.003,5.15044 -0.38317,10.32866 0.0405,15.44205 0.3913,4.71863 -1.41812,7.42987 -5.49772,9.48588 -27.91121,14.06675 -55.75647,28.26778 -83.63989,42.39241 -7.87095,3.98583 -16.14243,7.31063 -23.59084,11.96443 -5.9469,3.71725 -10.18394,2.2285 -14.66873,-1.74691 -1.82562,-1.61841 -3.67094,-3.21598 -5.48153,-4.80082 -16.90416,19.78328 -33.61617,39.37207 -50.36521,58.92845 -8.75193,10.21983 -17.26074,20.6712 -26.48036,30.45344 -4.39101,4.66074 -10.18511,7.99828 -15.25451,11.86951 -3.30628,-3.31439 -5.57877,-5.62161 -7.88483,-7.89526 -6.39376,-6.30925 -6.34167,-6.25369 -0.25816,-13.26563 6.83599,-7.87906 13.57011,-15.84608 20.29381,-23.82121 0.6726,-0.79763 0.96433,-1.91709 1.40309,-2.82817 -2.32922,-1.2688 -4.35513,-2.37205 -6.94134,-3.77977 -12.76785,11.45622 -25.8367,23.18797 -38.91596,34.90929 -2.25859,2.0236 -4.38522,4.27987 -6.92281,5.8705 -1.16229,0.72817 -3.47299,0.65987 -4.74063,-0.0208 -3.12452,-1.67976 -5.94806,-3.92331 -8.89084,-5.93648 -0.26857,-0.21765 -0.57883,-0.32646 -0.92728,-0.32531 -1.22134,-2.52023 -2.41952,-5.05087 -3.66863,-7.55605 -1.74692,-3.50888 -2.17872,-6.20275 1.70407,-9.22194 6.07773,-4.72673 11.31383,-10.51735 17.09982,-15.64116 20.08312,-17.784 40.24958,-35.47538 60.38247,-53.2015 1.41351,-1.1646 2.82817,-2.32805 4.24283,-3.4915 3.36996,-3.00761 6.73991,-6.01406 11.00011,-9.81582 -5.49543,0.25932 -9.44768,0.24311 -13.34321,0.70618 -2.31185,0.27436 -4.53456,1.30584 -6.79779,1.99812 -2.04096,-1.91709 -4.47784,-3.55981 -6.03605,-5.81262 -2.94393,-4.25672 -5.87629,-2.68346 -9.29834,-0.90298 -7.25159,3.77167 -14.63515,7.28864 -21.94347,10.95148 -14.10032,7.06405 -28.2099,14.11306 -42.24655,21.30098 -1.52464,0.7791 -2.60474,2.42645 -3.8909,3.67094 -3.49845,1.48991 -6.99922,2.98098 -10.49767,4.47205 -4.59823,2.32921 -9.19415,4.65843 -13.79238,6.9888 -3.921,2.44267 -6.53732,-0.1968 -9.27171,-2.38131 -1.12641,-3.22061 -2.38942,-6.40071 -3.31555,-9.67921 -0.40055,-1.41929 -0.72701,-3.91521 -0.0197,-4.41763 4.48015,-3.18126 9.12816,-6.18539 13.97877,-8.7635 3.99509,-2.12547 8.51691,-3.27155 12.48075,-5.44333 2.83858,-1.55589 5.20484,-5.91217 7.67298,-5.82882 6.45164,0.2188 10.60071,-3.64779 15.50456,-6.3081 3.47183,-1.54664 6.9425,-3.09327 10.41548,-4.63991 17.88356,-8.93367 35.88288,-17.64739 53.58584,-26.92605 5.67717,-2.97635 9.42568,-8.91168 16.21073,-10.80214 2.30839,-0.6425 3.19283,-4.37133 -0.45728,-6.27105 0.32067,-1.16924 0.64367,-2.33963 0.96434,-3.50887 5.14581,0.56262 5.79757,-1.83837 4.06454,-6.15297 -3.32363,0.95738 -6.44006,1.85573 -9.55302,2.75291 -3.10021,0.8231 -6.19811,1.64851 -9.29717,2.47277 -4.19421,0.73627 -8.38842,1.47139 -12.58263,2.20766 -0.42602,-0.0162 -0.85088,-0.0324 -1.2769,-0.0486 -2.71003,0.78258 -5.4178,1.56631 -8.12673,2.34889 -0.7328,-0.22342 -1.53506,-0.76868 -2.18798,-0.62513 -10.90054,2.39867 -21.78256,4.88301 -32.67037,7.34767 -3.85386,0.96665 -7.70539,1.93214 -11.55925,2.89879 -5.34029,1.05579 -10.68406,2.11157 -16.02435,3.16736 -3.0817,0.73859 -6.16108,1.47718 -9.24277,2.21692 -9.73709,2.35469 -19.47418,4.70937 -29.21243,7.06521 -7.99366,0.48506 -9.56113,-0.79763 -11.49095,-9.41873 z"
         id="path9"
         inkscape:connector-curvature="0"
         style="clip-rule:evenodd;fill:#4b9fc6;fill-rule:evenodd;opacity:1" /></g></g></svg>