<?xml version="1.0" encoding="UTF-8" standalone="no"?>
<!-- Created with Inkscape (http://www.inkscape.org/) -->

<svg
   xmlns:dc="http://purl.org/dc/elements/1.1/"
   xmlns:cc="http://creativecommons.org/ns#"
   xmlns:rdf="http://www.w3.org/1999/02/22-rdf-syntax-ns#"
   xmlns:svg="http://www.w3.org/2000/svg"
   xmlns="http://www.w3.org/2000/svg"
   xmlns:sodipodi="http://sodipodi.sourceforge.net/DTD/sodipodi-0.dtd"
   xmlns:inkscape="http://www.inkscape.org/namespaces/inkscape"
   width="210mm"
   height="297mm"
   viewBox="0 0 744.09448819 1052.3622047"
   id="svg2"
   version="1.1"
   inkscape:version="0.91 r13725"
   sodipodi:docname="heart_canisters.svg">
  <defs
     id="defs4" />
  <sodipodi:namedview
     id="base"
     pagecolor="#ffffff"
     bordercolor="#666666"
     borderopacity="1.0"
     inkscape:pageopacity="0.0"
     inkscape:pageshadow="2"
     inkscape:zoom="0.7"
     inkscape:cx="357.74865"
     inkscape:cy="504.68716"
     inkscape:document-units="px"
     inkscape:current-layer="layer1"
     showgrid="false"
     inkscape:window-width="1920"
     inkscape:window-height="1017"
     inkscape:window-x="-8"
     inkscape:window-y="-8"
     inkscape:window-maximized="1" />
  <metadata
     id="metadata7">
    <rdf:RDF>
      <cc:Work
         rdf:about="">
        <dc:format>image/svg+xml</dc:format>
        <dc:type
           rdf:resource="http://purl.org/dc/dcmitype/StillImage" />
        <dc:title></dc:title>
      </cc:Work>
    </rdf:RDF>
  </metadata>
  <g
     inkscape:label="Layer 1"
     inkscape:groupmode="layer"
     id="layer1">
    <path
       style="fill:#4aa0c7;fill-opacity:1"
       d="m 388.68549,830.66471 c -2.14134,-0.81611 -3.89334,-2.23514 -3.89334,-3.15337 0,-0.91825 -1.47052,-2.13625 -3.26782,-2.70669 -1.7973,-0.57045 -5.19111,-2.76424 -7.54181,-4.87513 -3.9975,-3.58966 -7.62623,-5.99451 -15.99004,-10.59701 -1.8918,-1.04104 -4.46664,-3.25546 -5.72182,-4.92095 -1.25518,-1.66547 -3.25917,-3.02815 -4.45331,-3.02815 -1.19413,0 -4.05061,-1.75096 -6.34773,-3.89107 -2.29711,-2.1401 -7.69994,-5.76137 -12.00628,-8.0473 -4.30633,-2.28592 -8.8472,-5.59627 -10.09078,-7.35632 -1.2436,-1.76006 -3.2381,-3.20012 -4.43224,-3.20012 -1.19414,0 -3.68065,-1.38745 -5.52558,-3.08324 -1.84494,-1.69578 -6.35971,-4.92666 -10.03282,-7.17972 -3.67311,-2.25306 -8.65349,-5.92695 -11.0675,-8.16417 -2.41399,-2.23723 -5.40468,-4.06768 -6.64598,-4.06768 -1.24129,0 -2.8796,-1.06249 -3.64067,-2.36113 -0.76106,-1.29862 -3.87571,-3.6346 -6.92145,-5.19107 -3.04574,-1.55647 -6.34082,-4.19263 -7.32242,-5.85813 -1.55657,-2.64108 -2.00657,-2.69639 -3.52025,-0.43263 -1.49361,2.23377 -1.73923,2.17967 -1.76203,-0.38816 -0.0138,-1.64104 -2.55716,-4.2772 -5.65019,-5.85813 -3.09305,-1.58094 -6.24641,-3.93691 -7.00746,-5.23555 -0.76108,-1.29862 -2.15527,-2.36112 -3.09822,-2.36112 -1.74235,0 -10.78118,-5.97921 -15.10193,-9.98996 -1.30547,-1.21181 -4.8305,-3.46911 -7.83337,-5.0162 -3.00286,-1.54709 -6.47726,-4.25428 -7.72084,-6.01595 -1.2436,-1.76169 -3.23811,-3.20308 -4.43224,-3.20308 -1.19414,0 -3.72315,-1.36266 -5.62004,-3.02814 -4.40268,-3.86561 -9.14853,-6.91571 -14.07479,-9.04576 -2.14134,-0.92586 -3.89333,-2.33795 -3.89333,-3.13796 0,-0.80001 -3.11467,-3.2051 -6.92148,-5.34466 -3.80681,-2.13954 -6.92148,-4.52811 -6.92148,-5.30792 0,-0.77981 -1.36267,-1.85 -3.02815,-2.37817 -4.57993,-1.45245 -13.23131,-6.94988 -14.80095,-9.40509 -0.76479,-1.19634 -4.46347,-3.74283 -8.21926,-5.65889 -3.75576,-1.91605 -6.82867,-4.05649 -6.82867,-4.75653 0,-0.70004 -2.14134,-2.23022 -4.75852,-3.40041 -2.61719,-1.17019 -7.09452,-4.16694 -9.94963,-6.65946 -2.85511,-2.49251 -6.83387,-5.16837 -8.84167,-5.94633 -4.04682,-1.56801 -4.45676,-3.34597 -7.76903,-33.69659 -1.14249,-10.46874 -2.6117,-19.42341 -3.26489,-19.89926 -0.65319,-0.47585 -3.014936,-16.82785 -5.248306,-36.33777 -2.2334,-19.50993 -4.5694,-35.86193 -5.19111,-36.33778 -0.62174,-0.47585 -2.95774,-16.82785 -5.19111,-36.33777 -2.2334,-19.50993 -4.573619,-35.86192 -5.200511,-36.33778 -0.626892,-0.47585 -3.358095,-19.94251 -6.06935,-43.25925 -2.711227,-23.31674 -5.439481,-42.7834 -6.062788,-43.25925 -0.623307,-0.47586 -2.931191,-16.43852 -5.128637,-35.47259 -2.197445,-19.03408 -4.507822,-34.99674 -5.134188,-35.47259 -1.161023,-0.88205 -5.695562,-36.46703 -4.765453,-37.39714 0.280804,-0.2808 9.436428,-1.48045 20.345831,-2.66589 10.909416,-1.18544 20.224626,-2.6605 20.700476,-3.2779 0.47585,-0.6174 17.217176,-2.93134 37.202956,-5.14212 19.98578,-2.21079 36.72711,-4.54035 37.20296,-5.17684 0.77929,-1.04235 21.71172,-3.6642 71.81036,-8.9945 9.51704,-1.01258 17.69304,-2.37853 18.16889,-3.03546 0.47585,-0.65692 17.21718,-2.99242 37.20296,-5.18999 19.98577,-2.19757 36.72711,-4.51346 37.20296,-5.14644 0.47585,-0.63297 9.59537,-2.09901 20.26559,-3.25786 15.17932,-1.64856 23.83857,-1.65382 39.79852,-0.0242 11.21896,1.14557 20.78743,2.57163 21.26329,3.16905 0.47585,0.59741 19.94251,2.89696 43.25925,5.11009 23.31674,2.21314 42.7834,4.54379 43.25926,5.17918 0.47585,0.63539 23.83584,3.38298 51.9111,6.10575 28.07526,2.72278 51.43525,5.45222 51.91111,6.06542 0.47585,0.61322 20.13717,2.96732 43.69184,5.23137 23.55466,2.26404 42.82667,4.74692 42.82667,5.51748 0,0.77059 2.31671,1.40106 5.14828,1.40106 4.81134,0 5.03784,0.29048 3.46074,4.43858 -0.92815,2.44121 -1.68754,7.50254 -1.68754,11.24741 0,3.74485 -0.64279,6.80883 -1.4284,6.80883 -0.78563,0 -3.26147,16.15734 -5.50189,35.90518 -2.24044,19.74785 -4.59203,36.29451 -5.22577,36.77036 -0.63377,0.47586 -2.9502,16.43852 -5.14765,35.47259 -2.19744,19.03408 -4.50173,34.99674 -5.12062,35.47259 -0.61889,0.47585 -2.97113,16.43852 -5.22716,35.47259 -2.25607,19.03407 -4.61661,34.99674 -5.2457,35.47259 -0.6291,0.47585 -2.97112,16.82785 -5.2045,36.33777 -2.23338,19.50993 -4.56192,35.86193 -5.17453,36.33778 -0.61262,0.47585 -3.18271,18.17781 -5.71132,39.33771 -4.94526,41.38285 -4.54209,40.20667 -16.76653,48.91124 -6.72844,4.79107 -9.26681,6.81569 -15.67924,12.50585 -2.43753,2.16296 -7.88819,6.26866 -12.1126,9.12377 -4.22442,2.85511 -8.69823,6.55379 -9.94183,8.21926 -1.2436,1.66549 -3.36698,3.02815 -4.71862,3.02815 -1.35164,0 -3.73306,1.94667 -5.29202,4.32593 -1.55893,2.37925 -3.85637,4.32592 -5.1054,4.32592 -1.24903,0 -3.87548,2.03983 -5.83657,4.53295 -1.96109,2.49312 -6.22726,5.9595 -9.48037,7.70305 -5.35553,2.87041 -7.93038,4.90332 -19.21704,15.17243 -1.90341,1.73181 -5.9914,4.61726 -9.08445,6.41213 -3.09303,1.79486 -5.6237,3.77068 -5.6237,4.39072 0,0.62005 -2.91999,3.06744 -6.48889,5.43865 -3.56888,2.3712 -8.82489,6.33029 -11.68,8.79798 -2.85511,2.46767 -7.91644,6.84797 -11.2474,9.73397 -3.33097,2.88602 -6.94009,5.25971 -8.02026,5.27493 -1.08016,0.0155 -3.23946,1.97429 -4.7984,4.35355 -1.55895,2.37926 -3.94035,4.32593 -5.29201,4.32593 -1.35164,0 -3.61545,1.65317 -5.03068,3.67369 -2.34579,3.34909 -6.18934,6.13839 -13.19643,9.57683 -1.42755,0.70051 -4.01473,3.06705 -5.74929,5.25897 -1.73456,2.19194 -4.17567,3.98532 -5.42469,3.98532 -1.24904,0 -3.54647,1.94667 -5.10541,4.32593 -1.55895,2.37926 -3.78984,4.32965 -4.95752,4.3342 -1.1677,0.006 -4.97979,2.53521 -8.4713,5.6237 -10.28038,9.09372 -15.09078,13.03328 -20.97847,17.1807 -3.05271,2.15036 -7.49702,5.69247 -9.87628,7.87134 -2.37925,2.17887 -5.57724,4.35947 -7.10663,4.84574 -1.52941,0.48629 -3.47607,2.33852 -4.32592,4.11607 -1.19913,2.50805 -2.4172,2.89957 -5.43855,1.74806 z M 257.58234,670.84969 c -1.22628,-21.26099 -1.19764,-21.50902 2.37509,-20.57473 1.98899,0.52014 5.38914,2.672 7.55591,4.78191 2.16677,2.10992 7.63822,5.59801 12.15882,7.7513 4.52059,2.15331 8.21926,4.49931 8.21926,5.21336 0,1.13001 7.52207,5.31449 9.55339,5.31449 0.40628,0 0.95364,-11.82067 1.21635,-26.26815 0.4297,-23.63029 0.7447,-26.0008 3.13676,-23.60548 1.46251,1.4645 5.58495,3.72074 9.161,5.01384 3.57604,1.29312 7.83012,3.58422 9.45349,5.09134 1.62338,1.50713 4.1196,3.2142 5.54716,3.7935 1.42755,0.57931 5.53066,2.30876 9.11801,3.84322 l 6.52246,2.78994 -0.97131,-119.8654 c -0.53424,-65.92594 -1.36436,-123.79597 -1.84475,-128.60005 l -0.87344,-8.73467 -14.10499,-2.96532 c -7.75774,-1.63092 -14.53471,-3.63997 -15.05993,-4.46454 -0.52523,-0.82457 -8.54695,-3.24758 -17.82605,-5.38443 -9.27912,-2.13686 -16.87111,-4.46037 -16.87111,-5.16337 0,-0.703 -4.08801,-2.15055 -9.08444,-3.21677 -4.99645,-1.06623 -12.06448,-2.66259 -15.70671,-3.54747 l -6.62227,-1.6089 0.96221,12.39305 c 0.52922,6.81617 1.44688,21.57703 2.03925,32.8019 l 1.07705,20.40887 -4.93402,-1.20863 c -2.71373,-0.66475 -5.39368,-1.90684 -5.95549,-2.7602 -0.5618,-0.85335 -7.90488,-3.44538 -16.31796,-5.76005 -8.41307,-2.31465 -15.74008,-4.85749 -16.28224,-5.65071 -0.54216,-0.79321 -7.40975,-3.25082 -15.2613,-5.46135 -7.85156,-2.21054 -14.27555,-4.62776 -14.27555,-5.3716 0,-0.74385 -2.23939,-1.84431 -4.97642,-2.44545 -5.58667,-1.22704 -5.79187,-2.31554 -8.20489,-43.52709 l -1.12738,-19.25474 -16.63826,-3.92736 c -9.15103,-2.16003 -17.02756,-4.46229 -17.50342,-5.11611 -0.47585,-0.6538 -7.38612,-2.8103 -15.35618,-4.79217 l -14.490976,-3.60345 0.96064,7.20984 c 0.52833,3.96543 1.91095,16.94318 3.07246,28.83948 1.161526,11.89629 2.633186,22.01896 3.270376,22.49481 0.63719,0.47585 2.99519,19.16385 5.23998,41.52888 2.24479,22.36504 4.57831,41.05303 5.1856,41.52889 0.60729,0.47585 2.48425,14.48472 4.17103,31.13084 1.68676,16.6461 3.43219,30.85676 3.87871,31.57925 0.44653,0.72248 1.93392,1.3136 3.3053,1.3136 1.37139,0 3.87149,1.36268 5.55576,3.02815 1.68429,1.66549 7.43572,5.15012 12.781,7.74366 l 9.71866,4.71549 1.25652,24.26821 c 0.88083,17.01181 1.8769,24.26819 3.33126,24.26819 1.14109,0 3.5842,1.36267 5.42914,3.02815 1.84493,1.66549 7.63709,5.31794 12.87146,8.11657 5.23437,2.79863 10.46349,6.02545 11.62027,7.17074 1.19989,1.18796 2.83733,11.14721 3.81243,23.18793 1.67346,20.66401 3.33914,25.98105 8.13916,25.98105 1.31103,0 2.38369,0.76556 2.38369,1.70121 0,0.93569 3.99559,3.72596 8.8791,6.20061 4.88351,2.47465 10.41596,5.9312 12.29435,7.68117 1.87839,1.74999 5.66945,4.11553 8.4246,5.25674 2.75515,1.14122 5.00936,2.70452 5.00936,3.474 0,0.76948 3.69866,3.20494 8.21925,5.41214 4.52059,2.20721 8.84196,4.98718 9.60302,6.17769 0.76107,1.19052 2.20214,2.16458 3.20239,2.16458 1.2403,0 1.42391,-6.84347 0.57736,-21.5204 z m 262.61128,13.06868 c 3.56888,-2.16871 6.48889,-4.56746 6.48889,-5.33055 0,-0.76308 1.36266,-1.88695 3.02815,-2.49748 5.83973,-2.14073 12.54518,-6.41926 12.54518,-8.00468 0,-0.88042 3.07292,-3.16846 6.82868,-5.08452 3.75579,-1.91604 7.45445,-4.46255 8.21926,-5.65888 0.76482,-1.19631 4.50524,-3.87893 8.31206,-5.96138 3.80681,-2.08244 7.07727,-5.19711 7.26768,-6.92149 0.19041,-1.72436 0.85463,-12.33931 1.47607,-23.58878 0.96895,-17.54022 1.57637,-20.62108 4.26446,-21.62962 3.08957,-1.15918 11.77946,-7.84031 20.09731,-15.45163 2.3401,-2.14132 4.92156,-3.89333 5.73657,-3.89333 1.45942,0 2.37175,-6.75613 4.51192,-33.41223 1.00929,-12.57084 1.40329,-13.63402 5.65097,-15.24899 2.51134,-0.95482 4.97123,-2.29799 5.46646,-2.98483 0.49522,-0.68686 5.0047,-3.16571 10.02105,-5.50856 10.02305,-4.68118 12.48021,-9.31979 12.49932,-23.59599 0.006,-3.96543 0.66047,-7.46943 1.45592,-7.78667 0.79546,-0.31724 3.64155,-22.37946 6.32468,-49.02716 2.68313,-26.6477 5.38825,-48.8397 6.01138,-49.31555 1.63045,-1.24511 9.30637,-77.84956 7.9378,-79.21812 -0.62911,-0.62913 -1.68552,-0.33616 -2.34753,0.65101 -0.66204,0.98719 -7.82237,3.6384 -15.91185,5.89156 -8.08948,2.25318 -15.09748,4.63501 -15.57333,5.29297 -0.47585,0.65795 -5.64444,2.60817 -11.48576,4.3338 l -10.62055,3.13752 -2.20682,24.76452 c -1.21372,13.62049 -2.85847,24.76452 -3.65498,24.76452 -0.7965,0 -1.44818,2.21102 -1.44818,4.91335 0,4.8581 -5.1091,8.92961 -11.20523,8.92961 -1.31481,0 -3.43564,1.04512 -4.713,2.32248 -1.27736,1.27735 -7.75699,4.11829 -14.39916,6.31317 -6.64217,2.19492 -12.46602,4.52157 -12.94187,5.17038 -1.09268,1.48979 -26.42517,10.52632 -27.23597,9.71551 -0.57725,-0.57725 2.03431,-37.63137 3.91396,-55.53339 0.49962,-4.75852 0.30615,-7.82159 -0.42996,-6.80686 -0.73612,1.01474 -7.95706,3.68851 -16.04654,5.94168 -8.08948,2.25317 -15.09748,4.64527 -15.57333,5.31575 -0.47586,0.6705 -7.48219,3.00079 -15.56963,5.17843 -8.08744,2.17765 -15.589,4.84391 -16.67013,5.92505 -1.08111,1.08114 -6.23912,2.99087 -11.46224,4.24386 l -9.49655,2.2782 -1.05332,19.24343 c -0.57933,10.58387 -1.56341,45.71808 -2.18683,78.076 -0.62343,32.35793 -1.68861,59.22192 -2.36709,59.69778 -0.67846,0.47585 -1.73308,22.47319 -2.34359,48.88295 -1.18152,51.11014 -1.05646,51.93305 6.83714,44.98963 3.15531,-2.77552 5.70405,-4.40687 15.2908,-9.7872 1.85495,-1.04104 4.84355,-3.18258 6.64134,-4.759 1.7978,-1.57639 4.84316,-3.27793 6.76749,-3.78115 3.43761,-0.89895 3.47666,-0.45852 2.23445,25.19157 -1.06674,22.02645 -0.89369,25.79114 1.10727,24.08863 4.43408,-3.77271 15.49646,-10.621 17.15662,-10.621 0.90944,0 1.65352,-0.76283 1.65352,-1.69521 0,-0.93235 3.12822,-3.2911 6.95159,-5.24164 l 6.95161,-3.54644 -1.03499,22.11276 c -0.56923,12.16201 -0.38811,21.29299 0.40249,20.29104 0.79061,-1.00194 4.35746,-3.59611 7.92634,-5.76483 z M 399.5003,255.1173 c 10.46874,-1.63038 19.4234,-3.48297 19.89926,-4.11684 0.47585,-0.63386 7.87318,-2.21121 16.43851,-3.50522 l 15.57333,-2.35272 -10.38222,-1.57399 c -5.71022,-0.86568 -10.77155,-2.093 -11.2474,-2.72737 -0.88264,-1.17668 -40.273,-7.77344 -44.98963,-7.53449 -12.53004,0.63481 -55.37184,6.62256 -55.37184,7.739 0,0.7855 -4.02311,1.42817 -8.94026,1.42817 -4.91712,0 -8.59775,0.34251 -8.17915,0.76108 0.41858,0.41859 8.5297,2.07755 18.02468,3.68656 9.495,1.60899 17.65295,3.4533 18.1288,4.09848 0.68462,0.92821 22.01777,5.74221 30.28148,6.83326 0.9517,0.12556 10.2957,-1.10551 20.76444,-2.73592 z"
       id="path4147"
       inkscape:connector-curvature="0"
       sodipodi:nodetypes="ssssssssssssssssssscscssssssssssscsssssssscssssssssssssssssssssssssssssscsssssssssssssssssssssscssssssscsssssssssssssssssscsscscsssscsscsssssssscssscsssssscssscssssssssssssssssssssscsssssssscscssscsssscssssssssssssssscsscsssssssssscscsssscssssscsscs" />
  </g>
</svg>
