<?xml version="1.0" encoding="utf-8"?>
<!-- Generator: Adobe Illustrator 16.0.0, SVG Export Plug-In . SVG Version: 6.00 Build 0)  -->
<!DOCTYPE svg PUBLIC "-//W3C//DTD SVG 1.1//EN" "http://www.w3.org/Graphics/SVG/1.1/DTD/svg11.dtd">
<svg version="1.1" id="desire_lines" xmlns="http://www.w3.org/2000/svg" xmlns:xlink="http://www.w3.org/1999/xlink" x="0px"
	 y="0px" width="511.475px" height="511.475px" viewBox="0 0 511.475 511.475" enable-background="new 0 0 511.475 511.475"
	 xml:space="preserve">
<rect fill="#FFFFFF" width="511.473" height="511.474"/>
<g>
	<polygon fill="#7FBCD7" points="324.691,317.468 332.075,451.43 393.337,448.793 383.771,272.624 325.225,275.265 325.225,167.667 
		206.013,167.667 208.656,275.72 151.165,269.984 133.883,448.793 193.355,453.001 207.603,323.247 207.287,511.474 
		324.052,511.475 	"/>
</g>
<g>
	<polygon fill="#387895" points="159.069,428.623 160.797,438.853 150.567,440.581 152.295,450.811 142.065,452.539 
		143.793,462.769 133.563,464.497 123.333,466.225 121.604,455.995 111.375,457.723 109.646,447.492 99.417,449.221 97.688,438.99 
		87.458,440.719 89.187,450.948 90.915,461.179 92.643,471.409 94.37,481.639 104.601,479.911 114.831,478.183 125.061,476.455 
		135.291,474.728 145.521,472.999 155.751,471.271 165.981,469.543 176.211,467.815 174.483,457.585 172.755,447.355 
		171.027,437.125 169.299,426.895 	"/>
	<polygon fill="#FFFFFF" points="145.383,409.891 135.153,411.618 136.881,421.849 126.651,423.576 116.421,425.305 
		114.693,415.074 104.463,416.803 94.232,418.53 95.961,428.761 97.688,438.99 107.919,437.263 109.646,447.492 119.877,445.765 
		121.604,455.995 131.835,454.267 142.065,452.539 140.337,442.309 150.567,440.581 148.839,430.351 159.069,428.623 
		157.341,418.393 155.613,408.163 	"/>
	<g>
		<polygon fill="#A1CEE2" points="121.604,455.995 123.333,466.225 133.563,464.497 143.793,462.769 142.065,452.539 
			131.835,454.267 		"/>
		
			<rect x="141.128" y="441.373" transform="matrix(-0.986 0.1666 -0.1666 -0.986 364.9857 862.5021)" fill="#A1CEE2" width="10.375" height="10.374"/>
		
			<rect x="110.438" y="446.556" transform="matrix(-0.1666 -0.986 0.986 -0.1666 -310.5511 640.9924)" fill="#A1CEE2" width="10.375" height="10.375"/>
		
			<rect x="149.631" y="429.415" transform="matrix(-0.986 0.1666 -0.1666 -0.986 379.879 837.3367)" fill="#A1CEE2" width="10.375" height="10.374"/>
		
			<rect x="98.48" y="438.054" transform="matrix(-0.1666 -0.986 0.986 -0.1666 -316.117 619.2828)" fill="#A1CEE2" width="10.375" height="10.375"/>
		<polygon fill="#A1CEE2" points="155.613,408.163 157.341,418.393 159.069,428.623 169.299,426.895 167.571,416.665 
			165.843,406.435 		"/>
		<polygon fill="#A1CEE2" points="126.651,423.576 136.881,421.849 135.153,411.618 124.923,413.347 114.693,415.074 
			116.421,425.305 		"/>
		<polygon fill="#A1CEE2" points="94.232,418.53 84.003,420.259 85.73,430.488 87.458,440.719 97.688,438.99 95.961,428.761 		"/>
		<polygon fill="#A1CEE2" points="155.613,408.163 153.885,397.933 143.655,399.66 133.425,401.389 135.153,411.618 
			145.383,409.891 		"/>
		<polygon fill="#A1CEE2" points="114.693,415.074 112.965,404.845 102.735,406.572 92.505,408.3 94.232,418.53 104.463,416.803 		
			"/>
	</g>
	<polygon fill="#387895" points="152.157,387.702 141.927,389.431 131.697,391.158 121.467,392.887 111.237,394.614 
		101.007,396.342 90.777,398.07 80.547,399.798 82.275,410.028 84.003,420.259 94.232,418.53 92.505,408.3 102.735,406.572 
		112.965,404.845 114.693,415.074 124.923,413.347 135.153,411.618 133.425,401.389 143.655,399.66 153.885,397.933 
		155.613,408.163 165.843,406.435 164.115,396.204 162.388,385.975 	"/>
</g>
<polygon fill="#3D83A3" points="225.85,69.82 213.516,69.82 213.516,57.487 213.516,45.153 201.183,45.153 188.849,45.153 
	188.849,57.487 188.849,69.82 176.517,69.82 164.183,69.82 164.183,82.153 164.183,94.487 176.517,94.487 188.849,94.487 
	188.849,106.82 188.849,119.153 201.183,119.153 213.516,119.153 213.516,106.82 213.516,94.487 225.85,94.487 238.183,94.487 
	238.183,82.153 238.183,69.82 "/>
<g>
	<polygon fill="#7FBCD7" points="283.58,45.181 271.33,45.181 271.33,57.467 271.33,69.753 283.58,69.753 283.58,57.467 
		295.83,57.467 295.83,45.181 	"/>
	<g>
		<polygon fill="#3D83A3" points="344.826,45.197 344.826,32.911 332.576,32.911 320.326,32.911 320.326,45.197 308.076,45.197 
			295.826,45.197 295.826,57.482 283.576,57.482 283.576,69.769 271.326,69.769 271.326,57.482 271.326,45.197 259.076,45.197 
			259.076,57.482 259.076,69.769 259.076,82.054 271.326,82.054 271.326,94.34 283.576,94.34 283.576,106.625 295.826,106.625 
			295.826,118.911 308.076,118.911 320.326,118.911 320.326,106.625 332.576,106.625 332.576,94.34 344.826,94.34 344.826,82.054 
			357.076,82.054 357.076,69.769 357.076,57.482 357.076,45.197 		"/>
		<polygon fill="#3D83A3" points="295.83,45.181 295.83,32.896 283.58,32.896 271.33,32.896 271.33,45.181 283.58,45.181 		"/>
	</g>
</g>
</svg>
