<?xml version="1.0" encoding="utf-8"?>
<!-- Generator: Adobe Illustrator 16.0.0, SVG Export Plug-In . SVG Version: 6.00 Build 0)  -->
<!DOCTYPE svg PUBLIC "-//W3C//DTD SVG 1.1//EN" "http://www.w3.org/Graphics/SVG/1.1/DTD/svg11.dtd">
<svg version="1.1" id="soul_glass" xmlns="http://www.w3.org/2000/svg" xmlns:xlink="http://www.w3.org/1999/xlink" x="0px" y="0px"
	 width="511.473px" height="511.473px" viewBox="0 0 511.473 511.473" enable-background="new 0 0 511.473 511.473"
	 xml:space="preserve">
<rect fill="#FFFFFF" width="511.473" height="511.473"/>
<g>
	<g id="Icon_1_">
		<g id="Beacon_Beam">
			<rect id="Outside" x="204.427" y="-0.082" fill="#4AA0C7" width="104.424" height="511.581"/>
			<rect id="Inside" x="216.425" y="-0.082" fill="#A1CEE2" width="79.932" height="511.581"/>
			<g id="Inside_Details">
				<rect x="276.351" y="5.913" fill="#FFFFFF" width="5.994" height="32.969"/>
				<rect x="263.387" y="-0.082" fill="#FFFFFF" width="5.995" height="38.964"/>
				<rect x="256.381" y="19.401" fill="#FFFFFF" width="13.001" height="19.481"/>
				<rect x="256.381" y="19.401" fill="#FFFFFF" width="6.501" height="39.969"/>
				<rect x="243.398" y="-0.082" fill="#FFFFFF" width="12.982" height="19.483"/>
				<rect x="249.88" y="26.395" fill="#FFFFFF" width="19.501" height="6.494"/>
				<rect x="230.398" y="5.913" fill="#FFFFFF" width="5.993" height="20.479"/>
				<rect x="269.382" y="38.882" fill="#FFFFFF" width="6.969" height="6.999"/>
				<rect x="236.392" y="38.386" fill="#FFFFFF" width="7.007" height="7.494"/>
				<rect x="243.398" y="45.881" fill="#FFFFFF" width="6.482" height="13.49"/>
				<rect x="222.905" y="45.881" fill="#FFFFFF" width="7.493" height="26.479"/>
				<rect x="269.382" y="58.871" fill="#FFFFFF" width="6.969" height="13.488"/>
				<rect x="249.88" y="65.86" fill="#FFFFFF" width="5.994" height="5.994"/>
				<rect x="255.875" y="71.855" fill="#FFFFFF" width="7.007" height="26.479"/>
				<rect x="255.875" y="84.847" fill="#FFFFFF" width="13.507" height="6.993"/>
				<rect x="282.345" y="65.86" fill="#FFFFFF" width="5.998" height="12.992"/>
				<rect x="282.345" y="84.847" fill="#FFFFFF" width="5.998" height="6.993"/>
				<rect x="269.382" y="91.84" fill="#FFFFFF" width="6.969" height="6.494"/>
				<rect x="243.888" y="78.852" fill="#FFFFFF" width="5.993" height="6.498"/>
				<rect x="216.425" y="84.847" fill="#FFFFFF" width="6.988" height="6.993"/>
				<rect x="230.398" y="91.84" fill="#FFFFFF" width="5.993" height="6.494"/>
				<rect x="223.411" y="98.334" fill="#FFFFFF" width="6.987" height="6.993"/>
				<rect x="282.345" y="97.834" fill="#FFFFFF" width="5.998" height="7.492"/>
				<rect x="249.88" y="98.334" fill="#FFFFFF" width="5.994" height="26.479"/>
				<rect x="243.888" y="104.834" fill="#FFFFFF" width="11.99" height="19.979"/>
				<rect x="230.398" y="111.822" fill="#FFFFFF" width="5.993" height="18.992"/>
				<rect x="262.882" y="105.327" fill="#FFFFFF" width="5.992" height="38.472"/>
				<rect x="276.351" y="111.324" fill="#FFFFFF" width="5.994" height="32.981"/>
				<rect x="255.875" y="124.813" fill="#FFFFFF" width="7.007" height="38.973"/>
				<rect x="249.88" y="130.814" fill="#FFFFFF" width="18.994" height="6.99"/>
				<rect x="268.874" y="143.798" fill="#FFFFFF" width="7.476" height="6.5"/>
				<rect x="235.906" y="143.798" fill="#FFFFFF" width="7.492" height="6.5"/>
				<rect x="243.398" y="150.298" fill="#FFFFFF" width="6.482" height="13.488"/>
				<rect x="223.411" y="150.298" fill="#FFFFFF" width="6.987" height="26.975"/>
				<rect x="249.88" y="170.773" fill="#FFFFFF" width="5.994" height="5.995"/>
				<rect x="268.874" y="163.28" fill="#FFFFFF" width="7.476" height="13.992"/>
				<rect x="282.345" y="170.773" fill="#FFFFFF" width="5.998" height="11.989"/>
				<rect x="255.875" y="177.273" fill="#FFFFFF" width="7.007" height="26.47"/>
				<rect x="243.398" y="182.764" fill="#FFFFFF" width="6.482" height="7.492"/>
				<rect x="255.875" y="190.256" fill="#FFFFFF" width="13" height="5.995"/>
				<rect x="268.874" y="196.251" fill="#FFFFFF" width="7.476" height="7.492"/>
				<rect x="282.345" y="190.256" fill="#FFFFFF" width="5.998" height="5.995"/>
				<rect x="216.425" y="190.256" fill="#FFFFFF" width="6.988" height="5.995"/>
				<rect x="230.398" y="196.251" fill="#FFFFFF" width="5.993" height="7.492"/>
				<rect x="223.411" y="203.743" fill="#FFFFFF" width="6.987" height="5.993"/>
				<rect x="243.398" y="209.736" fill="#FFFFFF" width="12.476" height="19.423"/>
				<rect x="249.88" y="203.743" fill="#FFFFFF" width="5.994" height="25.494"/>
				<rect x="230.398" y="215.733" fill="#FFFFFF" width="5.993" height="20.999"/>
				<rect x="282.345" y="203.256" fill="#FFFFFF" width="5.998" height="5.994"/>
				<rect x="262.882" y="209.736" fill="#FFFFFF" width="6.5" height="38.985"/>
				<rect x="255.875" y="229.237" fill="#FFFFFF" width="7.007" height="39.977"/>
				<rect x="255.875" y="229.237" fill="#FFFFFF" width="13.507" height="19.485"/>
				<rect x="249.88" y="236.731" fill="#FFFFFF" width="18.994" height="5.489"/>
				<rect x="276.351" y="215.733" fill="#FFFFFF" width="5.994" height="32.988"/>
				<rect x="269.382" y="248.721" fill="#FFFFFF" width="6.969" height="6.986"/>
				<rect x="236.898" y="247.709" fill="#FFFFFF" width="6.99" height="7.494"/>
				<rect x="243.888" y="255.203" fill="#FFFFFF" width="6.5" height="13.505"/>
				<rect x="223.411" y="255.203" fill="#FFFFFF" width="7.491" height="26.467"/>
				<rect x="269.887" y="268.203" fill="#FFFFFF" width="6.969" height="13.468"/>
				<rect x="250.388" y="275.209" fill="#FFFFFF" width="5.993" height="5.992"/>
				<rect x="256.381" y="281.203" fill="#FFFFFF" width="7.006" height="26.469"/>
				<rect x="256.381" y="294.165" fill="#FFFFFF" width="13.506" height="7.007"/>
				<rect x="282.851" y="275.209" fill="#FFFFFF" width="5.994" height="12.964"/>
				<rect x="282.851" y="294.165" fill="#FFFFFF" width="5.994" height="7.007"/>
				<rect x="269.887" y="301.175" fill="#FFFFFF" width="6.969" height="6.499"/>
				<rect x="244.392" y="288.174" fill="#FFFFFF" width="5.994" height="6.5"/>
				<rect x="216.911" y="294.165" fill="#FFFFFF" width="7.006" height="7.007"/>
				<rect x="230.903" y="301.175" fill="#FFFFFF" width="5.994" height="6.499"/>
				<rect x="223.917" y="307.674" fill="#FFFFFF" width="6.989" height="6.995"/>
				<rect x="282.851" y="307.166" fill="#FFFFFF" width="5.994" height="7.481"/>
				<rect x="250.388" y="307.674" fill="#FFFFFF" width="5.993" height="26.469"/>
				<rect x="244.392" y="314.647" fill="#FFFFFF" width="11.989" height="20"/>
				<rect x="230.903" y="321.142" fill="#FFFFFF" width="5.994" height="18.995"/>
				<rect x="276.351" y="320.661" fill="#FFFFFF" width="5.994" height="32.981"/>
				<rect x="263.387" y="314.647" fill="#FFFFFF" width="5.995" height="38.995"/>
				<rect x="256.381" y="334.142" fill="#FFFFFF" width="6.501" height="39.976"/>
				<rect x="249.88" y="341.149" fill="#FFFFFF" width="19.501" height="6.497"/>
				<rect x="269.382" y="353.643" fill="#FFFFFF" width="6.969" height="6.969"/>
				<rect x="236.392" y="353.139" fill="#FFFFFF" width="7.007" height="7.471"/>
				<rect x="243.398" y="360.611" fill="#FFFFFF" width="6.482" height="13.51"/>
				<rect x="222.905" y="360.611" fill="#FFFFFF" width="7.493" height="26.498"/>
				<rect x="269.382" y="373.61" fill="#FFFFFF" width="6.969" height="13.499"/>
				<rect x="249.88" y="380.617" fill="#FFFFFF" width="5.994" height="5.992"/>
				<rect x="255.875" y="386.611" fill="#FFFFFF" width="7.007" height="26.471"/>
				<rect x="255.875" y="399.577" fill="#FFFFFF" width="13.507" height="7.006"/>
				<rect x="282.345" y="380.617" fill="#FFFFFF" width="5.998" height="12.963"/>
				<rect x="282.345" y="399.577" fill="#FFFFFF" width="5.998" height="7.006"/>
				<rect x="269.382" y="406.583" fill="#FFFFFF" width="6.969" height="6.501"/>
				<rect x="243.888" y="393.58" fill="#FFFFFF" width="5.993" height="6.501"/>
				<rect x="216.425" y="399.577" fill="#FFFFFF" width="6.988" height="7.006"/>
				<rect x="230.398" y="406.583" fill="#FFFFFF" width="5.993" height="6.501"/>
				<rect x="223.411" y="413.084" fill="#FFFFFF" width="6.987" height="7"/>
				<rect x="282.345" y="412.576" fill="#FFFFFF" width="5.998" height="7.5"/>
				<rect x="249.88" y="413.084" fill="#FFFFFF" width="5.994" height="26.471"/>
				<rect x="243.888" y="420.076" fill="#FFFFFF" width="11.99" height="19.979"/>
				<rect x="230.398" y="426.576" fill="#FFFFFF" width="5.993" height="18.97"/>
				<rect x="276.855" y="425.07" fill="#FFFFFF" width="5.991" height="32.971"/>
				<rect x="263.893" y="419.077" fill="#FFFFFF" width="5.991" height="38.963"/>
				<rect x="256.888" y="438.565" fill="#FFFFFF" width="6.499" height="39.948"/>
				<rect x="249.88" y="445.545" fill="#FFFFFF" width="19.501" height="6.5"/>
				<rect x="230.398" y="425.07" fill="#FFFFFF" width="5.993" height="20.473"/>
				<rect x="269.887" y="458.041" fill="#FFFFFF" width="6.969" height="7.005"/>
				<rect x="236.392" y="457.535" fill="#FFFFFF" width="7.007" height="7.511"/>
				<rect x="243.398" y="465.046" fill="#FFFFFF" width="6.482" height="13.467"/>
				<rect x="222.905" y="465.046" fill="#FFFFFF" width="7.493" height="26.468"/>
				<rect x="269.382" y="478.03" fill="#FFFFFF" width="6.969" height="13.485"/>
				<rect x="249.88" y="485.016" fill="#FFFFFF" width="5.994" height="5.995"/>
				<rect x="255.875" y="491.011" fill="#FFFFFF" width="7.007" height="20.484"/>
				<rect x="255.875" y="504.013" fill="#FFFFFF" width="13.507" height="7.486"/>
				<rect x="282.345" y="485.016" fill="#FFFFFF" width="5.998" height="13.001"/>
				<rect x="282.345" y="504.503" fill="#FFFFFF" width="5.998" height="6.998"/>
				<rect x="243.888" y="498.017" fill="#FFFFFF" width="5.993" height="6.49"/>
				<rect x="216.425" y="504.503" fill="#FFFFFF" width="6.988" height="6.998"/>
				<rect x="256.888" y="438.565" fill="#FFFFFF" width="12.999" height="19.476"/>
				<rect x="256.381" y="334.142" fill="#FFFFFF" width="13.001" height="19.501"/>
				<rect x="255.875" y="124.813" fill="#FFFFFF" width="13" height="18.985"/>
			</g>
			<g id="Outline_Details">
				<rect x="204.427" y="-0.082" fill="#3D83A3" width="6" height="19.483"/>
				<rect x="204.427" y="59.37" fill="#3D83A3" width="6" height="19.482"/>
				<rect x="204.427" y="98.334" fill="#3D83A3" width="6" height="26.479"/>
				<rect x="204.427" y="163.786" fill="#3D83A3" width="6" height="18.977"/>
				<rect x="204.427" y="203.743" fill="#3D83A3" width="6" height="25.494"/>
				<rect x="204.427" y="269.214" fill="#3D83A3" width="6" height="19.464"/>
				<rect x="204.427" y="308.178" fill="#3D83A3" width="6" height="26.47"/>
				<rect x="204.427" y="373.61" fill="#3D83A3" width="6" height="19.489"/>
				<rect x="204.427" y="413.588" fill="#3D83A3" width="6" height="25.458"/>
				<rect x="204.427" y="479.021" fill="#3D83A3" width="6" height="19.491"/>
				<rect x="302.857" y="479.021" fill="#3D83A3" width="5.99" height="25.481"/>
				<rect x="302.857" y="458.545" fill="#3D83A3" width="5.99" height="6.999"/>
				<rect x="302.857" y="406.076" fill="#3D83A3" width="5.99" height="19.501"/>
				<rect x="302.857" y="373.61" fill="#3D83A3" width="5.99" height="26.476"/>
				<rect x="302.857" y="354.111" fill="#3D83A3" width="5.99" height="6"/>
				<rect x="302.857" y="301.679" fill="#3D83A3" width="5.99" height="19.463"/>
				<rect x="302.857" y="269.214" fill="#3D83A3" width="5.99" height="25.46"/>
				<rect x="302.857" y="248.721" fill="#3D83A3" width="5.99" height="6.986"/>
				<rect x="302.857" y="196.251" fill="#3D83A3" width="5.99" height="19.482"/>
				<rect x="302.857" y="163.786" fill="#3D83A3" width="5.99" height="26.47"/>
				<rect x="302.857" y="144.305" fill="#3D83A3" width="5.99" height="5.993"/>
				<rect x="302.857" y="91.84" fill="#3D83A3" width="5.99" height="19.484"/>
				<rect x="302.857" y="59.37" fill="#3D83A3" width="5.99" height="25.477"/>
				<rect x="302.857" y="38.882" fill="#3D83A3" width="5.99" height="6.999"/>
				<rect x="302.857" y="-0.082" fill="#3D83A3" width="5.99" height="5.995"/>
			</g>
		</g>
	</g>
	<g>
		<g>
			<polygon fill="#387895" points="402.489,195.568 402.489,200.865 397.198,200.865 397.198,206.158 391.908,206.158 
				391.908,200.865 391.908,195.568 397.198,195.568 			"/>
			<rect x="402.489" y="190.277" fill="#387895" width="5.289" height="5.291"/>
			<rect x="407.778" y="179.692" fill="#387895" width="5.291" height="5.292"/>
			<polygon fill="#387895" points="391.908,190.277 391.908,195.568 386.618,195.568 386.618,190.277 386.618,184.985 
				391.908,184.985 			"/>
			<polygon fill="#387895" points="402.489,184.985 397.198,184.985 397.198,179.692 397.198,174.401 402.489,174.401 
				402.489,169.109 407.777,169.109 407.777,174.401 407.777,179.692 402.489,179.692 			"/>
			<rect x="381.327" y="174.401" fill="#387895" width="5.291" height="5.291"/>
			<rect x="391.908" y="163.818" fill="#387895" width="5.29" height="5.292"/>
			<rect x="402.489" y="158.529" fill="#387895" width="5.289" height="5.29"/>
			<path fill="#7FBCD7" d="M381.327,158.529v5.29v5.292v5.292h5.291v5.292v5.291h5.294v5.292v5.294h5.292h5.291v-5.294h5.289v-5.292
				v-5.291h-5.289v5.291h-5.291v-5.291v-5.292h5.291v-5.292h5.289v5.292v5.292h5.291v-5.292v-5.292v-5.292v-5.29h-5.291v5.29h-5.289
				v-5.29h5.289v-5.291h-5.289h-5.291h-5.292h-5.294v5.291H381.327z M397.198,169.109h-5.29v-5.292h5.29V169.109z"/>
			<polygon fill="#387895" points="111.663,344.795 106.372,344.795 106.372,350.092 106.372,355.386 111.663,355.386 
				111.663,360.673 116.951,360.673 116.951,355.386 116.951,350.092 111.663,350.092 			"/>
			<polygon fill="#387895" points="116.951,339.505 116.951,344.795 122.243,344.795 122.243,339.505 122.243,334.2 116.951,334.2 
							"/>
			<polygon fill="#387895" points="106.372,334.2 101.082,334.2 101.082,339.505 101.082,344.795 106.372,344.795 106.372,339.505 
							"/>
			<rect x="122.243" y="328.906" fill="#387895" width="5.292" height="5.294"/>
			<polygon fill="#387895" points="106.372,334.2 111.663,334.2 111.663,328.906 111.663,323.618 111.663,318.326 106.372,318.326 
				106.372,313.037 101.082,313.037 101.082,318.326 101.082,323.618 101.082,328.906 106.372,328.906 			"/>
			<rect x="95.788" y="328.906" fill="#387895" width="5.295" height="5.294"/>
			<rect x="127.534" y="323.618" fill="#387895" width="5.289" height="5.289"/>
			<rect x="116.951" y="313.037" fill="#387895" width="5.292" height="5.289"/>
			<rect x="106.372" y="302.455" fill="#387895" width="5.292" height="5.292"/>
			<rect x="101.082" y="328.906" fill="#7FBCD7" width="5.29" height="5.294"/>
			<path fill="#7FBCD7" d="M132.822,318.326v-5.289v-5.29h-5.289v-5.295h-5.292v-5.288h-5.292h-5.289h-5.292v5.288h5.292v5.295
				h-5.292v-5.295h-5.289v5.295h-5.3v5.29v5.289v5.294v5.29h5.3v-5.29v-5.294v-5.289h5.289v5.289h5.292v5.294v5.29v5.319h-5.292
				v5.288v5.289h5.292v5.3h5.289v-5.3v-5.289v-5.288h5.292v-5.319h5.292v-5.29h5.289V318.326z M116.951,313.037h5.292v5.289h-5.292
				V313.037z"/>
			<polygon fill="#387895" points="355.727,442.899 361.016,442.899 361.016,448.188 355.727,448.188 355.727,453.479 
				350.438,453.479 350.438,448.188 350.438,442.899 350.438,437.608 355.727,437.608 			"/>
			<rect x="361.016" y="432.32" fill="#387895" width="5.29" height="5.289"/>
			<rect x="345.146" y="427.028" fill="#387895" width="5.291" height="5.294"/>
			<polygon fill="#387895" points="355.727,427.028 355.727,421.738 361.016,421.738 366.306,421.738 366.306,427.028 
				361.016,427.028 361.016,432.32 355.727,432.32 			"/>
			<rect x="350.438" y="411.157" fill="#387895" width="5.289" height="5.295"/>
			<rect x="361.016" y="411.157" fill="#387895" width="5.29" height="5.295"/>
			<rect x="361.016" y="427.028" fill="#7FBCD7" width="5.29" height="5.294"/>
			<polygon fill="#7FBCD7" points="350.438,416.45 355.727,416.45 355.727,411.157 350.438,411.157 350.438,405.867 
				355.727,405.867 361.016,405.867 366.306,405.867 366.306,411.157 361.016,411.157 361.016,416.45 366.306,416.45 
				366.306,411.157 371.598,411.157 371.598,416.45 371.598,421.738 371.598,427.028 366.306,427.028 366.306,421.738 
				361.016,421.738 355.727,421.738 355.727,427.028 355.727,432.32 361.016,432.32 361.016,437.608 361.016,442.899 
				355.727,442.899 355.727,437.608 350.438,437.608 350.438,432.32 350.438,427.028 345.146,427.028 345.146,421.738 
				345.146,416.45 345.146,411.157 350.438,411.157 			"/>
			<polygon fill="#387895" points="156.443,100.172 151.154,100.172 151.154,105.462 156.443,105.462 156.443,110.753 
				161.733,110.753 161.733,105.462 161.733,100.172 161.733,94.882 156.443,94.882 			"/>
			<rect x="145.863" y="89.592" fill="#387895" width="5.292" height="5.289"/>
			<rect x="161.733" y="84.303" fill="#387895" width="5.291" height="5.29"/>
			<polygon fill="#387895" points="156.443,84.303 156.443,79.012 151.154,79.012 145.863,79.012 145.863,84.303 151.154,84.303 
				151.154,89.592 156.443,89.592 			"/>
			<rect x="156.443" y="68.427" fill="#387895" width="5.291" height="5.292"/>
			<rect x="145.863" y="68.427" fill="#387895" width="5.292" height="5.292"/>
			<rect x="145.863" y="84.303" fill="#7FBCD7" width="5.292" height="5.29"/>
			<polygon fill="#7FBCD7" points="161.733,73.718 156.443,73.718 156.443,68.427 161.733,68.427 161.733,63.132 156.443,63.132 
				151.154,63.132 145.863,63.132 145.863,68.427 151.154,68.427 151.154,73.718 145.863,73.718 145.863,68.427 140.574,68.427 
				140.574,73.718 140.574,79.012 140.574,84.303 145.863,84.303 145.863,79.012 151.154,79.012 156.443,79.012 156.443,84.303 
				156.443,89.592 151.154,89.592 151.154,94.882 151.154,100.172 156.443,100.172 156.443,94.882 161.733,94.882 161.733,89.592 
				161.733,84.303 167.024,84.303 167.024,79.012 167.024,73.718 167.024,68.427 161.733,68.427 			"/>
		</g>
	</g>
</g>
</svg>
