<?xml version="1.0" encoding="utf-8"?>
<!-- Generator: Adobe Illustrator 16.0.0, SVG Export Plug-In . SVG Version: 6.00 Build 0)  -->
<!DOCTYPE svg PUBLIC "-//W3C//DTD SVG 1.1//EN" "http://www.w3.org/Graphics/SVG/1.1/DTD/svg11.dtd">
<svg version="1.1" id="potion_liquids" xmlns="http://www.w3.org/2000/svg" xmlns:xlink="http://www.w3.org/1999/xlink" x="0px"
	 y="0px" width="511.473px" height="511.473px" viewBox="0 0 511.473 511.473" enable-background="new 0 0 511.473 511.473"
	 xml:space="preserve">
<rect fill="#FFFFFF" width="511.473" height="511.473"/>
<g id="Icon">
	<g id="liquid_tank">
		<path id="rect4147" fill="#4AA0C7" d="M281.402,319.068l-52.209-0.098l-1.144-29.349l-31.809,0.013l-3.614-45.57l-85.377-0.752
			l-12.195-104.93l51.199-73.571h218.555l51.201,74.003l-12.202,104.494l-85.358,0.751l-3.393,45.824l-32.211-0.162L281.402,319.068
			z"/>
		<path id="rect4150" fill="#428FB3" d="M169.566,74.608l4.129,52.238H141.14L169.566,74.608z"/>
		<path id="rect4153" fill="#428FB3" d="M171.225,71.058h168.77l-3.678,55.25H174.903L171.225,71.058z"/>
		<path id="rect4150-0" fill="#428FB3" d="M341.89,73.718l-4.144,52.237h32.578L341.89,73.718z"/>
		<path id="rect4185" fill="#FFFFFF" d="M203.564,78.592h99.678l13.378,25.088v21.397H193.815v-19.705L203.564,78.592z"/>
		<path id="rect4171" fill="#4AA0C7" d="M191.661,77.736l9.162-27.554h3.35l104.501,0.166l0.039,0.882l9.63,26.917l-3.18,1.93
			l-7.652-21.352l-0.517-1.073l-1.214,25.557l-2.715-4.129l1.075-25.442l-99.787-0.187l0.796,26.791l-2.878,2.523l-0.334-26.422
			l-6.126,21.357l122.865,0.024v2.393v48.3L193.5,128.437l0.044-4.354l121.23-0.324l-0.615-42.868l-118.648,0.611l0.016,18.629
			l7.32-22.067l99.717,0.078l3.689,0.832l9.627,22.942l0.19,11.052l-12.659-31.687l-98.104,0.204l-9.746,28.686L195.59,128h-3.92
			V77.732h-0.006L191.661,77.736L191.661,77.736z"/>
	</g>
	<g id="particles">
		<g id="g4809-5-5-5" transform="matrix(0.8271092,-0.27484904,0.27484904,0.8271092,218.34555,369.73633)">
			<polygon id="rect4651-24-7-2" fill="#4AA0C7" points="-11.227,-15.462 -14.715,-13.544 -16.579,-16.92 -13.09,-18.841 			"/>
			<polygon id="rect4651-9-1-3-0" fill="#4AA0C7" points="-9.615,-20.764 -13.112,-18.818 -14.972,-22.201 -11.485,-24.139 			"/>
			<polygon id="rect4651-9-5-90-2-1" fill="#4AA0C7" points="-14.964,-22.188 -21.909,-18.351 -23.771,-21.728 -16.844,-25.578 			
				"/>
			<polygon id="rect4651-9-5-8-2-9-5" fill="#4AA0C7" points="-16.48,-8.552 -19.866,-6.694 -25.273,-16.55 -21.879,-18.421 			"/>
			<polygon id="rect4651-9-5-8-3-5-1-0" fill="#4AA0C7" points="-5.936,-14.428 -4.074,-11.048 -14.659,-5.162 -16.518,-8.533 			
				"/>
			<polygon id="rect4651-9-4-7-1-1" fill="#4AA0C7" points="-2.491,-16.336 -5.977,-14.431 -7.838,-17.804 -4.353,-19.71 			"/>
			<polygon id="rect4651-9-5-8-7-1-3-5" fill="#4AA0C7" points="-0.946,-21.523 -4.338,-19.681 -9.748,-29.528 -6.36,-31.388 			"/>
			<polygon id="rect4651-9-6-1-3-5" fill="#4AA0C7" points="-9.758,-29.533 -13.244,-27.628 -15.106,-31.002 -11.618,-32.914 			"/>
			<polygon id="rect4651-9-5-8-3-0-6-2-7" fill="#4AA0C7" points="-16.935,-34.365 -15.078,-30.991 -25.654,-25.104 
				-27.517,-28.496 			"/>
		</g>
		<g id="g4809-5-5-5_1_" transform="matrix(0.8271092,-0.27484904,0.27484904,0.8271092,218.34555,369.73633)">
			<polygon id="rect4651-24-7-2_1_" fill="#4AA0C7" points="-29.776,-68.468 -31.418,-65.774 -34.23,-67.452 -32.575,-70.187 			"/>
			<polygon id="rect4651-9-1-3-0_1_" fill="#4AA0C7" points="-25.336,-69.477 -26.991,-66.742 -29.789,-68.46 -28.147,-71.153 			
				"/>
			<polygon id="rect4651-9-5-90-2-1_1_" fill="#4AA0C7" points="-26.482,-73.886 -28.138,-71.153 -33.684,-74.566 -32.042,-77.259 
							"/>
			<polygon id="rect4651-9-5-8-2-9-5_1_" fill="#4AA0C7" points="-38.482,-66.689 -41.166,-68.362 -36.355,-76.204 -33.655,-74.566 
							"/>
			<polygon id="rect4651-9-5-8-3-5-1-0_1_" fill="#4AA0C7" points="-29.996,-61.556 -31.651,-58.872 -40.14,-64.023 
				-38.494,-66.712 			"/>
			<polygon id="rect4651-9-4-7-1-1_1_" fill="#4AA0C7" points="-25.581,-62.587 -27.236,-59.853 -30.028,-61.569 -28.385,-64.264 
							"/>
			<polygon id="rect4651-9-5-8-7-1-3-5_1_" fill="#4AA0C7" points="-22.89,-60.891 -25.586,-62.572 -20.758,-70.443 
				-18.063,-68.768 			"/>
			<polygon id="rect4651-9-6-1-3-5_1_" fill="#4AA0C7" points="-19.117,-73.149 -20.762,-70.444 -23.571,-72.132 -21.909,-74.866 
							"/>
			<polygon id="rect4651-9-5-8-3-0-6-2-7_1_" fill="#4AA0C7" points="-20.244,-77.537 -21.909,-74.835 -30.392,-79.997 
				-28.74,-82.688 			"/>
		</g>
		<g id="g4809-5-5-5_2_" transform="matrix(0.8271092,-0.27484904,0.27484904,0.8271092,218.34555,369.73633)">
			<polygon id="rect4651-24-7-2_2_" fill="#4AA0C7" points="20.126,-57.173 18.563,-56.8 18.188,-58.284 19.754,-58.699 			"/>
			<polygon id="rect4651-9-1-3-0_2_" fill="#4AA0C7" points="21.298,-59.081 19.735,-58.71 19.362,-60.192 20.925,-60.566 			"/>
			<polygon id="rect4651-9-5-90-2-1_2_" fill="#4AA0C7" points="19.348,-60.18 16.262,-59.436 15.888,-60.919 18.988,-61.702 			"/>
			<polygon id="rect4651-9-5-8-2-9-5_2_" fill="#4AA0C7" points="17.352,-55.063 15.846,-54.704 14.772,-59.093 16.277,-59.451 			
				"/>
			<polygon id="rect4651-9-5-8-3-5-1-0_2_" fill="#4AA0C7" points="22.055,-56.243 22.413,-54.718 17.697,-53.544 17.341,-55.068 
							"/>
			<polygon id="rect4651-9-4-7-1-1_2_" fill="#4AA0C7" points="23.592,-56.613 22.048,-56.239 21.675,-57.718 23.216,-58.094 			"/>
			<polygon id="rect4651-9-5-8-7-1-3-5_2_" fill="#4AA0C7" points="24.721,-58.455 23.219,-58.09 22.145,-62.48 23.65,-62.854 			
				"/>
			<polygon id="rect4651-9-6-1-3-5_2_" fill="#4AA0C7" points="22.151,-62.505 20.604,-62.111 20.243,-63.633 21.786,-64.01 			"/>
			<polygon id="rect4651-9-5-8-3-0-6-2-7_2_" fill="#4AA0C7" points="19.851,-65.108 20.246,-63.616 15.527,-62.446 15.136,-63.934 
							"/>
		</g>
		<g id="g4809-5-5-5_3_" transform="matrix(0.8271092,-0.27484904,0.27484904,0.8271092,218.34555,369.73633)">
			<polygon id="rect4651-24-7-2_3_" fill="#4AA0C7" points="-40.043,-117.27 -41.834,-115.782 -43.362,-117.61 -41.578,-119.1 			
				"/>
			<polygon id="rect4651-9-1-3-0_3_" fill="#4AA0C7" points="-39.761,-120.555 -41.556,-119.069 -43.093,-120.899 -41.302,-122.388 
							"/>
			<polygon id="rect4651-9-5-90-2-1_3_" fill="#4AA0C7" points="-34.964,-118.377 -36.744,-116.888 -39.779,-120.565 
				-37.989,-122.052 			"/>
			<polygon id="rect4651-9-5-8-2-9-5_3_" fill="#4AA0C7" points="-36.77,-116.913 -35.282,-115.143 -40.445,-110.844 
				-41.943,-112.616 			"/>
			<polygon id="rect4651-9-5-8-3-5-1-0_3_" fill="#4AA0C7" points="-41.915,-112.606 -43.703,-111.121 -48.323,-116.698 
				-46.545,-118.191 			"/>
			<polygon id="rect4651-9-4-7-1-1_3_" fill="#4AA0C7" points="-44.74,-119.679 -46.531,-118.191 -48.057,-120.018 
				-46.275,-121.508 			"/>
			<polygon id="rect4651-9-5-8-7-1-3-5_3_" fill="#4AA0C7" points="-42.593,-127.599 -41.109,-125.829 -46.29,-121.489 
				-47.778,-123.259 			"/>
			<polygon id="rect4651-9-6-1-3-5_3_" fill="#4AA0C7" points="-37.791,-125.435 -39.574,-123.945 -41.109,-125.775 
				-39.319,-127.263 			"/>
			<polygon id="rect4651-9-5-8-3-0-6-2-7_3_" fill="#4AA0C7" points="-31.399,-121.355 -33.188,-119.864 -37.808,-125.448 
				-36.031,-126.937 			"/>
		</g>
		<g id="g4809-5-5-5_4_" transform="matrix(0.8271092,-0.27484904,0.27484904,0.8271092,218.34555,369.73633)">
			<polygon id="rect4651-24-7-2_4_" fill="#4AA0C7" points="99.22,14.736 97.058,17.497 94.188,15.27 96.352,12.508 			"/>
			<polygon id="rect4651-9-1-3-0_4_" fill="#4AA0C7" points="98.484,9.685 96.353,12.497 93.439,10.257 95.613,7.457 			"/>
			<polygon id="rect4651-9-5-90-2-1_4_" fill="#4AA0C7" points="106.346,11.378 104.185,14.139 98.469,9.704 100.629,6.942 			"/>
			<polygon id="rect4651-9-5-8-2-9-5_4_" fill="#4AA0C7" points="104.215,14.109 107.021,16.272 100.753,24.38 97.984,22.236 			"/>
			<polygon id="rect4651-9-5-8-3-5-1-0_4_" fill="#4AA0C7" points="98.012,22.241 95.844,25.046 87.128,18.259 89.292,15.476 			"/>
			
				<rect id="rect4651-9-4-7-1-1_4_" x="87.159" y="11.157" transform="matrix(-0.6133 0.7898 -0.7898 -0.6133 153.7212 -49.3031)" fill="#4AA0C7" width="3.54" height="3.638"/>
			<polygon id="rect4651-9-5-8-7-1-3-5_4_" fill="#4AA0C7" points="92.05,0.2 94.862,2.359 88.587,10.495 85.77,8.353 			"/>
			<polygon id="rect4651-9-6-1-3-5_4_" fill="#4AA0C7" points="99.841,1.825 97.719,4.596 94.839,2.365 96.968,-0.404 			"/>
			<polygon id="rect4651-9-5-8-3-0-6-2-7_4_" fill="#4AA0C7" points="110.726,5.78 108.56,8.582 99.842,1.824 102.007,-0.982 			"/>
		</g>
		<g id="g4809-5-5-5_5_" transform="matrix(0.8271092,-0.27484904,0.27484904,0.8271092,218.34555,369.73633)">
			
				<rect id="rect4651-24-7-2_5_" x="61.467" y="-18.273" transform="matrix(-1 -0.001 0.001 -1 124.769 -34.6225)" fill="#4AA0C7" width="1.818" height="1.861"/>
			<polygon id="rect4651-9-1-3-0_5_" fill="#4AA0C7" points="65.06,-18.28 63.286,-18.265 63.284,-20.128 65.045,-20.104 			"/>
			<polygon id="rect4651-9-5-90-2-1_5_" fill="#4AA0C7" points="66.824,-14.589 65.048,-14.577 65.049,-18.288 66.856,-18.258 			
				"/>
			<polygon id="rect4651-9-5-8-2-9-5_5_" fill="#4AA0C7" points="65.063,-14.584 65.09,-12.808 59.848,-12.784 59.835,-14.585 			
				"/>
			<polygon id="rect4651-9-5-8-3-5-1-0_5_" fill="#4AA0C7" points="59.843,-14.572 58.067,-14.557 58.07,-20.191 59.877,-20.164 			
				"/>
			<polygon id="rect4651-9-4-7-1-1_5_" fill="#4AA0C7" points="61.644,-20.162 59.876,-20.164 59.87,-22.013 61.644,-22.025 			"/>
			<polygon id="rect4651-9-5-8-7-1-3-5_5_" fill="#4AA0C7" points="66.86,-23.839 66.869,-22.023 61.641,-22.023 61.625,-23.818 			
				"/>
			<polygon id="rect4651-9-6-1-3-5_5_" fill="#4AA0C7" points="68.645,-20.174 66.883,-20.197 66.869,-22.024 68.645,-22.039 			"/>
			<polygon id="rect4651-9-5-8-3-0-6-2-7_5_" fill="#4AA0C7" points="70.426,-14.6 68.653,-14.582 68.641,-20.174 70.458,-20.178 
							"/>
		</g>
		<g id="g4809-5-5-5_6_" transform="matrix(0.8271092,-0.27484904,0.27484904,0.8271092,218.34555,369.73633)">
			
				<rect id="rect4651-24-7-2_6_" x="43.593" y="24.009" transform="matrix(-1 2.110879e-004 -2.110879e-004 -1 89.6477 50.5291)" fill="#4AA0C7" width="2.457" height="2.521"/>
			<polygon id="rect4651-9-1-3-0_6_" fill="#4AA0C7" points="48.454,24.047 46.049,24.03 46.043,21.524 48.451,21.523 			"/>
			<polygon id="rect4651-9-5-90-2-1_6_" fill="#4AA0C7" points="50.911,29.027 48.459,29.018 48.447,24.042 50.901,24.043 			"/>
			<polygon id="rect4651-9-5-8-2-9-5_6_" fill="#4AA0C7" points="48.475,29.007 48.487,31.466 41.38,31.47 41.408,29.026 			"/>
			<polygon id="rect4651-9-5-8-3-5-1-0_6_" fill="#4AA0C7" points="41.408,29.069 38.956,29.047 38.964,21.423 41.421,21.421 			"/>
			<polygon id="rect4651-9-4-7-1-1_6_" fill="#4AA0C7" points="43.828,21.435 41.424,21.422 41.413,18.923 43.823,18.924 			"/>
			<polygon id="rect4651-9-5-8-7-1-3-5_6_" fill="#4AA0C7" points="50.913,16.469 50.928,18.916 43.813,18.933 43.799,16.475 			"/>
			<polygon id="rect4651-9-6-1-3-5_6_" fill="#4AA0C7" points="53.344,21.436 50.943,21.415 50.933,18.916 53.341,18.915 			"/>
			<polygon id="rect4651-9-5-8-3-0-6-2-7_6_" fill="#4AA0C7" points="55.784,29.056 53.329,29.059 53.336,21.417 55.793,21.427 			
				"/>
		</g>
		<g id="g4809-5-5-5_7_" transform="matrix(0.8271092,-0.27484904,0.27484904,0.8271092,218.34555,369.73633)">
			<polygon id="rect4651-24-7-2_7_" fill="#4AA0C7" points="107.322,-25.818 104.823,-23.73 102.651,-26.355 105.19,-28.43 			"/>
			<polygon id="rect4651-9-1-3-0_7_" fill="#4AA0C7" points="111.992,-25.279 109.492,-23.196 107.321,-25.821 109.859,-27.884 			
				"/>
			<polygon id="rect4651-9-5-90-2-1_7_" fill="#4AA0C7" points="112.382,-29.941 109.851,-27.903 105.599,-33.057 108.102,-35.147 
							"/>
			<polygon id="rect4651-9-5-8-2-9-5_7_" fill="#4AA0C7" points="98.219,-27.036 96.189,-29.574 103.553,-35.596 105.618,-33.041 
							"/>
			<polygon id="rect4651-9-5-8-3-5-1-0_7_" fill="#4AA0C7" points="104.747,-19.153 102.21,-17.095 95.716,-25.016 98.21,-27.059 
							"/>
			<polygon id="rect4651-9-4-7-1-1_7_" fill="#4AA0C7" points="109.394,-18.634 106.888,-16.55 104.755,-19.162 107.256,-21.248 			
				"/>
			<polygon id="rect4651-9-5-8-7-1-3-5_7_" fill="#4AA0C7" points="111.423,-16.081 109.36,-18.631 116.76,-24.64 118.801,-22.096 
							"/>
			<polygon id="rect4651-9-6-1-3-5_7_" fill="#4AA0C7" points="119.298,-26.714 116.768,-24.635 114.632,-27.246 117.134,-29.337 
							"/>
			<polygon id="rect4651-9-5-8-3-0-6-2-7_7_" fill="#4AA0C7" points="119.677,-31.399 117.131,-29.325 110.631,-37.227 
				113.177,-39.303 			"/>
		</g>
		<g id="g4809-5-5-5_8_" transform="matrix(0.8271092,-0.27484904,0.27484904,0.8271092,218.34555,369.73633)">
			<polygon id="rect4651-24-7-2_8_" fill="#4AA0C7" points="169.64,-14.954 168.338,-13.19 166.626,-14.455 167.939,-16.254 			"/>
			<polygon id="rect4651-9-1-3-0_8_" fill="#4AA0C7" points="169.279,-17.998 167.939,-16.249 166.225,-17.512 167.574,-19.304 			
				"/>
			<polygon id="rect4651-9-5-90-2-1_8_" fill="#4AA0C7" points="166.23,-17.524 163.591,-13.994 161.889,-15.298 164.529,-18.83 			
				"/>
			<polygon id="rect4651-9-5-8-2-9-5_8_" fill="#4AA0C7" points="168.567,-10.266 167.261,-8.54 162.298,-12.291 163.566,-14.001 
							"/>
			<polygon id="rect4651-9-5-8-3-5-1-0_8_" fill="#4AA0C7" points="172.554,-15.63 174.271,-14.364 170.277,-8.966 168.549,-10.237 
							"/>
			<polygon id="rect4651-9-4-7-1-1_8_" fill="#4AA0C7" points="173.875,-17.403 172.545,-15.61 170.832,-16.875 172.145,-18.675 			
				"/>
			<polygon id="rect4651-9-5-8-7-1-3-5_8_" fill="#4AA0C7" points="173.472,-20.382 172.153,-18.685 167.184,-22.433 
				168.462,-24.141 			"/>
			<polygon id="rect4651-9-6-1-3-5_8_" fill="#4AA0C7" points="167.177,-22.433 165.822,-20.646 164.123,-21.952 165.464,-23.698 
							"/>
			<polygon id="rect4651-9-5-8-3-0-6-2-7_8_" fill="#4AA0C7" points="162.422,-23.218 164.137,-21.951 160.141,-16.551 
				158.427,-17.821 			"/>
		</g>
		<g id="g4809-5-5-5_9_" transform="matrix(0.8271092,-0.27484904,0.27484904,0.8271092,218.34555,369.73633)">
			<polygon id="rect4651-24-7-2_9_" fill="#4AA0C7" points="195.27,-44.164 193.536,-43.682 193.03,-45.432 194.748,-45.954 			"/>
			<polygon id="rect4651-9-1-3-0_9_" fill="#4AA0C7" points="193.033,-45.476 191.301,-44.955 190.78,-46.752 192.528,-47.233 			
				"/>
			<polygon id="rect4651-9-5-90-2-1_9_" fill="#4AA0C7" points="192.325,-41.427 190.621,-40.933 189.599,-44.513 191.344,-44.992 
							"/>
			<polygon id="rect4651-9-5-8-2-9-5_9_" fill="#4AA0C7" points="197.293,-42.867 197.78,-41.166 192.78,-39.721 192.291,-41.434 
							"/>
			<polygon id="rect4651-9-5-8-3-5-1-0_9_" fill="#4AA0C7" points="195.766,-48.231 197.483,-48.719 199.033,-43.33 
				197.289,-42.856 			"/>
			<polygon id="rect4651-9-4-7-1-1_9_" fill="#4AA0C7" points="195.799,-48.218 194.053,-47.739 193.549,-49.488 195.29,-50.013 			
				"/>
			<polygon id="rect4651-9-5-8-7-1-3-5_9_" fill="#4AA0C7" points="193.066,-51.239 193.552,-49.53 188.534,-48.098 
				188.047,-49.809 			"/>
			<polygon id="rect4651-9-6-1-3-5_9_" fill="#4AA0C7" points="189.042,-46.312 187.297,-45.83 186.803,-47.617 188.534,-48.104 			
				"/>
			<polygon id="rect4651-9-5-8-3-0-6-2-7_9_" fill="#4AA0C7" points="185.593,-45.335 187.302,-45.832 188.852,-40.443 
				187.146,-39.95 			"/>
		</g>
	</g>
	<g id="potion">
		<rect x="236.441" y="431.765" fill="#4AA0C7" width="3.272" height="22.817"/>
		<rect x="236.441" y="451.325" fill="#4AA0C7" width="6.529" height="3.256"/>
		<rect x="239.713" y="454.583" fill="#4AA0C7" width="6.508" height="3.245"/>
		<rect x="239.713" y="451.325" fill="#4AA0C7" width="3.25" height="6.509"/>
		<rect x="246.222" y="457.832" fill="#4AA0C7" width="26.089" height="3.272"/>
		<rect x="272.307" y="454.583" fill="#4AA0C7" width="6.511" height="3.245"/>
		<rect x="275.545" y="451.325" fill="#4AA0C7" width="3.271" height="6.509"/>
		<rect x="275.545" y="451.325" fill="#4AA0C7" width="6.547" height="3.256"/>
		<rect x="278.816" y="431.765" fill="#4AA0C7" width="3.271" height="22.817"/>
		<rect x="272.307" y="428.492" fill="#4AA0C7" width="6.511" height="3.272"/>
		<rect x="272.307" y="425.246" fill="#4AA0C7" width="3.232" height="6.52"/>
		<rect x="265.766" y="421.985" fill="#4AA0C7" width="6.547" height="3.257"/>
		<rect x="262.527" y="406.155" fill="#4AA0C7" width="3.232" height="15.83"/>
		<rect x="246.222" y="402.42" fill="#4AA0C7" width="26.089" height="6.532"/>
		<rect x="252.746" y="395.912" fill="#4AA0C7" width="13.014" height="7.905"/>
		<rect x="252.746" y="406.155" fill="#4AA0C7" width="3.25" height="15.83"/>
		<rect x="246.222" y="421.985" fill="#4AA0C7" width="6.528" height="3.257"/>
		<rect x="242.966" y="425.246" fill="#4AA0C7" width="3.252" height="6.52"/>
		<rect x="239.713" y="428.492" fill="#4AA0C7" width="6.508" height="3.272"/>
		<rect x="252.746" y="425.246" fill="#7FBCD7" width="3.25" height="6.52"/>
		<rect x="249.475" y="431.765" fill="#7FBCD7" width="3.271" height="9.776"/>
		<rect x="262.527" y="451.325" fill="#7FBCD7" width="3.232" height="6.509"/>
		<rect x="265.766" y="441.542" fill="#7FBCD7" width="3.269" height="9.781"/>
	</g>
	<g id="potion_1_">
		<polygon fill="#4AA0C7" points="69.618,351.246 79.265,330.579 82.209,331.96 72.574,352.626 		"/>
		
			<rect x="71.629" y="347.848" transform="matrix(-0.4234 0.906 -0.906 -0.4234 422.3697 433.3843)" fill="#4AA0C7" width="3.264" height="6.525"/>
		<polygon fill="#4AA0C7" points="71.175,355.584 72.549,352.628 78.458,355.391 77.086,358.347 		"/>
		<polygon fill="#4AA0C7" points="71.182,355.541 73.939,349.624 76.89,351.005 74.134,356.923 		"/>
		<polygon fill="#4AA0C7" points="75.723,361.292 77.098,358.337 100.721,369.363 99.339,372.318 		"/>
		<polygon fill="#4AA0C7" points="100.731,369.334 102.113,366.377 108.022,369.143 106.64,372.087 		"/>
		<polygon fill="#4AA0C7" points="103.69,370.72 106.449,364.803 109.399,366.183 106.64,372.088 		"/>
		<polygon fill="#4AA0C7" points="105.055,367.784 106.428,364.825 112.342,367.586 110.962,370.545 		"/>
		<polygon fill="#4AA0C7" points="108.021,369.166 117.656,348.487 120.613,349.846 110.97,370.548 		"/>
		<polygon fill="#4AA0C7" points="111.749,345.747 113.13,342.791 119.041,345.555 117.66,348.505 		"/>
		<polygon fill="#4AA0C7" points="111.795,345.734 114.55,339.818 117.505,341.2 114.754,347.116 		"/>
		<polygon fill="#4AA0C7" points="108.583,337.04 109.958,334.084 115.868,336.85 114.492,339.806 		"/>
		
			<rect x="103.935" y="324.559" transform="matrix(-0.4228 0.9062 -0.9062 -0.4228 454.7411 362.7299)" fill="#4AA0C7" width="15.828" height="3.263"/>
		<polygon fill="#4AA0C7" points="97.745,313.974 100.503,308.056 124.126,319.074 121.374,324.991 		"/>
		<polygon fill="#4AA0C7" points="105.855,312.142 109.202,304.972 121.013,310.467 117.673,317.638 		"/>
		<polygon fill="#4AA0C7" points="98.181,328.616 104.874,314.269 107.821,315.651 101.131,329.997 		"/>
		<polygon fill="#4AA0C7" points="90.897,328.801 92.272,325.845 98.184,328.607 96.803,331.564 		"/>
		<polygon fill="#4AA0C7" points="85.155,333.315 87.907,327.399 90.856,328.781 88.105,334.693 		"/>
		<polygon fill="#4AA0C7" points="82.236,331.954 83.607,328.998 89.516,331.764 88.139,334.721 		"/>
		<polygon fill="#7FBCD7" points="94.012,337.407 96.767,331.493 99.723,332.873 96.967,338.789 		"/>
		<polygon fill="#7FBCD7" points="86.964,344.922 91.097,336.071 94.049,337.43 89.917,346.304 		"/>
		<polygon fill="#7FBCD7" points="91.875,365.194 94.631,359.278 97.582,360.659 94.831,366.575 		"/>
		<polygon fill="#7FBCD7" points="97.547,360.683 101.682,351.85 104.632,353.23 100.504,362.066 		"/>
	</g>
	<g id="potion_2_">
		<polygon fill="#4AA0C7" points="434.39,332.149 437.347,330.768 446.983,351.458 444.027,352.816 		"/>
		<polygon fill="#4AA0C7" points="439.64,351.28 445.556,348.531 446.936,351.488 441.02,354.214 		"/>
		
			<rect x="438.48" y="354.05" transform="matrix(-0.9061 0.4231 -0.4231 -0.9061 992.4865 491.077)" fill="#4AA0C7" width="6.53" height="3.263"/>
		<polygon fill="#4AA0C7" points="439.771,351.24 442.725,349.878 445.478,355.777 442.523,357.159 		"/>
		
			<rect x="415.295" y="363.904" transform="matrix(-0.9063 0.4227 -0.4227 -0.9063 971.0181 515.7516)" fill="#4AA0C7" width="26.062" height="3.264"/>
		<polygon fill="#4AA0C7" points="408.503,369.381 414.42,366.615 415.789,369.573 409.884,372.337 		"/>
		<polygon fill="#4AA0C7" points="407.079,366.399 410.029,365.018 412.766,370.935 409.829,372.317 		"/>
		
			<rect x="404.573" y="366.259" transform="matrix(-0.9061 0.423 -0.423 -0.9061 933.0121 528.7274)" fill="#4AA0C7" width="6.531" height="3.264"/>
		<polygon fill="#4AA0C7" points="395.986,350.059 398.941,348.691 408.603,369.355 405.645,370.738 		"/>
		
			<rect x="397.886" y="344.221" transform="matrix(-0.906 0.4232 -0.4232 -0.906 910.9712 489.4477)" fill="#4AA0C7" width="6.531" height="3.263"/>
		<polygon fill="#4AA0C7" points="399.069,341.364 402.025,339.983 404.775,345.9 401.832,347.271 		"/>
		<polygon fill="#4AA0C7" points="400.642,337.055 406.558,334.293 407.928,337.246 402.021,340.01 		"/>
		<polygon fill="#4AA0C7" points="399.912,320.013 402.865,318.631 409.554,332.974 406.598,334.356 		"/>
		<polygon fill="#4AA0C7" points="392.404,319.349 416.029,308.332 418.794,314.249 395.156,325.267 		"/>
		<polygon fill="#4AA0C7" points="395.553,310.675 407.347,305.182 410.71,312.354 398.894,317.847 		"/>
		<polygon fill="#4AA0C7" points="408.835,315.841 411.792,314.458 418.474,328.804 415.517,330.185 		"/>
		<polygon fill="#4AA0C7" points="418.396,328.801 424.288,326.038 425.669,328.995 419.756,331.759 		"/>
		
			<rect x="426.871" y="327.961" transform="matrix(-0.9058 0.4237 -0.4237 -0.9058 956.9845 449.6845)" fill="#4AA0C7" width="3.263" height="6.532"/>
		<polygon fill="#4AA0C7" points="427.027,331.948 432.943,329.182 434.313,332.141 428.41,334.907 		"/>
		
			<rect x="418.005" y="332.154" transform="matrix(-0.9062 0.4228 -0.4228 -0.9062 941.73 461.9877)" fill="#7FBCD7" width="3.264" height="6.53"/>
		<polygon fill="#7FBCD7" points="422.474,337.67 425.431,336.292 429.54,345.129 426.604,346.51 		"/>
		<polygon fill="#7FBCD7" points="418.951,360.861 421.896,359.501 424.638,365.393 421.698,366.775 		"/>
		<polygon fill="#7FBCD7" points="411.873,353.427 414.829,352.044 418.981,360.903 416.024,362.271 		"/>
	</g>
	<g id="splash_potion">
		<rect x="328.636" y="374.473" fill="#4AA0C7" width="6.509" height="19.563"/>
		<rect x="325.366" y="371.243" fill="#4AA0C7" width="9.78" height="6.509"/>
		<rect x="331.908" y="374.473" fill="#4AA0C7" width="9.78" height="6.54"/>
		<rect x="338.417" y="377.751" fill="#4AA0C7" width="6.508" height="3.263"/>
		<rect x="331.908" y="387.533" fill="#4AA0C7" width="9.78" height="6.51"/>
		<rect x="338.417" y="394.039" fill="#4AA0C7" width="3.27" height="3.27"/>
		<rect x="335.146" y="397.313" fill="#4AA0C7" width="6.546" height="3.252"/>
		<rect x="331.908" y="400.567" fill="#4AA0C7" width="6.51" height="3.252"/>
		<rect x="335.146" y="397.313" fill="#4AA0C7" width="3.271" height="6.511"/>
		<rect x="331.908" y="403.82" fill="#4AA0C7" width="3.232" height="22.82"/>
		<rect x="335.146" y="426.65" fill="#4AA0C7" width="6.546" height="3.239"/>
		<rect x="341.688" y="429.889" fill="#4AA0C7" width="19.545" height="3.269"/>
		<rect x="361.236" y="426.65" fill="#4AA0C7" width="6.522" height="3.239"/>
		<rect x="367.759" y="423.379" fill="#4AA0C7" width="6.509" height="3.258"/>
		<rect x="371.004" y="410.33" fill="#4AA0C7" width="3.262" height="16.324"/>
		<rect x="367.759" y="410.33" fill="#4AA0C7" width="6.509" height="3.271"/>
		<rect x="367.759" y="400.567" fill="#4AA0C7" width="3.24" height="13.032"/>
		<rect x="361.236" y="397.313" fill="#4AA0C7" width="6.522" height="3.252"/>
		<rect x="361.236" y="394.039" fill="#4AA0C7" width="3.246" height="6.528"/>
		<rect x="354.707" y="387.533" fill="#4AA0C7" width="3.271" height="6.51"/>
		<rect x="354.707" y="390.787" fill="#4AA0C7" width="6.532" height="3.249"/>
		<rect x="351.465" y="387.533" fill="#4AA0C7" width="3.238" height="3.255"/>
		<rect x="344.926" y="381.013" fill="#4AA0C7" width="3.272" height="3.242"/>
		<rect x="348.198" y="384.257" fill="#4AA0C7" width="3.267" height="3.271"/>
		<rect x="348.198" y="423.379" fill="#7FBCD7" width="3.267" height="6.511"/>
		<rect x="341.688" y="420.109" fill="#7FBCD7" width="6.511" height="3.269"/>
		<rect x="341.688" y="413.597" fill="#7FBCD7" width="3.231" height="9.779"/>
		<rect x="357.978" y="400.567" fill="#7FBCD7" width="3.256" height="9.763"/>
		<rect x="354.707" y="397.313" fill="#7FBCD7" width="3.271" height="3.252"/>
	</g>
	<g id="splash_potion_1_">
		<rect x="183.364" y="374.473" fill="#4AA0C7" width="6.517" height="19.563"/>
		<rect x="183.364" y="371.243" fill="#4AA0C7" width="9.781" height="6.509"/>
		<rect x="176.836" y="374.473" fill="#4AA0C7" width="9.781" height="6.54"/>
		<rect x="173.585" y="377.751" fill="#4AA0C7" width="6.527" height="3.263"/>
		<rect x="176.836" y="387.533" fill="#4AA0C7" width="9.781" height="6.51"/>
		<rect x="176.836" y="394.039" fill="#4AA0C7" width="3.262" height="3.27"/>
		<rect x="176.836" y="397.313" fill="#4AA0C7" width="6.528" height="3.252"/>
		<rect x="180.112" y="400.567" fill="#4AA0C7" width="6.511" height="3.252"/>
		<rect x="180.112" y="397.313" fill="#4AA0C7" width="3.252" height="6.511"/>
		<rect x="183.364" y="403.82" fill="#4AA0C7" width="3.253" height="22.82"/>
		<rect x="176.836" y="426.65" fill="#4AA0C7" width="6.528" height="3.239"/>
		<rect x="157.282" y="429.889" fill="#4AA0C7" width="19.555" height="3.269"/>
		<rect x="150.77" y="426.65" fill="#4AA0C7" width="6.524" height="3.239"/>
		<rect x="144.248" y="423.379" fill="#4AA0C7" width="6.521" height="3.258"/>
		<rect x="144.248" y="410.33" fill="#4AA0C7" width="3.259" height="16.324"/>
		<rect x="144.248" y="410.33" fill="#4AA0C7" width="6.521" height="3.271"/>
		<rect x="147.518" y="400.567" fill="#4AA0C7" width="3.251" height="13.032"/>
		<rect x="150.77" y="397.313" fill="#4AA0C7" width="6.524" height="3.252"/>
		<rect x="154.023" y="394.039" fill="#4AA0C7" width="3.257" height="6.528"/>
		<rect x="157.282" y="390.787" fill="#4AA0C7" width="6.522" height="3.249"/>
		<rect x="163.804" y="387.533" fill="#4AA0C7" width="3.259" height="3.255"/>
		<rect x="170.331" y="381.013" fill="#4AA0C7" width="3.251" height="3.242"/>
		<rect x="167.062" y="384.257" fill="#4AA0C7" width="3.263" height="3.271"/>
		<rect x="167.062" y="423.379" fill="#7FBCD7" width="3.263" height="6.511"/>
		<rect x="170.331" y="420.109" fill="#7FBCD7" width="6.513" height="3.269"/>
		<rect x="173.585" y="413.597" fill="#7FBCD7" width="3.251" height="9.779"/>
		<rect x="157.282" y="400.567" fill="#7FBCD7" width="3.265" height="9.763"/>
		<rect x="160.55" y="397.313" fill="#7FBCD7" width="3.252" height="3.252"/>
		<rect x="160.55" y="387.533" fill="#4AA0C7" width="3.252" height="6.51"/>
	</g>
</g>
<g>
	<g>
		<path fill="none" d="M51.612,509.8h408.257c27.384,0,49.579-22.202,49.579-49.567V51.976c0-27.379-22.201-49.578-49.579-49.578
			H51.612c-27.379,0-49.578,22.2-49.578,49.578v408.25C2.033,487.609,24.234,509.8,51.612,509.8z"/>
	</g>
</g>
<polyline fill="#FFFFFF" points="195.579,117.476 195.587,126.307 314.833,126.307 314.566,109.173 293.254,111.56 "/>
</svg>
