<?xml version="1.0" encoding="utf-8"?>
<!-- Generator: Adobe Illustrator 16.0.0, SVG Export Plug-In . SVG Version: 6.00 Build 0)  -->
<!DOCTYPE svg PUBLIC "-//W3C//DTD SVG 1.1//EN" "http://www.w3.org/Graphics/SVG/1.1/DTD/svg11.dtd">
<svg version="1.1" id="desire_lines" xmlns="http://www.w3.org/2000/svg" xmlns:xlink="http://www.w3.org/1999/xlink" x="0px"
	 y="0px" width="511.475px" height="511.475px" viewBox="0 0 511.475 511.475" enable-background="new 0 0 511.475 511.475"
	 xml:space="preserve">
<g id="grid" transform="matrix(1.1876553,0,0,1.1876553,579.25835,-183.2473)">
	<g id="g4206" transform="translate(-547.85714,2.6913062e-7)">
		<g id="rect4204">
			<rect x="60.124" y="154.293" fill="#BEE9FD" width="430.527" height="430.528"/>
		</g>
		<g id="g4197">
			<g id="rect4150">
				<rect x="201.986" y="154.293" fill="#4AA0C7" width="5.044" height="430.528"/>
			</g>
			<g id="rect4150-5">
				<rect x="343.847" y="154.293" fill="#4AA0C7" width="5.043" height="430.528"/>
			</g>
			<g id="rect4150-5-7">
				<rect x="60.124" y="439.165" fill="#4AA0C7" width="430.527" height="5.045"/>
			</g>
			<g id="rect4150-5-7-7">
				<rect x="60.124" y="295.707" fill="#4AA0C7" width="430.527" height="5.043"/>
			</g>
		</g>
	</g>
</g>
<g id="Clay_Ball">
	<g>
		<rect x="197.034" y="250.261" fill="#2E627A" width="119.84" height="29.96"/>
		<rect x="226.993" y="210.314" fill="#2E627A" width="59.918" height="39.947"/>
		<rect x="236.979" y="200.328" fill="#2E627A" width="39.948" height="109.852"/>
		<rect x="217.005" y="220.301" fill="#2E627A" width="79.896" height="79.894"/>
		<rect x="207.019" y="230.287" fill="#2E627A" width="99.867" height="59.921"/>
	</g>
	<g>
		<rect x="207.019" y="250.261" fill="#3D83A3" width="99.867" height="29.96"/>
		<rect x="226.993" y="220.301" fill="#3D83A3" width="59.918" height="29.96"/>
		<rect x="236.979" y="210.314" fill="#3D83A3" width="39.948" height="89.881"/>
		<rect x="226.993" y="230.287" fill="#3D83A3" width="59.918" height="59.921"/>
		<rect x="217.005" y="230.287" fill="#3D83A3" width="79.896" height="59.921"/>
	</g>
	<g>
		<rect x="236.979" y="210.314" fill="#4AA0C7" width="19.973" height="79.894"/>
		<rect x="217.005" y="230.287" fill="#4AA0C7" width="59.922" height="19.974"/>
		<rect x="226.993" y="220.301" fill="#4AA0C7" width="39.947" height="59.92"/>
		<rect x="207.019" y="250.261" fill="#4AA0C7" width="59.92" height="29.96"/>
		<rect x="207.019" y="260.248" fill="#4AA0C7" width="69.908" height="9.991"/>
		<rect x="226.993" y="230.287" fill="#4AA0C7" width="39.947" height="59.921"/>
	</g>
</g>
<g id="Blocks">
	<g id="block">
		<path id="rect4153" fill="#387895" d="M371.185,395.431l55.714-30.983l55.763,30.983v65.908l-55.763,30.987l-55.762-30.987
			v-65.908H371.185z"/>
	</g>
	<g id="block_1_">
		<path id="rect4153_1_" fill="#387895" d="M29.978,395.431l55.76-30.983l55.759,30.983v65.911l-55.759,30.984l-55.76-30.984
			V395.431L29.978,395.431z"/>
	</g>
	<g id="block_2_">
		<path id="rect4153_2_" fill="#387895" d="M200.652,395.431l55.762-30.983l55.762,30.983v65.908l-55.762,30.987l-55.762-30.987
			V395.431L200.652,395.431z"/>
	</g>
	<g id="block_3_">
		<path id="rect4153_3_" fill="#387895" d="M200.652,47.354l55.761-30.988l55.761,30.988v65.909l-55.761,30.987l-55.761-30.987
			V47.354L200.652,47.354z"/>
	</g>
	<g id="block_4_">
		<path id="rect4153_4_" fill="#387895" d="M29.999,221.222l55.759-30.988l55.716,30.988v65.908l-55.761,30.987L29.999,287.13
			V221.222z"/>
	</g>
	<g id="block_5_">
		<path id="rect4153_5_" fill="#387895" d="M371.185,221.222l55.76-30.988l55.714,30.988v65.908l-55.76,30.987l-55.762-30.987
			L371.185,221.222L371.185,221.222z"/>
	</g>
	<g id="block_6_">
		<path id="rect4153_6_" fill="#387895" d="M29.978,47.354l55.756-30.986l55.762,30.986v65.91l-55.762,30.987l-55.756-30.987V47.354
			z"/>
	</g>
	<g id="block_7_">
		<path id="rect4153_7_" fill="#387895" d="M371.134,47.355l55.765-30.989l55.763,30.989v65.907l-55.763,30.988l-55.765-30.988
			V47.355z"/>
	</g>
</g>
<g>
	<g>
		<path fill="none" d="M51.682,511.319h411.047c27.575,0,49.925-22.353,49.925-49.921V50.351c0-27.573-22.353-49.924-49.925-49.924
			H51.682c-27.574,0-49.924,22.353-49.924,49.924v411.045C1.757,488.967,24.11,511.319,51.682,511.319z"/>
	</g>
</g>
</svg>
