<?xml version="1.0" encoding="utf-8"?>
<!-- Generator: Adobe Illustrator 16.0.0, SVG Export Plug-In . SVG Version: 6.00 Build 0)  -->
<!DOCTYPE svg PUBLIC "-//W3C//DTD SVG 1.1//EN" "http://www.w3.org/Graphics/SVG/1.1/DTD/svg11.dtd">
<svg version="1.1" id="desire_lines" xmlns="http://www.w3.org/2000/svg" xmlns:xlink="http://www.w3.org/1999/xlink" x="0px"
	 y="0px" width="511.475px" height="511.475px" viewBox="0 0 511.475 511.475" enable-background="new 0 0 511.475 511.475"
	 xml:space="preserve">
<rect fill="#FFFFFF" width="511.473" height="511.474"/>
<g id="Icon">
	<rect id="Ground" y="306.046" fill="#DBECF4" width="511.473" height="205.429"/>
	<g id="Apples">
		<g id="Apple">
			<rect x="378.097" y="239.274" fill="#3D83A3" width="34.346" height="14.315"/>
			<rect x="380.957" y="236.413" fill="#3D83A3" width="28.617" height="22.896"/>
			<rect x="395.267" y="227.826" fill="#3D83A3" width="5.724" height="2.863"/>
			<rect x="386.683" y="233.552" fill="#3D83A3" width="17.172" height="31.477"/>
			<rect x="383.82" y="236.413" fill="#3D83A3" width="22.896" height="25.759"/>
			<rect x="395.264" y="227.828" fill="#3D83A3" width="2.863" height="8.586"/>
			<rect x="398.127" y="224.966" fill="#3D83A3" width="2.861" height="5.724"/>
		</g>
		<g id="Apple_1_">
			<rect x="118.318" y="239.274" fill="#3D83A3" width="34.339" height="14.315"/>
			<rect x="121.181" y="236.413" fill="#3D83A3" width="28.615" height="22.896"/>
			<rect x="135.487" y="227.826" fill="#3D83A3" width="5.723" height="2.863"/>
			<rect x="126.905" y="233.552" fill="#3D83A3" width="17.171" height="31.477"/>
			<rect x="124.042" y="236.413" fill="#3D83A3" width="22.896" height="25.759"/>
			<rect x="135.492" y="227.828" fill="#3D83A3" width="2.862" height="8.586"/>
			<rect x="138.352" y="224.966" fill="#3D83A3" width="2.861" height="5.724"/>
		</g>
		<g id="Apple_2_">
			
				<rect x="354.761" y="366.941" transform="matrix(0.954 -0.2999 0.2999 0.954 -95.5758 130.7982)" fill="#3D83A3" width="47.099" height="19.626"/>
			
				<rect x="359.297" y="362.906" transform="matrix(0.954 -0.2999 0.2999 0.954 -96.0983 131.0567)" fill="#3D83A3" width="39.244" height="31.399"/>
			
				<rect x="363.594" y="353.544" transform="matrix(-0.954 0.2999 -0.2999 -0.954 824.7485 584.4117)" fill="#3D83A3" width="7.85" height="3.929"/>
			
				<rect x="367.68" y="358.976" transform="matrix(0.954 -0.2999 0.2999 0.954 -96.6611 131.3096)" fill="#3D83A3" width="23.554" height="43.174"/>
			
				<rect x="363.775" y="362.857" transform="matrix(0.954 -0.2999 0.2999 0.954 -96.6563 131.3285)" fill="#3D83A3" width="31.399" height="35.33"/>
			
				<rect x="368.632" y="352.665" transform="matrix(0.9538 -0.3003 0.3003 0.9538 -90.5678 127.8384)" fill="#3D83A3" width="3.928" height="11.773"/>
			
				<rect x="363.083" y="350.311" transform="matrix(0.9539 -0.3001 0.3001 0.9539 -89.4908 125.8986)" fill="#3D83A3" width="3.927" height="7.85"/>
		</g>
		<g id="Apple_3_">
			
				<rect x="178.087" y="416.161" transform="matrix(-0.9907 -0.1361 0.1361 -0.9907 353.2106 880.3087)" fill="#3D83A3" width="57.223" height="23.838"/>
			
				<rect x="182.562" y="411.36" transform="matrix(-0.9907 -0.1361 0.1361 -0.9907 352.3108 884.9545)" fill="#3D83A3" width="47.688" height="38.149"/>
			
				<rect x="210.539" y="397.997" transform="matrix(0.9907 0.1363 -0.1363 0.9907 56.5732 -25.6069)" fill="#3D83A3" width="9.538" height="4.773"/>
			
				<rect x="191.755" y="406.575" transform="matrix(-0.9907 -0.1361 0.1361 -0.9907 351.306 889.6212)" fill="#3D83A3" width="28.611" height="52.456"/>
			
				<rect x="186.967" y="411.352" transform="matrix(-0.9907 -0.1361 0.1361 -0.9907 351.2621 889.6344)" fill="#3D83A3" width="38.147" height="42.917"/>
			
				<rect x="209.918" y="397.639" transform="matrix(-0.9906 -0.1365 0.1365 -0.9906 367.3442 834.774)" fill="#3D83A3" width="4.77" height="14.299"/>
			
				<rect x="215.593" y="393.588" transform="matrix(-0.9907 -0.1363 0.1363 -0.9907 379.6132 822.712)" fill="#3D83A3" width="4.771" height="9.537"/>
		</g>
	</g>
	<g id="Apple_Tree">
		<rect x="228.774" y="62.797" fill="#3D83A3" width="50.877" height="305.256"/>
		<rect x="229.414" y="174.088" fill="#3D83A3" width="101.749" height="101.75"/>
		<rect x="77.421" y="174.088" fill="#4AA0C7" width="356.132" height="50.877"/>
		<rect x="127.024" y="123.215" fill="#4AA0C7" width="254.381" height="101.751"/>
		<rect x="178.538" y="62.797" fill="#4AA0C7" width="202.868" height="101.75"/>
	</g>
</g>
<g>
	<g>
		<path fill="none" d="M95.026,455.849h321.422c21.563,0,39.039-17.479,39.039-39.036V95.39c0-21.561-17.479-39.039-39.039-39.039
			H95.026c-21.562,0-39.039,17.479-39.039,39.039V416.81C55.987,438.37,73.466,455.849,95.026,455.849z"/>
	</g>
</g>
</svg>
