<?xml version="1.0" encoding="utf-8"?>
<!-- Generator: Adobe Illustrator 16.0.0, SVG Export Plug-In . SVG Version: 6.00 Build 0)  -->
<!DOCTYPE svg PUBLIC "-//W3C//DTD SVG 1.1//EN" "http://www.w3.org/Graphics/SVG/1.1/DTD/svg11.dtd">
<svg version="1.1"
	 id="svg8" xmlns:inkscape="http://www.inkscape.org/namespaces/inkscape" xmlns:cc="http://creativecommons.org/ns#" xmlns:rdf="http://www.w3.org/1999/02/22-rdf-syntax-ns#" xmlns:sodipodi="http://sodipodi.sourceforge.net/DTD/sodipodi-0.dtd" xmlns:dc="http://purl.org/dc/elements/1.1/" xmlns:svg="http://www.w3.org/2000/svg"
	 xmlns="http://www.w3.org/2000/svg" xmlns:xlink="http://www.w3.org/1999/xlink" x="0px" y="0px" width="511.473px"
	 height="511.473px" viewBox="0 0 511.473 511.473" enable-background="new 0 0 511.473 511.473" xml:space="preserve">
<rect y="-0.002" fill="#FFFFFF" width="511.473" height="511.477"/>
<g>
	<g id="layer1" inkscape:groupmode="layer" inkscape:label="Layer 1">
		<path id="path236" fill="#4AA0C7" d="M106.372,197.313l23.022,241.14l256.645,0.601l24.177-242.277L106.372,197.313z"/>
		<path id="path238_2_" fill="#4AA0C7" d="M157.43,121.369l-49.485,73.344l301.967-0.738l-58.407-74.324L157.43,121.369z"/>
		<path id="path238_3_" fill="#3D83A3" d="M242.652,146.454l-8.04,10.457l49.235-0.101l-9.517-10.594L242.652,146.454z"/>
	</g>
	<g id="layer2" inkscape:groupmode="layer" inkscape:label="Layer 2">
		<path id="path240" sodipodi:nodetypes="ccccc" fill="#FFFFFF" d="M201.418,103.353l110.021,0.046l0.076,91.803l-110.001,0.404
			L201.418,103.353z"/>
		<path id="path600" fill="#FFFFFF" d="M297.585,80.276c-2.456,0-10.86,0-31.084,0.051l0.652,3.978h33.54l-1.765-4.029
			C298.928,80.276,298.928,80.276,297.585,80.276L297.585,80.276z M264.927,80.329c-5.026,0-13.238,0.047-19.976,0.047l-0.479,3.931
			h21.103L264.927,80.329z M243.438,80.375c-9.325,0.054-16.943,0.054-29.851,0.104l-1.271,3.781h30.681L243.438,80.375z
			 M211.72,85.876l-1.956,5.791h32.253l0.729-5.791H211.72z M244.284,85.876l-0.75,5.791h23.162l-0.92-5.791H244.284z
			 M267.384,85.876l0.958,5.791h35.533l-2.494-5.791H267.384z M209.264,93.19l-1.764,5.308l33.671-0.105l0.653-5.203H209.264z
			 M243.343,93.19l-0.634,5.203l63.97-0.195l-2.187-5.007h-35.957l0.768,5.059h-1.572l-0.768-5.008L243.343,93.19z"/>
		<path id="rect1635" fill="#4AA0C7" d="M264.851,79.74l0.729,4.566h-21.105l0.537-4.373h-1.572l-0.539,4.373h-32.408v1.572h32.218
			l-0.749,5.79h-33.08v1.573h32.887l-0.634,5.258h1.574l0.634-5.258h23.617l0.764,5.008h1.572l-0.764-5.059h36.227v-1.573h-36.498
			l-0.92-5.79h34.417v-1.566h-34.656l-0.765-4.565L264.851,79.74z M244.284,85.876h21.527l0.959,5.791h-23.179L244.284,85.876z"/>
		<path id="path238" fill="#4AA0C7" d="M304.378,76.939l-96.281,0.152l-10.265,22.29l0.095,101.866l118.463-0.403v-100.58
			L304.378,76.939z M297.585,80.276c1.343,0,1.343,0,1.343,0l7.751,17.921l-99.179,0.3l6.044-17.972
			C277.554,80.231,293.556,80.231,297.585,80.276L297.585,80.276z M205.691,106.103l103.443,0.051l0.229,85.326l-103.575,0.345
			L205.691,106.103z"/>
	</g>
	<g id="layer3">
		<path id="path238_1_" fill="#4AA0C7" d="M157.43,121.369l-49.485,73.344l301.967-0.738l-58.407-74.324l-35.15,0.299v37.205
			l-118.57,1.381v-37.56L157.43,121.369z"/>
		<polygon fill="#FFFFFF" points="410.216,196.726 106.372,197.313 107.943,194.713 409.908,194.032 		"/>
	</g>
</g>
</svg>
