<?xml version="1.0" encoding="utf-8"?>
<!-- Generator: Adobe Illustrator 16.0.0, SVG Export Plug-In . SVG Version: 6.00 Build 0)  -->
<!DOCTYPE svg PUBLIC "-//W3C//DTD SVG 1.1//EN" "http://www.w3.org/Graphics/SVG/1.1/DTD/svg11.dtd">
<svg version="1.1"
	 id="liquid_tanks" xmlns:cc="http://creativecommons.org/ns#" xmlns:dc="http://purl.org/dc/elements/1.1/" xmlns:inkscape="http://www.inkscape.org/namespaces/inkscape" xmlns:rdf="http://www.w3.org/1999/02/22-rdf-syntax-ns#" xmlns:sodipodi="http://sodipodi.sourceforge.net/DTD/sodipodi-0.dtd" xmlns:svg="http://www.w3.org/2000/svg"
	 xmlns="http://www.w3.org/2000/svg" xmlns:xlink="http://www.w3.org/1999/xlink" x="0px" y="0px" width="511.473px"
	 height="511.473px" viewBox="0 0 511.473 511.473" enable-background="new 0 0 511.473 511.473" xml:space="preserve">
<rect fill="#FFFFFF" width="511.473" height="511.473"/>
<g id="Icon" inkscape:label="Layer 1" inkscape:groupmode="layer">
	<path id="rect4147" sodipodi:nodetypes="ccccccccccccccc" inkscape:connector-curvature="0" fill="#4AA0C7" d="M288.717,432.887
		l-66.548-0.162l-1.459-37.414l-40.548,0.021l-4.604-58.064l-108.835-0.991L51.179,202.548l65.264-93.798H395.02l65.281,94.345
		l-15.563,133.178l-108.824,0.991l-4.269,58.406l-41.092-0.197L288.717,432.887z"/>
	<path id="rect4150" sodipodi:nodetypes="cccc" inkscape:connector-curvature="0" fill="#428FB3" d="M146.145,121.238l5.27,66.591
		H109.91L146.145,121.238z"/>
	<path id="rect4153" sodipodi:nodetypes="ccccc" inkscape:connector-curvature="0" fill="#428FB3" d="M148.26,116.706h215.148
		l-4.688,70.436H152.96L148.26,116.706z"/>
	<path id="rect4150-0" sodipodi:nodetypes="cccc" inkscape:connector-curvature="0" fill="#428FB3" d="M365.801,120.102
		l-5.27,66.585h41.504L365.801,120.102z"/>
	<path id="rect4185" sodipodi:nodetypes="ccccccc" inkscape:connector-curvature="0" fill="#FFFFFF" d="M189.486,126.319h127.057
		l17.082,31.978v27.28H177.062v-25.113L189.486,126.319z"/>
	
		<path id="rect4171" sodipodi:nodetypes="ccccccccccccccccccccccccccccccccccccc" inkscape:connector-curvature="0" fill="#4AA0C7" d="
		M174.304,123.736l11.673-35.123h4.286l133.188,0.213l0.091,1.124l12.287,34.317l-4.098,2.463l-9.722-27.215l-0.671-1.361
		l-1.53,32.565l-3.485-5.244l1.359-32.434l-127.175-0.247l1.016,34.142l-3.66,3.217l-0.428-33.672l-7.808,27.21l156.621,0.039v3.053
		v61.566l-159.575,0.023l0.063-5.545l154.534-0.41l-0.782-54.641l-151.237,0.78l0.021,23.749l9.32-28.134l127.089,0.086l4.718,1.062
		l12.274,29.247l0.234,14.087l-16.161-40.398l-125.046,0.265l-12.43,36.566l0.021,22.727h-4.993L174.304,123.736L174.304,123.736
		L174.304,123.736z"/>
</g>
<g>
	<g>
		<path fill="none" d="M50.472,511.218h410.536c27.533,0,49.848-22.331,49.848-49.845V50.837c0-27.532-22.33-49.855-49.848-49.855
			H50.472c-27.534,0-49.855,22.324-49.855,49.855v410.53C0.617,488.893,22.943,511.218,50.472,511.218z"/>
	</g>
</g>
<polyline fill="#FFFFFF" points="179.284,177.976 179.296,187.035 331.304,187.035 330.952,169.458 303.761,171.91 "/>
</svg>
