<?xml version="1.0" encoding="utf-8"?>
<!-- Generator: Adobe Illustrator 16.0.0, SVG Export Plug-In . SVG Version: 6.00 Build 0)  -->
<!DOCTYPE svg PUBLIC "-//W3C//DTD SVG 1.1//EN" "http://www.w3.org/Graphics/SVG/1.1/DTD/svg11.dtd">
<svg version="1.1" id="desire_lines" xmlns="http://www.w3.org/2000/svg" xmlns:xlink="http://www.w3.org/1999/xlink" x="0px"
	 y="0px" width="511.475px" height="511.475px" viewBox="0 0 511.475 511.475" enable-background="new 0 0 511.475 511.475"
	 xml:space="preserve">
<rect x="1" fill="#FFFFFF" width="511.473" height="511.476"/>
<g id="Icon">
	<g id="Player">
		<path id="path6524" fill="#4AA0C7" d="M429.577,259.672L406.204,227.1l-0.331-15.807l4.291-3.28l-0.657-38.508l20.405,13.157
			l44.097,12.513l8.231-29.955l-39.165-15.807L418.7,127.356l0.338-8.887l5.262,2.637l18.11-56.942l-83.283-28.637l-21.072,51.023
			l12.526,9.539l-0.661,4.278l-17.441,1.973l-26.993,33.589l-2.297,60.229l14.805,4.936l18.438-0.652l-1.295-37.858l5.575-12.18
			l7.595,6.577l4.276,52.348L354.215,235l-40.138,29.31l5.266,24.331l21.072,9.865l35.206-22.699l7.234-9.536l21.068,12.501
			L429.577,259.672z"/>
	</g>
	<g id="Particles">
		<g id="g6772" transform="matrix(1.5407457,0,0,1.5407457,-152.8915,-235.91436)">
			<rect id="rect6580" x="227.857" y="298.165" fill="#367592" width="4.274" height="4.486"/>
			<rect id="rect6580-1" x="260.539" y="298.236" fill="#367592" width="5.561" height="5.826"/>
			<rect id="rect6580-15" x="283.827" y="302.97" fill="#367592" width="4.285" height="4.491"/>
			<rect id="rect6580-5" x="348.356" y="332.454" fill="#367592" width="4.259" height="4.478"/>
			<rect id="rect6580-9" x="319.295" y="298.004" fill="#367592" width="6.405" height="6.728"/>
			<rect id="rect6580-4" x="293.239" y="314.942" fill="#367592" width="3.824" height="4.038"/>
			<rect id="rect6580-6" x="280.406" y="312.587" fill="#367592" width="4.285" height="4.478"/>
			<rect id="rect6580-42" x="283.827" y="310.446" fill="#367592" width="4.285" height="4.491"/>
			<rect id="rect6580-45" x="272.371" y="293.612" fill="#367592" width="5.402" height="5.688"/>
			<rect id="rect6580-2" x="276.145" y="297.839" fill="#367592" width="4.262" height="4.491"/>
			<rect id="rect6580-7" x="279.779" y="322.427" fill="#367592" width="3.42" height="3.604"/>
			<rect id="rect6580-77" x="286.347" y="327.54" fill="#367592" width="2.642" height="2.768"/>
			<rect id="rect6580-8" x="288.297" y="329.142" fill="#367592" width="3.869" height="4.069"/>
			<rect id="rect6580-79" x="280.179" y="334.812" fill="#367592" width="2.803" height="2.907"/>
			<rect id="rect6580-0" x="294.979" y="341.545" fill="#367592" width="5.91" height="6.189"/>
			<rect id="rect6580-0-2" x="304.046" y="347.289" fill="#367592" width="2.055" height="2.159"/>
			<rect id="rect6580-0-20" x="292.147" y="340.239" fill="#367592" width="3.869" height="4.069"/>
			<rect id="rect6580-0-22" x="307.296" y="351.99" fill="#367592" width="2.852" height="3.007"/>
			<rect id="rect6580-0-228" x="306.512" y="359.234" fill="#367592" width="3.113" height="3.262"/>
			<rect id="rect6580-0-228-9" x="327.932" y="346.754" fill="#367592" width="3.452" height="3.639"/>
			<rect id="rect6580-0-228-6" x="301.278" y="336.598" fill="#367592" width="2.054" height="2.159"/>
			<rect id="rect6580-0-228-7" x="298.726" y="328.197" fill="#367592" width="1.406" height="1.484"/>
			<rect id="rect6580-0-228-5" x="305.128" y="313.553" fill="#367592" width="1.62" height="1.7"/>
			<rect id="rect6580-0-228-3" x="342.529" y="335.44" fill="#367592" width="1.827" height="1.928"/>
		</g>
	</g>
	<g id="Footprints">
		<g id="g6762" transform="matrix(1.5407457,0,0,1.5407457,-152.8915,-235.91436)">
			<path id="rect6526" fill="#4AA0C7" d="M194.655,372.222l39.398-8.269l27.548,24.284l-42.153,11.018L194.655,372.222z"/>
			<path id="rect6526-6" fill="#4AA0C7" d="M240.972,439.372l33.335-6.984l23.296,20.535l-35.655,9.317L240.972,439.372z"/>
			<path id="rect6526-8" fill="#4AA0C7" d="M257.515,351.271l25.241-5.285l17.627,15.543l-26.978,7.06L257.515,351.271z"/>
			<path id="rect6526-83" fill="#4AA0C7" d="M335.723,342.159l17.807-3.743l12.452,10.996l-19.058,4.967L335.723,342.159z"/>
			<path id="rect6526-1" fill="#4AA0C7" d="M245.35,316.84l22.234-2.172l13.712,15.057l-23.909,3.525L245.35,316.84z"/>
			<path id="rect6526-13" fill="#4AA0C7" d="M162.42,337.096l34.037-7.149l23.799,20.976l-36.421,9.511L162.42,337.096z"/>
			<path id="rect6526-4" fill="#4AA0C7" d="M119.192,389.421l42.597-8.927l29.78,26.247l-45.573,11.918L119.192,389.421z"/>
			<path id="rect6526-7" fill="#4AA0C7" d="M165.195,433.022l34.674-7.272l24.245,21.359l-37.095,9.696L165.195,433.022z"/>
		</g>
	</g>
</g>
</svg>
