<?xml version="1.0" encoding="utf-8"?>
<!-- Generator: Adobe Illustrator 23.0.6, SVG Export Plug-In . SVG Version: 6.00 Build 0)  -->
<svg version="1.1" id="message_in_a_bottle_1_" xmlns="http://www.w3.org/2000/svg" xmlns:xlink="http://www.w3.org/1999/xlink"
	 x="0px" y="0px" viewBox="0 0 512 512" style="enable-background:new 0 0 512 512;" xml:space="preserve">
<style type="text/css">
	.st0{display:none;}
	.st1{display:inline;fill:#FFFFFF;}
	.st2{fill:#999999;}
	.st3{fill:#E6E6E6;}
	.st4{fill:#888938;}
	.st5{fill:#A8AA49;}
	.st6{fill:#FCFCF3;}
	.st7{fill:#EBEBC9;}
	.st8{fill:#CA0B36;}
	.st9{fill:#AD4521;}
	.st10{fill:#CEB1A7;}
	.st11{fill:#D86D48;}
</style>
<g id="Background" class="st0">
	<rect class="st1" width="512" height="512"/>
</g>
<g id="message_in_a_bottle">
	<rect x="32" y="320" class="st2" width="32" height="96"/>
	<rect x="64" y="416" class="st2" width="32" height="32"/>
	<rect x="96" y="448" class="st2" width="96" height="32"/>
	<rect x="192" y="416" class="st2" width="32" height="32"/>
	<rect x="224" y="384" class="st2" width="32" height="32"/>
	<rect x="256" y="352" class="st2" width="32" height="32"/>
	<rect x="288" y="320" class="st2" width="32" height="32"/>
	<rect x="320" y="288" class="st2" width="32" height="32"/>
	<rect x="352" y="192" class="st2" width="32" height="96"/>
	<rect x="384" y="160" class="st2" width="32" height="32"/>
	<rect x="416" y="128" class="st2" width="32" height="32"/>
	<rect x="352" y="64" class="st3" width="32" height="32"/>
	<rect x="320" y="96" class="st3" width="32" height="32"/>
	<rect x="224" y="128" class="st3" width="96" height="32"/>
	<rect x="192" y="160" class="st3" width="32" height="32"/>
	<rect x="160" y="192" class="st3" width="32" height="32"/>
	<rect x="128" y="224" class="st3" width="32" height="32"/>
	<rect x="96" y="256" class="st3" width="32" height="32"/>
	<rect x="64" y="288" class="st3" width="32" height="32"/>
	<rect x="96" y="416" class="st4" width="64" height="32"/>
	<rect x="160" y="384" class="st4" width="32" height="32"/>
	<rect x="64" y="352" class="st5" width="32" height="64"/>
	<rect x="96" y="320" class="st5" width="32" height="32"/>
	<rect x="160" y="256" class="st5" width="32" height="32"/>
	<rect x="224" y="320" class="st4" width="32" height="32"/>
	<rect x="256" y="288" class="st4" width="32" height="32"/>
	<rect x="224" y="256" class="st4" width="32" height="32"/>
	<rect x="288" y="224" class="st4" width="32" height="64"/>
	<rect x="224" y="192" class="st4" width="64" height="32"/>
	<rect x="256" y="224" class="st4" width="32" height="32"/>
	<rect x="192" y="224" class="st5" width="64" height="32"/>
	<rect x="256" y="256" class="st5" width="32" height="32"/>
	<rect x="160" y="288" class="st6" width="64" height="32"/>
	<rect x="128" y="352" class="st6" width="32" height="32"/>
	<rect x="192" y="256" class="st7" width="32" height="32"/>
	<rect x="224" y="288" class="st7" width="32" height="32"/>
	<rect x="192" y="320" class="st7" width="32" height="32"/>
	<rect x="160" y="352" class="st7" width="32" height="32"/>
	<rect x="128" y="320" class="st7" width="32" height="32"/>
	<rect x="96" y="384" class="st7" width="64" height="32"/>
	<rect x="96" y="352" class="st7" width="32" height="64"/>
	<rect x="192" y="352" class="st8" width="32" height="32"/>
	<rect x="160" y="320" class="st8" width="32" height="32"/>
	<rect x="128" y="288" class="st8" width="32" height="32"/>
	<rect x="384" y="128" class="st9" width="32" height="32"/>
	<rect x="352" y="96" class="st9" width="32" height="32"/>
	<rect x="416" y="96" class="st9" width="32" height="32"/>
	<rect x="384" y="64" class="st9" width="32" height="32"/>
	<rect x="448" y="64" class="st9" width="32" height="32"/>
	<rect x="384" y="96" class="st10" width="32" height="32"/>
	<rect x="416" y="32" class="st11" width="32" height="64"/>
</g>
</svg>
