<?xml version="1.0" encoding="utf-8"?>
<!-- Generator: Adobe Illustrator 16.0.0, SVG Export Plug-In . SVG Version: 6.00 Build 0)  -->
<!DOCTYPE svg PUBLIC "-//W3C//DTD SVG 1.1//EN" "http://www.w3.org/Graphics/SVG/1.1/DTD/svg11.dtd">
<svg version="1.1" id="zauber_liquids" xmlns="http://www.w3.org/2000/svg" xmlns:xlink="http://www.w3.org/1999/xlink" x="0px"
	 y="0px" width="511.473px" height="511.473px" viewBox="0 0 511.473 511.473" enable-background="new 0 0 511.473 511.473"
	 xml:space="preserve">
<rect fill="#FFFFFF" width="511.473" height="511.473"/>
<g>
	<g id="Icon_1_">
		<g id="liquid_tank">
			<path id="rect4147" fill="#4AA0C7" d="M281.227,318.78l-52.205-0.106l-1.148-29.402h-31.83l-3.628-45.538l-85.385-0.75
				L94.81,138.033l51.214-73.561h218.585l51.214,74.005l-12.159,104.505l-85.385,0.75l-3.377,45.831l-32.239-0.145L281.227,318.78z"
				/>
			<path id="rect4150" fill="#428FB3" d="M169.417,74.253l4.125,52.255h-32.583L169.417,74.253z"/>
			<path id="rect4153" fill="#428FB3" d="M171.058,70.677h168.784l-3.68,55.287H174.735L171.058,70.677z"/>
			<path id="rect4150-0" fill="#428FB3" d="M341.717,73.365l-4.112,52.249h32.575L341.717,73.365z"/>
			<path id="rect4171" fill="#4AA0C7" d="M191.47,77.387l9.142-27.572h3.377l104.512,0.154l0.041,0.893l9.634,26.923l-3.168,1.934
				l-7.653-21.357l-0.5-1.094l-1.188,25.533l-2.729-4.126l1.081-25.428l-99.774-0.2l0.789,26.773l-2.876,2.534l-0.352-26.426
				l-6.114,21.357l122.884,0.054v2.38v48.328H193.359l0.049-4.367l121.245-0.35l-0.592-42.863l-118.714,0.695v18.624l7.3-22.05
				l99.745,0.05l3.672,0.842l9.636,22.947l0.208,11.076l-12.682-31.688l-98.094,0.199l-9.73,28.707v17.835h-3.929L191.47,77.387
				L191.47,77.387z"/>
		</g>
		<g id="particles">
			<g id="g4809-5-5-5" transform="matrix(0.8271092,-0.27484904,0.27484904,0.8271092,218.34555,369.73633)">
				<polygon id="rect4651-24-7-2" fill="#4AA0C7" points="-11.281,-15.901 -14.754,-13.984 -16.63,-17.365 -13.154,-19.292 				"/>
				<polygon id="rect4651-9-1-3-0" fill="#4AA0C7" points="-9.699,-21.159 -13.169,-19.251 -15.056,-22.629 -11.57,-24.56 				"/>
				<polygon id="rect4651-9-5-90-2-1" fill="#4AA0C7" points="-15.03,-22.602 -21.979,-18.759 -23.859,-22.148 -16.9,-25.999 				
					"/>
				<polygon id="rect4651-9-5-8-2-9-5" fill="#4AA0C7" points="-16.542,-8.961 -19.918,-7.119 -25.326,-16.956 -21.953,-18.79 				
					"/>
				<polygon id="rect4651-9-5-8-3-5-1-0" fill="#4AA0C7" points="-6,-14.83 -4.119,-11.441 -14.7,-5.585 -16.582,-8.964 				"/>
				<polygon id="rect4651-9-4-7-1-1" fill="#4AA0C7" points="-2.555,-16.744 -6.027,-14.835 -7.909,-18.208 -4.43,-20.144 				"/>
				<polygon id="rect4651-9-5-8-7-1-3-5" fill="#4AA0C7" points="-0.992,-21.924 -4.411,-20.088 -9.831,-29.932 -6.398,-31.814 				
					"/>
				<polygon id="rect4651-9-6-1-3-5" fill="#4AA0C7" points="-9.802,-29.96 -13.284,-28.028 -15.154,-31.428 -11.678,-33.354 				
					"/>
				<polygon id="rect4651-9-5-8-3-0-6-2-7" fill="#4AA0C7" points="-17.036,-34.741 -15.143,-31.376 -25.72,-25.504 
					-27.562,-28.877 				"/>
			</g>
			<g id="g4809-5-5-5_1_" transform="matrix(0.8271092,-0.27484904,0.27484904,0.8271092,218.34555,369.73633)">
				<polygon id="rect4651-24-7-2_1_" fill="#4AA0C7" points="-29.827,-68.871 -31.483,-66.152 -34.277,-67.858 -32.627,-70.581 				
					"/>
				
					<rect id="rect4651-9-1-3-0_1_" x="-29.227" y="-70.992" transform="matrix(-0.5203 0.854 -0.854 -0.5203 -101.2393 -81.8425)" fill="#4AA0C7" width="3.187" height="3.274"/>
				<polygon id="rect4651-9-5-90-2-1_1_" fill="#4AA0C7" points="-26.572,-74.313 -28.223,-71.588 -33.78,-74.973 -32.138,-77.67 
									"/>
				<polygon id="rect4651-9-5-8-2-9-5_1_" fill="#4AA0C7" points="-38.54,-67.067 -41.226,-68.754 -36.403,-76.611 -33.718,-74.982 
									"/>
				<polygon id="rect4651-9-5-8-3-5-1-0_1_" fill="#4AA0C7" points="-30.092,-61.971 -31.738,-59.276 -40.224,-64.402 
					-38.54,-67.137 				"/>
				<polygon id="rect4651-9-4-7-1-1_1_" fill="#4AA0C7" points="-25.665,-62.964 -27.315,-60.269 -30.104,-61.976 -28.464,-64.669 
									"/>
				<polygon id="rect4651-9-5-8-7-1-3-5_1_" fill="#4AA0C7" points="-22.938,-61.323 -25.676,-62.947 -20.804,-70.86 
					-18.119,-69.168 				"/>
				<polygon id="rect4651-9-6-1-3-5_1_" fill="#4AA0C7" points="-19.201,-73.536 -20.846,-70.842 -23.646,-72.55 -21.995,-75.243 
									"/>
				<polygon id="rect4651-9-5-8-3-0-6-2-7_1_" fill="#4AA0C7" points="-20.308,-77.952 -21.998,-75.22 -30.446,-80.387 
					-28.802,-83.082 				"/>
			</g>
			<g id="g4809-5-5-5_2_" transform="matrix(0.8271092,-0.27484904,0.27484904,0.8271092,218.34555,369.73633)">
				<polygon id="rect4651-24-7-2_2_" fill="#4AA0C7" points="20.054,-57.595 18.511,-57.206 18.144,-58.708 19.687,-59.098 				"/>
				<polygon id="rect4651-9-1-3-0_2_" fill="#4AA0C7" points="21.22,-59.468 19.687,-59.104 19.31,-60.581 20.854,-60.97 				"/>
				
					<rect id="rect4651-9-5-90-2-1_2_" x="15.975" y="-61.728" transform="matrix(-0.9713 0.2378 -0.2378 -0.9713 20.1275 -124.3375)" fill="#4AA0C7" width="3.174" height="1.546"/>
				<polygon id="rect4651-9-5-8-2-9-5_2_" fill="#4AA0C7" points="17.284,-55.451 15.802,-55.106 14.705,-59.493 16.244,-59.829 
									"/>
				<polygon id="rect4651-9-5-8-3-5-1-0_2_" fill="#4AA0C7" points="22.004,-56.649 22.352,-55.112 17.643,-53.977 17.284,-55.451 
									"/>
				<polygon id="rect4651-9-4-7-1-1_2_" fill="#4AA0C7" points="23.56,-57.052 22.014,-56.661 21.646,-58.162 23.186,-58.536 				
					"/>
				<polygon id="rect4651-9-5-8-7-1-3-5_2_" fill="#4AA0C7" points="24.695,-58.886 23.151,-58.484 22.107,-62.908 23.601,-63.244 
									"/>
				<polygon id="rect4651-9-6-1-3-5_2_" fill="#4AA0C7" points="22.114,-62.903 20.568,-62.515 20.201,-64.017 21.745,-64.405 				
					"/>
				<polygon id="rect4651-9-5-8-3-0-6-2-7_2_" fill="#4AA0C7" points="19.825,-65.539 20.173,-64.003 15.462,-62.862 
					15.102,-64.336 				"/>
			</g>
			<g id="g4809-5-5-5_3_" transform="matrix(0.8271092,-0.27484904,0.27484904,0.8271092,218.34555,369.73633)">
				<polygon id="rect4651-24-7-2_3_" fill="#4AA0C7" points="-40.148,-117.66 -41.949,-116.15 -43.464,-117.997 -41.673,-119.482 
									"/>
				<polygon id="rect4651-9-1-3-0_3_" fill="#4AA0C7" points="-39.836,-120.951 -41.628,-119.465 -43.153,-121.288 
					-41.356,-122.799 				"/>
				<polygon id="rect4651-9-5-90-2-1_3_" fill="#4AA0C7" points="-35.014,-118.811 -36.809,-117.329 -39.863,-120.979 
					-38.058,-122.487 				"/>
				<polygon id="rect4651-9-5-8-2-9-5_3_" fill="#4AA0C7" points="-36.845,-117.353 -35.364,-115.545 -40.525,-111.232 
					-42.018,-113.016 				"/>
				<polygon id="rect4651-9-5-8-3-5-1-0_3_" fill="#4AA0C7" points="-41.969,-113.013 -43.757,-111.529 -48.37,-117.102 
					-46.635,-118.588 				"/>
				<polygon id="rect4651-9-4-7-1-1_3_" fill="#4AA0C7" points="-44.81,-120.041 -46.603,-118.557 -48.131,-120.38 
					-46.337,-121.865 				"/>
				<polygon id="rect4651-9-5-8-7-1-3-5_3_" fill="#4AA0C7" points="-42.664,-128.014 -41.171,-126.231 -46.333,-121.921 
					-47.823,-123.666 				"/>
				<polygon id="rect4651-9-6-1-3-5_3_" fill="#4AA0C7" points="-37.872,-125.87 -39.682,-124.359 -41.201,-126.213 
					-39.408,-127.697 				"/>
				<polygon id="rect4651-9-5-8-3-0-6-2-7_3_" fill="#4AA0C7" points="-31.488,-121.761 -33.273,-120.278 -37.893,-125.893 
					-36.104,-127.333 				"/>
			</g>
			<g id="g4809-5-5-5_4_" transform="matrix(0.8271092,-0.27484904,0.27484904,0.8271092,218.34555,369.73633)">
				<polygon id="rect4651-24-7-2_4_" fill="#4AA0C7" points="99.157,14.281 97.012,17.085 94.152,14.85 96.29,12.061 				"/>
				<polygon id="rect4651-9-1-3-0_4_" fill="#4AA0C7" points="98.44,9.286 96.277,12.064 93.42,9.845 95.574,7.067 				"/>
				<polygon id="rect4651-9-5-90-2-1_4_" fill="#4AA0C7" points="106.322,10.966 104.158,13.741 98.425,9.303 100.587,6.527 				"/>
				<polygon id="rect4651-9-5-8-2-9-5_4_" fill="#4AA0C7" points="104.202,13.733 107,15.88 100.735,24.021 97.893,21.832 				"/>
				<polygon id="rect4651-9-5-8-3-5-1-0_4_" fill="#4AA0C7" points="97.959,21.88 95.818,24.656 87.073,17.865 89.259,15.071 				
					"/>
				<polygon id="rect4651-9-4-7-1-1_4_" fill="#4AA0C7" points="91.398,12.31 89.233,15.091 86.368,12.869 88.533,10.088 				"/>
				<polygon id="rect4651-9-5-8-7-1-3-5_4_" fill="#4AA0C7" points="91.99,-0.184 94.765,1.955 88.519,10.107 85.74,7.923 				"/>
				<polygon id="rect4651-9-6-1-3-5_4_" fill="#4AA0C7" points="99.799,1.376 97.635,4.15 94.772,1.926 96.936,-0.851 				"/>
				<polygon id="rect4651-9-5-8-3-0-6-2-7_4_" fill="#4AA0C7" points="110.679,5.384 108.529,8.177 99.844,1.421 101.968,-1.356 
									"/>
			</g>
			<g id="g4809-5-5-5_5_" transform="matrix(0.8271092,-0.27484904,0.27484904,0.8271092,218.34555,369.73633)">
				<polygon id="rect4651-24-7-2_5_" fill="#4AA0C7" points="63.21,-16.842 61.404,-16.84 61.425,-18.678 63.199,-18.675 				"/>
				<polygon id="rect4651-9-1-3-0_5_" fill="#4AA0C7" points="64.991,-18.677 63.216,-18.686 63.21,-20.512 64.988,-20.522 				"/>
				<polygon id="rect4651-9-5-90-2-1_5_" fill="#4AA0C7" points="66.77,-15.015 64.99,-15.005 64.974,-18.673 66.781,-18.678 				
					"/>
				<polygon id="rect4651-9-5-8-2-9-5_5_" fill="#4AA0C7" points="65.017,-14.981 65.018,-13.185 59.806,-13.178 59.805,-14.981 
									"/>
				<polygon id="rect4651-9-5-8-3-5-1-0_5_" fill="#4AA0C7" points="59.805,-14.981 58.024,-14.973 58.024,-20.593 59.797,-20.586 
									"/>
				<polygon id="rect4651-9-4-7-1-1_5_" fill="#4AA0C7" points="61.607,-20.568 59.804,-20.579 59.828,-22.406 61.612,-22.411 				
					"/>
				<polygon id="rect4651-9-5-8-7-1-3-5_5_" fill="#4AA0C7" points="66.803,-24.204 66.811,-22.425 61.602,-22.426 61.592,-24.203 
									"/>
				<polygon id="rect4651-9-6-1-3-5_5_" fill="#4AA0C7" points="68.607,-20.597 66.825,-20.59 66.822,-22.436 68.609,-22.443 				
					"/>
				<polygon id="rect4651-9-5-8-3-0-6-2-7_5_" fill="#4AA0C7" points="70.372,-14.974 68.59,-14.965 68.593,-20.588 70.399,-20.587 
									"/>
			</g>
			<g id="g4809-5-5-5_6_" transform="matrix(0.8271092,-0.27484904,0.27484904,0.8271092,218.34555,369.73633)">
				<polygon id="rect4651-24-7-2_6_" fill="#4AA0C7" points="45.958,26.152 43.537,26.154 43.514,23.616 45.963,23.622 				"/>
				<polygon id="rect4651-9-1-3-0_6_" fill="#4AA0C7" points="48.381,23.629 45.961,23.628 45.946,21.092 48.391,21.101 				"/>
				<polygon id="rect4651-9-5-90-2-1_6_" fill="#4AA0C7" points="50.847,28.654 48.426,28.656 48.412,23.635 50.86,23.641 				"/>
				<polygon id="rect4651-9-5-8-2-9-5_6_" fill="#4AA0C7" points="48.428,28.644 48.429,31.063 41.333,31.067 41.331,28.647 				"/>
				<polygon id="rect4651-9-5-8-3-5-1-0_6_" fill="#4AA0C7" points="41.33,28.686 38.886,28.678 38.887,21.037 41.34,21.029 				"/>
				<polygon id="rect4651-9-4-7-1-1_6_" fill="#4AA0C7" points="43.815,21.047 41.37,21.037 41.38,18.512 43.801,18.514 				"/>
				<polygon id="rect4651-9-5-8-7-1-3-5_6_" fill="#4AA0C7" points="50.866,16.077 50.864,18.502 43.764,18.551 43.768,16.124 				
					"/>
				
					<rect id="rect4651-9-6-1-3-5_6_" x="50.87" y="18.507" transform="matrix(-1 -0.0028 0.0028 -1 104.1272 39.6899)" fill="#4AA0C7" width="2.444" height="2.528"/>
				<polygon id="rect4651-9-5-8-3-0-6-2-7_6_" fill="#4AA0C7" points="55.723,28.627 53.302,28.637 53.305,21.034 55.723,21.036 
									"/>
			</g>
			<g id="g4809-5-5-5_7_" transform="matrix(0.8271092,-0.27484904,0.27484904,0.8271092,218.34555,369.73633)">
				<polygon id="rect4651-24-7-2_7_" fill="#4AA0C7" points="107.296,-26.234 104.764,-24.142 102.63,-26.749 105.153,-28.846 				
					"/>
				<polygon id="rect4651-9-1-3-0_7_" fill="#4AA0C7" points="111.969,-25.664 109.449,-23.573 107.31,-26.181 109.83,-28.269 				
					"/>
				
					<rect id="rect4651-9-5-90-2-1_7_" x="107.285" y="-35.284" transform="matrix(-0.7738 0.6335 -0.6335 -0.7738 172.9904 -125.644)" fill="#4AA0C7" width="3.293" height="6.706"/>
				<polygon id="rect4651-9-5-8-2-9-5_7_" fill="#4AA0C7" points="98.199,-27.44 96.102,-29.979 103.522,-35.987 105.549,-33.452 
									"/>
				<polygon id="rect4651-9-5-8-3-5-1-0_7_" fill="#4AA0C7" points="104.708,-19.552 102.164,-17.502 95.662,-25.408 
					98.203,-27.493 				"/>
				<polygon id="rect4651-9-4-7-1-1_7_" fill="#4AA0C7" points="109.357,-19.026 106.82,-16.966 104.682,-19.576 107.22,-21.638 
									"/>
				<polygon id="rect4651-9-5-8-7-1-3-5_7_" fill="#4AA0C7" points="111.362,-16.458 109.334,-19.033 116.729,-25.05 
					118.755,-22.518 				"/>
				<polygon id="rect4651-9-6-1-3-5_7_" fill="#4AA0C7" points="119.265,-27.085 116.725,-25.012 114.586,-27.621 117.132,-29.711 
									"/>
				<polygon id="rect4651-9-5-8-3-0-6-2-7_7_" fill="#4AA0C7" points="119.607,-31.762 117.071,-29.737 110.563,-37.621 
					113.108,-39.717 				"/>
			</g>
			<g id="g4809-5-5-5_8_" transform="matrix(0.8271092,-0.27484904,0.27484904,0.8271092,218.34555,369.73633)">
				<polygon id="rect4651-24-7-2_8_" fill="#4AA0C7" points="169.632,-15.389 168.282,-13.587 166.582,-14.877 167.909,-16.667 				
					"/>
				<polygon id="rect4651-9-1-3-0_8_" fill="#4AA0C7" points="169.266,-18.427 167.935,-16.64 166.224,-17.908 167.574,-19.714 				
					"/>
				<polygon id="rect4651-9-5-90-2-1_8_" fill="#4AA0C7" points="166.175,-17.924 163.519,-14.386 161.828,-15.673 164.472,-19.212 
									"/>
				<polygon id="rect4651-9-5-8-2-9-5_8_" fill="#4AA0C7" points="168.535,-10.65 167.238,-8.977 162.282,-12.692 163.514,-14.42 
									"/>
				<polygon id="rect4651-9-5-8-3-5-1-0_8_" fill="#4AA0C7" points="172.516,-16.025 174.25,-14.762 170.208,-9.362 168.535,-10.65 
									"/>
				<polygon id="rect4651-9-4-7-1-1_8_" fill="#4AA0C7" points="173.908,-17.814 172.568,-16.031 170.865,-17.291 172.18,-19.089 
									"/>
				<polygon id="rect4651-9-5-8-7-1-3-5_8_" fill="#4AA0C7" points="173.457,-20.783 172.152,-19.093 167.138,-22.836 
					168.431,-24.55 				"/>
				<polygon id="rect4651-9-6-1-3-5_8_" fill="#4AA0C7" points="167.167,-22.825 165.825,-21.011 164.106,-22.304 165.445,-24.089 
									"/>
				<polygon id="rect4651-9-5-8-3-0-6-2-7_8_" fill="#4AA0C7" points="162.369,-23.631 164.112,-22.327 160.09,-16.951 
					158.399,-18.252 				"/>
			</g>
			<g id="g4809-5-5-5_9_" transform="matrix(0.8271092,-0.27484904,0.27484904,0.8271092,218.34555,369.73633)">
				<polygon id="rect4651-24-7-2_9_" fill="#4AA0C7" points="195.177,-44.588 193.462,-44.117 192.955,-45.888 194.681,-46.382 				
					"/>
				
					<rect id="rect4651-9-1-3-0_9_" x="190.95" y="-47.417" transform="matrix(-0.9613 0.2754 -0.2754 -0.9613 363.4733 -144.0313)" fill="#4AA0C7" width="1.794" height="1.832"/>
				
					<rect id="rect4651-9-5-90-2-1_9_" x="189.996" y="-45.21" transform="matrix(-0.9613 0.2755 -0.2755 -0.9613 362.4428 -137.674)" fill="#4AA0C7" width="1.792" height="3.665"/>
				<polygon id="rect4651-9-5-8-2-9-5_9_" fill="#4AA0C7" points="197.297,-43.292 197.725,-41.539 192.731,-40.118 
					192.277,-41.852 				"/>
				<polygon id="rect4651-9-5-8-3-5-1-0_9_" fill="#4AA0C7" points="195.754,-48.638 197.448,-49.102 198.988,-43.731 
					197.29,-43.23 				"/>
				<polygon id="rect4651-9-4-7-1-1_9_" fill="#4AA0C7" points="195.755,-48.657 194.04,-48.186 193.534,-49.948 195.259,-50.446 
									"/>
				<polygon id="rect4651-9-5-8-7-1-3-5_9_" fill="#4AA0C7" points="193.022,-51.644 193.524,-49.902 188.503,-48.497 188,-50.238 
									"/>
				
					<rect id="rect4651-9-6-1-3-5_9_" x="186.968" y="-48.286" transform="matrix(-0.9614 0.2752 -0.2752 -0.9614 355.4445 -144.6053)" fill="#4AA0C7" width="1.797" height="1.833"/>
				<polygon id="rect4651-9-5-8-3-0-6-2-7_9_" fill="#4AA0C7" points="185.561,-45.758 187.304,-46.258 188.84,-40.85 
					187.097,-40.347 				"/>
			</g>
		</g>
		<g id="potion">
			<rect x="236.282" y="431.486" fill="#4AA0C7" width="3.272" height="22.79"/>
			<rect x="236.282" y="451.001" fill="#4AA0C7" width="6.505" height="3.275"/>
			<rect x="239.553" y="454.276" fill="#4AA0C7" width="6.506" height="3.274"/>
			<rect x="239.553" y="451.001" fill="#4AA0C7" width="3.272" height="6.505"/>
			<rect x="246.059" y="457.559" fill="#4AA0C7" width="26.076" height="3.279"/>
			<rect x="272.133" y="454.276" fill="#4AA0C7" width="6.508" height="3.274"/>
			<rect x="275.408" y="451.001" fill="#4AA0C7" width="3.271" height="6.505"/>
			<rect x="275.408" y="451.001" fill="#4AA0C7" width="6.505" height="3.275"/>
			<rect x="278.641" y="431.486" fill="#4AA0C7" width="3.274" height="22.79"/>
			<rect x="272.133" y="428.205" fill="#4AA0C7" width="6.508" height="3.281"/>
			<rect x="272.133" y="424.912" fill="#4AA0C7" width="3.275" height="6.515"/>
			<rect x="265.628" y="421.699" fill="#4AA0C7" width="6.505" height="3.276"/>
			<rect x="262.355" y="405.856" fill="#4AA0C7" width="3.272" height="15.843"/>
			<rect x="246.059" y="402.125" fill="#4AA0C7" width="26.076" height="6.506"/>
			<rect x="252.566" y="395.619" fill="#4AA0C7" width="13.02" height="7.905"/>
			<rect x="252.566" y="405.856" fill="#4AA0C7" width="3.284" height="15.843"/>
			<rect x="246.059" y="421.699" fill="#4AA0C7" width="6.506" height="3.276"/>
			<rect x="242.784" y="424.912" fill="#4AA0C7" width="3.274" height="6.515"/>
			<rect x="239.553" y="428.205" fill="#4AA0C7" width="6.506" height="3.281"/>
			<rect x="252.566" y="424.912" fill="#7FBCD7" width="3.284" height="6.515"/>
			<rect x="249.334" y="431.486" fill="#7FBCD7" width="3.28" height="9.776"/>
			<rect x="262.355" y="451.001" fill="#7FBCD7" width="3.272" height="6.505"/>
			<rect x="265.628" y="441.264" fill="#7FBCD7" width="3.271" height="9.779"/>
		</g>
		<g id="potion_1_">
			<polygon fill="#4AA0C7" points="82.052,331.64 72.418,352.305 69.445,350.912 79.077,330.247 			"/>
			
				<rect x="71.378" y="347.495" transform="matrix(0.422 -0.9066 0.9066 0.422 -275.7787 268.9164)" fill="#4AA0C7" width="3.281" height="6.507"/>
			<polygon fill="#4AA0C7" points="78.274,355.03 76.886,358.004 70.99,355.251 72.374,352.284 			"/>
			<polygon fill="#4AA0C7" points="76.697,350.735 73.945,356.623 70.976,355.238 73.728,349.342 			"/>
			<polygon fill="#4AA0C7" points="100.549,368.99 99.164,371.965 75.523,360.948 76.909,357.989 			"/>
			<polygon fill="#4AA0C7" points="107.861,368.771 106.477,371.729 100.578,368.985 101.96,366.012 			"/>
			<polygon fill="#4AA0C7" points="109.247,365.86 106.5,371.765 103.522,370.38 106.275,364.476 			"/>
			<polygon fill="#4AA0C7" points="112.143,367.221 110.757,370.191 104.86,367.437 106.244,364.464 			"/>
			<polygon fill="#4AA0C7" points="120.418,349.576 110.786,370.241 107.81,368.846 117.446,348.182 			"/>
			
				<rect x="113.539" y="342.038" transform="matrix(0.4231 -0.9061 0.9061 0.4231 -246.4115 303.55)" fill="#4AA0C7" width="3.281" height="6.5"/>
			<polygon fill="#4AA0C7" points="117.282,340.893 114.534,346.786 111.563,345.408 114.309,339.508 			"/>
			<polygon fill="#4AA0C7" points="115.677,336.456 114.294,339.43 108.395,336.682 109.784,333.708 			"/>
			<polygon fill="#4AA0C7" points="116.516,319.414 109.819,333.766 106.847,332.395 113.543,318.019 			"/>
			<polygon fill="#4AA0C7" points="123.96,318.785 121.208,324.671 97.578,313.668 100.326,307.759 			"/>
			<polygon fill="#4AA0C7" points="120.769,310.141 117.428,317.298 105.639,311.784 108.975,304.628 			"/>
			<polygon fill="#4AA0C7" points="107.642,315.257 100.947,329.605 97.978,328.236 104.672,313.864 			"/>
			
				<rect x="92.678" y="325.051" transform="matrix(0.4235 -0.9059 0.9059 0.4235 -243.0332 274.7131)" fill="#4AA0C7" width="3.281" height="6.501"/>
			<polygon fill="#4AA0C7" points="90.761,328.513 88.012,334.4 85.041,333.028 87.787,327.12 			"/>
			<polygon fill="#4AA0C7" points="89.29,331.416 87.908,334.39 82.006,331.645 83.396,328.671 			"/>
			<polygon fill="#7FBCD7" points="99.557,332.605 96.809,338.518 93.833,337.125 96.587,331.234 			"/>
			<polygon fill="#7FBCD7" points="93.869,337.087 89.73,345.95 86.76,344.555 90.897,335.693 			"/>
			<polygon fill="#7FBCD7" points="97.421,360.368 94.673,366.254 91.7,364.878 94.453,358.973 			"/>
			<polygon fill="#7FBCD7" points="104.505,352.823 100.371,361.69 97.398,360.297 101.537,351.43 			"/>
		</g>
		<g id="potion_2_">
			<polygon fill="#4AA0C7" points="446.755,351.109 443.782,352.48 434.153,331.817 437.128,330.45 			"/>
			<polygon fill="#4AA0C7" points="446.791,351.181 440.896,353.929 439.509,350.971 445.406,348.208 			"/>
			
				<rect x="438.342" y="353.648" transform="matrix(0.9064 -0.4225 0.4225 0.9064 -108.7553 219.8201)" fill="#4AA0C7" width="6.5" height="3.282"/>
			<polygon fill="#4AA0C7" points="445.216,355.414 442.257,356.783 439.497,350.894 442.471,349.501 			"/>
			<polygon fill="#4AA0C7" points="440.685,361.205 417.055,372.227 415.671,369.255 439.305,358.247 			"/>
			<polygon fill="#4AA0C7" points="415.617,369.273 409.712,372.035 408.332,369.068 414.231,366.313 			"/>
			<polygon fill="#4AA0C7" points="412.755,370.66 409.786,372.054 407.032,366.143 409.992,364.771 			"/>
			<polygon fill="#4AA0C7" points="411.391,367.701 405.504,370.465 404.108,367.493 410.011,364.737 			"/>
			<polygon fill="#4AA0C7" points="408.453,369.069 405.479,370.436 395.864,349.766 398.836,348.398 			"/>
			<polygon fill="#4AA0C7" points="404.695,345.553 398.795,348.301 397.416,345.326 403.311,342.578 			"/>
			<polygon fill="#4AA0C7" points="404.639,345.583 401.665,346.977 398.916,341.08 401.891,339.693 			"/>
			<polygon fill="#4AA0C7" points="407.777,336.937 401.889,339.686 400.495,336.713 406.407,333.965 			"/>
			<polygon fill="#4AA0C7" points="409.449,332.633 406.476,334.013 399.783,319.665 402.749,318.271 			"/>
			<polygon fill="#4AA0C7" points="418.632,313.955 394.995,324.983 392.249,319.071 415.879,308.064 			"/>
			<polygon fill="#4AA0C7" points="410.552,311.987 398.76,317.483 395.412,310.324 407.211,304.832 			"/>
			<polygon fill="#4AA0C7" points="418.273,328.404 415.301,329.8 408.606,315.428 411.577,314.058 			"/>
			
				<rect x="418.718" y="326.916" transform="matrix(0.9067 -0.4218 0.4218 0.9067 -99.2064 208.6328)" fill="#4AA0C7" width="6.511" height="3.277"/>
			<polygon fill="#4AA0C7" points="431.254,333.191 428.28,334.574 425.532,328.672 428.499,327.279 			"/>
			<polygon fill="#4AA0C7" points="434.163,331.882 428.276,334.629 426.882,331.656 432.785,328.908 			"/>
			<polygon fill="#7FBCD7" points="422.349,337.264 419.383,338.658 416.628,332.761 419.594,331.375 			"/>
			<polygon fill="#7FBCD7" points="429.477,344.791 426.517,346.185 422.38,337.313 425.353,335.928 			"/>
			
				<rect x="420.057" y="359.612" transform="matrix(0.9051 -0.4252 0.4252 0.9051 -114.2698 213.7399)" fill="#7FBCD7" width="3.284" height="6.505"/>
			<polygon fill="#7FBCD7" points="418.76,360.555 415.785,361.95 411.648,353.084 414.626,351.691 			"/>
		</g>
		<g id="prismarine_shard">
			<rect x="318.781" y="361.298" fill="#4AA0C7" width="4.461" height="22.354"/>
			<rect x="323.242" y="361.298" fill="#4AA0C7" width="4.476" height="4.461"/>
			<rect x="327.718" y="365.759" fill="#4AA0C7" width="8.932" height="4.482"/>
			<rect x="336.649" y="370.241" fill="#4AA0C7" width="8.947" height="4.463"/>
			<rect x="314.298" y="370.241" fill="#4AA0C7" width="4.483" height="4.463"/>
			<rect x="345.597" y="374.705" fill="#4AA0C7" width="4.468" height="8.946"/>
			<rect x="345.597" y="374.705" fill="#4AA0C7" width="8.945" height="4.476"/>
			<rect x="354.542" y="379.18" fill="#4AA0C7" width="8.938" height="4.471"/>
			<rect x="363.48" y="383.647" fill="#4AA0C7" width="8.928" height="4.459"/>
			<rect x="363.48" y="383.647" fill="#4AA0C7" width="4.468" height="13.412"/>
			<rect x="359.004" y="397.059" fill="#4AA0C7" width="4.477" height="8.945"/>
			<rect x="354.542" y="406.005" fill="#4AA0C7" width="4.461" height="4.46"/>
			<rect x="350.064" y="410.466" fill="#4AA0C7" width="4.478" height="4.477"/>
			<rect x="341.135" y="414.942" fill="#4AA0C7" width="8.93" height="4.469"/>
			<rect x="336.649" y="410.466" fill="#4AA0C7" width="4.484" height="4.477"/>
			<rect x="332.187" y="401.534" fill="#4AA0C7" width="4.46" height="8.931"/>
			<rect x="327.718" y="392.593" fill="#4AA0C7" width="4.47" height="8.941"/>
			<rect x="323.242" y="383.647" fill="#4AA0C7" width="4.476" height="8.945"/>
		</g>
		<g id="prismarine_crystal">
			<rect x="135.99" y="401.534" fill="#4AA0C7" width="4.471" height="17.877"/>
			<rect x="135.99" y="414.942" fill="#4AA0C7" width="17.882" height="4.469"/>
			<rect x="153.872" y="410.466" fill="#4AA0C7" width="35.763" height="4.477"/>
			<rect x="189.634" y="406.005" fill="#4AA0C7" width="4.472" height="4.46"/>
			<rect x="194.106" y="401.534" fill="#4AA0C7" width="4.471" height="4.471"/>
			<rect x="189.634" y="397.059" fill="#4AA0C7" width="4.472" height="4.475"/>
			<rect x="162.81" y="392.593" fill="#4AA0C7" width="26.825" height="4.467"/>
			<rect x="162.81" y="392.593" fill="#4AA0C7" width="4.472" height="13.412"/>
			<rect x="162.81" y="392.593" fill="#4AA0C7" width="8.944" height="8.941"/>
			<rect x="158.347" y="406.005" fill="#4AA0C7" width="4.463" height="4.46"/>
			<rect x="140.461" y="397.059" fill="#4AA0C7" width="4.466" height="4.475"/>
			<rect x="144.929" y="392.593" fill="#4AA0C7" width="4.473" height="4.467"/>
			<rect x="149.402" y="388.108" fill="#4AA0C7" width="31.288" height="4.484"/>
			<rect x="180.689" y="379.18" fill="#4AA0C7" width="4.473" height="8.932"/>
			<rect x="149.402" y="383.647" fill="#4AA0C7" width="4.47" height="8.945"/>
			<rect x="144.929" y="379.18" fill="#4AA0C7" width="4.473" height="4.471"/>
			<rect x="149.402" y="374.705" fill="#4AA0C7" width="4.47" height="4.476"/>
			<rect x="153.872" y="370.241" fill="#4AA0C7" width="13.41" height="4.463"/>
			<rect x="167.28" y="374.705" fill="#4AA0C7" width="13.409" height="4.476"/>
		</g>
	</g>
	<polyline fill="#FFFFFF" points="303.225,80.964 205.13,81.164 195.4,109.869 195.4,123.674 314.651,123.329 314.458,108.849 	"/>
</g>
<polyline fill="#FFFFFF" points="314.546,116.621 314.651,125.963 195.4,125.963 195.4,116.256 211.227,111.123 "/>
</svg>
