<?xml version="1.0" encoding="utf-8"?>
<!-- Generator: Adobe Illustrator 16.0.0, SVG Export Plug-In . SVG Version: 6.00 Build 0)  -->
<!DOCTYPE svg PUBLIC "-//W3C//DTD SVG 1.1//EN" "http://www.w3.org/Graphics/SVG/1.1/DTD/svg11.dtd">
<svg version="1.1" id="phantom_scarecrows" xmlns="http://www.w3.org/2000/svg" xmlns:xlink="http://www.w3.org/1999/xlink" x="0px"
	 y="0px" width="511.473px" height="511.473px" viewBox="0 0 511.473 511.473" enable-background="new 0 0 511.473 511.473"
	 xml:space="preserve">
<rect fill="#FFFFFF" width="511.473" height="511.473"/>
<g>
	<path fill="#A1CEE2" d="M371.579,345.432l-71.396-10.125v-2.855h-33.679v-40.365H253.09v40.365h-34.352v2.783l-71.896,10.187
		l1.71,12.11l70.187-9.962v6.038l3.594,1.35h16.914v42.382l-4.746-0.052l-1.643,0.652l0.001,14.951l7.408-0.022l0.249,72.646
		l12.874,0.034l0.474-72.693l11.302-0.014l0.651,72.679l13.469,0.085l-0.629-72.787l7.389-0.007l0.033-14.885l-1.596-0.694
		l-4.718-0.011v-42.268h16.763l3.658-1.349v-5.966l69.689,9.903L371.579,345.432z M252.837,397.172v-42.217h12.056v42.242
		L252.837,397.172z"/>
	<g id="Icon">
		<g id="Phantom_Outlines">
			<polygon id="Phantom_Outline" fill="#A1CEE2" points="427.787,110.686 423.878,110.686 415.516,105.111 412.749,105.111 
				407.726,113.468 404.93,113.468 398.823,125.168 394.359,124.61 392.119,122.942 392.688,119.04 396.585,110.686 
				396.585,106.226 396.585,103.998 399.938,97.872 388.236,94.526 387.123,93.412 387.123,88.96 386.01,88.403 384.896,85.616 
				379.874,85.616 378.762,84.504 373.199,83.947 372.084,82.832 371.513,80.042 367.062,79.486 365.948,78.374 360.925,78.374 
				359.273,80.6 355.36,80.042 352.023,79.486 350.911,78.374 350.338,80.042 348.685,81.714 345.887,81.714 344.229,81.157 
				343.661,82.832 342.55,84.504 339.21,85.06 337.524,83.391 337.524,79.486 345.887,46.624 347.572,44.952 352.023,44.952 
				411.063,70.021 416.631,61.665 420.538,61.665 436.137,70.578 438.369,72.803 440.028,76.147 440.028,78.929 436.137,83.947 
				473.464,108.459 475.688,111.242 476.241,114.583 472.903,117.925 472.351,117.925 457.312,132.966 453.412,132.966 
				452.3,131.294 451.729,124.055 448.39,121.272 448.39,117.925 447.277,116.812 447.277,116.256 445.052,115.699 443.371,114.583 
				438.915,114.583 436.137,110.686 435.024,111.242 432.239,107.9 430.013,107.9 			"/>
			<polygon id="Phantom_Outline_1_" fill="#A1CEE2" points="94.096,110.129 97.995,110.129 106.352,104.555 109.141,104.555 
				114.148,112.91 116.94,112.91 123.064,124.61 127.519,124.055 129.752,122.386 129.193,118.481 125.292,110.129 125.292,105.668 
				125.292,103.443 121.946,97.316 133.647,93.97 134.76,92.855 134.76,88.403 135.874,87.845 136.992,85.06 142.007,85.06 
				143.123,83.947 148.686,83.391 149.806,82.274 150.36,79.486 154.819,78.929 155.935,77.817 160.941,77.817 162.61,80.042 
				166.518,79.486 169.86,78.929 170.974,77.817 171.529,79.486 173.199,81.157 175.98,81.157 177.655,80.6 178.211,82.274 
				179.325,83.947 182.673,84.504 184.342,82.832 184.342,78.929 175.98,46.066 174.312,44.394 169.86,44.394 110.809,69.462 
				105.238,61.107 101.334,61.107 85.74,70.021 83.513,72.247 81.84,75.589 81.84,78.374 85.74,83.391 48.414,107.9 46.189,110.686 
				45.632,114.025 48.969,117.369 49.526,117.369 64.569,132.408 68.47,132.408 69.589,130.737 70.145,123.499 73.483,120.712 
				73.483,117.369 74.596,116.256 74.596,115.699 76.828,115.141 78.501,114.025 82.958,114.025 85.74,110.129 86.853,110.686 
				89.637,107.34 91.869,107.34 			"/>
		</g>
		<g id="Particles">
			<g id="Particle_8_">
				<polygon fill="#A1CEE2" points="426.121,137.86 424.94,138.572 424.212,137.377 425.424,136.666 				"/>
				<polygon fill="#A1CEE2" points="426.671,135.862 425.461,136.575 424.753,135.378 425.94,134.665 				"/>
				<polygon fill="#A1CEE2" points="424.17,137.285 422.969,137.999 422.263,136.803 423.456,136.089 				"/>
				
					<rect x="424.03" y="138.83" transform="matrix(0.8589 -0.5121 0.5121 0.8589 -11.5312 237.1987)" fill="#A1CEE2" width="1.394" height="1.395"/>
				<polygon fill="#A1CEE2" points="428.104,138.292 426.893,139.005 426.197,137.812 427.376,137.099 				"/>
			</g>
			<g id="Particle_1_">
				<polygon fill="#A1CEE2" points="462.152,142.831 460.757,142.954 460.648,141.565 462.023,141.447 				"/>
				<polygon fill="#A1CEE2" points="463.453,141.348 462.076,141.468 461.96,140.081 463.342,139.96 				"/>
				<polygon fill="#A1CEE2" points="460.655,141.53 459.271,141.647 459.144,140.263 460.539,140.14 				"/>
				<polygon fill="#A1CEE2" points="460.867,144.397 459.473,144.526 459.348,143.132 460.738,143.015 				"/>
				<polygon fill="#A1CEE2" points="463.746,144.102 462.359,144.224 462.243,142.835 463.636,142.717 				"/>
			</g>
			<g id="Particle_2_">
				<polygon fill="#A1CEE2" points="453.545,127.33 452.468,128.202 451.578,127.117 452.668,126.245 				"/>
				
					<rect x="452.085" y="124.639" transform="matrix(0.7804 -0.6253 0.6253 0.7804 21.0766 310.6688)" fill="#A1CEE2" width="1.395" height="1.385"/>
				<polygon fill="#A1CEE2" points="451.527,127.131 450.438,128.003 449.569,126.914 450.639,126.041 				"/>
				<polygon fill="#A1CEE2" points="453.34,129.372 452.265,130.242 451.389,129.158 452.476,128.287 				"/>
				<polygon fill="#A1CEE2" points="455.477,127.541 454.387,128.411 453.521,127.328 454.589,126.457 				"/>
			</g>
			<g id="Particle_3_">
				<polygon fill="#A1CEE2" points="438.485,116.191 437.291,116.903 436.564,115.709 437.772,114.997 				"/>
				<polygon fill="#A1CEE2" points="438.941,114.333 437.759,115.045 437.029,113.851 438.241,113.138 				"/>
				<polygon fill="#A1CEE2" points="436.554,115.764 435.379,116.477 434.648,115.281 435.855,114.569 				"/>
				<polygon fill="#A1CEE2" points="437.974,118.15 436.794,118.862 436.067,117.664 437.277,116.951 				"/>
				<polygon fill="#A1CEE2" points="440.392,116.701 439.193,117.414 438.471,116.218 439.676,115.505 				"/>
			</g>
			<g id="Particle_4_">
				<polygon fill="#A1CEE2" points="468.797,101.361 467.397,101.402 467.364,100.012 468.763,99.967 				"/>
				<polygon fill="#A1CEE2" points="470.142,99.897 468.755,99.941 468.712,98.548 470.087,98.508 				"/>
				<polygon fill="#A1CEE2" points="467.354,100.027 465.955,100.072 465.922,98.676 467.309,98.633 				"/>
				<polygon fill="#A1CEE2" points="467.369,102.795 465.97,102.837 465.937,101.443 467.336,101.4 				"/>
				<polygon fill="#A1CEE2" points="470.243,102.771 468.866,102.811 468.812,101.422 470.209,101.378 				"/>
			</g>
			<g id="Particle_5_">
				<polygon fill="#A1CEE2" points="426.965,57.016 425.769,57.728 425.059,56.535 426.247,55.822 				"/>
				<polygon fill="#A1CEE2" points="427.417,55.095 426.219,55.809 425.492,54.608 426.701,53.896 				"/>
				<polygon fill="#A1CEE2" points="425.014,56.538 423.835,57.25 423.106,56.057 424.318,55.345 				"/>
				<polygon fill="#A1CEE2" points="426.486,58.972 425.287,59.686 424.577,58.486 425.769,57.772 				"/>
				<polygon fill="#A1CEE2" points="428.914,57.554 427.703,58.268 427.008,57.071 428.202,56.357 				"/>
			</g>
			<g id="Particle_6_">
				<polygon fill="#A1CEE2" points="415.991,43.171 414.921,44.043 414.047,42.955 415.137,42.083 				"/>
				<polygon fill="#A1CEE2" points="416.124,41.213 415.034,42.083 414.181,41.004 415.258,40.134 				"/>
				<polygon fill="#A1CEE2" points="414.038,43.021 412.948,43.893 412.08,42.811 413.152,41.938 				"/>
				<polygon fill="#A1CEE2" points="415.774,45.154 414.684,46.025 413.818,44.944 414.889,44.071 				"/>
				<polygon fill="#A1CEE2" points="417.973,43.453 416.882,44.324 415.993,43.239 417.084,42.368 				"/>
			</g>
			<g id="Particle_7_">
				<polygon fill="#A1CEE2" points="396.304,62.755 394.919,62.96 394.721,61.589 396.083,61.375 				"/>
				<polygon fill="#A1CEE2" points="397.457,61.079 396.091,61.284 395.877,59.908 397.26,59.702 				"/>
				<polygon fill="#A1CEE2" points="394.646,61.565 393.292,61.767 393.068,60.395 394.449,60.185 				"/>
				<polygon fill="#A1CEE2" points="395.104,64.312 393.736,64.521 393.521,63.145 394.908,62.938 				"/>
				<polygon fill="#A1CEE2" points="397.91,63.904 396.522,64.117 396.327,62.735 397.713,62.534 				"/>
			</g>
			<g id="Particle_9_">
				<polygon fill="#A1CEE2" points="377.919,97.121 377.664,98.494 376.285,98.237 376.551,96.872 				"/>
				<polygon fill="#A1CEE2" points="379.497,95.967 379.246,97.332 377.864,97.083 378.128,95.712 				"/>
				<polygon fill="#A1CEE2" points="376.762,95.5 376.529,96.87 375.15,96.615 375.416,95.25 				"/>
				<polygon fill="#A1CEE2" points="376.265,98.225 376.022,99.599 374.654,99.343 374.905,97.977 				"/>
				<polygon fill="#A1CEE2" points="379.054,98.799 378.79,100.17 377.431,99.923 377.674,98.548 				"/>
			</g>
			<g id="Particle_10_">
				
					<rect x="96.535" y="127.63" transform="matrix(0.8595 -0.5112 0.5112 0.8595 -51.9347 67.7387)" fill="#A1CEE2" width="1.394" height="1.39"/>
				
					<rect x="97.05" y="125.672" transform="matrix(0.8595 -0.5111 0.5111 0.8595 -50.856 67.7107)" fill="#A1CEE2" width="1.396" height="1.396"/>
				<polygon fill="#A1CEE2" points="96.288,128.05 95.087,128.763 94.375,127.569 95.574,126.856 				"/>
				
					<rect x="96.098" y="129.562" transform="matrix(0.8601 -0.5102 0.5102 0.8601 -52.9091 67.6084)" fill="#A1CEE2" width="1.395" height="1.391"/>
				
					<rect x="98.493" y="128.119" transform="matrix(0.8589 -0.5122 0.5122 0.8589 -51.9822 68.9892)" fill="#A1CEE2" width="1.392" height="1.394"/>
			</g>
			<g id="Particle_11_">
				<polygon fill="#A1CEE2" points="84.78,115.086 84.339,116.412 83.016,115.976 83.452,114.649 				"/>
				
					<rect x="82.304" y="113.052" transform="matrix(0.3134 -0.9496 0.9496 0.3134 -51.0303 156.9229)" fill="#A1CEE2" width="1.398" height="1.397"/>
				<polygon fill="#A1CEE2" points="82.989,115.97 82.555,117.288 81.231,116.854 81.669,115.527 				"/>
				<polygon fill="#A1CEE2" points="85.707,116.821 85.267,118.146 83.942,117.71 84.385,116.385 				"/>
				<polygon fill="#A1CEE2" points="86.569,114.204 86.13,115.525 84.802,115.087 85.242,113.769 				"/>
			</g>
			<g id="Particle_12_">
				<polygon fill="#A1CEE2" points="126.677,116.799 126.081,118.056 124.82,117.461 125.417,116.207 				"/>
				
					<rect x="124.3" y="114.614" transform="matrix(0.4266 -0.9045 0.9045 0.4266 -32.6174 179.1733)" fill="#A1CEE2" width="1.39" height="1.393"/>
				
					<rect x="123.079" y="117.171" transform="matrix(0.4277 -0.9039 0.9039 0.4277 -35.7005 179.3476)" fill="#A1CEE2" width="1.395" height="1.39"/>
				
					<rect x="125.667" y="118.319" transform="matrix(0.4281 -0.9038 0.9038 0.4281 -35.2867 182.2708)" fill="#A1CEE2" width="1.394" height="1.391"/>
				
					<rect x="126.898" y="115.824" transform="matrix(0.4242 -0.9056 0.9056 0.4242 -32.048 182.6351)" fill="#A1CEE2" width="1.393" height="1.391"/>
			</g>
			<g id="Particle_13_">
				
					<rect x="156.141" y="107.059" transform="matrix(0.9586 -0.2847 0.2847 0.9586 -24.1882 49.1125)" fill="#A1CEE2" width="1.393" height="1.393"/>
				
					<rect x="157.138" y="105.351" transform="matrix(0.9579 -0.2871 0.2871 0.9579 -23.8009 49.7773)" fill="#A1CEE2" width="1.395" height="1.393"/>
				
					<rect x="154.442" y="106.122" transform="matrix(0.9583 -0.2858 0.2858 0.9583 -24.0601 48.7999)" fill="#A1CEE2" width="1.391" height="1.395"/>
				
					<rect x="155.216" y="108.831" transform="matrix(0.9583 -0.2859 0.2859 0.9583 -24.8062 49.1456)" fill="#A1CEE2" width="1.389" height="1.395"/>
				
					<rect x="157.895" y="108.032" transform="matrix(0.9584 -0.2854 0.2854 0.9584 -24.4337 49.7819)" fill="#A1CEE2" width="1.394" height="1.39"/>
			</g>
			<g id="Particle_14_">
				
					<rect x="153.637" y="92.648" transform="matrix(0.86 -0.5104 0.5104 0.86 -26.0275 91.8423)" fill="#A1CEE2" width="1.397" height="1.397"/>
				
					<rect x="154.142" y="90.696" transform="matrix(0.8588 -0.5124 0.5124 0.8588 -24.9572 92.2433)" fill="#A1CEE2" width="1.391" height="1.39"/>
				
					<rect x="151.73" y="92.126" transform="matrix(0.8588 -0.5123 0.5123 0.8588 -26.0316 91.1879)" fill="#A1CEE2" width="1.391" height="1.394"/>
				
					<rect x="153.206" y="94.571" transform="matrix(0.8587 -0.5124 0.5124 0.8587 -27.0754 92.3218)" fill="#A1CEE2" width="1.39" height="1.39"/>
				
					<rect x="155.582" y="93.112" transform="matrix(0.8582 -0.5133 0.5133 0.8582 -25.9934 93.5207)" fill="#A1CEE2" width="1.392" height="1.394"/>
			</g>
			<g id="Particle_15_">
				
					<rect x="156.985" y="80.951" transform="matrix(0.8587 -0.5124 0.5124 0.8587 -19.5633 92.3341)" fill="#A1CEE2" width="1.39" height="1.394"/>
				
					<rect x="157.477" y="78.994" transform="matrix(0.8585 -0.5127 0.5127 0.8585 -18.4865 92.373)" fill="#A1CEE2" width="1.389" height="1.394"/>
				
					<rect x="155.084" y="80.434" transform="matrix(0.859 -0.512 0.512 0.859 -19.5719 91.1925)" fill="#A1CEE2" width="1.392" height="1.392"/>
				
					<rect x="156.527" y="82.881" transform="matrix(0.8588 -0.5124 0.5124 0.8588 -20.6172 92.3617)" fill="#A1CEE2" width="1.391" height="1.393"/>
				
					<rect x="158.947" y="81.432" transform="matrix(0.8593 -0.5114 0.5114 0.8593 -19.545 93.1949)" fill="#A1CEE2" width="1.395" height="1.392"/>
			</g>
			<g id="Particle_16_">
				
					<rect x="179.835" y="72.602" transform="matrix(0.4111 -0.9116 0.9116 0.4111 39.4999 207.7391)" fill="#A1CEE2" width="1.392" height="1.393"/>
				
					<rect x="179.117" y="70.743" transform="matrix(0.4076 -0.9132 0.9132 0.4076 41.2857 206.5165)" fill="#A1CEE2" width="1.391" height="1.391"/>
				<polygon fill="#A1CEE2" points="179.585,73.59 179.015,74.86 177.74,74.296 178.315,73.023 				"/>
				
					<rect x="180.528" y="74.435" transform="matrix(0.4074 -0.9132 0.9132 0.4074 38.7741 210.0176)" fill="#A1CEE2" width="1.39" height="1.39"/>
				
					<rect x="181.726" y="71.859" transform="matrix(0.4074 -0.9132 0.9132 0.4074 41.8351 209.5858)" fill="#A1CEE2" width="1.39" height="1.392"/>
			</g>
			<g id="Particle_17_">
				
					<rect x="124.646" y="62.595" transform="matrix(0.29 -0.957 0.957 0.29 28.4238 164.8964)" fill="#A1CEE2" width="1.389" height="1.395"/>
				
					<rect x="123.681" y="60.865" transform="matrix(0.2921 -0.9564 0.9564 0.2921 29.1746 162.5357)" fill="#A1CEE2" width="1.394" height="1.393"/>
				
					<rect x="122.874" y="63.583" transform="matrix(0.2918 -0.9565 0.9565 0.2918 26.0352 163.7192)" fill="#A1CEE2" width="1.396" height="1.391"/>
				
					<rect x="125.539" y="64.386" transform="matrix(0.2914 -0.9566 0.9566 0.2914 27.2 166.8785)" fill="#A1CEE2" width="1.396" height="1.39"/>
				<polygon fill="#A1CEE2" points="127.973,61.877 127.563,63.205 126.235,62.799 126.638,61.469 				"/>
			</g>
			<g id="Particle_18_">
				<polygon fill="#A1CEE2" points="109.553,71.894 108.946,73.148 107.693,72.533 108.301,71.287 				"/>
				<polygon fill="#A1CEE2" points="111.425,71.235 110.816,72.485 109.563,71.876 110.176,70.622 				"/>
				<polygon fill="#A1CEE2" points="108.887,70.021 108.278,71.268 107.023,70.662 107.634,69.409 				"/>
				<polygon fill="#A1CEE2" points="107.624,72.522 107.015,73.776 105.762,73.161 106.377,71.914 				"/>
				
					<rect x="108.592" y="73.395" transform="matrix(0.4406 -0.8977 0.8977 0.4406 -5.3751 139.5534)" fill="#A1CEE2" width="1.392" height="1.39"/>
			</g>
			<g id="Particle_19_">
				
					<rect x="89.473" y="61.327" transform="matrix(0.9994 -0.0343 0.0343 0.9994 -2.0805 3.1353)" fill="#A1CEE2" width="1.78" height="1.784"/>
				
					<rect x="91.205" y="59.43" transform="matrix(0.9994 -0.0337 0.0337 0.9994 -1.982 3.1403)" fill="#A1CEE2" width="1.781" height="1.783"/>
				<polygon fill="#A1CEE2" points="89.387,61.302 87.607,61.365 87.55,59.586 89.332,59.527 				"/>
				<polygon fill="#A1CEE2" points="89.499,64.926 87.715,64.99 87.651,63.203 89.436,63.146 				"/>
				<polygon fill="#A1CEE2" points="93.129,64.807 91.348,64.862 91.284,63.086 93.066,63.023 				"/>
			</g>
			<g id="Particle_20_">
				
					<rect x="88.624" y="67.249" transform="matrix(0.4179 -0.9085 0.9085 0.4179 -9.7369 120.6923)" fill="#A1CEE2" width="1.393" height="1.392"/>
				<polygon fill="#A1CEE2" points="92.158,66.902 91.584,68.169 90.318,67.592 90.893,66.324 				"/>
				
					<rect x="87.986" y="65.365" transform="matrix(0.4177 -0.9086 0.9086 0.4177 -8.3802 119.045)" fill="#A1CEE2" width="1.393" height="1.391"/>
				
					<rect x="86.786" y="67.968" transform="matrix(0.4172 -0.9088 0.9088 0.4172 -11.4199 119.5183)" fill="#A1CEE2" width="1.393" height="1.391"/>
				
					<rect x="89.366" y="69.109" transform="matrix(0.4161 -0.9093 0.9093 0.4161 -10.8907 122.6511)" fill="#A1CEE2" width="1.395" height="1.395"/>
			</g>
			<g id="Particle_21_">
				
					<rect x="38.954" y="121.958" transform="matrix(0.8219 -0.5697 0.5697 0.8219 -62.8117 44.4404)" fill="#A1CEE2" width="1.396" height="1.39"/>
				
					<rect x="39.341" y="119.973" transform="matrix(0.8205 -0.5716 0.5716 0.8205 -61.7867 44.5386)" fill="#A1CEE2" width="1.392" height="1.391"/>
				
					<rect x="37.01" y="121.604" transform="matrix(0.8203 -0.5719 0.5719 0.8203 -63.1721 43.5414)" fill="#A1CEE2" width="1.39" height="1.394"/>
				<polygon fill="#A1CEE2" points="40.272,124.77 39.137,125.565 38.343,124.423 39.478,123.625 				"/>
				<polygon fill="#A1CEE2" points="42.612,123.136 41.463,123.931 40.666,122.788 41.812,121.993 				"/>
			</g>
			<g id="Particle_22_">
				<polygon fill="#A1CEE2" points="36.125,74.512 34.726,74.553 34.691,73.158 36.079,73.121 				"/>
				<polygon fill="#A1CEE2" points="37.467,73.064 36.069,73.101 36.035,71.711 37.423,71.669 				"/>
				<polygon fill="#A1CEE2" points="34.679,73.173 33.287,73.214 33.246,71.817 34.641,71.784 				"/>
				<polygon fill="#A1CEE2" points="34.73,75.961 33.342,75.997 33.301,74.606 34.7,74.569 				"/>
				<polygon fill="#A1CEE2" points="37.578,75.899 36.19,75.934 36.149,74.543 37.546,74.503 				"/>
			</g>
			<g id="Particle_23_">
				
					<rect x="70.758" y="45.351" transform="matrix(0.9494 -0.314 0.314 0.9494 -10.8825 24.8196)" fill="#A1CEE2" width="1.671" height="1.672"/>
				<polygon fill="#A1CEE2" points="73.757,44.526 72.171,45.059 71.644,43.471 73.23,42.94 				"/>
				<polygon fill="#A1CEE2" points="70.529,45.605 68.943,46.126 68.417,44.539 70.001,44.018 				"/>
				<polygon fill="#A1CEE2" points="71.577,48.826 69.991,49.348 69.46,47.763 71.049,47.238 				"/>
				
					<rect x="72.93" y="46.412" transform="matrix(0.9484 -0.3169 0.3169 0.9484 -11.1717 25.8141)" fill="#A1CEE2" width="1.672" height="1.672"/>
			</g>
			<g id="Particle_24_">
				<polygon fill="#A1CEE2" points="94.006,34.397 92.924,35.276 92.042,34.202 93.125,33.319 				"/>
				<polygon fill="#A1CEE2" points="94.22,32.379 93.144,33.262 92.266,32.179 93.34,31.3 				"/>
				
					<rect x="90.337" y="33.368" transform="matrix(0.7755 -0.6313 0.6313 0.7755 -1.0675 65.1196)" fill="#A1CEE2" width="1.392" height="1.387"/>
				<polygon fill="#A1CEE2" points="93.809,36.335 92.734,37.219 91.849,36.136 92.931,35.257 				"/>
				
					<rect x="94.313" y="33.767" transform="matrix(0.7748 -0.6322 0.6322 0.7748 -0.3887 67.8302)" fill="#A1CEE2" width="1.391" height="1.387"/>
			</g>
			<g id="Particle_25_">
				<polygon fill="#A1CEE2" points="341.237,46.333 340.486,47.514 339.309,46.773 340.038,45.594 				"/>
				
					<rect x="339.154" y="43.918" transform="matrix(0.5393 -0.8421 0.8421 0.5393 119.009 306.7474)" fill="#A1CEE2" width="1.398" height="1.378"/>
				<polygon fill="#A1CEE2" points="339.34,46.805 338.589,47.985 337.412,47.24 338.144,46.063 				"/>
				<polygon fill="#A1CEE2" points="341.729,48.302 340.977,49.481 339.813,48.733 340.531,47.559 				"/>
				<polygon fill="#A1CEE2" points="343.215,45.939 342.491,47.119 341.298,46.374 342.051,45.196 				"/>
			</g>
			<g id="Particle_26_">
				<polygon fill="#A1CEE2" points="360.88,28.035 360.753,29.417 359.354,29.303 359.481,27.911 				"/>
				<polygon fill="#A1CEE2" points="362.375,26.787 362.279,28.169 360.884,28.054 361.013,26.662 				"/>
				<polygon fill="#A1CEE2" points="359.609,26.509 359.48,27.899 358.085,27.774 358.213,26.392 				"/>
				<polygon fill="#A1CEE2" points="359.332,29.321 359.205,30.708 357.84,30.59 357.937,29.198 				"/>
				<polygon fill="#A1CEE2" points="362.138,29.57 362.011,30.961 360.615,30.837 360.742,29.455 				"/>
			</g>
			<g id="Particle_27_">
				<polygon fill="#A1CEE2" points="389.999,126.738 388.215,127.862 387.082,126.072 388.875,124.944 				"/>
				<polygon fill="#A1CEE2" points="390.46,131.328 386.924,133.554 384.68,130.021 388.232,127.79 				"/>
				<polygon fill="#A1CEE2" points="393.314,132.03 391.521,133.154 390.394,131.365 392.191,130.234 				"/>
				<polygon fill="#A1CEE2" points="384.654,130.029 382.875,131.164 381.749,129.367 383.528,128.243 				"/>
				<polygon fill="#A1CEE2" points="387.981,135.336 386.201,136.468 385.078,134.671 386.858,133.547 				"/>
			</g>
			<g id="Particle_28_">
				<polygon fill="#A1CEE2" points="372.447,146.745 370.778,148.299 369.227,146.632 370.881,145.074 				"/>
				<polygon fill="#A1CEE2" points="373.887,151.619 370.585,154.702 367.519,151.41 370.82,148.328 				"/>
				<polygon fill="#A1CEE2" points="377.178,151.694 375.495,153.252 373.948,151.583 375.613,150.02 				"/>
				<polygon fill="#A1CEE2" points="367.557,151.438 365.903,153 364.343,151.333 365.991,149.769 				"/>
				<polygon fill="#A1CEE2" points="372.167,156.313 370.515,157.867 368.951,156.195 370.611,154.637 				"/>
			</g>
			<g id="Particle_29_">
				
					<rect x="376.613" y="145.887" transform="matrix(0.8474 -0.531 0.531 0.8474 -20.2284 222.6653)" fill="#A1CEE2" width="1.284" height="1.274"/>
				<polygon fill="#A1CEE2" points="378.386,149.52 376.258,150.858 374.936,148.735 377.044,147.396 				"/>
				<polygon fill="#A1CEE2" points="380.215,149.943 379.127,150.631 378.453,149.543 379.541,148.86 				"/>
				<polygon fill="#A1CEE2" points="374.902,148.718 373.825,149.394 373.121,148.31 374.212,147.629 				"/>
				<polygon fill="#A1CEE2" points="376.965,151.948 375.889,152.628 375.184,151.546 376.271,150.867 				"/>
			</g>
			<g id="Particle_30_">
				<polygon fill="#A1CEE2" points="361.507,170.875 359.817,171.471 359.211,169.791 360.899,169.194 				"/>
				<polygon fill="#A1CEE2" points="361.058,174.915 357.641,176.133 356.435,172.723 359.826,171.508 				"/>
				<polygon fill="#A1CEE2" points="363.319,176.011 361.663,176.604 361.055,174.927 362.739,174.327 				"/>
				<polygon fill="#A1CEE2" points="356.452,172.712 354.762,173.319 354.173,171.635 355.846,171.038 				"/>
				<polygon fill="#A1CEE2" points="358.212,177.783 356.533,178.39 355.95,176.715 357.605,176.109 				"/>
			</g>
			<g id="Particle_31_">
				<polygon fill="#A1CEE2" points="345.99,187.258 344.786,189.078 342.984,187.89 344.154,186.071 				"/>
				
					<rect x="343.27" y="189.971" transform="matrix(0.547 -0.8371 0.8371 0.547 -4.3638 376.2218)" fill="#A1CEE2" width="4.345" height="4.345"/>
				<polygon fill="#A1CEE2" points="351.493,190.842 350.303,192.662 348.489,191.475 349.67,189.656 				"/>
				<polygon fill="#A1CEE2" points="342.47,192.729 341.279,194.548 339.465,193.36 340.648,191.542 				"/>
				<polygon fill="#A1CEE2" points="347.938,196.248 346.768,198.069 344.932,196.881 346.135,195.063 				"/>
			</g>
			<g id="Particle_32_">
				<polygon fill="#A1CEE2" points="344.918,195.886 343.88,196.905 342.868,195.875 343.912,194.855 				"/>
				<polygon fill="#A1CEE2" points="345.881,198.917 343.852,200.921 341.876,198.891 343.894,196.9 				"/>
				<polygon fill="#A1CEE2" points="347.958,198.922 346.943,199.936 345.908,198.905 346.955,197.891 				"/>
				<polygon fill="#A1CEE2" points="341.899,198.858 340.854,199.862 339.853,198.832 340.873,197.821 				"/>
				<polygon fill="#A1CEE2" points="344.919,201.912 343.894,202.931 342.87,201.9 343.912,200.882 				"/>
			</g>
			<g id="Particle_33_">
				<polygon fill="#A1CEE2" points="332.72,213.463 332.145,214.739 330.87,214.176 331.445,212.903 				"/>
				<polygon fill="#A1CEE2" points="334.612,215.868 333.509,218.356 331.005,217.253 332.108,214.764 				"/>
				<polygon fill="#A1CEE2" points="336.419,215.107 335.875,216.378 334.603,215.818 335.146,214.546 				"/>
				<polygon fill="#A1CEE2" points="331.041,217.158 330.497,218.429 329.226,217.869 329.77,216.597 				"/>
				<polygon fill="#A1CEE2" points="334.785,218.864 334.208,220.142 332.938,219.582 333.517,218.297 				"/>
			</g>
			<g id="Particle_34_">
				<polygon fill="#A1CEE2" points="320.854,222.005 320.599,224.389 318.22,224.151 318.474,221.767 				"/>
				
					<rect x="320.334" y="224.532" transform="matrix(0.0986 -0.9951 0.9951 0.0986 65.0897 525.7086)" fill="#A1CEE2" width="4.803" height="4.785"/>
				<polygon fill="#A1CEE2" points="327.969,222.709 327.715,225.09 325.335,224.852 325.591,222.471 				"/>
				<polygon fill="#A1CEE2" points="320.126,229.086 319.906,231.467 317.524,231.231 317.744,228.85 				"/>
				<polygon fill="#A1CEE2" points="327.331,229.881 327.078,232.262 324.696,232.026 324.949,229.645 				"/>
			</g>
			<g id="Particle_35_">
				
					<rect x="317.063" y="240.212" transform="matrix(0.935 -0.3546 0.3546 0.935 -64.8149 128.3783)" fill="#A1CEE2" width="1.677" height="1.679"/>
				<polygon fill="#A1CEE2" points="318.521,245.307 315.383,246.479 314.228,243.34 317.366,242.168 				"/>
				<polygon fill="#A1CEE2" points="320.702,246.247 319.134,246.825 318.538,245.256 320.108,244.679 				"/>
				<polygon fill="#A1CEE2" points="314.268,243.313 312.697,243.891 312.136,242.322 313.707,241.744 				"/>
				<polygon fill="#A1CEE2" points="315.979,247.987 314.407,248.565 313.822,246.997 315.384,246.419 				"/>
			</g>
			<g id="Particle_36_">
				<polygon fill="#A1CEE2" points="310.144,257.524 308.577,258.951 307.15,257.386 308.716,255.942 				"/>
				<polygon fill="#A1CEE2" points="311.366,261.986 308.267,264.814 305.47,261.714 308.54,258.887 				"/>
				<polygon fill="#A1CEE2" points="314.432,262.146 312.873,263.572 311.439,262.005 313.005,260.578 				"/>
				<polygon fill="#A1CEE2" points="305.548,261.745 303.979,263.174 302.551,261.639 304.118,260.21 				"/>
				<polygon fill="#A1CEE2" points="309.72,266.391 308.169,267.817 306.741,266.25 308.277,264.823 				"/>
			</g>
			<g id="Particle_37_">
				<polygon fill="#A1CEE2" points="296.197,271.622 295.099,273.141 293.545,272.074 294.643,270.521 				"/>
				<polygon fill="#A1CEE2" points="298.065,275.292 295.892,278.324 292.857,276.184 295.032,273.117 				"/>
				
					<rect x="298.508" y="274.099" transform="matrix(0.5783 -0.8158 0.8158 0.5783 -98.1114 360.2847)" fill="#A1CEE2" width="1.9" height="1.899"/>
				<polygon fill="#A1CEE2" points="292.941,276.134 291.862,277.684 290.315,276.584 291.413,275.033 				"/>
				<polygon fill="#A1CEE2" points="297.517,279.451 296.443,281.003 294.897,279.903 295.997,278.352 				"/>
			</g>
			<g id="Particle_38_">
				<polygon fill="#A1CEE2" points="210.605,266.552 209.827,268.2 208.163,267.421 208.942,265.773 				"/>
				
					<rect x="208.917" y="268.837" transform="matrix(0.4235 -0.9059 0.9059 0.4235 -123.7012 346.9761)" fill="#A1CEE2" width="3.677" height="3.677"/>
				<polygon fill="#A1CEE2" points="215.579,268.854 214.8,270.535 213.136,269.757 213.916,268.075 				"/>
				<polygon fill="#A1CEE2" points="208.271,271.527 207.504,273.211 205.837,272.432 206.602,270.749 				"/>
				<polygon fill="#A1CEE2" points="213.303,273.844 212.526,275.493 210.858,274.717 211.635,273.066 				"/>
			</g>
			<g id="Particle_39_">
				<polygon fill="#A1CEE2" points="206.012,256.31 205.491,259.158 202.638,258.653 203.16,255.787 				"/>
				<polygon fill="#A1CEE2" points="211.301,260.228 210.267,265.971 204.506,264.952 205.541,259.177 				"/>
				<polygon fill="#A1CEE2" points="214.641,257.832 214.126,260.68 211.275,260.142 211.791,257.294 				"/>
				<polygon fill="#A1CEE2" points="204.507,264.961 203.986,267.813 201.135,267.274 201.657,264.423 				"/>
				<polygon fill="#A1CEE2" points="213.118,266.472 212.596,269.321 209.746,268.814 210.268,265.967 				"/>
			</g>
			<g id="Particle_40_">
				
					<rect x="198.157" y="241.551" transform="matrix(0.9517 -0.307 0.307 0.9517 -64.7737 72.7536)" fill="#A1CEE2" width="1.503" height="1.503"/>
				<polygon fill="#A1CEE2" points="199.38,246.114 196.519,247.037 195.596,244.159 198.463,243.253 				"/>
				<polygon fill="#A1CEE2" points="201.215,247.05 199.784,247.511 199.33,246.08 200.768,245.62 				"/>
				<polygon fill="#A1CEE2" points="195.53,244.159 194.094,244.621 193.638,243.19 195.079,242.728 				"/>
				<polygon fill="#A1CEE2" points="196.919,248.458 195.489,248.903 195.027,247.473 196.458,247.025 				"/>
			</g>
			<g id="Particle_41_">
				<polygon fill="#A1CEE2" points="190.45,222.621 188.371,223 187.992,220.908 190.077,220.543 				"/>
				<polygon fill="#A1CEE2" points="189.153,227.072 185.042,227.822 184.298,223.71 188.403,222.961 				"/>
				<polygon fill="#A1CEE2" points="191.562,228.801 189.483,229.18 189.104,227.103 191.191,226.723 				"/>
				<polygon fill="#A1CEE2" points="184.264,223.718 182.183,224.097 181.808,222.003 183.885,221.641 				"/>
				<polygon fill="#A1CEE2" points="185.387,229.945 183.31,230.309 182.93,228.231 185.013,227.851 				"/>
			</g>
			<g id="Particle_42_">
				<polygon fill="#A1CEE2" points="173.078,209.225 172.262,211.167 170.315,210.36 171.127,208.4 				"/>
				<polygon fill="#A1CEE2" points="176.068,212.82 174.464,216.682 170.604,215.084 172.21,211.222 				"/>
				
					<rect x="176.445" y="211.153" transform="matrix(0.381 -0.9246 0.9246 0.381 -86.3289 295.4816)" fill="#A1CEE2" width="2.12" height="2.119"/>
				<polygon fill="#A1CEE2" points="170.618,215.075 169.804,217.018 167.85,216.211 168.667,214.25 				"/>
				<polygon fill="#A1CEE2" points="176.495,217.428 175.677,219.384 173.729,218.577 174.536,216.617 				"/>
			</g>
			<g id="Particle_43_">
				
					<rect x="162.514" y="181.486" transform="matrix(0.9971 -0.0755 0.0755 0.9971 -13.3123 12.8678)" fill="#A1CEE2" width="2.122" height="2.121"/>
				
					<rect x="158.57" y="183.841" transform="matrix(0.9971 -0.0766 0.0766 0.9971 -13.7667 12.8495)" fill="#A1CEE2" width="4.183" height="4.174"/>
				
					<rect x="162.945" y="187.786" transform="matrix(0.9971 -0.0763 0.0763 0.9971 -13.938 13.0718)" fill="#A1CEE2" width="2.117" height="2.106"/>
				
					<rect x="156.196" y="181.998" transform="matrix(0.9971 -0.076 0.076 0.9971 -13.4501 12.4736)" fill="#A1CEE2" width="2.121" height="2.115"/>
				
					<rect x="156.712" y="188.24" transform="matrix(0.9971 -0.0758 0.0758 0.9971 -13.9002 12.5086)" fill="#A1CEE2" width="2.112" height="2.115"/>
			</g>
			<g id="Particle_44_">
				<polygon fill="#A1CEE2" points="162.81,186.363 161.082,186.45 160.995,184.722 162.712,184.636 				"/>
				<polygon fill="#A1CEE2" points="161.305,189.971 157.795,190.162 157.614,186.645 161.121,186.469 				"/>
				<polygon fill="#A1CEE2" points="163.104,191.571 161.384,191.667 161.29,189.939 163.016,189.853 				"/>
				<polygon fill="#A1CEE2" points="157.591,186.625 155.865,186.711 155.779,184.983 157.498,184.897 				"/>
				
					<rect x="156.126" y="190.179" transform="matrix(0.9987 -0.0508 0.0508 0.9987 -9.4945 8.2146)" fill="#A1CEE2" width="1.722" height="1.725"/>
			</g>
			<g id="Particle_45_">
				<polygon fill="#A1CEE2" points="140.33,151.131 139.132,152.601 137.67,151.395 138.867,149.931 				"/>
				<polygon fill="#A1CEE2" points="142.052,154.994 139.648,157.921 136.72,155.523 139.12,152.596 				"/>
				<polygon fill="#A1CEE2" points="144.715,154.767 143.518,156.237 142.052,155.031 143.25,153.568 				"/>
				<polygon fill="#A1CEE2" points="136.776,155.494 135.574,156.958 134.113,155.76 135.313,154.289 				"/>
				<polygon fill="#A1CEE2" points="141.095,159.046 139.896,160.513 138.431,159.313 139.639,157.843 				"/>
			</g>
			<g id="Particle_46_">
				<polygon fill="#A1CEE2" points="138.379,141.57 136.588,143.78 134.383,141.999 136.168,139.788 				"/>
				<polygon fill="#A1CEE2" points="141.085,147.387 137.477,151.844 133.016,148.244 136.628,143.777 				"/>
				
					<rect x="141.625" y="145.757" transform="matrix(0.6288 -0.7776 0.7776 0.6288 -61.3389 165.8611)" fill="#A1CEE2" width="2.842" height="2.835"/>
				
					<rect x="129.549" y="147.049" transform="matrix(0.6275 -0.7786 0.7786 0.6275 -66.8161 157.2855)" fill="#A1CEE2" width="2.84" height="2.846"/>
				<polygon fill="#A1CEE2" points="139.646,153.662 137.859,155.871 135.648,154.089 137.436,151.883 				"/>
			</g>
			<g id="Particle_47_">
				<polygon fill="#A1CEE2" points="122.73,125.934 122.424,127.628 120.728,127.327 121.028,125.629 				"/>
				
					<rect x="122.055" y="127.917" transform="matrix(0.1763 -0.9843 0.9843 0.1763 -25.6558 228.6834)" fill="#A1CEE2" width="3.512" height="3.509"/>
				
					<rect x="125.989" y="126.65" transform="matrix(0.1786 -0.9839 0.9839 0.1786 -21.2644 229.5581)" fill="#A1CEE2" width="1.725" height="1.729"/>
				
					<rect x="119.937" y="130.889" transform="matrix(0.1783 -0.984 0.984 0.1783 -30.3802 227.1205)" fill="#A1CEE2" width="1.73" height="1.724"/>
				<polygon fill="#A1CEE2" points="126.961,131.985 126.661,133.692 124.962,133.385 125.265,131.683 				"/>
			</g>
		</g>
		<g id="Phantoms">
			<polygon id="Phantom_2_" fill="#3D83A3" points="426.102,107.9 414.976,101.214 414.976,102.33 411.635,100.656 406.058,111.242 
				403.274,110.129 397.139,122.386 394.913,121.829 394.913,119.594 401.049,109.017 399.363,108.459 399.938,105.668 
				404.387,97.316 403.274,97.316 403.274,95.646 389.89,91.743 389.89,88.403 391.002,86.73 388.776,86.173 389.89,83.947 
				387.123,83.391 387.663,81.157 384.896,80.6 383.781,82.832 380.987,82.274 383.212,77.261 380.987,76.704 380.435,77.817 
				379.307,77.817 377.648,81.714 374.311,80.6 378.189,71.134 375.423,70.021 375.964,68.902 374.85,68.902 371.513,77.261 
				367.622,76.704 368.734,73.359 364.836,72.803 363.723,75.589 359.273,74.475 358.156,77.817 353.137,76.704 354.248,73.359 
				349.225,72.247 347.572,78.929 341.996,77.817 341.435,80.042 339.75,83.391 348.685,48.295 349.798,47.739 412.749,74.475 
				418.87,64.447 435.024,73.917 437.251,77.261 431.685,84.504 471.237,111.242 472.903,112.91 455.066,130.181 455.066,128.51 
				456.184,126.837 453.953,124.61 457.312,121.272 454.526,119.04 453.412,120.712 450.614,119.04 452.3,116.812 450.063,115.141 
				451.729,113.468 449.503,111.798 447.277,113.468 445.052,111.798 449.503,106.782 447.277,105.111 444.49,109.017 
				443.371,109.017 441.141,111.798 438.915,110.129 441.713,106.226 440.601,105.111 438.915,105.668 436.689,107.9 
				435.024,106.782 436.137,104.555 433.911,102.886 432.8,105.111 430.561,103.443 429.441,105.111 428.327,104.555 			"/>
			<polygon id="Phantom_1_" fill="#3D83A3" points="95.209,107.34 106.352,100.656 106.352,101.772 109.697,100.098 
				115.264,110.686 118.053,109.574 124.179,121.829 126.404,121.272 126.404,119.04 120.278,108.459 121.946,107.9 121.39,105.111 
				116.94,96.76 118.053,96.76 118.053,95.088 131.421,91.186 131.421,87.845 130.307,86.173 132.534,85.616 131.421,83.391 
				134.205,82.832 133.647,80.6 136.435,80.042 137.547,82.274 140.332,81.714 138.104,76.704 140.332,76.147 140.89,77.261 
				142.007,77.261 143.68,81.157 147.017,80.042 143.123,70.578 145.903,69.462 145.347,68.343 146.46,68.343 149.806,76.704 
				153.702,76.147 152.586,72.803 156.491,72.247 157.604,75.035 162.054,73.917 163.168,77.261 168.191,76.147 167.077,72.803 
				172.085,71.69 173.755,78.374 179.325,77.261 179.889,79.486 181.561,82.832 172.642,47.739 171.529,47.181 108.579,73.917 
				102.452,63.891 86.296,73.359 84.071,76.704 89.637,83.947 50.084,110.686 48.414,112.354 66.245,129.625 66.245,127.951 
				65.131,126.281 67.356,124.055 64.013,120.712 66.8,118.481 67.915,120.153 70.701,118.481 69.032,116.256 71.258,114.583 
				69.589,112.91 71.815,111.242 74.04,112.91 76.269,111.242 71.815,106.226 74.04,104.555 76.828,108.459 77.943,108.459 
				80.17,111.242 82.396,109.574 79.613,105.668 80.727,104.555 82.396,105.111 84.627,107.34 86.296,106.226 85.185,103.998 
				87.41,102.33 88.521,104.555 90.754,102.886 91.869,104.555 92.983,103.998 			"/>
		</g>
		<g id="Scarecrow">
			<rect id="Head" x="223.895" y="257.883" fill="#4AA0C7" width="71.314" height="70.201"/>
			<g id="Shirt">
				<rect x="214.976" y="316.789" fill="#4AA0C7" width="8.918" height="8.932"/>
				<rect x="206.072" y="325.723" fill="#4AA0C7" width="8.903" height="8.902"/>
				<rect x="197.156" y="316.789" fill="#4AA0C7" width="8.916" height="8.932"/>
				<rect x="188.237" y="325.723" fill="#4AA0C7" width="8.919" height="8.902"/>
				<rect x="197.156" y="334.625" fill="#4AA0C7" width="8.916" height="8.899"/>
				<rect x="197.156" y="352.462" fill="#4AA0C7" width="8.916" height="8.901"/>
				<rect x="188.237" y="343.526" fill="#4AA0C7" width="8.919" height="8.936"/>
				<rect x="206.072" y="343.526" fill="#4AA0C7" width="8.903" height="8.936"/>
				<rect x="214.976" y="334.625" fill="#4AA0C7" width="8.918" height="8.899"/>
				<rect x="188.237" y="361.363" fill="#4AA0C7" width="8.919" height="8.898"/>
				<rect x="206.072" y="361.363" fill="#4AA0C7" width="8.903" height="8.898"/>
				<rect x="214.976" y="352.462" fill="#4AA0C7" width="8.918" height="8.901"/>
				<rect x="223.895" y="343.526" fill="#4AA0C7" width="8.917" height="8.936"/>
				<rect x="232.812" y="334.625" fill="#4AA0C7" width="8.9" height="8.899"/>
				<rect x="223.895" y="325.723" fill="#4AA0C7" width="8.917" height="8.902"/>
				<rect x="241.712" y="361.363" fill="#4AA0C7" width="8.918" height="8.898"/>
				<rect x="241.712" y="379.201" fill="#4AA0C7" width="8.918" height="8.899"/>
				<rect x="241.712" y="397.01" fill="#4AA0C7" width="8.918" height="8.927"/>
				<rect x="223.895" y="397.01" fill="#4AA0C7" width="8.917" height="8.927"/>
				<rect x="232.812" y="388.102" fill="#4AA0C7" width="8.9" height="8.908"/>
				<rect x="223.895" y="379.201" fill="#4AA0C7" width="8.917" height="8.899"/>
				<rect x="232.812" y="370.265" fill="#4AA0C7" width="8.9" height="8.936"/>
				<rect x="223.895" y="361.363" fill="#4AA0C7" width="8.917" height="8.898"/>
				<rect x="250.633" y="334.625" fill="#4AA0C7" width="8.901" height="8.899"/>
				<rect x="241.712" y="343.526" fill="#4AA0C7" width="8.918" height="8.936"/>
				<rect x="232.812" y="352.462" fill="#4AA0C7" width="8.9" height="8.901"/>
				<rect x="268.469" y="352.462" fill="#4AA0C7" width="8.902" height="8.901"/>
				<rect x="268.469" y="388.102" fill="#4AA0C7" width="8.902" height="8.908"/>
				<rect x="268.469" y="370.265" fill="#4AA0C7" width="8.902" height="8.936"/>
				<rect x="259.534" y="361.363" fill="#4AA0C7" width="8.932" height="8.898"/>
				<rect x="259.534" y="379.201" fill="#4AA0C7" width="8.932" height="8.899"/>
				<rect x="259.534" y="397.01" fill="#4AA0C7" width="8.932" height="8.927"/>
				<rect x="250.633" y="388.102" fill="#4AA0C7" width="8.901" height="8.908"/>
				<rect x="250.633" y="370.265" fill="#4AA0C7" width="8.901" height="8.936"/>
				<rect x="250.633" y="352.462" fill="#4AA0C7" width="8.901" height="8.901"/>
				<rect x="259.534" y="343.526" fill="#4AA0C7" width="8.932" height="8.936"/>
				<rect x="295.208" y="343.526" fill="#4AA0C7" width="8.9" height="8.936"/>
				<rect x="286.273" y="334.625" fill="#4AA0C7" width="8.935" height="8.899"/>
				<rect x="268.469" y="334.625" fill="#4AA0C7" width="8.902" height="8.899"/>
				<rect x="277.371" y="343.526" fill="#4AA0C7" width="8.902" height="8.936"/>
				<rect x="286.273" y="352.462" fill="#4AA0C7" width="8.935" height="8.901"/>
				<rect x="277.371" y="361.363" fill="#4AA0C7" width="8.902" height="8.898"/>
				<rect x="286.273" y="370.265" fill="#4AA0C7" width="8.935" height="8.936"/>
				<rect x="277.371" y="379.201" fill="#4AA0C7" width="8.902" height="8.899"/>
				<rect x="286.273" y="388.102" fill="#4AA0C7" width="8.935" height="8.908"/>
				<rect x="277.371" y="397.01" fill="#4AA0C7" width="8.902" height="8.927"/>
				<rect x="321.946" y="316.789" fill="#4AA0C7" width="8.899" height="8.932"/>
				<rect x="304.108" y="316.789" fill="#4AA0C7" width="8.902" height="8.932"/>
				<rect x="313.011" y="325.723" fill="#4AA0C7" width="8.936" height="8.902"/>
				<rect x="321.946" y="334.625" fill="#4AA0C7" width="8.899" height="8.899"/>
				<rect x="295.208" y="325.723" fill="#4AA0C7" width="8.9" height="8.902"/>
				<rect x="286.273" y="316.789" fill="#4AA0C7" width="8.935" height="8.932"/>
				<rect x="277.371" y="325.723" fill="#4AA0C7" width="8.902" height="8.902"/>
				<rect x="304.108" y="334.625" fill="#4AA0C7" width="8.902" height="8.899"/>
				<rect x="313.011" y="343.526" fill="#4AA0C7" width="8.936" height="8.936"/>
				<rect x="321.946" y="352.462" fill="#4AA0C7" width="8.899" height="8.901"/>
				<rect x="313.011" y="361.363" fill="#4AA0C7" width="8.936" height="8.898"/>
				<rect x="304.108" y="352.462" fill="#4AA0C7" width="8.902" height="8.901"/>
				<rect x="295.208" y="361.363" fill="#4AA0C7" width="8.9" height="8.898"/>
			</g>
		</g>
	</g>
</g>
</svg>
