<?xml version="1.0" encoding="utf-8"?>
<!-- Generator: Adobe Illustrator 16.0.0, SVG Export Plug-In . SVG Version: 6.00 Build 0)  -->
<!DOCTYPE svg PUBLIC "-//W3C//DTD SVG 1.1//EN" "http://www.w3.org/Graphics/SVG/1.1/DTD/svg11.dtd">
<svg version="1.1" id="smelteries" xmlns="http://www.w3.org/2000/svg" xmlns:xlink="http://www.w3.org/1999/xlink" x="0px" y="0px"
	 width="511.473px" height="511.473px" viewBox="0 0 511.473 511.473" enable-background="new 0 0 511.473 511.473"
	 xml:space="preserve">
<rect fill="#FFFFFF" width="511.473" height="511.473"/>
<g>
	<g id="Icon">
		<polygon fill="#A1CEE2" points="374.911,91.396 374.911,80.413 363.931,80.413 363.931,69.433 352.949,69.433 352.949,58.451 
			341.969,58.451 341.969,47.47 320.041,47.47 320.006,58.45 320.006,58.45 320.006,58.451 287.063,58.451 287.063,69.431 
			287.063,69.431 287.063,69.433 254.121,69.433 254.121,80.412 254.12,80.412 254.12,80.413 232.158,80.413 232.158,91.394 
			232.157,91.394 232.157,91.396 210.196,91.396 210.196,146.305 221.178,146.305 221.178,157.289 232.158,157.289 232.158,168.271 
			243.14,168.271 243.14,179.251 276.083,179.251 276.083,168.271 309.026,168.271 309.026,157.289 341.969,157.289 
			341.969,146.305 374.911,146.305 374.911,135.32 385.892,135.32 385.892,91.396 		"/>
		<polygon fill="#4AA0C7" points="412.855,285.619 412.855,263.657 390.893,263.657 390.893,241.694 368.931,241.694 
			368.931,241.692 368.93,241.692 368.93,219.732 346.969,219.732 346.969,197.762 303.144,197.762 303.042,219.731 
			303.042,219.731 303.042,219.732 237.156,219.732 237.156,241.692 237.155,241.692 237.155,241.694 171.259,241.694 
			171.259,263.656 171.258,263.656 171.258,263.657 127.333,263.657 127.333,285.619 127.333,285.619 83.409,285.619 
			83.409,395.432 105.37,395.432 105.37,417.395 127.333,417.395 127.333,439.355 149.296,439.355 149.296,461.328 215.192,461.328 
			215.192,439.355 281.08,439.355 281.08,417.395 346.969,417.395 346.969,395.432 412.855,395.432 412.855,373.47 434.828,373.47 
			434.828,285.619 		"/>
	</g>
	<polygon fill="#A1CEE2" points="155.468,113.187 155.468,91.396 133.677,91.396 133.677,113.187 111.885,113.187 111.885,134.982 
		133.677,134.982 133.677,156.771 155.468,156.771 155.468,134.982 177.265,134.982 177.265,113.187 	"/>
</g>
</svg>
