<?xml version="1.0" encoding="utf-8"?>
<!-- Generator: Adobe Illustrator 16.0.0, SVG Export Plug-In . SVG Version: 6.00 Build 0)  -->
<!DOCTYPE svg PUBLIC "-//W3C//DTD SVG 1.1//EN" "http://www.w3.org/Graphics/SVG/1.1/DTD/svg11.dtd">
<svg version="1.1" id="podzol_rooting_soil" xmlns="http://www.w3.org/2000/svg" xmlns:xlink="http://www.w3.org/1999/xlink"
	 x="0px" y="0px" width="511.473px" height="511.476px" viewBox="0 0 511.473 511.476" enable-background="new 0 0 511.473 511.476"
	 xml:space="preserve">
<rect fill="#FFFFFF" width="511.473" height="511.474"/>
<g id="Icon">
	<g id="Liquid_Tank">
		<path id="rect4147" fill="#4AA0C7" d="M288.719,432.884l-66.55-0.159l-1.46-37.415l-40.547,0.02l-4.603-58.059l-108.836-0.994
			L51.18,202.55l65.262-93.8H395.01l65.289,94.344l-15.562,133.176l-108.821,0.99l-4.27,58.404l-41.085-0.196L288.719,432.884z"/>
		<path id="rect4150" fill="#428FB3" d="M146.146,121.241l5.27,66.589h-41.503L146.146,121.241z"/>
		<path id="rect4153" fill="#428FB3" d="M148.261,116.708h215.146l-4.688,70.429H152.962L148.261,116.708z"/>
		<path id="rect4150-0" fill="#428FB3" d="M365.798,120.11l-5.268,66.582h41.503L365.798,120.11z"/>
		<path id="rect4185" fill="#FFFFFF" d="M189.487,126.323h127.056l17.08,31.976v27.286h-156.56v-25.119L189.487,126.323z"/>
		<path id="rect4171" fill="#4AA0C7" d="M174.305,123.74l11.672-35.123h4.286l133.189,0.216l0.091,1.126l12.286,34.313l-4.098,2.464
			L322.01,99.52l-0.67-1.362l-1.553,32.566l-3.463-5.243l1.352-32.433L190.508,92.8l1.015,34.141l-3.658,3.219l-0.428-33.671
			l-7.808,27.214l156.62,0.036v3.059v61.56l-159.578,0.035l0.064-5.553l154.531-0.412l-0.78-54.643l-151.238,0.781l0.021,23.748
			l9.321-28.134l127.087,0.087l4.718,1.061l12.281,29.247l0.231,14.087l-16.161-40.4l-125.045,0.265l-12.428,36.577l0.02,22.718
			h-4.993v-64.078h0.006v-0.004H174.305z"/>
	</g>
	<g id="Decoration">
		<g id="Circular_Arrows">
			<path id="Arrow_1_" fill="#A1CEE2" d="M338.411,264.85l-18.739,18.469l-0.004-0.005v-0.021c-0.006,0.011-0.01,0.015-0.026,0.021
				l-0.038,0.005l-0.271-0.311l-18.461-18.158h9.702c0.152-0.977,0.22-1.937,0.22-2.943c0-10.49-8.494-19.006-19.008-19.006
				c-3.581,0-6.983,0.995-9.839,2.738l-11.58-11.582c5.938-4.566,13.352-7.283,21.42-7.283c19.384,0,35.13,15.728,35.13,35.128
				c0,1.002-0.029,1.963-0.136,2.943h11.631V264.85L338.411,264.85L338.411,264.85z"/>
			<path id="Arrow" fill="#A1CEE2" d="M245.072,258.868l18.759-18.485l0.002,0.004v0.04c0.004-0.028,0.009-0.032,0.016-0.04
				l0.006-0.004l0.314,0.312l18.461,18.178h-9.704c-0.146,0.94-0.257,1.935-0.257,2.905c0,10.512,8.531,19.046,19.047,19.046
				c3.581,0,6.942-1.013,9.839-2.756l11.544,11.578c-5.905,4.569-13.349,7.264-21.385,7.264c-19.424,0-35.131-15.708-35.131-35.127
				c0-0.963,0.026-1.963,0.101-2.905h-11.612V258.868L245.072,258.868L245.072,258.868z"/>
		</g>
		<g id="block_2_">
			<path id="rect4153_1_" fill="#A1CEE2" d="M175.028,242.802l32.218-17.924l32.236,17.924v38.094l-32.236,17.923l-32.218-17.923
				V242.802z"/>
		</g>
		<g id="Bucket">
			<rect x="106.235" y="234.217" fill="#A1CEE2" width="46.05" height="50.664"/>
			<rect x="101.629" y="238.815" fill="#A1CEE2" width="55.258" height="36.834"/>
			<rect x="115.449" y="229.619" fill="#A1CEE2" width="27.622" height="64.458"/>
			<rect x="110.84" y="284.881" fill="#A1CEE2" width="36.838" height="4.597"/>
			<g>
				<rect x="106.235" y="238.815" fill="#A1CEE2" width="46.05" height="9.214"/>
				<rect x="115.449" y="234.217" fill="#A1CEE2" width="27.622" height="18.428"/>
			</g>
			<g>
				<rect x="106.235" y="252.645" fill="#A1CEE2" width="46.05" height="23.005"/>
				<rect x="110.84" y="273.916" fill="#A1CEE2" width="36.838" height="10.97"/>
				<rect x="115.449" y="283.16" fill="#A1CEE2" width="27.622" height="6.318"/>
			</g>
			<rect x="115.449" y="252.645" fill="#A1CEE2" width="27.622" height="4.577"/>
		</g>
		<g id="block_1_">
			<path id="rect4153_2_" fill="#A1CEE2" d="M350.711,242.802l32.249-17.924l32.218,17.924v38.094l-32.218,17.923l-32.249-17.923
				V242.802z"/>
		</g>
	</g>
</g>
<polyline fill="#FFFFFF" points="179.286,178.033 179.258,187.137 331.264,187.137 331.091,169.563 303.724,172.009 "/>
</svg>
