<?xml version="1.0" encoding="utf-8"?>
<!-- Generator: Adobe Illustrator 16.0.0, SVG Export Plug-In . SVG Version: 6.00 Build 0)  -->
<!DOCTYPE svg PUBLIC "-//W3C//DTD SVG 1.1//EN" "http://www.w3.org/Graphics/SVG/1.1/DTD/svg11.dtd">
<svg version="1.1" id="note_block_interface" xmlns="http://www.w3.org/2000/svg" xmlns:xlink="http://www.w3.org/1999/xlink"
	 x="0px" y="0px" width="511.473px" height="511.473px" viewBox="0 0 511.473 511.473" enable-background="new 0 0 511.473 511.473"
	 xml:space="preserve">
<rect fill="#FFFFFF" width="511.473" height="511.473"/>
<g id="Icon">
	<g id="Note_Blocks">
		<g id="block">
			<path id="rect4153" fill="#4AA0C7" d="M329.196,275.453l72.819-40.489l72.781,40.489v86.063l-72.781,40.479l-72.819-40.479
				V275.453z"/>
		</g>
		<g id="block_1_">
			<path id="rect4153_1_" fill="#4AA0C7" d="M38.011,275.493l72.804-40.47l72.802,40.47v86.062l-72.802,40.49l-72.804-40.489
				V275.493z"/>
		</g>
		<g id="block_2_">
			<path id="rect4153_2_" fill="#4AA0C7" d="M183.833,178.841l72.8-40.471l72.821,40.471v86.063l-72.821,40.491l-72.8-40.491
				V178.841z"/>
		</g>
	</g>
	<g id="Notes">
		<g enable-background="new    ">
			<path fill="#A1CEE2" d="M260.48,125.482V97.805h5.549v27.678H260.48z M266.029,92.262h22.158v5.542h-22.158V92.262z
				 M266.029,125.482h16.609v5.542h-16.609V125.482z M282.639,125.482v-16.61h-5.549v-5.536h11.098v22.146H282.639z"/>
		</g>
		<g enable-background="new    ">
			<path fill="#A1CEE2" d="M430.722,206.639h-16.61v16.61h16.61v5.546h-22.159v-38.766h22.159v5.533h-16.61v5.546h16.61V206.639z
				 M430.722,201.108v-5.546h5.549v5.546H430.722z M436.271,206.639v16.61h-5.549v-16.61H436.271z"/>
		</g>
		<g enable-background="new    ">
			<path fill="#A1CEE2" d="M133.938,195.79v33.219H128.4v-22.14h-16.609v22.14h-5.533V195.79h5.533v5.53H128.4v-5.53H133.938z
				 M111.791,190.259H128.4v5.531h-16.609V190.259z"/>
		</g>
		<g id="note_2_">
			<rect x="226.832" y="119.501" fill="#A1CEE2" width="17.732" height="11.44"/>
			<rect x="238.274" y="85.761" fill="#A1CEE2" width="6.29" height="41.174"/>
			<rect x="241.139" y="85.761" fill="#A1CEE2" width="9.156" height="10.867"/>
			<rect x="249.713" y="91.48" fill="#A1CEE2" width="5.148" height="10.871"/>
		</g>
		<g id="note_1_">
			<rect x="372.672" y="217.876" fill="#A1CEE2" width="17.713" height="11.422"/>
			<rect x="384.096" y="184.126" fill="#A1CEE2" width="6.289" height="41.185"/>
			<rect x="386.979" y="184.126" fill="#A1CEE2" width="9.136" height="10.871"/>
			<rect x="395.554" y="189.847" fill="#A1CEE2" width="5.13" height="10.861"/>
		</g>
		<g id="note">
			<rect x="71.858" y="218.438" fill="#A1CEE2" width="17.729" height="11.44"/>
			<rect x="83.299" y="184.697" fill="#A1CEE2" width="6.29" height="41.173"/>
			<rect x="86.16" y="184.697" fill="#A1CEE2" width="9.146" height="10.86"/>
			<rect x="94.738" y="190.415" fill="#A1CEE2" width="5.148" height="10.871"/>
		</g>
	</g>
</g>
</svg>
