<?xml version="1.0" encoding="UTF-8" standalone="no"?>
<!-- Created with Inkscape (http://www.inkscape.org/) -->

<svg
   xmlns:dc="http://purl.org/dc/elements/1.1/"
   xmlns:cc="http://creativecommons.org/ns#"
   xmlns:rdf="http://www.w3.org/1999/02/22-rdf-syntax-ns#"
   xmlns:svg="http://www.w3.org/2000/svg"
   xmlns="http://www.w3.org/2000/svg"
   xmlns:sodipodi="http://sodipodi.sourceforge.net/DTD/sodipodi-0.dtd"
   xmlns:inkscape="http://www.inkscape.org/namespaces/inkscape"
   width="210mm"
   height="297mm"
   viewBox="0 0 744.09448819 1052.3622047"
   id="svg2"
   version="1.1"
   inkscape:version="0.91 r13725"
   sodipodi:docname="bat_grenades_4.svg"
   enable-background="new">
  <defs
     id="defs4" />
  <sodipodi:namedview
     id="base"
     pagecolor="#ffffff"
     bordercolor="#666666"
     borderopacity="1.0"
     inkscape:pageopacity="0.0"
     inkscape:pageshadow="2"
     inkscape:zoom="0.7"
     inkscape:cx="476.95059"
     inkscape:cy="476.72363"
     inkscape:document-units="px"
     inkscape:current-layer="layer1"
     showgrid="false"
     inkscape:window-width="1920"
     inkscape:window-height="1017"
     inkscape:window-x="-8"
     inkscape:window-y="-8"
     inkscape:window-maximized="1"
     inkscape:snap-global="false" />
  <metadata
     id="metadata7">
    <rdf:RDF>
      <cc:Work
         rdf:about="">
        <dc:format>image/svg+xml</dc:format>
        <dc:type
           rdf:resource="http://purl.org/dc/dcmitype/StillImage" />
        <dc:title></dc:title>
      </cc:Work>
    </rdf:RDF>
  </metadata>
  <g
     inkscape:label="Layer 1"
     inkscape:groupmode="layer"
     id="layer1"
     style="opacity:1;">
    <g
       transform="translate(-1402.7388,-50.60915)"
       id="g4177" />
    <a
       id="a4378">
      <g
         id="g4323">
        <g
           id="g4384" />
      </g>
    </a>
    <a
       transform="translate(554,0)"
       id="a4357" />
    <path
       style="fill:#4aa0c7;fill-rule:evenodd;stroke:none;stroke-width:1px;stroke-linecap:butt;stroke-linejoin:miter;stroke-opacity:1;fill-opacity:1"
       d="m 361.36938,526.51653 -12.86675,-5.49456 3.03045,-11.11168 11.58612,-2.99982 -1.24474,-7.24964 5.46918,-1.30602 7.42295,-1.07143 -1.01015,-8.08122 34.93166,-17.40718 -2.1017,-8.35171 15.65736,-13.13198 5.05076,-7.07107 8.08122,2.02031 11.70342,-12.35643 -4.69363,-4.04586 6.62727,-8.34645 -3.77538,-4.81091 -3.29568,3.80076 -5.55584,-4.04061 6.11693,-7.48423 -20.76414,-12.71882 -19.6726,17.73894 -7.60152,-3.59681 -21.71828,22.22336 -6.56599,-3.03046 -12.62691,16.16244 -4.59645,-3.92332 -13.52502,12.92278 -4.8004,-4.33648 -25.06038,10.99439 -4.04061,-5.55584 c 0,0 -6.56599,-24.74874 -7.07106,-26.76904 -0.50508,-2.02031 0.50507,-18.68783 0.50507,-18.68783 l -4.04061,-0.50507 0.50508,-22.72843 0.49982,-3.44888 0.51033,-5.6425 9.59645,1.01015 1.01015,-21.2132 -7.1017,-0.14793 0.0306,-10.96375 -9.09137,-0.50507 0.50508,-14.14214 -24.21828,-9.09137 -0.17332,8.72897 -7.42821,-0.14267 -0.14793,10.96374 -7.60678,0.005 0.17857,25.42187 -9.20867,0.69416 1.30602,15.56019 -8.76487,1.39794 1.42857,15.59608 -7.48948,2.08159 7.07106,26.26396 1.51523,8.08122 5.55584,2.02031 3.53554,10.10152 9.09137,3.53554 0.50507,15.15228 -2.52538,2.52539 -19.19289,-13.63706 -14.14214,12.12183 0.50508,-14.64721 -25.25382,-11.61676 -2.0203,4.54569 -1.01016,85.86296 41.92134,20.70813 15.65736,-5.55584 87.48279,37.37565 14.35235,-26.9839 29.7095,11.23039 1.46188,-3.49194 -28.18096,-13.13481 z"
       id="path5408"
       inkscape:connector-curvature="0"
       sodipodi:nodetypes="cccccccccccccccccccccccccccccccsccccccccccccccccccccccccccccccccccccccccccc" />
  </g>
</svg>
