<?xml version="1.0" encoding="utf-8"?>
<!-- Generator: Adobe Illustrator 16.0.0, SVG Export Plug-In . SVG Version: 6.00 Build 0)  -->
<!DOCTYPE svg PUBLIC "-//W3C//DTD SVG 1.1//EN" "http://www.w3.org/Graphics/SVG/1.1/DTD/svg11.dtd">
<svg version="1.1" id="desire_lines" xmlns="http://www.w3.org/2000/svg" xmlns:xlink="http://www.w3.org/1999/xlink" x="0px"
	 y="0px" width="511.475px" height="511.475px" viewBox="0 0 511.475 511.475" enable-background="new 0 0 511.475 511.475"
	 xml:space="preserve">
<rect fill="#FFFFFF" width="511.473" height="511.474"/>
<g id="Icon">
	<g id="explosion">
		<g id="explosion_3">
			<g id="g4177_3_" transform="translate(-1402.7388,-50.60915)">
			</g>
			<a id="a4378_3_">
				<g id="g4323_3_">
					<g id="g4384_3_">
					</g>
				</g>
			</a>
			<a id="a4357_3_" transform="translate(554,0)">
			</a>
			<path id="path5429-1-3" fill="#68AECF" fill-opacity="0.5216" d="M191.147,278.979c9.22,11.587,9.679,55.543-21.082,73.051
				c-36.759,20.88-71.974,3.716-85.489-7.352c-17.489-14.354-27.227-56.796-9.544-80.211c20.407-27.072,53.696-35.692,76.286-28.434
				c1.304-1.988-37.695-3.06-53.982,31.288c-6.538,13.769-0.817,41.132,11.823,54.182c8.98,9.292,34.518,18.763,53.335,9.824
				C174.197,325.763,200.442,303.056,191.147,278.979L191.147,278.979z"/>
		</g>
		<g id="exploosion_2">
			<g id="g4177_2_" transform="translate(-1402.7388,-50.60915)">
			</g>
			<a id="a4378_2_">
				<g id="g4323_2_">
					<g id="g4384_2_">
					</g>
				</g>
			</a>
			<a id="a4357_2_" transform="translate(554,0)">
			</a>
			<path id="path5429" fill="#67AFD0" fill-opacity="0.7412" d="M179.211,298.669c-29.097,6.266-114.415-24.697-128.932-102.001
				c-16.958-90.213,37.317-127.181,67.835-145c48.324-28.224,126.224-20.3,174.52,51.783c37.938,56.622-6.26,166.015-47.643,171.94
				c3.962,4.854,71.739-58.3,21.238-131.542c-20.766-30.092-67.42-48.903-102.538-38.842
				c-40.266,11.525-76.179,54.963-75.092,96.844C89.72,245.309,127.545,293.875,179.211,298.669L179.211,298.669z"/>
		</g>
		<g id="explosion_1">
			<g id="g4177" transform="translate(-1402.7388,-50.60915)">
			</g>
			<a id="a4378">
				<g id="g4323">
					<g id="g4384">
					</g>
				</g>
			</a>
			<a id="a4357" transform="translate(554,0)">
			</a>
			<path id="path5429-1" fill="#67AFD0" d="M229.727,181.415C256.281,151.86,348.582,129.426,422,204.526
				c75.853,77.622,40.816,175.66,11.774,212.861c-47.692,61.066-132.996,72.57-202.888,36.148
				c-80.703-42.029-99.959-165.289-59.85-204.137c-5.816-2.554-24.626,95.813,73.572,123.655
				c39.418,11.195,84.527-3.477,113.458-42.774c20.567-27.92,31.414-69.373-0.588-115.209
				C337.54,186.517,289.346,146.106,229.727,181.415L229.727,181.415z"/>
		</g>
	</g>
	<g id="bat">
		<g id="g4177_1_" transform="translate(-1402.7388,-50.60915)">
		</g>
		<a id="a4378_1_">
			<g id="g4323_1_">
				<g id="g4384_1_">
				</g>
			</g>
		</a>
		<a id="a4357_1_" transform="translate(554,0)">
		</a>
		<path id="path5408" fill="#4AA0C7" d="M244.419,257.677l-9.328-3.978l2.197-8.061l8.412-2.176l-0.916-5.258l3.981-0.93
			l5.378-0.782l-0.746-5.863l25.34-12.61l-1.535-6.059l11.37-9.538l3.664-5.121l5.845,1.469l8.478-8.958l-3.391-2.945l4.793-6.042
			l-2.717-3.481l-2.403,2.75l-4.031-2.925l4.433-5.432l-15.03-9.22l-14.261,12.863l-5.535-2.608l-15.745,16.109l-4.759-2.197
			l-9.152,11.734l-3.336-2.857l-9.814,9.375l-3.472-3.147l-18.177,7.979l-2.938-4.03c0,0-4.766-17.941-5.13-19.411
			c-0.364-1.459,0.364-13.548,0.364-13.548l-2.925-0.364l0.364-16.48l0.357-2.5l0.363-4.09l6.969,0.741l0.734-15.38l-5.155-0.113
			l0.04-7.947l-6.591-0.364l0.364-10.251l-17.564-6.591l-0.118,6.33l-5.39-0.109l-0.108,7.948h-5.512l0.135,18.425l-6.679,0.506
			l0.949,11.275l-6.362,1.024l1.032,11.304l-5.425,1.514l5.135,19.028l1.085,5.863l4.03,1.457l2.561,7.333l6.592,2.56l0.371,10.986
			l-1.834,1.833l-13.918-9.893l-10.251,8.788l0.377-10.602l-18.328-8.425l-1.461,3.283l-0.741,62.242l30.394,15.035l11.35-4.028
			l63.428,27.088l10.401-19.554l21.539,8.129l1.059-2.514l-20.424-9.554L244.419,257.677z"/>
	</g>
</g>
</svg>
