<?xml version="1.0" encoding="utf-8"?>
<!-- Generator: Adobe Illustrator 16.0.0, SVG Export Plug-In . SVG Version: 6.00 Build 0)  -->
<!DOCTYPE svg PUBLIC "-//W3C//DTD SVG 1.1//EN" "http://www.w3.org/Graphics/SVG/1.1/DTD/svg11.dtd">
<svg version="1.1"
	 id="speed_paths" xmlns:cc="http://creativecommons.org/ns#" xmlns:dc="http://purl.org/dc/elements/1.1/" xmlns:inkscape="http://www.inkscape.org/namespaces/inkscape" xmlns:rdf="http://www.w3.org/1999/02/22-rdf-syntax-ns#" xmlns:sodipodi="http://sodipodi.sourceforge.net/DTD/sodipodi-0.dtd" xmlns:svg="http://www.w3.org/2000/svg"
	 xmlns="http://www.w3.org/2000/svg" xmlns:xlink="http://www.w3.org/1999/xlink" x="0px" y="0px" width="511.473px"
	 height="511.473px" viewBox="0 0 511.473 511.473" enable-background="new 0 0 511.473 511.473" xml:space="preserve">
<rect fill="#FFFFFF" width="511.473" height="511.473"/>
<g>
	<g>
		<g>
			<rect fill="#A1CEE2" width="511.473" height="239.155"/>
		</g>
	</g>
</g>
<g>
	<polygon fill="#A1CEE2" points="270.608,235.553 244.208,235.553 108.778,511.473 402.748,511.473 	"/>
</g>
<g>
	<rect x="116.86" y="217.226" fill="#4AA0C7" width="287.028" height="52.808"/>
	<g enable-background="new    ">
		<path fill="#FFFFFF" d="M161.276,250.336v5.357h-5.357v5.357h-5.357v-37.501h5.357v26.787H161.276z M166.633,244.979v5.357h-5.357
			v-5.357H166.633z M177.348,223.549v37.501h-5.357v-5.357h-5.357v-5.357h5.357v-26.787H177.348z"/>
		<path fill="#FFFFFF" d="M209.487,239.621v10.715h-21.429v5.357h-5.357v-16.072h5.357v5.357h16.072v-5.357H209.487z
			 M188.058,234.264h16.072v5.357h-16.072V234.264z M188.058,255.693h21.429v5.357h-21.429V255.693z"/>
		<path fill="#FFFFFF" d="M214.84,255.693v-32.144h5.357v32.144H214.84z M225.555,255.693v5.357h-5.357v-5.357H225.555z"/>
		<path fill="#FFFFFF" d="M236.267,239.621v16.072h-5.357v-16.072H236.267z M252.339,239.621h-16.072v-5.357h16.072V239.621z
			 M236.267,255.693h16.072v5.357h-16.072V255.693z M252.339,244.979v-5.357h5.357v5.357H252.339z M257.696,255.693h-5.357v-5.357
			h5.357V255.693z"/>
		<path fill="#FFFFFF" d="M263.049,255.693v-16.072h5.357v16.072H263.049z M268.406,234.264h16.072v5.357h-16.072V234.264z
			 M284.479,261.051h-16.072v-5.357h16.072V261.051z M289.836,239.621v16.072h-5.357v-16.072H289.836z"/>
		<path fill="#FFFFFF" d="M305.903,239.621h-5.357v21.43h-5.357v-26.787h10.715V239.621z M311.261,239.621v10.715h-5.357v-10.715
			H311.261z M316.618,234.264v5.357h-5.357v-5.357H316.618z M321.976,239.621v21.43h-5.357v-21.43H321.976z"/>
		<path fill="#FFFFFF" d="M354.115,239.621v10.715h-21.43v5.357h-5.357v-16.072h5.357v5.357h16.072v-5.357H354.115z
			 M332.686,234.264h16.072v5.357h-16.072V234.264z M332.686,255.693h21.43v5.357h-21.43V255.693z"/>
		<path fill="#FFFFFF" d="M364.825,223.549v26.787h-5.357v-26.787H364.825z M359.468,255.693h5.357v5.357h-5.357V255.693z"/>
	</g>
</g>
<g>
	<polygon fill="#4AA0C7" points="347.442,145.348 375.133,144.039 375.133,163.617 347.442,157.409 	"/>
	<g enable-background="new    ">
		<g>
			<path fill="#FFFFFF" d="M350.903,153.431v1.32l-0.414-0.056v1.305l-0.408-0.078v-9.073l0.408-0.003v6.545L350.903,153.431z
				 M351.323,152.156v1.338l-0.42-0.063v-1.314L351.323,152.156z M352.178,146.827v9.479l-0.43-0.083v-1.333l-0.425-0.072v-1.322
				l0.425,0.042v-6.704L352.178,146.827z"/>
			<path fill="#FFFFFF" d="M354.941,151.078v2.863l-1.883-0.229v1.369l-0.445-0.063v-4.098l0.445,0.024v1.382l1.369,0.128v-1.413
				L354.941,151.078z M353.059,149.57l1.369,0.061v1.413l-1.369-0.1V149.57z M353.059,155.078l1.883,0.286v1.428l-1.883-0.338
				V155.078z"/>
			<path fill="#FFFFFF" d="M355.418,155.445v-8.65l0.487-0.009v8.731L355.418,155.445z M356.441,155.588v1.479l-0.533-0.095v-1.458
				L356.441,155.588z"/>
			<path fill="#FFFFFF" d="M358.009,152.806v1.514l-0.56-0.061v3.002l-0.509-0.096v-10.4l0.509-0.005v5.998L358.009,152.806z
				 M358.554,152.862l-0.547-0.058v-1.514l0.547,0.047V152.862z M358.009,155.832v-1.513l0.562,0.069v1.525L358.009,155.832z
				 M359.11,151.37l-0.54-0.032v-1.526l0.54,0.02V151.37z M358.554,157.445v-1.532l0.557,0.089v1.542L358.554,157.445z"/>
			<path fill="#FFFFFF" d="M359.699,156.096v-4.687l0.552,0.047v4.732L359.699,156.096z M360.251,149.871l1.848,0.083v1.625
				l-1.848-0.124V149.871z M362.099,158.079l-1.848-0.328v-1.563l1.848,0.266V158.079z M362.735,151.621v4.931l-0.636-0.099v-4.875
				L362.735,151.621z"/>
			<path fill="#FFFFFF" d="M364.714,151.769l-0.67-0.06v6.734l-0.661-0.13v-8.308l1.335,0.061L364.714,151.769L364.714,151.769z
				 M365.395,151.807v3.438l-0.683-0.09v-3.386L365.395,151.807z M366.118,150.124v1.745l-0.724-0.061v-1.716L366.118,150.124z
				 M366.844,151.908v7.023l-0.726-0.125v-6.938L366.844,151.908z"/>
			<path fill="#FFFFFF" d="M368.345,146.619v8.988l-0.78-0.092v-8.888L368.345,146.619z M367.564,157.292l0.78,0.114v1.805
				l-0.78-0.145V157.292z"/>
		</g>
	</g>
</g>
<g>
	<rect x="172.725" y="146.882" fill="#4AA0C7" width="82.603" height="12.593"/>
	<text transform="matrix(1 0 0 1 181.4399 157.3398)" fill="#FFFFFF" font-family="'Minecraft-Regular'" font-size="12.7816">Willkommen!</text>
</g>
<path fill="#3D83A3" d="M297.404,305.399h-7.213v-6.717h-6.761h-13.927h-6.715v6.717h-6.734v12.93v0.997h-12.933v7.257h-7.236v7.214
	h-6.193v6.764h-7.757v6.715h-6.716v6.718h-7.25v7.225h-6.723v6.203h-6.192v20.688h6.193v6.715h6.724v6.214h20.678v-6.214h6.215
	v-6.715h7.238v-7.24h6.715v-6.736h6.715v-6.715h7.758V360.2h6.211v-6.746h6.718h7.231v-7.228h6.744v-6.216v-1.043h7.212v-33.569
	L297.404,305.399L297.404,305.399z M276.219,340.014v-6.217h-6.718v-7.214h-6.718v-7.257l0,0v-0.997h6.718v-6.214h13.927v27.901
	L276.219,340.014L276.219,340.014z"/>
<g>
	<polygon fill="#4AA0C7" points="362.311,116.458 460.667,84.31 460.667,132.267 362.311,137.759 	"/>
	<g>
		<g enable-background="new    ">
			<g>
				<path fill="#FFFFFF" d="M366.408,127.5v-9.102l0.722-0.208v9.181L366.408,127.5z M367.91,131.857l-0.779,0.092v-4.578
					l0.779-0.142V131.857z M367.91,131.857l0.742-0.094v2.338l-0.742,0.081V131.857z M369.452,126.958v4.709l-0.8,0.095v-4.672
					L369.452,126.958z M370.265,117.292v9.52l-0.813,0.146v-9.436L370.265,117.292z"/>
				<path fill="#FFFFFF" d="M371.882,128.944v2.434l-0.835,0.102v-2.412L371.882,128.944z M374.467,123.567l-2.585,0.529v-2.422
					l2.585-0.605V123.567z M375.354,123.391v10.072l-3.473,0.329v-2.414l2.585-0.318v-2.496l-2.585,0.378v-2.417l2.585-0.461v-2.499
					L375.354,123.391z"/>
				<path fill="#FFFFFF" d="M376.304,130.841v-15.28l0.916-0.261v15.429L376.304,130.841z M378.152,130.613v2.596l-0.933,0.083
					v-2.564L378.152,130.613z"/>
				<path fill="#FFFFFF" d="M381.134,124.892v2.669l-1.02,0.155v5.3l-0.968,0.097v-18.366l0.968-0.29v10.602L381.134,124.892z
					 M382.177,124.701l-1.043,0.191v-2.682l1.043-0.212V124.701z M381.134,130.24v-2.678l1.043-0.153v2.705L381.134,130.24z
					 M383.235,121.782l-1.059,0.216v-2.707l1.059-0.252V121.782z M382.177,132.818v-2.705l1.059-0.125v2.731L382.177,132.818z"/>
				<path fill="#FFFFFF" d="M384.313,129.862v-8.299l1.097-0.225v8.381L384.313,129.862z M385.411,118.54l3.452-0.806v2.887
					l-3.452,0.717V118.54z M388.861,132.189l-3.451,0.328v-2.797l3.451-0.414V132.189z M390.062,120.381v8.767l-1.198,0.149v-8.676
					L390.062,120.381z"/>
				<path fill="#FFFFFF" d="M393.843,119.611l-1.291,0.254v11.972l-1.266,0.118v-14.792l2.557-0.583V119.611L393.843,119.611z
					 M395.159,119.332v6.133l-1.316,0.201v-6.055L395.159,119.332z M396.501,115.959v3.107l-1.342,0.266v-3.058L396.501,115.959z
					 M397.912,118.775v12.558l-1.412,0.142v-12.41L397.912,118.775z"/>
				<path fill="#FFFFFF" d="M402.272,117.887l-1.497,0.3v12.879l-1.47,0.132v-15.89l2.966-0.692L402.272,117.887L402.272,117.887z
					 M403.801,117.571v6.601l-1.528,0.226v-6.51L403.801,117.571z M405.381,113.901v3.346l-1.58,0.322v-3.31L405.381,113.901z
					 M406.999,116.919v13.552l-1.606,0.159v-13.382L406.999,116.919z"/>
				<path fill="#FFFFFF" d="M417.643,114.729v7.373l-7.284,1.089v3.477l-1.694,0.209V116.58l1.694-0.356v3.491l5.402-0.958v-3.64
					L417.643,114.729z M410.365,112.741l5.397-1.251v3.627l-5.397,1.109V112.741z M410.365,126.669l7.279-0.886v3.681l-7.279,0.689
					V126.669z"/>
				<path fill="#FFFFFF" d="M428.072,112.604l-6.428,1.311v15.175l-2.041,0.184v-18.688l8.469-1.957V112.604z M430.339,112.131
					v16.134l-2.267,0.216v-15.876L430.339,112.131z"/>
				<path fill="#FFFFFF" d="M435.11,98.671v20.814l-2.416,0.362V99.36L435.11,98.671z M432.694,123.946l2.415-0.302v4.172
					l-2.415,0.228V123.946z"/>
				<path fill="#FFFFFF" d="M440.227,97.199v21.52l-2.592,0.388V97.945L440.227,97.199z M437.635,123.34l2.592-0.316v4.303
					l-2.592,0.246V123.34z"/>
			</g>
		</g>
	</g>
	<polygon fill="#FFFFFF" points="372.722,119.09 371.861,119.313 371.861,116.835 372.722,116.593 	"/>
	<polygon fill="#FFFFFF" points="374.457,118.644 373.565,118.875 373.565,116.344 374.457,116.088 	"/>
</g>
<g>
	<rect x="196.83" y="166.481" fill="#4AA0C7" width="159.861" height="25.277"/>
	<g>
		<g>
			<text transform="matrix(1 0 0 1 207.4307 186.3384)" fill="#FFFFFF" font-family="'Minecraft-Regular'" font-size="24.3255">Hosgeldiniz!</text>
		</g>
		<rect x="243.861" y="186.333" fill="#FFFFFF" width="2.485" height="2.485"/>
		<rect x="241.377" y="188.819" fill="#FFFFFF" width="2.484" height="2.484"/>
	</g>
</g>
<g>
	<polygon fill="#4AA0C7" points="64.739,71.886 153.527,111.536 153.527,128.892 64.739,114.089 	"/>
	<g>
		<g enable-background="new    ">
			<g>
				<path fill="#FFFFFF" d="M76.643,89.219v3.821l-2.192-0.723v-3.881L76.643,89.219z M76.643,104.504v3.811l-2.192-0.487v-3.873
					L76.643,104.504z M76.643,85.407l8.139,3.146v3.594l-8.139-2.929V85.407z M76.643,93.038l6.198,2.059v3.647l-6.198-1.884V93.038
					z M82.84,113.351l-6.199-1.218v-3.818l6.199,1.381V113.351z M84.782,99.341v10.788l-1.943-0.433V98.744L84.782,99.341z"/>
				<path fill="#FFFFFF" d="M95.338,102.564v6.605l-6.844-1.713v3.494l-1.829-0.4V99.914l1.829,0.558v3.5l5.197,1.437v-3.351
					L95.338,102.564z M88.494,96.979l5.197,1.728v3.35l-5.197-1.584V96.979z M88.494,110.951l6.844,1.529v3.297l-6.844-1.329
					V110.951z"/>
				<path fill="#FFFFFF" d="M96.928,112.831V93.263l1.561,0.6v19.31L96.928,112.831z M100.001,113.51v3.187l-1.512-0.301v-3.223
					L100.001,113.51z"/>
				<path fill="#FFFFFF" d="M102.916,111.061v3.096l-1.445-0.32v-3.139L102.916,111.061z M107.018,106.128l-4.103-1.262v-3.096
					l4.103,1.364V106.128z M108.32,106.516v11.802l-5.405-1.06v-3.101l4.104,0.923v-2.992l-4.104-1.025v-3.092l4.104,1.134v-2.976
					L108.32,106.516z"/>
				<path fill="#FFFFFF" d="M112.042,107.657l-1.212-0.372V118.8l-1.233-0.241v-14.566l2.447,0.822L112.042,107.657L112.042,107.657
					z M113.227,108.018v5.625l-1.186-0.288v-5.698L113.227,108.018z M114.384,105.592v2.781l-1.157-0.355v-2.816L114.384,105.592z
					 M115.527,108.72v11.001l-1.144-0.219v-11.131L115.527,108.72z"/>
				<path fill="#FFFFFF" d="M117.71,114.768v2.691l-1.083-0.247v-2.719L117.71,114.768z M120.825,110.338l-3.115-0.954v-2.691
					l3.115,1.041V110.338z M121.815,110.643v10.3l-4.105-0.792v-2.691l3.115,0.683v-2.602l-3.115-0.772v-2.693l3.115,0.864v-2.602
					L121.815,110.643z"/>
				<path fill="#FFFFFF" d="M123.744,118.793v-7.57l-0.956-0.291v-2.544l0.956,0.319v-5.053l0.932,0.355v4.996l0.917,0.306v2.471
					l-0.917-0.27V119L123.744,118.793z M124.672,121.5V119l0.918,0.207v2.475L124.672,121.5z"/>
				<path fill="#FFFFFF" d="M129.902,120.167v-7.068l0.811,0.257v6.993L129.902,120.167z M133.815,107.554v15.734l-3.103-0.613
					v-2.325l2.347,0.519v-4.537l-0.766-0.212v-2.291l0.766,0.236v-6.802L133.815,107.554z M130.711,113.356v-2.342l1.581,0.528
					v2.287L130.711,113.356z"/>
				<path fill="#FFFFFF" d="M135.287,119.159v2.205l-0.731-0.163v-2.223L135.287,119.159z M137.389,115.394l-2.102-0.642v-2.215
					l2.102,0.708V115.394z M138.075,115.592v8.519l-2.787-0.543v-2.204l2.102,0.469v-2.15l-2.102-0.525v-2.21l2.102,0.585v-2.142
					L138.075,115.592z"/>
				<path fill="#FFFFFF" d="M139.391,122.273v-6.28l-0.654-0.199v-2.107l0.654,0.218v-4.191l0.644,0.249v4.157l0.636,0.21v2.057
					l-0.636-0.197v6.233L139.391,122.273z M140.036,124.495v-2.071l0.636,0.135v2.057L140.036,124.495z"/>
				<path fill="#FFFFFF" d="M141.894,120.813v2.03l-0.609-0.145v-2.044L141.894,120.813z M143.686,117.302l-1.789-0.542v-2.021
					l1.789,0.586V117.302z M144.251,117.478v7.847l-2.354-0.467v-2.014l1.789,0.386v-1.974l-1.789-0.442v-2.031l1.789,0.501v-1.982
					L144.251,117.478z"/>
				<path fill="#FFFFFF" d="M146.979,118.318l-1.614-0.502v7.727l-0.554-0.108v-9.728l2.168,0.717L146.979,118.318L146.979,118.318z
					 M147.505,118.468v7.486l-0.525-0.093v-7.541L147.505,118.468z"/>
				<path fill="#FFFFFF" d="M148.534,122.465l-0.51-0.126v-3.704l0.51,0.146V122.465z M149.996,128.248l-1.972-0.33v-1.865
					l1.972,0.387V128.248z M150.486,126.536l-0.489-0.096v-1.802l-1.463-0.329v-1.843l1.463,0.379v-3.614l-1.463-0.449v-1.841
					l1.955,0.649L150.486,126.536L150.486,126.536z"/>
				<path fill="#FFFFFF" d="M151.407,114.37v8.821l-0.458-0.114v-8.879L151.407,114.37z M150.949,124.847l0.458,0.104v1.773
					l-0.458-0.093V124.847z"/>
			</g>
		</g>
	</g>
</g>
<g>
	<polygon fill="#4AA0C7" points="18.471,148.957 163.012,154.968 163.012,187.216 18.471,231.022 	"/>
	<g enable-background="new    ">
		<g>
			<path fill="#FFFFFF" d="M48.037,165.979v7.201l-3.882,0.281v-7.34L48.037,165.979z M48.037,180.39v28.818l-3.882,0.954v-29.36
				L48.037,180.39z"/>
			<path fill="#FFFFFF" d="M65.474,178.565l-10.093,1.06v20.84l10.093-2.102v6.595l-13.697,3.346v-49.521l13.697,0.004v6.592
				l-10.093,0.343v6.957l10.093-0.708V178.565z M65.474,171.973v-6.592l3.136-0.108v6.483L65.474,171.973z M68.611,178.239v19.455
				l-3.137,0.67v-19.799L68.611,178.239z"/>
			<path fill="#FFFFFF" d="M74.582,158.792v6.272l-2.937,0.102v-6.376L74.582,158.792z M74.582,171.336v31.387l-2.937,0.725v-31.906
				L74.582,171.336z"/>
			<path fill="#FFFFFF" d="M90.4,175.965v11.445l-10.216,1.792v6.074l-2.756,0.569v-18.517l2.756-0.295v6.073l7.776-1.083v-5.809
				L90.4,175.965z M80.184,170.96l7.776-0.542v5.796l-7.776,0.82V170.96z M80.184,195.276l10.216-2.143v5.723l-10.216,2.493V195.276
				z"/>
			<path fill="#FFFFFF" d="M101.599,174.791l-6.533,0.683v22.252l-2.294,0.558v-28.21l8.83-0.605L101.599,174.791L101.599,174.791z
				 M103.657,174.576v21.041l-2.059,0.51v-21.335L103.657,174.576z"/>
			<path fill="#FFFFFF" d="M105.655,184.747v-15.57l1.949-0.129v15.355L105.655,184.747z M109.506,184.074v5.06l-1.902,0.404v-5.134
				L109.506,184.074z M109.506,189.134l1.848-0.39v5l-1.848,0.448V189.134z M111.354,183.751l1.811-0.318v4.936l-1.811,0.374
				V183.751z M114.917,168.534v14.598l-1.752,0.303v-14.779L114.917,168.534z"/>
			<path fill="#FFFFFF" d="M124.616,172.393v9.055l-6.307,1.096v4.747l-1.675,0.345v-14.403l1.675-0.183v4.748l4.788-0.664v-4.59
				L124.616,172.393z M118.304,168.302l4.792-0.331v4.573l-4.792,0.505V168.302z M118.304,187.291l6.311-1.315v4.528l-6.311,1.535
				V187.291z"/>
			<path fill="#FFFFFF" d="M131.722,171.648l-4.174,0.434v17.695l-1.442,0.348V167.76l5.616-0.396V171.648z M133.045,171.514v16.93
				l-1.321,0.324v-17.121L133.045,171.514z"/>
			<path fill="#FFFFFF" d="M135.622,158.813v4.14l-1.278,0.05v-4.191L135.622,158.813z M135.622,167.102v20.711l-1.278,0.313
				v-20.931L135.622,167.102z"/>
			<path fill="#FFFFFF" d="M136.862,183.405V171.11l1.226-0.125v12.172L136.862,183.405z M142.724,158.816v27.264l-4.636,1.122
				v-4.042l3.505-0.739v-7.868l-1.139,0.152v-3.959l1.139-0.132v-11.796L142.724,158.816L142.724,158.816z M138.088,170.985v-4.063
				l2.366-0.154v3.977L138.088,170.985z"/>
			<path fill="#FFFFFF" d="M143.821,181.944v-11.567l1.08-0.112v11.449L143.821,181.944z M144.9,166.457l3.12-0.217v3.7l-3.12,0.325
				V166.457z M148.019,184.785l-3.12,0.761v-3.828l3.12-0.654V184.785z M149.012,169.834v11.021l-0.993,0.208V169.94
				L149.012,169.834z"/>
			<path fill="#FFFFFF" d="M150.956,169.635v3.613l-0.965,0.128v-3.645L150.956,169.635z M153.744,183.385l-3.753,0.904v-3.638
				l3.753-0.786V183.385z M150.956,166.033l3.676-0.247v3.472l-3.676,0.377V166.033z M150.956,173.247l2.788-0.397v3.519
				l-2.788,0.474V173.247z M153.744,179.865v-3.495l0.888-0.168v3.48L153.744,179.865z"/>
			<path fill="#FFFFFF" d="M156.375,158.821V175.9l-0.863,0.157v-17.236H156.375z M155.514,179.504l0.863-0.188v3.423l-0.863,0.212
				V179.504z"/>
		</g>
	</g>
</g>
<g>
	<polygon fill="#4AA0C7" points="386.329,162.269 493.671,164.511 493.671,226.377 386.329,187.154 	"/>
	<g enable-background="new    ">
		<g>
			<path fill="#FFFFFF" d="M393.486,174.014l-2.223-0.378v8.091l2.223,0.607v2.781l-2.921-0.915v-18.696l2.921,0.189v2.769
				l-2.223-0.218v2.695l2.223,0.293V174.014z M393.486,171.233v-2.77l0.786,0.071v2.803L393.486,171.233z M394.276,174.139v8.408
				l-0.79-0.212v-8.32L394.276,174.139z"/>
			<path fill="#FFFFFF" d="M399.249,174.977v5.947l-3.396-0.792v2.847l-0.776-0.217v-8.494l0.776,0.149v2.847l2.521,0.514v-2.955
				L399.249,174.977z M395.853,171.549l2.525,0.33v2.944l-2.525-0.407V171.549z M395.853,182.979l3.396,0.93v2.963l-3.396-1.037
				V182.979z"/>
			<path fill="#FFFFFF" d="M401.991,175.427l-0.96-0.146v12.139l-0.898-0.266v-15.045l1.859,0.256L401.991,175.427L401.991,175.427z
				 M402.921,175.583v6.209l-0.93-0.222v-6.143L402.921,175.583z M403.904,172.611v3.136l-0.988-0.165v-3.095L403.904,172.611z
				 M404.878,175.921V188.6l-0.974-0.308v-12.544L404.878,175.921z"/>
			<path fill="#FFFFFF" d="M411.316,180.385l-5.413-1.091v-3.214l5.413,0.904V180.385z"/>
			<path fill="#FFFFFF" d="M412.462,184.057v-10.315l1.211,0.161v10.445L412.462,184.057z M414.891,184.622v3.53l-1.217-0.33v-3.474
				L414.891,184.622z M414.891,188.151l1.23,0.339v3.564l-1.23-0.37V188.151z M416.121,184.922l1.283,0.308v3.601l-1.283-0.344
				V184.922z M418.714,174.567v10.978l-1.31-0.314v-10.838L418.714,174.567z"/>
			<path fill="#FFFFFF" d="M421.458,167.427v3.758l-1.379-0.146v-3.701L421.458,167.427z M421.458,174.924v18.759l-1.379-0.425
				v-18.506L421.458,174.924z"/>
			<path fill="#FFFFFF" d="M428.961,179.937l-4.643-0.768v15.397l-1.438-0.45v-19.006l6.081,0.813V179.937L428.961,179.937z
				 M430.563,180.196v16.286l-1.599-0.485v-16.061L430.563,180.196z"/>
			<path fill="#FFFFFF" d="M432.246,192.877v-12.393l1.722,0.295v12.559L432.246,192.877z M441.366,168.655v31.148l-7.394-2.273
				v-4.193l5.46,1.494v-8.759l-1.859-0.391v-4.315l1.859,0.316v-13.148L441.366,168.655z M433.968,180.779v-4.193l3.599,0.465v4.316
				L433.968,180.779z"/>
			<path fill="#FFFFFF" d="M443.383,195.903v-13.566l2.054,0.341v13.781L443.383,195.903z M445.437,178.1l6.627,0.869v4.819
				l-6.627-1.11V178.1z M452.059,203.071l-6.621-2.025v-4.585l6.621,1.803V203.071z M454.402,184.178V198.9l-2.338-0.635v-14.471
				L454.402,184.178z"/>
			<path fill="#FFFFFF" d="M459.355,185.012v5.077l-2.52-0.515v-4.984L459.355,185.012z M467.464,207.807l-10.628-3.26v-4.984
				l10.628,2.883V207.807z M459.355,179.937l11.041,1.444v5.472l-11.041-1.842V179.937z M459.355,190.088l8.108,1.636v5.369
				l-8.108-1.929V190.088z M467.464,202.446v-5.353l2.933,0.681v5.471L467.464,202.446z"/>
			<path fill="#FFFFFF" d="M476.547,170.848v28.397l-3.121-0.747v-27.845L476.547,170.848z M473.423,204.058l3.122,0.854v5.688
				l-3.122-0.967V204.058z"/>
		</g>
	</g>
</g>
<g>
	<g>
		<path fill="none" d="M51.929,508.486h406.829c27.27,0,49.403-22.145,49.403-49.409V52.253c0-27.286-22.136-49.411-49.403-49.411
			H51.929c-27.291,0-49.412,22.126-49.412,49.411v406.818C2.518,486.343,24.641,508.486,51.929,508.486z"/>
	</g>
</g>
</svg>
