<?xml version="1.0" encoding="utf-8"?>
<!-- Generator: Adobe Illustrator 16.0.0, SVG Export Plug-In . SVG Version: 6.00 Build 0)  -->
<!DOCTYPE svg PUBLIC "-//W3C//DTD SVG 1.1//EN" "http://www.w3.org/Graphics/SVG/1.1/DTD/svg11.dtd">
<svg version="1.1" id="fulcio_shamir" xmlns="http://www.w3.org/2000/svg" xmlns:xlink="http://www.w3.org/1999/xlink" x="0px"
	 y="0px" width="511.473px" height="511.473px" viewBox="0 0 511.473 511.473" enable-background="new 0 0 511.473 511.473"
	 xml:space="preserve">
<rect fill="#FFFFFF" width="511.473" height="511.473"/>
<g id="Icon">
	<polygon id="Ray" fill="#DBECF4" points="415.164,399.573 167.32,442.635 167.32,263.043 415.164,283.021 364.23,312.412 
		364.23,371.751 	"/>
	<g id="block">
		<g id="dotted_block">
			<g>
				<polygon fill="#3D83A3" points="365.868,316.488 362.613,316.488 362.613,310.685 367.703,307.861 369.277,310.688 
					365.868,312.585 				"/>
			</g>
			<g>
				<path fill="#3D83A3" d="M377.727,306.008l-1.578-2.842l8.454-4.685l1.56,2.816L377.727,306.008z M394.622,296.614l-1.577-2.841
					l8.437-4.682l1.575,2.812L394.622,296.614z"/>
			</g>
			<g>
				<polygon fill="#3D83A3" points="418.436,287.22 414.977,285.278 411.524,287.22 409.948,284.378 414.977,281.591 
					420.009,284.378 				"/>
			</g>
			<g>
				<path fill="#3D83A3" d="M452.226,306.008l-8.449-4.71l1.579-2.816l8.436,4.685L452.226,306.008z M435.332,296.614l-8.456-4.711
					l1.578-2.812l8.44,4.682L435.332,296.614z"/>
			</g>
			<g>
				<polygon fill="#3D83A3" points="467.329,316.488 464.091,316.488 464.091,312.585 460.676,310.688 462.252,307.861 
					467.329,310.685 				"/>
			</g>
			<g>
				<path fill="#3D83A3" d="M467.329,356.714h-3.238v-10.06h3.238V356.714z M467.329,336.595h-3.238v-10.041h3.238V336.595z"/>
			</g>
			<g>
				<polygon fill="#3D83A3" points="462.252,375.403 460.676,372.561 464.091,370.664 464.091,366.762 467.329,366.762 
					467.329,372.564 				"/>
			</g>
			<g>
				<path fill="#3D83A3" d="M428.454,394.192l-1.578-2.85l8.456-4.682l1.563,2.814L428.454,394.192z M445.355,384.799l-1.579-2.85
					l8.449-4.682l1.565,2.813L445.355,384.799z"/>
			</g>
			<g>
				<polygon fill="#3D83A3" points="414.977,401.678 409.948,398.869 411.524,396.059 414.977,397.972 418.436,396.059 
					420.009,398.869 				"/>
			</g>
			<g>
				<path fill="#3D83A3" d="M401.485,394.192l-8.438-4.714l1.572-2.813l8.436,4.681L401.485,394.192z M384.603,384.799l-8.454-4.714
					l1.578-2.813l8.436,4.681L384.603,384.799z"/>
			</g>
			<g>
				<polygon fill="#3D83A3" points="367.703,375.403 362.613,372.564 362.613,366.762 365.868,366.762 365.868,370.664 
					369.277,372.561 				"/>
			</g>
			<g>
				<path fill="#3D83A3" d="M365.868,356.714h-3.255v-10.06h3.255V356.714z M365.868,336.595h-3.255v-10.041h3.255V336.595z"/>
			</g>
			<g>
				<polygon fill="#3D83A3" points="416.75,345.191 413.514,345.191 413.514,339.376 418.598,336.553 420.164,339.395 
					416.75,341.287 				"/>
			</g>
			<g>
				<path fill="#3D83A3" d="M428.61,334.68l-1.578-2.843l8.455-4.687l1.577,2.832L428.61,334.68z M445.511,325.286l-1.579-2.851
					l8.455-4.678l1.569,2.834L445.511,325.286z M458.951,317.805l-1.576-2.813l8.461-4.713l1.562,2.847L458.951,317.805z"/>
			</g>
			<g>
				<path fill="#3D83A3" d="M416.75,385.396h-3.236v-10.069h3.236V385.396z M416.75,365.295h-3.236v-10.069h3.236V365.295z"/>
			</g>
		</g>
		<g>
			<path fill="#3D83A3" d="M416.63,385.396h-3.228v-10.069h3.228V385.396z M416.63,365.295h-3.228v-10.069h3.228V365.295z
				 M416.935,400.582h-3.228v-10.05h3.228V400.582z"/>
		</g>
		<g>
			<polygon fill="#3D83A3" points="416.63,345.191 413.402,345.191 413.402,341.287 409.978,339.395 411.557,336.553 
				416.63,339.376 			"/>
		</g>
		<g>
			<path fill="#3D83A3" d="M401.545,334.68l-8.464-4.691l1.579-2.834l8.454,4.697L401.545,334.68z M384.647,325.286l-8.466-4.683
				l1.578-2.842l8.465,4.68L384.647,325.286z M370.96,317.984l-8.438-4.7l1.569-2.848l8.443,4.713L370.96,317.984z"/>
		</g>
	</g>
	<g id="Compass">
		<g>
			<rect x="107.725" y="397.735" fill="#A1CEE2" width="89.79" height="29.937"/>
			<rect x="62.833" y="382.779" fill="#A1CEE2" width="179.573" height="29.927"/>
			<g>
				<rect x="62.833" y="292.998" fill="#7FBCD7" width="179.573" height="89.78"/>
				<rect x="107.725" y="278.02" fill="#7FBCD7" width="89.79" height="19.177"/>
			</g>
			<rect x="227.443" y="367.802" fill="#A1CEE2" width="15.443" height="17.598"/>
			<rect x="62.833" y="367.802" fill="#A1CEE2" width="14.963" height="17.598"/>
		</g>
		<g>
			<rect x="107.725" y="263.043" fill="#3D83A3" width="89.79" height="14.977"/>
			<rect x="77.796" y="278.02" fill="#3D83A3" width="29.928" height="14.979"/>
			<rect x="62.833" y="292.998" fill="#3D83A3" width="14.963" height="14.947"/>
			<rect x="47.87" y="307.946" fill="#3D83A3" width="14.965" height="89.789"/>
			<rect x="62.833" y="397.735" fill="#3D83A3" width="14.963" height="14.971"/>
			<rect x="77.796" y="412.706" fill="#3D83A3" width="29.928" height="14.966"/>
			<rect x="107.725" y="427.672" fill="#3D83A3" width="89.79" height="14.963"/>
			<rect x="242.406" y="307.946" fill="#3D83A3" width="14.964" height="89.789"/>
			<rect x="197.514" y="412.706" fill="#3D83A3" width="29.928" height="14.966"/>
			<rect x="227.443" y="397.735" fill="#3D83A3" width="14.963" height="14.971"/>
			<rect x="197.514" y="278.02" fill="#3D83A3" width="29.928" height="14.979"/>
			<rect x="227.443" y="292.998" fill="#3D83A3" width="14.963" height="14.947"/>
			<rect x="62.833" y="352.853" fill="#3D83A3" width="14.963" height="14.949"/>
			<rect x="77.796" y="367.802" fill="#3D83A3" width="29.928" height="14.978"/>
			<rect x="107.725" y="382.779" fill="#3D83A3" width="89.79" height="14.956"/>
			<rect x="197.514" y="367.802" fill="#3D83A3" width="29.928" height="14.978"/>
			<rect x="227.443" y="352.853" fill="#3D83A3" width="14.963" height="14.949"/>
		</g>
		<g>
			<rect x="137.66" y="337.875" fill="#A1CEE2" width="29.66" height="14.978"/>
			<rect x="152.625" y="337.607" fill="#4AA0C7" width="14.963" height="15.112"/>
			<rect x="167.45" y="322.79" fill="#4AA0C7" width="44.891" height="14.948"/>
		</g>
	</g>
</g>
<g id="Shamir_1_">
	<rect id="Cast_1_" x="222.002" y="88.469" fill="#3D83A3" width="67.713" height="67.718"/>
	<rect id="Band_1_" x="215.476" y="109.515" fill="#7FBCD7" width="80.102" height="22.166"/>
</g>
<g id="Shamir_Particles_1_">
	<g>
		<polygon fill="#7FBCD7" points="309.727,174.976 311.261,168.315 317.924,169.857 316.393,176.507 		"/>
		<polygon fill="#7FBCD7" points="315.782,179.182 316.412,176.499 319.094,177.113 318.465,179.794 		"/>
		<polygon fill="#7FBCD7" points="318.025,169.911 318.619,167.229 321.302,167.853 320.7,170.534 		"/>
		<polygon fill="#7FBCD7" points="308.68,167.782 309.31,165.101 311.991,165.72 311.362,168.4 		"/>
		<polygon fill="#7FBCD7" points="306.502,177.027 307.133,174.349 309.813,174.972 309.182,177.65 		"/>
	</g>
	<g>
		<polygon fill="#7FBCD7" points="191.428,166.832 194.267,156.246 204.853,159.075 202.013,169.661 		"/>
		<polygon fill="#7FBCD7" points="200.844,173.867 201.976,169.633 206.212,170.772 205.07,175 		"/>
		<polygon fill="#7FBCD7" points="204.787,159.099 205.914,154.862 210.154,155.999 209.012,160.226 		"/>
		<polygon fill="#7FBCD7" points="189.96,155.06 191.098,150.829 195.322,151.965 194.196,156.191 		"/>
		<polygon fill="#7FBCD7" points="186.002,169.915 187.145,165.684 191.371,166.823 190.247,171.052 		"/>
	</g>
	<g>
		<polygon fill="#7FBCD7" points="179.271,90.861 182.938,85.091 188.694,88.757 185.043,94.519 		"/>
		<polygon fill="#7FBCD7" points="183.618,96.832 185.088,94.503 187.412,95.985 185.935,98.308 		"/>
		<polygon fill="#7FBCD7" points="188.726,88.774 190.19,86.45 192.52,87.927 191.038,90.25 		"/>
		<polygon fill="#7FBCD7" points="180.639,83.633 182.116,81.306 184.444,82.784 182.962,85.103 		"/>
		<polygon fill="#7FBCD7" points="175.476,91.69 176.947,89.365 179.27,90.842 177.796,93.159 		"/>
	</g>
	<g>
		<polygon fill="#7FBCD7" points="260.199,65.491 261.098,62.823 263.766,63.693 262.865,66.356 		"/>
		
			<rect x="258.79" y="59.65" transform="matrix(-0.3086 0.9512 -0.9512 -0.3086 398.5536 -167.6001)" fill="#7FBCD7" width="2.801" height="2.806"/>
		<polygon fill="#7FBCD7" points="263.769,63.606 264.633,60.948 267.303,61.815 266.403,64.484 		"/>
		<polygon fill="#7FBCD7" points="256.661,67.222 257.51,64.563 260.178,65.43 259.313,68.097 		"/>
		
			<rect x="262.343" y="66.705" transform="matrix(-0.3083 0.9513 -0.9513 -0.3083 409.8375 -161.7968)" fill="#7FBCD7" width="2.8" height="2.806"/>
	</g>
	<g>
		<polygon fill="#7FBCD7" points="322.98,105.313 329.819,105.239 329.876,112.069 323.073,112.136 		"/>
		<polygon fill="#7FBCD7" points="329.876,112.076 332.647,112.043 332.67,114.798 329.897,114.821 		"/>
		<polygon fill="#7FBCD7" points="329.796,102.497 332.532,102.466 332.555,105.22 329.817,105.243 		"/>
		
			<rect x="320.272" y="102.634" transform="matrix(-1 0.0086 -0.0086 -1 644.1566 205.255)" fill="#7FBCD7" width="2.733" height="2.75"/>
		<polygon fill="#7FBCD7" points="320.374,112.179 323.107,112.148 323.13,114.898 320.397,114.933 		"/>
	</g>
</g>
</svg>
