<?xml version="1.0" encoding="utf-8"?>
<!-- Generator: Adobe Illustrator 16.0.0, SVG Export Plug-In . SVG Version: 6.00 Build 0)  -->
<!DOCTYPE svg PUBLIC "-//W3C//DTD SVG 1.1//EN" "http://www.w3.org/Graphics/SVG/1.1/DTD/svg11.dtd">
<svg version="1.1"
	 id="tnt_landmines" xmlns:cc="http://creativecommons.org/ns#" xmlns:dc="http://purl.org/dc/elements/1.1/" xmlns:inkscape="http://www.inkscape.org/namespaces/inkscape" xmlns:rdf="http://www.w3.org/1999/02/22-rdf-syntax-ns#" xmlns:sodipodi="http://sodipodi.sourceforge.net/DTD/sodipodi-0.dtd" xmlns:svg="http://www.w3.org/2000/svg"
	 xmlns="http://www.w3.org/2000/svg" xmlns:xlink="http://www.w3.org/1999/xlink" x="0px" y="0px" width="511.473px"
	 height="511.473px" viewBox="0 0 511.473 511.473" enable-background="new 0 0 511.473 511.473" xml:space="preserve">
<rect fill="#FFFFFF" width="511.473" height="511.473"/>
<polygon fill="#A1CEE2" points="0,286.911 0,440.442 0,461.494 0,511.473 49.98,511.473 86.906,511.473 413.611,511.473 
	461.493,511.473 511.471,511.473 511.471,461.494 511.471,408.08 511.471,286.911 "/>
<g id="Icon" inkscape:label="Layer 1" inkscape:groupmode="layer">
	<g id="g4174">
		<rect id="rect4147" x="186.458" y="252.104" fill="#4AA0C7" width="138.56" height="34.815"/>
		<rect id="rect4147-8" x="186.472" y="289.865" fill="#7FBCD7" width="138.56" height="73.184"/>
		<rect id="rect4147-0" x="186.461" y="365.943" fill="#7FBCD7" width="138.562" height="25.831"/>
	</g>
	<g id="g4264" transform="matrix(0.86378829,0,0,0.86378829,52.25024,63.51967)">
		<rect id="rect4181" x="188.266" y="283.136" fill="#A1CEE2" width="7.643" height="42.217"/>
		<rect id="rect4181-7" x="171.479" y="282.663" fill="#A1CEE2" width="41.108" height="7.644"/>
		<rect id="rect4181-8" x="220.303" y="282.698" fill="#A1CEE2" width="7.645" height="43.014"/>
		<rect id="rect4181-8-9" x="246.697" y="282.617" fill="#A1CEE2" width="7.644" height="43.018"/>
		<rect id="rect4181-8-4" x="220.758" y="295.997" fill="#A1CEE2" width="16.745" height="7.646"/>
		<rect id="rect4181-8-4-6" x="237.487" y="303.532" fill="#A1CEE2" width="12.628" height="7.643"/>
		<rect id="rect4181-3" x="276.998" y="282.997" fill="#A1CEE2" width="7.644" height="42.22"/>
		<rect id="rect4181-7-0" x="261.759" y="282.501" fill="#A1CEE2" width="38.018" height="7.646"/>
	</g>
</g>
<g>
	<polygon fill="#3D83A3" points="133.782,281.118 133.674,281.118 127.978,281.118 127.87,281.118 122.177,281.118 122.069,281.118 
		122.069,286.911 122.177,286.911 127.87,286.911 127.978,286.911 133.674,286.911 133.782,286.911 139.476,286.911 
		139.583,286.911 139.583,281.118 139.476,281.118 	"/>
	<polygon fill="#3D83A3" points="133.782,275.314 133.674,275.314 127.978,275.314 127.87,275.314 127.87,281.116 127.978,281.116 
		133.674,281.116 133.782,281.116 139.476,281.116 139.583,281.116 139.583,275.314 139.476,275.314 	"/>
	<polygon fill="#3D83A3" points="122.176,275.314 122.068,275.314 116.375,275.314 116.266,275.314 116.266,281.116 
		116.375,281.116 122.068,281.116 122.176,281.116 	"/>
	<polygon fill="#3D83A3" points="151.084,269.513 145.386,269.513 145.383,269.513 145.278,269.513 145.276,269.513 
		139.583,269.513 139.476,269.513 139.476,275.309 139.583,275.309 145.276,275.309 145.278,275.309 145.383,275.309 
		145.386,275.309 151.084,275.309 151.192,275.309 151.192,269.513 	"/>
	<polygon fill="#3D83A3" points="116.37,275.309 116.375,275.309 122.068,275.309 122.176,275.309 122.176,269.513 122.068,269.513 
		116.375,269.513 116.37,269.513 116.266,269.513 116.262,269.513 110.569,269.513 110.462,269.513 110.462,275.309 
		110.569,275.309 116.262,275.309 116.266,275.309 	"/>
	<polygon fill="#3D83A3" points="127.978,257.908 127.87,257.908 127.87,263.712 127.87,269.513 127.87,275.309 127.978,275.309 
		133.674,275.309 133.782,275.309 133.782,269.513 133.782,263.712 133.782,257.908 133.674,257.908 	"/>
	<polygon fill="#3D83A3" points="133.782,252.106 133.674,252.106 127.978,252.106 127.87,252.106 127.87,257.899 127.978,257.899 
		133.674,257.899 133.782,257.899 	"/>
	<polygon fill="#3D83A3" points="133.782,246.303 133.674,246.303 127.978,246.303 127.87,246.303 122.177,246.303 122.176,246.303 
		122.069,246.303 122.068,246.303 116.375,246.303 116.266,246.303 116.266,252.104 116.375,252.104 122.068,252.104 
		122.069,252.104 122.176,252.104 122.177,252.104 127.87,252.104 127.978,252.104 133.674,252.104 133.782,252.104 	"/>
	<polygon fill="#3D83A3" points="116.262,246.295 116.266,246.295 116.37,246.295 116.375,246.295 122.068,246.295 122.069,246.295 
		122.176,246.295 122.177,246.295 127.87,246.295 127.978,246.295 133.674,246.295 133.782,246.295 139.476,246.295 
		139.583,246.295 139.583,240.499 145.276,240.499 145.383,240.499 145.383,234.695 145.276,234.695 139.583,234.695 
		139.476,234.695 133.782,234.695 133.674,234.695 127.978,234.695 127.87,234.695 122.177,234.695 122.176,234.695 
		122.069,234.695 122.068,234.695 116.375,234.695 116.37,234.695 116.266,234.695 116.262,234.695 110.569,234.695 
		110.462,234.695 110.462,240.499 110.462,246.295 110.569,246.295 	"/>
	<polygon fill="#3D83A3" points="122.068,234.688 122.069,234.688 122.176,234.688 122.177,234.688 127.87,234.688 127.978,234.688 
		133.674,234.688 133.782,234.688 139.476,234.688 139.583,234.688 145.276,234.688 145.383,234.688 145.383,228.893 
		145.276,228.893 139.583,228.893 139.476,228.893 133.782,228.893 133.674,228.893 127.978,228.893 127.87,228.893 
		122.177,228.893 122.176,228.893 122.069,228.893 122.068,228.893 116.375,228.893 116.266,228.893 116.266,234.688 
		116.375,234.688 	"/>
	<polygon fill="#3D83A3" points="133.674,228.883 133.782,228.883 139.476,228.883 139.583,228.883 139.583,223.088 
		139.476,223.088 133.782,223.088 133.674,223.088 127.978,223.088 127.87,223.088 127.87,228.883 127.978,228.883 	"/>
</g>
<g>
	<polygon fill="#3D83A3" points="462.777,281.118 462.67,281.118 456.974,281.118 456.866,281.118 451.173,281.118 451.065,281.118 
		451.065,286.911 451.173,286.911 456.866,286.911 456.974,286.911 462.67,286.911 462.777,286.911 468.472,286.911 
		468.581,286.911 468.581,281.118 468.472,281.118 	"/>
	<polygon fill="#3D83A3" points="462.777,275.314 462.67,275.314 456.974,275.314 456.866,275.314 456.866,281.116 456.974,281.116 
		462.67,281.116 462.777,281.116 468.472,281.116 468.581,281.116 468.581,275.314 468.472,275.314 	"/>
	<polygon fill="#3D83A3" points="451.173,275.314 451.063,275.314 445.368,275.314 445.261,275.314 445.261,281.116 
		445.368,281.116 451.063,281.116 451.173,281.116 	"/>
	<polygon fill="#3D83A3" points="480.079,269.513 474.383,269.513 474.381,269.513 474.273,269.513 474.271,269.513 
		468.581,269.513 468.472,269.513 468.472,275.309 468.581,275.309 474.271,275.309 474.273,275.309 474.381,275.309 
		474.383,275.309 480.079,275.309 480.19,275.309 480.19,269.513 	"/>
	<polygon fill="#3D83A3" points="445.366,275.309 445.368,275.309 451.063,275.309 451.173,275.309 451.173,269.513 
		451.063,269.513 445.368,269.513 445.366,269.513 445.261,269.513 445.256,269.513 439.568,269.513 439.458,269.513 
		439.458,275.309 439.568,275.309 445.256,275.309 445.261,275.309 	"/>
	<polygon fill="#3D83A3" points="456.974,257.908 456.866,257.908 456.866,263.712 456.866,269.513 456.866,275.309 
		456.974,275.309 462.67,275.309 462.777,275.309 462.777,269.513 462.777,263.712 462.777,257.908 462.67,257.908 	"/>
	<polygon fill="#3D83A3" points="462.777,252.106 462.67,252.106 456.974,252.106 456.866,252.106 456.866,257.899 456.974,257.899 
		462.67,257.899 462.777,257.899 	"/>
	<polygon fill="#3D83A3" points="462.777,246.303 462.67,246.303 456.974,246.303 456.866,246.303 451.173,246.303 451.173,246.303 
		451.065,246.303 451.063,246.303 445.368,246.303 445.261,246.303 445.261,252.104 445.368,252.104 451.063,252.104 
		451.065,252.104 451.173,252.104 451.173,252.104 456.866,252.104 456.974,252.104 462.67,252.104 462.777,252.104 	"/>
	<polygon fill="#3D83A3" points="445.256,246.295 445.261,246.295 445.366,246.295 445.368,246.295 451.063,246.295 
		451.065,246.295 451.173,246.295 451.173,246.295 456.866,246.295 456.974,246.295 462.67,246.295 462.777,246.295 
		468.472,246.295 468.581,246.295 468.581,240.499 474.271,240.499 474.381,240.499 474.381,234.695 474.271,234.695 
		468.581,234.695 468.472,234.695 462.777,234.695 462.67,234.695 456.974,234.695 456.866,234.695 451.173,234.695 
		451.173,234.695 451.065,234.695 451.063,234.695 445.368,234.695 445.366,234.695 445.261,234.695 445.256,234.695 
		439.568,234.695 439.458,234.695 439.458,240.499 439.458,246.295 439.568,246.295 	"/>
	<polygon fill="#3D83A3" points="451.063,234.688 451.065,234.688 451.173,234.688 451.173,234.688 456.866,234.688 
		456.974,234.688 462.67,234.688 462.777,234.688 468.472,234.688 468.581,234.688 474.271,234.688 474.381,234.688 
		474.381,228.893 474.271,228.893 468.581,228.893 468.472,228.893 462.777,228.893 462.67,228.893 456.974,228.893 
		456.866,228.893 451.173,228.893 451.173,228.893 451.065,228.893 451.063,228.893 445.368,228.893 445.261,228.893 
		445.261,234.688 445.368,234.688 	"/>
	<polygon fill="#3D83A3" points="462.67,228.883 462.777,228.883 468.472,228.883 468.581,228.883 468.581,223.088 468.472,223.088 
		462.777,223.088 462.67,223.088 456.974,223.088 456.866,223.088 456.866,228.883 456.974,228.883 	"/>
</g>
<g>
	<polygon fill="#3D83A3" points="57.729,275.344 51.962,275.344 51.962,281.112 51.962,286.879 57.729,286.879 57.733,286.879 
		63.501,286.879 63.501,281.112 63.501,275.344 57.733,275.344 	"/>
	<polygon fill="#3D83A3" points="75.031,252.277 75.031,246.509 69.266,246.509 69.263,246.509 63.501,246.509 63.497,246.509 
		57.733,246.509 57.729,246.509 51.965,246.509 51.962,246.509 46.197,246.509 46.197,252.277 46.197,258.046 46.197,263.811 
		51.962,263.811 51.962,269.578 51.962,275.342 57.729,275.342 57.733,275.342 63.501,275.342 63.501,269.578 63.501,263.811 
		69.263,263.811 69.266,263.811 75.031,263.811 80.795,263.811 80.795,258.046 80.795,252.277 	"/>
	<polygon fill="#3D83A3" points="40.424,252.277 34.663,252.277 34.663,258.046 34.663,263.811 40.424,263.811 40.431,263.811 
		46.195,263.811 46.195,258.046 46.195,252.277 46.195,246.509 40.424,246.509 	"/>
	<polygon fill="#3D83A3" points="51.965,246.507 57.729,246.507 57.733,246.507 63.497,246.507 63.501,246.507 69.266,246.507 
		69.266,240.74 63.501,240.74 63.497,240.74 57.733,240.74 57.729,240.74 51.965,240.74 51.962,240.74 46.197,240.74 
		46.197,246.507 51.962,246.507 	"/>
</g>
<g>
	<polygon fill="#3D83A3" points="378.885,275.346 373.118,275.346 373.118,281.115 373.118,286.881 378.885,286.881 
		378.887,286.881 384.656,286.881 384.656,281.115 384.656,275.346 378.887,275.346 	"/>
	<polygon fill="#3D83A3" points="396.186,252.279 396.186,246.513 390.422,246.513 390.42,246.513 384.656,246.513 384.653,246.513 
		378.887,246.513 378.885,246.513 373.121,246.513 373.118,246.513 367.352,246.513 367.352,252.279 367.352,258.048 
		367.352,263.814 373.118,263.814 373.118,269.579 373.118,275.344 378.885,275.344 378.887,275.344 384.656,275.344 
		384.656,269.579 384.656,263.814 390.42,263.814 390.422,263.814 396.186,263.814 401.95,263.814 401.95,258.048 401.95,252.279 	
		"/>
	<polygon fill="#3D83A3" points="361.578,252.279 355.816,252.279 355.816,258.048 355.816,263.814 361.578,263.814 
		361.586,263.814 367.35,263.814 367.35,258.048 367.35,252.279 367.35,246.513 361.578,246.513 	"/>
	<polygon fill="#3D83A3" points="373.121,246.508 378.885,246.508 378.887,246.508 384.653,246.508 384.656,246.508 
		390.422,246.508 390.422,240.741 384.656,240.741 384.653,240.741 378.887,240.741 378.885,240.741 373.121,240.741 
		373.118,240.741 367.352,240.741 367.352,246.508 373.118,246.508 	"/>
</g>
<polyline fill="none" points="0,151.463 19.196,139.34 19.421,54.157 0,70.169 "/>
<g>
	<polygon fill="#3D83A3" points="301.674,281.125 301.566,281.125 295.871,281.125 295.764,281.125 290.07,281.125 289.963,281.125 
		289.963,286.919 290.07,286.919 295.764,286.919 295.871,286.919 301.566,286.919 301.674,286.919 307.368,286.919 
		307.479,286.919 307.479,281.125 307.368,281.125 	"/>
	<polygon fill="#3D83A3" points="301.674,275.322 301.566,275.322 295.871,275.322 295.764,275.322 295.764,281.122 
		295.871,281.122 301.566,281.122 301.674,281.122 307.368,281.122 307.479,281.122 307.479,275.322 307.368,275.322 	"/>
	<polygon fill="#3D83A3" points="290.07,275.322 289.961,275.322 284.269,275.322 284.158,275.322 284.158,281.122 284.269,281.122 
		289.961,281.122 290.07,281.122 	"/>
	<polygon fill="#3D83A3" points="318.978,269.52 313.279,269.52 313.277,269.52 313.171,269.52 313.168,269.52 307.479,269.52 
		307.368,269.52 307.368,275.316 307.479,275.316 313.168,275.316 313.171,275.316 313.277,275.316 313.279,275.316 
		318.978,275.316 319.086,275.316 319.086,269.52 	"/>
	<polygon fill="#3D83A3" points="284.264,275.316 284.269,275.316 289.961,275.316 290.07,275.316 290.07,269.52 289.961,269.52 
		284.269,269.52 284.264,269.52 284.158,269.52 284.155,269.52 278.465,269.52 278.355,269.52 278.355,275.316 278.465,275.316 
		284.155,275.316 284.158,275.316 	"/>
	<polygon fill="#3D83A3" points="295.871,257.915 295.764,257.915 295.764,263.72 295.764,269.52 295.764,275.316 295.871,275.316 
		301.566,275.316 301.674,275.316 301.674,269.52 301.674,263.72 301.674,257.915 301.566,257.915 	"/>
	<polygon fill="#3D83A3" points="301.674,252.114 301.566,252.114 295.871,252.114 295.764,252.114 295.764,257.905 
		295.871,257.905 301.566,257.905 301.674,257.905 	"/>
	<polygon fill="#3D83A3" points="301.674,246.31 301.566,246.31 295.871,246.31 295.764,246.31 290.07,246.31 290.07,246.31 
		289.963,246.31 289.961,246.31 284.269,246.31 284.158,246.31 284.158,252.11 284.269,252.11 289.961,252.11 289.963,252.11 
		290.07,252.11 290.07,252.11 295.764,252.11 295.871,252.11 301.566,252.11 301.674,252.11 	"/>
	<polygon fill="#3D83A3" points="284.155,246.303 284.158,246.303 284.264,246.303 284.269,246.303 289.961,246.303 
		289.963,246.303 290.07,246.303 290.07,246.303 295.764,246.303 295.871,246.303 301.566,246.303 301.674,246.303 307.368,246.303 
		307.479,246.303 307.479,240.506 313.168,240.506 313.277,240.506 313.277,234.703 313.168,234.703 307.479,234.703 
		307.368,234.703 301.674,234.703 301.566,234.703 295.871,234.703 295.764,234.703 290.07,234.703 290.07,234.703 289.963,234.703 
		289.961,234.703 284.269,234.703 284.264,234.703 284.158,234.703 284.155,234.703 278.465,234.703 278.355,234.703 
		278.355,240.506 278.355,246.303 278.465,246.303 	"/>
	<polygon fill="#3D83A3" points="289.961,234.695 289.963,234.695 290.07,234.695 290.07,234.695 295.764,234.695 295.871,234.695 
		301.566,234.695 301.674,234.695 307.368,234.695 307.479,234.695 313.168,234.695 313.277,234.695 313.277,228.899 
		313.168,228.899 307.479,228.899 307.368,228.899 301.674,228.899 301.566,228.899 295.871,228.899 295.764,228.899 
		290.07,228.899 290.07,228.899 289.963,228.899 289.961,228.899 284.269,228.899 284.158,228.899 284.158,234.695 284.269,234.695 
			"/>
	<polygon fill="#3D83A3" points="301.566,228.889 301.674,228.889 307.368,228.889 307.479,228.889 307.479,223.095 
		307.368,223.095 301.674,223.095 301.566,223.095 295.871,223.095 295.764,223.095 295.764,228.889 295.871,228.889 	"/>
</g>
<polygon fill="#3D83A3" points="151.548,72.854 177.736,74.112 249.746,60.138 255.093,55.48 243.954,8.143 239.171,8.143 
	180.254,21.741 168.415,19.222 136.432,0.011 55.326,0.011 49.981,0.011 0,0.011 0,49.992 0,54.157 0,70.169 19.421,54.157 
	19.196,139.34 0,151.463 0,212.303 57.804,177.277 77.948,165.19 183.03,233.342 200.822,215.884 221.301,176.605 108.832,104.089 
	107.886,48.516 107.88,39.05 128.382,59.257 "/>
</svg>
