<?xml version="1.0" encoding="utf-8"?>
<!-- Generator: Adobe Illustrator 16.0.0, SVG Export Plug-In . SVG Version: 6.00 Build 0)  -->
<!DOCTYPE svg PUBLIC "-//W3C//DTD SVG 1.1//EN" "http://www.w3.org/Graphics/SVG/1.1/DTD/svg11.dtd">
<svg version="1.1"
	 id="svg8" xmlns:cc="http://creativecommons.org/ns#" xmlns:dc="http://purl.org/dc/elements/1.1/" xmlns:inkscape="http://www.inkscape.org/namespaces/inkscape" xmlns:rdf="http://www.w3.org/1999/02/22-rdf-syntax-ns#" xmlns:sodipodi="http://sodipodi.sourceforge.net/DTD/sodipodi-0.dtd" xmlns:svg="http://www.w3.org/2000/svg"
	 xmlns="http://www.w3.org/2000/svg" xmlns:xlink="http://www.w3.org/1999/xlink" x="0px" y="0px" width="511.473px"
	 height="511.473px" viewBox="0 0 511.473 511.473" enable-background="new 0 0 511.473 511.473" xml:space="preserve">
<rect fill="#FFFFFF" width="511.473" height="511.473"/>
<g id="Icon_1_">
	<g id="Tree_1_">
		<rect x="217.284" y="126.854" fill="#4AA0C7" width="77.922" height="185.178"/>
		<rect x="195.171" y="126.854" fill="#4AA0C7" width="122.128" height="46.455"/>
		<rect x="205.297" y="129.852" fill="#4AA0C7" width="100.899" height="54.446"/>
		<rect x="195.146" y="106.635" fill="#4AA0C7" width="20.494" height="46.454"/>
		<rect x="296.799" y="105.771" fill="#4AA0C7" width="20.497" height="46.455"/>
		<rect x="235.252" y="105.771" fill="#4AA0C7" width="39.271" height="46.455"/>
	</g>
	<g id="Hill_Back_1_">
		<rect y="126.975" fill="#A1CEE2" width="87.543" height="213.008"/>
		<rect x="63.645" y="163.968" fill="#A1CEE2" width="52.618" height="129.841"/>
		<rect x="99.238" y="203.355" fill="#A1CEE2" width="95.101" height="117.113"/>
	</g>
	<g id="Hill_Middle">
		<rect y="318.089" fill="#7FBCD7" width="511.492" height="193.378"/>
		<rect x="78.85" y="282.146" fill="#7FBCD7" width="432.645" height="64.895"/>
		<rect x="397.641" y="242.296" fill="#7FBCD7" width="113.852" height="94.494"/>
	</g>
	<g id="Hill_Front_1_">
		<rect y="359.225" fill="#3D83A3" width="116.761" height="152.248"/>
		<rect x="108.528" y="395.968" fill="#3D83A3" width="87.741" height="115.505"/>
		<rect x="176.235" y="436.691" fill="#3D83A3" width="58.726" height="74.781"/>
	</g>
</g>
</svg>
