<?xml version="1.0" encoding="utf-8"?>
<!-- Generator: Adobe Illustrator 16.0.0, SVG Export Plug-In . SVG Version: 6.00 Build 0)  -->
<!DOCTYPE svg PUBLIC "-//W3C//DTD SVG 1.1//EN" "http://www.w3.org/Graphics/SVG/1.1/DTD/svg11.dtd">
<svg version="1.1" id="fulcio_shamir" xmlns="http://www.w3.org/2000/svg" xmlns:xlink="http://www.w3.org/1999/xlink" x="0px"
	 y="0px" width="511.473px" height="511.473px" viewBox="0 0 511.473 511.473" enable-background="new 0 0 511.473 511.473"
	 xml:space="preserve">
<rect fill="#FFFFFF" width="511.473" height="511.473"/>
<g>
	<g id="Shovel">
		<g>
			<polygon fill="#4AA0C7" points="221.839,215.565 240.614,210.532 270.786,323.17 252.011,328.208 			"/>
			<polygon fill="#4AA0C7" points="208.123,239.38 264.402,224.291 289.549,318.112 233.256,333.203 			"/>
			<polygon fill="#4AA0C7" points="199.428,281.921 330.792,246.728 335.805,265.496 204.454,300.695 			"/>
			<polygon fill="#4AA0C7" points="283.197,219.263 320.729,209.209 335.807,265.506 298.269,275.56 			"/>
			<polygon fill="#4AA0C7" points="213.154,258.144 306.989,232.997 322.057,289.29 228.233,314.427 			"/>
			<polygon fill="#4AA0C7" points="213.158,258.147 288.213,238.026 308.342,313.091 233.274,333.199 			"/>
			<polygon fill="#4AA0C7" points="245.656,229.329 264.412,224.293 294.598,336.894 275.816,341.908 			"/>
			
				<rect x="213.811" y="313.797" transform="matrix(-0.9659 0.2588 -0.2588 -0.9659 544.7646 594.7557)" fill="#4AA0C7" width="38.861" height="38.864"/>
			<polygon fill="#4AA0C7" points="195.756,343.237 233.291,333.184 243.345,370.709 205.818,380.77 			"/>
			<polygon fill="#4AA0C7" points="181.99,367.062 219.525,357.009 229.579,394.538 192.052,404.592 			"/>
			<polygon fill="#4AA0C7" points="168.23,390.877 205.763,380.824 215.817,418.357 178.292,428.414 			"/>
			<polygon fill="#4AA0C7" points="154.503,414.667 192.034,404.613 202.096,442.137 164.561,452.196 			"/>
			<polygon fill="#4AA0C7" points="159.548,433.418 197.082,423.364 207.136,460.897 169.61,470.952 			"/>
			<polygon fill="#A1CEE2" points="140.763,438.463 197.057,423.374 202.092,442.146 145.797,457.224 			"/>
		</g>
		<polygon fill="#3D83A3" points="208.127,239.348 226.895,234.321 236.949,271.851 218.181,276.891 		"/>
		
			<rect x="224.029" y="212.743" transform="matrix(-0.966 0.2587 -0.2587 -0.966 517.0782 376.867)" fill="#3D83A3" width="19.427" height="19.426"/>
		<polygon fill="#3D83A3" points="245.665,229.293 264.438,224.268 269.456,243.036 250.703,248.062 		"/>
		<polygon fill="#3D83A3" points="269.456,243.057 288.211,238.029 293.252,256.8 274.498,261.814 		"/>
		<polygon fill="#3D83A3" points="283.197,219.248 320.729,209.194 325.754,227.952 288.212,238.015 		"/>
		<polygon fill="#3D83A3" points="301.937,214.263 320.694,209.232 335.784,265.526 317.023,270.563 		"/>
		<polygon fill="#3D83A3" points="298.303,275.536 317.06,270.496 322.076,289.278 303.316,294.291 		"/>
		<polygon fill="#3D83A3" points="284.545,299.358 303.305,294.323 308.342,313.1 289.563,318.116 		"/>
		<polygon fill="#3D83A3" points="270.814,323.145 289.573,318.106 294.61,336.878 275.854,341.9 		"/>
		<polygon fill="#3D83A3" points="247.044,309.416 265.818,304.402 270.831,323.163 252.07,328.192 		"/>
		<polygon fill="#3D83A3" points="199.416,281.906 218.18,276.893 223.208,295.647 204.452,300.689 		"/>
		<polygon fill="#3D83A3" points="233.118,332.734 251.891,327.721 256.916,346.478 238.143,351.507 		"/>
		<polygon fill="#3D83A3" points="219.419,356.513 238.188,351.474 243.214,370.257 224.446,375.271 		"/>
		<polygon fill="#3D83A3" points="205.655,380.339 224.423,375.314 229.449,394.08 210.681,399.094 		"/>
		<polygon fill="#3D83A3" points="191.938,404.16 210.707,399.142 215.736,417.908 196.964,422.937 		"/>
		<polygon fill="#3D83A3" points="178.252,428.444 197.02,423.417 207.077,460.947 188.314,465.978 		"/>
		
			<rect x="166.418" y="446.836" transform="matrix(-0.9659 0.2589 -0.2589 -0.9659 483.5569 849.4176)" fill="#3D83A3" width="38.86" height="19.425"/>
		<polygon fill="#3D83A3" points="140.773,438.45 159.534,433.422 164.562,452.194 145.803,457.217 		"/>
		<polygon fill="#3D83A3" points="154.484,414.666 173.246,409.627 178.271,428.396 159.511,433.421 		"/>
		<polygon fill="#3D83A3" points="168.146,390.385 186.914,385.359 191.942,404.126 173.178,409.152 		"/>
		<polygon fill="#3D83A3" points="181.963,367.077 200.732,362.054 205.759,380.82 186.99,385.851 		"/>
		<polygon fill="#3D83A3" points="195.719,343.271 214.479,338.257 219.506,357.014 200.746,362.041 		"/>
		<polygon fill="#3D83A3" points="209.425,319.531 228.194,314.491 233.221,333.247 214.451,338.286 		"/>
		<polygon fill="#3D83A3" points="223.221,295.636 241.99,290.596 247.019,309.38 228.259,314.396 		"/>
	</g>
	<g id="Sound_Wave">
		<polygon fill="#4AA0C7" points="138.036,263.022 143.173,234.939 152.532,236.656 147.395,264.738 		"/>
		<polygon fill="#4AA0C7" points="145.662,274.047 147.375,264.671 156.732,266.389 155.021,275.764 		"/>
		<polygon fill="#4AA0C7" points="152.526,236.647 154.239,227.289 163.599,228.993 161.882,238.352 		"/>
		<polygon fill="#4AA0C7" points="108.238,267.229 116.797,220.42 126.158,222.137 117.599,268.945 		"/>
		<polygon fill="#4AA0C7" points="115.881,278.27 117.593,268.896 126.951,270.61 125.237,279.986 		"/>
		<polygon fill="#4AA0C7" points="123.529,289.395 125.243,280.022 134.602,281.739 132.888,291.086 		"/>
		<polygon fill="#4AA0C7" points="126.144,222.114 127.854,212.756 137.215,214.47 135.504,223.831 		"/>
		
			<rect x="138" y="205.907" transform="matrix(-0.1799 0.9837 -0.9837 -0.1799 375.6603 108.1269)" fill="#4AA0C7" width="9.51" height="9.515"/>
		<polygon fill="#4AA0C7" points="80.167,262.119 88.726,215.301 98.084,217.015 89.525,263.811 		"/>
		<polygon fill="#4AA0C7" points="86.101,282.525 89.526,263.805 98.884,265.521 95.46,284.241 		"/>
		<polygon fill="#4AA0C7" points="98.079,217.001 101.501,198.28 110.861,199.989 107.437,218.705 		"/>
		<polygon fill="#4AA0C7" points="110.858,200.006 112.568,190.646 121.926,192.349 120.215,201.709 		"/>
		<polygon fill="#4AA0C7" points="93.748,293.641 95.46,284.263 104.82,285.979 103.109,295.355 		"/>
	</g>
	<g id="Sound_Wave_1_">
		<polygon fill="#4AA0C7" points="382.567,276.545 374.914,304.048 365.749,301.482 373.401,274.007 		"/>
		<polygon fill="#4AA0C7" points="375.974,264.837 373.418,273.974 364.264,271.436 366.811,262.275 		"/>
		<polygon fill="#4AA0C7" points="365.739,301.504 363.188,310.666 354.024,308.13 356.578,298.966 		"/>
		<polygon fill="#4AA0C7" points="412.66,275.084 399.892,320.919 390.729,318.355 403.496,272.545 		"/>
		<polygon fill="#4AA0C7" points="406.018,263.359 403.481,272.522 394.315,269.961 396.868,260.796 		"/>
		<polygon fill="#4AA0C7" points="399.441,251.649 396.903,260.801 387.739,258.266 390.287,249.087 		"/>
		<polygon fill="#4AA0C7" points="390.724,318.391 388.159,327.542 379.001,325.002 381.557,315.838 		"/>
		<polygon fill="#4AA0C7" points="378.947,324.938 376.381,334.104 367.232,331.563 369.78,322.397 		"/>
		<polygon fill="#4AA0C7" points="440.133,282.731 427.371,328.557 418.207,326.005 430.976,280.169 		"/>
		<polygon fill="#4AA0C7" points="435.931,261.896 430.81,280.233 421.646,277.668 426.765,259.333 		"/>
		<polygon fill="#4AA0C7" points="418.205,326.011 413.088,344.347 403.938,341.782 409.041,323.447 		"/>
		<polygon fill="#4AA0C7" points="403.969,341.831 401.404,350.983 392.237,348.442 394.803,339.276 		"/>
		<polygon fill="#4AA0C7" points="429.529,250.187 426.965,259.341 417.805,256.802 420.364,247.636 		"/>
	</g>
</g>
<g id="Shamir">
	<rect id="Cast" x="223.912" y="53.095" fill="#3D83A3" width="67.713" height="67.718"/>
	<rect id="Band" x="217.386" y="74.141" fill="#7FBCD7" width="80.102" height="22.166"/>
</g>
<g id="Shamir_Particles">
	<g>
		<polygon fill="#7FBCD7" points="311.637,139.602 313.171,132.941 319.834,134.483 318.303,141.133 		"/>
		<polygon fill="#7FBCD7" points="317.692,143.808 318.322,141.125 321.004,141.739 320.375,144.419 		"/>
		<polygon fill="#7FBCD7" points="319.936,134.537 320.529,131.855 323.212,132.479 322.61,135.161 		"/>
		<polygon fill="#7FBCD7" points="310.59,132.408 311.22,129.727 313.901,130.345 313.272,133.026 		"/>
		<polygon fill="#7FBCD7" points="308.412,141.653 309.043,138.974 311.724,139.598 311.092,142.276 		"/>
	</g>
	<g>
		<polygon fill="#7FBCD7" points="193.338,131.458 196.177,120.872 206.763,123.701 203.923,134.287 		"/>
		<polygon fill="#7FBCD7" points="202.754,138.493 203.886,134.259 208.123,135.398 206.98,139.626 		"/>
		<polygon fill="#7FBCD7" points="206.697,123.725 207.824,119.489 212.064,120.625 210.922,124.852 		"/>
		<polygon fill="#7FBCD7" points="191.87,119.686 193.008,115.455 197.232,116.591 196.106,120.817 		"/>
		<polygon fill="#7FBCD7" points="187.913,134.542 189.055,130.31 193.281,131.449 192.157,135.678 		"/>
	</g>
	<g>
		<polygon fill="#7FBCD7" points="181.182,55.487 184.848,49.717 190.604,53.383 186.954,59.145 		"/>
		<polygon fill="#7FBCD7" points="185.528,61.458 186.998,59.129 189.322,60.611 187.845,62.934 		"/>
		<polygon fill="#7FBCD7" points="190.636,53.4 192.101,51.076 194.43,52.553 192.948,54.876 		"/>
		<polygon fill="#7FBCD7" points="182.549,48.259 184.026,45.932 186.354,47.41 184.872,49.728 		"/>
		<polygon fill="#7FBCD7" points="177.386,56.317 178.857,53.991 181.18,55.468 179.706,57.786 		"/>
	</g>
	<g>
		<polygon fill="#7FBCD7" points="262.109,30.117 263.008,27.45 265.676,28.319 264.775,30.983 		"/>
		
			<rect x="260.7" y="24.276" transform="matrix(-0.3086 0.9512 -0.9512 -0.3086 367.4182 -215.7015)" fill="#7FBCD7" width="2.8" height="2.806"/>
		<polygon fill="#7FBCD7" points="265.679,28.232 266.543,25.574 269.213,26.442 268.313,29.11 		"/>
		<polygon fill="#7FBCD7" points="258.571,31.848 259.42,29.188 262.088,30.056 261.224,32.723 		"/>
		
			<rect x="264.254" y="31.331" transform="matrix(-0.3083 0.9513 -0.9513 -0.3083 378.6982 -209.8865)" fill="#7FBCD7" width="2.8" height="2.806"/>
	</g>
	<g>
		<polygon fill="#7FBCD7" points="324.891,69.94 331.729,69.866 331.786,76.695 324.983,76.762 		"/>
		<polygon fill="#7FBCD7" points="331.786,76.702 334.558,76.669 334.58,79.424 331.808,79.447 		"/>
		<polygon fill="#7FBCD7" points="331.706,67.123 334.442,67.092 334.465,69.846 331.728,69.87 		"/>
		<polygon fill="#7FBCD7" points="322.17,67.271 324.902,67.248 324.927,69.998 322.191,70.026 		"/>
		<polygon fill="#7FBCD7" points="322.284,76.804 325.018,76.774 325.04,79.524 322.308,79.558 		"/>
	</g>
</g>
</svg>
