<?xml version="1.0" encoding="utf-8"?>
<!-- Generator: Adobe Illustrator 16.0.0, SVG Export Plug-In . SVG Version: 6.00 Build 0)  -->
<!DOCTYPE svg PUBLIC "-//W3C//DTD SVG 1.1//EN" "http://www.w3.org/Graphics/SVG/1.1/DTD/svg11.dtd">
<svg version="1.1" id="desire_lines" xmlns="http://www.w3.org/2000/svg" xmlns:xlink="http://www.w3.org/1999/xlink" x="0px"
	 y="0px" width="511.475px" height="511.475px" viewBox="0 0 511.475 511.475" enable-background="new 0 0 511.475 511.475"
	 xml:space="preserve">
<g id="grid" transform="matrix(1.1876553,0,0,1.1876553,579.25835,-183.2473)">
	<g id="g4206" transform="translate(-547.85714,2.6913062e-7)">
		<g id="rect4204">
			<rect x="60.124" y="154.293" fill="#BEE9FD" width="430.659" height="430.659"/>
		</g>
		<g id="g4197">
			<g id="rect4150">
				<rect x="202.03" y="154.293" fill="#4AA0C7" width="5.045" height="430.659"/>
			</g>
			<g id="rect4150-5">
				<rect x="343.935" y="154.293" fill="#4AA0C7" width="5.045" height="430.659"/>
			</g>
			<g id="rect4150-5-7">
				<rect x="60.124" y="439.253" fill="#4AA0C7" width="430.659" height="5.045"/>
			</g>
			<g id="rect4150-5-7-7">
				<rect x="60.124" y="295.749" fill="#4AA0C7" width="430.659" height="5.046"/>
			</g>
		</g>
	</g>
</g>
<g>
	<g>
		<path fill="none" d="M51.642,511.476h410.731c27.554,0,49.887-22.335,49.887-49.882V50.862c0-27.552-22.337-49.887-49.887-49.887
			H51.642c-27.553,0-49.887,22.336-49.887,49.887v410.727C1.755,489.141,24.092,511.476,51.642,511.476z"/>
	</g>
</g>
<g id="cross" transform="translate(0,-1.6839903)">
	<rect id="rect4332" x="248.932" y="206.796" fill="#4AA0C7" width="14.443" height="102.229"/>
	<rect id="rect4332-5" x="204.346" y="250.39" fill="#4AA0C7" width="102.229" height="14.444"/>
</g>
</svg>
