<?xml version="1.0" encoding="utf-8"?>
<!-- Generator: Adobe Illustrator 16.0.0, SVG Export Plug-In . SVG Version: 6.00 Build 0)  -->
<!DOCTYPE svg PUBLIC "-//W3C//DTD SVG 1.1//EN" "http://www.w3.org/Graphics/SVG/1.1/DTD/svg11.dtd">
<svg version="1.1" id="desire_lines" xmlns="http://www.w3.org/2000/svg" xmlns:xlink="http://www.w3.org/1999/xlink" x="0px"
	 y="0px" width="511.475px" height="511.475px" viewBox="0 0 511.475 511.475" enable-background="new 0 0 511.475 511.475"
	 xml:space="preserve">
<rect fill="#FFFFFF" width="511.473" height="511.474"/>
<g id="Icon">
	<g id="Book">
		<g id="Cover_1_">
			<g>
				<rect x="205.92" y="353.075" fill="#4AA0C7" width="123.566" height="82.36"/>
				<rect x="260.842" y="339.341" fill="#4AA0C7" width="54.908" height="96.125"/>
				<rect x="164.729" y="380.509" fill="#4AA0C7" width="192.231" height="41.215"/>
				<rect x="205.92" y="421.724" fill="#4AA0C7" width="68.663" height="41.171"/>
				<rect x="192.195" y="421.724" fill="#4AA0C7" width="13.725" height="27.458"/>
				<rect x="178.461" y="407.984" fill="#4AA0C7" width="27.46" height="27.45"/>
			</g>
			<g>
				<rect x="219.649" y="462.895" fill="#3D83A3" width="27.453" height="13.738"/>
				<rect x="247.103" y="449.182" fill="#3D83A3" width="27.476" height="13.713"/>
				<rect x="274.583" y="435.441" fill="#3D83A3" width="27.471" height="13.74"/>
				<rect x="302.054" y="421.724" fill="#3D83A3" width="27.436" height="13.726"/>
				<rect x="329.486" y="407.984" fill="#3D83A3" width="27.476" height="13.738"/>
				<rect x="356.961" y="394.249" fill="#3D83A3" width="13.741" height="13.74"/>
				<rect x="343.225" y="380.509" fill="#3D83A3" width="13.738" height="13.739"/>
				<rect x="329.486" y="366.8" fill="#3D83A3" width="13.74" height="13.713"/>
				<rect x="205.92" y="449.182" fill="#3D83A3" width="13.734" height="13.713"/>
				<rect x="192.195" y="435.441" fill="#3D83A3" width="13.725" height="13.74"/>
				<rect x="178.461" y="421.724" fill="#3D83A3" width="13.739" height="13.726"/>
				<rect x="164.729" y="407.984" fill="#3D83A3" width="13.732" height="13.738"/>
				<rect x="151.006" y="380.509" fill="#3D83A3" width="13.726" height="27.476"/>
				<rect x="151.006" y="380.509" fill="#3D83A3" width="27.455" height="13.739"/>
				<rect x="178.461" y="366.8" fill="#3D83A3" width="27.46" height="13.713"/>
				<rect x="205.92" y="353.075" fill="#3D83A3" width="27.467" height="13.725"/>
				<rect x="233.388" y="339.341" fill="#3D83A3" width="27.454" height="13.741"/>
				<rect x="260.842" y="325.603" fill="#3D83A3" width="41.212" height="13.736"/>
				<rect x="315.75" y="353.075" fill="#3D83A3" width="13.736" height="13.725"/>
				<rect x="302.054" y="339.341" fill="#3D83A3" width="13.7" height="13.741"/>
			</g>
		</g>
		<g id="Page_2_">
			<g>
				<rect x="205.92" y="298.128" fill="#FFFFFF" width="123.566" height="82.382"/>
				<rect x="260.842" y="284.39" fill="#FFFFFF" width="54.908" height="96.125"/>
				<rect x="164.729" y="325.603" fill="#FFFFFF" width="192.231" height="41.197"/>
				<rect x="205.92" y="366.8" fill="#FFFFFF" width="68.663" height="41.19"/>
				<rect x="192.195" y="366.8" fill="#FFFFFF" width="13.725" height="27.449"/>
				<rect x="178.461" y="353.075" fill="#FFFFFF" width="27.46" height="27.435"/>
			</g>
			<g>
				<rect x="219.649" y="407.984" fill="#7FBCD7" width="27.453" height="13.738"/>
				<rect x="247.103" y="394.249" fill="#7FBCD7" width="27.476" height="13.74"/>
				<rect x="274.583" y="380.509" fill="#7FBCD7" width="27.471" height="13.739"/>
				<rect x="302.054" y="366.8" fill="#7FBCD7" width="27.436" height="13.713"/>
				<rect x="329.486" y="353.075" fill="#7FBCD7" width="27.476" height="13.725"/>
				<rect x="356.961" y="339.341" fill="#7FBCD7" width="13.741" height="13.741"/>
				<rect x="343.225" y="325.603" fill="#7FBCD7" width="13.738" height="13.736"/>
				<rect x="329.486" y="311.863" fill="#7FBCD7" width="13.74" height="13.739"/>
				<rect x="205.92" y="394.249" fill="#7FBCD7" width="13.734" height="13.74"/>
				<rect x="192.195" y="380.509" fill="#7FBCD7" width="13.725" height="13.739"/>
				<rect x="178.461" y="366.8" fill="#7FBCD7" width="13.739" height="13.713"/>
				<rect x="164.729" y="353.075" fill="#7FBCD7" width="13.732" height="13.725"/>
				<rect x="151.006" y="325.603" fill="#7FBCD7" width="13.726" height="27.473"/>
				<rect x="151.006" y="325.603" fill="#7FBCD7" width="27.455" height="13.736"/>
				<rect x="178.461" y="311.863" fill="#7FBCD7" width="27.46" height="13.739"/>
				<rect x="205.92" y="298.128" fill="#7FBCD7" width="27.467" height="13.741"/>
				<rect x="233.388" y="284.39" fill="#7FBCD7" width="27.454" height="13.738"/>
				<rect x="260.842" y="270.695" fill="#7FBCD7" width="41.212" height="13.738"/>
				<rect x="315.75" y="298.128" fill="#7FBCD7" width="13.736" height="13.741"/>
				<rect x="302.054" y="284.39" fill="#7FBCD7" width="13.7" height="13.738"/>
			</g>
		</g>
		<g id="Page_1_">
			<g>
				<rect x="205.92" y="243.223" fill="#FFFFFF" width="123.566" height="82.38"/>
				<rect x="260.842" y="229.482" fill="#FFFFFF" width="54.908" height="96.121"/>
				<rect x="164.729" y="270.695" fill="#FFFFFF" width="192.231" height="41.174"/>
				<rect x="205.92" y="311.863" fill="#FFFFFF" width="68.663" height="41.216"/>
				<rect x="192.195" y="311.863" fill="#FFFFFF" width="13.725" height="27.474"/>
				<rect x="178.461" y="298.128" fill="#FFFFFF" width="27.46" height="27.475"/>
			</g>
			<g>
				<rect x="219.649" y="353.075" fill="#7FBCD7" width="27.453" height="13.725"/>
				<rect x="247.103" y="339.341" fill="#7FBCD7" width="27.476" height="13.741"/>
				<rect x="274.583" y="325.603" fill="#7FBCD7" width="27.471" height="13.736"/>
				<rect x="302.054" y="311.863" fill="#7FBCD7" width="27.436" height="13.739"/>
				<rect x="329.486" y="298.128" fill="#7FBCD7" width="27.476" height="13.741"/>
				<rect x="356.961" y="284.39" fill="#7FBCD7" width="13.741" height="13.738"/>
				<rect x="343.225" y="270.695" fill="#7FBCD7" width="13.738" height="13.738"/>
				<rect x="329.486" y="256.955" fill="#7FBCD7" width="13.74" height="13.74"/>
				<rect x="205.92" y="339.341" fill="#7FBCD7" width="13.734" height="13.741"/>
				<rect x="192.195" y="325.603" fill="#7FBCD7" width="13.725" height="13.736"/>
				<rect x="178.461" y="311.863" fill="#7FBCD7" width="13.739" height="13.739"/>
				<rect x="164.729" y="298.128" fill="#7FBCD7" width="13.732" height="13.741"/>
				<rect x="151.006" y="270.695" fill="#7FBCD7" width="13.726" height="27.433"/>
				<rect x="151.006" y="270.695" fill="#7FBCD7" width="27.455" height="13.738"/>
				<rect x="178.461" y="256.955" fill="#7FBCD7" width="27.46" height="13.74"/>
				<rect x="205.92" y="243.223" fill="#7FBCD7" width="27.467" height="13.736"/>
				<rect x="233.388" y="229.482" fill="#7FBCD7" width="27.454" height="13.74"/>
				<rect x="260.842" y="215.767" fill="#7FBCD7" width="41.212" height="13.719"/>
				<rect x="315.75" y="243.223" fill="#7FBCD7" width="13.736" height="13.736"/>
				<rect x="302.054" y="229.482" fill="#7FBCD7" width="13.7" height="13.74"/>
			</g>
		</g>
		<g id="Page">
			<g>
				<rect x="205.92" y="188.29" fill="#FFFFFF" width="123.566" height="82.4"/>
				<rect x="260.842" y="174.572" fill="#FFFFFF" width="54.908" height="96.122"/>
				<rect x="164.729" y="215.767" fill="#FFFFFF" width="192.231" height="41.192"/>
				<rect x="205.92" y="256.955" fill="#FFFFFF" width="68.663" height="41.176"/>
				<rect x="192.195" y="256.955" fill="#FFFFFF" width="13.725" height="27.438"/>
				<rect x="178.461" y="243.223" fill="#FFFFFF" width="27.46" height="27.473"/>
			</g>
			<g>
				<rect x="219.649" y="298.128" fill="#7FBCD7" width="27.453" height="13.741"/>
				<rect x="247.103" y="284.39" fill="#7FBCD7" width="27.476" height="13.738"/>
				<rect x="274.583" y="270.695" fill="#7FBCD7" width="27.471" height="13.738"/>
				<rect x="302.054" y="256.955" fill="#7FBCD7" width="27.436" height="13.74"/>
				<rect x="329.486" y="243.223" fill="#7FBCD7" width="27.476" height="13.736"/>
				<rect x="356.961" y="229.482" fill="#7FBCD7" width="13.741" height="13.74"/>
				<rect x="343.225" y="215.767" fill="#7FBCD7" width="13.738" height="13.719"/>
				<rect x="329.486" y="202.027" fill="#7FBCD7" width="13.74" height="13.74"/>
				<rect x="205.92" y="284.39" fill="#7FBCD7" width="13.734" height="13.738"/>
				<rect x="192.195" y="270.695" fill="#7FBCD7" width="13.725" height="13.738"/>
				<rect x="178.461" y="256.955" fill="#7FBCD7" width="13.739" height="13.74"/>
				<rect x="164.729" y="243.223" fill="#7FBCD7" width="13.732" height="13.736"/>
				<rect x="151.006" y="215.767" fill="#7FBCD7" width="13.726" height="27.456"/>
				<rect x="151.006" y="215.767" fill="#7FBCD7" width="27.455" height="13.719"/>
				<rect x="178.461" y="202.027" fill="#7FBCD7" width="27.46" height="13.74"/>
				<rect x="205.92" y="188.29" fill="#7FBCD7" width="27.467" height="13.737"/>
				<rect x="233.388" y="174.572" fill="#7FBCD7" width="27.454" height="13.723"/>
				<rect x="260.842" y="160.835" fill="#7FBCD7" width="41.212" height="13.738"/>
				<rect x="315.75" y="188.29" fill="#7FBCD7" width="13.736" height="13.737"/>
				<rect x="302.054" y="174.572" fill="#7FBCD7" width="13.7" height="13.723"/>
			</g>
		</g>
		<g id="Cover">
			<g>
				<rect x="205.92" y="119.647" fill="#4AA0C7" width="123.566" height="82.379"/>
				<rect x="260.842" y="105.916" fill="#4AA0C7" width="54.908" height="96.112"/>
				<rect x="164.729" y="147.108" fill="#4AA0C7" width="192.231" height="41.188"/>
				<rect x="205.92" y="188.29" fill="#4AA0C7" width="68.663" height="41.192"/>
				<rect x="192.195" y="188.29" fill="#4AA0C7" width="13.725" height="27.473"/>
				<rect x="178.461" y="174.572" fill="#4AA0C7" width="27.46" height="27.454"/>
			</g>
			<g>
				<rect x="219.649" y="229.482" fill="#3D83A3" width="27.453" height="13.74"/>
				<rect x="247.103" y="215.767" fill="#3D83A3" width="27.476" height="13.719"/>
				<rect x="274.583" y="202.027" fill="#3D83A3" width="27.471" height="13.74"/>
				<rect x="302.054" y="188.29" fill="#3D83A3" width="27.436" height="13.737"/>
				<rect x="329.486" y="174.572" fill="#3D83A3" width="27.476" height="13.723"/>
				<rect x="356.961" y="160.835" fill="#3D83A3" width="13.741" height="13.738"/>
				<rect x="343.225" y="147.108" fill="#3D83A3" width="13.738" height="13.731"/>
				<rect x="329.486" y="133.382" fill="#3D83A3" width="13.74" height="13.727"/>
				<rect x="205.92" y="215.767" fill="#3D83A3" width="13.734" height="13.719"/>
				<rect x="192.195" y="202.027" fill="#3D83A3" width="13.725" height="13.74"/>
				<rect x="178.461" y="188.29" fill="#3D83A3" width="13.739" height="13.737"/>
				<rect x="164.729" y="174.572" fill="#3D83A3" width="13.732" height="13.723"/>
				<rect x="151.006" y="147.108" fill="#3D83A3" width="13.726" height="27.466"/>
				<rect x="151.006" y="147.108" fill="#3D83A3" width="27.455" height="13.731"/>
				<rect x="178.461" y="133.382" fill="#3D83A3" width="27.46" height="13.727"/>
				<rect x="205.92" y="119.647" fill="#3D83A3" width="27.467" height="13.738"/>
				<rect x="233.388" y="105.916" fill="#3D83A3" width="27.454" height="13.732"/>
				<rect x="260.842" y="92.191" fill="#3D83A3" width="41.212" height="13.727"/>
				<rect x="315.75" y="119.647" fill="#3D83A3" width="13.736" height="13.738"/>
				<rect x="302.054" y="105.916" fill="#3D83A3" width="13.7" height="13.732"/>
			</g>
		</g>
		<g id="Binding">
			<rect x="302.054" y="188.29" fill="#7FBCD7" width="13.7" height="13.737"/>
			<rect x="274.583" y="188.29" fill="#7FBCD7" width="13.737" height="13.737"/>
			<rect x="260.842" y="174.572" fill="#7FBCD7" width="13.739" height="13.723"/>
			<rect x="274.583" y="160.835" fill="#7FBCD7" width="27.471" height="13.738"/>
			<rect x="260.842" y="133.382" fill="#7FBCD7" width="27.472" height="13.727"/>
			<rect x="247.103" y="105.916" fill="#7FBCD7" width="13.739" height="27.466"/>
			<rect x="219.649" y="92.191" fill="#7FBCD7" width="27.453" height="13.727"/>
			<rect x="205.92" y="78.453" fill="#7FBCD7" width="13.734" height="13.739"/>
			<rect x="219.649" y="50.996" fill="#7FBCD7" width="13.739" height="27.457"/>
			<rect x="247.103" y="37.263" fill="#7FBCD7" width="13.739" height="13.728"/>
			<rect x="233.388" y="37.263" fill="#4AA0C7" width="13.718" height="27.458"/>
			<rect x="219.649" y="78.453" fill="#4AA0C7" width="13.739" height="13.739"/>
			<rect x="205.92" y="64.721" fill="#4AA0C7" width="13.734" height="13.731"/>
		</g>
	</g>
</g>
</svg>
