<?xml version="1.0" encoding="utf-8"?>
<!-- Generator: Adobe Illustrator 16.0.0, SVG Export Plug-In . SVG Version: 6.00 Build 0)  -->
<!DOCTYPE svg PUBLIC "-//W3C//DTD SVG 1.1//EN" "http://www.w3.org/Graphics/SVG/1.1/DTD/svg11.dtd">
<svg version="1.1" id="desire_lines" xmlns="http://www.w3.org/2000/svg" xmlns:xlink="http://www.w3.org/1999/xlink" x="0px"
	 y="0px" width="511.471px" height="511.475px" viewBox="0 0 511.471 511.475" enable-background="new 0 0 511.471 511.475"
	 xml:space="preserve">
<rect fill="#FFFFFF" width="511.473" height="511.474"/>
<g id="Icon">
	<g id="block_3_">
		<path id="rect4153-4-4" fill="#DBECF4" d="M102.845,164.95L255.45,79.845l152.595,85.105v180.922l-152.594,85.097l-152.605-85.096
			L102.845,164.95L102.845,164.95z"/>
	</g>
	<g id="block_2_">
		<path id="rect4153-4" fill="#A1CEE2" d="M126.831,179.395L255.4,107.926l128.626,71.469v152.007L255.4,402.885l-128.569-71.483
			V179.395L126.831,179.395z"/>
	</g>
	<g id="block_1_">
		<path id="rect4153-4-2" fill="#7FBCD7" d="M151.483,193.97l103.965-57.808l103.963,57.808v122.878L255.449,374.7l-103.965-57.852
			V193.97z"/>
	</g>
	<g id="block">
		<path id="rect4153" fill="#4AA0C7" d="M179.443,210.475l76.007-42.259l76.008,42.259v89.874l-76.008,42.24l-76.007-42.24V210.475z
			"/>
	</g>
</g>
<g>
	<polygon fill="#DBECF4" points="78.228,231.171 54.243,207.205 54.243,241.254 78.228,241.254 	"/>
	<polygon fill="#DBECF4" points="54.243,269.567 54.243,303.601 78.228,280.017 78.228,269.567 	"/>
	<polygon fill="#A1CEE2" points="78.228,269.567 78.228,280.017 78.228,303.601 102.856,279.363 102.856,269.567 	"/>
	<polygon fill="#A1CEE2" points="102.856,241.254 102.856,231.833 78.228,207.205 78.228,231.171 78.228,241.254 	"/>
	<line fill="none" x1="26.079" y1="269.567" x2="26.079" y2="241.254"/>
	<polygon fill="#4AA0C7" points="151.458,255.808 102.856,207.205 102.856,231.833 102.856,241.254 78.228,241.254 54.243,241.254 
		26.079,241.254 26.079,269.567 54.243,269.567 78.228,269.567 102.856,269.567 102.856,279.363 102.856,303.601 	"/>
</g>
<g>
	<polygon fill="#DBECF4" points="432.646,279.635 456.63,303.601 456.63,269.567 432.646,269.567 	"/>
	<polygon fill="#DBECF4" points="456.63,241.255 456.63,207.205 432.646,230.789 432.646,241.255 	"/>
	<polygon fill="#A1CEE2" points="408,269.567 408,278.974 432.646,303.601 432.646,279.635 422.561,269.567 	"/>
	<polygon fill="#A1CEE2" points="422.006,241.255 432.646,230.789 432.646,207.205 408,231.422 408,241.255 	"/>
	<polygon fill="#A1CEE2" points="432.646,241.255 432.646,230.789 422.006,241.255 	"/>
	<line fill="none" x1="484.788" y1="241.255" x2="484.788" y2="269.567"/>
	<polygon fill="#A1CEE2" points="422.561,269.567 432.646,279.635 432.646,269.567 	"/>
	<polygon fill="#4AA0C7" points="408,231.422 408,207.205 359.415,255.017 408,303.601 408,278.974 384.042,255.017 	"/>
	<polygon fill="#4AA0C7" points="422.561,269.567 408.009,255.017 422.006,241.255 408,241.255 408,231.422 384.042,255.017 
		408,278.974 408,269.567 	"/>
	<polygon fill="#4AA0C7" points="456.63,241.255 432.646,241.255 422.006,241.255 408.009,255.017 422.561,269.567 432.646,269.567 
		456.63,269.567 484.788,269.567 484.788,241.255 	"/>
</g>
</svg>
