<?xml version="1.0" encoding="utf-8"?>
<!-- Generator: Adobe Illustrator 16.0.0, SVG Export Plug-In . SVG Version: 6.00 Build 0)  -->
<!DOCTYPE svg PUBLIC "-//W3C//DTD SVG 1.1//EN" "http://www.w3.org/Graphics/SVG/1.1/DTD/svg11.dtd">
<svg version="1.1" id="poses_pack" xmlns="http://www.w3.org/2000/svg" xmlns:xlink="http://www.w3.org/1999/xlink" x="0px" y="0px"
	 width="511.473px" height="511.475px" viewBox="0 0 511.473 511.475" enable-background="new 0 0 511.473 511.475"
	 xml:space="preserve">
<rect fill="#FFFFFF" width="511.473" height="511.475"/>
<g>
	<g id="Icon">
		<polygon fill="#7FBCD7" points="137.706,296.945 148.461,294.132 217.213,322.685 212.532,204.343 379.032,222.589 
			376.678,251.585 278.008,255.782 281.745,355.411 253.695,373.646 133.964,322.685 		"/>
		<g id="sword">
			<g id="g4331">
				<g id="g4273">
					<polygon id="rect4150" fill="#3D83A3" points="364.386,454.602 340.186,479.001 316.126,455.14 340.289,430.739 					"/>
					<polygon id="rect4152" fill="#3D83A3" points="362.363,436.563 339.075,460.063 315.253,436.418 338.523,412.918 					"/>
					
						<rect id="rect4154" x="323.65" y="401.751" transform="matrix(0.7042 -0.71 0.71 0.7042 -196.2927 365.5909)" fill="#3D83A3" width="33.884" height="33.223"/>
					<polygon id="rect4156" fill="#3D83A3" points="364.259,402.298 340.186,426.598 315.658,402.284 339.731,378.012 					"/>
					<polygon id="rect4158" fill="#3D83A3" points="361.719,383.642 338.17,407.37 314.579,383.938 338.1,360.222 					"/>
					<polygon id="rect4160" fill="#3D83A3" points="363.26,365.911 339.99,389.413 316.021,365.68 339.329,342.178 					"/>
					<polygon id="rect4160-9" fill="#3D83A3" points="363.234,349.34 339.928,372.819 314.628,347.728 337.935,324.251 					"/>
					<polygon id="rect4160-4" fill="#3D83A3" points="363.51,330.01 338.972,354.75 315.004,331.017 339.541,306.277 					"/>
					<polygon id="rect4160-5" fill="#3D83A3" points="371.709,303.96 339.343,336.58 306,303.534 338.404,270.913 					"/>
					<polygon id="rect4160-4-9" fill="#3D83A3" points="408.572,304.547 392.329,320.94 376.062,304.819 392.298,288.426 					"/>
					<polygon id="rect4160-4-9-7" fill="#3D83A3" points="390.776,303.042 374.529,319.403 350.005,295.115 366.249,278.722 					
						"/>
					
						<rect id="rect4160-4-9-2" x="273.935" y="293.063" transform="matrix(0.7039 -0.7103 0.7103 0.7039 -131.7665 292.9232)" fill="#3D83A3" width="23.078" height="22.902"/>
					<polygon id="rect4160-4-9-7-3" fill="#3D83A3" points="329.389,294.804 303.958,320.442 287.564,304.196 312.995,278.558 					
						"/>
					
						<rect id="rect4160-4-9-25" x="327.504" y="258.102" transform="matrix(0.7039 -0.7103 0.7103 0.7039 -91.0694 320.6593)" fill="#3D83A3" width="23.077" height="22.901"/>
					<polygon id="rect4160-4-9-25-6" fill="#3D83A3" points="354.898,251.78 338.653,268.153 322.386,252.032 338.632,235.659 					
						"/>
					<polygon id="rect4160-4-9-25-2" fill="#3D83A3" points="363.407,224.134 339.121,248.66 314.766,224.523 339.066,199.998 					
						"/>
				</g>
			</g>
			<g id="g4177" transform="matrix(0.81179945,0.58393634,-0.58393634,0.81179945,-841.48546,-920.78022)">
			</g>
			<a id="a4378" transform="matrix(0.81179945,0.58393634,-0.58393634,0.81179945,267.7046,-60.585579)">
				<g id="g4323">
					<g id="g4384">
					</g>
				</g>
			</a>
			<a id="a4357" transform="matrix(0.81179945,0.58393634,-0.58393634,0.81179945,717.4415,262.91515)">
			</a>
		</g>
		<polygon fill="#4AA0C7" points="232.172,386.28 97.956,372.238 97.956,348.867 112.921,342.32 211.61,348.867 212.532,244.574 
			180.728,241.765 180.266,195.928 193.857,189.727 365.446,236.383 367.49,253.997 352.461,271.634 260.701,254.395 
			260.701,365.693 244.34,373.646 		"/>
		<polygon fill="#3D83A3" points="271.463,251.586 282.224,251.586 301.155,226.523 330.175,226.523 384.188,137.004 
			350.036,116.895 		"/>
		<polygon fill="#4AA0C7" points="225.161,36.45 350.036,116.895 269.135,255.782 159.683,171.611 		"/>
	</g>
	<polyline fill="#4AA0C7" points="384.188,137.004 303.26,85.088 225.161,36.45 350.036,116.895 	"/>
</g>
</svg>
