<?xml version="1.0" encoding="UTF-8" standalone="no"?>
<!-- Created with Inkscape (http://www.inkscape.org/) -->

<svg
   xmlns:dc="http://purl.org/dc/elements/1.1/"
   xmlns:cc="http://creativecommons.org/ns#"
   xmlns:rdf="http://www.w3.org/1999/02/22-rdf-syntax-ns#"
   xmlns:svg="http://www.w3.org/2000/svg"
   xmlns="http://www.w3.org/2000/svg"
   xmlns:sodipodi="http://sodipodi.sourceforge.net/DTD/sodipodi-0.dtd"
   xmlns:inkscape="http://www.inkscape.org/namespaces/inkscape"
   width="210mm"
   height="297mm"
   viewBox="0 0 744.09448819 1052.3622047"
   id="svg2"
   version="1.1"
   inkscape:version="0.91 r13725"
   sodipodi:docname="poses_pack.svg">
  <defs
     id="defs4" />
  <sodipodi:namedview
     id="base"
     pagecolor="#ffffff"
     bordercolor="#666666"
     borderopacity="1.0"
     inkscape:pageopacity="0.0"
     inkscape:pageshadow="2"
     inkscape:zoom="0.49497475"
     inkscape:cx="463.29138"
     inkscape:cy="577.45868"
     inkscape:document-units="px"
     inkscape:current-layer="layer1"
     showgrid="false"
     inkscape:window-width="1920"
     inkscape:window-height="1017"
     inkscape:window-x="-8"
     inkscape:window-y="-8"
     inkscape:window-maximized="1" />
  <metadata
     id="metadata7">
    <rdf:RDF>
      <cc:Work
         rdf:about="">
        <dc:format>image/svg+xml</dc:format>
        <dc:type
           rdf:resource="http://purl.org/dc/dcmitype/StillImage" />
        <dc:title></dc:title>
      </cc:Work>
    </rdf:RDF>
  </metadata>
  <g
     inkscape:label="Layer 1"
     inkscape:groupmode="layer"
     id="layer1">
    <path
       style="fill:#4aa0c7;fill-opacity:1"
       d="m 410.29832,595.61863 c -0.57259,0.88457 4.2068,26.91448 4.2068,28.11469 l 0,28.11468 -7.71246,2.80947 c -12.86096,4.68496 -26.3128,12.23471 -29.7258,16.68341 -5.22409,6.80939 -26.11766,17.01498 -30.99924,15.14174 -3.31771,-1.27315 -4.92229,0.3902 -6.11126,6.33504 -1.03246,5.16231 -5.31559,10.49177 -11.90985,14.81923 -9.10892,5.97775 -13.04919,6.68374 -34.13606,6.1161 -13.11115,-0.35292 -53.79036,-4.36086 -90.39822,-8.90652 -36.60784,-4.54567 -73.20691,-8.30929 -81.33126,-8.36355 -16.36988,-0.10943 -63.989149,-6.34045 -68.186056,-8.92227 -1.547205,-0.9518 -2.084497,-12.02025 -1.27374,-26.23989 l 1.40227,-24.59364 16.191685,-5.38496 16.191685,-5.38492 74.655206,7.33343 c 41.06037,4.03339 75.24976,6.7389 75.97642,6.01224 1.45994,-1.4601 -33.25956,-18.44358 -37.70434,-18.44358 -1.53231,0 -9.61333,-3.76327 -17.95784,-8.36277 -8.34451,-4.59954 -17.27525,-8.38564 -19.84605,-8.41357 -2.5708,-0.0281 -5.09489,-1.0086 -5.60906,-2.17924 -1.33547,-3.04052 -30.12995,-17.50327 -34.84799,-17.50327 -5.21244,0 -5.02723,-2.37881 2.09338,-26.88509 5.23893,-18.03033 6.89316,-20.79188 12.45485,-20.79188 3.52746,0 7.1935,-1.26203 8.14683,-2.80452 2.26537,-3.66548 17.38802,-3.6303 19.65995,0.0457 0.96885,1.56765 2.79338,2.21258 4.05453,1.43313 1.26114,-0.77939 3.79896,0.39749 5.63962,2.61535 1.84064,2.21785 7.97832,5.52334 13.63924,7.34559 5.66099,1.82222 18.12775,6.9349 27.70399,11.36155 9.57623,4.42664 19.38853,8.04844 21.80508,8.04844 2.41659,0 13.38582,4.52832 24.37611,10.06296 l 19.98236,10.06293 -2.04228,-73.85157 c -1.12326,-40.61836 -2.5131,-74.32238 -3.08851,-74.89779 -0.57543,-0.57544 -14.89708,-1.70273 -31.82591,-2.5051 -28.42097,-1.3471 -30.88487,-1.91279 -32.15252,-7.38174 -0.7551,-3.25755 -1.48147,-25.1689 -1.61421,-48.69185 l -0.24146,-42.76905 10.52211,-0.0934 10.52207,-0.0933 -6.62086,-5.51574 c -3.64138,-3.03347 -8.374,-5.51556 -10.51684,-5.51556 -2.14285,0 -3.89611,-1.17067 -3.89611,-2.60148 0,-1.43079 -7.57889,-7.20538 -16.84196,-12.83242 -21.42712,-13.0163 -23.83399,-17.32093 -16.61666,-29.71854 3.05324,-5.24471 9.92109,-19.00112 15.26193,-30.56978 5.34079,-11.56868 11.61993,-24.60684 13.95362,-28.9737 2.3337,-4.36683 4.24307,-9.20262 4.24307,-10.74621 0,-1.54355 4.41713,-10.34316 9.81585,-19.55464 5.39872,-9.2115 9.81583,-18.27498 9.81583,-20.14102 0,-1.86608 4.41714,-9.95194 9.81587,-17.96854 5.39871,-8.01664 9.81583,-16.12753 9.81583,-18.02423 0,-3.29919 11.04335,-27.6318 23.35555,-51.461022 3.18793,-6.16997 7.32959,-14.37321 9.20368,-18.22943 11.89911,-24.484462 18.98048,-38.166194 20.81985,-40.225616 2.0609,-2.307449 7.32289,0.334746 28.52035,14.321016 5.71119,3.768283 14.13987,8.929824 18.73038,11.470088 15.22555,8.425412 35.237,20.683002 47.06633,28.829452 6.42211,4.42271 12.54926,8.04127 13.61589,8.04127 1.06663,0 7.54927,3.78611 14.4059,8.41359 6.85657,4.62747 13.34978,8.415122 14.42935,8.417002 1.07953,0.001 5.48898,3.03606 9.79878,6.74264 4.3098,3.70657 15.0371,10.25409 23.83846,14.54998 8.80137,4.29588 17.67019,9.46493 19.70848,11.48679 2.03828,2.0218 4.90492,3.67602 6.37033,3.67602 3.25849,0 26.01738,14.60333 27.31737,17.5283 0.51418,1.15687 3.19924,2.10339 5.9668,2.10339 2.76757,0 6.66105,1.96297 8.65221,4.36215 2.99112,3.6041 23.695,17.11848 47.02349,30.69443 2.65056,1.54249 9.3357,6.27514 14.85581,10.51697 5.52015,4.24185 11.17955,7.73179 12.57643,7.7554 1.3969,0.0225 4.30752,1.16216 6.46804,2.5301 3.20526,2.02936 2.23435,5.50585 -5.27482,18.88763 -5.06173,9.02024 -10.93106,17.40968 -13.04299,18.6432 -2.11192,1.23351 -3.83986,3.94627 -3.83986,6.02835 0,2.08209 -4.1016,10.16295 -9.1147,17.9575 -16.70571,25.97465 -22.46846,35.371 -29.49423,48.09136 -3.83382,6.94121 -9.33553,15.22577 -12.22608,18.41017 -2.89054,3.18442 -5.25552,7.66464 -5.25552,9.95607 0,2.29145 -1.4934,5.65969 -3.31867,7.48496 -4.46441,4.46441 -0.64863,7.8685 4.25671,3.79747 2.99906,-2.48899 5.51958,-1.92733 11.12009,2.47805 3.98313,3.13309 8.0327,8.18771 8.99906,11.23246 1.18836,3.74425 4.25409,5.53588 9.47257,5.53588 4.24358,0 14.2548,1.94194 22.24724,4.31545 16.68738,4.95562 16.39051,3.84769 10.14663,37.86896 l -4.3964,23.95501 -9.2024,-1.07434 -9.20242,-1.07434 -1.76351,18.8853 c -0.96996,10.38691 -2.41498,19.53671 -3.21119,20.3329 -0.79618,0.79621 -7.44209,1.35701 -14.76864,1.24625 l -60.88472,-11.13328 c -0.26529,-0.34571 -13.02631,-2.02731 -28.35776,-3.73685 -15.33142,-1.70957 -29.1413,-4.15453 -30.68862,-5.43323 -3.5536,-2.93669 -32.91055,-8.3602 -35.75098,-6.60472 -1.1654,0.72023 -2.11888,22.95775 -2.11888,49.41671 l 0,48.10714"
       id="path4147"
       inkscape:connector-curvature="0"
       sodipodi:nodetypes="cscsssssssssscccscssccssssscssssscssscsccccssssssssssssssssssscssssssssscssssssssssssssscccscccsscsc" />
    <g
       id="layer1-9"
       inkscape:label="Layer 1"
       transform="matrix(-0.74335925,-0.74335925,0.74335925,-0.74335925,411.75388,1387.0748)">
      <g
         id="g4331">
        <g
           id="g4273">
          <rect
             y="339.50507"
             x="159.64285"
             height="77.14286"
             width="76.071426"
             id="rect4150"
             style="opacity:1;fill:#4aa0c7;fill-opacity:1;stroke:none" />
          <rect
             y="368.07648"
             x="191.42857"
             height="74.285713"
             width="75.35714"
             id="rect4152"
             style="opacity:1;fill:#4aa0c7;fill-opacity:1;stroke:none" />
          <rect
             y="398.79077"
             x="217.5"
             height="76.071426"
             width="74.64286"
             id="rect4154"
             style="opacity:1;fill:#4aa0c7;fill-opacity:1;stroke:none" />
          <rect
             y="423.07651"
             x="242.5"
             height="76.785721"
             width="77.5"
             id="rect4156"
             style="opacity:1;fill:#4aa0c7;fill-opacity:1;stroke:none" />
          <rect
             y="450.57648"
             x="276.07144"
             height="75"
             width="74.64286"
             id="rect4158"
             style="opacity:1;fill:#4aa0c7;fill-opacity:1;stroke:none" />
          <rect
             y="482.00504"
             x="301.57144"
             height="74.285713"
             width="75.714287"
             id="rect4160"
             style="opacity:1;fill:#4aa0c7;fill-opacity:1;stroke:none" />
          <rect
             y="508.43365"
             x="327.85715"
             height="74.285713"
             width="80"
             id="rect4160-9"
             style="opacity:1;fill:#4aa0c7;fill-opacity:1;stroke:none" />
          <rect
             y="535.71936"
             x="358"
             height="78.214287"
             width="75.714287"
             id="rect4160-4"
             style="opacity:1;fill:#4aa0c7;fill-opacity:1;stroke:none" />
          <rect
             y="565.21936"
             x="386.07141"
             height="103.21429"
             width="105.35715"
             id="rect4160-5"
             style="opacity:1;fill:#4aa0c7;fill-opacity:1;stroke:none" />
          <rect
             y="673.96936"
             x="326.42859"
             height="51.785717"
             width="51.428574"
             id="rect4160-4-9"
             style="opacity:1;fill:#4aa0c7;fill-opacity:1;stroke:none" />
          <rect
             y="648.255"
             x="357.14285"
             height="51.785717"
             width="77.5"
             id="rect4160-4-9-7"
             style="opacity:1;fill:#4aa0c7;fill-opacity:1;stroke:none" />
          <rect
             transform="scale(1,-1)"
             y="-557.18365"
             x="496.96429"
             height="51.785717"
             width="51.428574"
             id="rect4160-4-9-2"
             style="opacity:1;fill:#4aa0c7;fill-opacity:1;stroke:none" />
          <rect
             transform="matrix(0,-1,1,0,0,0)"
             y="468.03571"
             x="-616.11212"
             height="51.785717"
             width="81.071426"
             id="rect4160-4-9-7-3"
             style="opacity:1;fill:#4aa0c7;fill-opacity:1;stroke:none" />
          <rect
             y="645.75507"
             x="466.78571"
             height="51.785717"
             width="51.428574"
             id="rect4160-4-9-25"
             style="opacity:1;fill:#4aa0c7;fill-opacity:1;stroke:none" />
          <rect
             y="673.25507"
             x="495.35712"
             height="51.785717"
             width="51.428574"
             id="rect4160-4-9-25-6"
             style="opacity:1;fill:#4aa0c7;fill-opacity:1;stroke:none" />
          <rect
             y="705.04077"
             x="525.4458"
             height="77.5"
             width="76.965523"
             id="rect4160-4-9-25-2"
             style="opacity:1;fill:#4aa0c7;fill-opacity:1;stroke:none" />
        </g>
      </g>
      <g
         transform="matrix(0.81179945,0.58393634,-0.58393634,0.81179945,-841.48546,-920.78022)"
         id="g4177" />
      <a
         transform="matrix(0.81179945,0.58393634,-0.58393634,0.81179945,267.7046,-60.585579)"
         id="a4378">
        <g
           id="g4323">
          <g
             id="g4384" />
        </g>
      </a>
      <a
         transform="matrix(0.81179945,0.58393634,-0.58393634,0.81179945,717.4415,262.91515)"
         id="a4357" />
    </g>
  </g>
</svg>
