<?xml version="1.0" encoding="utf-8"?>
<!-- Generator: Adobe Illustrator 16.0.0, SVG Export Plug-In . SVG Version: 6.00 Build 0)  -->
<!DOCTYPE svg PUBLIC "-//W3C//DTD SVG 1.1//EN" "http://www.w3.org/Graphics/SVG/1.1/DTD/svg11.dtd">
<svg version="1.1"
	 id="svg8" xmlns:inkscape="http://www.inkscape.org/namespaces/inkscape" xmlns:cc="http://creativecommons.org/ns#" xmlns:rdf="http://www.w3.org/1999/02/22-rdf-syntax-ns#" xmlns:sodipodi="http://sodipodi.sourceforge.net/DTD/sodipodi-0.dtd" xmlns:dc="http://purl.org/dc/elements/1.1/" xmlns:svg="http://www.w3.org/2000/svg"
	 xmlns="http://www.w3.org/2000/svg" xmlns:xlink="http://www.w3.org/1999/xlink" x="0px" y="0px" width="511.469px"
	 height="511.475px" viewBox="0 0 511.469 511.475" enable-background="new 0 0 511.469 511.475" xml:space="preserve">
<rect fill="#FFFFFF" width="511.473" height="511.475"/>
<g>
	<polygon fill="#4AA0C7" points="372.054,299.302 372.054,279.01 361.955,279.01 361.955,259.902 351.729,259.902 351.729,229.491 
		341.844,229.491 341.844,219.32 331.283,219.32 331.283,229.491 331.283,230.338 331.283,239.483 322.517,239.483 322.517,249.841 
		312.521,249.841 312.521,239.696 302.326,239.696 302.326,219.32 292.131,219.32 292.131,200.134 281.814,200.134 281.814,190.08 
		281.808,190.08 281.808,180.003 271.754,180.003 271.754,169.88 271.733,169.88 271.733,130.394 242.385,130.394 242.385,140.628 
		232.42,140.628 232.42,149.629 222.215,149.629 222.215,159.679 211.996,159.679 211.996,169.88 202.031,169.88 202.031,180.003 
		191.865,180.003 191.865,190.08 187.088,190.08 182.773,190.08 172.612,190.08 167.181,190.08 162.445,190.08 162.445,199.963 
		152.384,199.963 152.384,210.11 142.101,210.11 142.101,219.176 132.243,219.176 132.243,239.619 121.997,239.619 121.997,249.841 
		112.994,249.841 112.994,279.168 102.683,279.168 102.683,369.181 112.994,369.181 112.994,389.306 121.997,389.306 
		121.997,408.662 132.243,408.662 132.243,418.505 142.101,418.505 142.101,429.049 152.384,429.049 152.384,439.233 
		172.574,439.233 172.574,449.679 192.101,449.679 192.101,418.394 183.129,418.394 183.129,348.802 191.734,348.802 
		191.734,319.705 201.965,319.705 201.965,299.476 211.992,299.476 211.992,289.309 222.292,289.309 222.292,279.271 
		232.18,279.271 232.18,309.776 242.578,309.776 242.578,338.934 252.425,338.934 252.425,349.36 261.599,349.36 261.599,359.021 
		271.947,359.021 271.947,349.36 271.955,349.36 271.955,338.934 281.95,338.934 281.95,359.253 291.895,359.253 291.895,369.326 
		302.317,369.326 302.317,399.881 312.176,399.881 312.172,408.605 302.095,408.605 302.23,438.536 291.815,438.536 
		291.815,449.643 322.857,449.643 322.857,438.883 341.217,438.901 341.31,428.89 351.914,429.021 351.977,418.848 361.912,418.745 
		361.935,408.687 372.054,408.601 372.054,399.881 372.054,389.711 382.439,389.711 382.439,299.302 	"/>
	<rect x="172.612" y="179.896" fill="#4AA0C7" width="10.161" height="10.186"/>
</g>
<g>
	<polygon fill="#96CCEB" points="376.175,51.924 376.175,51.959 376.175,51.924 324.658,117.791 357.49,117.791 357.49,203.651 
		367.708,203.651 384.661,203.651 394.896,203.651 394.896,117.791 427.692,117.791 	"/>
	<polygon fill="#96CCEB" points="455.284,173.02 435.722,173.02 435.722,153.438 424.656,153.438 424.656,173.02 405.086,173.02 
		405.086,184.074 424.656,184.074 424.656,203.651 435.722,203.651 435.722,184.074 455.284,184.074 	"/>
</g>
<rect x="251.982" y="120.211" fill="#4AA0C7" width="10.144" height="10.183"/>
<g display="none">
	<path display="inline" fill="#4AA0C7" d="M-11.097-11v532.904h532.902V-11H-11.097z M255.355,481.387
		c-124.782,0-225.937-101.147-225.937-225.935S130.572,29.514,255.355,29.514c124.78,0,225.937,101.154,225.937,225.938
		C481.292,380.232,380.135,481.387,255.355,481.387z"/>
</g>
</svg>
